G75*
%MOIN*%
%OFA0B0*%
%FSLAX25Y25*%
%IPPOS*%
%LPD*%
%AMOC8*
5,1,8,0,0,1.08239X$1,22.5*
%
%ADD10C,0.00500*%
%ADD11C,0.00600*%
%ADD12C,0.00800*%
D10*
X0151159Y0141718D02*
X0153662Y0141718D01*
X0153662Y0142969D01*
X0153244Y0143386D01*
X0152410Y0143386D01*
X0151993Y0142969D01*
X0151993Y0141718D01*
X0151993Y0142552D02*
X0151159Y0143386D01*
X0151576Y0144481D02*
X0151159Y0144898D01*
X0151159Y0145732D01*
X0151576Y0146149D01*
X0151993Y0146149D01*
X0152410Y0145732D01*
X0152410Y0144481D01*
X0151576Y0144481D01*
X0152410Y0144481D02*
X0153244Y0145315D01*
X0153662Y0146149D01*
X0153946Y0161218D02*
X0153946Y0163720D01*
X0152695Y0163720D01*
X0152278Y0163303D01*
X0152278Y0162469D01*
X0152695Y0162052D01*
X0153946Y0162052D01*
X0151184Y0161218D02*
X0150350Y0162052D01*
X0149516Y0161218D01*
X0149516Y0163720D01*
X0148422Y0163720D02*
X0147171Y0163720D01*
X0146754Y0163303D01*
X0146754Y0162469D01*
X0147171Y0162052D01*
X0148422Y0162052D01*
X0148422Y0161218D02*
X0148422Y0163720D01*
X0147588Y0162052D02*
X0146754Y0161218D01*
X0151184Y0161218D02*
X0151184Y0163720D01*
X0150350Y0172218D02*
X0150350Y0174720D01*
X0151184Y0174720D02*
X0149516Y0174720D01*
X0148422Y0174720D02*
X0146754Y0174720D01*
X0147588Y0174720D02*
X0147588Y0172218D01*
X0152278Y0172218D02*
X0152278Y0173886D01*
X0153112Y0174720D01*
X0153946Y0173886D01*
X0153946Y0172218D01*
X0155041Y0172635D02*
X0155458Y0172218D01*
X0156709Y0172218D01*
X0156709Y0174720D01*
X0155458Y0174720D01*
X0155041Y0174303D01*
X0155041Y0173886D01*
X0155458Y0173469D01*
X0156709Y0173469D01*
X0155458Y0173469D02*
X0155041Y0173052D01*
X0155041Y0172635D01*
X0153946Y0173469D02*
X0152278Y0173469D01*
X0153112Y0183218D02*
X0153112Y0185720D01*
X0153946Y0185720D02*
X0152278Y0185720D01*
X0151184Y0185303D02*
X0151184Y0183635D01*
X0150767Y0183218D01*
X0149933Y0183218D01*
X0149516Y0183635D01*
X0148422Y0183218D02*
X0148422Y0185720D01*
X0147171Y0185720D01*
X0146754Y0185303D01*
X0146754Y0184886D01*
X0147171Y0184469D01*
X0148422Y0184469D01*
X0148422Y0183218D02*
X0147171Y0183218D01*
X0146754Y0183635D01*
X0146754Y0184052D01*
X0147171Y0184469D01*
X0149516Y0185303D02*
X0149933Y0185720D01*
X0150767Y0185720D01*
X0151184Y0185303D01*
X0155041Y0185303D02*
X0155041Y0184469D01*
X0155458Y0184052D01*
X0156709Y0184052D01*
X0156709Y0183218D02*
X0156709Y0185720D01*
X0155458Y0185720D01*
X0155041Y0185303D01*
X0155875Y0184052D02*
X0155041Y0183218D01*
X0153529Y0194218D02*
X0153946Y0194635D01*
X0153529Y0194218D02*
X0152695Y0194218D01*
X0152278Y0194635D01*
X0152278Y0195052D01*
X0152695Y0195469D01*
X0153529Y0195469D01*
X0153946Y0195886D01*
X0153946Y0196303D01*
X0153529Y0196720D01*
X0152695Y0196720D01*
X0152278Y0196303D01*
X0151184Y0196720D02*
X0149933Y0196720D01*
X0149516Y0196303D01*
X0149516Y0194635D01*
X0149933Y0194218D01*
X0151184Y0194218D01*
X0151184Y0196720D01*
X0148422Y0196720D02*
X0147171Y0196720D01*
X0146754Y0196303D01*
X0146754Y0195886D01*
X0147171Y0195469D01*
X0148422Y0195469D01*
X0148422Y0194218D02*
X0147171Y0194218D01*
X0146754Y0194635D01*
X0146754Y0195052D01*
X0147171Y0195469D01*
X0148422Y0194218D02*
X0148422Y0196720D01*
X0148422Y0205218D02*
X0147588Y0206052D01*
X0146754Y0205218D01*
X0146754Y0207720D01*
X0148422Y0207720D02*
X0148422Y0205218D01*
X0149516Y0205635D02*
X0149516Y0207303D01*
X0149933Y0207720D01*
X0151184Y0207720D01*
X0151184Y0205218D01*
X0149933Y0205218D01*
X0149516Y0205635D01*
X0152278Y0205635D02*
X0152278Y0206052D01*
X0152695Y0206469D01*
X0153529Y0206469D01*
X0153946Y0206886D01*
X0153946Y0207303D01*
X0153529Y0207720D01*
X0152695Y0207720D01*
X0152278Y0207303D01*
X0152278Y0205635D02*
X0152695Y0205218D01*
X0153529Y0205218D01*
X0153946Y0205635D01*
X0153946Y0216218D02*
X0152278Y0216218D01*
X0151184Y0216218D02*
X0151184Y0218720D01*
X0149933Y0218720D01*
X0149516Y0218303D01*
X0149516Y0217469D01*
X0149933Y0217052D01*
X0151184Y0217052D01*
X0153112Y0217469D02*
X0153946Y0217469D01*
X0153946Y0218720D02*
X0153946Y0216218D01*
X0153946Y0218720D02*
X0152278Y0218720D01*
X0148422Y0218720D02*
X0148422Y0216218D01*
X0147588Y0217052D01*
X0146754Y0216218D01*
X0146754Y0218720D01*
X0174576Y0150149D02*
X0174159Y0149732D01*
X0174159Y0148898D01*
X0174576Y0148481D01*
X0175410Y0148481D02*
X0175827Y0149315D01*
X0175827Y0149732D01*
X0175410Y0150149D01*
X0174576Y0150149D01*
X0175410Y0148481D02*
X0176662Y0148481D01*
X0176662Y0150149D01*
X0176244Y0147386D02*
X0175410Y0147386D01*
X0174993Y0146969D01*
X0174993Y0145718D01*
X0174159Y0145718D02*
X0176662Y0145718D01*
X0176662Y0146969D01*
X0176244Y0147386D01*
X0174993Y0146552D02*
X0174159Y0147386D01*
X0175410Y0138149D02*
X0175410Y0136481D01*
X0176662Y0137732D01*
X0174159Y0137732D01*
X0174159Y0135386D02*
X0174993Y0134552D01*
X0174993Y0134969D02*
X0174993Y0133718D01*
X0174159Y0133718D02*
X0176662Y0133718D01*
X0176662Y0134969D01*
X0176244Y0135386D01*
X0175410Y0135386D01*
X0174993Y0134969D01*
X0174993Y0127149D02*
X0174576Y0127149D01*
X0174159Y0126732D01*
X0174159Y0125898D01*
X0174576Y0125481D01*
X0174159Y0124386D02*
X0174993Y0123552D01*
X0174993Y0123969D02*
X0174993Y0122718D01*
X0174159Y0122718D02*
X0176662Y0122718D01*
X0176662Y0123969D01*
X0176244Y0124386D01*
X0175410Y0124386D01*
X0174993Y0123969D01*
X0176244Y0125481D02*
X0176662Y0125898D01*
X0176662Y0126732D01*
X0176244Y0127149D01*
X0175827Y0127149D01*
X0175410Y0126732D01*
X0174993Y0127149D01*
X0175410Y0126732D02*
X0175410Y0126315D01*
X0175827Y0115149D02*
X0174159Y0113481D01*
X0174159Y0115149D01*
X0175827Y0115149D02*
X0176244Y0115149D01*
X0176662Y0114732D01*
X0176662Y0113898D01*
X0176244Y0113481D01*
X0176244Y0112386D02*
X0175410Y0112386D01*
X0174993Y0111969D01*
X0174993Y0110718D01*
X0174159Y0110718D02*
X0176662Y0110718D01*
X0176662Y0111969D01*
X0176244Y0112386D01*
X0174993Y0111552D02*
X0174159Y0112386D01*
X0174159Y0103149D02*
X0174159Y0101481D01*
X0174159Y0102315D02*
X0176662Y0102315D01*
X0175827Y0101481D01*
X0175410Y0100386D02*
X0174993Y0099969D01*
X0174993Y0098718D01*
X0174159Y0098718D02*
X0176662Y0098718D01*
X0176662Y0099969D01*
X0176244Y0100386D01*
X0175410Y0100386D01*
X0174993Y0099552D02*
X0174159Y0100386D01*
X0214659Y0093149D02*
X0214659Y0091481D01*
X0216327Y0093149D01*
X0216744Y0093149D01*
X0217162Y0092732D01*
X0217162Y0091898D01*
X0216744Y0091481D01*
X0216744Y0090386D02*
X0215076Y0090386D01*
X0214659Y0089969D01*
X0214659Y0089135D01*
X0215076Y0088718D01*
X0216744Y0088718D01*
X0217162Y0089135D01*
X0217162Y0089969D01*
X0216744Y0090386D01*
X0215493Y0089552D02*
X0214659Y0090386D01*
X0215659Y0108431D02*
X0218162Y0108431D01*
X0218162Y0109682D01*
X0217744Y0110099D01*
X0216910Y0110099D01*
X0216493Y0109682D01*
X0216493Y0108431D01*
X0216493Y0109265D02*
X0215659Y0110099D01*
X0215659Y0111193D02*
X0215659Y0112862D01*
X0215659Y0112028D02*
X0218162Y0112028D01*
X0217327Y0111193D01*
X0217744Y0113956D02*
X0216076Y0113956D01*
X0217744Y0115624D01*
X0216076Y0115624D01*
X0215659Y0115207D01*
X0215659Y0114373D01*
X0216076Y0113956D01*
X0217744Y0113956D02*
X0218162Y0114373D01*
X0218162Y0115207D01*
X0217744Y0115624D01*
X0239488Y0114728D02*
X0239488Y0107838D01*
X0249331Y0107838D01*
X0247792Y0106220D02*
X0248209Y0105803D01*
X0248209Y0104135D01*
X0247792Y0103718D01*
X0246958Y0103718D01*
X0246541Y0104135D01*
X0246541Y0105803D02*
X0246958Y0106220D01*
X0247792Y0106220D01*
X0245446Y0106220D02*
X0243778Y0106220D01*
X0244612Y0106220D02*
X0244612Y0103718D01*
X0242684Y0103718D02*
X0242684Y0106220D01*
X0241433Y0106220D01*
X0241016Y0105803D01*
X0241016Y0104969D01*
X0241433Y0104552D01*
X0242684Y0104552D01*
X0241850Y0104552D02*
X0241016Y0103718D01*
X0239922Y0103718D02*
X0238254Y0103718D01*
X0239922Y0103718D02*
X0239922Y0106220D01*
X0249303Y0103301D02*
X0250971Y0103301D01*
X0252065Y0104135D02*
X0252065Y0104552D01*
X0252482Y0104969D01*
X0253734Y0104969D01*
X0253734Y0104135D01*
X0253317Y0103718D01*
X0252482Y0103718D01*
X0252065Y0104135D01*
X0252899Y0105803D02*
X0252065Y0106220D01*
X0252899Y0105803D02*
X0253734Y0104969D01*
X0254828Y0104135D02*
X0254828Y0105803D01*
X0255245Y0106220D01*
X0256496Y0106220D01*
X0256496Y0103718D01*
X0255245Y0103718D01*
X0254828Y0104135D01*
X0249331Y0115319D02*
X0249331Y0121618D01*
X0252659Y0120732D02*
X0252659Y0119898D01*
X0253076Y0119481D01*
X0253076Y0118386D02*
X0252659Y0117969D01*
X0252659Y0117135D01*
X0253076Y0116718D01*
X0253910Y0117135D02*
X0253910Y0117969D01*
X0253493Y0118386D01*
X0253076Y0118386D01*
X0253910Y0117135D02*
X0254327Y0116718D01*
X0254744Y0116718D01*
X0255162Y0117135D01*
X0255162Y0117969D01*
X0254744Y0118386D01*
X0254744Y0119481D02*
X0255162Y0119898D01*
X0255162Y0120732D01*
X0254744Y0121149D01*
X0254327Y0121149D01*
X0253910Y0120732D01*
X0253493Y0121149D01*
X0253076Y0121149D01*
X0252659Y0120732D01*
X0253910Y0120732D02*
X0253910Y0120315D01*
X0249331Y0129098D02*
X0239488Y0129098D01*
X0239488Y0122208D01*
X0239254Y0130718D02*
X0240922Y0130718D01*
X0240922Y0133220D01*
X0242016Y0132803D02*
X0242016Y0131969D01*
X0242433Y0131552D01*
X0243684Y0131552D01*
X0243684Y0130718D02*
X0243684Y0133220D01*
X0242433Y0133220D01*
X0242016Y0132803D01*
X0242850Y0131552D02*
X0242016Y0130718D01*
X0245612Y0130718D02*
X0245612Y0133220D01*
X0246446Y0133220D02*
X0244778Y0133220D01*
X0247541Y0132803D02*
X0247958Y0133220D01*
X0248792Y0133220D01*
X0249209Y0132803D01*
X0249209Y0131135D01*
X0248792Y0130718D01*
X0247958Y0130718D01*
X0247541Y0131135D01*
X0250303Y0130301D02*
X0251971Y0130301D01*
X0253065Y0130718D02*
X0254734Y0133220D01*
X0255828Y0133220D02*
X0257496Y0133220D01*
X0256662Y0133220D02*
X0256662Y0130718D01*
X0254734Y0130718D02*
X0253065Y0133220D01*
X0254076Y0140718D02*
X0253659Y0141135D01*
X0253659Y0141969D01*
X0254076Y0142386D01*
X0255744Y0142386D01*
X0256162Y0141969D01*
X0256162Y0141135D01*
X0255744Y0140718D01*
X0254076Y0140718D01*
X0254493Y0141552D02*
X0253659Y0142386D01*
X0253659Y0143481D02*
X0253659Y0145149D01*
X0253659Y0144315D02*
X0256162Y0144315D01*
X0255327Y0143481D01*
X0252446Y0151718D02*
X0250778Y0151718D01*
X0251612Y0151718D02*
X0251612Y0154220D01*
X0252446Y0153386D01*
X0253331Y0155657D02*
X0253331Y0163728D01*
X0253331Y0155657D02*
X0243488Y0155657D01*
X0245254Y0153803D02*
X0246922Y0152135D01*
X0246505Y0151718D01*
X0245671Y0151718D01*
X0245254Y0152135D01*
X0245254Y0153803D01*
X0245671Y0154220D01*
X0246505Y0154220D01*
X0246922Y0153803D01*
X0246922Y0152135D01*
X0248016Y0151718D02*
X0249684Y0151718D01*
X0248016Y0153386D01*
X0248016Y0153803D01*
X0248433Y0154220D01*
X0249267Y0154220D01*
X0249684Y0153803D01*
X0243488Y0164319D02*
X0243488Y0170618D01*
X0241162Y0169207D02*
X0241162Y0168373D01*
X0240744Y0167956D01*
X0240744Y0166862D02*
X0241162Y0166445D01*
X0241162Y0165610D01*
X0240744Y0165193D01*
X0240327Y0165193D01*
X0239910Y0165610D01*
X0239910Y0166445D01*
X0239493Y0166862D01*
X0239076Y0166862D01*
X0238659Y0166445D01*
X0238659Y0165610D01*
X0239076Y0165193D01*
X0238659Y0167956D02*
X0240327Y0169624D01*
X0240744Y0169624D01*
X0241162Y0169207D01*
X0238659Y0169624D02*
X0238659Y0167956D01*
X0232159Y0167552D02*
X0230908Y0167552D01*
X0230491Y0167969D01*
X0230491Y0168803D01*
X0230908Y0169220D01*
X0232159Y0169220D01*
X0232159Y0166718D01*
X0231325Y0167552D02*
X0230491Y0166718D01*
X0229397Y0166718D02*
X0227729Y0166718D01*
X0228563Y0166718D02*
X0228563Y0169220D01*
X0229397Y0168386D01*
X0226635Y0167969D02*
X0224967Y0167969D01*
X0225384Y0166718D02*
X0225384Y0169220D01*
X0226635Y0167969D01*
X0226397Y0181718D02*
X0224729Y0181718D01*
X0225563Y0181718D02*
X0225563Y0184220D01*
X0226397Y0183386D01*
X0227491Y0182969D02*
X0227908Y0182552D01*
X0229159Y0182552D01*
X0228325Y0182552D02*
X0227491Y0181718D01*
X0227491Y0182969D02*
X0227491Y0183803D01*
X0227908Y0184220D01*
X0229159Y0184220D01*
X0229159Y0181718D01*
X0223635Y0181718D02*
X0221967Y0183386D01*
X0221967Y0183803D01*
X0222384Y0184220D01*
X0223218Y0184220D01*
X0223635Y0183803D01*
X0223635Y0181718D02*
X0221967Y0181718D01*
X0235967Y0181718D02*
X0237635Y0181718D01*
X0236801Y0181718D02*
X0236801Y0184220D01*
X0237635Y0183386D01*
X0238729Y0181718D02*
X0240397Y0181718D01*
X0239563Y0181718D02*
X0239563Y0184220D01*
X0240397Y0183386D01*
X0241491Y0182969D02*
X0241908Y0182552D01*
X0243159Y0182552D01*
X0242325Y0182552D02*
X0241491Y0181718D01*
X0241491Y0182969D02*
X0241491Y0183803D01*
X0241908Y0184220D01*
X0243159Y0184220D01*
X0243159Y0181718D01*
X0244967Y0181135D02*
X0245384Y0180718D01*
X0246218Y0180718D01*
X0246635Y0181135D01*
X0244967Y0182803D01*
X0244967Y0181135D01*
X0246635Y0181135D02*
X0246635Y0182803D01*
X0246218Y0183220D01*
X0245384Y0183220D01*
X0244967Y0182803D01*
X0247729Y0182803D02*
X0249397Y0181135D01*
X0249397Y0180718D01*
X0250491Y0180718D02*
X0252159Y0180718D01*
X0250491Y0182386D01*
X0250491Y0182803D01*
X0250908Y0183220D01*
X0251742Y0183220D01*
X0252159Y0182803D01*
X0249397Y0183220D02*
X0247729Y0183220D01*
X0247729Y0182803D01*
X0243488Y0179279D02*
X0253331Y0179279D01*
X0253331Y0171208D01*
X0232159Y0154220D02*
X0232159Y0151718D01*
X0232159Y0152552D02*
X0230908Y0152552D01*
X0230491Y0152969D01*
X0230491Y0153803D01*
X0230908Y0154220D01*
X0232159Y0154220D01*
X0231325Y0152552D02*
X0230491Y0151718D01*
X0229397Y0151718D02*
X0227729Y0151718D01*
X0228563Y0151718D02*
X0228563Y0154220D01*
X0229397Y0153386D01*
X0226635Y0153803D02*
X0226218Y0154220D01*
X0225384Y0154220D01*
X0224967Y0153803D01*
X0224967Y0153386D01*
X0225384Y0152969D01*
X0224967Y0152552D01*
X0224967Y0152135D01*
X0225384Y0151718D01*
X0226218Y0151718D01*
X0226635Y0152135D01*
X0225801Y0152969D02*
X0225384Y0152969D01*
X0221744Y0140149D02*
X0220076Y0140149D01*
X0219659Y0139732D01*
X0219659Y0138898D01*
X0220076Y0138481D01*
X0220910Y0138898D02*
X0220910Y0140149D01*
X0221744Y0140149D02*
X0222162Y0139732D01*
X0222162Y0138898D01*
X0221744Y0138481D01*
X0221327Y0138481D01*
X0220910Y0138898D01*
X0220910Y0137386D02*
X0220493Y0136969D01*
X0220493Y0135718D01*
X0219659Y0135718D02*
X0222162Y0135718D01*
X0222162Y0136969D01*
X0221744Y0137386D01*
X0220910Y0137386D01*
X0220493Y0136552D02*
X0219659Y0137386D01*
X0258076Y0091149D02*
X0257659Y0090732D01*
X0257659Y0089898D01*
X0258076Y0089481D01*
X0258076Y0088386D02*
X0257659Y0087969D01*
X0257659Y0087135D01*
X0258076Y0086718D01*
X0259744Y0086718D01*
X0260162Y0087135D01*
X0260162Y0087969D01*
X0259744Y0088386D01*
X0258076Y0088386D01*
X0257659Y0088386D02*
X0258493Y0087552D01*
X0259744Y0089481D02*
X0260162Y0089898D01*
X0260162Y0090732D01*
X0259744Y0091149D01*
X0259327Y0091149D01*
X0258910Y0090732D01*
X0258493Y0091149D01*
X0258076Y0091149D01*
X0258910Y0090732D02*
X0258910Y0090315D01*
X0250159Y0071720D02*
X0248908Y0071720D01*
X0248491Y0071303D01*
X0248491Y0070469D01*
X0248908Y0070052D01*
X0250159Y0070052D01*
X0249325Y0070052D02*
X0248491Y0069218D01*
X0247397Y0069218D02*
X0245729Y0071720D01*
X0247397Y0071720D02*
X0245729Y0069218D01*
X0250159Y0069218D02*
X0250159Y0071720D01*
X0227684Y0071720D02*
X0226016Y0071720D01*
X0226850Y0071720D02*
X0226850Y0069218D01*
X0224922Y0069218D02*
X0223254Y0071720D01*
X0224922Y0071720D02*
X0223254Y0069218D01*
D11*
X0118109Y0085971D02*
X0113839Y0085971D01*
X0115974Y0088106D02*
X0115974Y0083836D01*
X0146839Y0086971D02*
X0151109Y0086971D01*
X0263974Y0212836D02*
X0263974Y0217106D01*
X0266109Y0214971D02*
X0261839Y0214971D01*
X0244109Y0214971D02*
X0239839Y0214971D01*
D12*
X0239898Y0145224D02*
X0239898Y0142074D01*
X0239898Y0145224D02*
X0242260Y0145224D01*
X0248559Y0145224D02*
X0250921Y0145224D01*
X0250921Y0142074D01*
X0249803Y0096980D02*
X0246653Y0096980D01*
X0246653Y0094618D01*
X0246653Y0088319D02*
X0246653Y0085956D01*
X0249803Y0085956D01*
X0252346Y0080405D02*
X0257858Y0080405D01*
X0257858Y0072531D01*
X0252346Y0072531D01*
X0249590Y0073712D02*
X0249590Y0076468D01*
X0247228Y0078830D01*
X0247228Y0074106D01*
X0249590Y0076468D01*
X0249590Y0079224D01*
X0244472Y0080405D02*
X0238961Y0080405D01*
X0238961Y0072531D01*
X0244472Y0072531D01*
X0234858Y0072531D02*
X0234858Y0080405D01*
X0229346Y0080405D01*
X0226590Y0079224D02*
X0226590Y0076468D01*
X0224228Y0078830D01*
X0224228Y0074106D01*
X0226590Y0076468D01*
X0226590Y0073712D01*
X0229346Y0072531D02*
X0234858Y0072531D01*
X0221472Y0072531D02*
X0215961Y0072531D01*
X0215961Y0080405D01*
X0221472Y0080405D01*
X0222653Y0085956D02*
X0225803Y0085956D01*
X0222653Y0085956D02*
X0222653Y0088319D01*
X0222653Y0094618D02*
X0222653Y0096980D01*
X0225803Y0096980D01*
X0143858Y0158531D02*
X0138346Y0158531D01*
X0135590Y0160106D02*
X0133228Y0162468D01*
X0135590Y0164830D01*
X0135590Y0160106D01*
X0133228Y0159712D02*
X0133228Y0162468D01*
X0133228Y0165224D01*
X0130472Y0166405D02*
X0124961Y0166405D01*
X0124961Y0158531D01*
X0130472Y0158531D01*
X0138346Y0166405D02*
X0143858Y0166405D01*
X0143858Y0158531D01*
X0143858Y0169531D02*
X0138346Y0169531D01*
X0135590Y0171106D02*
X0133228Y0173468D01*
X0135590Y0175830D01*
X0135590Y0171106D01*
X0133228Y0170712D02*
X0133228Y0173468D01*
X0133228Y0176224D01*
X0130472Y0177405D02*
X0124961Y0177405D01*
X0124961Y0169531D01*
X0130472Y0169531D01*
X0138346Y0177405D02*
X0143858Y0177405D01*
X0143858Y0169531D01*
X0143858Y0180531D02*
X0138346Y0180531D01*
X0135590Y0182106D02*
X0133228Y0184468D01*
X0135590Y0186830D01*
X0135590Y0182106D01*
X0133228Y0181712D02*
X0133228Y0184468D01*
X0133228Y0187224D01*
X0130472Y0188405D02*
X0124961Y0188405D01*
X0124961Y0180531D01*
X0130472Y0180531D01*
X0138346Y0188405D02*
X0143858Y0188405D01*
X0143858Y0180531D01*
X0143858Y0191531D02*
X0138346Y0191531D01*
X0135590Y0193106D02*
X0133228Y0195468D01*
X0135590Y0197830D01*
X0135590Y0193106D01*
X0133228Y0192712D02*
X0133228Y0195468D01*
X0133228Y0198224D01*
X0130472Y0199405D02*
X0124961Y0199405D01*
X0124961Y0191531D01*
X0130472Y0191531D01*
X0138346Y0199405D02*
X0143858Y0199405D01*
X0143858Y0191531D01*
X0143858Y0202531D02*
X0138346Y0202531D01*
X0135590Y0204106D02*
X0133228Y0206468D01*
X0135590Y0208830D01*
X0135590Y0204106D01*
X0133228Y0203712D02*
X0133228Y0206468D01*
X0133228Y0209224D01*
X0130472Y0210405D02*
X0124961Y0210405D01*
X0124961Y0202531D01*
X0130472Y0202531D01*
X0138346Y0210405D02*
X0143858Y0210405D01*
X0143858Y0202531D01*
X0143858Y0213531D02*
X0138346Y0213531D01*
X0135590Y0215106D02*
X0133228Y0217468D01*
X0135590Y0219830D01*
X0135590Y0215106D01*
X0133228Y0214712D02*
X0133228Y0217468D01*
X0133228Y0220224D01*
X0130472Y0221405D02*
X0124961Y0221405D01*
X0124961Y0213531D01*
X0130472Y0213531D01*
X0138346Y0221405D02*
X0143858Y0221405D01*
X0143858Y0213531D01*
M02*
