G75*
%MOIN*%
%OFA0B0*%
%FSLAX25Y25*%
%IPPOS*%
%LPD*%
%AMOC8*
5,1,8,0,0,1.08239X$1,22.5*
%
%ADD10C,0.08200*%
%ADD11R,0.08200X0.08200*%
%ADD12R,0.07099X0.07887*%
%ADD13R,0.07887X0.07099*%
%ADD14R,0.08800X0.03400*%
%ADD15C,0.07800*%
%ADD16R,0.28000X0.05900*%
%ADD17C,0.10800*%
D10*
X0112409Y0094468D03*
X0122409Y0094468D03*
X0132409Y0094468D03*
X0142409Y0094468D03*
X0206409Y0094468D03*
X0206409Y0084468D03*
X0206409Y0074468D03*
X0206409Y0104468D03*
X0206409Y0114468D03*
X0206409Y0124468D03*
X0206409Y0134468D03*
X0206409Y0144468D03*
X0206409Y0154468D03*
X0206409Y0164468D03*
X0206409Y0174468D03*
X0206409Y0184468D03*
X0206409Y0194468D03*
X0206409Y0204468D03*
X0216409Y0204468D03*
X0226409Y0204468D03*
X0236409Y0204468D03*
X0246409Y0204468D03*
X0256409Y0204468D03*
X0266409Y0204468D03*
X0266409Y0194468D03*
X0266409Y0184468D03*
X0266409Y0174468D03*
X0266409Y0164468D03*
X0266409Y0154468D03*
X0266409Y0144468D03*
X0266409Y0134468D03*
X0266409Y0124468D03*
X0266409Y0114468D03*
X0266409Y0104468D03*
X0266409Y0094468D03*
X0266409Y0084468D03*
X0266409Y0074468D03*
X0192409Y0171468D03*
X0192409Y0181468D03*
X0192409Y0191468D03*
X0192409Y0201468D03*
X0192409Y0211468D03*
X0192409Y0221468D03*
X0112409Y0211468D03*
X0112409Y0201468D03*
X0112409Y0191468D03*
X0112409Y0181468D03*
X0112409Y0171468D03*
D11*
X0112409Y0221468D03*
D12*
X0224898Y0119468D03*
X0235921Y0119468D03*
X0235921Y0104468D03*
X0224898Y0104468D03*
D13*
X0229409Y0139956D03*
X0229409Y0150980D03*
D14*
X0224309Y0160968D03*
X0224309Y0165968D03*
X0224309Y0170968D03*
X0224309Y0175968D03*
X0248509Y0175968D03*
X0248509Y0170968D03*
X0248509Y0165968D03*
X0248509Y0160968D03*
D15*
X0164109Y0137568D03*
X0144409Y0123368D03*
X0124709Y0137568D03*
D16*
X0141409Y0175518D03*
D17*
X0214409Y0220868D03*
X0234409Y0220868D03*
X0254409Y0220868D03*
X0162409Y0077468D03*
X0142409Y0077468D03*
X0122409Y0077468D03*
M02*
