G75*
%MOIN*%
%OFA0B0*%
%FSLAX25Y25*%
%IPPOS*%
%LPD*%
%AMOC8*
5,1,8,0,0,1.08239X$1,22.5*
%
%ADD10C,0.07400*%
%ADD11R,0.07400X0.07400*%
%ADD12R,0.06299X0.07087*%
%ADD13R,0.07087X0.06299*%
%ADD14R,0.08000X0.02600*%
%ADD15C,0.07000*%
%ADD16R,0.30000X0.07900*%
%ADD17C,0.10000*%
%ADD18C,0.00800*%
%ADD19C,0.04000*%
%ADD20C,0.03000*%
%ADD21C,0.02400*%
D10*
X0112409Y0094468D03*
X0122409Y0094468D03*
X0132409Y0094468D03*
X0142409Y0094468D03*
X0206409Y0094468D03*
X0206409Y0084468D03*
X0206409Y0074468D03*
X0206409Y0104468D03*
X0206409Y0114468D03*
X0206409Y0124468D03*
X0206409Y0134468D03*
X0206409Y0144468D03*
X0206409Y0154468D03*
X0206409Y0164468D03*
X0206409Y0174468D03*
X0206409Y0184468D03*
X0206409Y0194468D03*
X0206409Y0204468D03*
X0216409Y0204468D03*
X0226409Y0204468D03*
X0236409Y0204468D03*
X0246409Y0204468D03*
X0256409Y0204468D03*
X0266409Y0204468D03*
X0266409Y0194468D03*
X0266409Y0184468D03*
X0266409Y0174468D03*
X0266409Y0164468D03*
X0266409Y0154468D03*
X0266409Y0144468D03*
X0266409Y0134468D03*
X0266409Y0124468D03*
X0266409Y0114468D03*
X0266409Y0104468D03*
X0266409Y0094468D03*
X0266409Y0084468D03*
X0266409Y0074468D03*
X0192409Y0171468D03*
X0192409Y0181468D03*
X0192409Y0191468D03*
X0192409Y0201468D03*
X0192409Y0211468D03*
X0192409Y0221468D03*
X0112409Y0211468D03*
X0112409Y0201468D03*
X0112409Y0191468D03*
X0112409Y0181468D03*
X0112409Y0171468D03*
D11*
X0112409Y0221468D03*
D12*
X0224898Y0119468D03*
X0235921Y0119468D03*
X0235921Y0104468D03*
X0224898Y0104468D03*
D13*
X0229409Y0139956D03*
X0229409Y0150980D03*
D14*
X0224309Y0160968D03*
X0224309Y0165968D03*
X0224309Y0170968D03*
X0224309Y0175968D03*
X0248509Y0175968D03*
X0248509Y0170968D03*
X0248509Y0165968D03*
X0248509Y0160968D03*
D15*
X0164109Y0137568D03*
X0144409Y0123368D03*
X0124709Y0137568D03*
D16*
X0141409Y0175518D03*
D17*
X0214409Y0220868D03*
X0234409Y0220868D03*
X0254409Y0220868D03*
X0162409Y0077468D03*
X0142409Y0077468D03*
X0122409Y0077468D03*
D18*
X0094009Y0068068D02*
X0094009Y0230223D01*
X0283723Y0230223D01*
X0283723Y0068068D01*
X0094009Y0068068D01*
X0094009Y0068864D02*
X0283723Y0068864D01*
X0283723Y0069662D02*
X0268122Y0069662D01*
X0268367Y0069742D02*
X0269082Y0070106D01*
X0269732Y0070578D01*
X0270299Y0071146D01*
X0270771Y0071795D01*
X0271136Y0072510D01*
X0271384Y0073274D01*
X0271509Y0074067D01*
X0271509Y0074068D01*
X0266809Y0074068D01*
X0266809Y0069368D01*
X0266811Y0069368D01*
X0267604Y0069494D01*
X0268367Y0069742D01*
X0269570Y0070461D02*
X0283723Y0070461D01*
X0283723Y0071259D02*
X0270382Y0071259D01*
X0270905Y0072058D02*
X0283723Y0072058D01*
X0283723Y0072856D02*
X0271248Y0072856D01*
X0271444Y0073655D02*
X0283723Y0073655D01*
X0283723Y0074453D02*
X0266809Y0074453D01*
X0266809Y0074068D02*
X0266809Y0074868D01*
X0271509Y0074868D01*
X0271509Y0074870D01*
X0271384Y0075662D01*
X0271136Y0076426D01*
X0270771Y0077141D01*
X0270299Y0077791D01*
X0269732Y0078358D01*
X0269082Y0078830D01*
X0268367Y0079195D01*
X0267896Y0079347D01*
X0269412Y0079975D01*
X0270902Y0081466D01*
X0271709Y0083414D01*
X0271709Y0085522D01*
X0270902Y0087470D01*
X0269412Y0088961D01*
X0268188Y0089468D01*
X0269412Y0089975D01*
X0270902Y0091466D01*
X0271709Y0093414D01*
X0271709Y0095522D01*
X0270902Y0097470D01*
X0269412Y0098961D01*
X0268188Y0099468D01*
X0269412Y0099975D01*
X0270902Y0101466D01*
X0271709Y0103414D01*
X0271709Y0105522D01*
X0270902Y0107470D01*
X0269412Y0108961D01*
X0268188Y0109468D01*
X0269412Y0109975D01*
X0270902Y0111466D01*
X0271709Y0113414D01*
X0271709Y0115522D01*
X0270902Y0117470D01*
X0269412Y0118961D01*
X0268188Y0119468D01*
X0269412Y0119975D01*
X0270902Y0121466D01*
X0271709Y0123414D01*
X0271709Y0125522D01*
X0270902Y0127470D01*
X0269412Y0128961D01*
X0268188Y0129468D01*
X0269412Y0129975D01*
X0270902Y0131466D01*
X0271709Y0133414D01*
X0271709Y0135522D01*
X0270902Y0137470D01*
X0269412Y0138961D01*
X0268188Y0139468D01*
X0269412Y0139975D01*
X0270902Y0141466D01*
X0271709Y0143414D01*
X0271709Y0145522D01*
X0270902Y0147470D01*
X0269412Y0148961D01*
X0268188Y0149468D01*
X0269412Y0149975D01*
X0270902Y0151466D01*
X0271709Y0153414D01*
X0271709Y0155522D01*
X0270902Y0157470D01*
X0269412Y0158961D01*
X0268188Y0159468D01*
X0269412Y0159975D01*
X0270902Y0161466D01*
X0271709Y0163414D01*
X0271709Y0165522D01*
X0270902Y0167470D01*
X0269412Y0168961D01*
X0268188Y0169468D01*
X0269412Y0169975D01*
X0270902Y0171466D01*
X0271709Y0173414D01*
X0271709Y0175522D01*
X0270902Y0177470D01*
X0269412Y0178961D01*
X0268188Y0179468D01*
X0269412Y0179975D01*
X0270902Y0181466D01*
X0271318Y0182468D01*
X0272238Y0182468D01*
X0274238Y0184468D01*
X0275409Y0185640D01*
X0275409Y0194400D01*
X0276693Y0193868D01*
X0278125Y0193868D01*
X0279449Y0194416D01*
X0280461Y0195429D01*
X0281009Y0196752D01*
X0281009Y0198184D01*
X0280461Y0199507D01*
X0279449Y0200520D01*
X0279409Y0200536D01*
X0279409Y0211297D01*
X0276409Y0214297D01*
X0275238Y0215468D01*
X0258343Y0215468D01*
X0260005Y0217130D01*
X0261009Y0219555D01*
X0261009Y0222181D01*
X0260005Y0224607D01*
X0258148Y0226463D01*
X0255722Y0227468D01*
X0253097Y0227468D01*
X0250671Y0226463D01*
X0248814Y0224607D01*
X0247809Y0222181D01*
X0247809Y0219555D01*
X0248814Y0217130D01*
X0250476Y0215468D01*
X0238343Y0215468D01*
X0240005Y0217130D01*
X0241009Y0219555D01*
X0241009Y0222181D01*
X0240005Y0224607D01*
X0238148Y0226463D01*
X0235722Y0227468D01*
X0233097Y0227468D01*
X0230671Y0226463D01*
X0228814Y0224607D01*
X0227809Y0222181D01*
X0227809Y0219555D01*
X0228814Y0217130D01*
X0230476Y0215468D01*
X0217856Y0215468D01*
X0217973Y0215535D01*
X0218638Y0216046D01*
X0219231Y0216639D01*
X0219742Y0217305D01*
X0220162Y0218031D01*
X0220483Y0218807D01*
X0220700Y0219617D01*
X0220809Y0220449D01*
X0220809Y0220468D01*
X0214809Y0220468D01*
X0214809Y0221268D01*
X0214009Y0221268D01*
X0214009Y0220468D01*
X0208009Y0220468D01*
X0208009Y0220449D01*
X0208119Y0219617D01*
X0208336Y0218807D01*
X0208657Y0218031D01*
X0209077Y0217305D01*
X0209587Y0216639D01*
X0210180Y0216046D01*
X0210846Y0215535D01*
X0210962Y0215468D01*
X0204238Y0215468D01*
X0201409Y0218297D01*
X0201409Y0225297D01*
X0198409Y0228297D01*
X0197238Y0229468D01*
X0177581Y0229468D01*
X0160581Y0212468D01*
X0126581Y0212468D01*
X0125409Y0211297D01*
X0117581Y0203468D01*
X0117318Y0203468D01*
X0116902Y0204470D01*
X0115412Y0205961D01*
X0113896Y0206589D01*
X0114367Y0206742D01*
X0115082Y0207106D01*
X0115732Y0207578D01*
X0116299Y0208146D01*
X0116771Y0208795D01*
X0117136Y0209510D01*
X0117384Y0210274D01*
X0117509Y0211067D01*
X0117509Y0211068D01*
X0112809Y0211068D01*
X0112809Y0211868D01*
X0112009Y0211868D01*
X0112009Y0211068D01*
X0107309Y0211068D01*
X0107309Y0211067D01*
X0107435Y0210274D01*
X0107683Y0209510D01*
X0108047Y0208795D01*
X0108519Y0208146D01*
X0109087Y0207578D01*
X0109736Y0207106D01*
X0110452Y0206742D01*
X0110922Y0206589D01*
X0109407Y0205961D01*
X0107916Y0204470D01*
X0107109Y0202522D01*
X0107109Y0200414D01*
X0107916Y0198466D01*
X0109407Y0196975D01*
X0110631Y0196468D01*
X0109407Y0195961D01*
X0107916Y0194470D01*
X0107109Y0192522D01*
X0107109Y0190414D01*
X0107916Y0188466D01*
X0109407Y0186975D01*
X0110631Y0186468D01*
X0109407Y0185961D01*
X0107916Y0184470D01*
X0107109Y0182522D01*
X0107109Y0180414D01*
X0107916Y0178466D01*
X0109407Y0176975D01*
X0110631Y0176468D01*
X0109407Y0175961D01*
X0107916Y0174470D01*
X0107109Y0172522D01*
X0107109Y0170414D01*
X0107916Y0168466D01*
X0109407Y0166975D01*
X0111355Y0166168D01*
X0113464Y0166168D01*
X0115412Y0166975D01*
X0116902Y0168466D01*
X0117709Y0170414D01*
X0117709Y0172522D01*
X0116902Y0174470D01*
X0115412Y0175961D01*
X0114188Y0176468D01*
X0115412Y0176975D01*
X0116902Y0178466D01*
X0117318Y0179468D01*
X0119238Y0179468D01*
X0144238Y0204468D01*
X0178238Y0204468D01*
X0179409Y0205640D01*
X0187687Y0213918D01*
X0187109Y0212522D01*
X0187109Y0210414D01*
X0187916Y0208466D01*
X0189407Y0206975D01*
X0189609Y0206891D01*
X0189609Y0206045D01*
X0189407Y0205961D01*
X0187916Y0204470D01*
X0187833Y0204268D01*
X0186852Y0204268D01*
X0185823Y0203842D01*
X0175823Y0193842D01*
X0175036Y0193054D01*
X0174609Y0192025D01*
X0174609Y0098628D01*
X0173250Y0097268D01*
X0146986Y0097268D01*
X0146902Y0097470D01*
X0145412Y0098961D01*
X0143464Y0099768D01*
X0141355Y0099768D01*
X0139407Y0098961D01*
X0137916Y0097470D01*
X0137289Y0095955D01*
X0137136Y0096426D01*
X0136771Y0097141D01*
X0136299Y0097791D01*
X0135732Y0098358D01*
X0135082Y0098830D01*
X0134367Y0099195D01*
X0133604Y0099443D01*
X0132811Y0099568D01*
X0132809Y0099568D01*
X0132809Y0094868D01*
X0132009Y0094868D01*
X0132009Y0099568D01*
X0132008Y0099568D01*
X0131215Y0099443D01*
X0130452Y0099195D01*
X0129736Y0098830D01*
X0129087Y0098358D01*
X0128519Y0097791D01*
X0128047Y0097141D01*
X0127683Y0096426D01*
X0127530Y0095955D01*
X0126902Y0097470D01*
X0125412Y0098961D01*
X0123464Y0099768D01*
X0121355Y0099768D01*
X0119407Y0098961D01*
X0117916Y0097470D01*
X0117409Y0096247D01*
X0116902Y0097470D01*
X0115412Y0098961D01*
X0113464Y0099768D01*
X0111355Y0099768D01*
X0109407Y0098961D01*
X0107916Y0097470D01*
X0107109Y0095522D01*
X0107109Y0093414D01*
X0107916Y0091466D01*
X0109407Y0089975D01*
X0111355Y0089168D01*
X0113464Y0089168D01*
X0115412Y0089975D01*
X0116902Y0091466D01*
X0117409Y0092690D01*
X0117916Y0091466D01*
X0119309Y0090073D01*
X0119309Y0083328D01*
X0118671Y0083063D01*
X0116814Y0081207D01*
X0115809Y0078781D01*
X0115809Y0076155D01*
X0116814Y0073730D01*
X0118671Y0071873D01*
X0121097Y0070868D01*
X0123722Y0070868D01*
X0126148Y0071873D01*
X0128005Y0073730D01*
X0129009Y0076155D01*
X0129009Y0078781D01*
X0128005Y0081207D01*
X0126148Y0083063D01*
X0125509Y0083328D01*
X0125509Y0090073D01*
X0126902Y0091466D01*
X0127530Y0092981D01*
X0127683Y0092510D01*
X0128047Y0091795D01*
X0128519Y0091146D01*
X0129087Y0090578D01*
X0129736Y0090106D01*
X0130452Y0089742D01*
X0131215Y0089494D01*
X0132008Y0089368D01*
X0132009Y0089368D01*
X0132009Y0094068D01*
X0132809Y0094068D01*
X0132809Y0089368D01*
X0132811Y0089368D01*
X0133604Y0089494D01*
X0134367Y0089742D01*
X0135082Y0090106D01*
X0135732Y0090578D01*
X0136299Y0091146D01*
X0136771Y0091795D01*
X0137136Y0092510D01*
X0137289Y0092981D01*
X0137916Y0091466D01*
X0139407Y0089975D01*
X0141355Y0089168D01*
X0143464Y0089168D01*
X0145412Y0089975D01*
X0146902Y0091466D01*
X0146986Y0091668D01*
X0201832Y0091668D01*
X0201916Y0091466D01*
X0203407Y0089975D01*
X0204922Y0089347D01*
X0204452Y0089195D01*
X0203736Y0088830D01*
X0203087Y0088358D01*
X0202519Y0087791D01*
X0202047Y0087141D01*
X0201683Y0086426D01*
X0201435Y0085662D01*
X0201309Y0084870D01*
X0201309Y0084868D01*
X0206009Y0084868D01*
X0206009Y0084068D01*
X0201309Y0084068D01*
X0201309Y0084067D01*
X0201435Y0083274D01*
X0201683Y0082510D01*
X0202047Y0081795D01*
X0202519Y0081146D01*
X0203087Y0080578D01*
X0203736Y0080106D01*
X0204452Y0079742D01*
X0204922Y0079589D01*
X0203407Y0078961D01*
X0201916Y0077470D01*
X0201109Y0075522D01*
X0201109Y0073414D01*
X0201916Y0071466D01*
X0203407Y0069975D01*
X0205355Y0069168D01*
X0207464Y0069168D01*
X0209412Y0069975D01*
X0210902Y0071466D01*
X0211709Y0073414D01*
X0211709Y0075522D01*
X0210902Y0077470D01*
X0209412Y0078961D01*
X0207896Y0079589D01*
X0208367Y0079742D01*
X0209082Y0080106D01*
X0209732Y0080578D01*
X0210299Y0081146D01*
X0210771Y0081795D01*
X0211136Y0082510D01*
X0211384Y0083274D01*
X0211509Y0084067D01*
X0211509Y0084068D01*
X0206809Y0084068D01*
X0206809Y0084868D01*
X0211509Y0084868D01*
X0211509Y0084870D01*
X0211384Y0085662D01*
X0211136Y0086426D01*
X0210771Y0087141D01*
X0210299Y0087791D01*
X0209732Y0088358D01*
X0209082Y0088830D01*
X0208367Y0089195D01*
X0207896Y0089347D01*
X0209412Y0089975D01*
X0210902Y0091466D01*
X0211318Y0092468D01*
X0215726Y0092468D01*
X0222583Y0099325D01*
X0228710Y0099325D01*
X0229647Y0100262D01*
X0229647Y0108674D01*
X0228710Y0109611D01*
X0226898Y0109611D01*
X0226898Y0114325D01*
X0228710Y0114325D01*
X0229647Y0115262D01*
X0229647Y0123674D01*
X0228710Y0124611D01*
X0222094Y0124611D01*
X0219993Y0126713D01*
X0220009Y0126752D01*
X0220009Y0128184D01*
X0219993Y0128224D01*
X0223409Y0131640D01*
X0223409Y0157240D01*
X0224238Y0158068D01*
X0224381Y0158068D01*
X0226720Y0155730D01*
X0225203Y0155730D01*
X0224266Y0154792D01*
X0224266Y0147168D01*
X0225203Y0146230D01*
X0233615Y0146230D01*
X0234553Y0147168D01*
X0234553Y0154792D01*
X0233615Y0155730D01*
X0231409Y0155730D01*
X0231409Y0156697D01*
X0230238Y0157868D01*
X0230238Y0157868D01*
X0229505Y0158601D01*
X0229909Y0159005D01*
X0229909Y0162931D01*
X0229372Y0163468D01*
X0229909Y0164005D01*
X0229909Y0167931D01*
X0229372Y0168468D01*
X0229872Y0168968D01*
X0239081Y0168968D01*
X0236409Y0166297D01*
X0236409Y0150536D01*
X0236370Y0150520D01*
X0235357Y0149507D01*
X0234809Y0148184D01*
X0234809Y0146752D01*
X0235357Y0145429D01*
X0236370Y0144416D01*
X0237693Y0143868D01*
X0239125Y0143868D01*
X0240449Y0144416D01*
X0241461Y0145429D01*
X0242009Y0146752D01*
X0242009Y0148184D01*
X0241461Y0149507D01*
X0240449Y0150520D01*
X0240409Y0150536D01*
X0240409Y0164640D01*
X0242238Y0166468D01*
X0242909Y0166468D01*
X0242909Y0164005D01*
X0243447Y0163468D01*
X0242909Y0162931D01*
X0242909Y0159005D01*
X0243847Y0158068D01*
X0253172Y0158068D01*
X0254072Y0158968D01*
X0254081Y0158968D01*
X0260581Y0152468D01*
X0261501Y0152468D01*
X0261916Y0151466D01*
X0263407Y0149975D01*
X0264631Y0149468D01*
X0263407Y0148961D01*
X0261916Y0147470D01*
X0261109Y0145522D01*
X0261109Y0143414D01*
X0261916Y0141466D01*
X0263407Y0139975D01*
X0264631Y0139468D01*
X0263407Y0138961D01*
X0261916Y0137470D01*
X0261109Y0135522D01*
X0261109Y0133414D01*
X0261916Y0131466D01*
X0263407Y0129975D01*
X0264631Y0129468D01*
X0263407Y0128961D01*
X0261916Y0127470D01*
X0261109Y0125522D01*
X0261109Y0123414D01*
X0261916Y0121466D01*
X0263407Y0119975D01*
X0264631Y0119468D01*
X0263407Y0118961D01*
X0261916Y0117470D01*
X0261109Y0115522D01*
X0261109Y0113414D01*
X0261916Y0111466D01*
X0263407Y0109975D01*
X0264631Y0109468D01*
X0263407Y0108961D01*
X0261916Y0107470D01*
X0261109Y0105522D01*
X0261109Y0103414D01*
X0261916Y0101466D01*
X0263407Y0099975D01*
X0264631Y0099468D01*
X0263407Y0098961D01*
X0261916Y0097470D01*
X0261109Y0095522D01*
X0261109Y0093414D01*
X0261916Y0091466D01*
X0263407Y0089975D01*
X0264631Y0089468D01*
X0263407Y0088961D01*
X0261916Y0087470D01*
X0261109Y0085522D01*
X0261109Y0083414D01*
X0261916Y0081466D01*
X0263407Y0079975D01*
X0264922Y0079347D01*
X0264452Y0079195D01*
X0263736Y0078830D01*
X0263087Y0078358D01*
X0262519Y0077791D01*
X0262047Y0077141D01*
X0261683Y0076426D01*
X0261435Y0075662D01*
X0261309Y0074870D01*
X0261309Y0074868D01*
X0266009Y0074868D01*
X0266009Y0074068D01*
X0261309Y0074068D01*
X0261309Y0074067D01*
X0261435Y0073274D01*
X0261683Y0072510D01*
X0262047Y0071795D01*
X0262519Y0071146D01*
X0263087Y0070578D01*
X0263736Y0070106D01*
X0264452Y0069742D01*
X0265215Y0069494D01*
X0266008Y0069368D01*
X0266009Y0069368D01*
X0266009Y0074068D01*
X0266809Y0074068D01*
X0266809Y0073655D02*
X0266009Y0073655D01*
X0266009Y0074453D02*
X0211709Y0074453D01*
X0211709Y0073655D02*
X0261375Y0073655D01*
X0261571Y0072856D02*
X0211478Y0072856D01*
X0211148Y0072058D02*
X0261914Y0072058D01*
X0262437Y0071259D02*
X0210696Y0071259D01*
X0209897Y0070461D02*
X0263248Y0070461D01*
X0264697Y0069662D02*
X0208656Y0069662D01*
X0204162Y0069662D02*
X0094009Y0069662D01*
X0094009Y0070461D02*
X0202921Y0070461D01*
X0202123Y0071259D02*
X0163965Y0071259D01*
X0163661Y0071178D02*
X0164471Y0071395D01*
X0165246Y0071716D01*
X0165973Y0072135D01*
X0166638Y0072646D01*
X0167231Y0073239D01*
X0167742Y0073905D01*
X0168162Y0074631D01*
X0168483Y0075407D01*
X0168700Y0076217D01*
X0168809Y0077049D01*
X0168809Y0077068D01*
X0162809Y0077068D01*
X0162809Y0071068D01*
X0162829Y0071068D01*
X0163661Y0071178D01*
X0162809Y0071259D02*
X0162009Y0071259D01*
X0162009Y0071068D02*
X0162009Y0077068D01*
X0156009Y0077068D01*
X0156009Y0077049D01*
X0156119Y0076217D01*
X0156336Y0075407D01*
X0156657Y0074631D01*
X0157077Y0073905D01*
X0157587Y0073239D01*
X0158180Y0072646D01*
X0158846Y0072135D01*
X0159573Y0071716D01*
X0160348Y0071395D01*
X0161158Y0071178D01*
X0161990Y0071068D01*
X0162009Y0071068D01*
X0162009Y0072058D02*
X0162809Y0072058D01*
X0162809Y0072856D02*
X0162009Y0072856D01*
X0162009Y0073655D02*
X0162809Y0073655D01*
X0162809Y0074453D02*
X0162009Y0074453D01*
X0162009Y0075252D02*
X0162809Y0075252D01*
X0162809Y0076050D02*
X0162009Y0076050D01*
X0162009Y0076849D02*
X0162809Y0076849D01*
X0162809Y0077068D02*
X0162009Y0077068D01*
X0162009Y0077868D01*
X0156009Y0077868D01*
X0156009Y0077888D01*
X0156119Y0078719D01*
X0156336Y0079530D01*
X0156657Y0080305D01*
X0157077Y0081031D01*
X0157587Y0081697D01*
X0158180Y0082290D01*
X0158846Y0082801D01*
X0159573Y0083220D01*
X0160348Y0083542D01*
X0161158Y0083759D01*
X0161990Y0083868D01*
X0162009Y0083868D01*
X0162009Y0077868D01*
X0162809Y0077868D01*
X0162809Y0083868D01*
X0162829Y0083868D01*
X0163661Y0083759D01*
X0164471Y0083542D01*
X0165246Y0083220D01*
X0165973Y0082801D01*
X0166638Y0082290D01*
X0167231Y0081697D01*
X0167742Y0081031D01*
X0168162Y0080305D01*
X0168483Y0079530D01*
X0168700Y0078719D01*
X0168809Y0077888D01*
X0168809Y0077868D01*
X0162809Y0077868D01*
X0162809Y0077068D01*
X0162809Y0077647D02*
X0202093Y0077647D01*
X0201659Y0076849D02*
X0168783Y0076849D01*
X0168655Y0076050D02*
X0201328Y0076050D01*
X0201109Y0075252D02*
X0168419Y0075252D01*
X0168059Y0074453D02*
X0201109Y0074453D01*
X0201109Y0073655D02*
X0167550Y0073655D01*
X0166848Y0072856D02*
X0201340Y0072856D01*
X0201671Y0072058D02*
X0165838Y0072058D01*
X0160854Y0071259D02*
X0143965Y0071259D01*
X0143661Y0071178D02*
X0144471Y0071395D01*
X0145246Y0071716D01*
X0145973Y0072135D01*
X0146638Y0072646D01*
X0147231Y0073239D01*
X0147742Y0073905D01*
X0148162Y0074631D01*
X0148483Y0075407D01*
X0148700Y0076217D01*
X0148809Y0077049D01*
X0148809Y0077068D01*
X0142809Y0077068D01*
X0142809Y0071068D01*
X0142829Y0071068D01*
X0143661Y0071178D01*
X0142809Y0071259D02*
X0142009Y0071259D01*
X0142009Y0071068D02*
X0142009Y0077068D01*
X0136009Y0077068D01*
X0136009Y0077049D01*
X0136119Y0076217D01*
X0136336Y0075407D01*
X0136657Y0074631D01*
X0137077Y0073905D01*
X0137587Y0073239D01*
X0138180Y0072646D01*
X0138846Y0072135D01*
X0139573Y0071716D01*
X0140348Y0071395D01*
X0141158Y0071178D01*
X0141990Y0071068D01*
X0142009Y0071068D01*
X0142009Y0072058D02*
X0142809Y0072058D01*
X0142809Y0072856D02*
X0142009Y0072856D01*
X0142009Y0073655D02*
X0142809Y0073655D01*
X0142809Y0074453D02*
X0142009Y0074453D01*
X0142009Y0075252D02*
X0142809Y0075252D01*
X0142809Y0076050D02*
X0142009Y0076050D01*
X0142009Y0076849D02*
X0142809Y0076849D01*
X0142809Y0077068D02*
X0142009Y0077068D01*
X0142009Y0077868D01*
X0136009Y0077868D01*
X0136009Y0077888D01*
X0136119Y0078719D01*
X0136336Y0079530D01*
X0136657Y0080305D01*
X0137077Y0081031D01*
X0137587Y0081697D01*
X0138180Y0082290D01*
X0138846Y0082801D01*
X0139573Y0083220D01*
X0140348Y0083542D01*
X0141158Y0083759D01*
X0141990Y0083868D01*
X0142009Y0083868D01*
X0142009Y0077868D01*
X0142809Y0077868D01*
X0142809Y0083868D01*
X0142829Y0083868D01*
X0143661Y0083759D01*
X0144471Y0083542D01*
X0145246Y0083220D01*
X0145973Y0082801D01*
X0146638Y0082290D01*
X0147231Y0081697D01*
X0147742Y0081031D01*
X0148162Y0080305D01*
X0148483Y0079530D01*
X0148700Y0078719D01*
X0148809Y0077888D01*
X0148809Y0077868D01*
X0142809Y0077868D01*
X0142809Y0077068D01*
X0142809Y0077647D02*
X0162009Y0077647D01*
X0162009Y0078446D02*
X0162809Y0078446D01*
X0162809Y0079244D02*
X0162009Y0079244D01*
X0162009Y0080043D02*
X0162809Y0080043D01*
X0162809Y0080841D02*
X0162009Y0080841D01*
X0162009Y0081640D02*
X0162809Y0081640D01*
X0162809Y0082438D02*
X0162009Y0082438D01*
X0162009Y0083237D02*
X0162809Y0083237D01*
X0165206Y0083237D02*
X0201447Y0083237D01*
X0201314Y0084035D02*
X0125509Y0084035D01*
X0125509Y0084834D02*
X0206009Y0084834D01*
X0206809Y0084834D02*
X0261109Y0084834D01*
X0261109Y0084035D02*
X0211504Y0084035D01*
X0211372Y0083237D02*
X0261183Y0083237D01*
X0261513Y0082438D02*
X0211099Y0082438D01*
X0210658Y0081640D02*
X0261844Y0081640D01*
X0262541Y0080841D02*
X0209995Y0080841D01*
X0208958Y0080043D02*
X0263339Y0080043D01*
X0264605Y0079244D02*
X0208728Y0079244D01*
X0209927Y0078446D02*
X0263208Y0078446D01*
X0262415Y0077647D02*
X0210726Y0077647D01*
X0211160Y0076849D02*
X0261899Y0076849D01*
X0261561Y0076050D02*
X0211491Y0076050D01*
X0211709Y0075252D02*
X0261370Y0075252D01*
X0266009Y0072856D02*
X0266809Y0072856D01*
X0266809Y0072058D02*
X0266009Y0072058D01*
X0266009Y0071259D02*
X0266809Y0071259D01*
X0266809Y0070461D02*
X0266009Y0070461D01*
X0266009Y0069662D02*
X0266809Y0069662D01*
X0271449Y0075252D02*
X0283723Y0075252D01*
X0283723Y0076050D02*
X0271258Y0076050D01*
X0270920Y0076849D02*
X0283723Y0076849D01*
X0283723Y0077647D02*
X0270404Y0077647D01*
X0269611Y0078446D02*
X0283723Y0078446D01*
X0283723Y0079244D02*
X0268214Y0079244D01*
X0269479Y0080043D02*
X0283723Y0080043D01*
X0283723Y0080841D02*
X0270278Y0080841D01*
X0270975Y0081640D02*
X0283723Y0081640D01*
X0283723Y0082438D02*
X0271305Y0082438D01*
X0271636Y0083237D02*
X0283723Y0083237D01*
X0283723Y0084035D02*
X0271709Y0084035D01*
X0271709Y0084834D02*
X0283723Y0084834D01*
X0283723Y0085632D02*
X0271664Y0085632D01*
X0271333Y0086431D02*
X0283723Y0086431D01*
X0283723Y0087229D02*
X0271002Y0087229D01*
X0270345Y0088028D02*
X0283723Y0088028D01*
X0283723Y0088827D02*
X0269546Y0088827D01*
X0268566Y0089625D02*
X0283723Y0089625D01*
X0283723Y0090424D02*
X0269860Y0090424D01*
X0270659Y0091222D02*
X0283723Y0091222D01*
X0283723Y0092021D02*
X0271132Y0092021D01*
X0271463Y0092819D02*
X0283723Y0092819D01*
X0283723Y0093618D02*
X0271709Y0093618D01*
X0271709Y0094416D02*
X0283723Y0094416D01*
X0283723Y0095215D02*
X0271709Y0095215D01*
X0271506Y0096013D02*
X0283723Y0096013D01*
X0283723Y0096812D02*
X0271175Y0096812D01*
X0270763Y0097610D02*
X0283723Y0097610D01*
X0283723Y0098409D02*
X0269964Y0098409D01*
X0268818Y0099207D02*
X0283723Y0099207D01*
X0283723Y0100006D02*
X0269442Y0100006D01*
X0270241Y0100804D02*
X0283723Y0100804D01*
X0283723Y0101603D02*
X0270959Y0101603D01*
X0271290Y0102401D02*
X0283723Y0102401D01*
X0283723Y0103200D02*
X0271621Y0103200D01*
X0271709Y0103998D02*
X0283723Y0103998D01*
X0283723Y0104797D02*
X0271709Y0104797D01*
X0271679Y0105595D02*
X0283723Y0105595D01*
X0283723Y0106394D02*
X0271348Y0106394D01*
X0271018Y0107192D02*
X0283723Y0107192D01*
X0283723Y0107991D02*
X0270382Y0107991D01*
X0269584Y0108789D02*
X0283723Y0108789D01*
X0283723Y0109588D02*
X0268477Y0109588D01*
X0269823Y0110386D02*
X0283723Y0110386D01*
X0283723Y0111185D02*
X0270621Y0111185D01*
X0271117Y0111983D02*
X0283723Y0111983D01*
X0283723Y0112782D02*
X0271448Y0112782D01*
X0271709Y0113580D02*
X0283723Y0113580D01*
X0283723Y0114379D02*
X0271709Y0114379D01*
X0271709Y0115177D02*
X0283723Y0115177D01*
X0283723Y0115976D02*
X0271522Y0115976D01*
X0271191Y0116774D02*
X0283723Y0116774D01*
X0283723Y0117573D02*
X0270800Y0117573D01*
X0270001Y0118371D02*
X0283723Y0118371D01*
X0283723Y0119170D02*
X0268908Y0119170D01*
X0269396Y0119968D02*
X0283723Y0119968D01*
X0283723Y0120767D02*
X0270203Y0120767D01*
X0270944Y0121565D02*
X0283723Y0121565D01*
X0283723Y0122364D02*
X0271274Y0122364D01*
X0271605Y0123162D02*
X0283723Y0123162D01*
X0283723Y0123961D02*
X0271709Y0123961D01*
X0271709Y0124760D02*
X0283723Y0124760D01*
X0283723Y0125558D02*
X0271695Y0125558D01*
X0271364Y0126357D02*
X0283723Y0126357D01*
X0283723Y0127155D02*
X0271033Y0127155D01*
X0270419Y0127954D02*
X0283723Y0127954D01*
X0283723Y0128752D02*
X0269621Y0128752D01*
X0268387Y0129551D02*
X0283723Y0129551D01*
X0283723Y0130349D02*
X0269786Y0130349D01*
X0270584Y0131148D02*
X0283723Y0131148D01*
X0283723Y0131946D02*
X0271101Y0131946D01*
X0271432Y0132745D02*
X0283723Y0132745D01*
X0283723Y0133543D02*
X0271709Y0133543D01*
X0271709Y0134342D02*
X0283723Y0134342D01*
X0283723Y0135140D02*
X0271709Y0135140D01*
X0271537Y0135939D02*
X0283723Y0135939D01*
X0283723Y0136737D02*
X0271206Y0136737D01*
X0270837Y0137536D02*
X0283723Y0137536D01*
X0283723Y0138334D02*
X0270039Y0138334D01*
X0268998Y0139133D02*
X0283723Y0139133D01*
X0283723Y0139931D02*
X0269306Y0139931D01*
X0270166Y0140730D02*
X0283723Y0140730D01*
X0283723Y0141528D02*
X0270928Y0141528D01*
X0271259Y0142327D02*
X0283723Y0142327D01*
X0283723Y0143125D02*
X0271590Y0143125D01*
X0271709Y0143924D02*
X0283723Y0143924D01*
X0283723Y0144722D02*
X0271709Y0144722D01*
X0271709Y0145521D02*
X0283723Y0145521D01*
X0283723Y0146319D02*
X0271379Y0146319D01*
X0271049Y0147118D02*
X0283723Y0147118D01*
X0283723Y0147916D02*
X0270457Y0147916D01*
X0269658Y0148715D02*
X0283723Y0148715D01*
X0283723Y0149513D02*
X0268297Y0149513D01*
X0269748Y0150312D02*
X0283723Y0150312D01*
X0283723Y0151110D02*
X0270547Y0151110D01*
X0271086Y0151909D02*
X0283723Y0151909D01*
X0283723Y0152707D02*
X0271417Y0152707D01*
X0271709Y0153506D02*
X0283723Y0153506D01*
X0283723Y0154304D02*
X0271709Y0154304D01*
X0271709Y0155103D02*
X0283723Y0155103D01*
X0283723Y0155901D02*
X0271552Y0155901D01*
X0271222Y0156700D02*
X0283723Y0156700D01*
X0283723Y0157498D02*
X0270874Y0157498D01*
X0270076Y0158297D02*
X0283723Y0158297D01*
X0283723Y0159096D02*
X0269088Y0159096D01*
X0269216Y0159894D02*
X0283723Y0159894D01*
X0283723Y0160693D02*
X0270129Y0160693D01*
X0270913Y0161491D02*
X0283723Y0161491D01*
X0283723Y0162290D02*
X0271244Y0162290D01*
X0271574Y0163088D02*
X0283723Y0163088D01*
X0283723Y0163887D02*
X0271709Y0163887D01*
X0271709Y0164685D02*
X0283723Y0164685D01*
X0283723Y0165484D02*
X0271709Y0165484D01*
X0271395Y0166282D02*
X0283723Y0166282D01*
X0283723Y0167081D02*
X0271064Y0167081D01*
X0270494Y0167879D02*
X0283723Y0167879D01*
X0283723Y0168678D02*
X0269695Y0168678D01*
X0269711Y0170275D02*
X0283723Y0170275D01*
X0283723Y0171073D02*
X0270510Y0171073D01*
X0271071Y0171872D02*
X0283723Y0171872D01*
X0283723Y0172670D02*
X0271401Y0172670D01*
X0271709Y0173469D02*
X0283723Y0173469D01*
X0283723Y0174267D02*
X0271709Y0174267D01*
X0271709Y0175066D02*
X0283723Y0175066D01*
X0283723Y0175864D02*
X0271568Y0175864D01*
X0271237Y0176663D02*
X0283723Y0176663D01*
X0283723Y0177461D02*
X0270906Y0177461D01*
X0270113Y0178260D02*
X0283723Y0178260D01*
X0283723Y0179058D02*
X0269177Y0179058D01*
X0269126Y0179857D02*
X0283723Y0179857D01*
X0283723Y0180655D02*
X0270092Y0180655D01*
X0270890Y0181454D02*
X0283723Y0181454D01*
X0283723Y0182252D02*
X0271228Y0182252D01*
X0272820Y0183051D02*
X0283723Y0183051D01*
X0283723Y0183849D02*
X0273619Y0183849D01*
X0274417Y0184648D02*
X0283723Y0184648D01*
X0283723Y0185446D02*
X0275216Y0185446D01*
X0275409Y0186245D02*
X0283723Y0186245D01*
X0283723Y0187043D02*
X0275409Y0187043D01*
X0275409Y0187842D02*
X0283723Y0187842D01*
X0283723Y0188640D02*
X0275409Y0188640D01*
X0275409Y0189439D02*
X0283723Y0189439D01*
X0283723Y0190237D02*
X0275409Y0190237D01*
X0275409Y0191036D02*
X0283723Y0191036D01*
X0283723Y0191834D02*
X0275409Y0191834D01*
X0275409Y0192633D02*
X0283723Y0192633D01*
X0283723Y0193431D02*
X0275409Y0193431D01*
X0275409Y0194230D02*
X0275820Y0194230D01*
X0278999Y0194230D02*
X0283723Y0194230D01*
X0283723Y0195029D02*
X0280061Y0195029D01*
X0280626Y0195827D02*
X0283723Y0195827D01*
X0283723Y0196626D02*
X0280957Y0196626D01*
X0281009Y0197424D02*
X0283723Y0197424D01*
X0283723Y0198223D02*
X0280994Y0198223D01*
X0280663Y0199021D02*
X0283723Y0199021D01*
X0283723Y0199820D02*
X0280149Y0199820D01*
X0279409Y0200618D02*
X0283723Y0200618D01*
X0283723Y0201417D02*
X0279409Y0201417D01*
X0279409Y0202215D02*
X0283723Y0202215D01*
X0283723Y0203014D02*
X0279409Y0203014D01*
X0279409Y0203812D02*
X0283723Y0203812D01*
X0283723Y0204611D02*
X0279409Y0204611D01*
X0279409Y0205409D02*
X0283723Y0205409D01*
X0283723Y0206208D02*
X0279409Y0206208D01*
X0279409Y0207006D02*
X0283723Y0207006D01*
X0283723Y0207805D02*
X0279409Y0207805D01*
X0279409Y0208603D02*
X0283723Y0208603D01*
X0283723Y0209402D02*
X0279409Y0209402D01*
X0279409Y0210200D02*
X0283723Y0210200D01*
X0283723Y0210999D02*
X0279409Y0210999D01*
X0278909Y0211797D02*
X0283723Y0211797D01*
X0283723Y0212596D02*
X0278110Y0212596D01*
X0277312Y0213394D02*
X0283723Y0213394D01*
X0283723Y0214193D02*
X0276513Y0214193D01*
X0275715Y0214991D02*
X0283723Y0214991D01*
X0283723Y0215790D02*
X0258665Y0215790D01*
X0259463Y0216588D02*
X0283723Y0216588D01*
X0283723Y0217387D02*
X0260111Y0217387D01*
X0260442Y0218185D02*
X0283723Y0218185D01*
X0283723Y0218984D02*
X0260773Y0218984D01*
X0261009Y0219782D02*
X0283723Y0219782D01*
X0283723Y0220581D02*
X0261009Y0220581D01*
X0261009Y0221379D02*
X0283723Y0221379D01*
X0283723Y0222178D02*
X0261009Y0222178D01*
X0260680Y0222976D02*
X0283723Y0222976D01*
X0283723Y0223775D02*
X0260349Y0223775D01*
X0260018Y0224573D02*
X0283723Y0224573D01*
X0283723Y0225372D02*
X0259239Y0225372D01*
X0258441Y0226170D02*
X0283723Y0226170D01*
X0283723Y0226969D02*
X0256927Y0226969D01*
X0251891Y0226969D02*
X0236927Y0226969D01*
X0238441Y0226170D02*
X0250378Y0226170D01*
X0249579Y0225372D02*
X0239239Y0225372D01*
X0240018Y0224573D02*
X0248800Y0224573D01*
X0248470Y0223775D02*
X0240349Y0223775D01*
X0240680Y0222976D02*
X0248139Y0222976D01*
X0247809Y0222178D02*
X0241009Y0222178D01*
X0241009Y0221379D02*
X0247809Y0221379D01*
X0247809Y0220581D02*
X0241009Y0220581D01*
X0241009Y0219782D02*
X0247809Y0219782D01*
X0248046Y0218984D02*
X0240773Y0218984D01*
X0240442Y0218185D02*
X0248377Y0218185D01*
X0248708Y0217387D02*
X0240111Y0217387D01*
X0239463Y0216588D02*
X0249355Y0216588D01*
X0250154Y0215790D02*
X0238665Y0215790D01*
X0230154Y0215790D02*
X0218304Y0215790D01*
X0219180Y0216588D02*
X0229355Y0216588D01*
X0228708Y0217387D02*
X0219789Y0217387D01*
X0220225Y0218185D02*
X0228377Y0218185D01*
X0228046Y0218984D02*
X0220530Y0218984D01*
X0220722Y0219782D02*
X0227809Y0219782D01*
X0227809Y0220581D02*
X0214809Y0220581D01*
X0214809Y0221268D02*
X0220809Y0221268D01*
X0220809Y0221288D01*
X0220700Y0222119D01*
X0220483Y0222930D01*
X0220162Y0223705D01*
X0219742Y0224431D01*
X0219231Y0225097D01*
X0218638Y0225690D01*
X0217973Y0226201D01*
X0217246Y0226620D01*
X0216471Y0226942D01*
X0215661Y0227159D01*
X0214829Y0227268D01*
X0214809Y0227268D01*
X0214809Y0221268D01*
X0214809Y0221379D02*
X0214009Y0221379D01*
X0214009Y0221268D02*
X0214009Y0227268D01*
X0213990Y0227268D01*
X0213158Y0227159D01*
X0212348Y0226942D01*
X0211573Y0226620D01*
X0210846Y0226201D01*
X0210180Y0225690D01*
X0209587Y0225097D01*
X0209077Y0224431D01*
X0208657Y0223705D01*
X0208336Y0222930D01*
X0208119Y0222119D01*
X0208009Y0221288D01*
X0208009Y0221268D01*
X0214009Y0221268D01*
X0214009Y0220581D02*
X0201409Y0220581D01*
X0201409Y0221379D02*
X0208021Y0221379D01*
X0208135Y0222178D02*
X0201409Y0222178D01*
X0201409Y0222976D02*
X0208355Y0222976D01*
X0208698Y0223775D02*
X0201409Y0223775D01*
X0201409Y0224573D02*
X0209185Y0224573D01*
X0209862Y0225372D02*
X0201334Y0225372D01*
X0200536Y0226170D02*
X0210806Y0226170D01*
X0212450Y0226969D02*
X0199737Y0226969D01*
X0198938Y0227767D02*
X0283723Y0227767D01*
X0283723Y0228566D02*
X0198140Y0228566D01*
X0197341Y0229365D02*
X0283723Y0229365D01*
X0283723Y0230163D02*
X0094009Y0230163D01*
X0094009Y0229365D02*
X0177477Y0229365D01*
X0176679Y0228566D02*
X0094009Y0228566D01*
X0094009Y0227767D02*
X0175880Y0227767D01*
X0175082Y0226969D02*
X0094009Y0226969D01*
X0094009Y0226170D02*
X0107732Y0226170D01*
X0107850Y0226288D02*
X0107589Y0226028D01*
X0107405Y0225709D01*
X0107309Y0225353D01*
X0107309Y0221868D01*
X0112009Y0221868D01*
X0112009Y0221068D01*
X0107309Y0221068D01*
X0107309Y0217584D01*
X0107405Y0217228D01*
X0107589Y0216909D01*
X0107850Y0216648D01*
X0108169Y0216464D01*
X0108525Y0216368D01*
X0110986Y0216368D01*
X0110452Y0216195D01*
X0109736Y0215830D01*
X0109087Y0215358D01*
X0108519Y0214791D01*
X0108047Y0214141D01*
X0107683Y0213426D01*
X0107435Y0212662D01*
X0107309Y0211870D01*
X0107309Y0211868D01*
X0112009Y0211868D01*
X0112009Y0216568D01*
X0112009Y0221068D01*
X0112809Y0221068D01*
X0112809Y0211868D01*
X0117509Y0211868D01*
X0117509Y0211870D01*
X0117384Y0212662D01*
X0117136Y0213426D01*
X0116771Y0214141D01*
X0116299Y0214791D01*
X0115732Y0215358D01*
X0115082Y0215830D01*
X0114367Y0216195D01*
X0113833Y0216368D01*
X0116294Y0216368D01*
X0116650Y0216464D01*
X0116969Y0216648D01*
X0117230Y0216909D01*
X0117414Y0217228D01*
X0117509Y0217584D01*
X0117509Y0221068D01*
X0112809Y0221068D01*
X0112809Y0221868D01*
X0112009Y0221868D01*
X0112009Y0226568D01*
X0108525Y0226568D01*
X0108169Y0226473D01*
X0107850Y0226288D01*
X0107315Y0225372D02*
X0094009Y0225372D01*
X0094009Y0224573D02*
X0107309Y0224573D01*
X0107309Y0223775D02*
X0094009Y0223775D01*
X0094009Y0222976D02*
X0107309Y0222976D01*
X0107309Y0222178D02*
X0094009Y0222178D01*
X0094009Y0221379D02*
X0112009Y0221379D01*
X0112009Y0220581D02*
X0112809Y0220581D01*
X0112809Y0221379D02*
X0169492Y0221379D01*
X0168694Y0220581D02*
X0117509Y0220581D01*
X0117509Y0219782D02*
X0167895Y0219782D01*
X0167097Y0218984D02*
X0117509Y0218984D01*
X0117509Y0218185D02*
X0166298Y0218185D01*
X0165500Y0217387D02*
X0117457Y0217387D01*
X0117409Y0216468D02*
X0107409Y0216468D01*
X0107953Y0216588D02*
X0094009Y0216588D01*
X0094009Y0215790D02*
X0109681Y0215790D01*
X0108720Y0214991D02*
X0094009Y0214991D01*
X0094009Y0214193D02*
X0108085Y0214193D01*
X0107673Y0213394D02*
X0094009Y0213394D01*
X0094009Y0212596D02*
X0107424Y0212596D01*
X0107320Y0210999D02*
X0094009Y0210999D01*
X0094009Y0211797D02*
X0112009Y0211797D01*
X0112009Y0212596D02*
X0112809Y0212596D01*
X0112809Y0213394D02*
X0112009Y0213394D01*
X0112009Y0214193D02*
X0112809Y0214193D01*
X0112809Y0214991D02*
X0112009Y0214991D01*
X0112009Y0215790D02*
X0112809Y0215790D01*
X0112809Y0216588D02*
X0112009Y0216588D01*
X0112009Y0217387D02*
X0112809Y0217387D01*
X0112809Y0218185D02*
X0112009Y0218185D01*
X0112009Y0218984D02*
X0112809Y0218984D01*
X0112809Y0219782D02*
X0112009Y0219782D01*
X0112809Y0221868D02*
X0117509Y0221868D01*
X0117509Y0225353D01*
X0117414Y0225709D01*
X0117230Y0226028D01*
X0116969Y0226288D01*
X0116650Y0226473D01*
X0116294Y0226568D01*
X0112809Y0226568D01*
X0112809Y0221868D01*
X0112809Y0222178D02*
X0112009Y0222178D01*
X0112009Y0222976D02*
X0112809Y0222976D01*
X0112809Y0223775D02*
X0112009Y0223775D01*
X0112009Y0224573D02*
X0112809Y0224573D01*
X0112809Y0225372D02*
X0112009Y0225372D01*
X0112009Y0226170D02*
X0112809Y0226170D01*
X0117087Y0226170D02*
X0174283Y0226170D01*
X0173485Y0225372D02*
X0117504Y0225372D01*
X0117509Y0224573D02*
X0172686Y0224573D01*
X0171888Y0223775D02*
X0117509Y0223775D01*
X0117509Y0222976D02*
X0171089Y0222976D01*
X0170291Y0222178D02*
X0117509Y0222178D01*
X0116866Y0216588D02*
X0164701Y0216588D01*
X0163903Y0215790D02*
X0115138Y0215790D01*
X0116099Y0214991D02*
X0163104Y0214991D01*
X0162306Y0214193D02*
X0116734Y0214193D01*
X0117146Y0213394D02*
X0161507Y0213394D01*
X0160709Y0212596D02*
X0117394Y0212596D01*
X0117499Y0210999D02*
X0125112Y0210999D01*
X0125910Y0211797D02*
X0112809Y0211797D01*
X0115958Y0207805D02*
X0121917Y0207805D01*
X0121119Y0207006D02*
X0114886Y0207006D01*
X0114817Y0206208D02*
X0120320Y0206208D01*
X0119522Y0205409D02*
X0115964Y0205409D01*
X0116762Y0204611D02*
X0118723Y0204611D01*
X0117925Y0203812D02*
X0117175Y0203812D01*
X0118409Y0201468D02*
X0127409Y0210468D01*
X0161409Y0210468D01*
X0178409Y0227468D01*
X0196409Y0227468D01*
X0199409Y0224468D01*
X0199409Y0217468D01*
X0203409Y0213468D01*
X0274409Y0213468D01*
X0277409Y0210468D01*
X0277409Y0197468D01*
X0273409Y0186468D02*
X0273409Y0208468D01*
X0270409Y0211468D01*
X0202409Y0211468D01*
X0197409Y0216468D01*
X0187409Y0216468D01*
X0177409Y0206468D01*
X0143409Y0206468D01*
X0118409Y0181468D01*
X0112409Y0181468D01*
X0107109Y0181454D02*
X0094009Y0181454D01*
X0094009Y0182252D02*
X0107109Y0182252D01*
X0107328Y0183051D02*
X0094009Y0183051D01*
X0094009Y0183849D02*
X0107659Y0183849D01*
X0108094Y0184648D02*
X0094009Y0184648D01*
X0094009Y0185446D02*
X0108892Y0185446D01*
X0110092Y0186245D02*
X0094009Y0186245D01*
X0094009Y0187043D02*
X0109339Y0187043D01*
X0108540Y0187842D02*
X0094009Y0187842D01*
X0094009Y0188640D02*
X0107844Y0188640D01*
X0107513Y0189439D02*
X0094009Y0189439D01*
X0094009Y0190237D02*
X0107182Y0190237D01*
X0107109Y0191036D02*
X0094009Y0191036D01*
X0094009Y0191834D02*
X0107109Y0191834D01*
X0107155Y0192633D02*
X0094009Y0192633D01*
X0094009Y0193431D02*
X0107486Y0193431D01*
X0107817Y0194230D02*
X0094009Y0194230D01*
X0094009Y0195029D02*
X0108474Y0195029D01*
X0109273Y0195827D02*
X0094009Y0195827D01*
X0094009Y0196626D02*
X0110251Y0196626D01*
X0108958Y0197424D02*
X0094009Y0197424D01*
X0094009Y0198223D02*
X0108160Y0198223D01*
X0107686Y0199021D02*
X0094009Y0199021D01*
X0094009Y0199820D02*
X0107356Y0199820D01*
X0107109Y0200618D02*
X0094009Y0200618D01*
X0094009Y0201417D02*
X0107109Y0201417D01*
X0107109Y0202215D02*
X0094009Y0202215D01*
X0094009Y0203014D02*
X0107313Y0203014D01*
X0107644Y0203812D02*
X0094009Y0203812D01*
X0094009Y0204611D02*
X0108057Y0204611D01*
X0108855Y0205409D02*
X0094009Y0205409D01*
X0094009Y0206208D02*
X0110002Y0206208D01*
X0109933Y0207006D02*
X0094009Y0207006D01*
X0094009Y0207805D02*
X0108860Y0207805D01*
X0108187Y0208603D02*
X0094009Y0208603D01*
X0094009Y0209402D02*
X0107738Y0209402D01*
X0107459Y0210200D02*
X0094009Y0210200D01*
X0094009Y0217387D02*
X0107362Y0217387D01*
X0107309Y0218185D02*
X0094009Y0218185D01*
X0094009Y0218984D02*
X0107309Y0218984D01*
X0107309Y0219782D02*
X0094009Y0219782D01*
X0094009Y0220581D02*
X0107309Y0220581D01*
X0117360Y0210200D02*
X0124313Y0210200D01*
X0123514Y0209402D02*
X0117080Y0209402D01*
X0116632Y0208603D02*
X0122716Y0208603D01*
X0118409Y0201468D02*
X0112409Y0201468D01*
X0112409Y0191468D02*
X0118409Y0191468D01*
X0135409Y0208468D01*
X0169409Y0208468D01*
X0174409Y0213468D01*
X0170809Y0213394D02*
X0167164Y0213394D01*
X0166365Y0212596D02*
X0170709Y0212596D01*
X0170826Y0212713D02*
X0168581Y0210468D01*
X0164238Y0210468D01*
X0179238Y0225468D01*
X0189238Y0225468D01*
X0189087Y0225358D01*
X0188519Y0224791D01*
X0188047Y0224141D01*
X0187683Y0223426D01*
X0187435Y0222662D01*
X0187309Y0221870D01*
X0187309Y0221868D01*
X0192009Y0221868D01*
X0192009Y0221068D01*
X0187309Y0221068D01*
X0187309Y0221067D01*
X0187435Y0220274D01*
X0187683Y0219510D01*
X0188047Y0218795D01*
X0188285Y0218468D01*
X0186581Y0218468D01*
X0185409Y0217297D01*
X0176581Y0208468D01*
X0172238Y0208468D01*
X0173654Y0209884D01*
X0173693Y0209868D01*
X0175125Y0209868D01*
X0176449Y0210416D01*
X0177461Y0211429D01*
X0178009Y0212752D01*
X0178009Y0214184D01*
X0177461Y0215507D01*
X0176449Y0216520D01*
X0175125Y0217068D01*
X0173693Y0217068D01*
X0172370Y0216520D01*
X0171357Y0215507D01*
X0170809Y0214184D01*
X0170809Y0212752D01*
X0170826Y0212713D01*
X0169910Y0211797D02*
X0165567Y0211797D01*
X0164768Y0210999D02*
X0169112Y0210999D01*
X0167962Y0214193D02*
X0170813Y0214193D01*
X0171144Y0214991D02*
X0168761Y0214991D01*
X0169559Y0215790D02*
X0171640Y0215790D01*
X0172535Y0216588D02*
X0170358Y0216588D01*
X0171156Y0217387D02*
X0185500Y0217387D01*
X0185409Y0217297D02*
X0185409Y0217297D01*
X0184701Y0216588D02*
X0176284Y0216588D01*
X0177179Y0215790D02*
X0183903Y0215790D01*
X0183104Y0214991D02*
X0177675Y0214991D01*
X0178006Y0214193D02*
X0182306Y0214193D01*
X0181507Y0213394D02*
X0178009Y0213394D01*
X0177945Y0212596D02*
X0180709Y0212596D01*
X0179910Y0211797D02*
X0177614Y0211797D01*
X0177031Y0210999D02*
X0179112Y0210999D01*
X0178313Y0210200D02*
X0175927Y0210200D01*
X0177514Y0209402D02*
X0173171Y0209402D01*
X0172373Y0208603D02*
X0176716Y0208603D01*
X0179409Y0205640D02*
X0179409Y0205640D01*
X0179179Y0205409D02*
X0188855Y0205409D01*
X0189609Y0206208D02*
X0179977Y0206208D01*
X0180776Y0207006D02*
X0189376Y0207006D01*
X0188578Y0207805D02*
X0181574Y0207805D01*
X0182373Y0208603D02*
X0187859Y0208603D01*
X0187529Y0209402D02*
X0183171Y0209402D01*
X0183970Y0210200D02*
X0187198Y0210200D01*
X0187109Y0210999D02*
X0184768Y0210999D01*
X0185567Y0211797D02*
X0187109Y0211797D01*
X0187140Y0212596D02*
X0186365Y0212596D01*
X0187164Y0213394D02*
X0187471Y0213394D01*
X0186298Y0218185D02*
X0171955Y0218185D01*
X0172753Y0218984D02*
X0187951Y0218984D01*
X0187595Y0219782D02*
X0173552Y0219782D01*
X0174350Y0220581D02*
X0187386Y0220581D01*
X0187358Y0222178D02*
X0175947Y0222178D01*
X0175149Y0221379D02*
X0192009Y0221379D01*
X0187861Y0223775D02*
X0177545Y0223775D01*
X0178343Y0224573D02*
X0188362Y0224573D01*
X0189106Y0225372D02*
X0179142Y0225372D01*
X0176746Y0222976D02*
X0187537Y0222976D01*
X0201409Y0219782D02*
X0208097Y0219782D01*
X0208289Y0218984D02*
X0201409Y0218984D01*
X0201521Y0218185D02*
X0208593Y0218185D01*
X0209029Y0217387D02*
X0202319Y0217387D01*
X0203118Y0216588D02*
X0209638Y0216588D01*
X0210514Y0215790D02*
X0203916Y0215790D01*
X0214009Y0222178D02*
X0214809Y0222178D01*
X0214809Y0222976D02*
X0214009Y0222976D01*
X0214009Y0223775D02*
X0214809Y0223775D01*
X0214809Y0224573D02*
X0214009Y0224573D01*
X0214009Y0225372D02*
X0214809Y0225372D01*
X0214809Y0226170D02*
X0214009Y0226170D01*
X0214009Y0226969D02*
X0214809Y0226969D01*
X0216369Y0226969D02*
X0231891Y0226969D01*
X0230378Y0226170D02*
X0218012Y0226170D01*
X0218957Y0225372D02*
X0229579Y0225372D01*
X0228800Y0224573D02*
X0219633Y0224573D01*
X0220121Y0223775D02*
X0228470Y0223775D01*
X0228139Y0222976D02*
X0220463Y0222976D01*
X0220684Y0222178D02*
X0227809Y0222178D01*
X0227809Y0221379D02*
X0220797Y0221379D01*
X0231530Y0202981D02*
X0231683Y0202510D01*
X0232047Y0201795D01*
X0232519Y0201146D01*
X0233087Y0200578D01*
X0233736Y0200106D01*
X0234452Y0199742D01*
X0235215Y0199494D01*
X0236008Y0199368D01*
X0236009Y0199368D01*
X0236009Y0204068D01*
X0236809Y0204068D01*
X0236809Y0199368D01*
X0236811Y0199368D01*
X0237604Y0199494D01*
X0238367Y0199742D01*
X0239082Y0200106D01*
X0239732Y0200578D01*
X0240299Y0201146D01*
X0240771Y0201795D01*
X0241136Y0202510D01*
X0241289Y0202981D01*
X0241916Y0201466D01*
X0243407Y0199975D01*
X0245355Y0199168D01*
X0247464Y0199168D01*
X0248859Y0199746D01*
X0245581Y0196468D01*
X0217238Y0196468D01*
X0213960Y0199746D01*
X0215355Y0199168D01*
X0217464Y0199168D01*
X0219412Y0199975D01*
X0220902Y0201466D01*
X0221409Y0202690D01*
X0221916Y0201466D01*
X0223407Y0199975D01*
X0225355Y0199168D01*
X0227464Y0199168D01*
X0229412Y0199975D01*
X0230902Y0201466D01*
X0231530Y0202981D01*
X0231834Y0202215D02*
X0231213Y0202215D01*
X0230853Y0201417D02*
X0232323Y0201417D01*
X0233047Y0200618D02*
X0230055Y0200618D01*
X0229036Y0199820D02*
X0234299Y0199820D01*
X0236009Y0199820D02*
X0236809Y0199820D01*
X0236809Y0200618D02*
X0236009Y0200618D01*
X0236009Y0201417D02*
X0236809Y0201417D01*
X0236809Y0202215D02*
X0236009Y0202215D01*
X0236009Y0203014D02*
X0236809Y0203014D01*
X0236809Y0203812D02*
X0236009Y0203812D01*
X0238520Y0199820D02*
X0243783Y0199820D01*
X0242764Y0200618D02*
X0239772Y0200618D01*
X0240496Y0201417D02*
X0241966Y0201417D01*
X0241606Y0202215D02*
X0240985Y0202215D01*
X0246537Y0197424D02*
X0216282Y0197424D01*
X0217080Y0196626D02*
X0245738Y0196626D01*
X0247335Y0198223D02*
X0215483Y0198223D01*
X0214685Y0199021D02*
X0248134Y0199021D01*
X0246409Y0194468D02*
X0216409Y0194468D01*
X0211409Y0199468D01*
X0200409Y0199468D01*
X0197029Y0198223D02*
X0196659Y0198223D01*
X0196902Y0198466D02*
X0196915Y0198497D01*
X0197357Y0197429D01*
X0198370Y0196416D01*
X0199693Y0195868D01*
X0201125Y0195868D01*
X0201279Y0195932D01*
X0201109Y0195522D01*
X0201109Y0193414D01*
X0201915Y0191468D01*
X0200581Y0191468D01*
X0197581Y0188468D01*
X0196409Y0187297D01*
X0196409Y0184963D01*
X0195412Y0185961D01*
X0193896Y0186589D01*
X0194367Y0186742D01*
X0195082Y0187106D01*
X0195732Y0187578D01*
X0196299Y0188146D01*
X0196771Y0188795D01*
X0197136Y0189510D01*
X0197384Y0190274D01*
X0197509Y0191067D01*
X0197509Y0191068D01*
X0192809Y0191068D01*
X0192809Y0191868D01*
X0197509Y0191868D01*
X0197509Y0191870D01*
X0197384Y0192662D01*
X0197136Y0193426D01*
X0196771Y0194141D01*
X0196299Y0194791D01*
X0195732Y0195358D01*
X0195082Y0195830D01*
X0194367Y0196195D01*
X0193896Y0196347D01*
X0195412Y0196975D01*
X0196902Y0198466D01*
X0197362Y0197424D02*
X0195861Y0197424D01*
X0194568Y0196626D02*
X0198161Y0196626D01*
X0197409Y0196468D02*
X0187409Y0196468D01*
X0186527Y0196626D02*
X0190251Y0196626D01*
X0190452Y0196195D02*
X0189736Y0195830D01*
X0189087Y0195358D01*
X0188519Y0194791D01*
X0188047Y0194141D01*
X0187683Y0193426D01*
X0187435Y0192662D01*
X0187309Y0191870D01*
X0187309Y0191868D01*
X0192009Y0191868D01*
X0192009Y0191068D01*
X0187309Y0191068D01*
X0187309Y0191067D01*
X0187435Y0190274D01*
X0187683Y0189510D01*
X0188047Y0188795D01*
X0188519Y0188146D01*
X0189087Y0187578D01*
X0189736Y0187106D01*
X0190452Y0186742D01*
X0190922Y0186589D01*
X0189407Y0185961D01*
X0187916Y0184470D01*
X0187109Y0182522D01*
X0187109Y0180414D01*
X0187525Y0179412D01*
X0184409Y0176297D01*
X0184409Y0167640D01*
X0185581Y0166468D01*
X0188581Y0163468D01*
X0197238Y0163468D01*
X0198409Y0164640D01*
X0202409Y0168640D01*
X0202409Y0170973D01*
X0203407Y0169975D01*
X0204631Y0169468D01*
X0203407Y0168961D01*
X0201916Y0167470D01*
X0201109Y0165522D01*
X0201109Y0163414D01*
X0201916Y0161466D01*
X0203407Y0159975D01*
X0204631Y0159468D01*
X0203407Y0158961D01*
X0201916Y0157470D01*
X0201109Y0155522D01*
X0201109Y0153414D01*
X0201916Y0151466D01*
X0203407Y0149975D01*
X0204631Y0149468D01*
X0203407Y0148961D01*
X0201916Y0147470D01*
X0201109Y0145522D01*
X0201109Y0143414D01*
X0201916Y0141466D01*
X0203407Y0139975D01*
X0204631Y0139468D01*
X0203407Y0138961D01*
X0201916Y0137470D01*
X0201109Y0135522D01*
X0201109Y0133414D01*
X0201916Y0131466D01*
X0203407Y0129975D01*
X0204631Y0129468D01*
X0203407Y0128961D01*
X0201916Y0127470D01*
X0201109Y0125522D01*
X0201109Y0123414D01*
X0201916Y0121466D01*
X0203407Y0119975D01*
X0204631Y0119468D01*
X0203407Y0118961D01*
X0201916Y0117470D01*
X0201109Y0115522D01*
X0201109Y0113414D01*
X0201916Y0111466D01*
X0203407Y0109975D01*
X0204631Y0109468D01*
X0203407Y0108961D01*
X0201916Y0107470D01*
X0201109Y0105522D01*
X0201109Y0103414D01*
X0201916Y0101466D01*
X0203407Y0099975D01*
X0204631Y0099468D01*
X0203407Y0098961D01*
X0201916Y0097470D01*
X0201832Y0097268D01*
X0181569Y0097268D01*
X0180209Y0098628D01*
X0180209Y0190308D01*
X0188142Y0198241D01*
X0189407Y0196975D01*
X0190922Y0196347D01*
X0190452Y0196195D01*
X0189732Y0195827D02*
X0185728Y0195827D01*
X0184929Y0195029D02*
X0188757Y0195029D01*
X0188112Y0194230D02*
X0184131Y0194230D01*
X0183332Y0193431D02*
X0187686Y0193431D01*
X0187430Y0192633D02*
X0182534Y0192633D01*
X0181735Y0191834D02*
X0192009Y0191834D01*
X0192809Y0191834D02*
X0201764Y0191834D01*
X0201433Y0192633D02*
X0197388Y0192633D01*
X0197133Y0193431D02*
X0201109Y0193431D01*
X0201109Y0194230D02*
X0196707Y0194230D01*
X0196062Y0195029D02*
X0201109Y0195029D01*
X0201236Y0195827D02*
X0195087Y0195827D01*
X0197504Y0191036D02*
X0200149Y0191036D01*
X0199350Y0190237D02*
X0197372Y0190237D01*
X0197099Y0189439D02*
X0198552Y0189439D01*
X0197753Y0188640D02*
X0196659Y0188640D01*
X0196955Y0187842D02*
X0195996Y0187842D01*
X0196409Y0187043D02*
X0194959Y0187043D01*
X0194727Y0186245D02*
X0196409Y0186245D01*
X0196409Y0186468D02*
X0186409Y0186468D01*
X0188094Y0184648D02*
X0180209Y0184648D01*
X0180209Y0185446D02*
X0188892Y0185446D01*
X0190092Y0186245D02*
X0180209Y0186245D01*
X0180209Y0187043D02*
X0189860Y0187043D01*
X0188823Y0187842D02*
X0180209Y0187842D01*
X0180209Y0188640D02*
X0188160Y0188640D01*
X0187719Y0189439D02*
X0180209Y0189439D01*
X0180209Y0190237D02*
X0187447Y0190237D01*
X0187314Y0191036D02*
X0180937Y0191036D01*
X0177010Y0195029D02*
X0172798Y0195029D01*
X0173597Y0195827D02*
X0177808Y0195827D01*
X0178607Y0196626D02*
X0176658Y0196626D01*
X0176449Y0196416D02*
X0177461Y0197429D01*
X0178009Y0198752D01*
X0178009Y0200184D01*
X0177461Y0201507D01*
X0176449Y0202520D01*
X0175125Y0203068D01*
X0173693Y0203068D01*
X0172370Y0202520D01*
X0171357Y0201507D01*
X0170809Y0200184D01*
X0170809Y0198752D01*
X0170826Y0198713D01*
X0163281Y0191168D01*
X0162109Y0189997D01*
X0162109Y0142260D01*
X0161220Y0141892D01*
X0159786Y0140457D01*
X0159418Y0139568D01*
X0129401Y0139568D01*
X0129033Y0140457D01*
X0127598Y0141892D01*
X0125724Y0142668D01*
X0123695Y0142668D01*
X0121820Y0141892D01*
X0120386Y0140457D01*
X0119609Y0138583D01*
X0119609Y0136554D01*
X0120386Y0134679D01*
X0121820Y0133245D01*
X0123695Y0132468D01*
X0125724Y0132468D01*
X0127598Y0133245D01*
X0129033Y0134679D01*
X0129401Y0135568D01*
X0159418Y0135568D01*
X0159786Y0134679D01*
X0161220Y0133245D01*
X0163095Y0132468D01*
X0165124Y0132468D01*
X0166998Y0133245D01*
X0168433Y0134679D01*
X0169209Y0136554D01*
X0169209Y0138583D01*
X0168433Y0140457D01*
X0166998Y0141892D01*
X0166109Y0142260D01*
X0166109Y0188340D01*
X0173654Y0195884D01*
X0173693Y0195868D01*
X0175125Y0195868D01*
X0176449Y0196416D01*
X0177456Y0197424D02*
X0179405Y0197424D01*
X0180204Y0198223D02*
X0177790Y0198223D01*
X0178009Y0199021D02*
X0181002Y0199021D01*
X0181801Y0199820D02*
X0178009Y0199820D01*
X0177830Y0200618D02*
X0182599Y0200618D01*
X0183398Y0201417D02*
X0177499Y0201417D01*
X0176754Y0202215D02*
X0184197Y0202215D01*
X0184995Y0203014D02*
X0175257Y0203014D01*
X0173562Y0203014D02*
X0142783Y0203014D01*
X0143582Y0203812D02*
X0185794Y0203812D01*
X0188057Y0204611D02*
X0178380Y0204611D01*
X0174409Y0199468D02*
X0164109Y0189168D01*
X0164109Y0137568D01*
X0124709Y0137568D01*
X0122871Y0142327D02*
X0094009Y0142327D01*
X0094009Y0143125D02*
X0162109Y0143125D01*
X0162109Y0142327D02*
X0126548Y0142327D01*
X0127962Y0141528D02*
X0160857Y0141528D01*
X0160058Y0140730D02*
X0128760Y0140730D01*
X0129251Y0139931D02*
X0159568Y0139931D01*
X0159595Y0135140D02*
X0129224Y0135140D01*
X0128695Y0134342D02*
X0160123Y0134342D01*
X0160922Y0133543D02*
X0127897Y0133543D01*
X0126391Y0132745D02*
X0162428Y0132745D01*
X0165791Y0132745D02*
X0174609Y0132745D01*
X0174609Y0133543D02*
X0167297Y0133543D01*
X0168095Y0134342D02*
X0174609Y0134342D01*
X0174609Y0135140D02*
X0168624Y0135140D01*
X0168955Y0135939D02*
X0174609Y0135939D01*
X0174609Y0136737D02*
X0169209Y0136737D01*
X0169209Y0137536D02*
X0174609Y0137536D01*
X0174609Y0138334D02*
X0169209Y0138334D01*
X0168982Y0139133D02*
X0174609Y0139133D01*
X0174609Y0139931D02*
X0168651Y0139931D01*
X0168160Y0140730D02*
X0174609Y0140730D01*
X0174609Y0141528D02*
X0167362Y0141528D01*
X0166109Y0142327D02*
X0174609Y0142327D01*
X0174609Y0143125D02*
X0166109Y0143125D01*
X0166109Y0143924D02*
X0174609Y0143924D01*
X0174609Y0144722D02*
X0166109Y0144722D01*
X0166109Y0145521D02*
X0174609Y0145521D01*
X0174609Y0146319D02*
X0166109Y0146319D01*
X0166109Y0147118D02*
X0174609Y0147118D01*
X0174609Y0147916D02*
X0166109Y0147916D01*
X0166109Y0148715D02*
X0174609Y0148715D01*
X0174609Y0149513D02*
X0166109Y0149513D01*
X0166109Y0150312D02*
X0174609Y0150312D01*
X0174609Y0151110D02*
X0166109Y0151110D01*
X0166109Y0151909D02*
X0174609Y0151909D01*
X0174609Y0152707D02*
X0166109Y0152707D01*
X0166109Y0153506D02*
X0174609Y0153506D01*
X0174609Y0154304D02*
X0166109Y0154304D01*
X0166109Y0155103D02*
X0174609Y0155103D01*
X0174609Y0155901D02*
X0166109Y0155901D01*
X0166109Y0156700D02*
X0174609Y0156700D01*
X0174609Y0157498D02*
X0166109Y0157498D01*
X0166109Y0158297D02*
X0174609Y0158297D01*
X0174609Y0159096D02*
X0166109Y0159096D01*
X0166109Y0159894D02*
X0174609Y0159894D01*
X0174609Y0160693D02*
X0166109Y0160693D01*
X0166109Y0161491D02*
X0174609Y0161491D01*
X0174609Y0162290D02*
X0166109Y0162290D01*
X0166109Y0163088D02*
X0174609Y0163088D01*
X0174609Y0163887D02*
X0166109Y0163887D01*
X0166109Y0164685D02*
X0174609Y0164685D01*
X0174609Y0165484D02*
X0166109Y0165484D01*
X0166109Y0166282D02*
X0174609Y0166282D01*
X0174609Y0167081D02*
X0166109Y0167081D01*
X0166109Y0167879D02*
X0174609Y0167879D01*
X0174609Y0168678D02*
X0166109Y0168678D01*
X0166109Y0169476D02*
X0174609Y0169476D01*
X0174609Y0170275D02*
X0166109Y0170275D01*
X0166109Y0171073D02*
X0174609Y0171073D01*
X0174609Y0171872D02*
X0166109Y0171872D01*
X0166109Y0172670D02*
X0174609Y0172670D01*
X0174609Y0173469D02*
X0166109Y0173469D01*
X0166109Y0174267D02*
X0174609Y0174267D01*
X0174609Y0175066D02*
X0166109Y0175066D01*
X0166109Y0175864D02*
X0174609Y0175864D01*
X0174609Y0176663D02*
X0166109Y0176663D01*
X0166109Y0177461D02*
X0174609Y0177461D01*
X0174609Y0178260D02*
X0166109Y0178260D01*
X0166109Y0179058D02*
X0174609Y0179058D01*
X0174609Y0179857D02*
X0166109Y0179857D01*
X0166109Y0180655D02*
X0174609Y0180655D01*
X0174609Y0181454D02*
X0166109Y0181454D01*
X0166109Y0182252D02*
X0174609Y0182252D01*
X0174609Y0183051D02*
X0166109Y0183051D01*
X0166109Y0183849D02*
X0174609Y0183849D01*
X0174609Y0184648D02*
X0166109Y0184648D01*
X0166109Y0185446D02*
X0174609Y0185446D01*
X0174609Y0186245D02*
X0166109Y0186245D01*
X0166109Y0187043D02*
X0174609Y0187043D01*
X0174609Y0187842D02*
X0166109Y0187842D01*
X0166410Y0188640D02*
X0174609Y0188640D01*
X0174609Y0189439D02*
X0167209Y0189439D01*
X0168007Y0190237D02*
X0174609Y0190237D01*
X0174609Y0191036D02*
X0168806Y0191036D01*
X0169604Y0191834D02*
X0174609Y0191834D01*
X0174861Y0192633D02*
X0170403Y0192633D01*
X0171201Y0193431D02*
X0175413Y0193431D01*
X0176211Y0194230D02*
X0172000Y0194230D01*
X0169537Y0197424D02*
X0137194Y0197424D01*
X0137992Y0198223D02*
X0170335Y0198223D01*
X0170809Y0199021D02*
X0138791Y0199021D01*
X0139589Y0199820D02*
X0170809Y0199820D01*
X0170989Y0200618D02*
X0140388Y0200618D01*
X0141186Y0201417D02*
X0171320Y0201417D01*
X0172065Y0202215D02*
X0141985Y0202215D01*
X0136395Y0196626D02*
X0168738Y0196626D01*
X0167940Y0195827D02*
X0135597Y0195827D01*
X0134798Y0195029D02*
X0167141Y0195029D01*
X0166343Y0194230D02*
X0134000Y0194230D01*
X0133201Y0193431D02*
X0165544Y0193431D01*
X0164746Y0192633D02*
X0132403Y0192633D01*
X0131604Y0191834D02*
X0163947Y0191834D01*
X0163149Y0191036D02*
X0130806Y0191036D01*
X0130007Y0190237D02*
X0162350Y0190237D01*
X0162109Y0189439D02*
X0129209Y0189439D01*
X0128410Y0188640D02*
X0162109Y0188640D01*
X0162109Y0187842D02*
X0127612Y0187842D01*
X0126813Y0187043D02*
X0162109Y0187043D01*
X0162109Y0186245D02*
X0126014Y0186245D01*
X0125216Y0185446D02*
X0162109Y0185446D01*
X0162109Y0184648D02*
X0124417Y0184648D01*
X0123619Y0183849D02*
X0162109Y0183849D01*
X0162109Y0183051D02*
X0122820Y0183051D01*
X0122022Y0182252D02*
X0162109Y0182252D01*
X0162109Y0181454D02*
X0121223Y0181454D01*
X0120425Y0180655D02*
X0125334Y0180655D01*
X0125747Y0181068D02*
X0124809Y0180131D01*
X0124809Y0170905D01*
X0125747Y0169968D01*
X0157072Y0169968D01*
X0158009Y0170905D01*
X0158009Y0180131D01*
X0157072Y0181068D01*
X0125747Y0181068D01*
X0124809Y0179857D02*
X0119626Y0179857D01*
X0117148Y0179058D02*
X0124809Y0179058D01*
X0124809Y0178260D02*
X0116696Y0178260D01*
X0115898Y0177461D02*
X0124809Y0177461D01*
X0124809Y0176663D02*
X0114658Y0176663D01*
X0115509Y0175864D02*
X0124809Y0175864D01*
X0124809Y0175066D02*
X0116307Y0175066D01*
X0116987Y0174267D02*
X0124809Y0174267D01*
X0124809Y0173469D02*
X0117317Y0173469D01*
X0117648Y0172670D02*
X0124809Y0172670D01*
X0124809Y0171872D02*
X0117709Y0171872D01*
X0117709Y0171073D02*
X0124809Y0171073D01*
X0125440Y0170275D02*
X0117652Y0170275D01*
X0117321Y0169476D02*
X0162109Y0169476D01*
X0162109Y0168678D02*
X0116990Y0168678D01*
X0116316Y0167879D02*
X0162109Y0167879D01*
X0162109Y0167081D02*
X0115517Y0167081D01*
X0113739Y0166282D02*
X0162109Y0166282D01*
X0162109Y0165484D02*
X0094009Y0165484D01*
X0094009Y0166282D02*
X0111080Y0166282D01*
X0109302Y0167081D02*
X0094009Y0167081D01*
X0094009Y0167879D02*
X0108503Y0167879D01*
X0107829Y0168678D02*
X0094009Y0168678D01*
X0094009Y0169476D02*
X0107498Y0169476D01*
X0107167Y0170275D02*
X0094009Y0170275D01*
X0094009Y0171073D02*
X0107109Y0171073D01*
X0107109Y0171872D02*
X0094009Y0171872D01*
X0094009Y0172670D02*
X0107171Y0172670D01*
X0107501Y0173469D02*
X0094009Y0173469D01*
X0094009Y0174267D02*
X0107832Y0174267D01*
X0108512Y0175066D02*
X0094009Y0175066D01*
X0094009Y0175864D02*
X0109310Y0175864D01*
X0110161Y0176663D02*
X0094009Y0176663D01*
X0094009Y0177461D02*
X0108921Y0177461D01*
X0108122Y0178260D02*
X0094009Y0178260D01*
X0094009Y0179058D02*
X0107671Y0179058D01*
X0107340Y0179857D02*
X0094009Y0179857D01*
X0094009Y0180655D02*
X0107109Y0180655D01*
X0094009Y0164685D02*
X0162109Y0164685D01*
X0162109Y0163887D02*
X0094009Y0163887D01*
X0094009Y0163088D02*
X0162109Y0163088D01*
X0162109Y0162290D02*
X0094009Y0162290D01*
X0094009Y0161491D02*
X0162109Y0161491D01*
X0162109Y0160693D02*
X0094009Y0160693D01*
X0094009Y0159894D02*
X0162109Y0159894D01*
X0162109Y0159096D02*
X0094009Y0159096D01*
X0094009Y0158297D02*
X0162109Y0158297D01*
X0162109Y0157498D02*
X0094009Y0157498D01*
X0094009Y0156700D02*
X0162109Y0156700D01*
X0162109Y0155901D02*
X0094009Y0155901D01*
X0094009Y0155103D02*
X0162109Y0155103D01*
X0162109Y0154304D02*
X0094009Y0154304D01*
X0094009Y0153506D02*
X0162109Y0153506D01*
X0162109Y0152707D02*
X0094009Y0152707D01*
X0094009Y0151909D02*
X0162109Y0151909D01*
X0162109Y0151110D02*
X0094009Y0151110D01*
X0094009Y0150312D02*
X0162109Y0150312D01*
X0162109Y0149513D02*
X0094009Y0149513D01*
X0094009Y0148715D02*
X0162109Y0148715D01*
X0162109Y0147916D02*
X0094009Y0147916D01*
X0094009Y0147118D02*
X0162109Y0147118D01*
X0162109Y0146319D02*
X0094009Y0146319D01*
X0094009Y0145521D02*
X0162109Y0145521D01*
X0162109Y0144722D02*
X0094009Y0144722D01*
X0094009Y0143924D02*
X0162109Y0143924D01*
X0174609Y0131946D02*
X0094009Y0131946D01*
X0094009Y0131148D02*
X0174609Y0131148D01*
X0174609Y0130349D02*
X0094009Y0130349D01*
X0094009Y0129551D02*
X0174609Y0129551D01*
X0174609Y0128752D02*
X0094009Y0128752D01*
X0094009Y0127954D02*
X0142665Y0127954D01*
X0142528Y0127909D02*
X0141841Y0127559D01*
X0141217Y0127106D01*
X0140672Y0126560D01*
X0140219Y0125936D01*
X0139868Y0125249D01*
X0139630Y0124516D01*
X0139512Y0123768D01*
X0144009Y0123768D01*
X0144009Y0122968D01*
X0139512Y0122968D01*
X0139630Y0122221D01*
X0139868Y0121487D01*
X0140219Y0120800D01*
X0140672Y0120176D01*
X0141217Y0119631D01*
X0141841Y0119177D01*
X0142528Y0118827D01*
X0143262Y0118589D01*
X0144009Y0118470D01*
X0144009Y0122968D01*
X0144809Y0122968D01*
X0144809Y0118470D01*
X0145557Y0118589D01*
X0146290Y0118827D01*
X0146978Y0119177D01*
X0147602Y0119631D01*
X0148147Y0120176D01*
X0148600Y0120800D01*
X0148950Y0121487D01*
X0149189Y0122221D01*
X0149307Y0122968D01*
X0144809Y0122968D01*
X0144809Y0123768D01*
X0144009Y0123768D01*
X0144009Y0128266D01*
X0143262Y0128148D01*
X0142528Y0127909D01*
X0141285Y0127155D02*
X0094009Y0127155D01*
X0094009Y0126357D02*
X0140524Y0126357D01*
X0140026Y0125558D02*
X0094009Y0125558D01*
X0094009Y0124760D02*
X0139709Y0124760D01*
X0139542Y0123961D02*
X0094009Y0123961D01*
X0094009Y0123162D02*
X0144009Y0123162D01*
X0144009Y0122364D02*
X0144809Y0122364D01*
X0144809Y0123162D02*
X0174609Y0123162D01*
X0174609Y0122364D02*
X0149211Y0122364D01*
X0148976Y0121565D02*
X0174609Y0121565D01*
X0174609Y0120767D02*
X0148576Y0120767D01*
X0147939Y0119968D02*
X0174609Y0119968D01*
X0174609Y0119170D02*
X0146963Y0119170D01*
X0144809Y0119170D02*
X0144009Y0119170D01*
X0144009Y0119968D02*
X0144809Y0119968D01*
X0144809Y0120767D02*
X0144009Y0120767D01*
X0144009Y0121565D02*
X0144809Y0121565D01*
X0144809Y0123768D02*
X0149307Y0123768D01*
X0149189Y0124516D01*
X0148950Y0125249D01*
X0148600Y0125936D01*
X0148147Y0126560D01*
X0147602Y0127106D01*
X0146978Y0127559D01*
X0146290Y0127909D01*
X0145557Y0128148D01*
X0144809Y0128266D01*
X0144809Y0123768D01*
X0144809Y0123961D02*
X0144009Y0123961D01*
X0144009Y0124760D02*
X0144809Y0124760D01*
X0144809Y0125558D02*
X0144009Y0125558D01*
X0144009Y0126357D02*
X0144809Y0126357D01*
X0144809Y0127155D02*
X0144009Y0127155D01*
X0144009Y0127954D02*
X0144809Y0127954D01*
X0146154Y0127954D02*
X0174609Y0127954D01*
X0174609Y0127155D02*
X0147534Y0127155D01*
X0148295Y0126357D02*
X0174609Y0126357D01*
X0174609Y0125558D02*
X0148793Y0125558D01*
X0149109Y0124760D02*
X0174609Y0124760D01*
X0174609Y0123961D02*
X0149277Y0123961D01*
X0141856Y0119170D02*
X0094009Y0119170D01*
X0094009Y0119968D02*
X0140879Y0119968D01*
X0140243Y0120767D02*
X0094009Y0120767D01*
X0094009Y0121565D02*
X0139843Y0121565D01*
X0139607Y0122364D02*
X0094009Y0122364D01*
X0094009Y0118371D02*
X0174609Y0118371D01*
X0174609Y0117573D02*
X0094009Y0117573D01*
X0094009Y0116774D02*
X0174609Y0116774D01*
X0174609Y0115976D02*
X0094009Y0115976D01*
X0094009Y0115177D02*
X0174609Y0115177D01*
X0174609Y0114379D02*
X0094009Y0114379D01*
X0094009Y0113580D02*
X0174609Y0113580D01*
X0174609Y0112782D02*
X0094009Y0112782D01*
X0094009Y0111983D02*
X0174609Y0111983D01*
X0174609Y0111185D02*
X0094009Y0111185D01*
X0094009Y0110386D02*
X0174609Y0110386D01*
X0174609Y0109588D02*
X0094009Y0109588D01*
X0094009Y0108789D02*
X0174609Y0108789D01*
X0174609Y0107991D02*
X0094009Y0107991D01*
X0094009Y0107192D02*
X0174609Y0107192D01*
X0174609Y0106394D02*
X0094009Y0106394D01*
X0094009Y0105595D02*
X0174609Y0105595D01*
X0174609Y0104797D02*
X0094009Y0104797D01*
X0094009Y0103998D02*
X0174609Y0103998D01*
X0174609Y0103200D02*
X0094009Y0103200D01*
X0094009Y0102401D02*
X0174609Y0102401D01*
X0174609Y0101603D02*
X0094009Y0101603D01*
X0094009Y0100804D02*
X0174609Y0100804D01*
X0174609Y0100006D02*
X0094009Y0100006D01*
X0094009Y0099207D02*
X0110001Y0099207D01*
X0108855Y0098409D02*
X0094009Y0098409D01*
X0094009Y0097610D02*
X0108056Y0097610D01*
X0107643Y0096812D02*
X0094009Y0096812D01*
X0094009Y0096013D02*
X0107313Y0096013D01*
X0107109Y0095215D02*
X0094009Y0095215D01*
X0094009Y0094416D02*
X0107109Y0094416D01*
X0107109Y0093618D02*
X0094009Y0093618D01*
X0094009Y0092819D02*
X0107356Y0092819D01*
X0107687Y0092021D02*
X0094009Y0092021D01*
X0094009Y0091222D02*
X0108160Y0091222D01*
X0108959Y0090424D02*
X0094009Y0090424D01*
X0094009Y0089625D02*
X0110252Y0089625D01*
X0114566Y0089625D02*
X0119309Y0089625D01*
X0119309Y0088827D02*
X0094009Y0088827D01*
X0094009Y0088028D02*
X0119309Y0088028D01*
X0119309Y0087229D02*
X0094009Y0087229D01*
X0094009Y0086431D02*
X0119309Y0086431D01*
X0119309Y0085632D02*
X0094009Y0085632D01*
X0094009Y0084834D02*
X0119309Y0084834D01*
X0119309Y0084035D02*
X0094009Y0084035D01*
X0094009Y0083237D02*
X0119090Y0083237D01*
X0118046Y0082438D02*
X0094009Y0082438D01*
X0094009Y0081640D02*
X0117247Y0081640D01*
X0116663Y0080841D02*
X0094009Y0080841D01*
X0094009Y0080043D02*
X0116332Y0080043D01*
X0116001Y0079244D02*
X0094009Y0079244D01*
X0094009Y0078446D02*
X0115809Y0078446D01*
X0115809Y0077647D02*
X0094009Y0077647D01*
X0094009Y0076849D02*
X0115809Y0076849D01*
X0115853Y0076050D02*
X0094009Y0076050D01*
X0094009Y0075252D02*
X0116184Y0075252D01*
X0116514Y0074453D02*
X0094009Y0074453D01*
X0094009Y0073655D02*
X0116889Y0073655D01*
X0117687Y0072856D02*
X0094009Y0072856D01*
X0094009Y0072058D02*
X0118486Y0072058D01*
X0120152Y0071259D02*
X0094009Y0071259D01*
X0115860Y0090424D02*
X0118959Y0090424D01*
X0118160Y0091222D02*
X0116659Y0091222D01*
X0117132Y0092021D02*
X0117687Y0092021D01*
X0117643Y0096812D02*
X0117175Y0096812D01*
X0116763Y0097610D02*
X0118056Y0097610D01*
X0118855Y0098409D02*
X0115964Y0098409D01*
X0114818Y0099207D02*
X0120001Y0099207D01*
X0124818Y0099207D02*
X0130491Y0099207D01*
X0132009Y0099207D02*
X0132809Y0099207D01*
X0132809Y0098409D02*
X0132009Y0098409D01*
X0132009Y0097610D02*
X0132809Y0097610D01*
X0132809Y0096812D02*
X0132009Y0096812D01*
X0132009Y0096013D02*
X0132809Y0096013D01*
X0132809Y0095215D02*
X0132009Y0095215D01*
X0132009Y0093618D02*
X0132809Y0093618D01*
X0132809Y0092819D02*
X0132009Y0092819D01*
X0132009Y0092021D02*
X0132809Y0092021D01*
X0132809Y0091222D02*
X0132009Y0091222D01*
X0132009Y0090424D02*
X0132809Y0090424D01*
X0132809Y0089625D02*
X0132009Y0089625D01*
X0130811Y0089625D02*
X0125509Y0089625D01*
X0125509Y0088827D02*
X0203731Y0088827D01*
X0204252Y0089625D02*
X0144566Y0089625D01*
X0145860Y0090424D02*
X0202959Y0090424D01*
X0202160Y0091222D02*
X0146659Y0091222D01*
X0146763Y0097610D02*
X0173592Y0097610D01*
X0174390Y0098409D02*
X0145964Y0098409D01*
X0144818Y0099207D02*
X0174609Y0099207D01*
X0180209Y0099207D02*
X0204001Y0099207D01*
X0203377Y0100006D02*
X0180209Y0100006D01*
X0180209Y0100804D02*
X0202578Y0100804D01*
X0201860Y0101603D02*
X0180209Y0101603D01*
X0180209Y0102401D02*
X0201529Y0102401D01*
X0201198Y0103200D02*
X0180209Y0103200D01*
X0180209Y0103998D02*
X0201109Y0103998D01*
X0201109Y0104797D02*
X0180209Y0104797D01*
X0180209Y0105595D02*
X0201140Y0105595D01*
X0201470Y0106394D02*
X0180209Y0106394D01*
X0180209Y0107192D02*
X0201801Y0107192D01*
X0202437Y0107991D02*
X0180209Y0107991D01*
X0180209Y0108789D02*
X0203235Y0108789D01*
X0204342Y0109588D02*
X0180209Y0109588D01*
X0180209Y0110386D02*
X0202996Y0110386D01*
X0202197Y0111185D02*
X0180209Y0111185D01*
X0180209Y0111983D02*
X0201702Y0111983D01*
X0201371Y0112782D02*
X0180209Y0112782D01*
X0180209Y0113580D02*
X0201109Y0113580D01*
X0201109Y0114379D02*
X0180209Y0114379D01*
X0180209Y0115177D02*
X0201109Y0115177D01*
X0201297Y0115976D02*
X0180209Y0115976D01*
X0180209Y0116774D02*
X0201628Y0116774D01*
X0202019Y0117573D02*
X0180209Y0117573D01*
X0180209Y0118371D02*
X0202817Y0118371D01*
X0203911Y0119170D02*
X0180209Y0119170D01*
X0180209Y0119968D02*
X0203423Y0119968D01*
X0202615Y0120767D02*
X0180209Y0120767D01*
X0180209Y0121565D02*
X0201875Y0121565D01*
X0201544Y0122364D02*
X0180209Y0122364D01*
X0180209Y0123162D02*
X0201214Y0123162D01*
X0201109Y0123961D02*
X0180209Y0123961D01*
X0180209Y0124760D02*
X0201109Y0124760D01*
X0201124Y0125558D02*
X0180209Y0125558D01*
X0180209Y0126357D02*
X0201455Y0126357D01*
X0201786Y0127155D02*
X0180209Y0127155D01*
X0180209Y0127954D02*
X0202399Y0127954D01*
X0203198Y0128752D02*
X0180209Y0128752D01*
X0180209Y0129551D02*
X0204432Y0129551D01*
X0203033Y0130349D02*
X0180209Y0130349D01*
X0180209Y0131148D02*
X0202235Y0131148D01*
X0201717Y0131946D02*
X0180209Y0131946D01*
X0180209Y0132745D02*
X0201387Y0132745D01*
X0201109Y0133543D02*
X0180209Y0133543D01*
X0180209Y0134342D02*
X0201109Y0134342D01*
X0201109Y0135140D02*
X0180209Y0135140D01*
X0180209Y0135939D02*
X0201282Y0135939D01*
X0201613Y0136737D02*
X0180209Y0136737D01*
X0180209Y0137536D02*
X0201982Y0137536D01*
X0202780Y0138334D02*
X0180209Y0138334D01*
X0180209Y0139133D02*
X0203821Y0139133D01*
X0203513Y0139931D02*
X0180209Y0139931D01*
X0180209Y0140730D02*
X0202652Y0140730D01*
X0201890Y0141528D02*
X0180209Y0141528D01*
X0180209Y0142327D02*
X0201560Y0142327D01*
X0201229Y0143125D02*
X0180209Y0143125D01*
X0180209Y0143924D02*
X0201109Y0143924D01*
X0201109Y0144722D02*
X0180209Y0144722D01*
X0180209Y0145521D02*
X0201109Y0145521D01*
X0201439Y0146319D02*
X0180209Y0146319D01*
X0180209Y0147118D02*
X0201770Y0147118D01*
X0202362Y0147916D02*
X0180209Y0147916D01*
X0180209Y0148715D02*
X0203161Y0148715D01*
X0204522Y0149513D02*
X0180209Y0149513D01*
X0180209Y0150312D02*
X0203070Y0150312D01*
X0202272Y0151110D02*
X0180209Y0151110D01*
X0180209Y0151909D02*
X0201733Y0151909D01*
X0201402Y0152707D02*
X0180209Y0152707D01*
X0180209Y0153506D02*
X0201109Y0153506D01*
X0201109Y0154304D02*
X0180209Y0154304D01*
X0180209Y0155103D02*
X0201109Y0155103D01*
X0201266Y0155901D02*
X0180209Y0155901D01*
X0180209Y0156700D02*
X0201597Y0156700D01*
X0201944Y0157498D02*
X0180209Y0157498D01*
X0180209Y0158297D02*
X0202743Y0158297D01*
X0203731Y0159096D02*
X0180209Y0159096D01*
X0180209Y0159894D02*
X0203603Y0159894D01*
X0202690Y0160693D02*
X0180209Y0160693D01*
X0180209Y0161491D02*
X0201906Y0161491D01*
X0201575Y0162290D02*
X0180209Y0162290D01*
X0180209Y0163088D02*
X0201244Y0163088D01*
X0201109Y0163887D02*
X0197656Y0163887D01*
X0198455Y0164685D02*
X0201109Y0164685D01*
X0201109Y0165484D02*
X0199253Y0165484D01*
X0200052Y0166282D02*
X0201424Y0166282D01*
X0201755Y0167081D02*
X0200850Y0167081D01*
X0201649Y0167879D02*
X0202325Y0167879D01*
X0202409Y0168678D02*
X0203123Y0168678D01*
X0202409Y0169468D02*
X0212409Y0169468D01*
X0210510Y0171073D02*
X0218709Y0171073D01*
X0218709Y0170275D02*
X0209711Y0170275D01*
X0209412Y0169975D02*
X0210902Y0171466D01*
X0211709Y0173414D01*
X0211709Y0175522D01*
X0210903Y0177468D01*
X0212238Y0177468D01*
X0213409Y0178640D01*
X0216409Y0181640D01*
X0216409Y0186640D01*
X0218238Y0188468D01*
X0256581Y0188468D01*
X0258409Y0186640D01*
X0258409Y0184059D01*
X0257449Y0185020D01*
X0256125Y0185568D01*
X0254693Y0185568D01*
X0253370Y0185020D01*
X0252357Y0184007D01*
X0252341Y0183968D01*
X0243581Y0183968D01*
X0242409Y0182797D01*
X0239409Y0179797D01*
X0239409Y0174297D01*
X0238081Y0172968D01*
X0229872Y0172968D01*
X0229231Y0173610D01*
X0229430Y0173809D01*
X0229614Y0174128D01*
X0229709Y0174484D01*
X0229709Y0175718D01*
X0224559Y0175718D01*
X0224559Y0176218D01*
X0224059Y0176218D01*
X0224059Y0175718D01*
X0218909Y0175718D01*
X0218909Y0174484D01*
X0219005Y0174128D01*
X0219189Y0173809D01*
X0219388Y0173610D01*
X0218709Y0172931D01*
X0218709Y0169005D01*
X0219247Y0168468D01*
X0218747Y0167968D01*
X0216081Y0167968D01*
X0213581Y0165468D01*
X0212409Y0164297D01*
X0212409Y0152536D01*
X0212370Y0152520D01*
X0211357Y0151507D01*
X0210809Y0150184D01*
X0210809Y0148752D01*
X0211357Y0147429D01*
X0212370Y0146416D01*
X0213693Y0145868D01*
X0215125Y0145868D01*
X0216449Y0146416D01*
X0217461Y0147429D01*
X0218009Y0148752D01*
X0218009Y0150184D01*
X0217461Y0151507D01*
X0216449Y0152520D01*
X0216409Y0152536D01*
X0216409Y0162640D01*
X0217738Y0163968D01*
X0218747Y0163968D01*
X0219247Y0163468D01*
X0218709Y0162931D01*
X0218709Y0159005D01*
X0219409Y0158305D01*
X0219409Y0133297D01*
X0217165Y0131052D01*
X0217125Y0131068D01*
X0215693Y0131068D01*
X0214370Y0130520D01*
X0213357Y0129507D01*
X0212809Y0128184D01*
X0212809Y0126752D01*
X0213357Y0125429D01*
X0214370Y0124416D01*
X0215693Y0123868D01*
X0217125Y0123868D01*
X0217165Y0123884D01*
X0220148Y0120901D01*
X0220148Y0115262D01*
X0221085Y0114325D01*
X0222898Y0114325D01*
X0222898Y0109611D01*
X0221085Y0109611D01*
X0220148Y0108674D01*
X0220148Y0102547D01*
X0214069Y0096468D01*
X0211318Y0096468D01*
X0210902Y0097470D01*
X0209412Y0098961D01*
X0208188Y0099468D01*
X0209412Y0099975D01*
X0210902Y0101466D01*
X0211709Y0103414D01*
X0211709Y0105522D01*
X0210902Y0107470D01*
X0209412Y0108961D01*
X0208188Y0109468D01*
X0209412Y0109975D01*
X0210902Y0111466D01*
X0211709Y0113414D01*
X0211709Y0115522D01*
X0210902Y0117470D01*
X0209412Y0118961D01*
X0208188Y0119468D01*
X0209412Y0119975D01*
X0210902Y0121466D01*
X0211709Y0123414D01*
X0211709Y0125522D01*
X0210902Y0127470D01*
X0209412Y0128961D01*
X0208188Y0129468D01*
X0209412Y0129975D01*
X0210902Y0131466D01*
X0211709Y0133414D01*
X0211709Y0135522D01*
X0210902Y0137470D01*
X0209412Y0138961D01*
X0208188Y0139468D01*
X0209412Y0139975D01*
X0210902Y0141466D01*
X0211709Y0143414D01*
X0211709Y0145522D01*
X0210902Y0147470D01*
X0209412Y0148961D01*
X0208188Y0149468D01*
X0209412Y0149975D01*
X0210902Y0151466D01*
X0211709Y0153414D01*
X0211709Y0155522D01*
X0210902Y0157470D01*
X0209412Y0158961D01*
X0208188Y0159468D01*
X0209412Y0159975D01*
X0210902Y0161466D01*
X0211709Y0163414D01*
X0211709Y0165522D01*
X0210902Y0167470D01*
X0209412Y0168961D01*
X0208188Y0169468D01*
X0209412Y0169975D01*
X0208207Y0169476D02*
X0218709Y0169476D01*
X0219037Y0168678D02*
X0209695Y0168678D01*
X0210494Y0167879D02*
X0215992Y0167879D01*
X0215193Y0167081D02*
X0211064Y0167081D01*
X0211395Y0166282D02*
X0214395Y0166282D01*
X0213596Y0165484D02*
X0211709Y0165484D01*
X0211709Y0164685D02*
X0212798Y0164685D01*
X0212409Y0163887D02*
X0211709Y0163887D01*
X0211574Y0163088D02*
X0212409Y0163088D01*
X0212409Y0162290D02*
X0211244Y0162290D01*
X0210913Y0161491D02*
X0212409Y0161491D01*
X0212409Y0160693D02*
X0210129Y0160693D01*
X0209216Y0159894D02*
X0212409Y0159894D01*
X0212409Y0159096D02*
X0209088Y0159096D01*
X0210076Y0158297D02*
X0212409Y0158297D01*
X0212409Y0157498D02*
X0210874Y0157498D01*
X0211222Y0156700D02*
X0212409Y0156700D01*
X0212409Y0155901D02*
X0211552Y0155901D01*
X0211709Y0155103D02*
X0212409Y0155103D01*
X0212409Y0154304D02*
X0211709Y0154304D01*
X0211709Y0153506D02*
X0212409Y0153506D01*
X0212409Y0152707D02*
X0211417Y0152707D01*
X0211086Y0151909D02*
X0211759Y0151909D01*
X0211193Y0151110D02*
X0210547Y0151110D01*
X0210862Y0150312D02*
X0209748Y0150312D01*
X0210409Y0149468D02*
X0200409Y0149468D01*
X0208297Y0149513D02*
X0210809Y0149513D01*
X0210825Y0148715D02*
X0209658Y0148715D01*
X0210457Y0147916D02*
X0211156Y0147916D01*
X0211049Y0147118D02*
X0211669Y0147118D01*
X0211379Y0146319D02*
X0212604Y0146319D01*
X0211709Y0145521D02*
X0219409Y0145521D01*
X0219409Y0146319D02*
X0216215Y0146319D01*
X0217150Y0147118D02*
X0219409Y0147118D01*
X0219409Y0147916D02*
X0217663Y0147916D01*
X0217994Y0148715D02*
X0219409Y0148715D01*
X0219409Y0149513D02*
X0218009Y0149513D01*
X0217957Y0150312D02*
X0219409Y0150312D01*
X0219409Y0151110D02*
X0217626Y0151110D01*
X0217060Y0151909D02*
X0219409Y0151909D01*
X0219409Y0152707D02*
X0216409Y0152707D01*
X0216409Y0153506D02*
X0219409Y0153506D01*
X0219409Y0154304D02*
X0216409Y0154304D01*
X0216409Y0155103D02*
X0219409Y0155103D01*
X0219409Y0155901D02*
X0216409Y0155901D01*
X0216409Y0156700D02*
X0219409Y0156700D01*
X0219409Y0157498D02*
X0216409Y0157498D01*
X0216409Y0158297D02*
X0219409Y0158297D01*
X0218709Y0159096D02*
X0216409Y0159096D01*
X0216409Y0159894D02*
X0218709Y0159894D01*
X0218709Y0160693D02*
X0216409Y0160693D01*
X0216409Y0161491D02*
X0218709Y0161491D01*
X0218709Y0162290D02*
X0216409Y0162290D01*
X0216858Y0163088D02*
X0218867Y0163088D01*
X0218828Y0163887D02*
X0217656Y0163887D01*
X0216909Y0165968D02*
X0214409Y0163468D01*
X0214409Y0149468D01*
X0211709Y0144722D02*
X0219409Y0144722D01*
X0219409Y0143924D02*
X0211709Y0143924D01*
X0211590Y0143125D02*
X0219409Y0143125D01*
X0219409Y0142327D02*
X0211259Y0142327D01*
X0210928Y0141528D02*
X0219409Y0141528D01*
X0219409Y0140730D02*
X0210166Y0140730D01*
X0209306Y0139931D02*
X0219409Y0139931D01*
X0219409Y0139133D02*
X0208998Y0139133D01*
X0210039Y0138334D02*
X0219409Y0138334D01*
X0219409Y0137536D02*
X0210837Y0137536D01*
X0211206Y0136737D02*
X0219409Y0136737D01*
X0219409Y0135939D02*
X0211537Y0135939D01*
X0211709Y0135140D02*
X0219409Y0135140D01*
X0219409Y0134342D02*
X0211709Y0134342D01*
X0211709Y0133543D02*
X0219409Y0133543D01*
X0218857Y0132745D02*
X0211432Y0132745D01*
X0211101Y0131946D02*
X0218059Y0131946D01*
X0217260Y0131148D02*
X0210584Y0131148D01*
X0209786Y0130349D02*
X0214199Y0130349D01*
X0213401Y0129551D02*
X0208387Y0129551D01*
X0209621Y0128752D02*
X0213045Y0128752D01*
X0212809Y0127954D02*
X0210419Y0127954D01*
X0211033Y0127155D02*
X0212809Y0127155D01*
X0212973Y0126357D02*
X0211364Y0126357D01*
X0211695Y0125558D02*
X0213304Y0125558D01*
X0214027Y0124760D02*
X0211709Y0124760D01*
X0211709Y0123961D02*
X0215469Y0123961D01*
X0217887Y0123162D02*
X0211605Y0123162D01*
X0211274Y0122364D02*
X0218685Y0122364D01*
X0219484Y0121565D02*
X0210944Y0121565D01*
X0210203Y0120767D02*
X0220148Y0120767D01*
X0220148Y0119968D02*
X0209396Y0119968D01*
X0208908Y0119170D02*
X0220148Y0119170D01*
X0220148Y0118371D02*
X0210001Y0118371D01*
X0210800Y0117573D02*
X0220148Y0117573D01*
X0220148Y0116774D02*
X0211191Y0116774D01*
X0211522Y0115976D02*
X0220148Y0115976D01*
X0220233Y0115177D02*
X0211709Y0115177D01*
X0211709Y0114379D02*
X0221031Y0114379D01*
X0222898Y0113580D02*
X0211709Y0113580D01*
X0211448Y0112782D02*
X0222898Y0112782D01*
X0222898Y0111983D02*
X0211117Y0111983D01*
X0210621Y0111185D02*
X0222898Y0111185D01*
X0222898Y0110386D02*
X0209823Y0110386D01*
X0208477Y0109588D02*
X0221062Y0109588D01*
X0220263Y0108789D02*
X0209584Y0108789D01*
X0210382Y0107991D02*
X0220148Y0107991D01*
X0220148Y0107192D02*
X0211018Y0107192D01*
X0211348Y0106394D02*
X0220148Y0106394D01*
X0220148Y0105595D02*
X0211679Y0105595D01*
X0211709Y0104797D02*
X0220148Y0104797D01*
X0220148Y0103998D02*
X0211709Y0103998D01*
X0211621Y0103200D02*
X0220148Y0103200D01*
X0220002Y0102401D02*
X0211290Y0102401D01*
X0210959Y0101603D02*
X0219204Y0101603D01*
X0218405Y0100804D02*
X0210241Y0100804D01*
X0209442Y0100006D02*
X0217607Y0100006D01*
X0216808Y0099207D02*
X0208818Y0099207D01*
X0209964Y0098409D02*
X0216010Y0098409D01*
X0215211Y0097610D02*
X0210763Y0097610D01*
X0211175Y0096812D02*
X0214413Y0096812D01*
X0214898Y0094468D02*
X0224898Y0104468D01*
X0224898Y0119468D01*
X0224409Y0119468D01*
X0216409Y0127468D01*
X0221409Y0132468D01*
X0221409Y0158068D01*
X0224309Y0160968D01*
X0229409Y0155868D01*
X0229409Y0150980D01*
X0224266Y0151110D02*
X0223409Y0151110D01*
X0223409Y0150312D02*
X0224266Y0150312D01*
X0224266Y0149513D02*
X0223409Y0149513D01*
X0223409Y0148715D02*
X0224266Y0148715D01*
X0224266Y0147916D02*
X0223409Y0147916D01*
X0223409Y0147118D02*
X0224316Y0147118D01*
X0225114Y0146319D02*
X0223409Y0146319D01*
X0223409Y0145521D02*
X0235319Y0145521D01*
X0234989Y0146319D02*
X0233704Y0146319D01*
X0234503Y0147118D02*
X0234809Y0147118D01*
X0234809Y0147916D02*
X0234553Y0147916D01*
X0234553Y0148715D02*
X0235029Y0148715D01*
X0235363Y0149513D02*
X0234553Y0149513D01*
X0234553Y0150312D02*
X0236162Y0150312D01*
X0236409Y0151110D02*
X0234553Y0151110D01*
X0234553Y0151909D02*
X0236409Y0151909D01*
X0236409Y0152707D02*
X0234553Y0152707D01*
X0234553Y0153506D02*
X0236409Y0153506D01*
X0236409Y0154304D02*
X0234553Y0154304D01*
X0234242Y0155103D02*
X0236409Y0155103D01*
X0236409Y0155901D02*
X0231409Y0155901D01*
X0231406Y0156700D02*
X0236409Y0156700D01*
X0236409Y0157498D02*
X0230607Y0157498D01*
X0229809Y0158297D02*
X0236409Y0158297D01*
X0236409Y0159096D02*
X0229909Y0159096D01*
X0229909Y0159894D02*
X0236409Y0159894D01*
X0236409Y0160693D02*
X0229909Y0160693D01*
X0229909Y0161491D02*
X0236409Y0161491D01*
X0236409Y0162290D02*
X0229909Y0162290D01*
X0229752Y0163088D02*
X0236409Y0163088D01*
X0236409Y0163887D02*
X0229790Y0163887D01*
X0229909Y0164685D02*
X0236409Y0164685D01*
X0236409Y0165484D02*
X0229909Y0165484D01*
X0229909Y0166282D02*
X0236409Y0166282D01*
X0237193Y0167081D02*
X0229909Y0167081D01*
X0229909Y0167879D02*
X0237992Y0167879D01*
X0238790Y0168678D02*
X0229582Y0168678D01*
X0224309Y0170968D02*
X0238909Y0170968D01*
X0241409Y0173468D01*
X0241409Y0178968D01*
X0244409Y0181968D01*
X0255409Y0181968D01*
X0252998Y0184648D02*
X0216409Y0184648D01*
X0216409Y0185446D02*
X0254399Y0185446D01*
X0256420Y0185446D02*
X0258409Y0185446D01*
X0258409Y0184648D02*
X0257821Y0184648D01*
X0258409Y0186245D02*
X0216409Y0186245D01*
X0216813Y0187043D02*
X0258006Y0187043D01*
X0257207Y0187842D02*
X0217612Y0187842D01*
X0217409Y0190468D02*
X0214409Y0187468D01*
X0214409Y0182468D01*
X0211409Y0179468D01*
X0202409Y0179468D01*
X0200409Y0177468D01*
X0200409Y0169468D01*
X0196409Y0165468D01*
X0189409Y0165468D01*
X0186409Y0168468D01*
X0186409Y0175468D01*
X0192409Y0181468D01*
X0187109Y0181454D02*
X0180209Y0181454D01*
X0180209Y0182252D02*
X0187109Y0182252D01*
X0187328Y0183051D02*
X0180209Y0183051D01*
X0180209Y0183849D02*
X0187659Y0183849D01*
X0187109Y0180655D02*
X0180209Y0180655D01*
X0180209Y0179857D02*
X0187340Y0179857D01*
X0187171Y0179058D02*
X0180209Y0179058D01*
X0180209Y0178260D02*
X0186373Y0178260D01*
X0185574Y0177461D02*
X0180209Y0177461D01*
X0180209Y0176663D02*
X0184776Y0176663D01*
X0184409Y0175864D02*
X0180209Y0175864D01*
X0180209Y0175066D02*
X0184409Y0175066D01*
X0184409Y0174267D02*
X0180209Y0174267D01*
X0180209Y0173469D02*
X0184409Y0173469D01*
X0184409Y0172670D02*
X0180209Y0172670D01*
X0180209Y0171872D02*
X0184409Y0171872D01*
X0184409Y0171073D02*
X0180209Y0171073D01*
X0180209Y0170275D02*
X0184409Y0170275D01*
X0184409Y0169476D02*
X0180209Y0169476D01*
X0180209Y0168678D02*
X0184409Y0168678D01*
X0184409Y0167879D02*
X0180209Y0167879D01*
X0180209Y0167081D02*
X0184969Y0167081D01*
X0185767Y0166282D02*
X0180209Y0166282D01*
X0180209Y0165484D02*
X0186566Y0165484D01*
X0187364Y0164685D02*
X0180209Y0164685D01*
X0180209Y0163887D02*
X0188163Y0163887D01*
X0192409Y0171468D02*
X0198409Y0177468D01*
X0198409Y0186468D01*
X0201409Y0189468D01*
X0213409Y0189468D01*
X0216409Y0192468D01*
X0254409Y0192468D01*
X0266409Y0204468D01*
X0256409Y0204468D02*
X0246409Y0194468D01*
X0257409Y0190468D02*
X0217409Y0190468D01*
X0216409Y0183849D02*
X0243462Y0183849D01*
X0242664Y0183051D02*
X0216409Y0183051D01*
X0216409Y0182252D02*
X0241865Y0182252D01*
X0241067Y0181454D02*
X0216223Y0181454D01*
X0215425Y0180655D02*
X0240268Y0180655D01*
X0239470Y0179857D02*
X0214626Y0179857D01*
X0213828Y0179058D02*
X0239409Y0179058D01*
X0239409Y0178260D02*
X0229298Y0178260D01*
X0229169Y0178388D02*
X0228850Y0178573D01*
X0228494Y0178668D01*
X0224559Y0178668D01*
X0224559Y0176218D01*
X0229709Y0176218D01*
X0229709Y0177453D01*
X0229614Y0177809D01*
X0229430Y0178128D01*
X0229169Y0178388D01*
X0229707Y0177461D02*
X0239409Y0177461D01*
X0239409Y0176663D02*
X0229709Y0176663D01*
X0229709Y0175066D02*
X0239409Y0175066D01*
X0239409Y0175864D02*
X0224559Y0175864D01*
X0224059Y0175864D02*
X0211568Y0175864D01*
X0211709Y0175066D02*
X0218909Y0175066D01*
X0218967Y0174267D02*
X0211709Y0174267D01*
X0211709Y0173469D02*
X0219247Y0173469D01*
X0218709Y0172670D02*
X0211401Y0172670D01*
X0211071Y0171872D02*
X0218709Y0171872D01*
X0218909Y0176218D02*
X0224059Y0176218D01*
X0224059Y0178668D01*
X0220125Y0178668D01*
X0219769Y0178573D01*
X0219450Y0178388D01*
X0219189Y0178128D01*
X0219005Y0177809D01*
X0218909Y0177453D01*
X0218909Y0176218D01*
X0218909Y0176663D02*
X0211237Y0176663D01*
X0210906Y0177461D02*
X0218912Y0177461D01*
X0219321Y0178260D02*
X0213029Y0178260D01*
X0204612Y0169476D02*
X0202409Y0169476D01*
X0202409Y0170275D02*
X0203108Y0170275D01*
X0201409Y0159468D02*
X0211409Y0159468D01*
X0216909Y0165968D02*
X0224309Y0165968D01*
X0223668Y0157498D02*
X0224951Y0157498D01*
X0225749Y0156700D02*
X0223409Y0156700D01*
X0223409Y0155901D02*
X0226548Y0155901D01*
X0224577Y0155103D02*
X0223409Y0155103D01*
X0223409Y0154304D02*
X0224266Y0154304D01*
X0224266Y0153506D02*
X0223409Y0153506D01*
X0223409Y0152707D02*
X0224266Y0152707D01*
X0224266Y0151909D02*
X0223409Y0151909D01*
X0223409Y0144722D02*
X0236064Y0144722D01*
X0237559Y0143924D02*
X0234097Y0143924D01*
X0234073Y0143966D02*
X0233812Y0144226D01*
X0233493Y0144411D01*
X0233137Y0144506D01*
X0229809Y0144506D01*
X0229809Y0140356D01*
X0229009Y0140356D01*
X0229009Y0139556D01*
X0229809Y0139556D01*
X0229809Y0135407D01*
X0233137Y0135407D01*
X0233493Y0135502D01*
X0233812Y0135687D01*
X0234073Y0135947D01*
X0234257Y0136266D01*
X0234353Y0136622D01*
X0234353Y0139556D01*
X0229809Y0139556D01*
X0229809Y0140356D01*
X0234353Y0140356D01*
X0234353Y0143290D01*
X0234257Y0143646D01*
X0234073Y0143966D01*
X0234353Y0143125D02*
X0261229Y0143125D01*
X0261109Y0143924D02*
X0239260Y0143924D01*
X0240755Y0144722D02*
X0261109Y0144722D01*
X0261109Y0145521D02*
X0241499Y0145521D01*
X0241830Y0146319D02*
X0261439Y0146319D01*
X0261770Y0147118D02*
X0242009Y0147118D01*
X0242009Y0147916D02*
X0262362Y0147916D01*
X0263161Y0148715D02*
X0241790Y0148715D01*
X0241455Y0149513D02*
X0264522Y0149513D01*
X0263070Y0150312D02*
X0240657Y0150312D01*
X0240409Y0151110D02*
X0262272Y0151110D01*
X0261733Y0151909D02*
X0240409Y0151909D01*
X0240409Y0152707D02*
X0260342Y0152707D01*
X0259543Y0153506D02*
X0240409Y0153506D01*
X0240409Y0154304D02*
X0258745Y0154304D01*
X0257946Y0155103D02*
X0240409Y0155103D01*
X0240409Y0155901D02*
X0257148Y0155901D01*
X0256349Y0156700D02*
X0240409Y0156700D01*
X0240409Y0157498D02*
X0255551Y0157498D01*
X0254752Y0158297D02*
X0253401Y0158297D01*
X0254909Y0160968D02*
X0248509Y0160968D01*
X0243618Y0158297D02*
X0240409Y0158297D01*
X0240409Y0159096D02*
X0242909Y0159096D01*
X0242909Y0159894D02*
X0240409Y0159894D01*
X0240409Y0160693D02*
X0242909Y0160693D01*
X0242909Y0161491D02*
X0240409Y0161491D01*
X0240409Y0162290D02*
X0242909Y0162290D01*
X0243067Y0163088D02*
X0240409Y0163088D01*
X0240409Y0163887D02*
X0243028Y0163887D01*
X0242909Y0164685D02*
X0240455Y0164685D01*
X0241253Y0165484D02*
X0242909Y0165484D01*
X0242909Y0166282D02*
X0242052Y0166282D01*
X0241409Y0168468D02*
X0238409Y0165468D01*
X0238409Y0147468D01*
X0234353Y0142327D02*
X0261560Y0142327D01*
X0261890Y0141528D02*
X0234353Y0141528D01*
X0234353Y0140730D02*
X0262652Y0140730D01*
X0263513Y0139931D02*
X0229809Y0139931D01*
X0229809Y0139133D02*
X0229009Y0139133D01*
X0229009Y0139556D02*
X0229009Y0135407D01*
X0225682Y0135407D01*
X0225326Y0135502D01*
X0225006Y0135687D01*
X0224746Y0135947D01*
X0224561Y0136266D01*
X0224466Y0136622D01*
X0224466Y0139556D01*
X0229009Y0139556D01*
X0229009Y0139931D02*
X0223409Y0139931D01*
X0223409Y0139133D02*
X0224466Y0139133D01*
X0224466Y0138334D02*
X0223409Y0138334D01*
X0223409Y0137536D02*
X0224466Y0137536D01*
X0224466Y0136737D02*
X0223409Y0136737D01*
X0223409Y0135939D02*
X0224754Y0135939D01*
X0223409Y0135140D02*
X0261109Y0135140D01*
X0261109Y0134342D02*
X0223409Y0134342D01*
X0223409Y0133543D02*
X0261109Y0133543D01*
X0261387Y0132745D02*
X0223409Y0132745D01*
X0223409Y0131946D02*
X0261717Y0131946D01*
X0262235Y0131148D02*
X0222917Y0131148D01*
X0222119Y0130349D02*
X0263033Y0130349D01*
X0263198Y0128752D02*
X0220522Y0128752D01*
X0220009Y0127954D02*
X0262399Y0127954D01*
X0261786Y0127155D02*
X0220009Y0127155D01*
X0220349Y0126357D02*
X0261455Y0126357D01*
X0261124Y0125558D02*
X0221148Y0125558D01*
X0221946Y0124760D02*
X0261109Y0124760D01*
X0261109Y0123961D02*
X0240384Y0123961D01*
X0240671Y0123674D02*
X0239734Y0124611D01*
X0232109Y0124611D01*
X0231172Y0123674D01*
X0231172Y0115262D01*
X0232109Y0114325D01*
X0239734Y0114325D01*
X0240671Y0115262D01*
X0240671Y0117378D01*
X0242409Y0115640D01*
X0242409Y0102536D01*
X0242370Y0102520D01*
X0241357Y0101507D01*
X0240809Y0100184D01*
X0240809Y0098752D01*
X0241357Y0097429D01*
X0242370Y0096416D01*
X0243693Y0095868D01*
X0245125Y0095868D01*
X0246449Y0096416D01*
X0247461Y0097429D01*
X0248009Y0098752D01*
X0248009Y0100184D01*
X0247461Y0101507D01*
X0246449Y0102520D01*
X0246409Y0102536D01*
X0246409Y0117297D01*
X0245238Y0118468D01*
X0242238Y0121468D01*
X0240671Y0121468D01*
X0240671Y0123674D01*
X0240671Y0123162D02*
X0261214Y0123162D01*
X0261544Y0122364D02*
X0240671Y0122364D01*
X0240671Y0121565D02*
X0261875Y0121565D01*
X0262615Y0120767D02*
X0242939Y0120767D01*
X0243738Y0119968D02*
X0263423Y0119968D01*
X0263911Y0119170D02*
X0244536Y0119170D01*
X0245335Y0118371D02*
X0262817Y0118371D01*
X0262019Y0117573D02*
X0246133Y0117573D01*
X0246409Y0116774D02*
X0261628Y0116774D01*
X0261297Y0115976D02*
X0246409Y0115976D01*
X0246409Y0115177D02*
X0261109Y0115177D01*
X0261109Y0114379D02*
X0246409Y0114379D01*
X0246409Y0113580D02*
X0261109Y0113580D01*
X0261371Y0112782D02*
X0246409Y0112782D01*
X0246409Y0111983D02*
X0261702Y0111983D01*
X0262197Y0111185D02*
X0246409Y0111185D01*
X0246409Y0110386D02*
X0262996Y0110386D01*
X0264342Y0109588D02*
X0246409Y0109588D01*
X0246409Y0108789D02*
X0263235Y0108789D01*
X0262437Y0107991D02*
X0246409Y0107991D01*
X0246409Y0107192D02*
X0261801Y0107192D01*
X0261470Y0106394D02*
X0246409Y0106394D01*
X0246409Y0105595D02*
X0261140Y0105595D01*
X0261109Y0104797D02*
X0246409Y0104797D01*
X0246409Y0103998D02*
X0261109Y0103998D01*
X0261198Y0103200D02*
X0246409Y0103200D01*
X0246568Y0102401D02*
X0261529Y0102401D01*
X0261860Y0101603D02*
X0247366Y0101603D01*
X0247753Y0100804D02*
X0262578Y0100804D01*
X0263377Y0100006D02*
X0248009Y0100006D01*
X0248009Y0099207D02*
X0264001Y0099207D01*
X0262855Y0098409D02*
X0247867Y0098409D01*
X0247536Y0097610D02*
X0262056Y0097610D01*
X0261643Y0096812D02*
X0246844Y0096812D01*
X0245475Y0096013D02*
X0261313Y0096013D01*
X0261109Y0095215D02*
X0238409Y0095215D01*
X0238409Y0094536D02*
X0238409Y0099325D01*
X0239734Y0099325D01*
X0240671Y0100262D01*
X0240671Y0108674D01*
X0239734Y0109611D01*
X0232109Y0109611D01*
X0231172Y0108674D01*
X0231172Y0100262D01*
X0232109Y0099325D01*
X0234409Y0099325D01*
X0234409Y0094536D01*
X0234370Y0094520D01*
X0233357Y0093507D01*
X0232809Y0092184D01*
X0232809Y0090752D01*
X0233357Y0089429D01*
X0234370Y0088416D01*
X0235693Y0087868D01*
X0237125Y0087868D01*
X0238449Y0088416D01*
X0239461Y0089429D01*
X0240009Y0090752D01*
X0240009Y0092184D01*
X0239461Y0093507D01*
X0238449Y0094520D01*
X0238409Y0094536D01*
X0238553Y0094416D02*
X0261109Y0094416D01*
X0261109Y0093618D02*
X0239351Y0093618D01*
X0239746Y0092819D02*
X0261356Y0092819D01*
X0261687Y0092021D02*
X0240009Y0092021D01*
X0240009Y0091222D02*
X0262160Y0091222D01*
X0262959Y0090424D02*
X0239873Y0090424D01*
X0239543Y0089625D02*
X0264252Y0089625D01*
X0263272Y0088827D02*
X0238859Y0088827D01*
X0237511Y0088028D02*
X0262474Y0088028D01*
X0261816Y0087229D02*
X0210707Y0087229D01*
X0211133Y0086431D02*
X0261486Y0086431D01*
X0261155Y0085632D02*
X0211389Y0085632D01*
X0210062Y0088028D02*
X0235307Y0088028D01*
X0233960Y0088827D02*
X0209087Y0088827D01*
X0208566Y0089625D02*
X0233276Y0089625D01*
X0232945Y0090424D02*
X0209860Y0090424D01*
X0210659Y0091222D02*
X0232809Y0091222D01*
X0232809Y0092021D02*
X0211132Y0092021D01*
X0214898Y0094468D02*
X0206409Y0094468D01*
X0202855Y0098409D02*
X0180429Y0098409D01*
X0181227Y0097610D02*
X0202056Y0097610D01*
X0202757Y0088028D02*
X0125509Y0088028D01*
X0125509Y0087229D02*
X0202112Y0087229D01*
X0201686Y0086431D02*
X0125509Y0086431D01*
X0125509Y0085632D02*
X0201430Y0085632D01*
X0201720Y0082438D02*
X0166445Y0082438D01*
X0167275Y0081640D02*
X0202160Y0081640D01*
X0202824Y0080841D02*
X0167852Y0080841D01*
X0168270Y0080043D02*
X0203861Y0080043D01*
X0204091Y0079244D02*
X0168559Y0079244D01*
X0168736Y0078446D02*
X0202892Y0078446D01*
X0216077Y0092819D02*
X0233072Y0092819D01*
X0233468Y0093618D02*
X0216875Y0093618D01*
X0217674Y0094416D02*
X0234266Y0094416D01*
X0234409Y0095215D02*
X0218472Y0095215D01*
X0219271Y0096013D02*
X0234409Y0096013D01*
X0234409Y0096812D02*
X0220069Y0096812D01*
X0220868Y0097610D02*
X0234409Y0097610D01*
X0234409Y0098409D02*
X0221666Y0098409D01*
X0222465Y0099207D02*
X0234409Y0099207D01*
X0231428Y0100006D02*
X0229391Y0100006D01*
X0229647Y0100804D02*
X0231172Y0100804D01*
X0231172Y0101603D02*
X0229647Y0101603D01*
X0229647Y0102401D02*
X0231172Y0102401D01*
X0231172Y0103200D02*
X0229647Y0103200D01*
X0229647Y0103998D02*
X0231172Y0103998D01*
X0231172Y0104797D02*
X0229647Y0104797D01*
X0229647Y0105595D02*
X0231172Y0105595D01*
X0231172Y0106394D02*
X0229647Y0106394D01*
X0229647Y0107192D02*
X0231172Y0107192D01*
X0231172Y0107991D02*
X0229647Y0107991D01*
X0229532Y0108789D02*
X0231287Y0108789D01*
X0232085Y0109588D02*
X0228734Y0109588D01*
X0226898Y0110386D02*
X0242409Y0110386D01*
X0242409Y0109588D02*
X0239757Y0109588D01*
X0240556Y0108789D02*
X0242409Y0108789D01*
X0242409Y0107991D02*
X0240671Y0107991D01*
X0240671Y0107192D02*
X0242409Y0107192D01*
X0242409Y0106394D02*
X0240671Y0106394D01*
X0240671Y0105595D02*
X0242409Y0105595D01*
X0242409Y0104797D02*
X0240671Y0104797D01*
X0240671Y0103998D02*
X0242409Y0103998D01*
X0242409Y0103200D02*
X0240671Y0103200D01*
X0240671Y0102401D02*
X0242251Y0102401D01*
X0241453Y0101603D02*
X0240671Y0101603D01*
X0240671Y0100804D02*
X0241066Y0100804D01*
X0240809Y0100006D02*
X0240414Y0100006D01*
X0240809Y0099207D02*
X0238409Y0099207D01*
X0238409Y0098409D02*
X0240952Y0098409D01*
X0241282Y0097610D02*
X0238409Y0097610D01*
X0238409Y0096812D02*
X0241975Y0096812D01*
X0243343Y0096013D02*
X0238409Y0096013D01*
X0236409Y0091468D02*
X0236409Y0103980D01*
X0235921Y0104468D01*
X0242409Y0111185D02*
X0226898Y0111185D01*
X0226898Y0111983D02*
X0242409Y0111983D01*
X0242409Y0112782D02*
X0226898Y0112782D01*
X0226898Y0113580D02*
X0242409Y0113580D01*
X0242409Y0114379D02*
X0239788Y0114379D01*
X0240586Y0115177D02*
X0242409Y0115177D01*
X0242073Y0115976D02*
X0240671Y0115976D01*
X0240671Y0116774D02*
X0241275Y0116774D01*
X0241409Y0119468D02*
X0244409Y0116468D01*
X0244409Y0099468D01*
X0232055Y0114379D02*
X0228764Y0114379D01*
X0229562Y0115177D02*
X0231256Y0115177D01*
X0231172Y0115976D02*
X0229647Y0115976D01*
X0229647Y0116774D02*
X0231172Y0116774D01*
X0231172Y0117573D02*
X0229647Y0117573D01*
X0229647Y0118371D02*
X0231172Y0118371D01*
X0231172Y0119170D02*
X0229647Y0119170D01*
X0229647Y0119968D02*
X0231172Y0119968D01*
X0231172Y0120767D02*
X0229647Y0120767D01*
X0229647Y0121565D02*
X0231172Y0121565D01*
X0231172Y0122364D02*
X0229647Y0122364D01*
X0229647Y0123162D02*
X0231172Y0123162D01*
X0231458Y0123961D02*
X0229360Y0123961D01*
X0224898Y0120980D02*
X0224898Y0119468D01*
X0221320Y0129551D02*
X0264432Y0129551D01*
X0261282Y0135939D02*
X0234064Y0135939D01*
X0234353Y0136737D02*
X0261613Y0136737D01*
X0261982Y0137536D02*
X0234353Y0137536D01*
X0234353Y0138334D02*
X0262780Y0138334D01*
X0263821Y0139133D02*
X0234353Y0139133D01*
X0229809Y0138334D02*
X0229009Y0138334D01*
X0229009Y0137536D02*
X0229809Y0137536D01*
X0229809Y0136737D02*
X0229009Y0136737D01*
X0229009Y0135939D02*
X0229809Y0135939D01*
X0229009Y0140356D02*
X0224466Y0140356D01*
X0224466Y0143290D01*
X0224561Y0143646D01*
X0224746Y0143966D01*
X0225006Y0144226D01*
X0225326Y0144411D01*
X0225682Y0144506D01*
X0229009Y0144506D01*
X0229009Y0140356D01*
X0229009Y0140730D02*
X0229809Y0140730D01*
X0229809Y0141528D02*
X0229009Y0141528D01*
X0229009Y0142327D02*
X0229809Y0142327D01*
X0229809Y0143125D02*
X0229009Y0143125D01*
X0229009Y0143924D02*
X0229809Y0143924D01*
X0224722Y0143924D02*
X0223409Y0143924D01*
X0223409Y0143125D02*
X0224466Y0143125D01*
X0224466Y0142327D02*
X0223409Y0142327D01*
X0223409Y0141528D02*
X0224466Y0141528D01*
X0224466Y0140730D02*
X0223409Y0140730D01*
X0235921Y0119468D02*
X0241409Y0119468D01*
X0261409Y0154468D02*
X0254909Y0160968D01*
X0261409Y0164468D02*
X0258409Y0167468D01*
X0258409Y0173468D01*
X0255909Y0175968D01*
X0248509Y0175968D01*
X0248509Y0170968D02*
X0248509Y0170568D01*
X0246409Y0168468D01*
X0248509Y0166368D01*
X0248509Y0165968D01*
X0246409Y0168468D02*
X0241409Y0168468D01*
X0238581Y0173469D02*
X0229372Y0173469D01*
X0229651Y0174267D02*
X0239380Y0174267D01*
X0224559Y0176663D02*
X0224059Y0176663D01*
X0224059Y0177461D02*
X0224559Y0177461D01*
X0224559Y0178260D02*
X0224059Y0178260D01*
X0223783Y0199820D02*
X0219036Y0199820D01*
X0220055Y0200618D02*
X0222764Y0200618D01*
X0221966Y0201417D02*
X0220853Y0201417D01*
X0221213Y0202215D02*
X0221606Y0202215D01*
X0196409Y0185446D02*
X0195927Y0185446D01*
X0188958Y0197424D02*
X0187325Y0197424D01*
X0188124Y0198223D02*
X0188160Y0198223D01*
X0162109Y0180655D02*
X0157485Y0180655D01*
X0158009Y0179857D02*
X0162109Y0179857D01*
X0162109Y0179058D02*
X0158009Y0179058D01*
X0158009Y0178260D02*
X0162109Y0178260D01*
X0162109Y0177461D02*
X0158009Y0177461D01*
X0158009Y0176663D02*
X0162109Y0176663D01*
X0162109Y0175864D02*
X0158009Y0175864D01*
X0158009Y0175066D02*
X0162109Y0175066D01*
X0162109Y0174267D02*
X0158009Y0174267D01*
X0158009Y0173469D02*
X0162109Y0173469D01*
X0162109Y0172670D02*
X0158009Y0172670D01*
X0158009Y0171872D02*
X0162109Y0171872D01*
X0162109Y0171073D02*
X0158009Y0171073D01*
X0157379Y0170275D02*
X0162109Y0170275D01*
X0121457Y0141528D02*
X0094009Y0141528D01*
X0094009Y0140730D02*
X0120658Y0140730D01*
X0120168Y0139931D02*
X0094009Y0139931D01*
X0094009Y0139133D02*
X0119837Y0139133D01*
X0119609Y0138334D02*
X0094009Y0138334D01*
X0094009Y0137536D02*
X0119609Y0137536D01*
X0119609Y0136737D02*
X0094009Y0136737D01*
X0094009Y0135939D02*
X0119864Y0135939D01*
X0120195Y0135140D02*
X0094009Y0135140D01*
X0094009Y0134342D02*
X0120723Y0134342D01*
X0121522Y0133543D02*
X0094009Y0133543D01*
X0094009Y0132745D02*
X0123028Y0132745D01*
X0134328Y0099207D02*
X0140001Y0099207D01*
X0138855Y0098409D02*
X0135662Y0098409D01*
X0136431Y0097610D02*
X0138056Y0097610D01*
X0137643Y0096812D02*
X0136939Y0096812D01*
X0137270Y0096013D02*
X0137313Y0096013D01*
X0137236Y0092819D02*
X0137356Y0092819D01*
X0137687Y0092021D02*
X0136886Y0092021D01*
X0136355Y0091222D02*
X0138160Y0091222D01*
X0138959Y0090424D02*
X0135519Y0090424D01*
X0134008Y0089625D02*
X0140252Y0089625D01*
X0139612Y0083237D02*
X0125729Y0083237D01*
X0126773Y0082438D02*
X0138374Y0082438D01*
X0137543Y0081640D02*
X0127571Y0081640D01*
X0128156Y0080841D02*
X0136967Y0080841D01*
X0136549Y0080043D02*
X0128487Y0080043D01*
X0128817Y0079244D02*
X0136260Y0079244D01*
X0136083Y0078446D02*
X0129009Y0078446D01*
X0129009Y0077647D02*
X0142009Y0077647D01*
X0142009Y0078446D02*
X0142809Y0078446D01*
X0142809Y0079244D02*
X0142009Y0079244D01*
X0142009Y0080043D02*
X0142809Y0080043D01*
X0142809Y0080841D02*
X0142009Y0080841D01*
X0142009Y0081640D02*
X0142809Y0081640D01*
X0142809Y0082438D02*
X0142009Y0082438D01*
X0142009Y0083237D02*
X0142809Y0083237D01*
X0145206Y0083237D02*
X0159612Y0083237D01*
X0158374Y0082438D02*
X0146445Y0082438D01*
X0147275Y0081640D02*
X0157543Y0081640D01*
X0156967Y0080841D02*
X0147852Y0080841D01*
X0148270Y0080043D02*
X0156549Y0080043D01*
X0156260Y0079244D02*
X0148559Y0079244D01*
X0148736Y0078446D02*
X0156083Y0078446D01*
X0156036Y0076849D02*
X0148783Y0076849D01*
X0148655Y0076050D02*
X0156164Y0076050D01*
X0156400Y0075252D02*
X0148419Y0075252D01*
X0148059Y0074453D02*
X0156760Y0074453D01*
X0157268Y0073655D02*
X0147550Y0073655D01*
X0146848Y0072856D02*
X0157970Y0072856D01*
X0158980Y0072058D02*
X0145838Y0072058D01*
X0140854Y0071259D02*
X0124666Y0071259D01*
X0126333Y0072058D02*
X0138980Y0072058D01*
X0137970Y0072856D02*
X0127131Y0072856D01*
X0127930Y0073655D02*
X0137268Y0073655D01*
X0136760Y0074453D02*
X0128304Y0074453D01*
X0128635Y0075252D02*
X0136400Y0075252D01*
X0136164Y0076050D02*
X0128966Y0076050D01*
X0129009Y0076849D02*
X0136036Y0076849D01*
X0129300Y0090424D02*
X0125860Y0090424D01*
X0126659Y0091222D02*
X0128464Y0091222D01*
X0127933Y0092021D02*
X0127132Y0092021D01*
X0127463Y0092819D02*
X0127583Y0092819D01*
X0127506Y0096013D02*
X0127549Y0096013D01*
X0127880Y0096812D02*
X0127175Y0096812D01*
X0126763Y0097610D02*
X0128388Y0097610D01*
X0129156Y0098409D02*
X0125964Y0098409D01*
X0257409Y0190468D02*
X0260409Y0187468D01*
X0260409Y0180468D01*
X0266409Y0174468D01*
X0268207Y0169476D02*
X0283723Y0169476D01*
X0266409Y0164468D02*
X0261409Y0164468D01*
X0261409Y0154468D02*
X0266409Y0154468D01*
X0266409Y0184468D02*
X0271409Y0184468D01*
X0273409Y0186468D01*
D19*
X0277409Y0197468D03*
X0255409Y0181968D03*
X0237409Y0182468D03*
X0212409Y0169468D03*
X0214409Y0149468D03*
X0214409Y0139468D03*
X0216409Y0127468D03*
X0214409Y0109468D03*
X0236409Y0091468D03*
X0244409Y0099468D03*
X0215409Y0084468D03*
X0238409Y0147468D03*
X0200409Y0199468D03*
X0174409Y0199468D03*
X0174409Y0213468D03*
X0182409Y0221468D03*
D20*
X0122409Y0094468D02*
X0122409Y0077468D01*
D21*
X0142409Y0094468D02*
X0174409Y0094468D01*
X0177409Y0097468D01*
X0180409Y0094468D01*
X0206409Y0094468D01*
X0180409Y0094468D02*
X0177409Y0094468D01*
X0177409Y0097468D01*
X0177409Y0191468D01*
X0187409Y0201468D01*
X0192409Y0201468D01*
X0192409Y0211468D01*
X0177409Y0094468D02*
X0174409Y0094468D01*
M02*
