%
M48
M72
T01C0.0200
T02C0.0400
T03C0.0600
%
T01
X21241Y16947
X21441Y14947
X21441Y13947
X21641Y12747
X21441Y10947
X23641Y9147
X24441Y9947
X21541Y8447
X23841Y14747
X25541Y18197
X23741Y18247
X20041Y19947
X17441Y19947
X17441Y21347
X18241Y22147
X27741Y19747
T02
X11241Y9447
X12241Y9447
X13241Y9447
X14241Y9447
X14441Y12337
X16411Y13757
X19241Y17147
X19241Y18147
X19241Y19147
X19241Y20147
X19241Y21147
X19241Y22147
X20641Y20447
X21641Y20447
X22641Y20447
X23641Y20447
X24641Y20447
X25641Y20447
X26641Y20447
X26641Y19447
X26641Y18447
X26641Y17447
X26641Y16447
X26641Y15447
X26641Y14447
X26641Y13447
X26641Y12447
X26641Y11447
X26641Y10447
X26641Y9447
X26641Y8447
X26641Y7447
X20641Y7447
X20641Y8447
X20641Y9447
X20641Y10447
X20641Y11447
X20641Y12447
X20641Y13447
X20641Y14447
X20641Y15447
X20641Y16447
X20641Y17447
X20641Y18447
X20641Y19447
X12471Y13757
X11241Y17147
X11241Y18147
X11241Y19147
X11241Y20147
X11241Y21147
X11241Y22147
T03
X21441Y22087
X23441Y22087
X25441Y22087
X16241Y7747
X14241Y7747
X12241Y7747
M30
