G75*
%MOIN*%
%OFA0B0*%
%FSLAX25Y25*%
%IPPOS*%
%LPD*%
%AMOC8*
5,1,8,0,0,1.08239X$1,22.5*
%
%ADD10R,0.05524X0.06312*%
%ADD11C,0.08200*%
%ADD12R,0.07099X0.07887*%
%ADD13R,0.07887X0.07099*%
%ADD14R,0.08200X0.08200*%
%ADD15R,0.04343X0.03950*%
%ADD16R,0.03950X0.04343*%
%ADD17R,0.05918X0.04737*%
%ADD18C,0.07800*%
%ADD19C,0.10800*%
D10*
X0128504Y0162468D03*
X0128504Y0173468D03*
X0128504Y0184468D03*
X0128504Y0195468D03*
X0128504Y0206468D03*
X0128504Y0217468D03*
X0140315Y0217468D03*
X0140315Y0206468D03*
X0140315Y0195468D03*
X0140315Y0184468D03*
X0140315Y0173468D03*
X0140315Y0162468D03*
X0219504Y0076468D03*
X0231315Y0076468D03*
X0242504Y0076468D03*
X0254315Y0076468D03*
D11*
X0112409Y0094468D03*
X0122409Y0094468D03*
X0132409Y0094468D03*
X0142409Y0094468D03*
X0206409Y0094468D03*
X0206409Y0084468D03*
X0206409Y0074468D03*
X0206409Y0104468D03*
X0206409Y0114468D03*
X0206409Y0124468D03*
X0206409Y0134468D03*
X0206409Y0144468D03*
X0206409Y0154468D03*
X0206409Y0164468D03*
X0206409Y0174468D03*
X0206409Y0184468D03*
X0206409Y0194468D03*
X0206409Y0204468D03*
X0216409Y0204468D03*
X0226409Y0204468D03*
X0236409Y0204468D03*
X0246409Y0204468D03*
X0256409Y0204468D03*
X0266409Y0204468D03*
X0266409Y0194468D03*
X0266409Y0184468D03*
X0266409Y0174468D03*
X0266409Y0164468D03*
X0266409Y0154468D03*
X0266409Y0144468D03*
X0266409Y0134468D03*
X0266409Y0124468D03*
X0266409Y0114468D03*
X0266409Y0104468D03*
X0266409Y0094468D03*
X0266409Y0084468D03*
X0266409Y0074468D03*
X0192409Y0171468D03*
X0192409Y0181468D03*
X0192409Y0191468D03*
X0192409Y0201468D03*
X0192409Y0211468D03*
X0192409Y0221468D03*
X0112409Y0211468D03*
X0112409Y0201468D03*
X0112409Y0191468D03*
X0112409Y0181468D03*
X0112409Y0171468D03*
D12*
X0182898Y0148468D03*
X0193921Y0148468D03*
X0193921Y0136468D03*
X0182898Y0136468D03*
X0182898Y0124468D03*
X0193921Y0124468D03*
X0193921Y0112468D03*
X0182898Y0112468D03*
X0182898Y0100468D03*
X0193921Y0100468D03*
X0219898Y0160468D03*
X0230921Y0160468D03*
X0230921Y0174468D03*
X0219898Y0174468D03*
X0219898Y0190468D03*
X0230921Y0190468D03*
X0242898Y0190468D03*
X0253921Y0190468D03*
D13*
X0228409Y0142980D03*
X0228409Y0131956D03*
X0224409Y0117980D03*
X0224409Y0106956D03*
X0144409Y0137956D03*
X0144409Y0148980D03*
D14*
X0112409Y0221468D03*
D15*
X0229346Y0095208D03*
X0229346Y0087728D03*
X0221079Y0091468D03*
X0245079Y0091468D03*
X0253346Y0087728D03*
X0253346Y0095208D03*
D16*
X0249150Y0138531D03*
X0241669Y0138531D03*
X0245409Y0146799D03*
D17*
X0240732Y0160578D03*
X0240732Y0174358D03*
X0256087Y0167468D03*
X0252087Y0125358D03*
X0236732Y0118468D03*
X0252087Y0111578D03*
D18*
X0164109Y0137568D03*
X0144409Y0123368D03*
X0124709Y0137568D03*
D19*
X0122409Y0077468D03*
X0142409Y0077468D03*
X0162409Y0077468D03*
X0214409Y0220868D03*
X0234409Y0220868D03*
X0254409Y0220868D03*
M02*
