%
M48
M72
T01C0.0200
T02C0.0380
T03C0.0400
T04C0.0600
%
T01
X9948Y7747
X11948Y8547
X12548Y10047
X14148Y10147
X15548Y10447
X16748Y10547
X17848Y10047
X16348Y7347
X14848Y13247
X14148Y13947
X14248Y15547
X14198Y17147
X16248Y18347
X17848Y18297
X20448Y19747
X16548Y14747
X16248Y13547
X8848Y20747
T02
X11848Y21247
X11848Y22247
X13348Y20447
X13348Y19447
X13348Y18447
X13348Y17447
X13348Y16447
X13348Y15447
X13348Y14447
X13348Y13447
X13348Y12447
X13348Y11447
X13348Y10447
X13348Y9447
X13348Y8447
X13348Y7447
X19348Y7447
X19348Y8447
X19348Y9447
X19348Y10447
X19348Y11447
X19348Y12447
X19348Y13447
X19348Y14447
X19348Y15447
X19348Y16447
X19348Y17447
X19348Y18447
X19348Y19447
X19348Y20447
X18348Y20447
X17348Y20447
X16348Y20447
X15348Y20447
X14348Y20447
X11848Y20247
X11848Y19247
X11848Y18247
X11848Y17247
X3848Y17247
X3848Y18247
X3848Y19247
X3848Y20247
X3848Y21247
X3848Y22247
T03
X5178Y14157
X7148Y12737
X9118Y14157
X6448Y9547
X5448Y9547
X4448Y9547
T04
X4448Y7747
X6448Y7747
X8448Y7747
X14148Y22087
X16148Y22087
X18148Y22087
M30
