G75*
%MOIN*%
%OFA0B0*%
%FSLAX25Y25*%
%IPPOS*%
%LPD*%
%AMOC8*
5,1,8,0,0,1.08239X$1,22.5*
%
%ADD10C,0.00500*%
%ADD11C,0.00600*%
%ADD12C,0.00800*%
%ADD13C,0.01100*%
%ADD14R,0.01500X0.03000*%
%ADD15R,0.03000X0.01500*%
%ADD16C,0.04400*%
%ADD17C,0.02000*%
%ADD18R,0.02000X0.16200*%
%ADD19R,0.34000X0.02000*%
%ADD20C,0.00394*%
%ADD21C,0.00787*%
D10*
X0040956Y0102218D02*
X0040956Y0104720D01*
X0042625Y0104720D02*
X0040956Y0102218D01*
X0042625Y0102218D02*
X0042625Y0104720D01*
X0043632Y0104720D02*
X0044466Y0104720D01*
X0044049Y0104720D02*
X0044049Y0102218D01*
X0044466Y0102218D02*
X0043632Y0102218D01*
X0045560Y0103052D02*
X0045560Y0104720D01*
X0045560Y0103052D02*
X0046394Y0102218D01*
X0047228Y0103052D01*
X0047228Y0104720D01*
X0050973Y0104303D02*
X0051390Y0104720D01*
X0052641Y0104720D01*
X0052641Y0102218D01*
X0051390Y0102218D01*
X0050973Y0102635D01*
X0050973Y0104303D01*
X0053735Y0104720D02*
X0053735Y0102218D01*
X0055403Y0104720D01*
X0055403Y0102218D01*
X0056497Y0102635D02*
X0056497Y0103469D01*
X0057331Y0103469D01*
X0056497Y0102635D02*
X0056914Y0102218D01*
X0057748Y0102218D01*
X0058165Y0102635D01*
X0058165Y0104303D01*
X0057748Y0104720D01*
X0056914Y0104720D01*
X0056497Y0104303D01*
X0062798Y0104720D02*
X0062798Y0103052D01*
X0063632Y0102218D01*
X0064466Y0103052D01*
X0064466Y0104720D01*
X0065560Y0104720D02*
X0067228Y0104720D01*
X0067228Y0103469D01*
X0066394Y0103886D01*
X0065977Y0103886D01*
X0065560Y0103469D01*
X0065560Y0102635D01*
X0065977Y0102218D01*
X0066811Y0102218D01*
X0067228Y0102635D01*
X0069228Y0141718D02*
X0071731Y0141718D01*
X0071731Y0142969D01*
X0071314Y0143386D01*
X0070480Y0143386D01*
X0070063Y0142969D01*
X0070063Y0141718D01*
X0070063Y0142552D02*
X0069228Y0143386D01*
X0069645Y0144481D02*
X0069228Y0144898D01*
X0069228Y0145732D01*
X0069645Y0146149D01*
X0070063Y0146149D01*
X0070480Y0145732D01*
X0070480Y0144481D01*
X0069645Y0144481D01*
X0070480Y0144481D02*
X0071314Y0145315D01*
X0071731Y0146149D01*
X0071016Y0155218D02*
X0071016Y0157720D01*
X0069764Y0157720D01*
X0069347Y0157303D01*
X0069347Y0156469D01*
X0069764Y0156052D01*
X0071016Y0156052D01*
X0068253Y0155218D02*
X0067419Y0156052D01*
X0066585Y0155218D01*
X0066585Y0157720D01*
X0065491Y0157720D02*
X0064240Y0157720D01*
X0063823Y0157303D01*
X0063823Y0156469D01*
X0064240Y0156052D01*
X0065491Y0156052D01*
X0065491Y0155218D02*
X0065491Y0157720D01*
X0064657Y0156052D02*
X0063823Y0155218D01*
X0068253Y0155218D02*
X0068253Y0157720D01*
X0067419Y0165218D02*
X0067419Y0167720D01*
X0068253Y0167720D02*
X0066585Y0167720D01*
X0065491Y0167720D02*
X0063823Y0167720D01*
X0064657Y0167720D02*
X0064657Y0165218D01*
X0069347Y0165218D02*
X0069347Y0166886D01*
X0070181Y0167720D01*
X0071016Y0166886D01*
X0071016Y0165218D01*
X0072110Y0165635D02*
X0072527Y0165218D01*
X0073778Y0165218D01*
X0073778Y0167720D01*
X0072527Y0167720D01*
X0072110Y0167303D01*
X0072110Y0166886D01*
X0072527Y0166469D01*
X0073778Y0166469D01*
X0072527Y0166469D02*
X0072110Y0166052D01*
X0072110Y0165635D01*
X0071016Y0166469D02*
X0069347Y0166469D01*
X0070181Y0175218D02*
X0070181Y0177720D01*
X0069347Y0177720D02*
X0071016Y0177720D01*
X0072110Y0177303D02*
X0072110Y0176469D01*
X0072527Y0176052D01*
X0073778Y0176052D01*
X0073778Y0175218D02*
X0073778Y0177720D01*
X0072527Y0177720D01*
X0072110Y0177303D01*
X0072944Y0176052D02*
X0072110Y0175218D01*
X0068253Y0175635D02*
X0068253Y0177303D01*
X0067836Y0177720D01*
X0067002Y0177720D01*
X0066585Y0177303D01*
X0065491Y0177720D02*
X0064240Y0177720D01*
X0063823Y0177303D01*
X0063823Y0176886D01*
X0064240Y0176469D01*
X0065491Y0176469D01*
X0065491Y0175218D02*
X0065491Y0177720D01*
X0064240Y0176469D02*
X0063823Y0176052D01*
X0063823Y0175635D01*
X0064240Y0175218D01*
X0065491Y0175218D01*
X0066585Y0175635D02*
X0067002Y0175218D01*
X0067836Y0175218D01*
X0068253Y0175635D01*
X0068253Y0185218D02*
X0067002Y0185218D01*
X0066585Y0185635D01*
X0066585Y0187303D01*
X0067002Y0187720D01*
X0068253Y0187720D01*
X0068253Y0185218D01*
X0069347Y0185635D02*
X0069764Y0185218D01*
X0070599Y0185218D01*
X0071016Y0185635D01*
X0070599Y0186469D02*
X0069764Y0186469D01*
X0069347Y0186052D01*
X0069347Y0185635D01*
X0070599Y0186469D02*
X0071016Y0186886D01*
X0071016Y0187303D01*
X0070599Y0187720D01*
X0069764Y0187720D01*
X0069347Y0187303D01*
X0065491Y0187720D02*
X0064240Y0187720D01*
X0063823Y0187303D01*
X0063823Y0186886D01*
X0064240Y0186469D01*
X0065491Y0186469D01*
X0065491Y0185218D02*
X0064240Y0185218D01*
X0063823Y0185635D01*
X0063823Y0186052D01*
X0064240Y0186469D01*
X0065491Y0185218D02*
X0065491Y0187720D01*
X0065491Y0195218D02*
X0064657Y0196052D01*
X0063823Y0195218D01*
X0063823Y0197720D01*
X0065491Y0197720D02*
X0065491Y0195218D01*
X0066585Y0195635D02*
X0066585Y0197303D01*
X0067002Y0197720D01*
X0068253Y0197720D01*
X0068253Y0195218D01*
X0067002Y0195218D01*
X0066585Y0195635D01*
X0069347Y0195635D02*
X0069764Y0195218D01*
X0070599Y0195218D01*
X0071016Y0195635D01*
X0070599Y0196469D02*
X0069764Y0196469D01*
X0069347Y0196052D01*
X0069347Y0195635D01*
X0070599Y0196469D02*
X0071016Y0196886D01*
X0071016Y0197303D01*
X0070599Y0197720D01*
X0069764Y0197720D01*
X0069347Y0197303D01*
X0069347Y0205218D02*
X0071016Y0205218D01*
X0071016Y0207720D01*
X0069347Y0207720D01*
X0068253Y0207720D02*
X0067002Y0207720D01*
X0066585Y0207303D01*
X0066585Y0206469D01*
X0067002Y0206052D01*
X0068253Y0206052D01*
X0068253Y0205218D02*
X0068253Y0207720D01*
X0070181Y0206469D02*
X0071016Y0206469D01*
X0065491Y0205218D02*
X0064657Y0206052D01*
X0063823Y0205218D01*
X0063823Y0207720D01*
X0065491Y0207720D02*
X0065491Y0205218D01*
X0102798Y0145720D02*
X0104466Y0145720D01*
X0104466Y0144469D01*
X0103632Y0144886D01*
X0103215Y0144886D01*
X0102798Y0144469D01*
X0102798Y0143635D01*
X0103215Y0143218D01*
X0104049Y0143218D01*
X0104466Y0143635D01*
X0105560Y0143218D02*
X0106394Y0144052D01*
X0105977Y0144052D02*
X0107228Y0144052D01*
X0107228Y0143218D02*
X0107228Y0145720D01*
X0105977Y0145720D01*
X0105560Y0145303D01*
X0105560Y0144469D01*
X0105977Y0144052D01*
X0105977Y0135720D02*
X0105560Y0135303D01*
X0105560Y0134469D01*
X0105977Y0134052D01*
X0107228Y0134052D01*
X0106394Y0134052D02*
X0105560Y0133218D01*
X0104466Y0134469D02*
X0102798Y0134469D01*
X0103215Y0133218D02*
X0103215Y0135720D01*
X0104466Y0134469D01*
X0105977Y0135720D02*
X0107228Y0135720D01*
X0107228Y0133218D01*
X0107228Y0125720D02*
X0105977Y0125720D01*
X0105560Y0125303D01*
X0105560Y0124469D01*
X0105977Y0124052D01*
X0107228Y0124052D01*
X0106394Y0124052D02*
X0105560Y0123218D01*
X0104466Y0123635D02*
X0104049Y0123218D01*
X0103215Y0123218D01*
X0102798Y0123635D01*
X0102798Y0124052D01*
X0103215Y0124469D01*
X0103632Y0124469D01*
X0103215Y0124469D02*
X0102798Y0124886D01*
X0102798Y0125303D01*
X0103215Y0125720D01*
X0104049Y0125720D01*
X0104466Y0125303D01*
X0107228Y0125720D02*
X0107228Y0123218D01*
X0107228Y0115720D02*
X0105977Y0115720D01*
X0105560Y0115303D01*
X0105560Y0114469D01*
X0105977Y0114052D01*
X0107228Y0114052D01*
X0106394Y0114052D02*
X0105560Y0113218D01*
X0104466Y0113218D02*
X0102798Y0114886D01*
X0102798Y0115303D01*
X0103215Y0115720D01*
X0104049Y0115720D01*
X0104466Y0115303D01*
X0104466Y0113218D02*
X0102798Y0113218D01*
X0107228Y0113218D02*
X0107228Y0115720D01*
X0107228Y0105720D02*
X0105977Y0105720D01*
X0105560Y0105303D01*
X0105560Y0104469D01*
X0105977Y0104052D01*
X0107228Y0104052D01*
X0106394Y0104052D02*
X0105560Y0103218D01*
X0104466Y0103218D02*
X0102798Y0103218D01*
X0103632Y0103218D02*
X0103632Y0105720D01*
X0104466Y0104886D01*
X0107228Y0105720D02*
X0107228Y0103218D01*
X0124728Y0103624D02*
X0124728Y0101956D01*
X0126397Y0103624D01*
X0126814Y0103624D01*
X0127231Y0103207D01*
X0127231Y0102373D01*
X0126814Y0101956D01*
X0126814Y0104718D02*
X0127231Y0105135D01*
X0127231Y0105969D01*
X0126814Y0106386D01*
X0126397Y0106386D01*
X0125980Y0105969D01*
X0125562Y0106386D01*
X0125145Y0106386D01*
X0124728Y0105969D01*
X0124728Y0105135D01*
X0125145Y0104718D01*
X0125980Y0105552D02*
X0125980Y0105969D01*
X0126814Y0111956D02*
X0127231Y0112373D01*
X0127231Y0113207D01*
X0126814Y0113624D01*
X0126397Y0113624D01*
X0124728Y0111956D01*
X0124728Y0113624D01*
X0124728Y0114718D02*
X0126397Y0116386D01*
X0126814Y0116386D01*
X0127231Y0115969D01*
X0127231Y0115135D01*
X0126814Y0114718D01*
X0124728Y0114718D02*
X0124728Y0116386D01*
X0124728Y0121956D02*
X0126397Y0123624D01*
X0126814Y0123624D01*
X0127231Y0123207D01*
X0127231Y0122373D01*
X0126814Y0121956D01*
X0124728Y0121956D02*
X0124728Y0123624D01*
X0124728Y0124718D02*
X0124728Y0126386D01*
X0124728Y0125552D02*
X0127231Y0125552D01*
X0126397Y0124718D01*
X0126814Y0131956D02*
X0127231Y0132373D01*
X0127231Y0133207D01*
X0126814Y0133624D01*
X0126397Y0133624D01*
X0124728Y0131956D01*
X0124728Y0133624D01*
X0125145Y0134718D02*
X0126814Y0136386D01*
X0125145Y0136386D01*
X0124728Y0135969D01*
X0124728Y0135135D01*
X0125145Y0134718D01*
X0126814Y0134718D01*
X0127231Y0135135D01*
X0127231Y0135969D01*
X0126814Y0136386D01*
X0126397Y0141956D02*
X0127231Y0142790D01*
X0124728Y0142790D01*
X0124728Y0141956D02*
X0124728Y0143624D01*
X0125145Y0144718D02*
X0124728Y0145135D01*
X0124728Y0145969D01*
X0125145Y0146386D01*
X0126814Y0146386D01*
X0127231Y0145969D01*
X0127231Y0145135D01*
X0126814Y0144718D01*
X0126397Y0144718D01*
X0125980Y0145135D01*
X0125980Y0146386D01*
X0149036Y0158135D02*
X0149453Y0157718D01*
X0150287Y0157718D01*
X0150704Y0158135D01*
X0151798Y0157718D02*
X0153466Y0157718D01*
X0152632Y0157718D02*
X0152632Y0160220D01*
X0153466Y0159386D01*
X0154560Y0158969D02*
X0154977Y0158552D01*
X0156228Y0158552D01*
X0155394Y0158552D02*
X0154560Y0157718D01*
X0154560Y0158969D02*
X0154560Y0159803D01*
X0154977Y0160220D01*
X0156228Y0160220D01*
X0156228Y0157718D01*
X0150704Y0159803D02*
X0150287Y0160220D01*
X0149453Y0160220D01*
X0149036Y0159803D01*
X0149036Y0159386D01*
X0149453Y0158969D01*
X0149036Y0158552D01*
X0149036Y0158135D01*
X0149453Y0158969D02*
X0149870Y0158969D01*
X0160145Y0145149D02*
X0161814Y0145149D01*
X0162231Y0144732D01*
X0162231Y0143898D01*
X0161814Y0143481D01*
X0161397Y0143481D01*
X0160980Y0143898D01*
X0160980Y0145149D01*
X0160145Y0145149D02*
X0159728Y0144732D01*
X0159728Y0143898D01*
X0160145Y0143481D01*
X0159728Y0142386D02*
X0160563Y0141552D01*
X0160563Y0141969D02*
X0160563Y0140718D01*
X0159728Y0140718D02*
X0162231Y0140718D01*
X0162231Y0141969D01*
X0161814Y0142386D01*
X0160980Y0142386D01*
X0160563Y0141969D01*
X0165036Y0133220D02*
X0166704Y0133220D01*
X0166704Y0131969D01*
X0165870Y0132386D01*
X0165453Y0132386D01*
X0165036Y0131969D01*
X0165036Y0131135D01*
X0165453Y0130718D01*
X0166287Y0130718D01*
X0166704Y0131135D01*
X0167798Y0130718D02*
X0169466Y0130718D01*
X0168632Y0130718D02*
X0168632Y0133220D01*
X0169466Y0132386D01*
X0170560Y0131969D02*
X0170977Y0131552D01*
X0172228Y0131552D01*
X0171394Y0131552D02*
X0170560Y0130718D01*
X0170560Y0131969D02*
X0170560Y0132803D01*
X0170977Y0133220D01*
X0172228Y0133220D01*
X0172228Y0130718D01*
X0181145Y0140718D02*
X0180728Y0141135D01*
X0180728Y0141969D01*
X0181145Y0142386D01*
X0182814Y0142386D01*
X0183231Y0141969D01*
X0183231Y0141135D01*
X0182814Y0140718D01*
X0181145Y0140718D01*
X0181562Y0141552D02*
X0180728Y0142386D01*
X0180728Y0143481D02*
X0180728Y0145149D01*
X0180728Y0144315D02*
X0183231Y0144315D01*
X0182397Y0143481D01*
X0199728Y0143754D02*
X0199728Y0144588D01*
X0200145Y0145005D01*
X0200562Y0145005D01*
X0200980Y0144588D01*
X0200980Y0143337D01*
X0200145Y0143337D01*
X0199728Y0143754D01*
X0200980Y0143337D02*
X0201814Y0144171D01*
X0202231Y0145005D01*
X0202231Y0153337D02*
X0202231Y0155005D01*
X0201814Y0155005D01*
X0200145Y0153337D01*
X0199728Y0153337D01*
X0200145Y0163337D02*
X0200562Y0163337D01*
X0200980Y0163754D01*
X0200980Y0164588D01*
X0200562Y0165005D01*
X0200145Y0165005D01*
X0199728Y0164588D01*
X0199728Y0163754D01*
X0200145Y0163337D01*
X0200980Y0163754D02*
X0201397Y0163337D01*
X0201814Y0163337D01*
X0202231Y0163754D01*
X0202231Y0164588D01*
X0201814Y0165005D01*
X0201397Y0165005D01*
X0200980Y0164588D01*
X0201397Y0173337D02*
X0200980Y0173754D01*
X0200980Y0175005D01*
X0201814Y0175005D02*
X0202231Y0174588D01*
X0202231Y0173754D01*
X0201814Y0173337D01*
X0201397Y0173337D01*
X0200145Y0173337D02*
X0199728Y0173754D01*
X0199728Y0174588D01*
X0200145Y0175005D01*
X0201814Y0175005D01*
X0201397Y0181956D02*
X0202231Y0182790D01*
X0199728Y0182790D01*
X0199728Y0181956D02*
X0199728Y0183624D01*
X0200145Y0184718D02*
X0201814Y0186386D01*
X0200145Y0186386D01*
X0199728Y0185969D01*
X0199728Y0185135D01*
X0200145Y0184718D01*
X0201814Y0184718D01*
X0202231Y0185135D01*
X0202231Y0185969D01*
X0201814Y0186386D01*
X0201397Y0191956D02*
X0202231Y0192790D01*
X0199728Y0192790D01*
X0199728Y0191956D02*
X0199728Y0193624D01*
X0199728Y0194718D02*
X0199728Y0196386D01*
X0199728Y0195552D02*
X0202231Y0195552D01*
X0201397Y0194718D01*
X0201397Y0201956D02*
X0202231Y0202790D01*
X0199728Y0202790D01*
X0199728Y0201956D02*
X0199728Y0203624D01*
X0199728Y0204718D02*
X0201397Y0206386D01*
X0201814Y0206386D01*
X0202231Y0205969D01*
X0202231Y0205135D01*
X0201814Y0204718D01*
X0199728Y0204718D02*
X0199728Y0206386D01*
X0187372Y0210718D02*
X0186121Y0210718D01*
X0185704Y0211135D01*
X0185704Y0211552D01*
X0186121Y0211969D01*
X0187372Y0211969D01*
X0187372Y0210718D02*
X0187372Y0213220D01*
X0186121Y0213220D01*
X0185704Y0212803D01*
X0185704Y0212386D01*
X0186121Y0211969D01*
X0184610Y0211969D02*
X0182942Y0211969D01*
X0182942Y0212386D02*
X0182942Y0210718D01*
X0184610Y0210718D02*
X0184610Y0212386D01*
X0183776Y0213220D01*
X0182942Y0212386D01*
X0181847Y0213220D02*
X0180179Y0213220D01*
X0181013Y0213220D02*
X0181013Y0210718D01*
X0177372Y0211135D02*
X0176955Y0210718D01*
X0176121Y0210718D01*
X0175704Y0211135D01*
X0175704Y0211552D01*
X0176121Y0211969D01*
X0176538Y0211969D01*
X0176121Y0211969D02*
X0175704Y0212386D01*
X0175704Y0212803D01*
X0176121Y0213220D01*
X0176955Y0213220D01*
X0177372Y0212803D01*
X0174610Y0213220D02*
X0174610Y0211552D01*
X0173776Y0210718D01*
X0172942Y0211552D01*
X0172942Y0213220D01*
X0171847Y0212803D02*
X0171430Y0213220D01*
X0170596Y0213220D01*
X0170179Y0212803D01*
X0170179Y0212386D01*
X0170596Y0211969D01*
X0170179Y0211552D01*
X0170179Y0211135D01*
X0170596Y0210718D01*
X0171430Y0210718D01*
X0171847Y0211135D01*
X0171013Y0211969D02*
X0170596Y0211969D01*
X0167372Y0211135D02*
X0166955Y0210718D01*
X0166121Y0210718D01*
X0165704Y0211135D01*
X0165704Y0211969D01*
X0166538Y0211969D01*
X0167372Y0212803D02*
X0167372Y0211135D01*
X0167372Y0212803D02*
X0166955Y0213220D01*
X0166121Y0213220D01*
X0165704Y0212803D01*
X0164610Y0213220D02*
X0162942Y0210718D01*
X0162942Y0213220D01*
X0161847Y0213220D02*
X0161847Y0210718D01*
X0160596Y0210718D01*
X0160179Y0211135D01*
X0160179Y0212803D01*
X0160596Y0213220D01*
X0161847Y0213220D01*
X0164610Y0213220D02*
X0164610Y0210718D01*
X0171870Y0197220D02*
X0171870Y0194718D01*
X0172704Y0194718D02*
X0171036Y0194718D01*
X0172704Y0196386D02*
X0171870Y0197220D01*
X0174632Y0197220D02*
X0174632Y0194718D01*
X0175466Y0194718D02*
X0173798Y0194718D01*
X0175466Y0196386D02*
X0174632Y0197220D01*
X0176560Y0196803D02*
X0176560Y0195969D01*
X0176977Y0195552D01*
X0178228Y0195552D01*
X0177394Y0195552D02*
X0176560Y0194718D01*
X0178228Y0194718D02*
X0178228Y0197220D01*
X0176977Y0197220D01*
X0176560Y0196803D01*
X0173336Y0179220D02*
X0173753Y0178803D01*
X0173753Y0178386D01*
X0173336Y0177969D01*
X0172502Y0177969D01*
X0172085Y0177552D01*
X0172085Y0177135D01*
X0172502Y0176718D01*
X0173336Y0176718D01*
X0173753Y0177135D01*
X0173336Y0179220D02*
X0172502Y0179220D01*
X0172085Y0178803D01*
X0170991Y0178803D02*
X0170574Y0179220D01*
X0169740Y0179220D01*
X0169323Y0178803D01*
X0169323Y0178386D01*
X0170991Y0176718D01*
X0169323Y0176718D01*
X0156228Y0178718D02*
X0156228Y0181220D01*
X0154977Y0181220D01*
X0154560Y0180803D01*
X0154560Y0179969D01*
X0154977Y0179552D01*
X0156228Y0179552D01*
X0155394Y0179552D02*
X0154560Y0178718D01*
X0153466Y0178718D02*
X0151798Y0178718D01*
X0152632Y0178718D02*
X0152632Y0181220D01*
X0153466Y0180386D01*
X0150704Y0179969D02*
X0149036Y0179969D01*
X0149453Y0178718D02*
X0149453Y0181220D01*
X0150704Y0179969D01*
X0150798Y0194718D02*
X0152466Y0194718D01*
X0151632Y0194718D02*
X0151632Y0197220D01*
X0152466Y0196386D01*
X0153560Y0195969D02*
X0153977Y0195552D01*
X0155228Y0195552D01*
X0154394Y0195552D02*
X0153560Y0194718D01*
X0153560Y0195969D02*
X0153560Y0196803D01*
X0153977Y0197220D01*
X0155228Y0197220D01*
X0155228Y0194718D01*
X0149704Y0194718D02*
X0148036Y0196386D01*
X0148036Y0196803D01*
X0148453Y0197220D01*
X0149287Y0197220D01*
X0149704Y0196803D01*
X0149704Y0194718D02*
X0148036Y0194718D01*
X0131078Y0211421D02*
X0129899Y0210242D01*
X0130488Y0210832D02*
X0128719Y0212601D01*
X0129899Y0212601D01*
X0127651Y0210943D02*
X0127061Y0210943D01*
X0126471Y0210353D01*
X0126471Y0209763D01*
X0126766Y0209468D01*
X0127356Y0209468D01*
X0127356Y0208878D01*
X0127651Y0208584D01*
X0128240Y0208584D01*
X0128830Y0209173D01*
X0128830Y0209763D01*
X0127651Y0209763D02*
X0127356Y0209468D01*
X0200145Y0135005D02*
X0199728Y0134588D01*
X0199728Y0133754D01*
X0200145Y0133337D01*
X0200980Y0133337D02*
X0201397Y0134171D01*
X0201397Y0134588D01*
X0200980Y0135005D01*
X0200145Y0135005D01*
X0200980Y0133337D02*
X0202231Y0133337D01*
X0202231Y0135005D01*
X0200980Y0125005D02*
X0200980Y0123337D01*
X0202231Y0124588D01*
X0199728Y0124588D01*
X0200145Y0115005D02*
X0199728Y0114588D01*
X0199728Y0113754D01*
X0200145Y0113337D01*
X0200980Y0114171D02*
X0200980Y0114588D01*
X0200562Y0115005D01*
X0200145Y0115005D01*
X0200980Y0114588D02*
X0201397Y0115005D01*
X0201814Y0115005D01*
X0202231Y0114588D01*
X0202231Y0113754D01*
X0201814Y0113337D01*
X0201814Y0105005D02*
X0202231Y0104588D01*
X0202231Y0103754D01*
X0201814Y0103337D01*
X0201814Y0105005D02*
X0201397Y0105005D01*
X0199728Y0103337D01*
X0199728Y0105005D01*
X0200145Y0077767D02*
X0201814Y0077767D01*
X0202231Y0077350D01*
X0202231Y0076099D01*
X0199728Y0076099D01*
X0199728Y0077350D01*
X0200145Y0077767D01*
X0199728Y0075005D02*
X0202231Y0075005D01*
X0202231Y0073337D02*
X0199728Y0073337D01*
X0200145Y0072243D02*
X0200980Y0072243D01*
X0200980Y0071409D01*
X0201814Y0072243D02*
X0202231Y0071826D01*
X0202231Y0070992D01*
X0201814Y0070575D01*
X0200145Y0070575D01*
X0199728Y0070992D01*
X0199728Y0071826D01*
X0200145Y0072243D01*
X0202231Y0073337D02*
X0199728Y0075005D01*
X0176991Y0083718D02*
X0176991Y0086220D01*
X0175740Y0086220D01*
X0175323Y0085803D01*
X0175323Y0084969D01*
X0175740Y0084552D01*
X0176991Y0084552D01*
X0176157Y0084552D02*
X0175323Y0083718D01*
X0174228Y0083718D02*
X0172560Y0086220D01*
X0174228Y0086220D02*
X0172560Y0083718D01*
X0172466Y0102718D02*
X0170798Y0102718D01*
X0171632Y0102718D02*
X0171632Y0105220D01*
X0172466Y0104386D01*
X0173560Y0104803D02*
X0173977Y0105220D01*
X0174811Y0105220D01*
X0175228Y0104803D01*
X0175228Y0104386D01*
X0174811Y0103969D01*
X0173977Y0103969D01*
X0173560Y0103552D01*
X0173560Y0103135D01*
X0173977Y0102718D01*
X0174811Y0102718D01*
X0175228Y0103135D01*
X0154991Y0086220D02*
X0153323Y0086220D01*
X0154157Y0086220D02*
X0154157Y0083718D01*
X0152228Y0083718D02*
X0150560Y0086220D01*
X0152228Y0086220D02*
X0150560Y0083718D01*
X0142231Y0110718D02*
X0139728Y0110718D01*
X0140563Y0110718D02*
X0140563Y0111969D01*
X0140980Y0112386D01*
X0141814Y0112386D01*
X0142231Y0111969D01*
X0142231Y0110718D01*
X0140563Y0111552D02*
X0139728Y0112386D01*
X0139728Y0113481D02*
X0139728Y0115149D01*
X0139728Y0114315D02*
X0142231Y0114315D01*
X0141397Y0113481D01*
X0141814Y0116243D02*
X0142231Y0116660D01*
X0142231Y0117494D01*
X0141814Y0117911D01*
X0140145Y0116243D01*
X0139728Y0116660D01*
X0139728Y0117494D01*
X0140145Y0117911D01*
X0141814Y0117911D01*
X0141814Y0116243D02*
X0140145Y0116243D01*
X0126814Y0097767D02*
X0126397Y0097767D01*
X0125980Y0097350D01*
X0125562Y0097767D01*
X0125145Y0097767D01*
X0124728Y0097350D01*
X0124728Y0096516D01*
X0125145Y0096099D01*
X0125562Y0095005D02*
X0127231Y0095005D01*
X0126814Y0096099D02*
X0127231Y0096516D01*
X0127231Y0097350D01*
X0126814Y0097767D01*
X0125980Y0097350D02*
X0125980Y0096933D01*
X0125562Y0095005D02*
X0124728Y0094171D01*
X0125562Y0093337D01*
X0127231Y0093337D01*
X0126814Y0092243D02*
X0126397Y0092243D01*
X0125980Y0091826D01*
X0125562Y0092243D01*
X0125145Y0092243D01*
X0124728Y0091826D01*
X0124728Y0090992D01*
X0125145Y0090575D01*
X0125980Y0091409D02*
X0125980Y0091826D01*
X0126814Y0092243D02*
X0127231Y0091826D01*
X0127231Y0090992D01*
X0126814Y0090575D01*
X0127231Y0076386D02*
X0125562Y0076386D01*
X0124728Y0075552D01*
X0125562Y0074718D01*
X0127231Y0074718D01*
X0127231Y0073624D02*
X0127231Y0071956D01*
X0125980Y0071956D01*
X0126397Y0072790D01*
X0126397Y0073207D01*
X0125980Y0073624D01*
X0125145Y0073624D01*
X0124728Y0073207D01*
X0124728Y0072373D01*
X0125145Y0071956D01*
D11*
X0045266Y0084336D02*
X0045266Y0088606D01*
X0047401Y0086471D02*
X0043131Y0086471D01*
X0063131Y0086471D02*
X0067401Y0086471D01*
X0092478Y0170068D02*
X0089578Y0170968D01*
X0086878Y0172368D01*
X0084278Y0174468D01*
X0092478Y0182368D01*
X0100778Y0174468D01*
X0098078Y0172368D01*
X0095378Y0170968D01*
X0092478Y0170068D01*
X0090735Y0170609D02*
X0094222Y0170609D01*
X0095840Y0171208D02*
X0089117Y0171208D01*
X0087962Y0171806D02*
X0096995Y0171806D01*
X0098125Y0172405D02*
X0086833Y0172405D01*
X0086092Y0173003D02*
X0098895Y0173003D01*
X0099664Y0173602D02*
X0085351Y0173602D01*
X0084610Y0174200D02*
X0100434Y0174200D01*
X0100431Y0174799D02*
X0084622Y0174799D01*
X0085243Y0175397D02*
X0099802Y0175397D01*
X0099174Y0175996D02*
X0085864Y0175996D01*
X0086485Y0176594D02*
X0098545Y0176594D01*
X0097916Y0177193D02*
X0087107Y0177193D01*
X0087728Y0177791D02*
X0097287Y0177791D01*
X0096658Y0178390D02*
X0088349Y0178390D01*
X0088970Y0178988D02*
X0096029Y0178988D01*
X0095401Y0179587D02*
X0089591Y0179587D01*
X0090213Y0180185D02*
X0094772Y0180185D01*
X0094143Y0180784D02*
X0090834Y0180784D01*
X0091455Y0181382D02*
X0093514Y0181382D01*
X0092885Y0181981D02*
X0092076Y0181981D01*
X0087014Y0187367D02*
X0078778Y0187367D01*
X0078778Y0186769D02*
X0086347Y0186769D01*
X0085679Y0186170D02*
X0078792Y0186170D01*
X0078778Y0186268D02*
X0079178Y0183368D01*
X0079878Y0180968D01*
X0092478Y0192268D01*
X0078778Y0192268D01*
X0078778Y0186268D01*
X0078874Y0185572D02*
X0085012Y0185572D01*
X0084344Y0184973D02*
X0078957Y0184973D01*
X0079040Y0184375D02*
X0083677Y0184375D01*
X0083010Y0183776D02*
X0079122Y0183776D01*
X0079234Y0183178D02*
X0082342Y0183178D01*
X0081675Y0182579D02*
X0079409Y0182579D01*
X0079583Y0181981D02*
X0081008Y0181981D01*
X0080340Y0181382D02*
X0079758Y0181382D01*
X0078778Y0187966D02*
X0087681Y0187966D01*
X0088349Y0188565D02*
X0078778Y0188565D01*
X0078778Y0189163D02*
X0089016Y0189163D01*
X0089683Y0189762D02*
X0078778Y0189762D01*
X0078778Y0190360D02*
X0090351Y0190360D01*
X0091018Y0190959D02*
X0078778Y0190959D01*
X0078778Y0191557D02*
X0091686Y0191557D01*
X0092353Y0192156D02*
X0078778Y0192156D01*
X0092478Y0192268D02*
X0105078Y0180968D01*
X0105778Y0183368D01*
X0106178Y0186268D01*
X0106178Y0192268D01*
X0092478Y0192268D01*
X0092604Y0192156D02*
X0106178Y0192156D01*
X0106178Y0191557D02*
X0093271Y0191557D01*
X0093939Y0190959D02*
X0106178Y0190959D01*
X0106178Y0190360D02*
X0094606Y0190360D01*
X0095273Y0189762D02*
X0106178Y0189762D01*
X0106178Y0189163D02*
X0095941Y0189163D01*
X0096608Y0188565D02*
X0106178Y0188565D01*
X0106178Y0187966D02*
X0097276Y0187966D01*
X0097943Y0187367D02*
X0106178Y0187367D01*
X0106178Y0186769D02*
X0098610Y0186769D01*
X0099278Y0186170D02*
X0106165Y0186170D01*
X0106082Y0185572D02*
X0099945Y0185572D01*
X0100612Y0184973D02*
X0106000Y0184973D01*
X0105917Y0184375D02*
X0101280Y0184375D01*
X0101947Y0183776D02*
X0105835Y0183776D01*
X0105723Y0183178D02*
X0102615Y0183178D01*
X0103282Y0182579D02*
X0105548Y0182579D01*
X0105374Y0181981D02*
X0103949Y0181981D01*
X0104617Y0181382D02*
X0105199Y0181382D01*
X0168908Y0216971D02*
X0173178Y0216971D01*
X0189908Y0216971D02*
X0194178Y0216971D01*
X0192043Y0219106D02*
X0192043Y0214836D01*
D12*
X0178990Y0145224D02*
X0176628Y0145224D01*
X0178990Y0145224D02*
X0178990Y0142074D01*
X0170329Y0145224D02*
X0167967Y0145224D01*
X0167967Y0142074D01*
X0173809Y0080279D02*
X0173809Y0078468D01*
X0175030Y0077548D01*
X0173809Y0076657D02*
X0173809Y0078468D01*
X0173870Y0078568D02*
X0175030Y0079328D01*
X0153030Y0079328D02*
X0151870Y0078568D01*
X0151809Y0078468D02*
X0153030Y0077548D01*
X0151809Y0076657D02*
X0151809Y0078468D01*
X0151809Y0080279D01*
X0059078Y0112868D02*
X0059078Y0117072D01*
X0056977Y0117072D01*
X0056276Y0116371D01*
X0056276Y0114970D01*
X0056977Y0114269D01*
X0059078Y0114269D01*
X0057677Y0114269D02*
X0056276Y0112868D01*
X0054475Y0113569D02*
X0054475Y0114970D01*
X0053774Y0115671D01*
X0052373Y0115671D01*
X0051672Y0114970D01*
X0051672Y0114269D01*
X0054475Y0114269D01*
X0054475Y0113569D02*
X0053774Y0112868D01*
X0052373Y0112868D01*
X0049871Y0115671D02*
X0048469Y0112868D01*
X0047068Y0115671D01*
X0046101Y0119868D02*
X0044700Y0119868D01*
X0046101Y0119868D02*
X0046801Y0120569D01*
X0046801Y0121970D01*
X0046101Y0122671D01*
X0044700Y0122671D01*
X0043999Y0121970D01*
X0043999Y0121269D01*
X0046801Y0121269D01*
X0048469Y0119868D02*
X0049170Y0120569D01*
X0049170Y0123371D01*
X0049871Y0122671D02*
X0048469Y0122671D01*
X0051672Y0121970D02*
X0051672Y0119868D01*
X0053774Y0119868D01*
X0054475Y0120569D01*
X0053774Y0121269D01*
X0051672Y0121269D01*
X0051672Y0121970D02*
X0052373Y0122671D01*
X0053774Y0122671D01*
X0056276Y0123371D02*
X0056977Y0124072D01*
X0058378Y0124072D01*
X0059078Y0123371D01*
X0059078Y0120569D01*
X0058378Y0119868D01*
X0056977Y0119868D01*
X0056276Y0120569D01*
X0056276Y0121970D01*
X0057677Y0121970D01*
X0056276Y0126868D02*
X0056276Y0131072D01*
X0057677Y0129671D01*
X0059078Y0131072D01*
X0059078Y0126868D01*
X0054475Y0127569D02*
X0053774Y0126868D01*
X0052373Y0126868D01*
X0051672Y0127569D01*
X0051672Y0128970D01*
X0052373Y0129671D01*
X0053774Y0129671D01*
X0054475Y0128970D01*
X0054475Y0127569D01*
X0049871Y0127569D02*
X0049871Y0128970D01*
X0049170Y0129671D01*
X0047068Y0129671D01*
X0047068Y0131072D02*
X0047068Y0126868D01*
X0049170Y0126868D01*
X0049871Y0127569D01*
X0045267Y0126868D02*
X0043165Y0126868D01*
X0042464Y0127569D01*
X0042464Y0128970D01*
X0043165Y0129671D01*
X0045267Y0129671D01*
X0045267Y0131072D02*
X0045267Y0126868D01*
X0042197Y0122671D02*
X0042197Y0120569D01*
X0041497Y0119868D01*
X0040796Y0120569D01*
X0040096Y0119868D01*
X0039395Y0120569D01*
X0039395Y0122671D01*
X0036893Y0122671D02*
X0035492Y0122671D01*
X0034791Y0121970D01*
X0034791Y0119868D01*
X0036893Y0119868D01*
X0037593Y0120569D01*
X0036893Y0121269D01*
X0034791Y0121269D01*
X0032990Y0120569D02*
X0032990Y0122671D01*
X0032990Y0120569D02*
X0032289Y0119868D01*
X0030187Y0119868D01*
X0030187Y0119168D02*
X0030888Y0118467D01*
X0031588Y0118467D01*
X0031655Y0117072D02*
X0030954Y0116371D01*
X0033757Y0113569D01*
X0033056Y0112868D01*
X0031655Y0112868D01*
X0030954Y0113569D01*
X0030954Y0116371D01*
X0031655Y0117072D02*
X0033056Y0117072D01*
X0033757Y0116371D01*
X0033757Y0113569D01*
X0035358Y0113569D02*
X0035358Y0112868D01*
X0036059Y0112868D01*
X0036059Y0113569D01*
X0035358Y0113569D01*
X0037860Y0113569D02*
X0038561Y0112868D01*
X0039962Y0112868D01*
X0040663Y0113569D01*
X0039262Y0114970D02*
X0038561Y0114970D01*
X0037860Y0114269D01*
X0037860Y0113569D01*
X0038561Y0114970D02*
X0037860Y0115671D01*
X0037860Y0116371D01*
X0038561Y0117072D01*
X0039962Y0117072D01*
X0040663Y0116371D01*
X0039962Y0126868D02*
X0037860Y0126868D01*
X0037860Y0129671D01*
X0036059Y0128970D02*
X0035358Y0128269D01*
X0033957Y0128269D01*
X0033256Y0127569D01*
X0033957Y0126868D01*
X0036059Y0126868D01*
X0036059Y0128970D02*
X0035358Y0129671D01*
X0033256Y0129671D01*
X0030187Y0122671D02*
X0030187Y0119168D01*
X0039962Y0126868D02*
X0040663Y0127569D01*
X0040663Y0129671D01*
X0053809Y0154657D02*
X0053809Y0156468D01*
X0055030Y0155548D01*
X0053809Y0156468D02*
X0053809Y0158279D01*
X0055030Y0157328D02*
X0053870Y0156568D01*
X0053809Y0164657D02*
X0053809Y0166468D01*
X0055030Y0165548D01*
X0053809Y0166468D02*
X0053809Y0168279D01*
X0055030Y0167328D02*
X0053870Y0166568D01*
X0053809Y0174657D02*
X0053809Y0176468D01*
X0055030Y0175548D01*
X0053809Y0176468D02*
X0053809Y0178279D01*
X0055030Y0177328D02*
X0053870Y0176568D01*
X0053809Y0184657D02*
X0053809Y0186468D01*
X0055030Y0185548D01*
X0053809Y0186468D02*
X0053809Y0188279D01*
X0055030Y0187328D02*
X0053870Y0186568D01*
X0053809Y0194657D02*
X0053809Y0196468D01*
X0055030Y0195548D01*
X0053809Y0196468D02*
X0053809Y0198279D01*
X0055030Y0197328D02*
X0053870Y0196568D01*
X0053809Y0204657D02*
X0053809Y0206468D01*
X0055030Y0205548D01*
X0053809Y0206468D02*
X0053809Y0208279D01*
X0055030Y0207328D02*
X0053870Y0206568D01*
X0058702Y0213868D02*
X0060804Y0213868D01*
X0061505Y0214569D01*
X0060804Y0215269D01*
X0058702Y0215269D01*
X0058702Y0215970D02*
X0058702Y0213868D01*
X0058702Y0215970D02*
X0059403Y0216671D01*
X0060804Y0216671D01*
X0063873Y0216671D02*
X0063873Y0213868D01*
X0063173Y0213868D02*
X0064574Y0213868D01*
X0066375Y0213868D02*
X0066375Y0215970D01*
X0067076Y0216671D01*
X0069178Y0216671D01*
X0069178Y0213868D01*
X0070979Y0213868D02*
X0070979Y0215970D01*
X0071680Y0216671D01*
X0073081Y0216671D01*
X0073081Y0215269D02*
X0070979Y0215269D01*
X0070979Y0213868D02*
X0073081Y0213868D01*
X0073782Y0214569D01*
X0073081Y0215269D01*
X0075583Y0216671D02*
X0076984Y0213868D01*
X0078386Y0216671D01*
X0080754Y0218072D02*
X0080754Y0213868D01*
X0080054Y0213868D02*
X0081455Y0213868D01*
X0083256Y0213868D02*
X0085358Y0213868D01*
X0086059Y0214569D01*
X0086059Y0216671D01*
X0087860Y0216671D02*
X0089962Y0216671D01*
X0090663Y0215970D01*
X0089962Y0215269D01*
X0088561Y0215269D01*
X0087860Y0214569D01*
X0088561Y0213868D01*
X0090663Y0213868D01*
X0092464Y0213868D02*
X0092464Y0215970D01*
X0093165Y0216671D01*
X0095267Y0216671D01*
X0095267Y0213868D01*
X0097068Y0213868D02*
X0097068Y0215970D01*
X0097769Y0216671D01*
X0099871Y0216671D01*
X0099871Y0213868D01*
X0101672Y0215269D02*
X0104475Y0215269D01*
X0104475Y0214569D02*
X0104475Y0215970D01*
X0103774Y0216671D01*
X0102373Y0216671D01*
X0101672Y0215970D01*
X0101672Y0215269D01*
X0102373Y0213868D02*
X0103774Y0213868D01*
X0104475Y0214569D01*
X0106276Y0215970D02*
X0106977Y0215269D01*
X0109078Y0215269D01*
X0109078Y0213868D02*
X0109078Y0218072D01*
X0106977Y0218072D01*
X0106276Y0217371D01*
X0106276Y0215970D01*
X0106276Y0211072D02*
X0109078Y0211072D01*
X0109078Y0206868D01*
X0109078Y0208970D02*
X0107677Y0208970D01*
X0104475Y0208269D02*
X0102373Y0208269D01*
X0101672Y0208970D01*
X0101672Y0210371D01*
X0102373Y0211072D01*
X0104475Y0211072D01*
X0104475Y0206868D01*
X0103073Y0208269D02*
X0101672Y0206868D01*
X0099871Y0206868D02*
X0099871Y0211072D01*
X0097068Y0211072D01*
X0095267Y0210371D02*
X0095267Y0209671D01*
X0094566Y0208970D01*
X0093165Y0208970D01*
X0092464Y0208269D01*
X0092464Y0207569D01*
X0093165Y0206868D01*
X0094566Y0206868D01*
X0095267Y0207569D01*
X0097068Y0206868D02*
X0099871Y0206868D01*
X0099871Y0208970D02*
X0098469Y0208970D01*
X0095267Y0210371D02*
X0094566Y0211072D01*
X0093165Y0211072D01*
X0092464Y0210371D01*
X0084658Y0212467D02*
X0083957Y0212467D01*
X0083256Y0213168D01*
X0083256Y0216671D01*
X0081455Y0218072D02*
X0080754Y0218072D01*
X0079987Y0220868D02*
X0079987Y0224371D01*
X0079286Y0225072D01*
X0079286Y0222970D02*
X0080688Y0222970D01*
X0082489Y0222970D02*
X0083190Y0223671D01*
X0084591Y0223671D01*
X0085292Y0222970D01*
X0085292Y0221569D01*
X0084591Y0220868D01*
X0083190Y0220868D01*
X0082489Y0221569D01*
X0082489Y0222970D01*
X0091497Y0221569D02*
X0091497Y0220868D01*
X0092197Y0220868D01*
X0092197Y0221569D01*
X0091497Y0221569D01*
X0093999Y0223671D02*
X0095400Y0220868D01*
X0096801Y0223671D01*
X0099170Y0223671D02*
X0099170Y0220868D01*
X0099871Y0220868D02*
X0098469Y0220868D01*
X0099170Y0223671D02*
X0099871Y0223671D01*
X0099170Y0225072D02*
X0099170Y0225772D01*
X0101672Y0222970D02*
X0101672Y0220868D01*
X0101672Y0222970D02*
X0102373Y0223671D01*
X0104475Y0223671D01*
X0104475Y0220868D01*
X0106276Y0221569D02*
X0106276Y0225072D01*
X0106276Y0221569D02*
X0106977Y0220868D01*
X0108378Y0220868D01*
X0109078Y0221569D01*
X0109078Y0225072D01*
X0064574Y0216671D02*
X0063873Y0216671D01*
X0063873Y0218072D02*
X0063873Y0218772D01*
D13*
X0078194Y0097423D02*
X0077210Y0096439D01*
X0077210Y0094471D01*
X0078194Y0093487D01*
X0081146Y0093487D01*
X0079178Y0093487D02*
X0077210Y0091518D01*
X0081146Y0091518D02*
X0081146Y0097423D01*
X0078194Y0097423D01*
X0083655Y0097423D02*
X0087592Y0097423D01*
X0087592Y0091518D01*
X0083655Y0091518D01*
X0085624Y0094471D02*
X0087592Y0094471D01*
X0090101Y0091518D02*
X0090101Y0097423D01*
X0094037Y0097423D02*
X0094037Y0091518D01*
X0092069Y0093487D01*
X0090101Y0091518D01*
X0096546Y0092502D02*
X0096546Y0096439D01*
X0097530Y0097423D01*
X0099499Y0097423D01*
X0100483Y0096439D01*
X0100483Y0092502D01*
X0099499Y0091518D01*
X0097530Y0091518D01*
X0096546Y0092502D01*
X0102992Y0094471D02*
X0103976Y0093487D01*
X0106928Y0093487D01*
X0106928Y0091518D02*
X0106928Y0097423D01*
X0103976Y0097423D01*
X0102992Y0096439D01*
X0102992Y0094471D01*
X0192085Y0221518D02*
X0194053Y0221518D01*
X0195037Y0222502D01*
X0195037Y0224471D02*
X0193069Y0225455D01*
X0192085Y0225455D01*
X0191101Y0224471D01*
X0191101Y0222502D01*
X0192085Y0221518D01*
X0195037Y0224471D02*
X0195037Y0227423D01*
X0191101Y0227423D01*
X0197546Y0226439D02*
X0197546Y0225455D01*
X0198530Y0224471D01*
X0200499Y0224471D01*
X0201483Y0225455D01*
X0201483Y0226439D01*
X0200499Y0227423D01*
X0198530Y0227423D01*
X0197546Y0226439D01*
X0198530Y0224471D02*
X0197546Y0223487D01*
X0197546Y0222502D01*
X0198530Y0221518D01*
X0200499Y0221518D01*
X0201483Y0222502D01*
X0201483Y0223487D01*
X0200499Y0224471D01*
X0203992Y0224471D02*
X0207928Y0224471D01*
X0204976Y0227423D01*
X0204976Y0221518D01*
D14*
X0175478Y0191468D03*
X0152478Y0191468D03*
X0152478Y0174468D03*
X0152478Y0164468D03*
X0168478Y0126468D03*
X0115478Y0124468D03*
X0115478Y0114468D03*
X0115478Y0104468D03*
X0115478Y0134468D03*
X0115478Y0144468D03*
D15*
X0146478Y0114468D03*
X0155478Y0143468D03*
X0064478Y0143468D03*
D16*
X0085178Y0180868D03*
X0092478Y0186568D03*
X0099778Y0180868D03*
D17*
X0092478Y0167768D02*
X0092003Y0167873D01*
X0091529Y0167988D01*
X0091059Y0168115D01*
X0090592Y0168253D01*
X0090129Y0168403D01*
X0089669Y0168564D01*
X0089214Y0168736D01*
X0088763Y0168919D01*
X0088316Y0169112D01*
X0087874Y0169317D01*
X0087437Y0169532D01*
X0087006Y0169758D01*
X0086580Y0169994D01*
X0086160Y0170240D01*
X0085746Y0170497D01*
X0085338Y0170763D01*
X0084937Y0171040D01*
X0084543Y0171326D01*
X0084156Y0171621D01*
X0083776Y0171926D01*
X0083403Y0172239D01*
X0083039Y0172562D01*
X0082682Y0172893D01*
X0082333Y0173233D01*
X0081993Y0173582D01*
X0081661Y0173938D01*
X0081338Y0174303D01*
X0081024Y0174675D01*
X0080719Y0175055D01*
X0080424Y0175441D01*
X0080138Y0175835D01*
X0079861Y0176236D01*
X0079594Y0176644D01*
X0079337Y0177057D01*
X0079091Y0177477D01*
X0078854Y0177903D01*
X0078628Y0178334D01*
X0078413Y0178771D01*
X0078208Y0179213D01*
X0078014Y0179659D01*
X0077830Y0180110D01*
X0077658Y0180566D01*
X0077497Y0181025D01*
X0077347Y0181489D01*
X0077208Y0181955D01*
X0077081Y0182425D01*
X0076965Y0182898D01*
X0076861Y0183374D01*
X0076768Y0183852D01*
X0076686Y0184332D01*
X0076617Y0184814D01*
X0076559Y0185298D01*
X0076513Y0185782D01*
X0076478Y0186268D01*
X0092479Y0167768D02*
X0092954Y0167873D01*
X0093428Y0167988D01*
X0093898Y0168115D01*
X0094365Y0168253D01*
X0094828Y0168403D01*
X0095288Y0168564D01*
X0095743Y0168736D01*
X0096194Y0168919D01*
X0096641Y0169112D01*
X0097083Y0169317D01*
X0097520Y0169532D01*
X0097951Y0169758D01*
X0098377Y0169994D01*
X0098797Y0170240D01*
X0099211Y0170497D01*
X0099619Y0170763D01*
X0100020Y0171040D01*
X0100414Y0171326D01*
X0100801Y0171621D01*
X0101181Y0171926D01*
X0101554Y0172239D01*
X0101918Y0172562D01*
X0102275Y0172893D01*
X0102624Y0173233D01*
X0102964Y0173582D01*
X0103296Y0173938D01*
X0103619Y0174303D01*
X0103933Y0174675D01*
X0104238Y0175055D01*
X0104533Y0175441D01*
X0104819Y0175835D01*
X0105096Y0176236D01*
X0105363Y0176644D01*
X0105620Y0177057D01*
X0105866Y0177477D01*
X0106103Y0177903D01*
X0106329Y0178334D01*
X0106544Y0178771D01*
X0106749Y0179213D01*
X0106943Y0179659D01*
X0107127Y0180110D01*
X0107299Y0180566D01*
X0107460Y0181025D01*
X0107610Y0181489D01*
X0107749Y0181955D01*
X0107876Y0182425D01*
X0107992Y0182898D01*
X0108096Y0183374D01*
X0108189Y0183852D01*
X0108271Y0184332D01*
X0108340Y0184814D01*
X0108398Y0185298D01*
X0108444Y0185782D01*
X0108479Y0186268D01*
D18*
X0108478Y0194368D03*
X0076478Y0194368D03*
D19*
X0092478Y0201468D03*
D20*
X0162573Y0119374D02*
X0174384Y0119374D01*
X0174384Y0107563D02*
X0162573Y0107563D01*
X0166951Y0167531D02*
X0176006Y0167531D01*
X0176006Y0175405D02*
X0166951Y0175405D01*
D21*
X0169116Y0168712D02*
X0169118Y0168751D01*
X0169124Y0168790D01*
X0169134Y0168828D01*
X0169147Y0168865D01*
X0169164Y0168900D01*
X0169184Y0168934D01*
X0169208Y0168965D01*
X0169235Y0168994D01*
X0169264Y0169020D01*
X0169296Y0169043D01*
X0169330Y0169063D01*
X0169366Y0169079D01*
X0169403Y0169091D01*
X0169442Y0169100D01*
X0169481Y0169105D01*
X0169520Y0169106D01*
X0169559Y0169103D01*
X0169598Y0169096D01*
X0169635Y0169085D01*
X0169672Y0169071D01*
X0169707Y0169053D01*
X0169740Y0169032D01*
X0169771Y0169007D01*
X0169799Y0168980D01*
X0169824Y0168950D01*
X0169846Y0168917D01*
X0169865Y0168883D01*
X0169880Y0168847D01*
X0169892Y0168809D01*
X0169900Y0168771D01*
X0169904Y0168732D01*
X0169904Y0168692D01*
X0169900Y0168653D01*
X0169892Y0168615D01*
X0169880Y0168577D01*
X0169865Y0168541D01*
X0169846Y0168507D01*
X0169824Y0168474D01*
X0169799Y0168444D01*
X0169771Y0168417D01*
X0169740Y0168392D01*
X0169707Y0168371D01*
X0169672Y0168353D01*
X0169635Y0168339D01*
X0169598Y0168328D01*
X0169559Y0168321D01*
X0169520Y0168318D01*
X0169481Y0168319D01*
X0169442Y0168324D01*
X0169403Y0168333D01*
X0169366Y0168345D01*
X0169330Y0168361D01*
X0169296Y0168381D01*
X0169264Y0168404D01*
X0169235Y0168430D01*
X0169208Y0168459D01*
X0169184Y0168490D01*
X0169164Y0168524D01*
X0169147Y0168559D01*
X0169134Y0168596D01*
X0169124Y0168634D01*
X0169118Y0168673D01*
X0169116Y0168712D01*
X0171234Y0117405D02*
X0171236Y0117444D01*
X0171242Y0117483D01*
X0171252Y0117521D01*
X0171265Y0117558D01*
X0171282Y0117593D01*
X0171302Y0117627D01*
X0171326Y0117658D01*
X0171353Y0117687D01*
X0171382Y0117713D01*
X0171414Y0117736D01*
X0171448Y0117756D01*
X0171484Y0117772D01*
X0171521Y0117784D01*
X0171560Y0117793D01*
X0171599Y0117798D01*
X0171638Y0117799D01*
X0171677Y0117796D01*
X0171716Y0117789D01*
X0171753Y0117778D01*
X0171790Y0117764D01*
X0171825Y0117746D01*
X0171858Y0117725D01*
X0171889Y0117700D01*
X0171917Y0117673D01*
X0171942Y0117643D01*
X0171964Y0117610D01*
X0171983Y0117576D01*
X0171998Y0117540D01*
X0172010Y0117502D01*
X0172018Y0117464D01*
X0172022Y0117425D01*
X0172022Y0117385D01*
X0172018Y0117346D01*
X0172010Y0117308D01*
X0171998Y0117270D01*
X0171983Y0117234D01*
X0171964Y0117200D01*
X0171942Y0117167D01*
X0171917Y0117137D01*
X0171889Y0117110D01*
X0171858Y0117085D01*
X0171825Y0117064D01*
X0171790Y0117046D01*
X0171753Y0117032D01*
X0171716Y0117021D01*
X0171677Y0117014D01*
X0171638Y0117011D01*
X0171599Y0117012D01*
X0171560Y0117017D01*
X0171521Y0117026D01*
X0171484Y0117038D01*
X0171448Y0117054D01*
X0171414Y0117074D01*
X0171382Y0117097D01*
X0171353Y0117123D01*
X0171326Y0117152D01*
X0171302Y0117183D01*
X0171282Y0117217D01*
X0171265Y0117252D01*
X0171252Y0117289D01*
X0171242Y0117327D01*
X0171236Y0117366D01*
X0171234Y0117405D01*
M02*
