G75*
%MOIN*%
%OFA0B0*%
%FSLAX25Y25*%
%IPPOS*%
%LPD*%
%AMOC8*
5,1,8,0,0,1.08239X$1,22.5*
%
%ADD10C,0.01181*%
%ADD11C,0.06200*%
%ADD12R,0.04331X0.03937*%
%ADD13R,0.03937X0.04331*%
%ADD14R,0.06200X0.06200*%
%ADD15R,0.03150X0.03543*%
%ADD16C,0.07000*%
%ADD17C,0.10000*%
%ADD18C,0.07400*%
%ADD19R,0.30000X0.08900*%
%ADD20R,0.04921X0.01181*%
%ADD21R,0.02756X0.01181*%
%ADD22C,0.00800*%
%ADD23C,0.04000*%
%ADD24C,0.03000*%
%ADD25C,0.02400*%
D10*
X0049648Y0155090D02*
X0049648Y0157846D01*
X0052404Y0157846D01*
X0052404Y0155090D01*
X0049648Y0155090D01*
X0049648Y0156270D02*
X0052404Y0156270D01*
X0052404Y0157450D02*
X0049648Y0157450D01*
X0056553Y0157846D02*
X0056553Y0155090D01*
X0056553Y0157846D02*
X0059309Y0157846D01*
X0059309Y0155090D01*
X0056553Y0155090D01*
X0056553Y0156270D02*
X0059309Y0156270D01*
X0059309Y0157450D02*
X0056553Y0157450D01*
X0056553Y0165090D02*
X0056553Y0167846D01*
X0059309Y0167846D01*
X0059309Y0165090D01*
X0056553Y0165090D01*
X0056553Y0166270D02*
X0059309Y0166270D01*
X0059309Y0167450D02*
X0056553Y0167450D01*
X0049648Y0167846D02*
X0049648Y0165090D01*
X0049648Y0167846D02*
X0052404Y0167846D01*
X0052404Y0165090D01*
X0049648Y0165090D01*
X0049648Y0166270D02*
X0052404Y0166270D01*
X0052404Y0167450D02*
X0049648Y0167450D01*
X0049648Y0175090D02*
X0049648Y0177846D01*
X0052404Y0177846D01*
X0052404Y0175090D01*
X0049648Y0175090D01*
X0049648Y0176270D02*
X0052404Y0176270D01*
X0052404Y0177450D02*
X0049648Y0177450D01*
X0056553Y0177846D02*
X0056553Y0175090D01*
X0056553Y0177846D02*
X0059309Y0177846D01*
X0059309Y0175090D01*
X0056553Y0175090D01*
X0056553Y0176270D02*
X0059309Y0176270D01*
X0059309Y0177450D02*
X0056553Y0177450D01*
X0056553Y0185090D02*
X0056553Y0187846D01*
X0059309Y0187846D01*
X0059309Y0185090D01*
X0056553Y0185090D01*
X0056553Y0186270D02*
X0059309Y0186270D01*
X0059309Y0187450D02*
X0056553Y0187450D01*
X0049648Y0187846D02*
X0049648Y0185090D01*
X0049648Y0187846D02*
X0052404Y0187846D01*
X0052404Y0185090D01*
X0049648Y0185090D01*
X0049648Y0186270D02*
X0052404Y0186270D01*
X0052404Y0187450D02*
X0049648Y0187450D01*
X0049648Y0195090D02*
X0049648Y0197846D01*
X0052404Y0197846D01*
X0052404Y0195090D01*
X0049648Y0195090D01*
X0049648Y0196270D02*
X0052404Y0196270D01*
X0052404Y0197450D02*
X0049648Y0197450D01*
X0056553Y0197846D02*
X0056553Y0195090D01*
X0056553Y0197846D02*
X0059309Y0197846D01*
X0059309Y0195090D01*
X0056553Y0195090D01*
X0056553Y0196270D02*
X0059309Y0196270D01*
X0059309Y0197450D02*
X0056553Y0197450D01*
X0056553Y0205090D02*
X0056553Y0207846D01*
X0059309Y0207846D01*
X0059309Y0205090D01*
X0056553Y0205090D01*
X0056553Y0206270D02*
X0059309Y0206270D01*
X0059309Y0207450D02*
X0056553Y0207450D01*
X0049648Y0207846D02*
X0049648Y0205090D01*
X0049648Y0207846D02*
X0052404Y0207846D01*
X0052404Y0205090D01*
X0049648Y0205090D01*
X0049648Y0206270D02*
X0052404Y0206270D01*
X0052404Y0207450D02*
X0049648Y0207450D01*
X0147648Y0079846D02*
X0147648Y0077090D01*
X0147648Y0079846D02*
X0150404Y0079846D01*
X0150404Y0077090D01*
X0147648Y0077090D01*
X0147648Y0078270D02*
X0150404Y0078270D01*
X0150404Y0079450D02*
X0147648Y0079450D01*
X0154553Y0079846D02*
X0154553Y0077090D01*
X0154553Y0079846D02*
X0157309Y0079846D01*
X0157309Y0077090D01*
X0154553Y0077090D01*
X0154553Y0078270D02*
X0157309Y0078270D01*
X0157309Y0079450D02*
X0154553Y0079450D01*
X0169648Y0079846D02*
X0169648Y0077090D01*
X0169648Y0079846D02*
X0172404Y0079846D01*
X0172404Y0077090D01*
X0169648Y0077090D01*
X0169648Y0078270D02*
X0172404Y0078270D01*
X0172404Y0079450D02*
X0169648Y0079450D01*
X0176553Y0079846D02*
X0176553Y0077090D01*
X0176553Y0079846D02*
X0179309Y0079846D01*
X0179309Y0077090D01*
X0176553Y0077090D01*
X0176553Y0078270D02*
X0179309Y0078270D01*
X0179309Y0079450D02*
X0176553Y0079450D01*
D11*
X0193478Y0074468D03*
X0193478Y0084468D03*
X0193478Y0094468D03*
X0193478Y0104468D03*
X0193478Y0114468D03*
X0193478Y0124468D03*
X0193478Y0134468D03*
X0193478Y0144468D03*
X0193478Y0154468D03*
X0193478Y0164468D03*
X0193478Y0174468D03*
X0193478Y0184468D03*
X0193478Y0194468D03*
X0193478Y0204468D03*
X0183478Y0204468D03*
X0173478Y0204468D03*
X0163478Y0204468D03*
X0153478Y0204468D03*
X0143478Y0204468D03*
X0133478Y0204468D03*
X0133478Y0194468D03*
X0133478Y0184468D03*
X0133478Y0174468D03*
X0133478Y0164468D03*
X0133478Y0154468D03*
X0133478Y0144468D03*
X0133478Y0134468D03*
X0133478Y0124468D03*
X0133478Y0114468D03*
X0133478Y0104468D03*
X0133478Y0094468D03*
X0133478Y0084468D03*
X0133478Y0074468D03*
X0118478Y0172468D03*
X0118478Y0182468D03*
X0118478Y0192468D03*
X0118478Y0202468D03*
X0118478Y0212468D03*
X0118478Y0222468D03*
X0038478Y0212468D03*
X0038478Y0202468D03*
X0038478Y0192468D03*
X0038478Y0182468D03*
X0038478Y0172468D03*
D12*
X0112132Y0144468D03*
X0118825Y0144468D03*
X0118825Y0134468D03*
X0112132Y0134468D03*
X0112132Y0124468D03*
X0118825Y0124468D03*
X0118825Y0114468D03*
X0112132Y0114468D03*
X0112132Y0104468D03*
X0118825Y0104468D03*
X0165132Y0126468D03*
X0171825Y0126468D03*
X0155825Y0164468D03*
X0149132Y0164468D03*
X0149132Y0174468D03*
X0155825Y0174468D03*
X0155825Y0191468D03*
X0149132Y0191468D03*
X0172132Y0191468D03*
X0178825Y0191468D03*
D13*
X0155478Y0146815D03*
X0155478Y0140122D03*
X0146478Y0117815D03*
X0146478Y0111122D03*
X0064478Y0140122D03*
X0064478Y0146815D03*
D14*
X0038478Y0222468D03*
D15*
X0169738Y0138531D03*
X0177219Y0138531D03*
X0173478Y0146799D03*
D16*
X0091178Y0141568D03*
X0071478Y0127368D03*
X0051778Y0141568D03*
D17*
X0044478Y0077468D03*
X0064478Y0077468D03*
X0084478Y0077468D03*
X0141478Y0220868D03*
X0161478Y0220868D03*
X0181478Y0220868D03*
D18*
X0064478Y0095468D03*
X0054478Y0095468D03*
X0044478Y0095468D03*
D19*
X0092478Y0196018D03*
D20*
X0160703Y0117405D03*
X0160703Y0115437D03*
X0160703Y0113468D03*
X0160703Y0111500D03*
X0160703Y0109531D03*
X0176254Y0109531D03*
X0176254Y0111500D03*
X0176254Y0113468D03*
X0176254Y0115437D03*
X0176254Y0117405D03*
D21*
X0176793Y0168515D03*
X0176793Y0170484D03*
X0176793Y0172452D03*
X0176793Y0174421D03*
X0166163Y0174421D03*
X0166163Y0172452D03*
X0166163Y0170484D03*
X0166163Y0168515D03*
D22*
X0021078Y0230223D02*
X0021078Y0068068D01*
X0210792Y0068068D01*
X0210792Y0230223D01*
X0021078Y0230223D01*
X0021078Y0230163D02*
X0210792Y0230163D01*
X0210792Y0229365D02*
X0021078Y0229365D01*
X0021078Y0228566D02*
X0210792Y0228566D01*
X0210792Y0227767D02*
X0021078Y0227767D01*
X0021078Y0226969D02*
X0139519Y0226969D01*
X0139417Y0226942D02*
X0138642Y0226620D01*
X0137915Y0226201D01*
X0137250Y0225690D01*
X0136656Y0225097D01*
X0136146Y0224431D01*
X0135726Y0223705D01*
X0135405Y0222930D01*
X0135188Y0222119D01*
X0135078Y0221288D01*
X0135078Y0221268D01*
X0141078Y0221268D01*
X0141078Y0220468D01*
X0135078Y0220468D01*
X0135078Y0220449D01*
X0135188Y0219617D01*
X0135405Y0218807D01*
X0135726Y0218031D01*
X0136146Y0217305D01*
X0136656Y0216639D01*
X0137250Y0216046D01*
X0137915Y0215535D01*
X0138642Y0215116D01*
X0139417Y0214795D01*
X0140227Y0214578D01*
X0141059Y0214468D01*
X0141078Y0214468D01*
X0141078Y0220468D01*
X0141878Y0220468D01*
X0141878Y0214468D01*
X0141898Y0214468D01*
X0142730Y0214578D01*
X0143540Y0214795D01*
X0144315Y0215116D01*
X0145042Y0215535D01*
X0145707Y0216046D01*
X0146301Y0216639D01*
X0146811Y0217305D01*
X0147231Y0218031D01*
X0147552Y0218807D01*
X0147769Y0219617D01*
X0147878Y0220449D01*
X0147878Y0220468D01*
X0141879Y0220468D01*
X0141879Y0221268D01*
X0147878Y0221268D01*
X0147878Y0221288D01*
X0147769Y0222119D01*
X0147552Y0222930D01*
X0147231Y0223705D01*
X0146811Y0224431D01*
X0146301Y0225097D01*
X0145707Y0225690D01*
X0145042Y0226201D01*
X0144315Y0226620D01*
X0143540Y0226942D01*
X0142730Y0227159D01*
X0141898Y0227268D01*
X0141878Y0227268D01*
X0141878Y0221268D01*
X0141078Y0221268D01*
X0141078Y0227268D01*
X0141059Y0227268D01*
X0140227Y0227159D01*
X0139417Y0226942D01*
X0141078Y0226969D02*
X0141878Y0226969D01*
X0141878Y0226170D02*
X0141078Y0226170D01*
X0141078Y0225372D02*
X0141878Y0225372D01*
X0141878Y0224573D02*
X0141078Y0224573D01*
X0141078Y0223775D02*
X0141878Y0223775D01*
X0141878Y0222976D02*
X0141078Y0222976D01*
X0141078Y0222178D02*
X0141878Y0222178D01*
X0141878Y0221379D02*
X0141078Y0221379D01*
X0141078Y0220581D02*
X0122567Y0220581D01*
X0122649Y0220741D02*
X0122868Y0221414D01*
X0122971Y0222068D01*
X0118879Y0222068D01*
X0118879Y0222868D01*
X0122971Y0222868D01*
X0122868Y0223522D01*
X0122649Y0224196D01*
X0122327Y0224827D01*
X0121911Y0225400D01*
X0121410Y0225901D01*
X0120837Y0226317D01*
X0120206Y0226638D01*
X0119532Y0226857D01*
X0118878Y0226961D01*
X0118878Y0222868D01*
X0118078Y0222868D01*
X0118078Y0222068D01*
X0113986Y0222068D01*
X0114089Y0221414D01*
X0114308Y0220741D01*
X0114630Y0220110D01*
X0115046Y0219537D01*
X0115115Y0219468D01*
X0097650Y0219468D01*
X0089234Y0211052D01*
X0089195Y0211068D01*
X0087762Y0211068D01*
X0086439Y0210520D01*
X0085427Y0209507D01*
X0084878Y0208184D01*
X0084878Y0206752D01*
X0085427Y0205429D01*
X0086439Y0204416D01*
X0087762Y0203868D01*
X0089195Y0203868D01*
X0090518Y0204416D01*
X0091530Y0205429D01*
X0092078Y0206752D01*
X0092078Y0208184D01*
X0092062Y0208224D01*
X0099307Y0215468D01*
X0114832Y0215468D01*
X0114494Y0215131D01*
X0113778Y0213403D01*
X0113778Y0211533D01*
X0114494Y0209806D01*
X0115678Y0208621D01*
X0115678Y0206315D01*
X0114494Y0205131D01*
X0113778Y0203403D01*
X0113778Y0201533D01*
X0114494Y0199806D01*
X0115816Y0198484D01*
X0117544Y0197768D01*
X0119413Y0197768D01*
X0121141Y0198484D01*
X0122463Y0199806D01*
X0123178Y0201533D01*
X0123178Y0203403D01*
X0122463Y0205131D01*
X0121278Y0206315D01*
X0121278Y0208621D01*
X0122463Y0209806D01*
X0123178Y0211533D01*
X0123178Y0213403D01*
X0122463Y0215131D01*
X0122125Y0215468D01*
X0125650Y0215468D01*
X0131478Y0209640D01*
X0131478Y0208727D01*
X0130816Y0208453D01*
X0129494Y0207131D01*
X0128778Y0205403D01*
X0128778Y0203533D01*
X0129494Y0201806D01*
X0130816Y0200484D01*
X0132544Y0199768D01*
X0134413Y0199768D01*
X0136141Y0200484D01*
X0137463Y0201806D01*
X0138178Y0203533D01*
X0138178Y0205403D01*
X0137463Y0207131D01*
X0136141Y0208453D01*
X0135478Y0208727D01*
X0135478Y0211297D01*
X0128478Y0218297D01*
X0127307Y0219468D01*
X0121842Y0219468D01*
X0121911Y0219537D01*
X0122327Y0220110D01*
X0122649Y0220741D01*
X0122856Y0221379D02*
X0135091Y0221379D01*
X0135204Y0222178D02*
X0118879Y0222178D01*
X0118878Y0222976D02*
X0118078Y0222976D01*
X0118078Y0222868D02*
X0118078Y0226961D01*
X0117425Y0226857D01*
X0116751Y0226638D01*
X0116120Y0226317D01*
X0115547Y0225901D01*
X0115046Y0225400D01*
X0114630Y0224827D01*
X0114308Y0224196D01*
X0114089Y0223522D01*
X0113986Y0222868D01*
X0118078Y0222868D01*
X0118078Y0222178D02*
X0038879Y0222178D01*
X0038879Y0222068D02*
X0038879Y0222868D01*
X0042978Y0222868D01*
X0042978Y0225753D01*
X0042883Y0226109D01*
X0042699Y0226428D01*
X0042438Y0226688D01*
X0042119Y0226873D01*
X0041763Y0226968D01*
X0038878Y0226968D01*
X0038878Y0222868D01*
X0038078Y0222868D01*
X0038078Y0222068D01*
X0033978Y0222068D01*
X0033978Y0219184D01*
X0034074Y0218828D01*
X0034258Y0218509D01*
X0034519Y0218248D01*
X0034838Y0218064D01*
X0035194Y0217968D01*
X0038078Y0217968D01*
X0038078Y0222068D01*
X0038878Y0222068D01*
X0038878Y0217968D01*
X0041763Y0217968D01*
X0042119Y0218064D01*
X0042438Y0218248D01*
X0042699Y0218509D01*
X0042883Y0218828D01*
X0042978Y0219184D01*
X0042978Y0222068D01*
X0038879Y0222068D01*
X0038878Y0221379D02*
X0038078Y0221379D01*
X0038078Y0220581D02*
X0038878Y0220581D01*
X0038878Y0219782D02*
X0038078Y0219782D01*
X0038078Y0218984D02*
X0038878Y0218984D01*
X0038878Y0218185D02*
X0038078Y0218185D01*
X0038078Y0216961D02*
X0037425Y0216857D01*
X0036751Y0216638D01*
X0036120Y0216317D01*
X0035547Y0215901D01*
X0035046Y0215400D01*
X0034630Y0214827D01*
X0034308Y0214196D01*
X0034089Y0213522D01*
X0033986Y0212868D01*
X0038078Y0212868D01*
X0038078Y0212068D01*
X0033986Y0212068D01*
X0034089Y0211414D01*
X0034308Y0210741D01*
X0034630Y0210110D01*
X0035046Y0209537D01*
X0035547Y0209036D01*
X0036120Y0208619D01*
X0036751Y0208298D01*
X0037425Y0208079D01*
X0038078Y0207975D01*
X0038078Y0212068D01*
X0038878Y0212068D01*
X0038878Y0207975D01*
X0039532Y0208079D01*
X0040206Y0208298D01*
X0040837Y0208619D01*
X0041410Y0209036D01*
X0041911Y0209537D01*
X0042327Y0210110D01*
X0042649Y0210741D01*
X0042868Y0211414D01*
X0042971Y0212068D01*
X0038879Y0212068D01*
X0038879Y0212868D01*
X0042971Y0212868D01*
X0042868Y0213522D01*
X0042649Y0214196D01*
X0042327Y0214827D01*
X0041911Y0215400D01*
X0041410Y0215901D01*
X0040837Y0216317D01*
X0040206Y0216638D01*
X0039532Y0216857D01*
X0038878Y0216961D01*
X0038878Y0212868D01*
X0038078Y0212868D01*
X0038078Y0216961D01*
X0038078Y0216588D02*
X0038878Y0216588D01*
X0038878Y0215790D02*
X0038078Y0215790D01*
X0038078Y0214991D02*
X0038878Y0214991D01*
X0038878Y0214193D02*
X0038078Y0214193D01*
X0038078Y0213394D02*
X0038878Y0213394D01*
X0038879Y0212596D02*
X0090778Y0212596D01*
X0091576Y0213394D02*
X0042888Y0213394D01*
X0042650Y0214193D02*
X0092375Y0214193D01*
X0093173Y0214991D02*
X0042208Y0214991D01*
X0041521Y0215790D02*
X0093972Y0215790D01*
X0094770Y0216588D02*
X0040304Y0216588D01*
X0042330Y0218185D02*
X0096367Y0218185D01*
X0095569Y0217387D02*
X0021078Y0217387D01*
X0021078Y0218185D02*
X0034627Y0218185D01*
X0034032Y0218984D02*
X0021078Y0218984D01*
X0021078Y0219782D02*
X0033978Y0219782D01*
X0033978Y0220581D02*
X0021078Y0220581D01*
X0021078Y0221379D02*
X0033978Y0221379D01*
X0033978Y0222868D02*
X0038078Y0222868D01*
X0038078Y0226968D01*
X0035194Y0226968D01*
X0034838Y0226873D01*
X0034519Y0226688D01*
X0034258Y0226428D01*
X0034074Y0226109D01*
X0033978Y0225753D01*
X0033978Y0222868D01*
X0033978Y0222976D02*
X0021078Y0222976D01*
X0021078Y0222178D02*
X0038078Y0222178D01*
X0038078Y0222976D02*
X0038878Y0222976D01*
X0038878Y0223775D02*
X0038078Y0223775D01*
X0038078Y0224573D02*
X0038878Y0224573D01*
X0038878Y0225372D02*
X0038078Y0225372D01*
X0038078Y0226170D02*
X0038878Y0226170D01*
X0042847Y0226170D02*
X0115918Y0226170D01*
X0115026Y0225372D02*
X0042978Y0225372D01*
X0042978Y0224573D02*
X0114501Y0224573D01*
X0114171Y0223775D02*
X0042978Y0223775D01*
X0042978Y0222976D02*
X0114003Y0222976D01*
X0114101Y0221379D02*
X0042978Y0221379D01*
X0042978Y0220581D02*
X0114390Y0220581D01*
X0114868Y0219782D02*
X0042978Y0219782D01*
X0042925Y0218984D02*
X0097166Y0218984D01*
X0098478Y0217468D02*
X0088478Y0207468D01*
X0085104Y0206208D02*
X0069567Y0206208D01*
X0068769Y0207006D02*
X0084878Y0207006D01*
X0084878Y0207805D02*
X0067970Y0207805D01*
X0068478Y0207297D02*
X0067307Y0208468D01*
X0061500Y0208468D01*
X0061500Y0208753D01*
X0060217Y0210037D01*
X0055646Y0210037D01*
X0054363Y0208753D01*
X0054363Y0208226D01*
X0054259Y0208614D01*
X0053996Y0209068D01*
X0053626Y0209439D01*
X0053172Y0209701D01*
X0052666Y0209837D01*
X0051426Y0209837D01*
X0051426Y0206868D01*
X0050626Y0206868D01*
X0050626Y0209837D01*
X0049386Y0209837D01*
X0048879Y0209701D01*
X0048426Y0209439D01*
X0048055Y0209068D01*
X0047793Y0208614D01*
X0047657Y0208108D01*
X0047657Y0206868D01*
X0050626Y0206868D01*
X0050626Y0206068D01*
X0051426Y0206068D01*
X0051426Y0203100D01*
X0052666Y0203100D01*
X0053172Y0203235D01*
X0053626Y0203497D01*
X0053996Y0203868D01*
X0054259Y0204322D01*
X0054363Y0204711D01*
X0054363Y0204183D01*
X0055646Y0202900D01*
X0060217Y0202900D01*
X0061500Y0204183D01*
X0061500Y0204468D01*
X0065650Y0204468D01*
X0068478Y0201640D01*
X0068478Y0195297D01*
X0066478Y0197297D01*
X0065307Y0198468D01*
X0061500Y0198468D01*
X0061500Y0198753D01*
X0060217Y0200037D01*
X0055646Y0200037D01*
X0054363Y0198753D01*
X0054363Y0198226D01*
X0054259Y0198614D01*
X0053996Y0199068D01*
X0053626Y0199439D01*
X0053172Y0199701D01*
X0052666Y0199837D01*
X0051426Y0199837D01*
X0051426Y0196868D01*
X0050626Y0196868D01*
X0050626Y0199837D01*
X0049386Y0199837D01*
X0048879Y0199701D01*
X0048426Y0199439D01*
X0048055Y0199068D01*
X0047793Y0198614D01*
X0047657Y0198108D01*
X0047657Y0196868D01*
X0050626Y0196868D01*
X0050626Y0196068D01*
X0051426Y0196068D01*
X0051426Y0193100D01*
X0052666Y0193100D01*
X0053172Y0193235D01*
X0053626Y0193497D01*
X0053996Y0193868D01*
X0054259Y0194322D01*
X0054363Y0194711D01*
X0054363Y0194183D01*
X0055646Y0192900D01*
X0060217Y0192900D01*
X0061500Y0194183D01*
X0061500Y0194468D01*
X0063650Y0194468D01*
X0066478Y0191640D01*
X0066478Y0185297D01*
X0064478Y0187297D01*
X0063307Y0188468D01*
X0061500Y0188468D01*
X0061500Y0188753D01*
X0060217Y0190037D01*
X0055646Y0190037D01*
X0054363Y0188753D01*
X0054363Y0188226D01*
X0054259Y0188614D01*
X0053996Y0189068D01*
X0053626Y0189439D01*
X0055048Y0189439D01*
X0054363Y0188640D02*
X0054244Y0188640D01*
X0053626Y0189439D02*
X0053172Y0189701D01*
X0052666Y0189837D01*
X0051426Y0189837D01*
X0051426Y0186868D01*
X0050626Y0186868D01*
X0050626Y0189837D01*
X0049386Y0189837D01*
X0048879Y0189701D01*
X0048426Y0189439D01*
X0048055Y0189068D01*
X0047793Y0188614D01*
X0047657Y0188108D01*
X0047657Y0186868D01*
X0050626Y0186868D01*
X0050626Y0186068D01*
X0051426Y0186068D01*
X0051426Y0183100D01*
X0052666Y0183100D01*
X0053172Y0183235D01*
X0053626Y0183497D01*
X0053996Y0183868D01*
X0054259Y0184322D01*
X0054363Y0184711D01*
X0054363Y0184183D01*
X0055646Y0182900D01*
X0060217Y0182900D01*
X0061500Y0184183D01*
X0061500Y0184468D01*
X0061650Y0184468D01*
X0064478Y0181640D01*
X0064478Y0176297D01*
X0063478Y0177297D01*
X0062307Y0178468D01*
X0061500Y0178468D01*
X0061500Y0178753D01*
X0060217Y0180037D01*
X0055646Y0180037D01*
X0054363Y0178753D01*
X0054363Y0178226D01*
X0054259Y0178614D01*
X0053996Y0179068D01*
X0053626Y0179439D01*
X0053172Y0179701D01*
X0052666Y0179837D01*
X0051426Y0179837D01*
X0051426Y0176868D01*
X0050626Y0176868D01*
X0050626Y0179837D01*
X0049386Y0179837D01*
X0048879Y0179701D01*
X0048426Y0179439D01*
X0048055Y0179068D01*
X0047793Y0178614D01*
X0047657Y0178108D01*
X0047657Y0176868D01*
X0050626Y0176868D01*
X0050626Y0176068D01*
X0051426Y0176068D01*
X0051426Y0173100D01*
X0052666Y0173100D01*
X0053172Y0173235D01*
X0053626Y0173497D01*
X0053996Y0173868D01*
X0054259Y0174322D01*
X0054363Y0174711D01*
X0054363Y0174183D01*
X0055646Y0172900D01*
X0060217Y0172900D01*
X0061218Y0173901D01*
X0062478Y0172640D01*
X0062478Y0167297D01*
X0061500Y0168275D01*
X0061500Y0168753D01*
X0060217Y0170037D01*
X0055646Y0170037D01*
X0054363Y0168753D01*
X0054363Y0168226D01*
X0054259Y0168614D01*
X0053996Y0169068D01*
X0053626Y0169439D01*
X0053172Y0169701D01*
X0052666Y0169837D01*
X0051426Y0169837D01*
X0051426Y0166868D01*
X0050626Y0166868D01*
X0050626Y0169837D01*
X0049386Y0169837D01*
X0048879Y0169701D01*
X0048426Y0169439D01*
X0048055Y0169068D01*
X0047793Y0168614D01*
X0047657Y0168108D01*
X0047657Y0166868D01*
X0050626Y0166868D01*
X0050626Y0166068D01*
X0051426Y0166068D01*
X0051426Y0163100D01*
X0052666Y0163100D01*
X0053172Y0163235D01*
X0053626Y0163497D01*
X0053996Y0163868D01*
X0054259Y0164322D01*
X0054363Y0164711D01*
X0054363Y0164183D01*
X0055646Y0162900D01*
X0060217Y0162900D01*
X0060478Y0163162D01*
X0060478Y0159775D01*
X0060217Y0160037D01*
X0055646Y0160037D01*
X0054363Y0158753D01*
X0054363Y0158226D01*
X0054259Y0158614D01*
X0053996Y0159068D01*
X0053626Y0159439D01*
X0053172Y0159701D01*
X0052666Y0159837D01*
X0051426Y0159837D01*
X0051426Y0156868D01*
X0050626Y0156868D01*
X0050626Y0159837D01*
X0049386Y0159837D01*
X0048879Y0159701D01*
X0048426Y0159439D01*
X0048055Y0159068D01*
X0047793Y0158614D01*
X0047657Y0158108D01*
X0047657Y0156868D01*
X0050626Y0156868D01*
X0050626Y0156068D01*
X0051426Y0156068D01*
X0051426Y0153100D01*
X0052666Y0153100D01*
X0053172Y0153235D01*
X0053626Y0153497D01*
X0053996Y0153868D01*
X0054259Y0154322D01*
X0054363Y0154711D01*
X0054363Y0154183D01*
X0055646Y0152900D01*
X0060217Y0152900D01*
X0061218Y0153901D01*
X0062478Y0152640D01*
X0062478Y0150580D01*
X0061847Y0150580D01*
X0060910Y0149643D01*
X0060910Y0143987D01*
X0061428Y0143468D01*
X0060910Y0142950D01*
X0060910Y0137294D01*
X0061847Y0136356D01*
X0062478Y0136356D01*
X0062478Y0100376D01*
X0061476Y0099961D01*
X0059985Y0098470D01*
X0059358Y0096955D01*
X0059205Y0097426D01*
X0058840Y0098141D01*
X0058369Y0098791D01*
X0057801Y0099358D01*
X0057151Y0099830D01*
X0056436Y0100195D01*
X0055673Y0100443D01*
X0054880Y0100568D01*
X0054878Y0100568D01*
X0054878Y0095868D01*
X0054078Y0095868D01*
X0054078Y0100568D01*
X0054077Y0100568D01*
X0053284Y0100443D01*
X0052521Y0100195D01*
X0051805Y0099830D01*
X0051156Y0099358D01*
X0050588Y0098791D01*
X0050117Y0098141D01*
X0049752Y0097426D01*
X0049599Y0096955D01*
X0048972Y0098470D01*
X0047481Y0099961D01*
X0045533Y0100768D01*
X0043424Y0100768D01*
X0041476Y0099961D01*
X0039985Y0098470D01*
X0039178Y0096522D01*
X0039178Y0094414D01*
X0039985Y0092466D01*
X0041378Y0091073D01*
X0041378Y0083328D01*
X0040740Y0083063D01*
X0038883Y0081207D01*
X0037878Y0078781D01*
X0037878Y0076155D01*
X0038883Y0073730D01*
X0040740Y0071873D01*
X0043166Y0070868D01*
X0045791Y0070868D01*
X0048217Y0071873D01*
X0050074Y0073730D01*
X0051078Y0076155D01*
X0051078Y0078781D01*
X0050074Y0081207D01*
X0048217Y0083063D01*
X0047578Y0083328D01*
X0047578Y0091073D01*
X0048972Y0092466D01*
X0049599Y0093981D01*
X0049752Y0093510D01*
X0050117Y0092795D01*
X0050588Y0092146D01*
X0051156Y0091578D01*
X0051805Y0091106D01*
X0052521Y0090742D01*
X0053284Y0090494D01*
X0054077Y0090368D01*
X0054078Y0090368D01*
X0054078Y0095068D01*
X0054878Y0095068D01*
X0054878Y0090368D01*
X0054880Y0090368D01*
X0055673Y0090494D01*
X0056436Y0090742D01*
X0057151Y0091106D01*
X0057801Y0091578D01*
X0058369Y0092146D01*
X0058840Y0092795D01*
X0059205Y0093510D01*
X0059358Y0093981D01*
X0059985Y0092466D01*
X0061476Y0090975D01*
X0063424Y0090168D01*
X0065533Y0090168D01*
X0067481Y0090975D01*
X0068972Y0092466D01*
X0069778Y0094414D01*
X0069778Y0096522D01*
X0068972Y0098470D01*
X0067481Y0099961D01*
X0066478Y0100376D01*
X0066478Y0136356D01*
X0067110Y0136356D01*
X0068047Y0137294D01*
X0068047Y0138071D01*
X0078478Y0127640D01*
X0079650Y0126468D01*
X0094650Y0126468D01*
X0098478Y0122640D01*
X0098478Y0108640D01*
X0103478Y0103640D01*
X0104650Y0102468D01*
X0108367Y0102468D01*
X0108367Y0101837D01*
X0109304Y0100900D01*
X0114960Y0100900D01*
X0115478Y0101418D01*
X0115997Y0100900D01*
X0121653Y0100900D01*
X0122590Y0101837D01*
X0122590Y0102468D01*
X0129220Y0102468D01*
X0129494Y0101806D01*
X0130816Y0100484D01*
X0132544Y0099768D01*
X0134413Y0099768D01*
X0136141Y0100484D01*
X0137463Y0101806D01*
X0138178Y0103533D01*
X0138178Y0105403D01*
X0137463Y0107131D01*
X0136141Y0108453D01*
X0134413Y0109168D01*
X0132544Y0109168D01*
X0130816Y0108453D01*
X0129494Y0107131D01*
X0129220Y0106468D01*
X0122590Y0106468D01*
X0122590Y0107099D01*
X0121653Y0108037D01*
X0115997Y0108037D01*
X0115478Y0107518D01*
X0114960Y0108037D01*
X0109304Y0108037D01*
X0108367Y0107099D01*
X0108367Y0106468D01*
X0106307Y0106468D01*
X0102478Y0110297D01*
X0102478Y0114640D01*
X0103478Y0113640D01*
X0104650Y0112468D01*
X0108367Y0112468D01*
X0108367Y0111837D01*
X0109304Y0110900D01*
X0114960Y0110900D01*
X0115478Y0111418D01*
X0115997Y0110900D01*
X0121653Y0110900D01*
X0122590Y0111837D01*
X0122590Y0112468D01*
X0129220Y0112468D01*
X0129494Y0111806D01*
X0130816Y0110484D01*
X0132544Y0109768D01*
X0134413Y0109768D01*
X0136141Y0110484D01*
X0137463Y0111806D01*
X0138178Y0113533D01*
X0138178Y0115403D01*
X0137463Y0117131D01*
X0136141Y0118453D01*
X0134413Y0119168D01*
X0132544Y0119168D01*
X0130816Y0118453D01*
X0129494Y0117131D01*
X0129220Y0116468D01*
X0122590Y0116468D01*
X0122590Y0117099D01*
X0121653Y0118037D01*
X0115997Y0118037D01*
X0115478Y0117518D01*
X0114960Y0118037D01*
X0109304Y0118037D01*
X0108367Y0117099D01*
X0108367Y0116468D01*
X0106307Y0116468D01*
X0104478Y0118297D01*
X0104478Y0122640D01*
X0104650Y0122468D01*
X0108367Y0122468D01*
X0108367Y0121837D01*
X0109304Y0120900D01*
X0114960Y0120900D01*
X0115478Y0121418D01*
X0115997Y0120900D01*
X0121653Y0120900D01*
X0122590Y0121837D01*
X0122590Y0122468D01*
X0129220Y0122468D01*
X0129494Y0121806D01*
X0130816Y0120484D01*
X0132544Y0119768D01*
X0134413Y0119768D01*
X0136141Y0120484D01*
X0137463Y0121806D01*
X0138178Y0123533D01*
X0138178Y0125403D01*
X0137463Y0127131D01*
X0136141Y0128453D01*
X0134413Y0129168D01*
X0132544Y0129168D01*
X0130816Y0128453D01*
X0129494Y0127131D01*
X0129220Y0126468D01*
X0122590Y0126468D01*
X0122590Y0127099D01*
X0121653Y0128037D01*
X0115997Y0128037D01*
X0115478Y0127518D01*
X0114960Y0128037D01*
X0109304Y0128037D01*
X0108367Y0127099D01*
X0108367Y0126468D01*
X0106307Y0126468D01*
X0100307Y0132468D01*
X0108367Y0132468D01*
X0108367Y0131837D01*
X0109304Y0130900D01*
X0114960Y0130900D01*
X0115478Y0131418D01*
X0115997Y0130900D01*
X0121653Y0130900D01*
X0122590Y0131837D01*
X0122590Y0132468D01*
X0129220Y0132468D01*
X0129494Y0131806D01*
X0130816Y0130484D01*
X0132544Y0129768D01*
X0134413Y0129768D01*
X0136141Y0130484D01*
X0137463Y0131806D01*
X0138178Y0133533D01*
X0138178Y0135403D01*
X0137463Y0137131D01*
X0136141Y0138453D01*
X0134413Y0139168D01*
X0132544Y0139168D01*
X0130816Y0138453D01*
X0129494Y0137131D01*
X0129220Y0136468D01*
X0122590Y0136468D01*
X0122590Y0137099D01*
X0121653Y0138037D01*
X0115997Y0138037D01*
X0115478Y0137518D01*
X0114960Y0138037D01*
X0109304Y0138037D01*
X0108367Y0137099D01*
X0108367Y0136468D01*
X0084307Y0136468D01*
X0077478Y0143297D01*
X0077478Y0152640D01*
X0081478Y0148640D01*
X0082650Y0147468D01*
X0092650Y0147468D01*
X0096478Y0143640D01*
X0097650Y0142468D01*
X0108367Y0142468D01*
X0108367Y0141837D01*
X0109304Y0140900D01*
X0114960Y0140900D01*
X0115478Y0141418D01*
X0115997Y0140900D01*
X0121653Y0140900D01*
X0122590Y0141837D01*
X0122590Y0142468D01*
X0129220Y0142468D01*
X0129494Y0141806D01*
X0130816Y0140484D01*
X0132544Y0139768D01*
X0134413Y0139768D01*
X0136141Y0140484D01*
X0137463Y0141806D01*
X0138178Y0143533D01*
X0138178Y0145403D01*
X0137463Y0147131D01*
X0136141Y0148453D01*
X0134413Y0149168D01*
X0132544Y0149168D01*
X0130816Y0148453D01*
X0129494Y0147131D01*
X0129220Y0146468D01*
X0122590Y0146468D01*
X0122590Y0147099D01*
X0121653Y0148037D01*
X0115997Y0148037D01*
X0115478Y0147518D01*
X0114960Y0148037D01*
X0109304Y0148037D01*
X0108367Y0147099D01*
X0108367Y0146468D01*
X0099307Y0146468D01*
X0094307Y0151468D01*
X0084307Y0151468D01*
X0072478Y0163297D01*
X0072478Y0203297D01*
X0068478Y0207297D01*
X0066478Y0206468D02*
X0057931Y0206468D01*
X0054363Y0204611D02*
X0054336Y0204611D01*
X0053941Y0203812D02*
X0054733Y0203812D01*
X0055532Y0203014D02*
X0043178Y0203014D01*
X0043178Y0203403D02*
X0042463Y0205131D01*
X0041141Y0206453D01*
X0039413Y0207168D01*
X0037544Y0207168D01*
X0035816Y0206453D01*
X0034494Y0205131D01*
X0033778Y0203403D01*
X0033778Y0201533D01*
X0034494Y0199806D01*
X0035816Y0198484D01*
X0037544Y0197768D01*
X0039413Y0197768D01*
X0041141Y0198484D01*
X0042463Y0199806D01*
X0043178Y0201533D01*
X0043178Y0203403D01*
X0043009Y0203812D02*
X0048111Y0203812D01*
X0048055Y0203868D02*
X0048426Y0203497D01*
X0048879Y0203235D01*
X0049386Y0203100D01*
X0050626Y0203100D01*
X0050626Y0206068D01*
X0047657Y0206068D01*
X0047657Y0204828D01*
X0047793Y0204322D01*
X0048055Y0203868D01*
X0047715Y0204611D02*
X0042678Y0204611D01*
X0042184Y0205409D02*
X0047657Y0205409D01*
X0047657Y0207006D02*
X0039804Y0207006D01*
X0041386Y0206208D02*
X0050626Y0206208D01*
X0050626Y0207006D02*
X0051426Y0207006D01*
X0051426Y0207805D02*
X0050626Y0207805D01*
X0050626Y0208603D02*
X0051426Y0208603D01*
X0051426Y0209402D02*
X0050626Y0209402D01*
X0048388Y0209402D02*
X0041776Y0209402D01*
X0042373Y0210200D02*
X0086119Y0210200D01*
X0085383Y0209402D02*
X0060851Y0209402D01*
X0061500Y0208603D02*
X0085052Y0208603D01*
X0085446Y0205409D02*
X0070366Y0205409D01*
X0071164Y0204611D02*
X0086245Y0204611D01*
X0090712Y0204611D02*
X0114279Y0204611D01*
X0113948Y0203812D02*
X0071963Y0203812D01*
X0072478Y0203014D02*
X0113778Y0203014D01*
X0113778Y0202215D02*
X0072478Y0202215D01*
X0072478Y0201417D02*
X0076164Y0201417D01*
X0075878Y0201131D02*
X0076816Y0202068D01*
X0108141Y0202068D01*
X0109078Y0201131D01*
X0109078Y0190905D01*
X0108141Y0189968D01*
X0076816Y0189968D01*
X0075878Y0190905D01*
X0075878Y0201131D01*
X0075878Y0200618D02*
X0072478Y0200618D01*
X0072478Y0199820D02*
X0075878Y0199820D01*
X0075878Y0199021D02*
X0072478Y0199021D01*
X0072478Y0198223D02*
X0075878Y0198223D01*
X0075878Y0197424D02*
X0072478Y0197424D01*
X0072478Y0196626D02*
X0075878Y0196626D01*
X0075878Y0195827D02*
X0072478Y0195827D01*
X0072478Y0195029D02*
X0075878Y0195029D01*
X0075878Y0194230D02*
X0072478Y0194230D01*
X0072478Y0193431D02*
X0075878Y0193431D01*
X0075878Y0192633D02*
X0072478Y0192633D01*
X0072478Y0191834D02*
X0075878Y0191834D01*
X0075878Y0191036D02*
X0072478Y0191036D01*
X0072478Y0190237D02*
X0076546Y0190237D01*
X0072478Y0189439D02*
X0115144Y0189439D01*
X0115046Y0189537D02*
X0115547Y0189036D01*
X0116120Y0188619D01*
X0116751Y0188298D01*
X0117425Y0188079D01*
X0118078Y0187975D01*
X0118078Y0192068D01*
X0113986Y0192068D01*
X0114089Y0191414D01*
X0114308Y0190741D01*
X0114630Y0190110D01*
X0115046Y0189537D01*
X0114565Y0190237D02*
X0108410Y0190237D01*
X0109078Y0191036D02*
X0114212Y0191036D01*
X0114023Y0191834D02*
X0109078Y0191834D01*
X0109078Y0192633D02*
X0118078Y0192633D01*
X0118078Y0192868D02*
X0118078Y0192068D01*
X0118878Y0192068D01*
X0118878Y0187975D01*
X0119532Y0188079D01*
X0120206Y0188298D01*
X0120837Y0188619D01*
X0121410Y0189036D01*
X0121911Y0189537D01*
X0122327Y0190110D01*
X0122649Y0190741D01*
X0122868Y0191414D01*
X0122971Y0192068D01*
X0118879Y0192068D01*
X0118879Y0192868D01*
X0122971Y0192868D01*
X0122868Y0193522D01*
X0122649Y0194196D01*
X0122327Y0194827D01*
X0121911Y0195400D01*
X0121410Y0195901D01*
X0120837Y0196317D01*
X0120206Y0196638D01*
X0119532Y0196857D01*
X0118878Y0196961D01*
X0118878Y0192868D01*
X0118078Y0192868D01*
X0113986Y0192868D01*
X0114089Y0193522D01*
X0114308Y0194196D01*
X0114630Y0194827D01*
X0115046Y0195400D01*
X0115547Y0195901D01*
X0116120Y0196317D01*
X0116751Y0196638D01*
X0117425Y0196857D01*
X0118078Y0196961D01*
X0118078Y0192868D01*
X0118078Y0193431D02*
X0118878Y0193431D01*
X0118879Y0192633D02*
X0129151Y0192633D01*
X0128821Y0193431D02*
X0122882Y0193431D01*
X0122631Y0194230D02*
X0128778Y0194230D01*
X0128778Y0193533D02*
X0128778Y0195403D01*
X0129494Y0197131D01*
X0130816Y0198453D01*
X0132544Y0199168D01*
X0134413Y0199168D01*
X0136141Y0198453D01*
X0137463Y0197131D01*
X0138178Y0195403D01*
X0138178Y0193533D01*
X0137463Y0191806D01*
X0136141Y0190484D01*
X0134413Y0189768D01*
X0132544Y0189768D01*
X0130816Y0190484D01*
X0129494Y0191806D01*
X0128778Y0193533D01*
X0128778Y0195029D02*
X0122181Y0195029D01*
X0121484Y0195827D02*
X0128954Y0195827D01*
X0129285Y0196626D02*
X0120231Y0196626D01*
X0118878Y0196626D02*
X0118078Y0196626D01*
X0118078Y0195827D02*
X0118878Y0195827D01*
X0118878Y0195029D02*
X0118078Y0195029D01*
X0118078Y0194230D02*
X0118878Y0194230D01*
X0118878Y0191834D02*
X0118078Y0191834D01*
X0118078Y0191036D02*
X0118878Y0191036D01*
X0118878Y0190237D02*
X0118078Y0190237D01*
X0118078Y0189439D02*
X0118878Y0189439D01*
X0118878Y0188640D02*
X0118078Y0188640D01*
X0117544Y0187168D02*
X0115816Y0186453D01*
X0114494Y0185131D01*
X0113778Y0183403D01*
X0113778Y0181533D01*
X0114494Y0179806D01*
X0115816Y0178484D01*
X0117544Y0177768D01*
X0119413Y0177768D01*
X0121141Y0178484D01*
X0122463Y0179806D01*
X0123178Y0181533D01*
X0123178Y0183403D01*
X0122463Y0185131D01*
X0121141Y0186453D01*
X0119413Y0187168D01*
X0117544Y0187168D01*
X0117242Y0187043D02*
X0072478Y0187043D01*
X0072478Y0186245D02*
X0115608Y0186245D01*
X0114810Y0185446D02*
X0072478Y0185446D01*
X0072478Y0184648D02*
X0114294Y0184648D01*
X0113963Y0183849D02*
X0072478Y0183849D01*
X0072478Y0183051D02*
X0113778Y0183051D01*
X0113778Y0182252D02*
X0072478Y0182252D01*
X0072478Y0181454D02*
X0113811Y0181454D01*
X0114142Y0180655D02*
X0072478Y0180655D01*
X0072478Y0179857D02*
X0114473Y0179857D01*
X0115242Y0179058D02*
X0072478Y0179058D01*
X0072478Y0178260D02*
X0116357Y0178260D01*
X0116323Y0176663D02*
X0072478Y0176663D01*
X0072478Y0177461D02*
X0129825Y0177461D01*
X0129494Y0177131D02*
X0128778Y0175403D01*
X0128778Y0173533D01*
X0129494Y0171806D01*
X0130816Y0170484D01*
X0132544Y0169768D01*
X0134413Y0169768D01*
X0136141Y0170484D01*
X0137463Y0171806D01*
X0138178Y0173533D01*
X0138178Y0175403D01*
X0137463Y0177131D01*
X0136141Y0178453D01*
X0134413Y0179168D01*
X0132544Y0179168D01*
X0130816Y0178453D01*
X0129494Y0177131D01*
X0129300Y0176663D02*
X0120634Y0176663D01*
X0121141Y0176453D02*
X0119413Y0177168D01*
X0117544Y0177168D01*
X0115816Y0176453D01*
X0114494Y0175131D01*
X0113778Y0173403D01*
X0113778Y0171533D01*
X0114494Y0169806D01*
X0115816Y0168484D01*
X0117544Y0167768D01*
X0119413Y0167768D01*
X0121141Y0168484D01*
X0122463Y0169806D01*
X0123178Y0171533D01*
X0123178Y0173403D01*
X0122463Y0175131D01*
X0121141Y0176453D01*
X0121729Y0175864D02*
X0128969Y0175864D01*
X0128778Y0175066D02*
X0122490Y0175066D01*
X0122821Y0174267D02*
X0128778Y0174267D01*
X0128805Y0173469D02*
X0123151Y0173469D01*
X0123178Y0172670D02*
X0129136Y0172670D01*
X0129467Y0171872D02*
X0123178Y0171872D01*
X0122988Y0171073D02*
X0130227Y0171073D01*
X0131321Y0170275D02*
X0122657Y0170275D01*
X0122133Y0169476D02*
X0147132Y0169476D01*
X0147132Y0168678D02*
X0135598Y0168678D01*
X0136141Y0168453D02*
X0134413Y0169168D01*
X0132544Y0169168D01*
X0130816Y0168453D01*
X0129494Y0167131D01*
X0128778Y0165403D01*
X0128778Y0163533D01*
X0129494Y0161806D01*
X0130816Y0160484D01*
X0132544Y0159768D01*
X0134413Y0159768D01*
X0136141Y0160484D01*
X0137463Y0161806D01*
X0138178Y0163533D01*
X0138178Y0165403D01*
X0137463Y0167131D01*
X0136141Y0168453D01*
X0136714Y0167879D02*
X0146146Y0167879D01*
X0146304Y0168037D02*
X0145367Y0167099D01*
X0145367Y0161837D01*
X0146304Y0160900D01*
X0147132Y0160900D01*
X0147132Y0158950D01*
X0145650Y0157468D01*
X0145547Y0157468D01*
X0145530Y0157507D01*
X0144518Y0158520D01*
X0143195Y0159068D01*
X0141762Y0159068D01*
X0140439Y0158520D01*
X0139427Y0157507D01*
X0138878Y0156184D01*
X0138878Y0154752D01*
X0139427Y0153429D01*
X0140439Y0152416D01*
X0141762Y0151868D01*
X0143195Y0151868D01*
X0144518Y0152416D01*
X0145530Y0153429D01*
X0145547Y0153468D01*
X0147307Y0153468D01*
X0148478Y0154640D01*
X0151132Y0157293D01*
X0151132Y0160900D01*
X0151960Y0160900D01*
X0152478Y0161418D01*
X0152997Y0160900D01*
X0158653Y0160900D01*
X0159590Y0161837D01*
X0159590Y0162468D01*
X0160307Y0162468D01*
X0164164Y0166325D01*
X0168204Y0166325D01*
X0169141Y0167262D01*
X0169141Y0173706D01*
X0168941Y0173906D01*
X0168941Y0174421D01*
X0168941Y0175196D01*
X0168846Y0175552D01*
X0168662Y0175871D01*
X0168401Y0176132D01*
X0168082Y0176316D01*
X0167726Y0176411D01*
X0166164Y0176411D01*
X0166164Y0174643D01*
X0166163Y0174643D01*
X0166163Y0176411D01*
X0164601Y0176411D01*
X0164245Y0176316D01*
X0163926Y0176132D01*
X0163665Y0175871D01*
X0163481Y0175552D01*
X0163386Y0175196D01*
X0163386Y0174421D01*
X0163901Y0174421D01*
X0163901Y0174421D01*
X0163386Y0174421D01*
X0163386Y0173906D01*
X0163186Y0173706D01*
X0163186Y0173590D01*
X0160307Y0176468D01*
X0159590Y0176468D01*
X0159590Y0177099D01*
X0158653Y0178037D01*
X0152997Y0178037D01*
X0152478Y0177518D01*
X0151960Y0178037D01*
X0151132Y0178037D01*
X0151132Y0178293D01*
X0156653Y0183815D01*
X0157825Y0184986D01*
X0157825Y0187900D01*
X0158653Y0187900D01*
X0159590Y0188837D01*
X0159590Y0189468D01*
X0161307Y0189468D01*
X0170478Y0198640D01*
X0170478Y0200821D01*
X0170816Y0200484D01*
X0171478Y0200209D01*
X0171478Y0195037D01*
X0169304Y0195037D01*
X0168367Y0194099D01*
X0168367Y0188837D01*
X0169304Y0187900D01*
X0169478Y0187900D01*
X0169478Y0169640D01*
X0170650Y0168468D01*
X0172603Y0166515D01*
X0174562Y0166515D01*
X0174753Y0166325D01*
X0178834Y0166325D01*
X0179771Y0167262D01*
X0179771Y0170468D01*
X0183650Y0170468D01*
X0186650Y0167468D01*
X0189832Y0167468D01*
X0189494Y0167131D01*
X0188778Y0165403D01*
X0188778Y0163533D01*
X0189053Y0162871D01*
X0184650Y0158468D01*
X0183478Y0157297D01*
X0183478Y0148297D01*
X0179650Y0144468D01*
X0176653Y0144468D01*
X0176653Y0149233D01*
X0175716Y0150171D01*
X0171241Y0150171D01*
X0170539Y0149468D01*
X0168547Y0149468D01*
X0168530Y0149507D01*
X0167518Y0150520D01*
X0166195Y0151068D01*
X0164762Y0151068D01*
X0163439Y0150520D01*
X0162427Y0149507D01*
X0162410Y0149468D01*
X0159047Y0149468D01*
X0159047Y0149643D01*
X0158110Y0150580D01*
X0152847Y0150580D01*
X0151910Y0149643D01*
X0151910Y0143987D01*
X0152428Y0143468D01*
X0151910Y0142950D01*
X0151910Y0137294D01*
X0152847Y0136356D01*
X0153478Y0136356D01*
X0153478Y0136297D01*
X0151650Y0134468D01*
X0151547Y0134468D01*
X0151530Y0134507D01*
X0150518Y0135520D01*
X0149195Y0136068D01*
X0147762Y0136068D01*
X0146439Y0135520D01*
X0145427Y0134507D01*
X0144878Y0133184D01*
X0144878Y0131752D01*
X0144895Y0131713D01*
X0144478Y0131297D01*
X0144478Y0121580D01*
X0143847Y0121580D01*
X0142910Y0120643D01*
X0142910Y0114987D01*
X0143428Y0114468D01*
X0142910Y0113950D01*
X0142910Y0108294D01*
X0143847Y0107356D01*
X0144478Y0107356D01*
X0144478Y0103640D01*
X0148478Y0099640D01*
X0149650Y0098468D01*
X0169307Y0098468D01*
X0172307Y0101468D01*
X0173478Y0102640D01*
X0173478Y0107576D01*
X0173609Y0107541D01*
X0176254Y0107541D01*
X0176254Y0109531D01*
X0176254Y0109531D01*
X0176254Y0107541D01*
X0178899Y0107541D01*
X0179255Y0107636D01*
X0179574Y0107820D01*
X0179835Y0108081D01*
X0180019Y0108400D01*
X0180115Y0108756D01*
X0180115Y0109531D01*
X0178981Y0109531D01*
X0178981Y0109531D01*
X0180115Y0109531D01*
X0180115Y0110306D01*
X0180059Y0110515D01*
X0180115Y0110725D01*
X0180115Y0111468D01*
X0184307Y0111468D01*
X0185478Y0112640D01*
X0188478Y0115640D01*
X0188478Y0136640D01*
X0191881Y0140043D01*
X0192544Y0139768D01*
X0194413Y0139768D01*
X0196141Y0140484D01*
X0197463Y0141806D01*
X0197478Y0141843D01*
X0197478Y0141297D01*
X0195076Y0138894D01*
X0194413Y0139168D01*
X0192544Y0139168D01*
X0190816Y0138453D01*
X0189494Y0137131D01*
X0188778Y0135403D01*
X0188778Y0133533D01*
X0189494Y0131806D01*
X0190816Y0130484D01*
X0192544Y0129768D01*
X0194413Y0129768D01*
X0196141Y0130484D01*
X0197463Y0131806D01*
X0198178Y0133533D01*
X0198178Y0135403D01*
X0197904Y0136065D01*
X0199478Y0137640D01*
X0199478Y0118297D01*
X0197712Y0116530D01*
X0197463Y0117131D01*
X0196141Y0118453D01*
X0194413Y0119168D01*
X0192544Y0119168D01*
X0190816Y0118453D01*
X0189494Y0117131D01*
X0188778Y0115403D01*
X0188778Y0113533D01*
X0189494Y0111806D01*
X0190816Y0110484D01*
X0192544Y0109768D01*
X0194413Y0109768D01*
X0196141Y0110484D01*
X0197463Y0111806D01*
X0197737Y0112468D01*
X0199307Y0112468D01*
X0202307Y0115468D01*
X0203478Y0116640D01*
X0203478Y0177297D01*
X0202307Y0178468D01*
X0200478Y0180297D01*
X0199307Y0181468D01*
X0197125Y0181468D01*
X0197463Y0181806D01*
X0198178Y0183533D01*
X0198178Y0185403D01*
X0197463Y0187131D01*
X0196141Y0188453D01*
X0194413Y0189168D01*
X0192544Y0189168D01*
X0190816Y0188453D01*
X0189494Y0187131D01*
X0188778Y0185403D01*
X0188778Y0183533D01*
X0189494Y0181806D01*
X0189832Y0181468D01*
X0188650Y0181468D01*
X0183650Y0176468D01*
X0178977Y0176468D01*
X0178834Y0176611D01*
X0175478Y0176611D01*
X0175478Y0180140D01*
X0175847Y0180508D01*
X0176439Y0179916D01*
X0177762Y0179368D01*
X0179195Y0179368D01*
X0180518Y0179916D01*
X0181530Y0180929D01*
X0182078Y0182252D01*
X0182078Y0183684D01*
X0181530Y0185007D01*
X0180518Y0186020D01*
X0180478Y0186036D01*
X0180478Y0187900D01*
X0181653Y0187900D01*
X0182590Y0188837D01*
X0182590Y0194099D01*
X0181653Y0195037D01*
X0180478Y0195037D01*
X0180478Y0200821D01*
X0180816Y0200484D01*
X0182544Y0199768D01*
X0184413Y0199768D01*
X0186141Y0200484D01*
X0187463Y0201806D01*
X0188178Y0203533D01*
X0188178Y0205403D01*
X0187463Y0207131D01*
X0186141Y0208453D01*
X0184413Y0209168D01*
X0182544Y0209168D01*
X0180816Y0208453D01*
X0180478Y0208115D01*
X0180478Y0214268D01*
X0182791Y0214268D01*
X0185217Y0215273D01*
X0187074Y0217130D01*
X0188078Y0219555D01*
X0188078Y0222181D01*
X0187074Y0224607D01*
X0185217Y0226463D01*
X0182791Y0227468D01*
X0180166Y0227468D01*
X0177740Y0226463D01*
X0175883Y0224607D01*
X0174878Y0222181D01*
X0174878Y0219555D01*
X0175883Y0217130D01*
X0176478Y0216534D01*
X0176478Y0208115D01*
X0176141Y0208453D01*
X0174413Y0209168D01*
X0172544Y0209168D01*
X0170816Y0208453D01*
X0170478Y0208115D01*
X0170478Y0214697D01*
X0167358Y0217817D01*
X0168078Y0219555D01*
X0168078Y0222181D01*
X0167074Y0224607D01*
X0165217Y0226463D01*
X0162791Y0227468D01*
X0160166Y0227468D01*
X0157740Y0226463D01*
X0155883Y0224607D01*
X0154878Y0222181D01*
X0154878Y0219555D01*
X0155883Y0217130D01*
X0157740Y0215273D01*
X0160166Y0214268D01*
X0162791Y0214268D01*
X0164530Y0214988D01*
X0166478Y0213040D01*
X0166478Y0207832D01*
X0166410Y0207901D01*
X0165837Y0208317D01*
X0165206Y0208638D01*
X0164532Y0208857D01*
X0163878Y0208961D01*
X0163878Y0204868D01*
X0163078Y0204868D01*
X0163078Y0204068D01*
X0158986Y0204068D01*
X0159089Y0203414D01*
X0159308Y0202741D01*
X0159630Y0202110D01*
X0160046Y0201537D01*
X0160547Y0201036D01*
X0161120Y0200619D01*
X0161751Y0200298D01*
X0162425Y0200079D01*
X0163078Y0199975D01*
X0163078Y0204068D01*
X0163878Y0204068D01*
X0163878Y0199975D01*
X0164532Y0200079D01*
X0165206Y0200298D01*
X0165837Y0200619D01*
X0166410Y0201036D01*
X0166478Y0201104D01*
X0166478Y0200297D01*
X0159650Y0193468D01*
X0159590Y0193468D01*
X0159590Y0194099D01*
X0158653Y0195037D01*
X0152997Y0195037D01*
X0152337Y0194377D01*
X0152157Y0194557D01*
X0151838Y0194741D01*
X0151482Y0194837D01*
X0149532Y0194837D01*
X0149532Y0191868D01*
X0148732Y0191868D01*
X0148732Y0191068D01*
X0149532Y0191068D01*
X0149532Y0188100D01*
X0151482Y0188100D01*
X0151838Y0188195D01*
X0152157Y0188379D01*
X0152337Y0188559D01*
X0152997Y0187900D01*
X0153825Y0187900D01*
X0153825Y0186643D01*
X0148304Y0181122D01*
X0148304Y0181122D01*
X0147132Y0179950D01*
X0147132Y0178037D01*
X0146304Y0178037D01*
X0145367Y0177099D01*
X0145367Y0171837D01*
X0146304Y0170900D01*
X0147132Y0170900D01*
X0147132Y0168037D01*
X0146304Y0168037D01*
X0145367Y0167081D02*
X0137484Y0167081D01*
X0137814Y0166282D02*
X0145367Y0166282D01*
X0145367Y0165484D02*
X0138145Y0165484D01*
X0138178Y0164685D02*
X0145367Y0164685D01*
X0145367Y0163887D02*
X0138178Y0163887D01*
X0137994Y0163088D02*
X0145367Y0163088D01*
X0145367Y0162290D02*
X0137663Y0162290D01*
X0137148Y0161491D02*
X0145713Y0161491D01*
X0147132Y0160693D02*
X0136350Y0160693D01*
X0134717Y0159894D02*
X0147132Y0159894D01*
X0147132Y0159096D02*
X0134589Y0159096D01*
X0134413Y0159168D02*
X0132544Y0159168D01*
X0130816Y0158453D01*
X0129494Y0157131D01*
X0128778Y0155403D01*
X0128778Y0153533D01*
X0129494Y0151806D01*
X0130816Y0150484D01*
X0132544Y0149768D01*
X0134413Y0149768D01*
X0136141Y0150484D01*
X0137463Y0151806D01*
X0138178Y0153533D01*
X0138178Y0155403D01*
X0137463Y0157131D01*
X0136141Y0158453D01*
X0134413Y0159168D01*
X0132368Y0159096D02*
X0076680Y0159096D01*
X0075881Y0159894D02*
X0132240Y0159894D01*
X0130607Y0160693D02*
X0075083Y0160693D01*
X0074284Y0161491D02*
X0129809Y0161491D01*
X0129294Y0162290D02*
X0073486Y0162290D01*
X0072687Y0163088D02*
X0128963Y0163088D01*
X0128778Y0163887D02*
X0072478Y0163887D01*
X0072478Y0164685D02*
X0128778Y0164685D01*
X0128812Y0165484D02*
X0072478Y0165484D01*
X0072478Y0166282D02*
X0129143Y0166282D01*
X0129473Y0167081D02*
X0072478Y0167081D01*
X0072478Y0167879D02*
X0117276Y0167879D01*
X0115622Y0168678D02*
X0072478Y0168678D01*
X0072478Y0169476D02*
X0114824Y0169476D01*
X0114300Y0170275D02*
X0072478Y0170275D01*
X0072478Y0171073D02*
X0113969Y0171073D01*
X0113778Y0171872D02*
X0072478Y0171872D01*
X0072478Y0172670D02*
X0113778Y0172670D01*
X0113806Y0173469D02*
X0072478Y0173469D01*
X0072478Y0174267D02*
X0114136Y0174267D01*
X0114467Y0175066D02*
X0072478Y0175066D01*
X0072478Y0175864D02*
X0115228Y0175864D01*
X0120600Y0178260D02*
X0130623Y0178260D01*
X0132278Y0179058D02*
X0121715Y0179058D01*
X0122484Y0179857D02*
X0132330Y0179857D01*
X0132544Y0179768D02*
X0134413Y0179768D01*
X0136141Y0180484D01*
X0137463Y0181806D01*
X0138178Y0183533D01*
X0138178Y0185403D01*
X0137463Y0187131D01*
X0136141Y0188453D01*
X0134413Y0189168D01*
X0132544Y0189168D01*
X0130816Y0188453D01*
X0129494Y0187131D01*
X0128778Y0185403D01*
X0128778Y0183533D01*
X0129494Y0181806D01*
X0130816Y0180484D01*
X0132544Y0179768D01*
X0134627Y0179857D02*
X0147132Y0179857D01*
X0147132Y0179058D02*
X0134679Y0179058D01*
X0136334Y0178260D02*
X0147132Y0178260D01*
X0145728Y0177461D02*
X0137132Y0177461D01*
X0137657Y0176663D02*
X0145367Y0176663D01*
X0145367Y0175864D02*
X0137987Y0175864D01*
X0138178Y0175066D02*
X0145367Y0175066D01*
X0145367Y0174267D02*
X0138178Y0174267D01*
X0138152Y0173469D02*
X0145367Y0173469D01*
X0145367Y0172670D02*
X0137821Y0172670D01*
X0137490Y0171872D02*
X0145367Y0171872D01*
X0146130Y0171073D02*
X0136730Y0171073D01*
X0135636Y0170275D02*
X0147132Y0170275D01*
X0149132Y0174468D02*
X0149132Y0164468D01*
X0149132Y0158122D01*
X0146478Y0155468D01*
X0142478Y0155468D01*
X0139092Y0156700D02*
X0137641Y0156700D01*
X0137972Y0155901D02*
X0138878Y0155901D01*
X0138878Y0155103D02*
X0138178Y0155103D01*
X0138178Y0154304D02*
X0139064Y0154304D01*
X0139395Y0153506D02*
X0138167Y0153506D01*
X0137836Y0152707D02*
X0140148Y0152707D01*
X0141664Y0151909D02*
X0137506Y0151909D01*
X0136767Y0151110D02*
X0183478Y0151110D01*
X0183478Y0150312D02*
X0167726Y0150312D01*
X0168524Y0149513D02*
X0170584Y0149513D01*
X0172809Y0147468D02*
X0173478Y0146799D01*
X0172809Y0147468D02*
X0165478Y0147468D01*
X0156132Y0147468D01*
X0155478Y0146815D01*
X0159047Y0145468D02*
X0162410Y0145468D01*
X0162427Y0145429D01*
X0163439Y0144416D01*
X0164762Y0143868D01*
X0166195Y0143868D01*
X0167518Y0144416D01*
X0168530Y0145429D01*
X0168547Y0145468D01*
X0170304Y0145468D01*
X0170304Y0144365D01*
X0171241Y0143427D01*
X0172609Y0143427D01*
X0171478Y0142297D01*
X0171478Y0141703D01*
X0170126Y0141703D01*
X0170126Y0138919D01*
X0169351Y0138919D01*
X0169351Y0141703D01*
X0167979Y0141703D01*
X0167623Y0141607D01*
X0167304Y0141423D01*
X0167043Y0141162D01*
X0166859Y0140843D01*
X0166763Y0140487D01*
X0166763Y0138919D01*
X0169351Y0138919D01*
X0169351Y0138144D01*
X0166763Y0138144D01*
X0166763Y0136575D01*
X0166859Y0136219D01*
X0167043Y0135900D01*
X0167304Y0135639D01*
X0167623Y0135455D01*
X0167979Y0135360D01*
X0169351Y0135360D01*
X0169351Y0138144D01*
X0170126Y0138144D01*
X0170126Y0135360D01*
X0170541Y0135360D01*
X0169825Y0134643D01*
X0169825Y0130037D01*
X0168997Y0130037D01*
X0168478Y0129518D01*
X0167960Y0130037D01*
X0162304Y0130037D01*
X0161367Y0129099D01*
X0161367Y0123837D01*
X0162304Y0122900D01*
X0163478Y0122900D01*
X0163478Y0119596D01*
X0157579Y0119596D01*
X0157389Y0119405D01*
X0150047Y0119405D01*
X0150047Y0120643D01*
X0149110Y0121580D01*
X0148478Y0121580D01*
X0148478Y0128868D01*
X0149195Y0128868D01*
X0150518Y0129416D01*
X0151530Y0130429D01*
X0151547Y0130468D01*
X0153307Y0130468D01*
X0156307Y0133468D01*
X0157478Y0134640D01*
X0157478Y0136356D01*
X0158110Y0136356D01*
X0159047Y0137294D01*
X0159047Y0142950D01*
X0158529Y0143468D01*
X0159047Y0143987D01*
X0159047Y0145468D01*
X0159047Y0144722D02*
X0163133Y0144722D01*
X0164628Y0143924D02*
X0158984Y0143924D01*
X0158871Y0143125D02*
X0172307Y0143125D01*
X0171509Y0142327D02*
X0159047Y0142327D01*
X0159047Y0141528D02*
X0167486Y0141528D01*
X0166829Y0140730D02*
X0159047Y0140730D01*
X0159047Y0139931D02*
X0166763Y0139931D01*
X0166763Y0139133D02*
X0159047Y0139133D01*
X0159047Y0138334D02*
X0169351Y0138334D01*
X0169351Y0137536D02*
X0170126Y0137536D01*
X0170126Y0136737D02*
X0169351Y0136737D01*
X0169351Y0135939D02*
X0170126Y0135939D01*
X0170322Y0135140D02*
X0157478Y0135140D01*
X0157478Y0135939D02*
X0167021Y0135939D01*
X0166763Y0136737D02*
X0158491Y0136737D01*
X0159047Y0137536D02*
X0166763Y0137536D01*
X0169351Y0139133D02*
X0170126Y0139133D01*
X0170126Y0139931D02*
X0169351Y0139931D01*
X0169351Y0140730D02*
X0170126Y0140730D01*
X0170126Y0141528D02*
X0169351Y0141528D01*
X0170744Y0143924D02*
X0166329Y0143924D01*
X0167824Y0144722D02*
X0170304Y0144722D01*
X0173478Y0141468D02*
X0173478Y0135468D01*
X0182478Y0126468D01*
X0182478Y0118468D01*
X0181415Y0117405D01*
X0176254Y0117405D01*
X0176191Y0117468D01*
X0169478Y0117468D01*
X0167478Y0115468D01*
X0167478Y0105468D01*
X0171478Y0103468D02*
X0171478Y0114468D01*
X0172478Y0115468D01*
X0176223Y0115468D01*
X0176254Y0115437D01*
X0176286Y0115468D01*
X0182478Y0115468D01*
X0184478Y0117468D01*
X0184478Y0127468D01*
X0177219Y0134728D01*
X0177219Y0138531D01*
X0173478Y0141468D02*
X0174478Y0142468D01*
X0180478Y0142468D01*
X0185478Y0147468D01*
X0185478Y0156468D01*
X0193478Y0164468D01*
X0196478Y0169468D02*
X0187478Y0169468D01*
X0184478Y0172468D01*
X0176809Y0172468D01*
X0176793Y0172452D01*
X0176793Y0170484D02*
X0174463Y0170484D01*
X0173478Y0171468D01*
X0173478Y0180968D01*
X0175478Y0182968D01*
X0178478Y0182968D01*
X0178478Y0191122D01*
X0178825Y0191468D01*
X0178478Y0192980D01*
X0178478Y0217868D01*
X0181478Y0220868D01*
X0185510Y0226170D02*
X0210792Y0226170D01*
X0210792Y0225372D02*
X0186309Y0225372D01*
X0187087Y0224573D02*
X0210792Y0224573D01*
X0210792Y0223775D02*
X0187418Y0223775D01*
X0187749Y0222976D02*
X0210792Y0222976D01*
X0210792Y0222178D02*
X0188078Y0222178D01*
X0188078Y0221379D02*
X0210792Y0221379D01*
X0210792Y0220581D02*
X0188078Y0220581D01*
X0188078Y0219782D02*
X0210792Y0219782D01*
X0210792Y0218984D02*
X0187842Y0218984D01*
X0187511Y0218185D02*
X0210792Y0218185D01*
X0210792Y0217387D02*
X0187180Y0217387D01*
X0186532Y0216588D02*
X0210792Y0216588D01*
X0210792Y0215790D02*
X0185734Y0215790D01*
X0184537Y0214991D02*
X0210792Y0214991D01*
X0210792Y0214193D02*
X0180478Y0214193D01*
X0180478Y0213394D02*
X0210792Y0213394D01*
X0210792Y0212596D02*
X0180478Y0212596D01*
X0180478Y0211797D02*
X0210792Y0211797D01*
X0210792Y0210999D02*
X0180478Y0210999D01*
X0180478Y0210200D02*
X0210792Y0210200D01*
X0210792Y0209402D02*
X0180478Y0209402D01*
X0180478Y0208603D02*
X0181180Y0208603D01*
X0176478Y0208603D02*
X0175777Y0208603D01*
X0176478Y0209402D02*
X0170478Y0209402D01*
X0170478Y0210200D02*
X0176478Y0210200D01*
X0176478Y0210999D02*
X0170478Y0210999D01*
X0170478Y0211797D02*
X0176478Y0211797D01*
X0176478Y0212596D02*
X0170478Y0212596D01*
X0170478Y0213394D02*
X0176478Y0213394D01*
X0176478Y0214193D02*
X0170478Y0214193D01*
X0170184Y0214991D02*
X0176478Y0214991D01*
X0176478Y0215790D02*
X0169385Y0215790D01*
X0168587Y0216588D02*
X0176425Y0216588D01*
X0175777Y0217387D02*
X0167788Y0217387D01*
X0167511Y0218185D02*
X0175446Y0218185D01*
X0175115Y0218984D02*
X0167842Y0218984D01*
X0168078Y0219782D02*
X0174878Y0219782D01*
X0174878Y0220581D02*
X0168078Y0220581D01*
X0168078Y0221379D02*
X0174878Y0221379D01*
X0174878Y0222178D02*
X0168078Y0222178D01*
X0167749Y0222976D02*
X0175208Y0222976D01*
X0175539Y0223775D02*
X0167418Y0223775D01*
X0167087Y0224573D02*
X0175869Y0224573D01*
X0176648Y0225372D02*
X0166309Y0225372D01*
X0165510Y0226170D02*
X0177447Y0226170D01*
X0178960Y0226969D02*
X0163996Y0226969D01*
X0158960Y0226969D02*
X0143438Y0226969D01*
X0145082Y0226170D02*
X0157447Y0226170D01*
X0156648Y0225372D02*
X0146026Y0225372D01*
X0146702Y0224573D02*
X0155869Y0224573D01*
X0155539Y0223775D02*
X0147190Y0223775D01*
X0147533Y0222976D02*
X0155208Y0222976D01*
X0154878Y0222178D02*
X0147753Y0222178D01*
X0147866Y0221379D02*
X0154878Y0221379D01*
X0154878Y0220581D02*
X0141879Y0220581D01*
X0141878Y0219782D02*
X0141078Y0219782D01*
X0141078Y0218984D02*
X0141878Y0218984D01*
X0141878Y0218185D02*
X0141078Y0218185D01*
X0141078Y0217387D02*
X0141878Y0217387D01*
X0141878Y0216588D02*
X0141078Y0216588D01*
X0141078Y0215790D02*
X0141878Y0215790D01*
X0141878Y0214991D02*
X0141078Y0214991D01*
X0138943Y0214991D02*
X0131784Y0214991D01*
X0132582Y0214193D02*
X0165325Y0214193D01*
X0166124Y0213394D02*
X0133381Y0213394D01*
X0134179Y0212596D02*
X0166478Y0212596D01*
X0166478Y0211797D02*
X0134978Y0211797D01*
X0135478Y0210999D02*
X0166478Y0210999D01*
X0166478Y0210200D02*
X0135478Y0210200D01*
X0135478Y0209402D02*
X0166478Y0209402D01*
X0166478Y0208603D02*
X0165275Y0208603D01*
X0163878Y0208603D02*
X0163078Y0208603D01*
X0163078Y0208961D02*
X0163078Y0204868D01*
X0158986Y0204868D01*
X0159089Y0205522D01*
X0159308Y0206196D01*
X0159630Y0206827D01*
X0160046Y0207400D01*
X0160547Y0207901D01*
X0161120Y0208317D01*
X0161751Y0208638D01*
X0162425Y0208857D01*
X0163078Y0208961D01*
X0163078Y0207805D02*
X0163878Y0207805D01*
X0163878Y0207006D02*
X0163078Y0207006D01*
X0163078Y0206208D02*
X0163878Y0206208D01*
X0163878Y0205409D02*
X0163078Y0205409D01*
X0163078Y0204611D02*
X0158178Y0204611D01*
X0158178Y0205403D02*
X0157463Y0207131D01*
X0156141Y0208453D01*
X0154413Y0209168D01*
X0152544Y0209168D01*
X0150816Y0208453D01*
X0149494Y0207131D01*
X0148778Y0205403D01*
X0148778Y0203533D01*
X0149494Y0201806D01*
X0150816Y0200484D01*
X0152544Y0199768D01*
X0154413Y0199768D01*
X0156141Y0200484D01*
X0157463Y0201806D01*
X0158178Y0203533D01*
X0158178Y0205403D01*
X0158176Y0205409D02*
X0159071Y0205409D01*
X0159314Y0206208D02*
X0157845Y0206208D01*
X0157514Y0207006D02*
X0159760Y0207006D01*
X0160451Y0207805D02*
X0156789Y0207805D01*
X0155777Y0208603D02*
X0161682Y0208603D01*
X0163078Y0203812D02*
X0163878Y0203812D01*
X0163878Y0203014D02*
X0163078Y0203014D01*
X0163078Y0202215D02*
X0163878Y0202215D01*
X0163878Y0201417D02*
X0163078Y0201417D01*
X0163078Y0200618D02*
X0163878Y0200618D01*
X0165834Y0200618D02*
X0166478Y0200618D01*
X0166001Y0199820D02*
X0154537Y0199820D01*
X0156275Y0200618D02*
X0161123Y0200618D01*
X0160166Y0201417D02*
X0157074Y0201417D01*
X0157632Y0202215D02*
X0159576Y0202215D01*
X0159219Y0203014D02*
X0157963Y0203014D01*
X0158178Y0203812D02*
X0159026Y0203812D01*
X0152419Y0199820D02*
X0144537Y0199820D01*
X0144413Y0199768D02*
X0146141Y0200484D01*
X0147463Y0201806D01*
X0148178Y0203533D01*
X0148178Y0205403D01*
X0147463Y0207131D01*
X0146141Y0208453D01*
X0144413Y0209168D01*
X0142544Y0209168D01*
X0140816Y0208453D01*
X0139494Y0207131D01*
X0138778Y0205403D01*
X0138778Y0203533D01*
X0139494Y0201806D01*
X0140816Y0200484D01*
X0142544Y0199768D01*
X0144413Y0199768D01*
X0142419Y0199820D02*
X0134537Y0199820D01*
X0134769Y0199021D02*
X0165203Y0199021D01*
X0164404Y0198223D02*
X0136371Y0198223D01*
X0137169Y0197424D02*
X0163606Y0197424D01*
X0162807Y0196626D02*
X0137672Y0196626D01*
X0138003Y0195827D02*
X0162009Y0195827D01*
X0161210Y0195029D02*
X0158661Y0195029D01*
X0159460Y0194230D02*
X0160412Y0194230D01*
X0160478Y0191468D02*
X0168478Y0199468D01*
X0168478Y0213868D01*
X0161478Y0220868D01*
X0155446Y0218185D02*
X0147294Y0218185D01*
X0147599Y0218984D02*
X0155115Y0218984D01*
X0154878Y0219782D02*
X0147791Y0219782D01*
X0146859Y0217387D02*
X0155777Y0217387D01*
X0156425Y0216588D02*
X0146250Y0216588D01*
X0145373Y0215790D02*
X0157223Y0215790D01*
X0158420Y0214991D02*
X0144014Y0214991D01*
X0137584Y0215790D02*
X0130985Y0215790D01*
X0130187Y0216588D02*
X0136707Y0216588D01*
X0136098Y0217387D02*
X0129388Y0217387D01*
X0128590Y0218185D02*
X0135662Y0218185D01*
X0135358Y0218984D02*
X0127791Y0218984D01*
X0126478Y0217468D02*
X0098478Y0217468D01*
X0098830Y0214991D02*
X0114436Y0214991D01*
X0114106Y0214193D02*
X0098031Y0214193D01*
X0097233Y0213394D02*
X0113778Y0213394D01*
X0113778Y0212596D02*
X0096434Y0212596D01*
X0095636Y0211797D02*
X0113778Y0211797D01*
X0114000Y0210999D02*
X0094837Y0210999D01*
X0094039Y0210200D02*
X0114331Y0210200D01*
X0114898Y0209402D02*
X0093240Y0209402D01*
X0092442Y0208603D02*
X0115678Y0208603D01*
X0115678Y0207805D02*
X0092078Y0207805D01*
X0092078Y0207006D02*
X0115678Y0207006D01*
X0115571Y0206208D02*
X0091853Y0206208D01*
X0091511Y0205409D02*
X0114773Y0205409D01*
X0113827Y0201417D02*
X0108793Y0201417D01*
X0109078Y0200618D02*
X0114158Y0200618D01*
X0114488Y0199820D02*
X0109078Y0199820D01*
X0109078Y0199021D02*
X0115279Y0199021D01*
X0116447Y0198223D02*
X0109078Y0198223D01*
X0109078Y0197424D02*
X0129788Y0197424D01*
X0130586Y0198223D02*
X0120510Y0198223D01*
X0121678Y0199021D02*
X0132188Y0199021D01*
X0132419Y0199820D02*
X0122469Y0199820D01*
X0122799Y0200618D02*
X0130682Y0200618D01*
X0129883Y0201417D02*
X0123130Y0201417D01*
X0123178Y0202215D02*
X0129324Y0202215D01*
X0128994Y0203014D02*
X0123178Y0203014D01*
X0123009Y0203812D02*
X0128778Y0203812D01*
X0128778Y0204611D02*
X0122678Y0204611D01*
X0122184Y0205409D02*
X0128781Y0205409D01*
X0129112Y0206208D02*
X0121386Y0206208D01*
X0121278Y0207006D02*
X0129442Y0207006D01*
X0130168Y0207805D02*
X0121278Y0207805D01*
X0121278Y0208603D02*
X0131180Y0208603D01*
X0131478Y0209402D02*
X0122059Y0209402D01*
X0122626Y0210200D02*
X0130918Y0210200D01*
X0130119Y0210999D02*
X0122957Y0210999D01*
X0123178Y0211797D02*
X0129321Y0211797D01*
X0128522Y0212596D02*
X0123178Y0212596D01*
X0123178Y0213394D02*
X0127724Y0213394D01*
X0126925Y0214193D02*
X0122851Y0214193D01*
X0122521Y0214991D02*
X0126127Y0214991D01*
X0126478Y0217468D02*
X0133478Y0210468D01*
X0133478Y0204468D01*
X0136789Y0207805D02*
X0140168Y0207805D01*
X0139442Y0207006D02*
X0137514Y0207006D01*
X0137845Y0206208D02*
X0139112Y0206208D01*
X0138781Y0205409D02*
X0138176Y0205409D01*
X0138178Y0204611D02*
X0138778Y0204611D01*
X0138778Y0203812D02*
X0138178Y0203812D01*
X0137963Y0203014D02*
X0138994Y0203014D01*
X0139324Y0202215D02*
X0137632Y0202215D01*
X0137074Y0201417D02*
X0139883Y0201417D01*
X0140682Y0200618D02*
X0136275Y0200618D01*
X0138178Y0195029D02*
X0152989Y0195029D01*
X0155825Y0191468D02*
X0160478Y0191468D01*
X0162076Y0190237D02*
X0168367Y0190237D01*
X0168367Y0189439D02*
X0159590Y0189439D01*
X0159394Y0188640D02*
X0168563Y0188640D01*
X0169478Y0187842D02*
X0157825Y0187842D01*
X0157825Y0187043D02*
X0169478Y0187043D01*
X0169478Y0186245D02*
X0157825Y0186245D01*
X0157825Y0185446D02*
X0169478Y0185446D01*
X0169478Y0184648D02*
X0157487Y0184648D01*
X0156688Y0183849D02*
X0169478Y0183849D01*
X0169478Y0183051D02*
X0155890Y0183051D01*
X0155091Y0182252D02*
X0169478Y0182252D01*
X0169478Y0181454D02*
X0154292Y0181454D01*
X0153494Y0180655D02*
X0169478Y0180655D01*
X0169478Y0179857D02*
X0152695Y0179857D01*
X0151897Y0179058D02*
X0169478Y0179058D01*
X0169478Y0178260D02*
X0151132Y0178260D01*
X0149132Y0179122D02*
X0149132Y0174468D01*
X0149132Y0179122D02*
X0155825Y0185815D01*
X0155825Y0191468D01*
X0153825Y0187842D02*
X0136752Y0187842D01*
X0137499Y0187043D02*
X0153825Y0187043D01*
X0153427Y0186245D02*
X0137830Y0186245D01*
X0138161Y0185446D02*
X0152628Y0185446D01*
X0151830Y0184648D02*
X0138178Y0184648D01*
X0138178Y0183849D02*
X0151031Y0183849D01*
X0150233Y0183051D02*
X0137979Y0183051D01*
X0137648Y0182252D02*
X0149434Y0182252D01*
X0148636Y0181454D02*
X0137111Y0181454D01*
X0136312Y0180655D02*
X0147837Y0180655D01*
X0148732Y0188100D02*
X0146782Y0188100D01*
X0146426Y0188195D01*
X0146107Y0188379D01*
X0145846Y0188640D01*
X0145662Y0188959D01*
X0145567Y0189315D01*
X0145567Y0191068D01*
X0148732Y0191068D01*
X0148732Y0188100D01*
X0148732Y0188640D02*
X0149532Y0188640D01*
X0149532Y0189439D02*
X0148732Y0189439D01*
X0148732Y0190237D02*
X0149532Y0190237D01*
X0149532Y0191036D02*
X0148732Y0191036D01*
X0148732Y0191834D02*
X0137475Y0191834D01*
X0137806Y0192633D02*
X0145567Y0192633D01*
X0145567Y0191868D02*
X0148732Y0191868D01*
X0148732Y0194837D01*
X0146782Y0194837D01*
X0146426Y0194741D01*
X0146107Y0194557D01*
X0145846Y0194296D01*
X0145662Y0193977D01*
X0145567Y0193621D01*
X0145567Y0191868D01*
X0145567Y0191036D02*
X0136693Y0191036D01*
X0135546Y0190237D02*
X0145567Y0190237D01*
X0145567Y0189439D02*
X0121813Y0189439D01*
X0122392Y0190237D02*
X0131411Y0190237D01*
X0130264Y0191036D02*
X0122745Y0191036D01*
X0122934Y0191834D02*
X0129482Y0191834D01*
X0131269Y0188640D02*
X0120866Y0188640D01*
X0119715Y0187043D02*
X0129458Y0187043D01*
X0129127Y0186245D02*
X0121349Y0186245D01*
X0122147Y0185446D02*
X0128796Y0185446D01*
X0128778Y0184648D02*
X0122663Y0184648D01*
X0122994Y0183849D02*
X0128778Y0183849D01*
X0128978Y0183051D02*
X0123178Y0183051D01*
X0123178Y0182252D02*
X0129309Y0182252D01*
X0129846Y0181454D02*
X0123146Y0181454D01*
X0122815Y0180655D02*
X0130645Y0180655D01*
X0130205Y0187842D02*
X0072478Y0187842D01*
X0072478Y0188640D02*
X0116091Y0188640D01*
X0114075Y0193431D02*
X0109078Y0193431D01*
X0109078Y0194230D02*
X0114326Y0194230D01*
X0114776Y0195029D02*
X0109078Y0195029D01*
X0109078Y0195827D02*
X0115473Y0195827D01*
X0116726Y0196626D02*
X0109078Y0196626D01*
X0089979Y0211797D02*
X0042928Y0211797D01*
X0042733Y0210999D02*
X0087595Y0210999D01*
X0070478Y0202468D02*
X0066478Y0206468D01*
X0066306Y0203812D02*
X0061129Y0203812D01*
X0060330Y0203014D02*
X0067105Y0203014D01*
X0067903Y0202215D02*
X0043178Y0202215D01*
X0043130Y0201417D02*
X0068478Y0201417D01*
X0068478Y0200618D02*
X0042799Y0200618D01*
X0042469Y0199820D02*
X0049322Y0199820D01*
X0050626Y0199820D02*
X0051426Y0199820D01*
X0051426Y0199021D02*
X0050626Y0199021D01*
X0050626Y0198223D02*
X0051426Y0198223D01*
X0051426Y0197424D02*
X0050626Y0197424D01*
X0050626Y0196626D02*
X0040723Y0196626D01*
X0041141Y0196453D02*
X0039413Y0197168D01*
X0037544Y0197168D01*
X0035816Y0196453D01*
X0034494Y0195131D01*
X0033778Y0193403D01*
X0033778Y0191533D01*
X0034494Y0189806D01*
X0035816Y0188484D01*
X0037544Y0187768D01*
X0039413Y0187768D01*
X0041141Y0188484D01*
X0042463Y0189806D01*
X0043178Y0191533D01*
X0043178Y0193403D01*
X0042463Y0195131D01*
X0041141Y0196453D01*
X0041766Y0195827D02*
X0047657Y0195827D01*
X0047657Y0196068D02*
X0047657Y0194828D01*
X0047793Y0194322D01*
X0048055Y0193868D01*
X0048426Y0193497D01*
X0048879Y0193235D01*
X0049386Y0193100D01*
X0050626Y0193100D01*
X0050626Y0196068D01*
X0047657Y0196068D01*
X0047657Y0195029D02*
X0042505Y0195029D01*
X0042836Y0194230D02*
X0047846Y0194230D01*
X0048540Y0193431D02*
X0043167Y0193431D01*
X0043178Y0192633D02*
X0065485Y0192633D01*
X0064687Y0193431D02*
X0060748Y0193431D01*
X0061500Y0194230D02*
X0063888Y0194230D01*
X0064478Y0196468D02*
X0057931Y0196468D01*
X0055114Y0193431D02*
X0053512Y0193431D01*
X0054205Y0194230D02*
X0054363Y0194230D01*
X0051426Y0194230D02*
X0050626Y0194230D01*
X0050626Y0193431D02*
X0051426Y0193431D01*
X0051426Y0195029D02*
X0050626Y0195029D01*
X0050626Y0195827D02*
X0051426Y0195827D01*
X0054024Y0199021D02*
X0054630Y0199021D01*
X0055429Y0199820D02*
X0052730Y0199820D01*
X0051426Y0203812D02*
X0050626Y0203812D01*
X0050626Y0204611D02*
X0051426Y0204611D01*
X0051426Y0205409D02*
X0050626Y0205409D01*
X0047657Y0207805D02*
X0021078Y0207805D01*
X0021078Y0208603D02*
X0036152Y0208603D01*
X0035181Y0209402D02*
X0021078Y0209402D01*
X0021078Y0210200D02*
X0034584Y0210200D01*
X0034224Y0210999D02*
X0021078Y0210999D01*
X0021078Y0211797D02*
X0034029Y0211797D01*
X0034069Y0213394D02*
X0021078Y0213394D01*
X0021078Y0212596D02*
X0038078Y0212596D01*
X0038078Y0211797D02*
X0038878Y0211797D01*
X0038878Y0210999D02*
X0038078Y0210999D01*
X0038078Y0210200D02*
X0038878Y0210200D01*
X0038878Y0209402D02*
X0038078Y0209402D01*
X0038078Y0208603D02*
X0038878Y0208603D01*
X0040805Y0208603D02*
X0047790Y0208603D01*
X0053663Y0209402D02*
X0055011Y0209402D01*
X0054363Y0208603D02*
X0054262Y0208603D01*
X0060434Y0199820D02*
X0068478Y0199820D01*
X0068478Y0199021D02*
X0061232Y0199021D01*
X0064478Y0196468D02*
X0068478Y0192468D01*
X0068478Y0161468D01*
X0075478Y0154468D01*
X0075478Y0142468D01*
X0083478Y0134468D01*
X0112132Y0134468D01*
X0115461Y0137536D02*
X0115496Y0137536D01*
X0118825Y0134468D02*
X0133478Y0134468D01*
X0137058Y0137536D02*
X0151910Y0137536D01*
X0151910Y0138334D02*
X0136259Y0138334D01*
X0134499Y0139133D02*
X0151910Y0139133D01*
X0151910Y0139931D02*
X0134807Y0139931D01*
X0136387Y0140730D02*
X0151910Y0140730D01*
X0151910Y0141528D02*
X0137185Y0141528D01*
X0137679Y0142327D02*
X0151910Y0142327D01*
X0152085Y0143125D02*
X0138009Y0143125D01*
X0138178Y0143924D02*
X0151973Y0143924D01*
X0151910Y0144722D02*
X0138178Y0144722D01*
X0138130Y0145521D02*
X0151910Y0145521D01*
X0151910Y0146319D02*
X0137799Y0146319D01*
X0137468Y0147118D02*
X0151910Y0147118D01*
X0151910Y0147916D02*
X0136677Y0147916D01*
X0135508Y0148715D02*
X0151910Y0148715D01*
X0151910Y0149513D02*
X0096262Y0149513D01*
X0097060Y0148715D02*
X0131449Y0148715D01*
X0130280Y0147916D02*
X0121773Y0147916D01*
X0122572Y0147118D02*
X0129489Y0147118D01*
X0131231Y0150312D02*
X0095463Y0150312D01*
X0094665Y0151110D02*
X0130189Y0151110D01*
X0129451Y0151909D02*
X0083866Y0151909D01*
X0083068Y0152707D02*
X0129121Y0152707D01*
X0128790Y0153506D02*
X0082269Y0153506D01*
X0081471Y0154304D02*
X0128778Y0154304D01*
X0128778Y0155103D02*
X0080672Y0155103D01*
X0079874Y0155901D02*
X0128985Y0155901D01*
X0129316Y0156700D02*
X0079075Y0156700D01*
X0078277Y0157498D02*
X0129862Y0157498D01*
X0130660Y0158297D02*
X0077478Y0158297D01*
X0073478Y0153468D02*
X0066478Y0160468D01*
X0066478Y0182468D01*
X0062478Y0186468D01*
X0057931Y0186468D01*
X0054363Y0184648D02*
X0054346Y0184648D01*
X0054696Y0183849D02*
X0053978Y0183849D01*
X0055495Y0183051D02*
X0043178Y0183051D01*
X0043178Y0183403D02*
X0042463Y0185131D01*
X0041141Y0186453D01*
X0039413Y0187168D01*
X0037544Y0187168D01*
X0035816Y0186453D01*
X0034494Y0185131D01*
X0033778Y0183403D01*
X0033778Y0181533D01*
X0034494Y0179806D01*
X0035816Y0178484D01*
X0037544Y0177768D01*
X0039413Y0177768D01*
X0041141Y0178484D01*
X0042463Y0179806D01*
X0043178Y0181533D01*
X0043178Y0183403D01*
X0042994Y0183849D02*
X0048074Y0183849D01*
X0048055Y0183868D02*
X0048426Y0183497D01*
X0048879Y0183235D01*
X0049386Y0183100D01*
X0050626Y0183100D01*
X0050626Y0186068D01*
X0047657Y0186068D01*
X0047657Y0184828D01*
X0047793Y0184322D01*
X0048055Y0183868D01*
X0047705Y0184648D02*
X0042663Y0184648D01*
X0042147Y0185446D02*
X0047657Y0185446D01*
X0047657Y0187043D02*
X0039715Y0187043D01*
X0039591Y0187842D02*
X0047657Y0187842D01*
X0047808Y0188640D02*
X0041297Y0188640D01*
X0042096Y0189439D02*
X0048425Y0189439D01*
X0050626Y0189439D02*
X0051426Y0189439D01*
X0051426Y0188640D02*
X0050626Y0188640D01*
X0050626Y0187842D02*
X0051426Y0187842D01*
X0051426Y0187043D02*
X0050626Y0187043D01*
X0050626Y0186245D02*
X0041349Y0186245D01*
X0042642Y0190237D02*
X0066478Y0190237D01*
X0066478Y0189439D02*
X0060814Y0189439D01*
X0061500Y0188640D02*
X0066478Y0188640D01*
X0066478Y0187842D02*
X0063933Y0187842D01*
X0064732Y0187043D02*
X0066478Y0187043D01*
X0066478Y0186245D02*
X0065530Y0186245D01*
X0066329Y0185446D02*
X0066478Y0185446D01*
X0063866Y0182252D02*
X0043178Y0182252D01*
X0043146Y0181454D02*
X0064478Y0181454D01*
X0064478Y0180655D02*
X0042815Y0180655D01*
X0042484Y0179857D02*
X0055466Y0179857D01*
X0054668Y0179058D02*
X0054002Y0179058D01*
X0054354Y0178260D02*
X0054363Y0178260D01*
X0051426Y0178260D02*
X0050626Y0178260D01*
X0050626Y0179058D02*
X0051426Y0179058D01*
X0051426Y0177461D02*
X0050626Y0177461D01*
X0050626Y0176663D02*
X0040634Y0176663D01*
X0041141Y0176453D02*
X0039413Y0177168D01*
X0037544Y0177168D01*
X0035816Y0176453D01*
X0034494Y0175131D01*
X0033778Y0173403D01*
X0033778Y0171533D01*
X0034494Y0169806D01*
X0035816Y0168484D01*
X0037544Y0167768D01*
X0039413Y0167768D01*
X0041141Y0168484D01*
X0042463Y0169806D01*
X0043178Y0171533D01*
X0043178Y0173403D01*
X0042463Y0175131D01*
X0041141Y0176453D01*
X0041729Y0175864D02*
X0047657Y0175864D01*
X0047657Y0176068D02*
X0047657Y0174828D01*
X0047793Y0174322D01*
X0048055Y0173868D01*
X0048426Y0173497D01*
X0048879Y0173235D01*
X0049386Y0173100D01*
X0050626Y0173100D01*
X0050626Y0176068D01*
X0047657Y0176068D01*
X0047657Y0175066D02*
X0042490Y0175066D01*
X0042821Y0174267D02*
X0047824Y0174267D01*
X0048475Y0173469D02*
X0043151Y0173469D01*
X0043178Y0172670D02*
X0062448Y0172670D01*
X0062478Y0171872D02*
X0043178Y0171872D01*
X0042988Y0171073D02*
X0062478Y0171073D01*
X0062478Y0170275D02*
X0042657Y0170275D01*
X0042133Y0169476D02*
X0048490Y0169476D01*
X0047829Y0168678D02*
X0041335Y0168678D01*
X0039681Y0167879D02*
X0047657Y0167879D01*
X0047657Y0167081D02*
X0021078Y0167081D01*
X0021078Y0167879D02*
X0037276Y0167879D01*
X0035622Y0168678D02*
X0021078Y0168678D01*
X0021078Y0169476D02*
X0034824Y0169476D01*
X0034300Y0170275D02*
X0021078Y0170275D01*
X0021078Y0171073D02*
X0033969Y0171073D01*
X0033778Y0171872D02*
X0021078Y0171872D01*
X0021078Y0172670D02*
X0033778Y0172670D01*
X0033806Y0173469D02*
X0021078Y0173469D01*
X0021078Y0174267D02*
X0034136Y0174267D01*
X0034467Y0175066D02*
X0021078Y0175066D01*
X0021078Y0175864D02*
X0035228Y0175864D01*
X0036323Y0176663D02*
X0021078Y0176663D01*
X0021078Y0177461D02*
X0047657Y0177461D01*
X0047698Y0178260D02*
X0040600Y0178260D01*
X0041715Y0179058D02*
X0048049Y0179058D01*
X0050626Y0183849D02*
X0051426Y0183849D01*
X0051426Y0184648D02*
X0050626Y0184648D01*
X0050626Y0185446D02*
X0051426Y0185446D01*
X0060368Y0183051D02*
X0063067Y0183051D01*
X0062269Y0183849D02*
X0061166Y0183849D01*
X0060396Y0179857D02*
X0064478Y0179857D01*
X0064478Y0179058D02*
X0061195Y0179058D01*
X0062515Y0178260D02*
X0064478Y0178260D01*
X0064478Y0177461D02*
X0063314Y0177461D01*
X0064112Y0176663D02*
X0064478Y0176663D01*
X0061478Y0176468D02*
X0064478Y0173468D01*
X0064478Y0159468D01*
X0071478Y0152468D01*
X0071478Y0140468D01*
X0081478Y0130468D01*
X0096478Y0130468D01*
X0102478Y0124468D01*
X0102478Y0117468D01*
X0105478Y0114468D01*
X0112132Y0114468D01*
X0115245Y0111185D02*
X0115712Y0111185D01*
X0115951Y0107991D02*
X0115006Y0107991D01*
X0112132Y0104468D02*
X0105478Y0104468D01*
X0100478Y0109468D01*
X0100478Y0123468D01*
X0095478Y0128468D01*
X0080478Y0128468D01*
X0069478Y0139468D01*
X0069478Y0151468D01*
X0062478Y0158468D01*
X0062478Y0164468D01*
X0060478Y0166468D01*
X0057931Y0166468D01*
X0054363Y0164685D02*
X0054356Y0164685D01*
X0054659Y0163887D02*
X0054007Y0163887D01*
X0055458Y0163088D02*
X0021078Y0163088D01*
X0021078Y0162290D02*
X0060478Y0162290D01*
X0060478Y0163088D02*
X0060405Y0163088D01*
X0060478Y0161491D02*
X0021078Y0161491D01*
X0021078Y0160693D02*
X0060478Y0160693D01*
X0060478Y0159894D02*
X0060359Y0159894D01*
X0061478Y0156468D02*
X0057931Y0156468D01*
X0054363Y0158297D02*
X0054344Y0158297D01*
X0054705Y0159096D02*
X0053969Y0159096D01*
X0055503Y0159894D02*
X0021078Y0159894D01*
X0021078Y0159096D02*
X0048082Y0159096D01*
X0047708Y0158297D02*
X0021078Y0158297D01*
X0021078Y0157498D02*
X0047657Y0157498D01*
X0047657Y0156068D02*
X0047657Y0154828D01*
X0047793Y0154322D01*
X0048055Y0153868D01*
X0048426Y0153497D01*
X0048879Y0153235D01*
X0049386Y0153100D01*
X0050626Y0153100D01*
X0050626Y0156068D01*
X0047657Y0156068D01*
X0047657Y0155901D02*
X0021078Y0155901D01*
X0021078Y0155103D02*
X0047657Y0155103D01*
X0047803Y0154304D02*
X0021078Y0154304D01*
X0021078Y0153506D02*
X0048417Y0153506D01*
X0050626Y0153506D02*
X0051426Y0153506D01*
X0051426Y0154304D02*
X0050626Y0154304D01*
X0050626Y0155103D02*
X0051426Y0155103D01*
X0051426Y0155901D02*
X0050626Y0155901D01*
X0050626Y0156700D02*
X0021078Y0156700D01*
X0021078Y0152707D02*
X0062411Y0152707D01*
X0062478Y0151909D02*
X0021078Y0151909D01*
X0021078Y0151110D02*
X0062478Y0151110D01*
X0061579Y0150312D02*
X0021078Y0150312D01*
X0021078Y0149513D02*
X0060910Y0149513D01*
X0060910Y0148715D02*
X0021078Y0148715D01*
X0021078Y0147916D02*
X0060910Y0147916D01*
X0060910Y0147118D02*
X0021078Y0147118D01*
X0021078Y0146319D02*
X0049922Y0146319D01*
X0050764Y0146668D02*
X0048890Y0145892D01*
X0047455Y0144457D01*
X0046678Y0142583D01*
X0046678Y0140554D01*
X0047455Y0138679D01*
X0048890Y0137245D01*
X0050764Y0136468D01*
X0052793Y0136468D01*
X0054667Y0137245D01*
X0056102Y0138679D01*
X0056878Y0140554D01*
X0056878Y0142583D01*
X0056102Y0144457D01*
X0054667Y0145892D01*
X0052793Y0146668D01*
X0050764Y0146668D01*
X0048519Y0145521D02*
X0021078Y0145521D01*
X0021078Y0144722D02*
X0047720Y0144722D01*
X0047234Y0143924D02*
X0021078Y0143924D01*
X0021078Y0143125D02*
X0046903Y0143125D01*
X0046678Y0142327D02*
X0021078Y0142327D01*
X0021078Y0141528D02*
X0046678Y0141528D01*
X0046678Y0140730D02*
X0021078Y0140730D01*
X0021078Y0139931D02*
X0046936Y0139931D01*
X0047267Y0139133D02*
X0021078Y0139133D01*
X0021078Y0138334D02*
X0047800Y0138334D01*
X0048598Y0137536D02*
X0021078Y0137536D01*
X0021078Y0136737D02*
X0050115Y0136737D01*
X0053442Y0136737D02*
X0061466Y0136737D01*
X0060910Y0137536D02*
X0054958Y0137536D01*
X0055757Y0138334D02*
X0060910Y0138334D01*
X0060910Y0139133D02*
X0056290Y0139133D01*
X0056621Y0139931D02*
X0060910Y0139931D01*
X0060910Y0140730D02*
X0056878Y0140730D01*
X0056878Y0141528D02*
X0060910Y0141528D01*
X0060910Y0142327D02*
X0056878Y0142327D01*
X0056654Y0143125D02*
X0061085Y0143125D01*
X0060973Y0143924D02*
X0056323Y0143924D01*
X0055837Y0144722D02*
X0060910Y0144722D01*
X0060910Y0145521D02*
X0055038Y0145521D01*
X0053635Y0146319D02*
X0060910Y0146319D01*
X0064478Y0146815D02*
X0064478Y0153468D01*
X0061478Y0156468D01*
X0061612Y0153506D02*
X0060823Y0153506D01*
X0055040Y0153506D02*
X0053634Y0153506D01*
X0054248Y0154304D02*
X0054363Y0154304D01*
X0051426Y0157498D02*
X0050626Y0157498D01*
X0050626Y0158297D02*
X0051426Y0158297D01*
X0051426Y0159096D02*
X0050626Y0159096D01*
X0050626Y0163100D02*
X0050626Y0166068D01*
X0047657Y0166068D01*
X0047657Y0164828D01*
X0047793Y0164322D01*
X0048055Y0163868D01*
X0048426Y0163497D01*
X0048879Y0163235D01*
X0049386Y0163100D01*
X0050626Y0163100D01*
X0050626Y0163887D02*
X0051426Y0163887D01*
X0051426Y0164685D02*
X0050626Y0164685D01*
X0050626Y0165484D02*
X0051426Y0165484D01*
X0050626Y0166282D02*
X0021078Y0166282D01*
X0021078Y0165484D02*
X0047657Y0165484D01*
X0047696Y0164685D02*
X0021078Y0164685D01*
X0021078Y0163887D02*
X0048044Y0163887D01*
X0050626Y0167081D02*
X0051426Y0167081D01*
X0051426Y0167879D02*
X0050626Y0167879D01*
X0050626Y0168678D02*
X0051426Y0168678D01*
X0051426Y0169476D02*
X0050626Y0169476D01*
X0053561Y0169476D02*
X0055085Y0169476D01*
X0054363Y0168678D02*
X0054222Y0168678D01*
X0053576Y0173469D02*
X0055077Y0173469D01*
X0054363Y0174267D02*
X0054227Y0174267D01*
X0051426Y0174267D02*
X0050626Y0174267D01*
X0050626Y0173469D02*
X0051426Y0173469D01*
X0051426Y0175066D02*
X0050626Y0175066D01*
X0050626Y0175864D02*
X0051426Y0175864D01*
X0057931Y0176468D02*
X0061478Y0176468D01*
X0061650Y0173469D02*
X0060786Y0173469D01*
X0060777Y0169476D02*
X0062478Y0169476D01*
X0062478Y0168678D02*
X0061500Y0168678D01*
X0061896Y0167879D02*
X0062478Y0167879D01*
X0062478Y0167297D02*
X0062478Y0167297D01*
X0070478Y0162468D02*
X0083478Y0149468D01*
X0093478Y0149468D01*
X0098478Y0144468D01*
X0112132Y0144468D01*
X0109184Y0147916D02*
X0097859Y0147916D01*
X0098657Y0147118D02*
X0108385Y0147118D01*
X0108367Y0142327D02*
X0096278Y0142327D01*
X0096278Y0142583D02*
X0095502Y0144457D01*
X0094067Y0145892D01*
X0092193Y0146668D01*
X0090164Y0146668D01*
X0088290Y0145892D01*
X0086855Y0144457D01*
X0086078Y0142583D01*
X0086078Y0140554D01*
X0086855Y0138679D01*
X0088290Y0137245D01*
X0090164Y0136468D01*
X0092193Y0136468D01*
X0094067Y0137245D01*
X0095502Y0138679D01*
X0096278Y0140554D01*
X0096278Y0142583D01*
X0096054Y0143125D02*
X0096993Y0143125D01*
X0096194Y0143924D02*
X0095723Y0143924D01*
X0095396Y0144722D02*
X0095237Y0144722D01*
X0094597Y0145521D02*
X0094438Y0145521D01*
X0093799Y0146319D02*
X0093035Y0146319D01*
X0093000Y0147118D02*
X0077478Y0147118D01*
X0077478Y0147916D02*
X0082202Y0147916D01*
X0081403Y0148715D02*
X0077478Y0148715D01*
X0077478Y0149513D02*
X0080605Y0149513D01*
X0079806Y0150312D02*
X0077478Y0150312D01*
X0077478Y0151110D02*
X0079008Y0151110D01*
X0078209Y0151909D02*
X0077478Y0151909D01*
X0077478Y0146319D02*
X0089322Y0146319D01*
X0087919Y0145521D02*
X0077478Y0145521D01*
X0077478Y0144722D02*
X0087120Y0144722D01*
X0086634Y0143924D02*
X0077478Y0143924D01*
X0077650Y0143125D02*
X0086303Y0143125D01*
X0086078Y0142327D02*
X0078448Y0142327D01*
X0079247Y0141528D02*
X0086078Y0141528D01*
X0086078Y0140730D02*
X0080045Y0140730D01*
X0080844Y0139931D02*
X0086336Y0139931D01*
X0086667Y0139133D02*
X0081642Y0139133D01*
X0082441Y0138334D02*
X0087200Y0138334D01*
X0087998Y0137536D02*
X0083239Y0137536D01*
X0084038Y0136737D02*
X0089515Y0136737D01*
X0092842Y0136737D02*
X0108367Y0136737D01*
X0108803Y0137536D02*
X0094358Y0137536D01*
X0095157Y0138334D02*
X0130698Y0138334D01*
X0129899Y0137536D02*
X0122154Y0137536D01*
X0122590Y0136737D02*
X0129331Y0136737D01*
X0132458Y0139133D02*
X0095690Y0139133D01*
X0096021Y0139931D02*
X0132150Y0139931D01*
X0130570Y0140730D02*
X0096278Y0140730D01*
X0096278Y0141528D02*
X0108675Y0141528D01*
X0115080Y0147916D02*
X0115876Y0147916D01*
X0118825Y0144468D02*
X0133478Y0144468D01*
X0129278Y0142327D02*
X0122590Y0142327D01*
X0122282Y0141528D02*
X0129772Y0141528D01*
X0137626Y0136737D02*
X0152466Y0136737D01*
X0153121Y0135939D02*
X0149507Y0135939D01*
X0150898Y0135140D02*
X0152322Y0135140D01*
X0152478Y0132468D02*
X0155478Y0135468D01*
X0155478Y0140122D01*
X0155478Y0139468D01*
X0157180Y0134342D02*
X0169825Y0134342D01*
X0169825Y0133543D02*
X0156382Y0133543D01*
X0155583Y0132745D02*
X0169825Y0132745D01*
X0169825Y0131946D02*
X0154785Y0131946D01*
X0153986Y0131148D02*
X0169825Y0131148D01*
X0169825Y0130349D02*
X0151451Y0130349D01*
X0150652Y0129551D02*
X0161818Y0129551D01*
X0161367Y0128752D02*
X0148478Y0128752D01*
X0148478Y0127954D02*
X0161367Y0127954D01*
X0161367Y0127155D02*
X0148478Y0127155D01*
X0148478Y0126357D02*
X0161367Y0126357D01*
X0161367Y0125558D02*
X0148478Y0125558D01*
X0148478Y0124760D02*
X0161367Y0124760D01*
X0161367Y0123961D02*
X0148478Y0123961D01*
X0148478Y0123162D02*
X0162041Y0123162D01*
X0163478Y0122364D02*
X0148478Y0122364D01*
X0149124Y0121565D02*
X0163478Y0121565D01*
X0163478Y0120767D02*
X0149923Y0120767D01*
X0150047Y0119968D02*
X0163478Y0119968D01*
X0160703Y0117405D02*
X0160703Y0115437D01*
X0160703Y0117405D02*
X0146888Y0117405D01*
X0146478Y0117815D01*
X0146478Y0130468D01*
X0148478Y0132468D01*
X0152478Y0132468D01*
X0147450Y0135939D02*
X0137957Y0135939D01*
X0138178Y0135140D02*
X0146059Y0135140D01*
X0145358Y0134342D02*
X0138178Y0134342D01*
X0138178Y0133543D02*
X0145027Y0133543D01*
X0144878Y0132745D02*
X0137852Y0132745D01*
X0137521Y0131946D02*
X0144878Y0131946D01*
X0144478Y0131148D02*
X0136805Y0131148D01*
X0135816Y0130349D02*
X0144478Y0130349D01*
X0144478Y0129551D02*
X0103224Y0129551D01*
X0102426Y0130349D02*
X0131141Y0130349D01*
X0130152Y0131148D02*
X0121901Y0131148D01*
X0122590Y0131946D02*
X0129436Y0131946D01*
X0131539Y0128752D02*
X0104023Y0128752D01*
X0104821Y0127954D02*
X0109221Y0127954D01*
X0108422Y0127155D02*
X0105620Y0127155D01*
X0105478Y0124468D02*
X0112132Y0124468D01*
X0115043Y0127954D02*
X0115914Y0127954D01*
X0115749Y0131148D02*
X0115208Y0131148D01*
X0109056Y0131148D02*
X0101627Y0131148D01*
X0100829Y0131946D02*
X0108367Y0131946D01*
X0105478Y0124468D02*
X0097478Y0132468D01*
X0082478Y0132468D01*
X0073478Y0141468D01*
X0073478Y0153468D01*
X0070478Y0162468D02*
X0070478Y0202468D01*
X0068478Y0198223D02*
X0065552Y0198223D01*
X0066351Y0197424D02*
X0068478Y0197424D01*
X0068478Y0196626D02*
X0067150Y0196626D01*
X0067948Y0195827D02*
X0068478Y0195827D01*
X0066284Y0191834D02*
X0043178Y0191834D01*
X0042972Y0191036D02*
X0066478Y0191036D01*
X0047657Y0197424D02*
X0021078Y0197424D01*
X0021078Y0196626D02*
X0036234Y0196626D01*
X0035190Y0195827D02*
X0021078Y0195827D01*
X0021078Y0195029D02*
X0034452Y0195029D01*
X0034121Y0194230D02*
X0021078Y0194230D01*
X0021078Y0193431D02*
X0033790Y0193431D01*
X0033778Y0192633D02*
X0021078Y0192633D01*
X0021078Y0191834D02*
X0033778Y0191834D01*
X0033984Y0191036D02*
X0021078Y0191036D01*
X0021078Y0190237D02*
X0034315Y0190237D01*
X0034861Y0189439D02*
X0021078Y0189439D01*
X0021078Y0188640D02*
X0035659Y0188640D01*
X0037366Y0187842D02*
X0021078Y0187842D01*
X0021078Y0187043D02*
X0037242Y0187043D01*
X0035608Y0186245D02*
X0021078Y0186245D01*
X0021078Y0185446D02*
X0034810Y0185446D01*
X0034294Y0184648D02*
X0021078Y0184648D01*
X0021078Y0183849D02*
X0033963Y0183849D01*
X0033778Y0183051D02*
X0021078Y0183051D01*
X0021078Y0182252D02*
X0033778Y0182252D01*
X0033811Y0181454D02*
X0021078Y0181454D01*
X0021078Y0180655D02*
X0034142Y0180655D01*
X0034473Y0179857D02*
X0021078Y0179857D01*
X0021078Y0179058D02*
X0035242Y0179058D01*
X0036357Y0178260D02*
X0021078Y0178260D01*
X0021078Y0198223D02*
X0036447Y0198223D01*
X0035279Y0199021D02*
X0021078Y0199021D01*
X0021078Y0199820D02*
X0034488Y0199820D01*
X0034158Y0200618D02*
X0021078Y0200618D01*
X0021078Y0201417D02*
X0033827Y0201417D01*
X0033778Y0202215D02*
X0021078Y0202215D01*
X0021078Y0203014D02*
X0033778Y0203014D01*
X0033948Y0203812D02*
X0021078Y0203812D01*
X0021078Y0204611D02*
X0034279Y0204611D01*
X0034773Y0205409D02*
X0021078Y0205409D01*
X0021078Y0206208D02*
X0035571Y0206208D01*
X0037152Y0207006D02*
X0021078Y0207006D01*
X0021078Y0214193D02*
X0034307Y0214193D01*
X0034749Y0214991D02*
X0021078Y0214991D01*
X0021078Y0215790D02*
X0035436Y0215790D01*
X0036653Y0216588D02*
X0021078Y0216588D01*
X0021078Y0223775D02*
X0033978Y0223775D01*
X0033978Y0224573D02*
X0021078Y0224573D01*
X0021078Y0225372D02*
X0033978Y0225372D01*
X0034110Y0226170D02*
X0021078Y0226170D01*
X0040510Y0198223D02*
X0047688Y0198223D01*
X0048028Y0199021D02*
X0041678Y0199021D01*
X0064478Y0140122D02*
X0064478Y0095468D01*
X0060722Y0099207D02*
X0057952Y0099207D01*
X0058646Y0098409D02*
X0059960Y0098409D01*
X0059629Y0097610D02*
X0059111Y0097610D01*
X0056807Y0100006D02*
X0061583Y0100006D01*
X0062478Y0100804D02*
X0021078Y0100804D01*
X0021078Y0100006D02*
X0041583Y0100006D01*
X0040722Y0099207D02*
X0021078Y0099207D01*
X0021078Y0098409D02*
X0039960Y0098409D01*
X0039629Y0097610D02*
X0021078Y0097610D01*
X0021078Y0096812D02*
X0039298Y0096812D01*
X0039178Y0096013D02*
X0021078Y0096013D01*
X0021078Y0095215D02*
X0039178Y0095215D01*
X0039178Y0094416D02*
X0021078Y0094416D01*
X0021078Y0093618D02*
X0039508Y0093618D01*
X0039839Y0092819D02*
X0021078Y0092819D01*
X0021078Y0092021D02*
X0040431Y0092021D01*
X0041229Y0091222D02*
X0021078Y0091222D01*
X0021078Y0090424D02*
X0041378Y0090424D01*
X0041378Y0089625D02*
X0021078Y0089625D01*
X0021078Y0088827D02*
X0041378Y0088827D01*
X0041378Y0088028D02*
X0021078Y0088028D01*
X0021078Y0087229D02*
X0041378Y0087229D01*
X0041378Y0086431D02*
X0021078Y0086431D01*
X0021078Y0085632D02*
X0041378Y0085632D01*
X0041378Y0084834D02*
X0021078Y0084834D01*
X0021078Y0084035D02*
X0041378Y0084035D01*
X0041159Y0083237D02*
X0021078Y0083237D01*
X0021078Y0082438D02*
X0040115Y0082438D01*
X0039316Y0081640D02*
X0021078Y0081640D01*
X0021078Y0080841D02*
X0038732Y0080841D01*
X0038401Y0080043D02*
X0021078Y0080043D01*
X0021078Y0079244D02*
X0038070Y0079244D01*
X0037878Y0078446D02*
X0021078Y0078446D01*
X0021078Y0077647D02*
X0037878Y0077647D01*
X0037878Y0076849D02*
X0021078Y0076849D01*
X0021078Y0076050D02*
X0037922Y0076050D01*
X0038253Y0075252D02*
X0021078Y0075252D01*
X0021078Y0074453D02*
X0038583Y0074453D01*
X0038958Y0073655D02*
X0021078Y0073655D01*
X0021078Y0072856D02*
X0039757Y0072856D01*
X0040555Y0072058D02*
X0021078Y0072058D01*
X0021078Y0071259D02*
X0042221Y0071259D01*
X0046735Y0071259D02*
X0062923Y0071259D01*
X0063227Y0071178D02*
X0064059Y0071068D01*
X0064078Y0071068D01*
X0064078Y0077068D01*
X0058078Y0077068D01*
X0058078Y0077049D01*
X0058188Y0076217D01*
X0058405Y0075407D01*
X0058726Y0074631D01*
X0059146Y0073905D01*
X0059656Y0073239D01*
X0060250Y0072646D01*
X0060915Y0072135D01*
X0061642Y0071716D01*
X0062417Y0071395D01*
X0063227Y0071178D01*
X0064078Y0071259D02*
X0064878Y0071259D01*
X0064878Y0071068D02*
X0064898Y0071068D01*
X0065730Y0071178D01*
X0066540Y0071395D01*
X0067315Y0071716D01*
X0068042Y0072135D01*
X0068707Y0072646D01*
X0069301Y0073239D01*
X0069811Y0073905D01*
X0070231Y0074631D01*
X0070552Y0075407D01*
X0070769Y0076217D01*
X0070878Y0077049D01*
X0070878Y0077068D01*
X0064879Y0077068D01*
X0064879Y0077868D01*
X0070878Y0077868D01*
X0070878Y0077888D01*
X0070769Y0078719D01*
X0070552Y0079530D01*
X0070231Y0080305D01*
X0069811Y0081031D01*
X0069301Y0081697D01*
X0068707Y0082290D01*
X0068042Y0082801D01*
X0067315Y0083220D01*
X0066540Y0083542D01*
X0065730Y0083759D01*
X0064898Y0083868D01*
X0064878Y0083868D01*
X0064878Y0077868D01*
X0064078Y0077868D01*
X0064078Y0077068D01*
X0064878Y0077068D01*
X0064878Y0071068D01*
X0064878Y0072058D02*
X0064078Y0072058D01*
X0064078Y0072856D02*
X0064878Y0072856D01*
X0064878Y0073655D02*
X0064078Y0073655D01*
X0064078Y0074453D02*
X0064878Y0074453D01*
X0064878Y0075252D02*
X0064078Y0075252D01*
X0064078Y0076050D02*
X0064878Y0076050D01*
X0064878Y0076849D02*
X0064078Y0076849D01*
X0064078Y0077647D02*
X0051078Y0077647D01*
X0051078Y0076849D02*
X0058105Y0076849D01*
X0058233Y0076050D02*
X0051035Y0076050D01*
X0050704Y0075252D02*
X0058469Y0075252D01*
X0058829Y0074453D02*
X0050373Y0074453D01*
X0049999Y0073655D02*
X0059338Y0073655D01*
X0060039Y0072856D02*
X0049200Y0072856D01*
X0048402Y0072058D02*
X0061050Y0072058D01*
X0066034Y0071259D02*
X0082923Y0071259D01*
X0083227Y0071178D02*
X0084059Y0071068D01*
X0084078Y0071068D01*
X0084078Y0077068D01*
X0078078Y0077068D01*
X0078078Y0077049D01*
X0078188Y0076217D01*
X0078405Y0075407D01*
X0078726Y0074631D01*
X0079146Y0073905D01*
X0079656Y0073239D01*
X0080250Y0072646D01*
X0080915Y0072135D01*
X0081642Y0071716D01*
X0082417Y0071395D01*
X0083227Y0071178D01*
X0084078Y0071259D02*
X0084878Y0071259D01*
X0084878Y0071068D02*
X0084898Y0071068D01*
X0085730Y0071178D01*
X0086540Y0071395D01*
X0087315Y0071716D01*
X0088042Y0072135D01*
X0088707Y0072646D01*
X0089301Y0073239D01*
X0089811Y0073905D01*
X0090231Y0074631D01*
X0090552Y0075407D01*
X0090769Y0076217D01*
X0090878Y0077049D01*
X0090878Y0077068D01*
X0084879Y0077068D01*
X0084879Y0077868D01*
X0090878Y0077868D01*
X0090878Y0077888D01*
X0090769Y0078719D01*
X0090552Y0079530D01*
X0090231Y0080305D01*
X0089811Y0081031D01*
X0089301Y0081697D01*
X0088707Y0082290D01*
X0088042Y0082801D01*
X0087315Y0083220D01*
X0086540Y0083542D01*
X0085730Y0083759D01*
X0084898Y0083868D01*
X0084878Y0083868D01*
X0084878Y0077868D01*
X0084078Y0077868D01*
X0084078Y0077068D01*
X0084878Y0077068D01*
X0084878Y0071068D01*
X0084878Y0072058D02*
X0084078Y0072058D01*
X0084078Y0072856D02*
X0084878Y0072856D01*
X0084878Y0073655D02*
X0084078Y0073655D01*
X0084078Y0074453D02*
X0084878Y0074453D01*
X0084878Y0075252D02*
X0084078Y0075252D01*
X0084078Y0076050D02*
X0084878Y0076050D01*
X0084878Y0076849D02*
X0084078Y0076849D01*
X0084078Y0077647D02*
X0064879Y0077647D01*
X0064878Y0078446D02*
X0064078Y0078446D01*
X0064078Y0077868D02*
X0064078Y0083868D01*
X0064059Y0083868D01*
X0063227Y0083759D01*
X0062417Y0083542D01*
X0061642Y0083220D01*
X0060915Y0082801D01*
X0060250Y0082290D01*
X0059656Y0081697D01*
X0059146Y0081031D01*
X0058726Y0080305D01*
X0058405Y0079530D01*
X0058188Y0078719D01*
X0058078Y0077888D01*
X0058078Y0077868D01*
X0064078Y0077868D01*
X0064078Y0079244D02*
X0064878Y0079244D01*
X0064878Y0080043D02*
X0064078Y0080043D01*
X0064078Y0080841D02*
X0064878Y0080841D01*
X0064878Y0081640D02*
X0064078Y0081640D01*
X0064078Y0082438D02*
X0064878Y0082438D01*
X0064878Y0083237D02*
X0064078Y0083237D01*
X0061681Y0083237D02*
X0047798Y0083237D01*
X0047578Y0084035D02*
X0128991Y0084035D01*
X0128986Y0084068D02*
X0129089Y0083414D01*
X0129308Y0082741D01*
X0129630Y0082110D01*
X0130046Y0081537D01*
X0130547Y0081036D01*
X0131120Y0080619D01*
X0131751Y0080298D01*
X0132425Y0080079D01*
X0133078Y0079975D01*
X0133078Y0084068D01*
X0128986Y0084068D01*
X0128986Y0084868D02*
X0133078Y0084868D01*
X0133078Y0084068D01*
X0133878Y0084068D01*
X0133878Y0079975D01*
X0134532Y0080079D01*
X0135206Y0080298D01*
X0135837Y0080619D01*
X0136410Y0081036D01*
X0136911Y0081537D01*
X0137327Y0082110D01*
X0137649Y0082741D01*
X0137868Y0083414D01*
X0137971Y0084068D01*
X0133879Y0084068D01*
X0133879Y0084868D01*
X0137971Y0084868D01*
X0137868Y0085522D01*
X0137649Y0086196D01*
X0137327Y0086827D01*
X0136911Y0087400D01*
X0136410Y0087901D01*
X0135837Y0088317D01*
X0135206Y0088638D01*
X0134532Y0088857D01*
X0133878Y0088961D01*
X0133878Y0084868D01*
X0133078Y0084868D01*
X0133078Y0088961D01*
X0132425Y0088857D01*
X0131751Y0088638D01*
X0131120Y0088317D01*
X0130547Y0087901D01*
X0130046Y0087400D01*
X0129630Y0086827D01*
X0129308Y0086196D01*
X0129089Y0085522D01*
X0128986Y0084868D01*
X0129125Y0085632D02*
X0047578Y0085632D01*
X0047578Y0084834D02*
X0133078Y0084834D01*
X0133078Y0085632D02*
X0133878Y0085632D01*
X0133879Y0084834D02*
X0176478Y0084834D01*
X0176478Y0085632D02*
X0137832Y0085632D01*
X0137529Y0086431D02*
X0176478Y0086431D01*
X0176478Y0087229D02*
X0137035Y0087229D01*
X0136235Y0088028D02*
X0176478Y0088028D01*
X0176478Y0088827D02*
X0134627Y0088827D01*
X0133878Y0088827D02*
X0133078Y0088827D01*
X0132330Y0088827D02*
X0047578Y0088827D01*
X0047578Y0089625D02*
X0176478Y0089625D01*
X0176478Y0090424D02*
X0135995Y0090424D01*
X0136141Y0090484D02*
X0137463Y0091806D01*
X0138178Y0093533D01*
X0138178Y0095403D01*
X0137463Y0097131D01*
X0136141Y0098453D01*
X0134413Y0099168D01*
X0132544Y0099168D01*
X0130816Y0098453D01*
X0129494Y0097131D01*
X0128778Y0095403D01*
X0128778Y0093533D01*
X0129494Y0091806D01*
X0130816Y0090484D01*
X0132544Y0089768D01*
X0134413Y0089768D01*
X0136141Y0090484D01*
X0136879Y0091222D02*
X0176478Y0091222D01*
X0176478Y0092021D02*
X0137552Y0092021D01*
X0137883Y0092819D02*
X0176478Y0092819D01*
X0176478Y0093618D02*
X0138178Y0093618D01*
X0138178Y0094416D02*
X0176478Y0094416D01*
X0176478Y0095215D02*
X0138178Y0095215D01*
X0137926Y0096013D02*
X0176478Y0096013D01*
X0176478Y0096812D02*
X0137595Y0096812D01*
X0136983Y0097610D02*
X0176245Y0097610D01*
X0176439Y0097416D02*
X0175427Y0098429D01*
X0174878Y0099752D01*
X0174878Y0101184D01*
X0175427Y0102507D01*
X0176439Y0103520D01*
X0177762Y0104068D01*
X0179195Y0104068D01*
X0180518Y0103520D01*
X0181530Y0102507D01*
X0182078Y0101184D01*
X0182078Y0099752D01*
X0181530Y0098429D01*
X0180518Y0097416D01*
X0180478Y0097400D01*
X0180478Y0081775D01*
X0181500Y0080753D01*
X0181500Y0076183D01*
X0180217Y0074900D01*
X0175646Y0074900D01*
X0174363Y0076183D01*
X0174363Y0076711D01*
X0174259Y0076322D01*
X0173996Y0075868D01*
X0173626Y0075497D01*
X0173172Y0075235D01*
X0172666Y0075100D01*
X0171426Y0075100D01*
X0171426Y0078068D01*
X0170626Y0078068D01*
X0170626Y0075100D01*
X0169386Y0075100D01*
X0168879Y0075235D01*
X0168426Y0075497D01*
X0168055Y0075868D01*
X0167793Y0076322D01*
X0167657Y0076828D01*
X0167657Y0078068D01*
X0170626Y0078068D01*
X0170626Y0078868D01*
X0170626Y0081837D01*
X0169386Y0081837D01*
X0168879Y0081701D01*
X0168426Y0081439D01*
X0168055Y0081068D01*
X0167793Y0080614D01*
X0167657Y0080108D01*
X0167657Y0078868D01*
X0170626Y0078868D01*
X0171426Y0078868D01*
X0171426Y0081837D01*
X0172666Y0081837D01*
X0173172Y0081701D01*
X0173626Y0081439D01*
X0173996Y0081068D01*
X0174259Y0080614D01*
X0174363Y0080226D01*
X0174363Y0080753D01*
X0175646Y0082037D01*
X0176478Y0082037D01*
X0176478Y0097400D01*
X0176439Y0097416D01*
X0175447Y0098409D02*
X0136185Y0098409D01*
X0134987Y0100006D02*
X0148113Y0100006D01*
X0148911Y0099207D02*
X0068235Y0099207D01*
X0068997Y0098409D02*
X0130772Y0098409D01*
X0129974Y0097610D02*
X0069328Y0097610D01*
X0069659Y0096812D02*
X0129362Y0096812D01*
X0129031Y0096013D02*
X0069778Y0096013D01*
X0069778Y0095215D02*
X0128778Y0095215D01*
X0128778Y0094416D02*
X0069778Y0094416D01*
X0069449Y0093618D02*
X0128778Y0093618D01*
X0129074Y0092819D02*
X0069118Y0092819D01*
X0068526Y0092021D02*
X0129405Y0092021D01*
X0130078Y0091222D02*
X0067728Y0091222D01*
X0066149Y0090424D02*
X0130961Y0090424D01*
X0130722Y0088028D02*
X0047578Y0088028D01*
X0047578Y0087229D02*
X0129922Y0087229D01*
X0129428Y0086431D02*
X0047578Y0086431D01*
X0048842Y0082438D02*
X0060443Y0082438D01*
X0059613Y0081640D02*
X0049641Y0081640D01*
X0050225Y0080841D02*
X0059036Y0080841D01*
X0058618Y0080043D02*
X0050556Y0080043D01*
X0050887Y0079244D02*
X0058329Y0079244D01*
X0058152Y0078446D02*
X0051078Y0078446D01*
X0053728Y0090424D02*
X0047578Y0090424D01*
X0047728Y0091222D02*
X0051646Y0091222D01*
X0050714Y0092021D02*
X0048526Y0092021D01*
X0049118Y0092819D02*
X0050104Y0092819D01*
X0049717Y0093618D02*
X0049449Y0093618D01*
X0049328Y0097610D02*
X0049846Y0097610D01*
X0050311Y0098409D02*
X0048997Y0098409D01*
X0048235Y0099207D02*
X0051005Y0099207D01*
X0052150Y0100006D02*
X0047374Y0100006D01*
X0054078Y0100006D02*
X0054878Y0100006D01*
X0054878Y0099207D02*
X0054078Y0099207D01*
X0054078Y0098409D02*
X0054878Y0098409D01*
X0054878Y0097610D02*
X0054078Y0097610D01*
X0054078Y0096812D02*
X0054878Y0096812D01*
X0054878Y0096013D02*
X0054078Y0096013D01*
X0054078Y0094416D02*
X0054878Y0094416D01*
X0054878Y0093618D02*
X0054078Y0093618D01*
X0054078Y0092819D02*
X0054878Y0092819D01*
X0054878Y0092021D02*
X0054078Y0092021D01*
X0054078Y0091222D02*
X0054878Y0091222D01*
X0054878Y0090424D02*
X0054078Y0090424D01*
X0055229Y0090424D02*
X0062808Y0090424D01*
X0061229Y0091222D02*
X0057311Y0091222D01*
X0058243Y0092021D02*
X0060431Y0092021D01*
X0059839Y0092819D02*
X0058853Y0092819D01*
X0059240Y0093618D02*
X0059508Y0093618D01*
X0062478Y0101603D02*
X0021078Y0101603D01*
X0021078Y0102401D02*
X0062478Y0102401D01*
X0062478Y0103200D02*
X0021078Y0103200D01*
X0021078Y0103998D02*
X0062478Y0103998D01*
X0062478Y0104797D02*
X0021078Y0104797D01*
X0021078Y0105595D02*
X0062478Y0105595D01*
X0062478Y0106394D02*
X0021078Y0106394D01*
X0021078Y0107192D02*
X0062478Y0107192D01*
X0062478Y0107991D02*
X0021078Y0107991D01*
X0021078Y0108789D02*
X0062478Y0108789D01*
X0062478Y0109588D02*
X0021078Y0109588D01*
X0021078Y0110386D02*
X0062478Y0110386D01*
X0062478Y0111185D02*
X0021078Y0111185D01*
X0021078Y0111983D02*
X0062478Y0111983D01*
X0062478Y0112782D02*
X0021078Y0112782D01*
X0021078Y0113580D02*
X0062478Y0113580D01*
X0062478Y0114379D02*
X0021078Y0114379D01*
X0021078Y0115177D02*
X0062478Y0115177D01*
X0062478Y0115976D02*
X0021078Y0115976D01*
X0021078Y0116774D02*
X0062478Y0116774D01*
X0062478Y0117573D02*
X0021078Y0117573D01*
X0021078Y0118371D02*
X0062478Y0118371D01*
X0062478Y0119170D02*
X0021078Y0119170D01*
X0021078Y0119968D02*
X0062478Y0119968D01*
X0062478Y0120767D02*
X0021078Y0120767D01*
X0021078Y0121565D02*
X0062478Y0121565D01*
X0062478Y0122364D02*
X0021078Y0122364D01*
X0021078Y0123162D02*
X0062478Y0123162D01*
X0062478Y0123961D02*
X0021078Y0123961D01*
X0021078Y0124760D02*
X0062478Y0124760D01*
X0062478Y0125558D02*
X0021078Y0125558D01*
X0021078Y0126357D02*
X0062478Y0126357D01*
X0062478Y0127155D02*
X0021078Y0127155D01*
X0021078Y0127954D02*
X0062478Y0127954D01*
X0062478Y0128752D02*
X0021078Y0128752D01*
X0021078Y0129551D02*
X0062478Y0129551D01*
X0062478Y0130349D02*
X0021078Y0130349D01*
X0021078Y0131148D02*
X0062478Y0131148D01*
X0062478Y0131946D02*
X0021078Y0131946D01*
X0021078Y0132745D02*
X0062478Y0132745D01*
X0062478Y0133543D02*
X0021078Y0133543D01*
X0021078Y0134342D02*
X0062478Y0134342D01*
X0062478Y0135140D02*
X0021078Y0135140D01*
X0021078Y0135939D02*
X0062478Y0135939D01*
X0066478Y0135939D02*
X0070180Y0135939D01*
X0070978Y0135140D02*
X0066478Y0135140D01*
X0066478Y0134342D02*
X0071777Y0134342D01*
X0072575Y0133543D02*
X0066478Y0133543D01*
X0066478Y0132745D02*
X0073374Y0132745D01*
X0073246Y0131946D02*
X0074172Y0131946D01*
X0074047Y0131559D02*
X0073359Y0131909D01*
X0072626Y0132148D01*
X0071878Y0132266D01*
X0071878Y0127768D01*
X0071078Y0127768D01*
X0071078Y0126968D01*
X0066581Y0126968D01*
X0066699Y0126221D01*
X0066937Y0125487D01*
X0067288Y0124800D01*
X0067741Y0124176D01*
X0068286Y0123631D01*
X0068910Y0123177D01*
X0069598Y0122827D01*
X0070331Y0122589D01*
X0071078Y0122470D01*
X0071078Y0126968D01*
X0071878Y0126968D01*
X0071878Y0122470D01*
X0072626Y0122589D01*
X0073359Y0122827D01*
X0074047Y0123177D01*
X0074671Y0123631D01*
X0075216Y0124176D01*
X0075669Y0124800D01*
X0076019Y0125487D01*
X0076258Y0126221D01*
X0076376Y0126968D01*
X0071879Y0126968D01*
X0071879Y0127768D01*
X0076376Y0127768D01*
X0076258Y0128516D01*
X0076019Y0129249D01*
X0075669Y0129936D01*
X0075216Y0130560D01*
X0074671Y0131106D01*
X0074047Y0131559D01*
X0074613Y0131148D02*
X0074971Y0131148D01*
X0075369Y0130349D02*
X0075769Y0130349D01*
X0075866Y0129551D02*
X0076568Y0129551D01*
X0076181Y0128752D02*
X0077366Y0128752D01*
X0078165Y0127954D02*
X0076347Y0127954D01*
X0076279Y0126357D02*
X0094762Y0126357D01*
X0095560Y0125558D02*
X0076042Y0125558D01*
X0075640Y0124760D02*
X0096359Y0124760D01*
X0097157Y0123961D02*
X0075001Y0123961D01*
X0074017Y0123162D02*
X0097956Y0123162D01*
X0098478Y0122364D02*
X0066478Y0122364D01*
X0066478Y0123162D02*
X0068939Y0123162D01*
X0067956Y0123961D02*
X0066478Y0123961D01*
X0066478Y0124760D02*
X0067317Y0124760D01*
X0066914Y0125558D02*
X0066478Y0125558D01*
X0066478Y0126357D02*
X0066678Y0126357D01*
X0066478Y0127155D02*
X0071078Y0127155D01*
X0071078Y0127768D02*
X0066581Y0127768D01*
X0066699Y0128516D01*
X0066937Y0129249D01*
X0067288Y0129936D01*
X0067741Y0130560D01*
X0068286Y0131106D01*
X0068910Y0131559D01*
X0069598Y0131909D01*
X0070331Y0132148D01*
X0071078Y0132266D01*
X0071078Y0127768D01*
X0071078Y0127954D02*
X0071878Y0127954D01*
X0071878Y0128752D02*
X0071078Y0128752D01*
X0071078Y0129551D02*
X0071878Y0129551D01*
X0071878Y0130349D02*
X0071078Y0130349D01*
X0071078Y0131148D02*
X0071878Y0131148D01*
X0071878Y0131946D02*
X0071078Y0131946D01*
X0069711Y0131946D02*
X0066478Y0131946D01*
X0066478Y0131148D02*
X0068344Y0131148D01*
X0067587Y0130349D02*
X0066478Y0130349D01*
X0066478Y0129551D02*
X0067091Y0129551D01*
X0066776Y0128752D02*
X0066478Y0128752D01*
X0066478Y0127954D02*
X0066610Y0127954D01*
X0071078Y0126357D02*
X0071878Y0126357D01*
X0071879Y0127155D02*
X0078963Y0127155D01*
X0071878Y0125558D02*
X0071078Y0125558D01*
X0071078Y0124760D02*
X0071878Y0124760D01*
X0071878Y0123961D02*
X0071078Y0123961D01*
X0071078Y0123162D02*
X0071878Y0123162D01*
X0066478Y0121565D02*
X0098478Y0121565D01*
X0098478Y0120767D02*
X0066478Y0120767D01*
X0066478Y0119968D02*
X0098478Y0119968D01*
X0098478Y0119170D02*
X0066478Y0119170D01*
X0066478Y0118371D02*
X0098478Y0118371D01*
X0098478Y0117573D02*
X0066478Y0117573D01*
X0066478Y0116774D02*
X0098478Y0116774D01*
X0098478Y0115976D02*
X0066478Y0115976D01*
X0066478Y0115177D02*
X0098478Y0115177D01*
X0098478Y0114379D02*
X0066478Y0114379D01*
X0066478Y0113580D02*
X0098478Y0113580D01*
X0098478Y0112782D02*
X0066478Y0112782D01*
X0066478Y0111983D02*
X0098478Y0111983D01*
X0098478Y0111185D02*
X0066478Y0111185D01*
X0066478Y0110386D02*
X0098478Y0110386D01*
X0098478Y0109588D02*
X0066478Y0109588D01*
X0066478Y0108789D02*
X0098478Y0108789D01*
X0099127Y0107991D02*
X0066478Y0107991D01*
X0066478Y0107192D02*
X0099926Y0107192D01*
X0100724Y0106394D02*
X0066478Y0106394D01*
X0066478Y0105595D02*
X0101523Y0105595D01*
X0102321Y0104797D02*
X0066478Y0104797D01*
X0066478Y0103998D02*
X0103120Y0103998D01*
X0103919Y0103200D02*
X0066478Y0103200D01*
X0066478Y0102401D02*
X0108367Y0102401D01*
X0108601Y0101603D02*
X0066478Y0101603D01*
X0066478Y0100804D02*
X0130496Y0100804D01*
X0129697Y0101603D02*
X0122356Y0101603D01*
X0122590Y0102401D02*
X0129247Y0102401D01*
X0131970Y0100006D02*
X0067374Y0100006D01*
X0067275Y0083237D02*
X0081681Y0083237D01*
X0081642Y0083220D02*
X0080915Y0082801D01*
X0080250Y0082290D01*
X0079656Y0081697D01*
X0079146Y0081031D01*
X0078726Y0080305D01*
X0078405Y0079530D01*
X0078188Y0078719D01*
X0078078Y0077888D01*
X0078078Y0077868D01*
X0084078Y0077868D01*
X0084078Y0083868D01*
X0084059Y0083868D01*
X0083227Y0083759D01*
X0082417Y0083542D01*
X0081642Y0083220D01*
X0080443Y0082438D02*
X0068514Y0082438D01*
X0069344Y0081640D02*
X0079613Y0081640D01*
X0079036Y0080841D02*
X0069921Y0080841D01*
X0070339Y0080043D02*
X0078618Y0080043D01*
X0078329Y0079244D02*
X0070628Y0079244D01*
X0070805Y0078446D02*
X0078152Y0078446D01*
X0078105Y0076849D02*
X0070852Y0076849D01*
X0070724Y0076050D02*
X0078233Y0076050D01*
X0078469Y0075252D02*
X0070488Y0075252D01*
X0070128Y0074453D02*
X0078829Y0074453D01*
X0079338Y0073655D02*
X0069619Y0073655D01*
X0068918Y0072856D02*
X0080039Y0072856D01*
X0081050Y0072058D02*
X0067907Y0072058D01*
X0084078Y0078446D02*
X0084878Y0078446D01*
X0084878Y0079244D02*
X0084078Y0079244D01*
X0084078Y0080043D02*
X0084878Y0080043D01*
X0084878Y0080841D02*
X0084078Y0080841D01*
X0084078Y0081640D02*
X0084878Y0081640D01*
X0084878Y0082438D02*
X0084078Y0082438D01*
X0084078Y0083237D02*
X0084878Y0083237D01*
X0087275Y0083237D02*
X0129147Y0083237D01*
X0129462Y0082438D02*
X0088514Y0082438D01*
X0089344Y0081640D02*
X0129971Y0081640D01*
X0130814Y0080841D02*
X0089921Y0080841D01*
X0090339Y0080043D02*
X0132653Y0080043D01*
X0133078Y0080043D02*
X0133878Y0080043D01*
X0134304Y0080043D02*
X0145657Y0080043D01*
X0145657Y0080108D02*
X0145657Y0078868D01*
X0148626Y0078868D01*
X0148626Y0081837D01*
X0147386Y0081837D01*
X0146879Y0081701D01*
X0146426Y0081439D01*
X0146055Y0081068D01*
X0145793Y0080614D01*
X0145657Y0080108D01*
X0145924Y0080841D02*
X0136142Y0080841D01*
X0136986Y0081640D02*
X0146774Y0081640D01*
X0148626Y0081640D02*
X0149426Y0081640D01*
X0149426Y0081837D02*
X0149426Y0078868D01*
X0148626Y0078868D01*
X0148626Y0078068D01*
X0149426Y0078068D01*
X0149426Y0075100D01*
X0150666Y0075100D01*
X0151172Y0075235D01*
X0151626Y0075497D01*
X0151996Y0075868D01*
X0152259Y0076322D01*
X0152363Y0076711D01*
X0152363Y0076183D01*
X0153646Y0074900D01*
X0158217Y0074900D01*
X0159500Y0076183D01*
X0159500Y0076468D01*
X0160650Y0076468D01*
X0161019Y0076100D01*
X0160427Y0075507D01*
X0159878Y0074184D01*
X0159878Y0072752D01*
X0160427Y0071429D01*
X0161439Y0070416D01*
X0162762Y0069868D01*
X0164195Y0069868D01*
X0165518Y0070416D01*
X0166530Y0071429D01*
X0167078Y0072752D01*
X0167078Y0074184D01*
X0166530Y0075507D01*
X0165518Y0076520D01*
X0165478Y0076536D01*
X0165478Y0077297D01*
X0164307Y0078468D01*
X0162307Y0080468D01*
X0159500Y0080468D01*
X0159500Y0080753D01*
X0158217Y0082037D01*
X0153646Y0082037D01*
X0152363Y0080753D01*
X0152363Y0080226D01*
X0152259Y0080614D01*
X0151996Y0081068D01*
X0151626Y0081439D01*
X0151172Y0081701D01*
X0150666Y0081837D01*
X0149426Y0081837D01*
X0149426Y0080841D02*
X0148626Y0080841D01*
X0148626Y0080043D02*
X0149426Y0080043D01*
X0149426Y0079244D02*
X0148626Y0079244D01*
X0148626Y0078446D02*
X0136148Y0078446D01*
X0136141Y0078453D02*
X0134413Y0079168D01*
X0132544Y0079168D01*
X0130816Y0078453D01*
X0129494Y0077131D01*
X0128778Y0075403D01*
X0128778Y0073533D01*
X0129494Y0071806D01*
X0130816Y0070484D01*
X0132544Y0069768D01*
X0134413Y0069768D01*
X0136141Y0070484D01*
X0137463Y0071806D01*
X0138178Y0073533D01*
X0138178Y0075403D01*
X0137463Y0077131D01*
X0136141Y0078453D01*
X0136946Y0077647D02*
X0145657Y0077647D01*
X0145657Y0078068D02*
X0145657Y0076828D01*
X0145793Y0076322D01*
X0146055Y0075868D01*
X0146426Y0075497D01*
X0146879Y0075235D01*
X0147386Y0075100D01*
X0148626Y0075100D01*
X0148626Y0078068D01*
X0145657Y0078068D01*
X0145657Y0079244D02*
X0090628Y0079244D01*
X0090805Y0078446D02*
X0130809Y0078446D01*
X0130011Y0077647D02*
X0084879Y0077647D01*
X0090852Y0076849D02*
X0129377Y0076849D01*
X0129047Y0076050D02*
X0090724Y0076050D01*
X0090488Y0075252D02*
X0128778Y0075252D01*
X0128778Y0074453D02*
X0090128Y0074453D01*
X0089619Y0073655D02*
X0128778Y0073655D01*
X0129059Y0072856D02*
X0088918Y0072856D01*
X0087907Y0072058D02*
X0129390Y0072058D01*
X0130041Y0071259D02*
X0086034Y0071259D01*
X0105583Y0107192D02*
X0108459Y0107192D01*
X0109258Y0107991D02*
X0104784Y0107991D01*
X0103986Y0108789D02*
X0131629Y0108789D01*
X0130354Y0107991D02*
X0121699Y0107991D01*
X0122497Y0107192D02*
X0129556Y0107192D01*
X0131051Y0110386D02*
X0102478Y0110386D01*
X0102478Y0111185D02*
X0109019Y0111185D01*
X0108367Y0111983D02*
X0102478Y0111983D01*
X0102478Y0112782D02*
X0104336Y0112782D01*
X0103538Y0113580D02*
X0102478Y0113580D01*
X0102478Y0114379D02*
X0102739Y0114379D01*
X0105202Y0117573D02*
X0108840Y0117573D01*
X0108367Y0116774D02*
X0106001Y0116774D01*
X0104478Y0118371D02*
X0130735Y0118371D01*
X0129936Y0117573D02*
X0122117Y0117573D01*
X0122590Y0116774D02*
X0129346Y0116774D01*
X0130533Y0120767D02*
X0104478Y0120767D01*
X0104478Y0121565D02*
X0108638Y0121565D01*
X0108367Y0122364D02*
X0104478Y0122364D01*
X0104478Y0119968D02*
X0132060Y0119968D01*
X0129734Y0121565D02*
X0122319Y0121565D01*
X0122590Y0122364D02*
X0129263Y0122364D01*
X0129519Y0127155D02*
X0122535Y0127155D01*
X0121736Y0127954D02*
X0130317Y0127954D01*
X0133478Y0124468D02*
X0118825Y0124468D01*
X0115533Y0117573D02*
X0115424Y0117573D01*
X0118825Y0114468D02*
X0133478Y0114468D01*
X0136842Y0111185D02*
X0142910Y0111185D01*
X0142910Y0111983D02*
X0137536Y0111983D01*
X0137867Y0112782D02*
X0142910Y0112782D01*
X0142910Y0113580D02*
X0138178Y0113580D01*
X0138178Y0114379D02*
X0143339Y0114379D01*
X0142910Y0115177D02*
X0138178Y0115177D01*
X0137941Y0115976D02*
X0142910Y0115976D01*
X0142910Y0116774D02*
X0137610Y0116774D01*
X0137021Y0117573D02*
X0142910Y0117573D01*
X0142910Y0118371D02*
X0136222Y0118371D01*
X0134897Y0119968D02*
X0142910Y0119968D01*
X0142910Y0119170D02*
X0104478Y0119170D01*
X0103187Y0109588D02*
X0142910Y0109588D01*
X0142910Y0110386D02*
X0135906Y0110386D01*
X0135328Y0108789D02*
X0142910Y0108789D01*
X0143213Y0107991D02*
X0136603Y0107991D01*
X0137401Y0107192D02*
X0144478Y0107192D01*
X0144478Y0106394D02*
X0137768Y0106394D01*
X0138099Y0105595D02*
X0144478Y0105595D01*
X0144478Y0104797D02*
X0138178Y0104797D01*
X0138178Y0103998D02*
X0144478Y0103998D01*
X0144919Y0103200D02*
X0138040Y0103200D01*
X0137710Y0102401D02*
X0145717Y0102401D01*
X0146516Y0101603D02*
X0137260Y0101603D01*
X0136461Y0100804D02*
X0147314Y0100804D01*
X0150478Y0100468D02*
X0146478Y0104468D01*
X0146478Y0111122D01*
X0143034Y0120767D02*
X0136424Y0120767D01*
X0137223Y0121565D02*
X0143833Y0121565D01*
X0144478Y0122364D02*
X0137694Y0122364D01*
X0138025Y0123162D02*
X0144478Y0123162D01*
X0144478Y0123961D02*
X0138178Y0123961D01*
X0138178Y0124760D02*
X0144478Y0124760D01*
X0144478Y0125558D02*
X0138114Y0125558D01*
X0137784Y0126357D02*
X0144478Y0126357D01*
X0144478Y0127155D02*
X0137438Y0127155D01*
X0136640Y0127954D02*
X0144478Y0127954D01*
X0144478Y0128752D02*
X0135418Y0128752D01*
X0129420Y0111983D02*
X0122590Y0111983D01*
X0121938Y0111185D02*
X0130115Y0111185D01*
X0133478Y0104468D02*
X0118825Y0104468D01*
X0133078Y0088028D02*
X0133878Y0088028D01*
X0133878Y0087229D02*
X0133078Y0087229D01*
X0133078Y0086431D02*
X0133878Y0086431D01*
X0133878Y0084035D02*
X0133078Y0084035D01*
X0133078Y0083237D02*
X0133878Y0083237D01*
X0133878Y0082438D02*
X0133078Y0082438D01*
X0133078Y0081640D02*
X0133878Y0081640D01*
X0133878Y0080841D02*
X0133078Y0080841D01*
X0137495Y0082438D02*
X0176478Y0082438D01*
X0176478Y0083237D02*
X0137810Y0083237D01*
X0137966Y0084035D02*
X0176478Y0084035D01*
X0175249Y0081640D02*
X0173278Y0081640D01*
X0174128Y0080841D02*
X0174451Y0080841D01*
X0177931Y0078468D02*
X0178478Y0079015D01*
X0178478Y0100468D01*
X0175104Y0099207D02*
X0170046Y0099207D01*
X0170844Y0100006D02*
X0174878Y0100006D01*
X0174878Y0100804D02*
X0171643Y0100804D01*
X0172441Y0101603D02*
X0175052Y0101603D01*
X0175383Y0102401D02*
X0173240Y0102401D01*
X0173478Y0103200D02*
X0176119Y0103200D01*
X0177593Y0103998D02*
X0173478Y0103998D01*
X0173478Y0104797D02*
X0188778Y0104797D01*
X0188778Y0105403D02*
X0188778Y0103533D01*
X0189494Y0101806D01*
X0190816Y0100484D01*
X0192544Y0099768D01*
X0194413Y0099768D01*
X0196141Y0100484D01*
X0197463Y0101806D01*
X0198178Y0103533D01*
X0198178Y0105403D01*
X0197463Y0107131D01*
X0196141Y0108453D01*
X0194413Y0109168D01*
X0192544Y0109168D01*
X0190816Y0108453D01*
X0189494Y0107131D01*
X0188778Y0105403D01*
X0188858Y0105595D02*
X0173478Y0105595D01*
X0173478Y0106394D02*
X0189189Y0106394D01*
X0189556Y0107192D02*
X0173478Y0107192D01*
X0176254Y0107991D02*
X0176254Y0107991D01*
X0176254Y0108789D02*
X0176254Y0108789D01*
X0176254Y0109531D02*
X0176254Y0111278D01*
X0176254Y0111278D01*
X0176254Y0109531D01*
X0176254Y0109531D01*
X0176254Y0109588D02*
X0176254Y0109588D01*
X0176254Y0110386D02*
X0176254Y0110386D01*
X0176254Y0111185D02*
X0176254Y0111185D01*
X0176254Y0113468D02*
X0183478Y0113468D01*
X0186478Y0116468D01*
X0186478Y0137468D01*
X0193478Y0144468D01*
X0197185Y0141528D02*
X0197478Y0141528D01*
X0196912Y0140730D02*
X0196387Y0140730D01*
X0196113Y0139931D02*
X0194807Y0139931D01*
X0194499Y0139133D02*
X0195315Y0139133D01*
X0192458Y0139133D02*
X0190971Y0139133D01*
X0190698Y0138334D02*
X0190173Y0138334D01*
X0189899Y0137536D02*
X0189374Y0137536D01*
X0189331Y0136737D02*
X0188576Y0136737D01*
X0188478Y0135939D02*
X0189000Y0135939D01*
X0188778Y0135140D02*
X0188478Y0135140D01*
X0188478Y0134342D02*
X0188778Y0134342D01*
X0188778Y0133543D02*
X0188478Y0133543D01*
X0188478Y0132745D02*
X0189105Y0132745D01*
X0189436Y0131946D02*
X0188478Y0131946D01*
X0188478Y0131148D02*
X0190152Y0131148D01*
X0191141Y0130349D02*
X0188478Y0130349D01*
X0188478Y0129551D02*
X0199478Y0129551D01*
X0199478Y0130349D02*
X0195816Y0130349D01*
X0196805Y0131148D02*
X0199478Y0131148D01*
X0199478Y0131946D02*
X0197521Y0131946D01*
X0197852Y0132745D02*
X0199478Y0132745D01*
X0199478Y0133543D02*
X0198178Y0133543D01*
X0198178Y0134342D02*
X0199478Y0134342D01*
X0199478Y0135140D02*
X0198178Y0135140D01*
X0197957Y0135939D02*
X0199478Y0135939D01*
X0199478Y0136737D02*
X0198576Y0136737D01*
X0199374Y0137536D02*
X0199478Y0137536D01*
X0199478Y0140468D02*
X0199478Y0166468D01*
X0196478Y0169468D01*
X0203478Y0169476D02*
X0210792Y0169476D01*
X0210792Y0168678D02*
X0203478Y0168678D01*
X0203478Y0167879D02*
X0210792Y0167879D01*
X0210792Y0167081D02*
X0203478Y0167081D01*
X0203478Y0166282D02*
X0210792Y0166282D01*
X0210792Y0165484D02*
X0203478Y0165484D01*
X0203478Y0164685D02*
X0210792Y0164685D01*
X0210792Y0163887D02*
X0203478Y0163887D01*
X0203478Y0163088D02*
X0210792Y0163088D01*
X0210792Y0162290D02*
X0203478Y0162290D01*
X0203478Y0161491D02*
X0210792Y0161491D01*
X0210792Y0160693D02*
X0203478Y0160693D01*
X0203478Y0159894D02*
X0210792Y0159894D01*
X0210792Y0159096D02*
X0203478Y0159096D01*
X0203478Y0158297D02*
X0210792Y0158297D01*
X0210792Y0157498D02*
X0203478Y0157498D01*
X0203478Y0156700D02*
X0210792Y0156700D01*
X0210792Y0155901D02*
X0203478Y0155901D01*
X0203478Y0155103D02*
X0210792Y0155103D01*
X0210792Y0154304D02*
X0203478Y0154304D01*
X0203478Y0153506D02*
X0210792Y0153506D01*
X0210792Y0152707D02*
X0203478Y0152707D01*
X0203478Y0151909D02*
X0210792Y0151909D01*
X0210792Y0151110D02*
X0203478Y0151110D01*
X0203478Y0150312D02*
X0210792Y0150312D01*
X0210792Y0149513D02*
X0203478Y0149513D01*
X0203478Y0148715D02*
X0210792Y0148715D01*
X0210792Y0147916D02*
X0203478Y0147916D01*
X0203478Y0147118D02*
X0210792Y0147118D01*
X0210792Y0146319D02*
X0203478Y0146319D01*
X0203478Y0145521D02*
X0210792Y0145521D01*
X0210792Y0144722D02*
X0203478Y0144722D01*
X0203478Y0143924D02*
X0210792Y0143924D01*
X0210792Y0143125D02*
X0203478Y0143125D01*
X0203478Y0142327D02*
X0210792Y0142327D01*
X0210792Y0141528D02*
X0203478Y0141528D01*
X0203478Y0140730D02*
X0210792Y0140730D01*
X0210792Y0139931D02*
X0203478Y0139931D01*
X0203478Y0139133D02*
X0210792Y0139133D01*
X0210792Y0138334D02*
X0203478Y0138334D01*
X0203478Y0137536D02*
X0210792Y0137536D01*
X0210792Y0136737D02*
X0203478Y0136737D01*
X0203478Y0135939D02*
X0210792Y0135939D01*
X0210792Y0135140D02*
X0203478Y0135140D01*
X0203478Y0134342D02*
X0210792Y0134342D01*
X0210792Y0133543D02*
X0203478Y0133543D01*
X0203478Y0132745D02*
X0210792Y0132745D01*
X0210792Y0131946D02*
X0203478Y0131946D01*
X0203478Y0131148D02*
X0210792Y0131148D01*
X0210792Y0130349D02*
X0203478Y0130349D01*
X0203478Y0129551D02*
X0210792Y0129551D01*
X0210792Y0128752D02*
X0203478Y0128752D01*
X0203478Y0127954D02*
X0210792Y0127954D01*
X0210792Y0127155D02*
X0203478Y0127155D01*
X0203478Y0126357D02*
X0210792Y0126357D01*
X0210792Y0125558D02*
X0203478Y0125558D01*
X0203478Y0124760D02*
X0210792Y0124760D01*
X0210792Y0123961D02*
X0203478Y0123961D01*
X0203478Y0123162D02*
X0210792Y0123162D01*
X0210792Y0122364D02*
X0203478Y0122364D01*
X0203478Y0121565D02*
X0210792Y0121565D01*
X0210792Y0120767D02*
X0203478Y0120767D01*
X0203478Y0119968D02*
X0210792Y0119968D01*
X0210792Y0119170D02*
X0203478Y0119170D01*
X0203478Y0118371D02*
X0210792Y0118371D01*
X0210792Y0117573D02*
X0203478Y0117573D01*
X0203478Y0116774D02*
X0210792Y0116774D01*
X0210792Y0115976D02*
X0202815Y0115976D01*
X0202016Y0115177D02*
X0210792Y0115177D01*
X0210792Y0114379D02*
X0201218Y0114379D01*
X0200419Y0113580D02*
X0210792Y0113580D01*
X0210792Y0112782D02*
X0199621Y0112782D01*
X0198478Y0114468D02*
X0201478Y0117468D01*
X0201478Y0176468D01*
X0198478Y0179468D01*
X0189478Y0179468D01*
X0184478Y0174468D01*
X0176841Y0174468D01*
X0176793Y0174421D01*
X0175478Y0176663D02*
X0183845Y0176663D01*
X0184643Y0177461D02*
X0175478Y0177461D01*
X0175478Y0178260D02*
X0185442Y0178260D01*
X0186240Y0179058D02*
X0175478Y0179058D01*
X0175478Y0179857D02*
X0176583Y0179857D01*
X0180374Y0179857D02*
X0187039Y0179857D01*
X0187837Y0180655D02*
X0181257Y0180655D01*
X0181748Y0181454D02*
X0188636Y0181454D01*
X0189309Y0182252D02*
X0182078Y0182252D01*
X0182078Y0183051D02*
X0188978Y0183051D01*
X0188778Y0183849D02*
X0182010Y0183849D01*
X0181679Y0184648D02*
X0188778Y0184648D01*
X0188796Y0185446D02*
X0181091Y0185446D01*
X0180478Y0186245D02*
X0189127Y0186245D01*
X0189458Y0187043D02*
X0180478Y0187043D01*
X0180478Y0187842D02*
X0190205Y0187842D01*
X0191269Y0188640D02*
X0182394Y0188640D01*
X0182590Y0189439D02*
X0210792Y0189439D01*
X0210792Y0190237D02*
X0195546Y0190237D01*
X0196141Y0190484D02*
X0194413Y0189768D01*
X0192544Y0189768D01*
X0190816Y0190484D01*
X0189494Y0191806D01*
X0188778Y0193533D01*
X0188778Y0195403D01*
X0189494Y0197131D01*
X0190816Y0198453D01*
X0192544Y0199168D01*
X0194413Y0199168D01*
X0196141Y0198453D01*
X0197463Y0197131D01*
X0197737Y0196468D01*
X0200650Y0196468D01*
X0200895Y0196713D01*
X0200878Y0196752D01*
X0200878Y0198184D01*
X0201427Y0199507D01*
X0202439Y0200520D01*
X0203762Y0201068D01*
X0205195Y0201068D01*
X0206518Y0200520D01*
X0207530Y0199507D01*
X0208078Y0198184D01*
X0208078Y0196752D01*
X0207530Y0195429D01*
X0206518Y0194416D01*
X0205195Y0193868D01*
X0203762Y0193868D01*
X0203723Y0193884D01*
X0202307Y0192468D01*
X0197737Y0192468D01*
X0197463Y0191806D01*
X0196141Y0190484D01*
X0196693Y0191036D02*
X0210792Y0191036D01*
X0210792Y0191834D02*
X0197475Y0191834D01*
X0195687Y0188640D02*
X0210792Y0188640D01*
X0210792Y0187842D02*
X0196752Y0187842D01*
X0197499Y0187043D02*
X0210792Y0187043D01*
X0210792Y0186245D02*
X0197830Y0186245D01*
X0198161Y0185446D02*
X0210792Y0185446D01*
X0210792Y0184648D02*
X0198178Y0184648D01*
X0198178Y0183849D02*
X0210792Y0183849D01*
X0210792Y0183051D02*
X0197979Y0183051D01*
X0197648Y0182252D02*
X0210792Y0182252D01*
X0210792Y0181454D02*
X0199321Y0181454D01*
X0200120Y0180655D02*
X0210792Y0180655D01*
X0210792Y0179857D02*
X0200918Y0179857D01*
X0200478Y0180297D02*
X0200478Y0180297D01*
X0201717Y0179058D02*
X0210792Y0179058D01*
X0210792Y0178260D02*
X0202515Y0178260D01*
X0202307Y0178468D02*
X0202307Y0178468D01*
X0203314Y0177461D02*
X0210792Y0177461D01*
X0210792Y0176663D02*
X0203478Y0176663D01*
X0203478Y0175864D02*
X0210792Y0175864D01*
X0210792Y0175066D02*
X0203478Y0175066D01*
X0203478Y0174267D02*
X0210792Y0174267D01*
X0210792Y0173469D02*
X0203478Y0173469D01*
X0203478Y0172670D02*
X0210792Y0172670D01*
X0210792Y0171872D02*
X0203478Y0171872D01*
X0203478Y0171073D02*
X0210792Y0171073D01*
X0210792Y0170275D02*
X0203478Y0170275D01*
X0189473Y0167081D02*
X0179590Y0167081D01*
X0179771Y0167879D02*
X0186239Y0167879D01*
X0185441Y0168678D02*
X0179771Y0168678D01*
X0179771Y0169476D02*
X0184642Y0169476D01*
X0183844Y0170275D02*
X0179771Y0170275D01*
X0176793Y0168515D02*
X0173431Y0168515D01*
X0171478Y0170468D01*
X0171478Y0190815D01*
X0172132Y0191468D01*
X0173478Y0193980D01*
X0173478Y0204468D01*
X0171180Y0208603D02*
X0170478Y0208603D01*
X0170478Y0200618D02*
X0170682Y0200618D01*
X0170478Y0199820D02*
X0171478Y0199820D01*
X0171478Y0199021D02*
X0170478Y0199021D01*
X0170061Y0198223D02*
X0171478Y0198223D01*
X0171478Y0197424D02*
X0169263Y0197424D01*
X0168464Y0196626D02*
X0171478Y0196626D01*
X0171478Y0195827D02*
X0167666Y0195827D01*
X0166867Y0195029D02*
X0169296Y0195029D01*
X0168497Y0194230D02*
X0166069Y0194230D01*
X0165270Y0193431D02*
X0168367Y0193431D01*
X0168367Y0192633D02*
X0164472Y0192633D01*
X0163673Y0191834D02*
X0168367Y0191834D01*
X0168367Y0191036D02*
X0162875Y0191036D01*
X0159228Y0177461D02*
X0169478Y0177461D01*
X0169478Y0176663D02*
X0159590Y0176663D01*
X0160911Y0175864D02*
X0163661Y0175864D01*
X0163386Y0175066D02*
X0161709Y0175066D01*
X0162508Y0174267D02*
X0163386Y0174267D01*
X0166163Y0175066D02*
X0166164Y0175066D01*
X0166163Y0175864D02*
X0166164Y0175864D01*
X0168666Y0175864D02*
X0169478Y0175864D01*
X0169478Y0175066D02*
X0168941Y0175066D01*
X0168941Y0174421D02*
X0168426Y0174421D01*
X0168426Y0174421D01*
X0168941Y0174421D01*
X0168941Y0174267D02*
X0169478Y0174267D01*
X0169478Y0173469D02*
X0169141Y0173469D01*
X0169141Y0172670D02*
X0169478Y0172670D01*
X0169478Y0171872D02*
X0169141Y0171872D01*
X0169141Y0171073D02*
X0169478Y0171073D01*
X0169478Y0170275D02*
X0169141Y0170275D01*
X0169141Y0169476D02*
X0169642Y0169476D01*
X0169141Y0168678D02*
X0170441Y0168678D01*
X0171239Y0167879D02*
X0169141Y0167879D01*
X0168960Y0167081D02*
X0172038Y0167081D01*
X0166163Y0168515D02*
X0166116Y0168468D01*
X0163478Y0168468D01*
X0159478Y0164468D01*
X0155825Y0164468D01*
X0159244Y0161491D02*
X0187673Y0161491D01*
X0188471Y0162290D02*
X0159590Y0162290D01*
X0160927Y0163088D02*
X0188963Y0163088D01*
X0188778Y0163887D02*
X0161725Y0163887D01*
X0162524Y0164685D02*
X0188778Y0164685D01*
X0188812Y0165484D02*
X0163322Y0165484D01*
X0164121Y0166282D02*
X0189143Y0166282D01*
X0186874Y0160693D02*
X0151132Y0160693D01*
X0151132Y0159894D02*
X0186076Y0159894D01*
X0185277Y0159096D02*
X0151132Y0159096D01*
X0151132Y0158297D02*
X0184479Y0158297D01*
X0183680Y0157498D02*
X0151132Y0157498D01*
X0150539Y0156700D02*
X0183478Y0156700D01*
X0183478Y0155901D02*
X0149740Y0155901D01*
X0148942Y0155103D02*
X0183478Y0155103D01*
X0183478Y0154304D02*
X0148143Y0154304D01*
X0147345Y0153506D02*
X0183478Y0153506D01*
X0183478Y0152707D02*
X0144809Y0152707D01*
X0143293Y0151909D02*
X0183478Y0151909D01*
X0183478Y0149513D02*
X0176373Y0149513D01*
X0176653Y0148715D02*
X0183478Y0148715D01*
X0183098Y0147916D02*
X0176653Y0147916D01*
X0176653Y0147118D02*
X0182300Y0147118D01*
X0181501Y0146319D02*
X0176653Y0146319D01*
X0176653Y0145521D02*
X0180703Y0145521D01*
X0179904Y0144722D02*
X0176653Y0144722D01*
X0173478Y0135468D02*
X0171825Y0133815D01*
X0171825Y0126468D01*
X0168511Y0129551D02*
X0168446Y0129551D01*
X0165132Y0126468D02*
X0165478Y0126122D01*
X0165478Y0112468D01*
X0164510Y0111500D01*
X0160703Y0111500D01*
X0160703Y0109531D02*
X0157541Y0109531D01*
X0155478Y0107468D01*
X0155478Y0104468D01*
X0150478Y0100468D02*
X0168478Y0100468D01*
X0171478Y0103468D01*
X0179363Y0103998D02*
X0188778Y0103998D01*
X0188917Y0103200D02*
X0180838Y0103200D01*
X0181574Y0102401D02*
X0189247Y0102401D01*
X0189697Y0101603D02*
X0181905Y0101603D01*
X0182078Y0100804D02*
X0190496Y0100804D01*
X0191970Y0100006D02*
X0182078Y0100006D01*
X0181853Y0099207D02*
X0210792Y0099207D01*
X0210792Y0098409D02*
X0196185Y0098409D01*
X0196141Y0098453D02*
X0197463Y0097131D01*
X0198178Y0095403D01*
X0198178Y0093533D01*
X0197463Y0091806D01*
X0196141Y0090484D01*
X0194413Y0089768D01*
X0192544Y0089768D01*
X0190816Y0090484D01*
X0189494Y0091806D01*
X0188778Y0093533D01*
X0188778Y0095403D01*
X0189494Y0097131D01*
X0190816Y0098453D01*
X0192544Y0099168D01*
X0194413Y0099168D01*
X0196141Y0098453D01*
X0196983Y0097610D02*
X0210792Y0097610D01*
X0210792Y0096812D02*
X0197595Y0096812D01*
X0197926Y0096013D02*
X0210792Y0096013D01*
X0210792Y0095215D02*
X0198178Y0095215D01*
X0198178Y0094416D02*
X0210792Y0094416D01*
X0210792Y0093618D02*
X0198178Y0093618D01*
X0197883Y0092819D02*
X0210792Y0092819D01*
X0210792Y0092021D02*
X0197552Y0092021D01*
X0196879Y0091222D02*
X0210792Y0091222D01*
X0210792Y0090424D02*
X0195995Y0090424D01*
X0195238Y0088827D02*
X0210792Y0088827D01*
X0210792Y0089625D02*
X0180478Y0089625D01*
X0180478Y0088827D02*
X0191719Y0088827D01*
X0192544Y0089168D02*
X0190816Y0088453D01*
X0189494Y0087131D01*
X0188778Y0085403D01*
X0188778Y0083533D01*
X0189494Y0081806D01*
X0190816Y0080484D01*
X0192544Y0079768D01*
X0194413Y0079768D01*
X0196141Y0080484D01*
X0197463Y0081806D01*
X0198178Y0083533D01*
X0198178Y0085403D01*
X0197463Y0087131D01*
X0196141Y0088453D01*
X0194413Y0089168D01*
X0192544Y0089168D01*
X0190961Y0090424D02*
X0180478Y0090424D01*
X0180478Y0091222D02*
X0190078Y0091222D01*
X0189405Y0092021D02*
X0180478Y0092021D01*
X0180478Y0092819D02*
X0189074Y0092819D01*
X0188778Y0093618D02*
X0180478Y0093618D01*
X0180478Y0094416D02*
X0188778Y0094416D01*
X0188778Y0095215D02*
X0180478Y0095215D01*
X0180478Y0096013D02*
X0189031Y0096013D01*
X0189362Y0096812D02*
X0180478Y0096812D01*
X0180712Y0097610D02*
X0189974Y0097610D01*
X0190772Y0098409D02*
X0181510Y0098409D01*
X0180478Y0088028D02*
X0190391Y0088028D01*
X0189593Y0087229D02*
X0180478Y0087229D01*
X0180478Y0086431D02*
X0189204Y0086431D01*
X0188873Y0085632D02*
X0180478Y0085632D01*
X0180478Y0084834D02*
X0188778Y0084834D01*
X0188778Y0084035D02*
X0180478Y0084035D01*
X0180478Y0083237D02*
X0188901Y0083237D01*
X0189232Y0082438D02*
X0180478Y0082438D01*
X0180613Y0081640D02*
X0189660Y0081640D01*
X0190458Y0080841D02*
X0181412Y0080841D01*
X0181500Y0080043D02*
X0191880Y0080043D01*
X0192425Y0078857D02*
X0191751Y0078638D01*
X0191120Y0078317D01*
X0190547Y0077901D01*
X0190046Y0077400D01*
X0189630Y0076827D01*
X0189308Y0076196D01*
X0189089Y0075522D01*
X0188986Y0074868D01*
X0193078Y0074868D01*
X0193078Y0074068D01*
X0188986Y0074068D01*
X0189089Y0073414D01*
X0189308Y0072741D01*
X0189630Y0072110D01*
X0190046Y0071537D01*
X0190547Y0071036D01*
X0191120Y0070619D01*
X0191751Y0070298D01*
X0192425Y0070079D01*
X0193078Y0069975D01*
X0193078Y0074068D01*
X0193878Y0074068D01*
X0193878Y0069975D01*
X0194532Y0070079D01*
X0195206Y0070298D01*
X0195837Y0070619D01*
X0196410Y0071036D01*
X0196911Y0071537D01*
X0197327Y0072110D01*
X0197649Y0072741D01*
X0197868Y0073414D01*
X0197971Y0074068D01*
X0193879Y0074068D01*
X0193879Y0074868D01*
X0197971Y0074868D01*
X0197868Y0075522D01*
X0197649Y0076196D01*
X0197327Y0076827D01*
X0196911Y0077400D01*
X0196410Y0077901D01*
X0195837Y0078317D01*
X0195206Y0078638D01*
X0194532Y0078857D01*
X0193878Y0078961D01*
X0193878Y0074868D01*
X0193078Y0074868D01*
X0193078Y0078961D01*
X0192425Y0078857D01*
X0193078Y0078446D02*
X0193878Y0078446D01*
X0193878Y0077647D02*
X0193078Y0077647D01*
X0193078Y0076849D02*
X0193878Y0076849D01*
X0193878Y0076050D02*
X0193078Y0076050D01*
X0193078Y0075252D02*
X0193878Y0075252D01*
X0193879Y0074453D02*
X0210792Y0074453D01*
X0210792Y0073655D02*
X0197906Y0073655D01*
X0197686Y0072856D02*
X0210792Y0072856D01*
X0210792Y0072058D02*
X0197289Y0072058D01*
X0196633Y0071259D02*
X0210792Y0071259D01*
X0210792Y0070461D02*
X0195525Y0070461D01*
X0193878Y0070461D02*
X0193078Y0070461D01*
X0193078Y0071259D02*
X0193878Y0071259D01*
X0193878Y0072058D02*
X0193078Y0072058D01*
X0193078Y0072856D02*
X0193878Y0072856D01*
X0193878Y0073655D02*
X0193078Y0073655D01*
X0193078Y0074453D02*
X0166967Y0074453D01*
X0167078Y0073655D02*
X0189051Y0073655D01*
X0189271Y0072856D02*
X0167078Y0072856D01*
X0166791Y0072058D02*
X0189667Y0072058D01*
X0190323Y0071259D02*
X0166361Y0071259D01*
X0165562Y0070461D02*
X0191431Y0070461D01*
X0189046Y0075252D02*
X0180569Y0075252D01*
X0181367Y0076050D02*
X0189261Y0076050D01*
X0189646Y0076849D02*
X0181500Y0076849D01*
X0181500Y0077647D02*
X0190294Y0077647D01*
X0191373Y0078446D02*
X0181500Y0078446D01*
X0181500Y0079244D02*
X0210792Y0079244D01*
X0210792Y0078446D02*
X0195584Y0078446D01*
X0196663Y0077647D02*
X0210792Y0077647D01*
X0210792Y0076849D02*
X0197311Y0076849D01*
X0197696Y0076050D02*
X0210792Y0076050D01*
X0210792Y0075252D02*
X0197910Y0075252D01*
X0195077Y0080043D02*
X0210792Y0080043D01*
X0210792Y0080841D02*
X0196498Y0080841D01*
X0197297Y0081640D02*
X0210792Y0081640D01*
X0210792Y0082438D02*
X0197725Y0082438D01*
X0198056Y0083237D02*
X0210792Y0083237D01*
X0210792Y0084035D02*
X0198178Y0084035D01*
X0198178Y0084834D02*
X0210792Y0084834D01*
X0210792Y0085632D02*
X0198083Y0085632D01*
X0197753Y0086431D02*
X0210792Y0086431D01*
X0210792Y0087229D02*
X0197364Y0087229D01*
X0196565Y0088028D02*
X0210792Y0088028D01*
X0210792Y0100006D02*
X0194987Y0100006D01*
X0196461Y0100804D02*
X0210792Y0100804D01*
X0210792Y0101603D02*
X0197260Y0101603D01*
X0197710Y0102401D02*
X0210792Y0102401D01*
X0210792Y0103200D02*
X0198040Y0103200D01*
X0198178Y0103998D02*
X0210792Y0103998D01*
X0210792Y0104797D02*
X0198178Y0104797D01*
X0198099Y0105595D02*
X0210792Y0105595D01*
X0210792Y0106394D02*
X0197768Y0106394D01*
X0197401Y0107192D02*
X0210792Y0107192D01*
X0210792Y0107991D02*
X0196603Y0107991D01*
X0195328Y0108789D02*
X0210792Y0108789D01*
X0210792Y0109588D02*
X0180115Y0109588D01*
X0180093Y0110386D02*
X0191051Y0110386D01*
X0190115Y0111185D02*
X0180115Y0111185D01*
X0180115Y0108789D02*
X0191629Y0108789D01*
X0190354Y0107991D02*
X0179745Y0107991D01*
X0184822Y0111983D02*
X0189420Y0111983D01*
X0189090Y0112782D02*
X0185621Y0112782D01*
X0186419Y0113580D02*
X0188778Y0113580D01*
X0188778Y0114379D02*
X0187218Y0114379D01*
X0188016Y0115177D02*
X0188778Y0115177D01*
X0189016Y0115976D02*
X0188478Y0115976D01*
X0188478Y0116774D02*
X0189346Y0116774D01*
X0189936Y0117573D02*
X0188478Y0117573D01*
X0188478Y0118371D02*
X0190735Y0118371D01*
X0192060Y0119968D02*
X0188478Y0119968D01*
X0188478Y0119170D02*
X0199478Y0119170D01*
X0199478Y0119968D02*
X0194897Y0119968D01*
X0194413Y0119768D02*
X0196141Y0120484D01*
X0197463Y0121806D01*
X0198178Y0123533D01*
X0198178Y0125403D01*
X0197463Y0127131D01*
X0196141Y0128453D01*
X0194413Y0129168D01*
X0192544Y0129168D01*
X0190816Y0128453D01*
X0189494Y0127131D01*
X0188778Y0125403D01*
X0188778Y0123533D01*
X0189494Y0121806D01*
X0190816Y0120484D01*
X0192544Y0119768D01*
X0194413Y0119768D01*
X0196424Y0120767D02*
X0199478Y0120767D01*
X0199478Y0121565D02*
X0197223Y0121565D01*
X0197694Y0122364D02*
X0199478Y0122364D01*
X0199478Y0123162D02*
X0198025Y0123162D01*
X0198178Y0123961D02*
X0199478Y0123961D01*
X0199478Y0124760D02*
X0198178Y0124760D01*
X0198114Y0125558D02*
X0199478Y0125558D01*
X0199478Y0126357D02*
X0197784Y0126357D01*
X0197438Y0127155D02*
X0199478Y0127155D01*
X0199478Y0127954D02*
X0196640Y0127954D01*
X0195418Y0128752D02*
X0199478Y0128752D01*
X0193478Y0134468D02*
X0199478Y0140468D01*
X0192150Y0139931D02*
X0191770Y0139931D01*
X0191539Y0128752D02*
X0188478Y0128752D01*
X0188478Y0127954D02*
X0190317Y0127954D01*
X0189519Y0127155D02*
X0188478Y0127155D01*
X0188478Y0126357D02*
X0189173Y0126357D01*
X0188843Y0125558D02*
X0188478Y0125558D01*
X0188478Y0124760D02*
X0188778Y0124760D01*
X0188778Y0123961D02*
X0188478Y0123961D01*
X0188478Y0123162D02*
X0188932Y0123162D01*
X0189263Y0122364D02*
X0188478Y0122364D01*
X0188478Y0121565D02*
X0189734Y0121565D01*
X0190533Y0120767D02*
X0188478Y0120767D01*
X0193478Y0114468D02*
X0198478Y0114468D01*
X0197956Y0116774D02*
X0197610Y0116774D01*
X0197021Y0117573D02*
X0198755Y0117573D01*
X0199478Y0118371D02*
X0196222Y0118371D01*
X0197536Y0111983D02*
X0210792Y0111983D01*
X0210792Y0111185D02*
X0196842Y0111185D01*
X0195906Y0110386D02*
X0210792Y0110386D01*
X0210792Y0069662D02*
X0021078Y0069662D01*
X0021078Y0068864D02*
X0210792Y0068864D01*
X0175294Y0075252D02*
X0173201Y0075252D01*
X0174102Y0076050D02*
X0174495Y0076050D01*
X0171426Y0076050D02*
X0170626Y0076050D01*
X0170626Y0075252D02*
X0171426Y0075252D01*
X0171426Y0076849D02*
X0170626Y0076849D01*
X0170626Y0077647D02*
X0171426Y0077647D01*
X0170626Y0078446D02*
X0164329Y0078446D01*
X0163531Y0079244D02*
X0167657Y0079244D01*
X0167657Y0080043D02*
X0162732Y0080043D01*
X0161478Y0078468D02*
X0163478Y0076468D01*
X0163478Y0073468D01*
X0160166Y0072058D02*
X0137567Y0072058D01*
X0137898Y0072856D02*
X0159878Y0072856D01*
X0159878Y0073655D02*
X0138178Y0073655D01*
X0138178Y0074453D02*
X0159990Y0074453D01*
X0160321Y0075252D02*
X0158569Y0075252D01*
X0159367Y0076050D02*
X0160969Y0076050D01*
X0161478Y0078468D02*
X0155931Y0078468D01*
X0153249Y0081640D02*
X0151278Y0081640D01*
X0152128Y0080841D02*
X0152451Y0080841D01*
X0149426Y0077647D02*
X0148626Y0077647D01*
X0148626Y0076849D02*
X0149426Y0076849D01*
X0149426Y0076050D02*
X0148626Y0076050D01*
X0148626Y0075252D02*
X0149426Y0075252D01*
X0151201Y0075252D02*
X0153294Y0075252D01*
X0152495Y0076050D02*
X0152102Y0076050D01*
X0146851Y0075252D02*
X0138178Y0075252D01*
X0137910Y0076050D02*
X0145950Y0076050D01*
X0145657Y0076849D02*
X0137580Y0076849D01*
X0136916Y0071259D02*
X0160596Y0071259D01*
X0161395Y0070461D02*
X0136085Y0070461D01*
X0130872Y0070461D02*
X0021078Y0070461D01*
X0067491Y0136737D02*
X0069381Y0136737D01*
X0068583Y0137536D02*
X0068047Y0137536D01*
X0119681Y0167879D02*
X0130243Y0167879D01*
X0131359Y0168678D02*
X0121335Y0168678D01*
X0136296Y0158297D02*
X0140216Y0158297D01*
X0139423Y0157498D02*
X0137095Y0157498D01*
X0135726Y0150312D02*
X0152579Y0150312D01*
X0158378Y0150312D02*
X0163231Y0150312D01*
X0162432Y0149513D02*
X0159047Y0149513D01*
X0146479Y0158297D02*
X0144741Y0158297D01*
X0145534Y0157498D02*
X0145680Y0157498D01*
X0155825Y0174468D02*
X0159478Y0174468D01*
X0163478Y0170468D01*
X0166148Y0170468D01*
X0166163Y0170484D01*
X0182590Y0190237D02*
X0191411Y0190237D01*
X0190264Y0191036D02*
X0182590Y0191036D01*
X0182590Y0191834D02*
X0189482Y0191834D01*
X0189151Y0192633D02*
X0182590Y0192633D01*
X0182590Y0193431D02*
X0188821Y0193431D01*
X0188778Y0194230D02*
X0182460Y0194230D01*
X0181661Y0195029D02*
X0188778Y0195029D01*
X0188954Y0195827D02*
X0180478Y0195827D01*
X0180478Y0196626D02*
X0189285Y0196626D01*
X0189788Y0197424D02*
X0180478Y0197424D01*
X0180478Y0198223D02*
X0190586Y0198223D01*
X0192188Y0199021D02*
X0180478Y0199021D01*
X0180478Y0199820D02*
X0182419Y0199820D01*
X0180682Y0200618D02*
X0180478Y0200618D01*
X0184537Y0199820D02*
X0192419Y0199820D01*
X0192544Y0199768D02*
X0194413Y0199768D01*
X0196141Y0200484D01*
X0197463Y0201806D01*
X0198178Y0203533D01*
X0198178Y0205403D01*
X0197463Y0207131D01*
X0196141Y0208453D01*
X0194413Y0209168D01*
X0192544Y0209168D01*
X0190816Y0208453D01*
X0189494Y0207131D01*
X0188778Y0205403D01*
X0188778Y0203533D01*
X0189494Y0201806D01*
X0190816Y0200484D01*
X0192544Y0199768D01*
X0194537Y0199820D02*
X0201739Y0199820D01*
X0201225Y0199021D02*
X0194769Y0199021D01*
X0196371Y0198223D02*
X0200894Y0198223D01*
X0200878Y0197424D02*
X0197169Y0197424D01*
X0197672Y0196626D02*
X0200807Y0196626D01*
X0201478Y0194468D02*
X0204478Y0197468D01*
X0207130Y0195029D02*
X0210792Y0195029D01*
X0210792Y0195827D02*
X0207695Y0195827D01*
X0208026Y0196626D02*
X0210792Y0196626D01*
X0210792Y0197424D02*
X0208078Y0197424D01*
X0208063Y0198223D02*
X0210792Y0198223D01*
X0210792Y0199021D02*
X0207732Y0199021D01*
X0207218Y0199820D02*
X0210792Y0199820D01*
X0210792Y0200618D02*
X0206281Y0200618D01*
X0202676Y0200618D02*
X0196275Y0200618D01*
X0197074Y0201417D02*
X0210792Y0201417D01*
X0210792Y0202215D02*
X0197632Y0202215D01*
X0197963Y0203014D02*
X0210792Y0203014D01*
X0210792Y0203812D02*
X0198178Y0203812D01*
X0198178Y0204611D02*
X0210792Y0204611D01*
X0210792Y0205409D02*
X0198176Y0205409D01*
X0197845Y0206208D02*
X0210792Y0206208D01*
X0210792Y0207006D02*
X0197514Y0207006D01*
X0196789Y0207805D02*
X0210792Y0207805D01*
X0210792Y0208603D02*
X0195777Y0208603D01*
X0191180Y0208603D02*
X0185777Y0208603D01*
X0186789Y0207805D02*
X0190168Y0207805D01*
X0189442Y0207006D02*
X0187514Y0207006D01*
X0187845Y0206208D02*
X0189112Y0206208D01*
X0188781Y0205409D02*
X0188176Y0205409D01*
X0188178Y0204611D02*
X0188778Y0204611D01*
X0188778Y0203812D02*
X0188178Y0203812D01*
X0187963Y0203014D02*
X0188994Y0203014D01*
X0189324Y0202215D02*
X0187632Y0202215D01*
X0187074Y0201417D02*
X0189883Y0201417D01*
X0190682Y0200618D02*
X0186275Y0200618D01*
X0193478Y0194468D02*
X0201478Y0194468D01*
X0203270Y0193431D02*
X0210792Y0193431D01*
X0210792Y0192633D02*
X0202472Y0192633D01*
X0206068Y0194230D02*
X0210792Y0194230D01*
X0210792Y0226969D02*
X0183996Y0226969D01*
X0151180Y0208603D02*
X0145777Y0208603D01*
X0146789Y0207805D02*
X0150168Y0207805D01*
X0149442Y0207006D02*
X0147514Y0207006D01*
X0147845Y0206208D02*
X0149112Y0206208D01*
X0148781Y0205409D02*
X0148176Y0205409D01*
X0148178Y0204611D02*
X0148778Y0204611D01*
X0148778Y0203812D02*
X0148178Y0203812D01*
X0147963Y0203014D02*
X0148994Y0203014D01*
X0149324Y0202215D02*
X0147632Y0202215D01*
X0147074Y0201417D02*
X0149883Y0201417D01*
X0150682Y0200618D02*
X0146275Y0200618D01*
X0145808Y0194230D02*
X0138178Y0194230D01*
X0138136Y0193431D02*
X0145567Y0193431D01*
X0148732Y0193431D02*
X0149532Y0193431D01*
X0149532Y0192633D02*
X0148732Y0192633D01*
X0148732Y0194230D02*
X0149532Y0194230D01*
X0145846Y0188640D02*
X0135687Y0188640D01*
X0135777Y0208603D02*
X0141180Y0208603D01*
X0135166Y0219782D02*
X0122089Y0219782D01*
X0122954Y0222976D02*
X0135424Y0222976D01*
X0135767Y0223775D02*
X0122785Y0223775D01*
X0122456Y0224573D02*
X0136255Y0224573D01*
X0136931Y0225372D02*
X0121931Y0225372D01*
X0121039Y0226170D02*
X0137875Y0226170D01*
X0118878Y0226170D02*
X0118078Y0226170D01*
X0118078Y0225372D02*
X0118878Y0225372D01*
X0118878Y0224573D02*
X0118078Y0224573D01*
X0118078Y0223775D02*
X0118878Y0223775D01*
X0160703Y0109531D02*
X0160478Y0109307D01*
X0158613Y0081640D02*
X0168774Y0081640D01*
X0167924Y0080841D02*
X0159412Y0080841D01*
X0165128Y0077647D02*
X0167657Y0077647D01*
X0167657Y0076849D02*
X0165478Y0076849D01*
X0165987Y0076050D02*
X0167950Y0076050D01*
X0168851Y0075252D02*
X0166636Y0075252D01*
X0170626Y0079244D02*
X0171426Y0079244D01*
X0171426Y0080043D02*
X0170626Y0080043D01*
X0170626Y0080841D02*
X0171426Y0080841D01*
X0171426Y0081640D02*
X0170626Y0081640D01*
D23*
X0163478Y0073468D03*
X0178478Y0100468D03*
X0167478Y0105468D03*
X0155478Y0104468D03*
X0141478Y0101468D03*
X0125478Y0100468D03*
X0119478Y0085468D03*
X0099478Y0077468D03*
X0148478Y0132468D03*
X0141478Y0139468D03*
X0142478Y0155468D03*
X0141978Y0171468D03*
X0162478Y0183468D03*
X0178478Y0182968D03*
X0204478Y0197468D03*
X0165478Y0147468D03*
X0162478Y0135468D03*
X0088478Y0207468D03*
D24*
X0044478Y0095468D02*
X0044478Y0077468D01*
D25*
X0118478Y0202468D02*
X0118478Y0212468D01*
M02*
