G75*
%MOIN*%
%OFA0B0*%
%FSLAX25Y25*%
%IPPOS*%
%LPD*%
%AMOC8*
5,1,8,0,0,1.08239X$1,22.5*
%
%ADD10C,0.00500*%
%ADD11C,0.00600*%
%ADD12C,0.01100*%
%ADD13C,0.02828*%
%ADD14R,0.03000X0.01500*%
%ADD15R,0.01500X0.03000*%
%ADD16C,0.01500*%
%ADD17C,0.00200*%
%ADD18C,0.00800*%
D10*
X0026226Y0093718D02*
X0027894Y0093718D01*
X0028728Y0094552D01*
X0027894Y0095386D01*
X0026226Y0095386D01*
X0026226Y0096481D02*
X0026226Y0097315D01*
X0026226Y0096898D02*
X0028728Y0096898D01*
X0028728Y0096481D02*
X0028728Y0097315D01*
X0028728Y0098322D02*
X0026226Y0098322D01*
X0028728Y0099990D01*
X0026226Y0099990D01*
X0025378Y0123018D02*
X0025378Y0145918D01*
X0117578Y0145918D01*
X0117578Y0123018D01*
X0025378Y0123018D01*
X0050728Y0103303D02*
X0050728Y0101635D01*
X0051145Y0101218D01*
X0051980Y0101218D01*
X0052397Y0101635D01*
X0052397Y0102469D01*
X0051562Y0102469D01*
X0050728Y0103303D02*
X0051145Y0103720D01*
X0051980Y0103720D01*
X0052397Y0103303D01*
X0053491Y0103720D02*
X0055159Y0101218D01*
X0055159Y0103720D01*
X0056253Y0103720D02*
X0056253Y0101218D01*
X0057504Y0101218D01*
X0057921Y0101635D01*
X0057921Y0103303D01*
X0057504Y0103720D01*
X0056253Y0103720D01*
X0053491Y0103720D02*
X0053491Y0101218D01*
X0080728Y0096720D02*
X0080728Y0095469D01*
X0081563Y0095886D01*
X0081980Y0095886D01*
X0082397Y0095469D01*
X0082397Y0094635D01*
X0081980Y0094218D01*
X0081145Y0094218D01*
X0080728Y0094635D01*
X0080728Y0096720D02*
X0082397Y0096720D01*
X0083491Y0096720D02*
X0083491Y0095052D01*
X0084325Y0094218D01*
X0085159Y0095052D01*
X0085159Y0096720D01*
X0124726Y0102373D02*
X0125143Y0101956D01*
X0124726Y0102373D02*
X0124726Y0103207D01*
X0125143Y0103624D01*
X0125560Y0103624D01*
X0127228Y0101956D01*
X0127228Y0103624D01*
X0126811Y0104718D02*
X0127228Y0105135D01*
X0127228Y0105969D01*
X0126811Y0106386D01*
X0126394Y0106386D01*
X0125977Y0105969D01*
X0125977Y0105552D01*
X0125977Y0105969D02*
X0125560Y0106386D01*
X0125143Y0106386D01*
X0124726Y0105969D01*
X0124726Y0105135D01*
X0125143Y0104718D01*
X0125143Y0111956D02*
X0124726Y0112373D01*
X0124726Y0113207D01*
X0125143Y0113624D01*
X0125560Y0113624D01*
X0127228Y0111956D01*
X0127228Y0113624D01*
X0127228Y0114718D02*
X0125560Y0116386D01*
X0125143Y0116386D01*
X0124726Y0115969D01*
X0124726Y0115135D01*
X0125143Y0114718D01*
X0127228Y0114718D02*
X0127228Y0116386D01*
X0127228Y0121956D02*
X0125560Y0123624D01*
X0125143Y0123624D01*
X0124726Y0123207D01*
X0124726Y0122373D01*
X0125143Y0121956D01*
X0127228Y0121956D02*
X0127228Y0123624D01*
X0127228Y0124718D02*
X0127228Y0126386D01*
X0127228Y0125552D02*
X0124726Y0125552D01*
X0125560Y0124718D01*
X0125143Y0131956D02*
X0124726Y0132373D01*
X0124726Y0133207D01*
X0125143Y0133624D01*
X0125560Y0133624D01*
X0127228Y0131956D01*
X0127228Y0133624D01*
X0126811Y0134718D02*
X0125143Y0136386D01*
X0126811Y0136386D01*
X0127228Y0135969D01*
X0127228Y0135135D01*
X0126811Y0134718D01*
X0125143Y0134718D01*
X0124726Y0135135D01*
X0124726Y0135969D01*
X0125143Y0136386D01*
X0125560Y0141956D02*
X0124726Y0142790D01*
X0127228Y0142790D01*
X0127228Y0141956D02*
X0127228Y0143624D01*
X0126811Y0144718D02*
X0127228Y0145135D01*
X0127228Y0145969D01*
X0126811Y0146386D01*
X0125143Y0146386D01*
X0124726Y0145969D01*
X0124726Y0145135D01*
X0125143Y0144718D01*
X0125560Y0144718D01*
X0125977Y0145135D01*
X0125977Y0146386D01*
X0149726Y0148135D02*
X0150143Y0147718D01*
X0151811Y0147718D01*
X0152228Y0148135D01*
X0152228Y0148969D01*
X0151811Y0149386D01*
X0152228Y0150481D02*
X0152228Y0152149D01*
X0152228Y0151315D02*
X0149726Y0151315D01*
X0150560Y0150481D01*
X0150143Y0149386D02*
X0149726Y0148969D01*
X0149726Y0148135D01*
X0150728Y0121220D02*
X0151980Y0121220D01*
X0152397Y0120803D01*
X0152397Y0119969D01*
X0151980Y0119552D01*
X0150728Y0119552D01*
X0150728Y0118718D02*
X0150728Y0121220D01*
X0151563Y0119552D02*
X0152397Y0118718D01*
X0153491Y0119135D02*
X0153491Y0119552D01*
X0153908Y0119969D01*
X0154742Y0119969D01*
X0155159Y0119552D01*
X0155159Y0119135D01*
X0154742Y0118718D01*
X0153908Y0118718D01*
X0153491Y0119135D01*
X0153908Y0119969D02*
X0153491Y0120386D01*
X0153491Y0120803D01*
X0153908Y0121220D01*
X0154742Y0121220D01*
X0155159Y0120803D01*
X0155159Y0120386D01*
X0154742Y0119969D01*
X0168726Y0119732D02*
X0168726Y0118898D01*
X0169143Y0118481D01*
X0169143Y0117386D02*
X0170811Y0117386D01*
X0171228Y0116969D01*
X0171228Y0116135D01*
X0170811Y0115718D01*
X0169143Y0115718D01*
X0168726Y0116135D01*
X0168726Y0116969D01*
X0169143Y0117386D01*
X0170394Y0116552D02*
X0171228Y0117386D01*
X0170811Y0118481D02*
X0171228Y0118898D01*
X0171228Y0119732D01*
X0170811Y0120149D01*
X0170394Y0120149D01*
X0169977Y0119732D01*
X0169977Y0119315D01*
X0169977Y0119732D02*
X0169560Y0120149D01*
X0169143Y0120149D01*
X0168726Y0119732D01*
X0153143Y0094149D02*
X0154811Y0092481D01*
X0155228Y0092481D01*
X0155228Y0091386D02*
X0154394Y0090552D01*
X0154394Y0090969D02*
X0154394Y0089718D01*
X0155228Y0089718D02*
X0152726Y0089718D01*
X0152726Y0090969D01*
X0153143Y0091386D01*
X0153977Y0091386D01*
X0154394Y0090969D01*
X0152726Y0092481D02*
X0152726Y0094149D01*
X0153143Y0094149D01*
X0171726Y0090732D02*
X0171726Y0089898D01*
X0172143Y0089481D01*
X0172143Y0088386D02*
X0173811Y0088386D01*
X0174228Y0087969D01*
X0174228Y0087135D01*
X0173811Y0086718D01*
X0172143Y0086718D01*
X0171726Y0087135D01*
X0171726Y0087969D01*
X0172143Y0088386D01*
X0173394Y0087552D02*
X0174228Y0088386D01*
X0174228Y0089481D02*
X0172560Y0091149D01*
X0172143Y0091149D01*
X0171726Y0090732D01*
X0174228Y0091149D02*
X0174228Y0089481D01*
X0199226Y0077207D02*
X0199226Y0075956D01*
X0201728Y0075956D01*
X0201728Y0077207D01*
X0201311Y0077624D01*
X0199643Y0077624D01*
X0199226Y0077207D01*
X0199226Y0074862D02*
X0201728Y0074862D01*
X0199226Y0073193D01*
X0201728Y0073193D01*
X0201311Y0072099D02*
X0200477Y0072099D01*
X0200477Y0071265D01*
X0199643Y0070431D02*
X0201311Y0070431D01*
X0201728Y0070848D01*
X0201728Y0071682D01*
X0201311Y0072099D01*
X0199643Y0072099D02*
X0199226Y0071682D01*
X0199226Y0070848D01*
X0199643Y0070431D01*
X0200143Y0103337D02*
X0199726Y0103754D01*
X0199726Y0104588D01*
X0200143Y0105005D01*
X0200560Y0105005D01*
X0202228Y0103337D01*
X0202228Y0105005D01*
X0201811Y0113337D02*
X0202228Y0113754D01*
X0202228Y0114588D01*
X0201811Y0115005D01*
X0201394Y0115005D01*
X0200977Y0114588D01*
X0200977Y0114171D01*
X0200977Y0114588D02*
X0200560Y0115005D01*
X0200143Y0115005D01*
X0199726Y0114588D01*
X0199726Y0113754D01*
X0200143Y0113337D01*
X0200977Y0123337D02*
X0199726Y0124588D01*
X0202228Y0124588D01*
X0200977Y0125005D02*
X0200977Y0123337D01*
X0200977Y0133337D02*
X0200560Y0134171D01*
X0200560Y0134588D01*
X0200977Y0135005D01*
X0201811Y0135005D01*
X0202228Y0134588D01*
X0202228Y0133754D01*
X0201811Y0133337D01*
X0200977Y0133337D02*
X0199726Y0133337D01*
X0199726Y0135005D01*
X0200977Y0143337D02*
X0200143Y0144171D01*
X0199726Y0145005D01*
X0200977Y0144588D02*
X0200977Y0143337D01*
X0201811Y0143337D01*
X0202228Y0143754D01*
X0202228Y0144588D01*
X0201811Y0145005D01*
X0201394Y0145005D01*
X0200977Y0144588D01*
X0201811Y0153337D02*
X0200143Y0155005D01*
X0199726Y0155005D01*
X0199726Y0153337D01*
X0201811Y0153337D02*
X0202228Y0153337D01*
X0201811Y0163337D02*
X0201394Y0163337D01*
X0200977Y0163754D01*
X0200977Y0164588D01*
X0201394Y0165005D01*
X0201811Y0165005D01*
X0202228Y0164588D01*
X0202228Y0163754D01*
X0201811Y0163337D01*
X0200977Y0163754D02*
X0200560Y0163337D01*
X0200143Y0163337D01*
X0199726Y0163754D01*
X0199726Y0164588D01*
X0200143Y0165005D01*
X0200560Y0165005D01*
X0200977Y0164588D01*
X0200560Y0173337D02*
X0200977Y0173754D01*
X0200977Y0175005D01*
X0201811Y0175005D02*
X0200143Y0175005D01*
X0199726Y0174588D01*
X0199726Y0173754D01*
X0200143Y0173337D01*
X0200560Y0173337D01*
X0201811Y0173337D02*
X0202228Y0173754D01*
X0202228Y0174588D01*
X0201811Y0175005D01*
X0202228Y0181956D02*
X0202228Y0183624D01*
X0202228Y0182790D02*
X0199726Y0182790D01*
X0200560Y0181956D01*
X0200143Y0184718D02*
X0199726Y0185135D01*
X0199726Y0185969D01*
X0200143Y0186386D01*
X0201811Y0184718D01*
X0202228Y0185135D01*
X0202228Y0185969D01*
X0201811Y0186386D01*
X0200143Y0186386D01*
X0200143Y0184718D02*
X0201811Y0184718D01*
X0202228Y0191956D02*
X0202228Y0193624D01*
X0202228Y0192790D02*
X0199726Y0192790D01*
X0200560Y0191956D01*
X0200560Y0194718D02*
X0199726Y0195552D01*
X0202228Y0195552D01*
X0202228Y0194718D02*
X0202228Y0196386D01*
X0202228Y0201956D02*
X0202228Y0203624D01*
X0202228Y0202790D02*
X0199726Y0202790D01*
X0200560Y0201956D01*
X0200143Y0204718D02*
X0199726Y0205135D01*
X0199726Y0205969D01*
X0200143Y0206386D01*
X0200560Y0206386D01*
X0202228Y0204718D01*
X0202228Y0206386D01*
X0130363Y0210706D02*
X0129773Y0210117D01*
X0129184Y0210117D01*
X0128705Y0209048D02*
X0127525Y0207868D01*
X0128115Y0208458D02*
X0126346Y0210227D01*
X0126346Y0209048D01*
X0128004Y0211296D02*
X0128004Y0211886D01*
X0128594Y0212476D01*
X0129184Y0212476D01*
X0129478Y0212181D01*
X0129478Y0211591D01*
X0130068Y0211591D01*
X0130363Y0211296D01*
X0130363Y0210706D01*
X0129478Y0211591D02*
X0129184Y0211296D01*
X0127311Y0097911D02*
X0127728Y0097494D01*
X0127728Y0096660D01*
X0127311Y0096243D01*
X0126894Y0095149D02*
X0125226Y0095149D01*
X0125643Y0096243D02*
X0125226Y0096660D01*
X0125226Y0097494D01*
X0125643Y0097911D01*
X0126060Y0097911D01*
X0126477Y0097494D01*
X0126894Y0097911D01*
X0127311Y0097911D01*
X0126477Y0097494D02*
X0126477Y0097077D01*
X0126894Y0095149D02*
X0127728Y0094315D01*
X0126894Y0093481D01*
X0125226Y0093481D01*
X0125643Y0092386D02*
X0126060Y0092386D01*
X0126477Y0091969D01*
X0126894Y0092386D01*
X0127311Y0092386D01*
X0127728Y0091969D01*
X0127728Y0091135D01*
X0127311Y0090718D01*
X0126477Y0091552D02*
X0126477Y0091969D01*
X0125643Y0092386D02*
X0125226Y0091969D01*
X0125226Y0091135D01*
X0125643Y0090718D01*
X0125226Y0077149D02*
X0126894Y0077149D01*
X0127728Y0076315D01*
X0126894Y0075481D01*
X0125226Y0075481D01*
X0125226Y0074386D02*
X0125226Y0072718D01*
X0126477Y0072718D01*
X0126060Y0073552D01*
X0126060Y0073969D01*
X0126477Y0074386D01*
X0127311Y0074386D01*
X0127728Y0073969D01*
X0127728Y0073135D01*
X0127311Y0072718D01*
D11*
X0026914Y0085836D02*
X0026914Y0090106D01*
X0029049Y0087971D02*
X0024778Y0087971D01*
X0061556Y0086471D02*
X0065826Y0086471D01*
X0155778Y0159968D02*
X0155778Y0176968D01*
X0155780Y0177044D01*
X0155786Y0177120D01*
X0155795Y0177195D01*
X0155809Y0177270D01*
X0155826Y0177344D01*
X0155847Y0177417D01*
X0155871Y0177489D01*
X0155900Y0177560D01*
X0155931Y0177629D01*
X0155966Y0177696D01*
X0156005Y0177761D01*
X0156047Y0177825D01*
X0156092Y0177886D01*
X0156140Y0177945D01*
X0156191Y0178001D01*
X0156245Y0178055D01*
X0156301Y0178106D01*
X0156360Y0178154D01*
X0156421Y0178199D01*
X0156485Y0178241D01*
X0156550Y0178280D01*
X0156617Y0178315D01*
X0156686Y0178346D01*
X0156757Y0178375D01*
X0156829Y0178399D01*
X0156902Y0178420D01*
X0156976Y0178437D01*
X0157051Y0178451D01*
X0157126Y0178460D01*
X0157202Y0178466D01*
X0157278Y0178468D01*
X0169678Y0178468D01*
X0169754Y0178466D01*
X0169830Y0178460D01*
X0169905Y0178451D01*
X0169980Y0178437D01*
X0170054Y0178420D01*
X0170127Y0178399D01*
X0170199Y0178375D01*
X0170270Y0178346D01*
X0170339Y0178315D01*
X0170406Y0178280D01*
X0170471Y0178241D01*
X0170535Y0178199D01*
X0170596Y0178154D01*
X0170655Y0178106D01*
X0170711Y0178055D01*
X0170765Y0178001D01*
X0170816Y0177945D01*
X0170864Y0177886D01*
X0170909Y0177825D01*
X0170951Y0177761D01*
X0170990Y0177696D01*
X0171025Y0177629D01*
X0171056Y0177560D01*
X0171085Y0177489D01*
X0171109Y0177417D01*
X0171130Y0177344D01*
X0171147Y0177270D01*
X0171161Y0177195D01*
X0171170Y0177120D01*
X0171176Y0177044D01*
X0171178Y0176968D01*
X0171178Y0159968D01*
X0171176Y0159892D01*
X0171170Y0159816D01*
X0171161Y0159741D01*
X0171147Y0159666D01*
X0171130Y0159592D01*
X0171109Y0159519D01*
X0171085Y0159447D01*
X0171056Y0159376D01*
X0171025Y0159307D01*
X0170990Y0159240D01*
X0170951Y0159175D01*
X0170909Y0159111D01*
X0170864Y0159050D01*
X0170816Y0158991D01*
X0170765Y0158935D01*
X0170711Y0158881D01*
X0170655Y0158830D01*
X0170596Y0158782D01*
X0170535Y0158737D01*
X0170471Y0158695D01*
X0170406Y0158656D01*
X0170339Y0158621D01*
X0170270Y0158590D01*
X0170199Y0158561D01*
X0170127Y0158537D01*
X0170054Y0158516D01*
X0169980Y0158499D01*
X0169905Y0158485D01*
X0169830Y0158476D01*
X0169754Y0158470D01*
X0169678Y0158468D01*
X0165478Y0158468D01*
X0161478Y0158468D01*
X0157278Y0158468D01*
X0157202Y0158470D01*
X0157126Y0158476D01*
X0157051Y0158485D01*
X0156976Y0158499D01*
X0156902Y0158516D01*
X0156829Y0158537D01*
X0156757Y0158561D01*
X0156686Y0158590D01*
X0156617Y0158621D01*
X0156550Y0158656D01*
X0156485Y0158695D01*
X0156421Y0158737D01*
X0156360Y0158782D01*
X0156301Y0158830D01*
X0156245Y0158881D01*
X0156191Y0158935D01*
X0156140Y0158991D01*
X0156092Y0159050D01*
X0156047Y0159111D01*
X0156005Y0159175D01*
X0155966Y0159240D01*
X0155931Y0159307D01*
X0155900Y0159376D01*
X0155871Y0159447D01*
X0155847Y0159519D01*
X0155826Y0159592D01*
X0155809Y0159666D01*
X0155795Y0159741D01*
X0155786Y0159816D01*
X0155780Y0159892D01*
X0155778Y0159968D01*
X0161478Y0158468D02*
X0161480Y0158556D01*
X0161486Y0158645D01*
X0161496Y0158733D01*
X0161509Y0158820D01*
X0161527Y0158907D01*
X0161548Y0158993D01*
X0161573Y0159078D01*
X0161602Y0159161D01*
X0161635Y0159244D01*
X0161671Y0159324D01*
X0161710Y0159403D01*
X0161753Y0159481D01*
X0161800Y0159556D01*
X0161850Y0159629D01*
X0161903Y0159700D01*
X0161959Y0159769D01*
X0162018Y0159835D01*
X0162080Y0159898D01*
X0162144Y0159958D01*
X0162211Y0160016D01*
X0162281Y0160070D01*
X0162353Y0160122D01*
X0162427Y0160170D01*
X0162504Y0160215D01*
X0162582Y0160256D01*
X0162662Y0160294D01*
X0162743Y0160328D01*
X0162826Y0160359D01*
X0162911Y0160386D01*
X0162996Y0160409D01*
X0163082Y0160428D01*
X0163170Y0160444D01*
X0163257Y0160456D01*
X0163345Y0160464D01*
X0163434Y0160468D01*
X0163522Y0160468D01*
X0163611Y0160464D01*
X0163699Y0160456D01*
X0163786Y0160444D01*
X0163874Y0160428D01*
X0163960Y0160409D01*
X0164045Y0160386D01*
X0164130Y0160359D01*
X0164213Y0160328D01*
X0164294Y0160294D01*
X0164374Y0160256D01*
X0164452Y0160215D01*
X0164529Y0160170D01*
X0164603Y0160122D01*
X0164675Y0160070D01*
X0164745Y0160016D01*
X0164812Y0159958D01*
X0164876Y0159898D01*
X0164938Y0159835D01*
X0164997Y0159769D01*
X0165053Y0159700D01*
X0165106Y0159629D01*
X0165156Y0159556D01*
X0165203Y0159481D01*
X0165246Y0159403D01*
X0165285Y0159324D01*
X0165321Y0159244D01*
X0165354Y0159161D01*
X0165383Y0159078D01*
X0165408Y0158993D01*
X0165429Y0158907D01*
X0165447Y0158820D01*
X0165460Y0158733D01*
X0165470Y0158645D01*
X0165476Y0158556D01*
X0165478Y0158468D01*
X0164049Y0211971D02*
X0159778Y0211971D01*
X0198778Y0220971D02*
X0203049Y0220971D01*
X0200914Y0223106D02*
X0200914Y0218836D01*
D12*
X0110763Y0106423D02*
X0111747Y0105439D01*
X0111747Y0103471D01*
X0110763Y0102487D01*
X0107810Y0102487D01*
X0109779Y0102487D02*
X0111747Y0100518D01*
X0107810Y0100518D02*
X0107810Y0106423D01*
X0110763Y0106423D01*
X0105302Y0106423D02*
X0101365Y0106423D01*
X0101365Y0100518D01*
X0105302Y0100518D01*
X0103333Y0103471D02*
X0101365Y0103471D01*
X0098856Y0100518D02*
X0098856Y0106423D01*
X0094919Y0106423D02*
X0094919Y0100518D01*
X0096888Y0102487D01*
X0098856Y0100518D01*
X0092411Y0101502D02*
X0092411Y0105439D01*
X0091426Y0106423D01*
X0089458Y0106423D01*
X0088474Y0105439D01*
X0088474Y0101502D01*
X0089458Y0100518D01*
X0091426Y0100518D01*
X0092411Y0101502D01*
X0085965Y0103471D02*
X0084981Y0102487D01*
X0082028Y0102487D01*
X0082028Y0100518D02*
X0082028Y0106423D01*
X0084981Y0106423D01*
X0085965Y0105439D01*
X0085965Y0103471D01*
D13*
X0167478Y0161468D03*
D14*
X0148478Y0091468D03*
D15*
X0152478Y0114468D03*
D16*
X0156368Y0149468D02*
X0156588Y0149468D01*
D17*
X0169778Y0158468D02*
X0169778Y0178468D01*
D18*
X0172967Y0118862D02*
X0172967Y0115712D01*
X0175329Y0115712D01*
X0181628Y0115712D02*
X0183990Y0115712D01*
X0183990Y0118862D01*
X0168990Y0089862D02*
X0168990Y0086712D01*
X0166628Y0086712D01*
X0160329Y0086712D02*
X0157967Y0086712D01*
X0157967Y0089862D01*
X0077510Y0087594D02*
X0077510Y0121059D01*
X0031841Y0121059D01*
X0031841Y0087594D01*
X0077510Y0087594D01*
M02*
