G75*
%MOIN*%
%OFA0B0*%
%FSLAX25Y25*%
%IPPOS*%
%LPD*%
%AMOC8*
5,1,8,0,0,1.08239X$1,22.5*
%
%ADD10C,0.01181*%
%ADD11C,0.06200*%
%ADD12R,0.04331X0.03937*%
%ADD13R,0.03937X0.04331*%
%ADD14R,0.06200X0.06200*%
%ADD15R,0.03150X0.03543*%
%ADD16C,0.07000*%
%ADD17C,0.10000*%
%ADD18C,0.07400*%
%ADD19R,0.30000X0.08900*%
%ADD20R,0.04921X0.01181*%
%ADD21R,0.02756X0.01181*%
%ADD22C,0.00800*%
%ADD23C,0.04000*%
%ADD24C,0.02400*%
D10*
X0051254Y0155090D02*
X0051254Y0157846D01*
X0054010Y0157846D01*
X0054010Y0155090D01*
X0051254Y0155090D01*
X0051254Y0156270D02*
X0054010Y0156270D01*
X0054010Y0157450D02*
X0051254Y0157450D01*
X0058160Y0157846D02*
X0058160Y0155090D01*
X0058160Y0157846D02*
X0060916Y0157846D01*
X0060916Y0155090D01*
X0058160Y0155090D01*
X0058160Y0156270D02*
X0060916Y0156270D01*
X0060916Y0157450D02*
X0058160Y0157450D01*
X0058160Y0165090D02*
X0058160Y0167846D01*
X0060916Y0167846D01*
X0060916Y0165090D01*
X0058160Y0165090D01*
X0058160Y0166270D02*
X0060916Y0166270D01*
X0060916Y0167450D02*
X0058160Y0167450D01*
X0051254Y0167846D02*
X0051254Y0165090D01*
X0051254Y0167846D02*
X0054010Y0167846D01*
X0054010Y0165090D01*
X0051254Y0165090D01*
X0051254Y0166270D02*
X0054010Y0166270D01*
X0054010Y0167450D02*
X0051254Y0167450D01*
X0051254Y0175090D02*
X0051254Y0177846D01*
X0054010Y0177846D01*
X0054010Y0175090D01*
X0051254Y0175090D01*
X0051254Y0176270D02*
X0054010Y0176270D01*
X0054010Y0177450D02*
X0051254Y0177450D01*
X0058160Y0177846D02*
X0058160Y0175090D01*
X0058160Y0177846D02*
X0060916Y0177846D01*
X0060916Y0175090D01*
X0058160Y0175090D01*
X0058160Y0176270D02*
X0060916Y0176270D01*
X0060916Y0177450D02*
X0058160Y0177450D01*
X0058160Y0185090D02*
X0058160Y0187846D01*
X0060916Y0187846D01*
X0060916Y0185090D01*
X0058160Y0185090D01*
X0058160Y0186270D02*
X0060916Y0186270D01*
X0060916Y0187450D02*
X0058160Y0187450D01*
X0051254Y0187846D02*
X0051254Y0185090D01*
X0051254Y0187846D02*
X0054010Y0187846D01*
X0054010Y0185090D01*
X0051254Y0185090D01*
X0051254Y0186270D02*
X0054010Y0186270D01*
X0054010Y0187450D02*
X0051254Y0187450D01*
X0051254Y0195090D02*
X0051254Y0197846D01*
X0054010Y0197846D01*
X0054010Y0195090D01*
X0051254Y0195090D01*
X0051254Y0196270D02*
X0054010Y0196270D01*
X0054010Y0197450D02*
X0051254Y0197450D01*
X0058160Y0197846D02*
X0058160Y0195090D01*
X0058160Y0197846D02*
X0060916Y0197846D01*
X0060916Y0195090D01*
X0058160Y0195090D01*
X0058160Y0196270D02*
X0060916Y0196270D01*
X0060916Y0197450D02*
X0058160Y0197450D01*
X0058160Y0205090D02*
X0058160Y0207846D01*
X0060916Y0207846D01*
X0060916Y0205090D01*
X0058160Y0205090D01*
X0058160Y0206270D02*
X0060916Y0206270D01*
X0060916Y0207450D02*
X0058160Y0207450D01*
X0051254Y0207846D02*
X0051254Y0205090D01*
X0051254Y0207846D02*
X0054010Y0207846D01*
X0054010Y0205090D01*
X0051254Y0205090D01*
X0051254Y0206270D02*
X0054010Y0206270D01*
X0054010Y0207450D02*
X0051254Y0207450D01*
X0150254Y0091846D02*
X0150254Y0089090D01*
X0150254Y0091846D02*
X0153010Y0091846D01*
X0153010Y0089090D01*
X0150254Y0089090D01*
X0150254Y0090270D02*
X0153010Y0090270D01*
X0153010Y0091450D02*
X0150254Y0091450D01*
X0157160Y0091846D02*
X0157160Y0089090D01*
X0157160Y0091846D02*
X0159916Y0091846D01*
X0159916Y0089090D01*
X0157160Y0089090D01*
X0157160Y0090270D02*
X0159916Y0090270D01*
X0159916Y0091450D02*
X0157160Y0091450D01*
X0171254Y0091846D02*
X0171254Y0089090D01*
X0171254Y0091846D02*
X0174010Y0091846D01*
X0174010Y0089090D01*
X0171254Y0089090D01*
X0171254Y0090270D02*
X0174010Y0090270D01*
X0174010Y0091450D02*
X0171254Y0091450D01*
X0178160Y0091846D02*
X0178160Y0089090D01*
X0178160Y0091846D02*
X0180916Y0091846D01*
X0180916Y0089090D01*
X0178160Y0089090D01*
X0178160Y0090270D02*
X0180916Y0090270D01*
X0180916Y0091450D02*
X0178160Y0091450D01*
D11*
X0195085Y0087468D03*
X0195085Y0077468D03*
X0195085Y0067468D03*
X0195085Y0057468D03*
X0195085Y0097468D03*
X0195085Y0107468D03*
X0195085Y0117468D03*
X0195085Y0127468D03*
X0195085Y0137468D03*
X0195085Y0147468D03*
X0195085Y0157468D03*
X0195085Y0167468D03*
X0195085Y0177468D03*
X0195085Y0187468D03*
X0185085Y0187468D03*
X0175085Y0187468D03*
X0165085Y0187468D03*
X0155085Y0187468D03*
X0145085Y0187468D03*
X0135085Y0187468D03*
X0135085Y0177468D03*
X0135085Y0167468D03*
X0135085Y0157468D03*
X0135085Y0147468D03*
X0135085Y0137468D03*
X0135085Y0127468D03*
X0135085Y0117468D03*
X0135085Y0107468D03*
X0135085Y0097468D03*
X0135085Y0087468D03*
X0135085Y0077468D03*
X0135085Y0067468D03*
X0135085Y0057468D03*
X0120085Y0203468D03*
X0120085Y0213468D03*
X0120085Y0223468D03*
X0120085Y0233468D03*
X0120085Y0243468D03*
X0120085Y0253468D03*
X0040085Y0243468D03*
X0040085Y0233468D03*
X0040085Y0223468D03*
X0040085Y0213468D03*
X0040085Y0203468D03*
D12*
X0113739Y0127468D03*
X0120431Y0127468D03*
X0120431Y0117468D03*
X0113739Y0117468D03*
X0113739Y0107468D03*
X0120431Y0107468D03*
X0120431Y0097468D03*
X0113739Y0097468D03*
X0113739Y0087468D03*
X0120431Y0087468D03*
X0166739Y0125468D03*
X0173431Y0125468D03*
X0157431Y0153468D03*
X0150739Y0153468D03*
X0150739Y0162468D03*
X0157431Y0162468D03*
X0157431Y0171468D03*
X0150739Y0171468D03*
X0156739Y0237468D03*
X0163431Y0237468D03*
X0176739Y0237468D03*
X0183431Y0237468D03*
D13*
X0157085Y0133815D03*
X0157085Y0127122D03*
X0148085Y0110815D03*
X0148085Y0104122D03*
X0066085Y0111122D03*
X0066085Y0117815D03*
D14*
X0040085Y0253468D03*
D15*
X0171345Y0138531D03*
X0175085Y0146799D03*
X0178825Y0138531D03*
D16*
X0092785Y0141568D03*
X0073085Y0127368D03*
X0053385Y0141568D03*
D17*
X0046085Y0077468D03*
X0066085Y0077468D03*
X0086085Y0077468D03*
X0143085Y0251868D03*
X0163085Y0251868D03*
X0183085Y0251868D03*
D18*
X0066085Y0095468D03*
X0056085Y0095468D03*
X0046085Y0095468D03*
D19*
X0094085Y0189018D03*
D20*
X0162309Y0112405D03*
X0162309Y0110437D03*
X0162309Y0108468D03*
X0162309Y0106500D03*
X0162309Y0104531D03*
X0177861Y0104531D03*
X0177861Y0106500D03*
X0177861Y0108468D03*
X0177861Y0110437D03*
X0177861Y0112405D03*
D21*
X0180400Y0160515D03*
X0180400Y0162484D03*
X0180400Y0164452D03*
X0180400Y0166421D03*
X0169770Y0166421D03*
X0169770Y0164452D03*
X0169770Y0162484D03*
X0169770Y0160515D03*
D22*
X0022685Y0051068D02*
X0022685Y0278183D01*
X0214367Y0278183D01*
X0214367Y0051068D01*
X0022685Y0051068D01*
X0022685Y0051864D02*
X0214367Y0051864D01*
X0214367Y0052662D02*
X0022685Y0052662D01*
X0022685Y0053461D02*
X0132478Y0053461D01*
X0132423Y0053484D02*
X0134150Y0052768D01*
X0136020Y0052768D01*
X0137747Y0053484D01*
X0139070Y0054806D01*
X0139785Y0056533D01*
X0139785Y0058403D01*
X0139070Y0060131D01*
X0137747Y0061453D01*
X0136020Y0062168D01*
X0134150Y0062168D01*
X0132423Y0061453D01*
X0131101Y0060131D01*
X0130385Y0058403D01*
X0130385Y0056533D01*
X0131101Y0054806D01*
X0132423Y0053484D01*
X0131647Y0054259D02*
X0022685Y0054259D01*
X0022685Y0055058D02*
X0130996Y0055058D01*
X0130665Y0055856D02*
X0022685Y0055856D01*
X0022685Y0056655D02*
X0130385Y0056655D01*
X0130385Y0057453D02*
X0022685Y0057453D01*
X0022685Y0058252D02*
X0130385Y0058252D01*
X0130653Y0059050D02*
X0022685Y0059050D01*
X0022685Y0059849D02*
X0130984Y0059849D01*
X0131617Y0060647D02*
X0022685Y0060647D01*
X0022685Y0061446D02*
X0132416Y0061446D01*
X0133358Y0063298D02*
X0134031Y0063079D01*
X0134685Y0062975D01*
X0134685Y0067068D01*
X0135485Y0067068D01*
X0135485Y0062975D01*
X0136139Y0063079D01*
X0136812Y0063298D01*
X0137444Y0063619D01*
X0138017Y0064036D01*
X0138517Y0064537D01*
X0138934Y0065110D01*
X0139255Y0065741D01*
X0139474Y0066414D01*
X0139578Y0067068D01*
X0135485Y0067068D01*
X0135485Y0067868D01*
X0139578Y0067868D01*
X0139474Y0068522D01*
X0139255Y0069196D01*
X0138934Y0069827D01*
X0138517Y0070400D01*
X0138017Y0070901D01*
X0137444Y0071317D01*
X0136812Y0071638D01*
X0136139Y0071857D01*
X0135485Y0071961D01*
X0135485Y0067868D01*
X0134685Y0067868D01*
X0134685Y0067068D01*
X0130592Y0067068D01*
X0130696Y0066414D01*
X0130915Y0065741D01*
X0131236Y0065110D01*
X0131653Y0064537D01*
X0132153Y0064036D01*
X0132727Y0063619D01*
X0133358Y0063298D01*
X0134259Y0063043D02*
X0022685Y0063043D01*
X0022685Y0063841D02*
X0132421Y0063841D01*
X0131578Y0064640D02*
X0022685Y0064640D01*
X0022685Y0065438D02*
X0131069Y0065438D01*
X0130754Y0066237D02*
X0022685Y0066237D01*
X0022685Y0067035D02*
X0130597Y0067035D01*
X0130592Y0067868D02*
X0134685Y0067868D01*
X0134685Y0071961D01*
X0134031Y0071857D01*
X0133358Y0071638D01*
X0132727Y0071317D01*
X0132153Y0070901D01*
X0131653Y0070400D01*
X0131236Y0069827D01*
X0130915Y0069196D01*
X0130696Y0068522D01*
X0130592Y0067868D01*
X0130732Y0068632D02*
X0022685Y0068632D01*
X0022685Y0067834D02*
X0134685Y0067834D01*
X0134685Y0068632D02*
X0135485Y0068632D01*
X0135485Y0067834D02*
X0190385Y0067834D01*
X0190385Y0068403D02*
X0190385Y0066533D01*
X0191101Y0064806D01*
X0192423Y0063484D01*
X0194150Y0062768D01*
X0196020Y0062768D01*
X0197747Y0063484D01*
X0199070Y0064806D01*
X0199785Y0066533D01*
X0199785Y0068403D01*
X0199070Y0070131D01*
X0197747Y0071453D01*
X0196020Y0072168D01*
X0194150Y0072168D01*
X0192423Y0071453D01*
X0191101Y0070131D01*
X0190385Y0068403D01*
X0190480Y0068632D02*
X0167340Y0068632D01*
X0167124Y0068416D02*
X0168137Y0069429D01*
X0168685Y0070752D01*
X0168685Y0072184D01*
X0168137Y0073507D01*
X0167124Y0074520D01*
X0165801Y0075068D01*
X0164369Y0075068D01*
X0164330Y0075052D01*
X0160538Y0078844D01*
X0160538Y0086900D01*
X0160823Y0086900D01*
X0162106Y0088183D01*
X0162106Y0092753D01*
X0161392Y0093468D01*
X0170083Y0093468D01*
X0170032Y0093439D01*
X0169661Y0093068D01*
X0169399Y0092614D01*
X0169264Y0092108D01*
X0169264Y0090868D01*
X0172232Y0090868D01*
X0172232Y0090068D01*
X0169264Y0090068D01*
X0169264Y0088828D01*
X0169399Y0088322D01*
X0169661Y0087868D01*
X0170032Y0087497D01*
X0170486Y0087235D01*
X0170992Y0087100D01*
X0172232Y0087100D01*
X0172232Y0090068D01*
X0173032Y0090068D01*
X0173032Y0087100D01*
X0174272Y0087100D01*
X0174779Y0087235D01*
X0175232Y0087497D01*
X0175603Y0087868D01*
X0175865Y0088322D01*
X0175969Y0088711D01*
X0175969Y0088183D01*
X0177252Y0086900D01*
X0179909Y0086900D01*
X0180015Y0086852D01*
X0180142Y0086900D01*
X0181823Y0086900D01*
X0183106Y0088183D01*
X0183106Y0092753D01*
X0182085Y0093775D01*
X0182085Y0095400D01*
X0182124Y0095416D01*
X0183137Y0096429D01*
X0183685Y0097752D01*
X0183685Y0099184D01*
X0183137Y0100507D01*
X0182124Y0101520D01*
X0180801Y0102068D01*
X0179369Y0102068D01*
X0178046Y0101520D01*
X0177033Y0100507D01*
X0176485Y0099184D01*
X0176485Y0097752D01*
X0177033Y0096429D01*
X0178046Y0095416D01*
X0178085Y0095400D01*
X0178085Y0094037D01*
X0177252Y0094037D01*
X0175969Y0092753D01*
X0175969Y0092226D01*
X0175865Y0092614D01*
X0175603Y0093068D01*
X0175232Y0093439D01*
X0174779Y0093701D01*
X0174272Y0093837D01*
X0173032Y0093837D01*
X0173032Y0090868D01*
X0172232Y0090868D01*
X0172232Y0093837D01*
X0171282Y0093837D01*
X0173913Y0096468D01*
X0175085Y0097640D01*
X0175085Y0102576D01*
X0175216Y0102541D01*
X0177861Y0102541D01*
X0180506Y0102541D01*
X0180862Y0102636D01*
X0181181Y0102820D01*
X0181442Y0103081D01*
X0181626Y0103400D01*
X0181721Y0103756D01*
X0181721Y0104531D01*
X0180588Y0104531D01*
X0181721Y0104531D01*
X0181721Y0105306D01*
X0181665Y0105515D01*
X0181721Y0105725D01*
X0181721Y0106468D01*
X0184913Y0106468D01*
X0186085Y0107640D01*
X0187085Y0108640D01*
X0187085Y0102640D01*
X0188257Y0101468D01*
X0190659Y0099065D01*
X0190385Y0098403D01*
X0190385Y0096533D01*
X0191101Y0094806D01*
X0192423Y0093484D01*
X0194150Y0092768D01*
X0196020Y0092768D01*
X0197747Y0093484D01*
X0199070Y0094806D01*
X0199785Y0096533D01*
X0199785Y0098403D01*
X0199070Y0100131D01*
X0197747Y0101453D01*
X0196020Y0102168D01*
X0194150Y0102168D01*
X0193488Y0101894D01*
X0191085Y0104297D01*
X0191085Y0104843D01*
X0191101Y0104806D01*
X0192423Y0103484D01*
X0194150Y0102768D01*
X0196020Y0102768D01*
X0197747Y0103484D01*
X0199070Y0104806D01*
X0199785Y0106533D01*
X0199785Y0108403D01*
X0199070Y0110131D01*
X0197747Y0111453D01*
X0196020Y0112168D01*
X0194150Y0112168D01*
X0192423Y0111453D01*
X0191101Y0110131D01*
X0191085Y0110093D01*
X0191085Y0114843D01*
X0191101Y0114806D01*
X0192423Y0113484D01*
X0194150Y0112768D01*
X0196020Y0112768D01*
X0197747Y0113484D01*
X0199070Y0114806D01*
X0199785Y0116533D01*
X0199785Y0118403D01*
X0199511Y0119065D01*
X0202913Y0122468D01*
X0204085Y0123640D01*
X0204085Y0160297D01*
X0202913Y0161468D01*
X0201085Y0163297D01*
X0199913Y0164468D01*
X0198732Y0164468D01*
X0199070Y0164806D01*
X0199785Y0166533D01*
X0199785Y0168403D01*
X0199070Y0170131D01*
X0197747Y0171453D01*
X0196020Y0172168D01*
X0194150Y0172168D01*
X0192423Y0171453D01*
X0192085Y0171115D01*
X0192085Y0173821D01*
X0192423Y0173484D01*
X0194150Y0172768D01*
X0196020Y0172768D01*
X0197747Y0173484D01*
X0199070Y0174806D01*
X0199344Y0175468D01*
X0205913Y0175468D01*
X0207330Y0176884D01*
X0207369Y0176868D01*
X0208801Y0176868D01*
X0210124Y0177416D01*
X0211137Y0178429D01*
X0211685Y0179752D01*
X0211685Y0181184D01*
X0211137Y0182507D01*
X0210124Y0183520D01*
X0208801Y0184068D01*
X0207369Y0184068D01*
X0206046Y0183520D01*
X0205033Y0182507D01*
X0204485Y0181184D01*
X0204485Y0179752D01*
X0204501Y0179713D01*
X0204257Y0179468D01*
X0199344Y0179468D01*
X0199070Y0180131D01*
X0197747Y0181453D01*
X0196020Y0182168D01*
X0194150Y0182168D01*
X0192423Y0181453D01*
X0192085Y0181115D01*
X0192085Y0183821D01*
X0192423Y0183484D01*
X0194150Y0182768D01*
X0196020Y0182768D01*
X0197747Y0183484D01*
X0199070Y0184806D01*
X0199785Y0186533D01*
X0199785Y0188403D01*
X0199070Y0190131D01*
X0197747Y0191453D01*
X0197085Y0191727D01*
X0197085Y0206400D01*
X0197124Y0206416D01*
X0198137Y0207429D01*
X0198685Y0208752D01*
X0198685Y0210184D01*
X0198137Y0211507D01*
X0197124Y0212520D01*
X0195801Y0213068D01*
X0194369Y0213068D01*
X0193046Y0212520D01*
X0192033Y0211507D01*
X0191485Y0210184D01*
X0191485Y0208752D01*
X0192033Y0207429D01*
X0193046Y0206416D01*
X0193085Y0206400D01*
X0193085Y0191727D01*
X0192423Y0191453D01*
X0192085Y0191115D01*
X0192085Y0206297D01*
X0190913Y0207468D01*
X0189669Y0208713D01*
X0189685Y0208752D01*
X0189685Y0210184D01*
X0189137Y0211507D01*
X0188124Y0212520D01*
X0186801Y0213068D01*
X0185369Y0213068D01*
X0184046Y0212520D01*
X0183033Y0211507D01*
X0182485Y0210184D01*
X0182485Y0208752D01*
X0183033Y0207429D01*
X0184046Y0206416D01*
X0185369Y0205868D01*
X0186801Y0205868D01*
X0186840Y0205884D01*
X0188085Y0204640D01*
X0188085Y0191115D01*
X0187747Y0191453D01*
X0186020Y0192168D01*
X0184150Y0192168D01*
X0182423Y0191453D01*
X0182085Y0191115D01*
X0182085Y0217640D01*
X0185431Y0220986D01*
X0185431Y0233900D01*
X0186260Y0233900D01*
X0187197Y0234837D01*
X0187197Y0240099D01*
X0186260Y0241037D01*
X0185085Y0241037D01*
X0185085Y0245553D01*
X0186824Y0246273D01*
X0188680Y0248130D01*
X0189685Y0250555D01*
X0189685Y0253181D01*
X0188680Y0255607D01*
X0186824Y0257463D01*
X0184398Y0258468D01*
X0181772Y0258468D01*
X0179346Y0257463D01*
X0177490Y0255607D01*
X0176485Y0253181D01*
X0176485Y0250555D01*
X0177490Y0248130D01*
X0179346Y0246273D01*
X0181085Y0245553D01*
X0181085Y0241037D01*
X0180603Y0241037D01*
X0180085Y0240518D01*
X0179567Y0241037D01*
X0173910Y0241037D01*
X0172973Y0240099D01*
X0172973Y0234837D01*
X0173910Y0233900D01*
X0174739Y0233900D01*
X0174739Y0213068D01*
X0174369Y0213068D01*
X0173046Y0212520D01*
X0172033Y0211507D01*
X0171485Y0210184D01*
X0171485Y0208752D01*
X0172033Y0207429D01*
X0173046Y0206416D01*
X0173085Y0206400D01*
X0173085Y0191727D01*
X0172423Y0191453D01*
X0171101Y0190131D01*
X0170385Y0188403D01*
X0170385Y0186533D01*
X0171101Y0184806D01*
X0172423Y0183484D01*
X0173085Y0183209D01*
X0173085Y0161640D01*
X0174257Y0160468D01*
X0176209Y0158515D01*
X0178169Y0158515D01*
X0178216Y0158468D01*
X0171954Y0158468D01*
X0172748Y0159262D01*
X0172748Y0165706D01*
X0172548Y0165906D01*
X0172548Y0166421D01*
X0172548Y0167196D01*
X0172453Y0167552D01*
X0172268Y0167871D01*
X0172008Y0168132D01*
X0171688Y0168316D01*
X0171332Y0168411D01*
X0169770Y0168411D01*
X0168208Y0168411D01*
X0167852Y0168316D01*
X0167533Y0168132D01*
X0167272Y0167871D01*
X0167088Y0167552D01*
X0166992Y0167196D01*
X0166992Y0166452D01*
X0165276Y0166452D01*
X0161197Y0170531D01*
X0161197Y0174099D01*
X0160260Y0175037D01*
X0154603Y0175037D01*
X0154085Y0174518D01*
X0153567Y0175037D01*
X0152085Y0175037D01*
X0152085Y0183821D01*
X0152423Y0183484D01*
X0154150Y0182768D01*
X0156020Y0182768D01*
X0157747Y0183484D01*
X0159070Y0184806D01*
X0159785Y0186533D01*
X0159785Y0188403D01*
X0159070Y0190131D01*
X0157747Y0191453D01*
X0156020Y0192168D01*
X0154150Y0192168D01*
X0152423Y0191453D01*
X0152085Y0191115D01*
X0152085Y0192640D01*
X0164260Y0204815D01*
X0165431Y0205986D01*
X0165431Y0233900D01*
X0166260Y0233900D01*
X0167197Y0234837D01*
X0167197Y0240099D01*
X0166260Y0241037D01*
X0165085Y0241037D01*
X0165085Y0245553D01*
X0166824Y0246273D01*
X0168680Y0248130D01*
X0169685Y0250555D01*
X0169685Y0253181D01*
X0168680Y0255607D01*
X0166824Y0257463D01*
X0164398Y0258468D01*
X0161772Y0258468D01*
X0159346Y0257463D01*
X0157490Y0255607D01*
X0156485Y0253181D01*
X0156485Y0250555D01*
X0157490Y0248130D01*
X0159346Y0246273D01*
X0161085Y0245553D01*
X0161085Y0241037D01*
X0160603Y0241037D01*
X0159944Y0240377D01*
X0159764Y0240557D01*
X0159444Y0240741D01*
X0159088Y0240837D01*
X0157139Y0240837D01*
X0157139Y0237868D01*
X0156339Y0237868D01*
X0156339Y0240837D01*
X0154389Y0240837D01*
X0154033Y0240741D01*
X0153714Y0240557D01*
X0153453Y0240296D01*
X0153269Y0239977D01*
X0153173Y0239621D01*
X0153173Y0237868D01*
X0156339Y0237868D01*
X0156339Y0237068D01*
X0157139Y0237068D01*
X0157139Y0234100D01*
X0159088Y0234100D01*
X0159444Y0234195D01*
X0159764Y0234379D01*
X0159944Y0234559D01*
X0160603Y0233900D01*
X0161431Y0233900D01*
X0161431Y0207643D01*
X0148085Y0194297D01*
X0148085Y0191115D01*
X0147747Y0191453D01*
X0146020Y0192168D01*
X0144150Y0192168D01*
X0142423Y0191453D01*
X0141101Y0190131D01*
X0140385Y0188403D01*
X0140385Y0186533D01*
X0141101Y0184806D01*
X0142423Y0183484D01*
X0144150Y0182768D01*
X0146020Y0182768D01*
X0147747Y0183484D01*
X0148085Y0183821D01*
X0148085Y0175037D01*
X0147910Y0175037D01*
X0146973Y0174099D01*
X0146973Y0168837D01*
X0147910Y0167900D01*
X0148739Y0167900D01*
X0148739Y0166037D01*
X0147910Y0166037D01*
X0146973Y0165099D01*
X0146973Y0159837D01*
X0147910Y0158900D01*
X0148739Y0158900D01*
X0148739Y0157037D01*
X0147910Y0157037D01*
X0146973Y0156099D01*
X0146973Y0150837D01*
X0147910Y0149900D01*
X0148739Y0149900D01*
X0148739Y0141950D01*
X0147257Y0140468D01*
X0147153Y0140468D01*
X0147137Y0140507D01*
X0146124Y0141520D01*
X0144801Y0142068D01*
X0143369Y0142068D01*
X0142046Y0141520D01*
X0141033Y0140507D01*
X0140485Y0139184D01*
X0140485Y0137752D01*
X0141017Y0136468D01*
X0139758Y0136468D01*
X0139785Y0136533D01*
X0139785Y0138403D01*
X0139070Y0140131D01*
X0137747Y0141453D01*
X0136020Y0142168D01*
X0134150Y0142168D01*
X0132423Y0141453D01*
X0131101Y0140131D01*
X0130385Y0138403D01*
X0130385Y0136533D01*
X0131101Y0134806D01*
X0132423Y0133484D01*
X0134150Y0132768D01*
X0136020Y0132768D01*
X0136682Y0133043D01*
X0137257Y0132468D01*
X0147913Y0132468D01*
X0169913Y0154468D01*
X0184913Y0154468D01*
X0186085Y0155640D01*
X0186085Y0154640D01*
X0187257Y0153468D01*
X0189085Y0151640D01*
X0189085Y0151640D01*
X0190257Y0150468D01*
X0191438Y0150468D01*
X0191101Y0150131D01*
X0190385Y0148403D01*
X0190385Y0146533D01*
X0190659Y0145871D01*
X0189257Y0144468D01*
X0178260Y0144468D01*
X0178260Y0149233D01*
X0177323Y0150171D01*
X0172847Y0150171D01*
X0171910Y0149233D01*
X0171910Y0148799D01*
X0168587Y0148799D01*
X0167840Y0148052D01*
X0167801Y0148068D01*
X0166369Y0148068D01*
X0165046Y0147520D01*
X0164033Y0146507D01*
X0163485Y0145184D01*
X0163485Y0143752D01*
X0163501Y0143713D01*
X0157368Y0137580D01*
X0154454Y0137580D01*
X0153517Y0136643D01*
X0153517Y0130987D01*
X0154035Y0130468D01*
X0153517Y0129950D01*
X0153517Y0124294D01*
X0154454Y0123356D01*
X0155085Y0123356D01*
X0155085Y0123297D01*
X0153257Y0121468D01*
X0153153Y0121468D01*
X0153137Y0121507D01*
X0152124Y0122520D01*
X0150801Y0123068D01*
X0149369Y0123068D01*
X0148046Y0122520D01*
X0147033Y0121507D01*
X0146485Y0120184D01*
X0146485Y0118752D01*
X0146501Y0118713D01*
X0146085Y0118297D01*
X0146085Y0114580D01*
X0145454Y0114580D01*
X0144517Y0113643D01*
X0144517Y0107987D01*
X0145035Y0107468D01*
X0144517Y0106950D01*
X0144517Y0101294D01*
X0145454Y0100356D01*
X0146085Y0100356D01*
X0146085Y0098640D01*
X0147257Y0097468D01*
X0150085Y0094640D01*
X0150888Y0093837D01*
X0149992Y0093837D01*
X0149486Y0093701D01*
X0149032Y0093439D01*
X0148661Y0093068D01*
X0148399Y0092614D01*
X0148264Y0092108D01*
X0148264Y0090868D01*
X0151232Y0090868D01*
X0151232Y0090068D01*
X0148264Y0090068D01*
X0148264Y0088828D01*
X0148399Y0088322D01*
X0148661Y0087868D01*
X0149032Y0087497D01*
X0149486Y0087235D01*
X0149992Y0087100D01*
X0151232Y0087100D01*
X0151232Y0090068D01*
X0152032Y0090068D01*
X0152032Y0087100D01*
X0153272Y0087100D01*
X0153779Y0087235D01*
X0154232Y0087497D01*
X0154603Y0087868D01*
X0154865Y0088322D01*
X0154969Y0088711D01*
X0154969Y0088183D01*
X0156252Y0086900D01*
X0156538Y0086900D01*
X0156538Y0077187D01*
X0157709Y0076015D01*
X0161501Y0072224D01*
X0161485Y0072184D01*
X0161485Y0070752D01*
X0162033Y0069429D01*
X0163046Y0068416D01*
X0164369Y0067868D01*
X0165801Y0067868D01*
X0167124Y0068416D01*
X0168138Y0069431D02*
X0190811Y0069431D01*
X0191200Y0070229D02*
X0168469Y0070229D01*
X0168685Y0071028D02*
X0191998Y0071028D01*
X0193325Y0071827D02*
X0168685Y0071827D01*
X0168502Y0072625D02*
X0214367Y0072625D01*
X0214367Y0071827D02*
X0196845Y0071827D01*
X0196020Y0072768D02*
X0194150Y0072768D01*
X0192423Y0073484D01*
X0191101Y0074806D01*
X0190385Y0076533D01*
X0190385Y0078403D01*
X0191101Y0080131D01*
X0192423Y0081453D01*
X0194150Y0082168D01*
X0196020Y0082168D01*
X0197747Y0081453D01*
X0199070Y0080131D01*
X0199785Y0078403D01*
X0199785Y0076533D01*
X0199070Y0074806D01*
X0197747Y0073484D01*
X0196020Y0072768D01*
X0197602Y0073424D02*
X0214367Y0073424D01*
X0214367Y0074222D02*
X0198486Y0074222D01*
X0199158Y0075021D02*
X0214367Y0075021D01*
X0214367Y0075819D02*
X0199489Y0075819D01*
X0199785Y0076618D02*
X0214367Y0076618D01*
X0214367Y0077416D02*
X0199785Y0077416D01*
X0199785Y0078215D02*
X0214367Y0078215D01*
X0214367Y0079013D02*
X0199532Y0079013D01*
X0199202Y0079812D02*
X0214367Y0079812D01*
X0214367Y0080610D02*
X0198590Y0080610D01*
X0197791Y0081409D02*
X0214367Y0081409D01*
X0214367Y0082207D02*
X0160538Y0082207D01*
X0160538Y0081409D02*
X0192379Y0081409D01*
X0191580Y0080610D02*
X0160538Y0080610D01*
X0160538Y0079812D02*
X0190968Y0079812D01*
X0190638Y0079013D02*
X0160538Y0079013D01*
X0161167Y0078215D02*
X0190385Y0078215D01*
X0190385Y0077416D02*
X0161966Y0077416D01*
X0162764Y0076618D02*
X0190385Y0076618D01*
X0190681Y0075819D02*
X0163563Y0075819D01*
X0165916Y0075021D02*
X0191012Y0075021D01*
X0191684Y0074222D02*
X0167422Y0074222D01*
X0168172Y0073424D02*
X0192568Y0073424D01*
X0198172Y0071028D02*
X0214367Y0071028D01*
X0214367Y0070229D02*
X0198971Y0070229D01*
X0199359Y0069431D02*
X0214367Y0069431D01*
X0214367Y0068632D02*
X0199690Y0068632D01*
X0199785Y0067834D02*
X0214367Y0067834D01*
X0214367Y0067035D02*
X0199785Y0067035D01*
X0199662Y0066237D02*
X0214367Y0066237D01*
X0214367Y0065438D02*
X0199332Y0065438D01*
X0198904Y0064640D02*
X0214367Y0064640D01*
X0214367Y0063841D02*
X0198105Y0063841D01*
X0196683Y0063043D02*
X0214367Y0063043D01*
X0214367Y0062244D02*
X0022685Y0062244D01*
X0022685Y0069431D02*
X0131035Y0069431D01*
X0131529Y0070229D02*
X0022685Y0070229D01*
X0022685Y0071028D02*
X0044386Y0071028D01*
X0044772Y0070868D02*
X0047398Y0070868D01*
X0049824Y0071873D01*
X0051680Y0073730D01*
X0052685Y0076155D01*
X0052685Y0078781D01*
X0051680Y0081207D01*
X0049824Y0083063D01*
X0048885Y0083452D01*
X0048885Y0090891D01*
X0049087Y0090975D01*
X0050578Y0092466D01*
X0051206Y0093981D01*
X0051359Y0093510D01*
X0051723Y0092795D01*
X0052195Y0092146D01*
X0052763Y0091578D01*
X0053412Y0091106D01*
X0054127Y0090742D01*
X0054891Y0090494D01*
X0055684Y0090368D01*
X0055685Y0090368D01*
X0055685Y0095068D01*
X0056485Y0095068D01*
X0056485Y0090368D01*
X0056486Y0090368D01*
X0057279Y0090494D01*
X0058043Y0090742D01*
X0058758Y0091106D01*
X0059407Y0091578D01*
X0059975Y0092146D01*
X0060447Y0092795D01*
X0060811Y0093510D01*
X0060964Y0093981D01*
X0061592Y0092466D01*
X0063083Y0090975D01*
X0065031Y0090168D01*
X0067139Y0090168D01*
X0069087Y0090975D01*
X0070578Y0092466D01*
X0071385Y0094414D01*
X0071385Y0096522D01*
X0070578Y0098470D01*
X0069087Y0099961D01*
X0068085Y0100376D01*
X0068085Y0107356D01*
X0068716Y0107356D01*
X0069654Y0108294D01*
X0069654Y0113950D01*
X0069135Y0114468D01*
X0069654Y0114987D01*
X0069654Y0120643D01*
X0068716Y0121580D01*
X0068085Y0121580D01*
X0068085Y0141640D01*
X0098085Y0111640D01*
X0098085Y0091640D01*
X0099257Y0090468D01*
X0103085Y0086640D01*
X0104257Y0085468D01*
X0109973Y0085468D01*
X0109973Y0084837D01*
X0110910Y0083900D01*
X0116567Y0083900D01*
X0117085Y0084418D01*
X0117603Y0083900D01*
X0123260Y0083900D01*
X0124197Y0084837D01*
X0124197Y0085468D01*
X0130826Y0085468D01*
X0131101Y0084806D01*
X0132423Y0083484D01*
X0134150Y0082768D01*
X0136020Y0082768D01*
X0137747Y0083484D01*
X0139070Y0084806D01*
X0139785Y0086533D01*
X0139785Y0088403D01*
X0139070Y0090131D01*
X0137747Y0091453D01*
X0136020Y0092168D01*
X0134150Y0092168D01*
X0132423Y0091453D01*
X0131101Y0090131D01*
X0130826Y0089468D01*
X0124197Y0089468D01*
X0124197Y0090099D01*
X0123260Y0091037D01*
X0117603Y0091037D01*
X0117085Y0090518D01*
X0116567Y0091037D01*
X0110910Y0091037D01*
X0109973Y0090099D01*
X0109973Y0089468D01*
X0105913Y0089468D01*
X0102085Y0093297D01*
X0102085Y0097640D01*
X0103085Y0096640D01*
X0104257Y0095468D01*
X0109973Y0095468D01*
X0109973Y0094837D01*
X0110910Y0093900D01*
X0116567Y0093900D01*
X0117085Y0094418D01*
X0117603Y0093900D01*
X0123260Y0093900D01*
X0124197Y0094837D01*
X0124197Y0095468D01*
X0130826Y0095468D01*
X0131101Y0094806D01*
X0132423Y0093484D01*
X0134150Y0092768D01*
X0136020Y0092768D01*
X0137747Y0093484D01*
X0139070Y0094806D01*
X0139785Y0096533D01*
X0139785Y0098403D01*
X0139070Y0100131D01*
X0137747Y0101453D01*
X0136020Y0102168D01*
X0134150Y0102168D01*
X0132423Y0101453D01*
X0131101Y0100131D01*
X0130826Y0099468D01*
X0124197Y0099468D01*
X0124197Y0100099D01*
X0123260Y0101037D01*
X0117603Y0101037D01*
X0117085Y0100518D01*
X0116567Y0101037D01*
X0110910Y0101037D01*
X0109973Y0100099D01*
X0109973Y0099468D01*
X0105913Y0099468D01*
X0104085Y0101297D01*
X0104085Y0107640D01*
X0106257Y0105468D01*
X0109973Y0105468D01*
X0109973Y0104837D01*
X0110910Y0103900D01*
X0116567Y0103900D01*
X0117085Y0104418D01*
X0117603Y0103900D01*
X0123260Y0103900D01*
X0124197Y0104837D01*
X0124197Y0105468D01*
X0130826Y0105468D01*
X0131101Y0104806D01*
X0132423Y0103484D01*
X0134150Y0102768D01*
X0136020Y0102768D01*
X0137747Y0103484D01*
X0139070Y0104806D01*
X0139785Y0106533D01*
X0139785Y0108403D01*
X0139070Y0110131D01*
X0137747Y0111453D01*
X0136020Y0112168D01*
X0134150Y0112168D01*
X0132423Y0111453D01*
X0131101Y0110131D01*
X0130826Y0109468D01*
X0124197Y0109468D01*
X0124197Y0110099D01*
X0123260Y0111037D01*
X0117603Y0111037D01*
X0117085Y0110518D01*
X0116567Y0111037D01*
X0110910Y0111037D01*
X0109973Y0110099D01*
X0109973Y0109468D01*
X0107913Y0109468D01*
X0106085Y0111297D01*
X0106085Y0115297D01*
X0105913Y0115468D01*
X0109973Y0115468D01*
X0109973Y0114837D01*
X0110910Y0113900D01*
X0116567Y0113900D01*
X0117085Y0114418D01*
X0117603Y0113900D01*
X0123260Y0113900D01*
X0124197Y0114837D01*
X0124197Y0115468D01*
X0130826Y0115468D01*
X0131101Y0114806D01*
X0132423Y0113484D01*
X0134150Y0112768D01*
X0136020Y0112768D01*
X0137747Y0113484D01*
X0139070Y0114806D01*
X0139785Y0116533D01*
X0139785Y0118403D01*
X0139070Y0120131D01*
X0137747Y0121453D01*
X0136020Y0122168D01*
X0134150Y0122168D01*
X0132423Y0121453D01*
X0131101Y0120131D01*
X0130826Y0119468D01*
X0124197Y0119468D01*
X0124197Y0120099D01*
X0123260Y0121037D01*
X0117603Y0121037D01*
X0117085Y0120518D01*
X0116567Y0121037D01*
X0110910Y0121037D01*
X0109973Y0120099D01*
X0109973Y0119468D01*
X0104913Y0119468D01*
X0098913Y0125468D01*
X0109973Y0125468D01*
X0109973Y0124837D01*
X0110910Y0123900D01*
X0116567Y0123900D01*
X0117085Y0124418D01*
X0117603Y0123900D01*
X0123260Y0123900D01*
X0124197Y0124837D01*
X0124197Y0125468D01*
X0130826Y0125468D01*
X0131101Y0124806D01*
X0132423Y0123484D01*
X0134150Y0122768D01*
X0136020Y0122768D01*
X0137747Y0123484D01*
X0139070Y0124806D01*
X0139785Y0126533D01*
X0139785Y0128403D01*
X0139070Y0130131D01*
X0137747Y0131453D01*
X0136020Y0132168D01*
X0134150Y0132168D01*
X0132423Y0131453D01*
X0131101Y0130131D01*
X0130826Y0129468D01*
X0124197Y0129468D01*
X0124197Y0130099D01*
X0123260Y0131037D01*
X0117603Y0131037D01*
X0117085Y0130518D01*
X0116567Y0131037D01*
X0110910Y0131037D01*
X0109973Y0130099D01*
X0109973Y0129468D01*
X0097913Y0129468D01*
X0090307Y0137074D01*
X0091771Y0136468D01*
X0093799Y0136468D01*
X0095674Y0137245D01*
X0097109Y0138679D01*
X0097885Y0140554D01*
X0097885Y0142583D01*
X0097109Y0144457D01*
X0095674Y0145892D01*
X0093799Y0146668D01*
X0091771Y0146668D01*
X0089896Y0145892D01*
X0088461Y0144457D01*
X0087685Y0142583D01*
X0087685Y0140554D01*
X0088291Y0139090D01*
X0076085Y0151297D01*
X0076085Y0203297D01*
X0072085Y0207297D01*
X0070913Y0208468D01*
X0063106Y0208468D01*
X0063106Y0208753D01*
X0061823Y0210037D01*
X0057252Y0210037D01*
X0055969Y0208753D01*
X0055969Y0208226D01*
X0055865Y0208614D01*
X0055603Y0209068D01*
X0055232Y0209439D01*
X0054779Y0209701D01*
X0054272Y0209837D01*
X0053032Y0209837D01*
X0053032Y0206868D01*
X0052232Y0206868D01*
X0052232Y0206068D01*
X0049264Y0206068D01*
X0049264Y0204828D01*
X0049399Y0204322D01*
X0049661Y0203868D01*
X0050032Y0203497D01*
X0050486Y0203235D01*
X0050992Y0203100D01*
X0052232Y0203100D01*
X0052232Y0206068D01*
X0053032Y0206068D01*
X0053032Y0203100D01*
X0054272Y0203100D01*
X0054779Y0203235D01*
X0055232Y0203497D01*
X0055603Y0203868D01*
X0055865Y0204322D01*
X0055969Y0204711D01*
X0055969Y0204183D01*
X0057252Y0202900D01*
X0061823Y0202900D01*
X0063106Y0204183D01*
X0063106Y0204468D01*
X0069257Y0204468D01*
X0072085Y0201640D01*
X0072085Y0195297D01*
X0070085Y0197297D01*
X0068913Y0198468D01*
X0063106Y0198468D01*
X0063106Y0198753D01*
X0061823Y0200037D01*
X0057252Y0200037D01*
X0055969Y0198753D01*
X0055969Y0198226D01*
X0055865Y0198614D01*
X0055603Y0199068D01*
X0055232Y0199439D01*
X0054779Y0199701D01*
X0054272Y0199837D01*
X0053032Y0199837D01*
X0053032Y0196868D01*
X0052232Y0196868D01*
X0052232Y0196068D01*
X0049264Y0196068D01*
X0049264Y0194828D01*
X0049399Y0194322D01*
X0049661Y0193868D01*
X0050032Y0193497D01*
X0050486Y0193235D01*
X0050992Y0193100D01*
X0052232Y0193100D01*
X0052232Y0196068D01*
X0053032Y0196068D01*
X0053032Y0193100D01*
X0054272Y0193100D01*
X0054779Y0193235D01*
X0055232Y0193497D01*
X0055603Y0193868D01*
X0055865Y0194322D01*
X0055969Y0194711D01*
X0055969Y0194183D01*
X0057252Y0192900D01*
X0061823Y0192900D01*
X0063106Y0194183D01*
X0063106Y0194468D01*
X0067257Y0194468D01*
X0070085Y0191640D01*
X0070085Y0185297D01*
X0068085Y0187297D01*
X0066913Y0188468D01*
X0063106Y0188468D01*
X0063106Y0188753D01*
X0061823Y0190037D01*
X0057252Y0190037D01*
X0055969Y0188753D01*
X0055969Y0188226D01*
X0055865Y0188614D01*
X0055603Y0189068D01*
X0055232Y0189439D01*
X0054779Y0189701D01*
X0054272Y0189837D01*
X0053032Y0189837D01*
X0053032Y0186868D01*
X0052232Y0186868D01*
X0052232Y0186068D01*
X0049264Y0186068D01*
X0049264Y0184828D01*
X0049399Y0184322D01*
X0049661Y0183868D01*
X0050032Y0183497D01*
X0050486Y0183235D01*
X0050992Y0183100D01*
X0052232Y0183100D01*
X0052232Y0186068D01*
X0053032Y0186068D01*
X0053032Y0183100D01*
X0054272Y0183100D01*
X0054779Y0183235D01*
X0055232Y0183497D01*
X0055603Y0183868D01*
X0055865Y0184322D01*
X0055969Y0184711D01*
X0055969Y0184183D01*
X0057252Y0182900D01*
X0061823Y0182900D01*
X0063106Y0184183D01*
X0063106Y0184468D01*
X0065257Y0184468D01*
X0068085Y0181640D01*
X0068085Y0176297D01*
X0067085Y0177297D01*
X0065913Y0178468D01*
X0063106Y0178468D01*
X0063106Y0178753D01*
X0061823Y0180037D01*
X0057252Y0180037D01*
X0055969Y0178753D01*
X0055969Y0178226D01*
X0055865Y0178614D01*
X0055603Y0179068D01*
X0055232Y0179439D01*
X0054779Y0179701D01*
X0054272Y0179837D01*
X0053032Y0179837D01*
X0053032Y0176868D01*
X0052232Y0176868D01*
X0052232Y0176068D01*
X0049264Y0176068D01*
X0049264Y0174828D01*
X0049399Y0174322D01*
X0049661Y0173868D01*
X0050032Y0173497D01*
X0050486Y0173235D01*
X0050992Y0173100D01*
X0052232Y0173100D01*
X0052232Y0176068D01*
X0053032Y0176068D01*
X0053032Y0173100D01*
X0054272Y0173100D01*
X0054779Y0173235D01*
X0055232Y0173497D01*
X0055603Y0173868D01*
X0055865Y0174322D01*
X0055969Y0174711D01*
X0055969Y0174183D01*
X0057252Y0172900D01*
X0061823Y0172900D01*
X0063106Y0174183D01*
X0063106Y0174468D01*
X0064257Y0174468D01*
X0066085Y0172640D01*
X0066085Y0167297D01*
X0064913Y0168468D01*
X0063106Y0168468D01*
X0063106Y0168753D01*
X0061823Y0170037D01*
X0057252Y0170037D01*
X0055969Y0168753D01*
X0055969Y0168226D01*
X0055865Y0168614D01*
X0055603Y0169068D01*
X0055232Y0169439D01*
X0054779Y0169701D01*
X0054272Y0169837D01*
X0053032Y0169837D01*
X0053032Y0166868D01*
X0052232Y0166868D01*
X0052232Y0166068D01*
X0049264Y0166068D01*
X0049264Y0164828D01*
X0049399Y0164322D01*
X0049661Y0163868D01*
X0050032Y0163497D01*
X0050486Y0163235D01*
X0050992Y0163100D01*
X0052232Y0163100D01*
X0052232Y0166068D01*
X0053032Y0166068D01*
X0053032Y0163100D01*
X0054272Y0163100D01*
X0054779Y0163235D01*
X0055232Y0163497D01*
X0055603Y0163868D01*
X0055865Y0164322D01*
X0055969Y0164711D01*
X0055969Y0164183D01*
X0057252Y0162900D01*
X0061823Y0162900D01*
X0063106Y0164183D01*
X0063106Y0164468D01*
X0063257Y0164468D01*
X0064085Y0163640D01*
X0064085Y0148297D01*
X0061538Y0150844D01*
X0061538Y0152900D01*
X0061823Y0152900D01*
X0063106Y0154183D01*
X0063106Y0158753D01*
X0061823Y0160037D01*
X0057252Y0160037D01*
X0055969Y0158753D01*
X0055969Y0158226D01*
X0055865Y0158614D01*
X0055603Y0159068D01*
X0055232Y0159439D01*
X0054779Y0159701D01*
X0054272Y0159837D01*
X0053032Y0159837D01*
X0053032Y0156868D01*
X0052232Y0156868D01*
X0052232Y0156068D01*
X0049264Y0156068D01*
X0049264Y0154828D01*
X0049399Y0154322D01*
X0049661Y0153868D01*
X0050032Y0153497D01*
X0050486Y0153235D01*
X0050992Y0153100D01*
X0052232Y0153100D01*
X0052232Y0156068D01*
X0053032Y0156068D01*
X0053032Y0153100D01*
X0054272Y0153100D01*
X0054779Y0153235D01*
X0055232Y0153497D01*
X0055603Y0153868D01*
X0055865Y0154322D01*
X0055969Y0154711D01*
X0055969Y0154183D01*
X0057252Y0152900D01*
X0057538Y0152900D01*
X0057538Y0149187D01*
X0064085Y0142640D01*
X0064085Y0121580D01*
X0063454Y0121580D01*
X0062517Y0120643D01*
X0062517Y0114987D01*
X0063035Y0114468D01*
X0062517Y0113950D01*
X0062517Y0108294D01*
X0063454Y0107356D01*
X0064085Y0107356D01*
X0064085Y0100376D01*
X0063083Y0099961D01*
X0061592Y0098470D01*
X0060964Y0096955D01*
X0060811Y0097426D01*
X0060447Y0098141D01*
X0059975Y0098791D01*
X0059407Y0099358D01*
X0058758Y0099830D01*
X0058043Y0100195D01*
X0057279Y0100443D01*
X0056486Y0100568D01*
X0056485Y0100568D01*
X0056485Y0095868D01*
X0055685Y0095868D01*
X0055685Y0100568D01*
X0055684Y0100568D01*
X0054891Y0100443D01*
X0054127Y0100195D01*
X0053412Y0099830D01*
X0052763Y0099358D01*
X0052195Y0098791D01*
X0051723Y0098141D01*
X0051359Y0097426D01*
X0051206Y0096955D01*
X0050578Y0098470D01*
X0049087Y0099961D01*
X0047139Y0100768D01*
X0045031Y0100768D01*
X0043083Y0099961D01*
X0041592Y0098470D01*
X0040785Y0096522D01*
X0040785Y0094414D01*
X0041592Y0092466D01*
X0043083Y0090975D01*
X0043285Y0090891D01*
X0043285Y0083452D01*
X0042346Y0083063D01*
X0040490Y0081207D01*
X0039485Y0078781D01*
X0039485Y0076155D01*
X0040490Y0073730D01*
X0042346Y0071873D01*
X0044772Y0070868D01*
X0042459Y0071827D02*
X0022685Y0071827D01*
X0022685Y0072625D02*
X0041594Y0072625D01*
X0040796Y0073424D02*
X0022685Y0073424D01*
X0022685Y0074222D02*
X0040286Y0074222D01*
X0039955Y0075021D02*
X0022685Y0075021D01*
X0022685Y0075819D02*
X0039624Y0075819D01*
X0039485Y0076618D02*
X0022685Y0076618D01*
X0022685Y0077416D02*
X0039485Y0077416D01*
X0039485Y0078215D02*
X0022685Y0078215D01*
X0022685Y0079013D02*
X0039581Y0079013D01*
X0039912Y0079812D02*
X0022685Y0079812D01*
X0022685Y0080610D02*
X0040243Y0080610D01*
X0040692Y0081409D02*
X0022685Y0081409D01*
X0022685Y0082207D02*
X0041490Y0082207D01*
X0042289Y0083006D02*
X0022685Y0083006D01*
X0022685Y0083804D02*
X0043285Y0083804D01*
X0043285Y0084603D02*
X0022685Y0084603D01*
X0022685Y0085401D02*
X0043285Y0085401D01*
X0043285Y0086200D02*
X0022685Y0086200D01*
X0022685Y0086998D02*
X0043285Y0086998D01*
X0043285Y0087797D02*
X0022685Y0087797D01*
X0022685Y0088595D02*
X0043285Y0088595D01*
X0043285Y0089394D02*
X0022685Y0089394D01*
X0022685Y0090192D02*
X0043285Y0090192D01*
X0043067Y0090991D02*
X0022685Y0090991D01*
X0022685Y0091789D02*
X0042269Y0091789D01*
X0041541Y0092588D02*
X0022685Y0092588D01*
X0022685Y0093386D02*
X0041211Y0093386D01*
X0040880Y0094185D02*
X0022685Y0094185D01*
X0022685Y0094983D02*
X0040785Y0094983D01*
X0040785Y0095782D02*
X0022685Y0095782D01*
X0022685Y0096580D02*
X0040809Y0096580D01*
X0041140Y0097379D02*
X0022685Y0097379D01*
X0022685Y0098177D02*
X0041471Y0098177D01*
X0042097Y0098976D02*
X0022685Y0098976D01*
X0022685Y0099774D02*
X0042896Y0099774D01*
X0044559Y0100573D02*
X0022685Y0100573D01*
X0022685Y0101371D02*
X0064085Y0101371D01*
X0064085Y0100573D02*
X0047611Y0100573D01*
X0049274Y0099774D02*
X0053335Y0099774D01*
X0052380Y0098976D02*
X0050073Y0098976D01*
X0050700Y0098177D02*
X0051749Y0098177D01*
X0051343Y0097379D02*
X0051030Y0097379D01*
X0050959Y0093386D02*
X0051422Y0093386D01*
X0051874Y0092588D02*
X0050629Y0092588D01*
X0049901Y0091789D02*
X0052551Y0091789D01*
X0053639Y0090991D02*
X0049103Y0090991D01*
X0048885Y0090192D02*
X0064973Y0090192D01*
X0063067Y0090991D02*
X0058531Y0090991D01*
X0059619Y0091789D02*
X0062269Y0091789D01*
X0061541Y0092588D02*
X0060296Y0092588D01*
X0060748Y0093386D02*
X0061211Y0093386D01*
X0061140Y0097379D02*
X0060827Y0097379D01*
X0060421Y0098177D02*
X0061471Y0098177D01*
X0062097Y0098976D02*
X0059790Y0098976D01*
X0058835Y0099774D02*
X0062896Y0099774D01*
X0064085Y0102170D02*
X0022685Y0102170D01*
X0022685Y0102968D02*
X0064085Y0102968D01*
X0064085Y0103767D02*
X0022685Y0103767D01*
X0022685Y0104565D02*
X0064085Y0104565D01*
X0064085Y0105364D02*
X0022685Y0105364D01*
X0022685Y0106162D02*
X0064085Y0106162D01*
X0064085Y0106961D02*
X0022685Y0106961D01*
X0022685Y0107760D02*
X0063051Y0107760D01*
X0062517Y0108558D02*
X0022685Y0108558D01*
X0022685Y0109357D02*
X0062517Y0109357D01*
X0062517Y0110155D02*
X0022685Y0110155D01*
X0022685Y0110954D02*
X0062517Y0110954D01*
X0062517Y0111752D02*
X0022685Y0111752D01*
X0022685Y0112551D02*
X0062517Y0112551D01*
X0062517Y0113349D02*
X0022685Y0113349D01*
X0022685Y0114148D02*
X0062714Y0114148D01*
X0062557Y0114946D02*
X0022685Y0114946D01*
X0022685Y0115745D02*
X0062517Y0115745D01*
X0062517Y0116543D02*
X0022685Y0116543D01*
X0022685Y0117342D02*
X0062517Y0117342D01*
X0062517Y0118140D02*
X0022685Y0118140D01*
X0022685Y0118939D02*
X0062517Y0118939D01*
X0062517Y0119737D02*
X0022685Y0119737D01*
X0022685Y0120536D02*
X0062517Y0120536D01*
X0063208Y0121334D02*
X0022685Y0121334D01*
X0022685Y0122133D02*
X0064085Y0122133D01*
X0064085Y0122931D02*
X0022685Y0122931D01*
X0022685Y0123730D02*
X0064085Y0123730D01*
X0064085Y0124528D02*
X0022685Y0124528D01*
X0022685Y0125327D02*
X0064085Y0125327D01*
X0064085Y0126125D02*
X0022685Y0126125D01*
X0022685Y0126924D02*
X0064085Y0126924D01*
X0064085Y0127722D02*
X0022685Y0127722D01*
X0022685Y0128521D02*
X0064085Y0128521D01*
X0064085Y0129319D02*
X0022685Y0129319D01*
X0022685Y0130118D02*
X0064085Y0130118D01*
X0064085Y0130916D02*
X0022685Y0130916D01*
X0022685Y0131715D02*
X0064085Y0131715D01*
X0064085Y0132513D02*
X0022685Y0132513D01*
X0022685Y0133312D02*
X0064085Y0133312D01*
X0064085Y0134110D02*
X0022685Y0134110D01*
X0022685Y0134909D02*
X0064085Y0134909D01*
X0064085Y0135707D02*
X0022685Y0135707D01*
X0022685Y0136506D02*
X0052279Y0136506D01*
X0052371Y0136468D02*
X0054399Y0136468D01*
X0056274Y0137245D01*
X0057709Y0138679D01*
X0058485Y0140554D01*
X0058485Y0142583D01*
X0057709Y0144457D01*
X0056274Y0145892D01*
X0054399Y0146668D01*
X0052371Y0146668D01*
X0050496Y0145892D01*
X0049061Y0144457D01*
X0048285Y0142583D01*
X0048285Y0140554D01*
X0049061Y0138679D01*
X0050496Y0137245D01*
X0052371Y0136468D01*
X0050436Y0137304D02*
X0022685Y0137304D01*
X0022685Y0138103D02*
X0049638Y0138103D01*
X0048969Y0138901D02*
X0022685Y0138901D01*
X0022685Y0139700D02*
X0048639Y0139700D01*
X0048308Y0140498D02*
X0022685Y0140498D01*
X0022685Y0141297D02*
X0048285Y0141297D01*
X0048285Y0142096D02*
X0022685Y0142096D01*
X0022685Y0142894D02*
X0048414Y0142894D01*
X0048745Y0143693D02*
X0022685Y0143693D01*
X0022685Y0144491D02*
X0049095Y0144491D01*
X0049894Y0145290D02*
X0022685Y0145290D01*
X0022685Y0146088D02*
X0050970Y0146088D01*
X0055800Y0146088D02*
X0060637Y0146088D01*
X0061435Y0145290D02*
X0056876Y0145290D01*
X0057675Y0144491D02*
X0062234Y0144491D01*
X0063032Y0143693D02*
X0058025Y0143693D01*
X0058356Y0142894D02*
X0063831Y0142894D01*
X0064085Y0142096D02*
X0058485Y0142096D01*
X0058485Y0141297D02*
X0064085Y0141297D01*
X0064085Y0140498D02*
X0058462Y0140498D01*
X0058131Y0139700D02*
X0064085Y0139700D01*
X0064085Y0138901D02*
X0057801Y0138901D01*
X0057132Y0138103D02*
X0064085Y0138103D01*
X0064085Y0137304D02*
X0056334Y0137304D01*
X0054491Y0136506D02*
X0064085Y0136506D01*
X0068085Y0136506D02*
X0073219Y0136506D01*
X0074017Y0135707D02*
X0068085Y0135707D01*
X0068085Y0134909D02*
X0074816Y0134909D01*
X0075614Y0134110D02*
X0068085Y0134110D01*
X0068085Y0133312D02*
X0076413Y0133312D01*
X0077211Y0132513D02*
X0068085Y0132513D01*
X0068085Y0131715D02*
X0070823Y0131715D01*
X0070517Y0131559D02*
X0071204Y0131909D01*
X0071938Y0132148D01*
X0072685Y0132266D01*
X0072685Y0127768D01*
X0072685Y0126968D01*
X0073485Y0126968D01*
X0073485Y0122470D01*
X0074232Y0122589D01*
X0074966Y0122827D01*
X0075653Y0123177D01*
X0076277Y0123631D01*
X0076823Y0124176D01*
X0077276Y0124800D01*
X0077626Y0125487D01*
X0077864Y0126221D01*
X0077983Y0126968D01*
X0073485Y0126968D01*
X0073485Y0127768D01*
X0077983Y0127768D01*
X0077864Y0128516D01*
X0077626Y0129249D01*
X0077276Y0129936D01*
X0076823Y0130560D01*
X0076277Y0131106D01*
X0075653Y0131559D01*
X0074966Y0131909D01*
X0074232Y0132148D01*
X0073485Y0132266D01*
X0073485Y0127768D01*
X0072685Y0127768D01*
X0068187Y0127768D01*
X0068306Y0128516D01*
X0068544Y0129249D01*
X0068894Y0129936D01*
X0069348Y0130560D01*
X0069893Y0131106D01*
X0070517Y0131559D01*
X0069704Y0130916D02*
X0068085Y0130916D01*
X0068085Y0130118D02*
X0069026Y0130118D01*
X0068580Y0129319D02*
X0068085Y0129319D01*
X0068085Y0128521D02*
X0068307Y0128521D01*
X0068085Y0127722D02*
X0072685Y0127722D01*
X0072685Y0126968D02*
X0068187Y0126968D01*
X0068306Y0126221D01*
X0068544Y0125487D01*
X0068894Y0124800D01*
X0069348Y0124176D01*
X0069893Y0123631D01*
X0070517Y0123177D01*
X0071204Y0122827D01*
X0071938Y0122589D01*
X0072685Y0122470D01*
X0072685Y0126968D01*
X0072685Y0126924D02*
X0073485Y0126924D01*
X0073485Y0127722D02*
X0082002Y0127722D01*
X0081204Y0128521D02*
X0077863Y0128521D01*
X0077590Y0129319D02*
X0080405Y0129319D01*
X0079607Y0130118D02*
X0077144Y0130118D01*
X0076467Y0130916D02*
X0078808Y0130916D01*
X0078010Y0131715D02*
X0075347Y0131715D01*
X0073485Y0131715D02*
X0072685Y0131715D01*
X0072685Y0130916D02*
X0073485Y0130916D01*
X0073485Y0130118D02*
X0072685Y0130118D01*
X0072685Y0129319D02*
X0073485Y0129319D01*
X0073485Y0128521D02*
X0072685Y0128521D01*
X0072685Y0126125D02*
X0073485Y0126125D01*
X0073485Y0125327D02*
X0072685Y0125327D01*
X0072685Y0124528D02*
X0073485Y0124528D01*
X0073485Y0123730D02*
X0072685Y0123730D01*
X0072685Y0122931D02*
X0073485Y0122931D01*
X0075170Y0122931D02*
X0086794Y0122931D01*
X0087592Y0122133D02*
X0068085Y0122133D01*
X0068085Y0122931D02*
X0071000Y0122931D01*
X0069794Y0123730D02*
X0068085Y0123730D01*
X0068085Y0124528D02*
X0069092Y0124528D01*
X0068626Y0125327D02*
X0068085Y0125327D01*
X0068085Y0126125D02*
X0068337Y0126125D01*
X0068194Y0126924D02*
X0068085Y0126924D01*
X0068962Y0121334D02*
X0088391Y0121334D01*
X0089189Y0120536D02*
X0069654Y0120536D01*
X0069654Y0119737D02*
X0089988Y0119737D01*
X0090786Y0118939D02*
X0069654Y0118939D01*
X0069654Y0118140D02*
X0091585Y0118140D01*
X0092383Y0117342D02*
X0069654Y0117342D01*
X0069654Y0116543D02*
X0093182Y0116543D01*
X0093980Y0115745D02*
X0069654Y0115745D01*
X0069613Y0114946D02*
X0094779Y0114946D01*
X0095577Y0114148D02*
X0069456Y0114148D01*
X0069654Y0113349D02*
X0096376Y0113349D01*
X0097174Y0112551D02*
X0069654Y0112551D01*
X0069654Y0111752D02*
X0097973Y0111752D01*
X0098085Y0110954D02*
X0069654Y0110954D01*
X0069654Y0110155D02*
X0098085Y0110155D01*
X0098085Y0109357D02*
X0069654Y0109357D01*
X0069654Y0108558D02*
X0098085Y0108558D01*
X0098085Y0107760D02*
X0069119Y0107760D01*
X0068085Y0106961D02*
X0098085Y0106961D01*
X0098085Y0106162D02*
X0068085Y0106162D01*
X0068085Y0105364D02*
X0098085Y0105364D01*
X0098085Y0104565D02*
X0068085Y0104565D01*
X0068085Y0103767D02*
X0098085Y0103767D01*
X0098085Y0102968D02*
X0068085Y0102968D01*
X0068085Y0102170D02*
X0098085Y0102170D01*
X0098085Y0101371D02*
X0068085Y0101371D01*
X0068085Y0100573D02*
X0098085Y0100573D01*
X0098085Y0099774D02*
X0069274Y0099774D01*
X0070073Y0098976D02*
X0098085Y0098976D01*
X0098085Y0098177D02*
X0070700Y0098177D01*
X0071030Y0097379D02*
X0098085Y0097379D01*
X0098085Y0096580D02*
X0071361Y0096580D01*
X0071385Y0095782D02*
X0098085Y0095782D01*
X0098085Y0094983D02*
X0071385Y0094983D01*
X0071290Y0094185D02*
X0098085Y0094185D01*
X0098085Y0093386D02*
X0070959Y0093386D01*
X0070629Y0092588D02*
X0098085Y0092588D01*
X0098085Y0091789D02*
X0069901Y0091789D01*
X0069103Y0090991D02*
X0098734Y0090991D01*
X0099257Y0090468D02*
X0099257Y0090468D01*
X0099533Y0090192D02*
X0067197Y0090192D01*
X0066085Y0095468D02*
X0066085Y0111122D01*
X0066085Y0117815D02*
X0066085Y0143468D01*
X0059538Y0150015D01*
X0059538Y0156468D01*
X0063106Y0156469D02*
X0064085Y0156469D01*
X0064085Y0157267D02*
X0063106Y0157267D01*
X0063106Y0158066D02*
X0064085Y0158066D01*
X0064085Y0158864D02*
X0062996Y0158864D01*
X0062197Y0159663D02*
X0064085Y0159663D01*
X0064085Y0160461D02*
X0022685Y0160461D01*
X0022685Y0159663D02*
X0050420Y0159663D01*
X0050486Y0159701D02*
X0050032Y0159439D01*
X0049661Y0159068D01*
X0049399Y0158614D01*
X0049264Y0158108D01*
X0049264Y0156868D01*
X0052232Y0156868D01*
X0052232Y0159837D01*
X0050992Y0159837D01*
X0050486Y0159701D01*
X0049544Y0158864D02*
X0022685Y0158864D01*
X0022685Y0158066D02*
X0049264Y0158066D01*
X0049264Y0157267D02*
X0022685Y0157267D01*
X0022685Y0156469D02*
X0052232Y0156469D01*
X0052232Y0157267D02*
X0053032Y0157267D01*
X0053032Y0158066D02*
X0052232Y0158066D01*
X0052232Y0158864D02*
X0053032Y0158864D01*
X0053032Y0159663D02*
X0052232Y0159663D01*
X0054845Y0159663D02*
X0056879Y0159663D01*
X0056080Y0158864D02*
X0055721Y0158864D01*
X0053032Y0155670D02*
X0052232Y0155670D01*
X0052232Y0154872D02*
X0053032Y0154872D01*
X0053032Y0154073D02*
X0052232Y0154073D01*
X0052232Y0153275D02*
X0053032Y0153275D01*
X0054847Y0153275D02*
X0056878Y0153275D01*
X0057538Y0152476D02*
X0022685Y0152476D01*
X0022685Y0151678D02*
X0057538Y0151678D01*
X0057538Y0150879D02*
X0022685Y0150879D01*
X0022685Y0150081D02*
X0057538Y0150081D01*
X0057538Y0149282D02*
X0022685Y0149282D01*
X0022685Y0148484D02*
X0058241Y0148484D01*
X0059040Y0147685D02*
X0022685Y0147685D01*
X0022685Y0146887D02*
X0059838Y0146887D01*
X0062301Y0150081D02*
X0064085Y0150081D01*
X0064085Y0150879D02*
X0061538Y0150879D01*
X0061538Y0151678D02*
X0064085Y0151678D01*
X0064085Y0152476D02*
X0061538Y0152476D01*
X0062198Y0153275D02*
X0064085Y0153275D01*
X0064085Y0154073D02*
X0062997Y0154073D01*
X0063106Y0154872D02*
X0064085Y0154872D01*
X0064085Y0155670D02*
X0063106Y0155670D01*
X0064085Y0161260D02*
X0022685Y0161260D01*
X0022685Y0162058D02*
X0064085Y0162058D01*
X0064085Y0162857D02*
X0022685Y0162857D01*
X0022685Y0163655D02*
X0049874Y0163655D01*
X0049364Y0164454D02*
X0022685Y0164454D01*
X0022685Y0165252D02*
X0049264Y0165252D01*
X0049264Y0166051D02*
X0022685Y0166051D01*
X0022685Y0166849D02*
X0052232Y0166849D01*
X0052232Y0166868D02*
X0049264Y0166868D01*
X0049264Y0168108D01*
X0049399Y0168614D01*
X0049661Y0169068D01*
X0050032Y0169439D01*
X0050486Y0169701D01*
X0050992Y0169837D01*
X0052232Y0169837D01*
X0052232Y0166868D01*
X0052232Y0167648D02*
X0053032Y0167648D01*
X0053032Y0168446D02*
X0052232Y0168446D01*
X0052232Y0169245D02*
X0053032Y0169245D01*
X0055427Y0169245D02*
X0056461Y0169245D01*
X0055969Y0168446D02*
X0055910Y0168446D01*
X0053032Y0166051D02*
X0052232Y0166051D01*
X0052232Y0165252D02*
X0053032Y0165252D01*
X0053032Y0164454D02*
X0052232Y0164454D01*
X0052232Y0163655D02*
X0053032Y0163655D01*
X0055390Y0163655D02*
X0056497Y0163655D01*
X0055969Y0164454D02*
X0055900Y0164454D01*
X0059538Y0166468D02*
X0064085Y0166468D01*
X0066085Y0164468D01*
X0066085Y0146468D01*
X0100085Y0112468D01*
X0100085Y0092468D01*
X0105085Y0087468D01*
X0113739Y0087468D01*
X0109973Y0085401D02*
X0048885Y0085401D01*
X0048885Y0084603D02*
X0110207Y0084603D01*
X0110066Y0090192D02*
X0105189Y0090192D01*
X0104391Y0090991D02*
X0110865Y0090991D01*
X0110625Y0094185D02*
X0102085Y0094185D01*
X0102085Y0094983D02*
X0109973Y0094983D01*
X0113739Y0097468D02*
X0105085Y0097468D01*
X0102085Y0100468D01*
X0102085Y0113468D01*
X0068085Y0147468D01*
X0068085Y0173468D01*
X0065085Y0176468D01*
X0059538Y0176468D01*
X0062234Y0179626D02*
X0068085Y0179626D01*
X0068085Y0180424D02*
X0022685Y0180424D01*
X0022685Y0179626D02*
X0050355Y0179626D01*
X0050486Y0179701D02*
X0050032Y0179439D01*
X0049661Y0179068D01*
X0049399Y0178614D01*
X0049264Y0178108D01*
X0049264Y0176868D01*
X0052232Y0176868D01*
X0052232Y0179837D01*
X0050992Y0179837D01*
X0050486Y0179701D01*
X0049522Y0178827D02*
X0022685Y0178827D01*
X0022685Y0178029D02*
X0049264Y0178029D01*
X0049264Y0177230D02*
X0022685Y0177230D01*
X0022685Y0176431D02*
X0052232Y0176431D01*
X0052232Y0175633D02*
X0053032Y0175633D01*
X0053032Y0174834D02*
X0052232Y0174834D01*
X0052232Y0174036D02*
X0053032Y0174036D01*
X0053032Y0173237D02*
X0052232Y0173237D01*
X0050482Y0173237D02*
X0022685Y0173237D01*
X0022685Y0172439D02*
X0066085Y0172439D01*
X0066085Y0171640D02*
X0022685Y0171640D01*
X0022685Y0170842D02*
X0066085Y0170842D01*
X0066085Y0170043D02*
X0022685Y0170043D01*
X0022685Y0169245D02*
X0049838Y0169245D01*
X0049354Y0168446D02*
X0022685Y0168446D01*
X0022685Y0167648D02*
X0049264Y0167648D01*
X0049565Y0174036D02*
X0022685Y0174036D01*
X0022685Y0174834D02*
X0049264Y0174834D01*
X0049264Y0175633D02*
X0022685Y0175633D01*
X0022685Y0181223D02*
X0068085Y0181223D01*
X0067704Y0182021D02*
X0022685Y0182021D01*
X0022685Y0182820D02*
X0066905Y0182820D01*
X0066107Y0183618D02*
X0062541Y0183618D01*
X0063106Y0184417D02*
X0065308Y0184417D01*
X0066085Y0186468D02*
X0059538Y0186468D01*
X0055969Y0188409D02*
X0055920Y0188409D01*
X0055464Y0189208D02*
X0056423Y0189208D01*
X0057222Y0190006D02*
X0022685Y0190006D01*
X0022685Y0189208D02*
X0049801Y0189208D01*
X0049661Y0189068D02*
X0049399Y0188614D01*
X0049264Y0188108D01*
X0049264Y0186868D01*
X0052232Y0186868D01*
X0052232Y0189837D01*
X0050992Y0189837D01*
X0050486Y0189701D01*
X0050032Y0189439D01*
X0049661Y0189068D01*
X0049344Y0188409D02*
X0022685Y0188409D01*
X0022685Y0187611D02*
X0049264Y0187611D01*
X0049264Y0186014D02*
X0022685Y0186014D01*
X0022685Y0186812D02*
X0052232Y0186812D01*
X0052232Y0186014D02*
X0053032Y0186014D01*
X0053032Y0185215D02*
X0052232Y0185215D01*
X0052232Y0184417D02*
X0053032Y0184417D01*
X0053032Y0183618D02*
X0052232Y0183618D01*
X0049911Y0183618D02*
X0022685Y0183618D01*
X0022685Y0184417D02*
X0049374Y0184417D01*
X0049264Y0185215D02*
X0022685Y0185215D01*
X0022685Y0190805D02*
X0070085Y0190805D01*
X0070085Y0191603D02*
X0022685Y0191603D01*
X0022685Y0192402D02*
X0069323Y0192402D01*
X0068525Y0193200D02*
X0062124Y0193200D01*
X0062922Y0193999D02*
X0067726Y0193999D01*
X0068085Y0196468D02*
X0059538Y0196468D01*
X0062271Y0199588D02*
X0072085Y0199588D01*
X0072085Y0198790D02*
X0063070Y0198790D01*
X0062504Y0203581D02*
X0070144Y0203581D01*
X0069345Y0204379D02*
X0063106Y0204379D01*
X0059538Y0206468D02*
X0070085Y0206468D01*
X0074085Y0202468D01*
X0074085Y0150468D01*
X0097085Y0127468D01*
X0113739Y0127468D01*
X0109973Y0125327D02*
X0099055Y0125327D01*
X0099853Y0124528D02*
X0110282Y0124528D01*
X0110409Y0120536D02*
X0103846Y0120536D01*
X0103047Y0121334D02*
X0132304Y0121334D01*
X0131506Y0120536D02*
X0123761Y0120536D01*
X0124197Y0119737D02*
X0130938Y0119737D01*
X0132177Y0123730D02*
X0100652Y0123730D01*
X0101450Y0122931D02*
X0133757Y0122931D01*
X0134065Y0122133D02*
X0102249Y0122133D01*
X0104644Y0119737D02*
X0109973Y0119737D01*
X0113739Y0117468D02*
X0104085Y0117468D01*
X0072085Y0149468D01*
X0072085Y0192468D01*
X0068085Y0196468D01*
X0069390Y0197991D02*
X0072085Y0197991D01*
X0072085Y0197193D02*
X0070189Y0197193D01*
X0070987Y0196394D02*
X0072085Y0196394D01*
X0072085Y0195596D02*
X0071786Y0195596D01*
X0072085Y0200387D02*
X0043650Y0200387D01*
X0044070Y0200806D02*
X0042747Y0199484D01*
X0041020Y0198768D01*
X0039150Y0198768D01*
X0037423Y0199484D01*
X0036101Y0200806D01*
X0035385Y0202533D01*
X0035385Y0204403D01*
X0036101Y0206131D01*
X0037423Y0207453D01*
X0039150Y0208168D01*
X0041020Y0208168D01*
X0042747Y0207453D01*
X0044070Y0206131D01*
X0044785Y0204403D01*
X0044785Y0202533D01*
X0044070Y0200806D01*
X0044227Y0201185D02*
X0072085Y0201185D01*
X0071741Y0201984D02*
X0044557Y0201984D01*
X0044785Y0202782D02*
X0070942Y0202782D01*
X0073405Y0205976D02*
X0116037Y0205976D01*
X0116101Y0206131D02*
X0115385Y0204403D01*
X0115385Y0202533D01*
X0116101Y0200806D01*
X0117423Y0199484D01*
X0119150Y0198768D01*
X0121020Y0198768D01*
X0122747Y0199484D01*
X0124070Y0200806D01*
X0124785Y0202533D01*
X0124785Y0204403D01*
X0124070Y0206131D01*
X0122747Y0207453D01*
X0121020Y0208168D01*
X0119150Y0208168D01*
X0117423Y0207453D01*
X0116101Y0206131D01*
X0116745Y0206775D02*
X0072607Y0206775D01*
X0071808Y0207573D02*
X0117714Y0207573D01*
X0118179Y0209170D02*
X0062689Y0209170D01*
X0061891Y0209969D02*
X0116937Y0209969D01*
X0117423Y0209484D02*
X0119150Y0208768D01*
X0121020Y0208768D01*
X0122747Y0209484D01*
X0124070Y0210806D01*
X0124785Y0212533D01*
X0124785Y0214403D01*
X0124070Y0216131D01*
X0122747Y0217453D01*
X0121020Y0218168D01*
X0119150Y0218168D01*
X0117423Y0217453D01*
X0116101Y0216131D01*
X0115385Y0214403D01*
X0115385Y0212533D01*
X0116101Y0210806D01*
X0117423Y0209484D01*
X0116139Y0210767D02*
X0044031Y0210767D01*
X0044070Y0210806D02*
X0044785Y0212533D01*
X0044785Y0214403D01*
X0044070Y0216131D01*
X0042747Y0217453D01*
X0041020Y0218168D01*
X0039150Y0218168D01*
X0037423Y0217453D01*
X0036101Y0216131D01*
X0035385Y0214403D01*
X0035385Y0212533D01*
X0036101Y0210806D01*
X0037423Y0209484D01*
X0039150Y0208768D01*
X0041020Y0208768D01*
X0042747Y0209484D01*
X0044070Y0210806D01*
X0044384Y0211566D02*
X0115786Y0211566D01*
X0115455Y0212365D02*
X0044715Y0212365D01*
X0044785Y0213163D02*
X0115385Y0213163D01*
X0115385Y0213962D02*
X0044785Y0213962D01*
X0044637Y0214760D02*
X0115533Y0214760D01*
X0115864Y0215559D02*
X0044306Y0215559D01*
X0043843Y0216357D02*
X0116327Y0216357D01*
X0117126Y0217156D02*
X0043044Y0217156D01*
X0041537Y0217954D02*
X0118633Y0217954D01*
X0119031Y0219079D02*
X0119685Y0218975D01*
X0119685Y0223068D01*
X0120485Y0223068D01*
X0120485Y0218975D01*
X0121139Y0219079D01*
X0121812Y0219298D01*
X0122444Y0219619D01*
X0123017Y0220036D01*
X0123517Y0220537D01*
X0123934Y0221110D01*
X0124255Y0221741D01*
X0124474Y0222414D01*
X0124578Y0223068D01*
X0120485Y0223068D01*
X0120485Y0223868D01*
X0124578Y0223868D01*
X0124474Y0224522D01*
X0124255Y0225196D01*
X0123971Y0225754D01*
X0125085Y0224640D01*
X0125085Y0211536D01*
X0125046Y0211520D01*
X0124033Y0210507D01*
X0123485Y0209184D01*
X0123485Y0207752D01*
X0124033Y0206429D01*
X0125046Y0205416D01*
X0126369Y0204868D01*
X0127801Y0204868D01*
X0129124Y0205416D01*
X0130137Y0206429D01*
X0130685Y0207752D01*
X0130685Y0209184D01*
X0130137Y0210507D01*
X0129124Y0211520D01*
X0129085Y0211536D01*
X0129085Y0215640D01*
X0133085Y0211640D01*
X0133085Y0191727D01*
X0132423Y0191453D01*
X0131101Y0190131D01*
X0130385Y0188403D01*
X0130385Y0186533D01*
X0131101Y0184806D01*
X0132423Y0183484D01*
X0134150Y0182768D01*
X0136020Y0182768D01*
X0137747Y0183484D01*
X0139070Y0184806D01*
X0139785Y0186533D01*
X0139785Y0188403D01*
X0139070Y0190131D01*
X0137747Y0191453D01*
X0137085Y0191727D01*
X0137085Y0211640D01*
X0138330Y0212884D01*
X0138369Y0212868D01*
X0139801Y0212868D01*
X0141124Y0213416D01*
X0142137Y0214429D01*
X0142685Y0215752D01*
X0142685Y0217184D01*
X0142137Y0218507D01*
X0141124Y0219520D01*
X0139801Y0220068D01*
X0138369Y0220068D01*
X0137046Y0219520D01*
X0136033Y0218507D01*
X0135485Y0217184D01*
X0135485Y0215752D01*
X0135501Y0215713D01*
X0135085Y0215297D01*
X0131085Y0219297D01*
X0131085Y0236297D01*
X0128085Y0239297D01*
X0126913Y0240468D01*
X0123732Y0240468D01*
X0124070Y0240806D01*
X0124785Y0242533D01*
X0124785Y0244403D01*
X0124070Y0246131D01*
X0122747Y0247453D01*
X0121020Y0248168D01*
X0119150Y0248168D01*
X0117423Y0247453D01*
X0116101Y0246131D01*
X0115385Y0244403D01*
X0115385Y0242533D01*
X0116101Y0240806D01*
X0116438Y0240468D01*
X0104153Y0240468D01*
X0104137Y0240507D01*
X0103124Y0241520D01*
X0101801Y0242068D01*
X0100369Y0242068D01*
X0099046Y0241520D01*
X0098033Y0240507D01*
X0097485Y0239184D01*
X0097485Y0237752D01*
X0098033Y0236429D01*
X0099046Y0235416D01*
X0100369Y0234868D01*
X0101801Y0234868D01*
X0103124Y0235416D01*
X0104137Y0236429D01*
X0104153Y0236468D01*
X0116438Y0236468D01*
X0116101Y0236131D01*
X0115385Y0234403D01*
X0115385Y0232533D01*
X0116101Y0230806D01*
X0116438Y0230468D01*
X0104153Y0230468D01*
X0104137Y0230507D01*
X0103124Y0231520D01*
X0101801Y0232068D01*
X0100369Y0232068D01*
X0099046Y0231520D01*
X0098033Y0230507D01*
X0097485Y0229184D01*
X0097485Y0227752D01*
X0098033Y0226429D01*
X0099046Y0225416D01*
X0100369Y0224868D01*
X0101801Y0224868D01*
X0103124Y0225416D01*
X0104137Y0226429D01*
X0104153Y0226468D01*
X0116721Y0226468D01*
X0116653Y0226400D01*
X0116236Y0225827D01*
X0115915Y0225196D01*
X0115696Y0224522D01*
X0115592Y0223868D01*
X0119685Y0223868D01*
X0119685Y0223068D01*
X0115592Y0223068D01*
X0115696Y0222414D01*
X0115915Y0221741D01*
X0116236Y0221110D01*
X0116653Y0220537D01*
X0117153Y0220036D01*
X0117727Y0219619D01*
X0118358Y0219298D01*
X0119031Y0219079D01*
X0119685Y0219551D02*
X0120485Y0219551D01*
X0120485Y0220350D02*
X0119685Y0220350D01*
X0119685Y0221148D02*
X0120485Y0221148D01*
X0120485Y0221947D02*
X0119685Y0221947D01*
X0119685Y0222745D02*
X0120485Y0222745D01*
X0120485Y0223544D02*
X0125085Y0223544D01*
X0125085Y0224342D02*
X0124503Y0224342D01*
X0124584Y0225141D02*
X0124273Y0225141D01*
X0124527Y0222745D02*
X0125085Y0222745D01*
X0125085Y0221947D02*
X0124322Y0221947D01*
X0123953Y0221148D02*
X0125085Y0221148D01*
X0125085Y0220350D02*
X0123330Y0220350D01*
X0122309Y0219551D02*
X0125085Y0219551D01*
X0125085Y0218753D02*
X0022685Y0218753D01*
X0022685Y0219551D02*
X0037355Y0219551D01*
X0037423Y0219484D02*
X0039150Y0218768D01*
X0041020Y0218768D01*
X0042747Y0219484D01*
X0044070Y0220806D01*
X0044785Y0222533D01*
X0044785Y0224403D01*
X0044070Y0226131D01*
X0042747Y0227453D01*
X0041020Y0228168D01*
X0039150Y0228168D01*
X0037423Y0227453D01*
X0036101Y0226131D01*
X0035385Y0224403D01*
X0035385Y0222533D01*
X0036101Y0220806D01*
X0037423Y0219484D01*
X0036557Y0220350D02*
X0022685Y0220350D01*
X0022685Y0221148D02*
X0035959Y0221148D01*
X0035628Y0221947D02*
X0022685Y0221947D01*
X0022685Y0222745D02*
X0035385Y0222745D01*
X0035385Y0223544D02*
X0022685Y0223544D01*
X0022685Y0224342D02*
X0035385Y0224342D01*
X0035691Y0225141D02*
X0022685Y0225141D01*
X0022685Y0225939D02*
X0036021Y0225939D01*
X0036708Y0226738D02*
X0022685Y0226738D01*
X0022685Y0227536D02*
X0037624Y0227536D01*
X0038269Y0229133D02*
X0022685Y0229133D01*
X0022685Y0228335D02*
X0097485Y0228335D01*
X0097485Y0229133D02*
X0041901Y0229133D01*
X0042747Y0229484D02*
X0044070Y0230806D01*
X0044785Y0232533D01*
X0044785Y0234403D01*
X0044070Y0236131D01*
X0042747Y0237453D01*
X0041020Y0238168D01*
X0039150Y0238168D01*
X0037423Y0237453D01*
X0036101Y0236131D01*
X0035385Y0234403D01*
X0035385Y0232533D01*
X0036101Y0230806D01*
X0037423Y0229484D01*
X0039150Y0228768D01*
X0041020Y0228768D01*
X0042747Y0229484D01*
X0043195Y0229932D02*
X0097795Y0229932D01*
X0098256Y0230730D02*
X0043994Y0230730D01*
X0044369Y0231529D02*
X0099067Y0231529D01*
X0101085Y0228468D02*
X0124085Y0228468D01*
X0127085Y0225468D01*
X0127085Y0208468D01*
X0124486Y0205976D02*
X0124133Y0205976D01*
X0123890Y0206775D02*
X0123425Y0206775D01*
X0123559Y0207573D02*
X0122456Y0207573D01*
X0123485Y0208372D02*
X0071010Y0208372D01*
X0074204Y0205178D02*
X0115706Y0205178D01*
X0115385Y0204379D02*
X0075002Y0204379D01*
X0075801Y0203581D02*
X0098192Y0203581D01*
X0098046Y0203520D02*
X0097033Y0202507D01*
X0096485Y0201184D01*
X0096485Y0199752D01*
X0097033Y0198429D01*
X0098046Y0197416D01*
X0099369Y0196868D01*
X0100801Y0196868D01*
X0102124Y0197416D01*
X0103137Y0198429D01*
X0103153Y0198468D01*
X0110257Y0198468D01*
X0116257Y0192468D01*
X0118017Y0192468D01*
X0118033Y0192429D01*
X0119046Y0191416D01*
X0120369Y0190868D01*
X0121801Y0190868D01*
X0123124Y0191416D01*
X0124137Y0192429D01*
X0124685Y0193752D01*
X0124685Y0195184D01*
X0124137Y0196507D01*
X0123124Y0197520D01*
X0121801Y0198068D01*
X0120369Y0198068D01*
X0119046Y0197520D01*
X0118033Y0196507D01*
X0118017Y0196468D01*
X0117913Y0196468D01*
X0113085Y0201297D01*
X0111913Y0202468D01*
X0103153Y0202468D01*
X0103137Y0202507D01*
X0102124Y0203520D01*
X0100801Y0204068D01*
X0099369Y0204068D01*
X0098046Y0203520D01*
X0097308Y0202782D02*
X0076085Y0202782D01*
X0076085Y0201984D02*
X0096816Y0201984D01*
X0096485Y0201185D02*
X0076085Y0201185D01*
X0076085Y0200387D02*
X0096485Y0200387D01*
X0096553Y0199588D02*
X0076085Y0199588D01*
X0076085Y0198790D02*
X0096884Y0198790D01*
X0097471Y0197991D02*
X0076085Y0197991D01*
X0076085Y0197193D02*
X0098585Y0197193D01*
X0101585Y0197193D02*
X0111532Y0197193D01*
X0110734Y0197991D02*
X0102699Y0197991D01*
X0100085Y0200468D02*
X0111085Y0200468D01*
X0117085Y0194468D01*
X0121085Y0194468D01*
X0118718Y0197193D02*
X0117189Y0197193D01*
X0116390Y0197991D02*
X0120183Y0197991D01*
X0121072Y0198790D02*
X0133085Y0198790D01*
X0133085Y0199588D02*
X0122852Y0199588D01*
X0123650Y0200387D02*
X0133085Y0200387D01*
X0133085Y0201185D02*
X0124227Y0201185D01*
X0124557Y0201984D02*
X0133085Y0201984D01*
X0133085Y0202782D02*
X0124785Y0202782D01*
X0124785Y0203581D02*
X0133085Y0203581D01*
X0133085Y0204379D02*
X0124785Y0204379D01*
X0124464Y0205178D02*
X0125621Y0205178D01*
X0128549Y0205178D02*
X0133085Y0205178D01*
X0133085Y0205976D02*
X0129684Y0205976D01*
X0130280Y0206775D02*
X0133085Y0206775D01*
X0133085Y0207573D02*
X0130611Y0207573D01*
X0130685Y0208372D02*
X0133085Y0208372D01*
X0133085Y0209170D02*
X0130685Y0209170D01*
X0130360Y0209969D02*
X0133085Y0209969D01*
X0133085Y0210767D02*
X0129877Y0210767D01*
X0129085Y0211566D02*
X0133085Y0211566D01*
X0132360Y0212365D02*
X0129085Y0212365D01*
X0129085Y0213163D02*
X0131562Y0213163D01*
X0130763Y0213962D02*
X0129085Y0213962D01*
X0129085Y0214760D02*
X0129965Y0214760D01*
X0129166Y0215559D02*
X0129085Y0215559D01*
X0129085Y0218468D02*
X0129085Y0235468D01*
X0126085Y0238468D01*
X0101085Y0238468D01*
X0097748Y0237118D02*
X0043082Y0237118D01*
X0043880Y0236320D02*
X0098142Y0236320D01*
X0098941Y0235521D02*
X0044322Y0235521D01*
X0044653Y0234723D02*
X0115517Y0234723D01*
X0115385Y0233924D02*
X0044785Y0233924D01*
X0044785Y0233126D02*
X0115385Y0233126D01*
X0115470Y0232327D02*
X0044700Y0232327D01*
X0042546Y0227536D02*
X0097574Y0227536D01*
X0097905Y0226738D02*
X0043462Y0226738D01*
X0044149Y0225939D02*
X0098523Y0225939D01*
X0099711Y0225141D02*
X0044480Y0225141D01*
X0044785Y0224342D02*
X0115667Y0224342D01*
X0115897Y0225141D02*
X0102459Y0225141D01*
X0103647Y0225939D02*
X0116318Y0225939D01*
X0115643Y0222745D02*
X0044785Y0222745D01*
X0044785Y0223544D02*
X0119685Y0223544D01*
X0116840Y0220350D02*
X0043613Y0220350D01*
X0044211Y0221148D02*
X0116217Y0221148D01*
X0115848Y0221947D02*
X0044542Y0221947D01*
X0042815Y0219551D02*
X0117861Y0219551D01*
X0121537Y0217954D02*
X0125085Y0217954D01*
X0125085Y0217156D02*
X0123044Y0217156D01*
X0123843Y0216357D02*
X0125085Y0216357D01*
X0125085Y0215559D02*
X0124306Y0215559D01*
X0124637Y0214760D02*
X0125085Y0214760D01*
X0125085Y0213962D02*
X0124785Y0213962D01*
X0124785Y0213163D02*
X0125085Y0213163D01*
X0125085Y0212365D02*
X0124715Y0212365D01*
X0124384Y0211566D02*
X0125085Y0211566D01*
X0124293Y0210767D02*
X0124031Y0210767D01*
X0123810Y0209969D02*
X0123233Y0209969D01*
X0123485Y0209170D02*
X0121991Y0209170D01*
X0115385Y0203581D02*
X0101978Y0203581D01*
X0102862Y0202782D02*
X0115385Y0202782D01*
X0115613Y0201984D02*
X0112398Y0201984D01*
X0113196Y0201185D02*
X0115943Y0201185D01*
X0116520Y0200387D02*
X0113995Y0200387D01*
X0114793Y0199588D02*
X0117318Y0199588D01*
X0115592Y0198790D02*
X0119098Y0198790D01*
X0121987Y0197991D02*
X0133085Y0197991D01*
X0133085Y0197193D02*
X0123452Y0197193D01*
X0124184Y0196394D02*
X0133085Y0196394D01*
X0133085Y0195596D02*
X0124515Y0195596D01*
X0124685Y0194797D02*
X0133085Y0194797D01*
X0133085Y0193999D02*
X0124685Y0193999D01*
X0124456Y0193200D02*
X0133085Y0193200D01*
X0133085Y0192402D02*
X0124110Y0192402D01*
X0123311Y0191603D02*
X0132786Y0191603D01*
X0131775Y0190805D02*
X0110685Y0190805D01*
X0110685Y0191603D02*
X0118859Y0191603D01*
X0118060Y0192402D02*
X0110685Y0192402D01*
X0110685Y0193200D02*
X0115525Y0193200D01*
X0114726Y0193999D02*
X0110685Y0193999D01*
X0110685Y0194131D02*
X0109748Y0195068D01*
X0078422Y0195068D01*
X0077485Y0194131D01*
X0077485Y0183905D01*
X0078422Y0182968D01*
X0109748Y0182968D01*
X0110685Y0183905D01*
X0110685Y0194131D01*
X0110019Y0194797D02*
X0113928Y0194797D01*
X0113129Y0195596D02*
X0076085Y0195596D01*
X0076085Y0196394D02*
X0112331Y0196394D01*
X0110685Y0190006D02*
X0131049Y0190006D01*
X0130718Y0189208D02*
X0110685Y0189208D01*
X0110685Y0188409D02*
X0130388Y0188409D01*
X0130385Y0187611D02*
X0110685Y0187611D01*
X0110685Y0186812D02*
X0130385Y0186812D01*
X0130600Y0186014D02*
X0110685Y0186014D01*
X0110685Y0185215D02*
X0130931Y0185215D01*
X0131490Y0184417D02*
X0110685Y0184417D01*
X0110398Y0183618D02*
X0132288Y0183618D01*
X0134026Y0182820D02*
X0076085Y0182820D01*
X0076085Y0183618D02*
X0077772Y0183618D01*
X0077485Y0184417D02*
X0076085Y0184417D01*
X0076085Y0185215D02*
X0077485Y0185215D01*
X0077485Y0186014D02*
X0076085Y0186014D01*
X0076085Y0186812D02*
X0077485Y0186812D01*
X0077485Y0187611D02*
X0076085Y0187611D01*
X0076085Y0188409D02*
X0077485Y0188409D01*
X0077485Y0189208D02*
X0076085Y0189208D01*
X0076085Y0190006D02*
X0077485Y0190006D01*
X0077485Y0190805D02*
X0076085Y0190805D01*
X0076085Y0191603D02*
X0077485Y0191603D01*
X0077485Y0192402D02*
X0076085Y0192402D01*
X0076085Y0193200D02*
X0077485Y0193200D01*
X0077485Y0193999D02*
X0076085Y0193999D01*
X0076085Y0194797D02*
X0078151Y0194797D01*
X0070085Y0190006D02*
X0061854Y0190006D01*
X0062652Y0189208D02*
X0070085Y0189208D01*
X0070085Y0188409D02*
X0066972Y0188409D01*
X0067771Y0187611D02*
X0070085Y0187611D01*
X0070085Y0186812D02*
X0068570Y0186812D01*
X0069368Y0186014D02*
X0070085Y0186014D01*
X0070085Y0182468D02*
X0066085Y0186468D01*
X0070085Y0182468D02*
X0070085Y0148468D01*
X0104085Y0114468D01*
X0104085Y0110468D01*
X0107085Y0107468D01*
X0113739Y0107468D01*
X0109973Y0105364D02*
X0104085Y0105364D01*
X0104085Y0106162D02*
X0105562Y0106162D01*
X0104764Y0106961D02*
X0104085Y0106961D01*
X0104085Y0104565D02*
X0110245Y0104565D01*
X0110447Y0100573D02*
X0104809Y0100573D01*
X0104085Y0101371D02*
X0132341Y0101371D01*
X0131543Y0100573D02*
X0123723Y0100573D01*
X0124197Y0099774D02*
X0130953Y0099774D01*
X0132139Y0103767D02*
X0104085Y0103767D01*
X0104085Y0102968D02*
X0133667Y0102968D01*
X0131341Y0104565D02*
X0123925Y0104565D01*
X0124197Y0105364D02*
X0130869Y0105364D01*
X0135085Y0107468D02*
X0120431Y0107468D01*
X0117520Y0110954D02*
X0116650Y0110954D01*
X0116815Y0114148D02*
X0117355Y0114148D01*
X0120431Y0117468D02*
X0135085Y0117468D01*
X0131759Y0114148D02*
X0123508Y0114148D01*
X0124197Y0114946D02*
X0131042Y0114946D01*
X0132748Y0113349D02*
X0106085Y0113349D01*
X0106085Y0112551D02*
X0144517Y0112551D01*
X0144517Y0113349D02*
X0137422Y0113349D01*
X0138411Y0114148D02*
X0145021Y0114148D01*
X0146085Y0114946D02*
X0139128Y0114946D01*
X0139458Y0115745D02*
X0146085Y0115745D01*
X0146085Y0116543D02*
X0139785Y0116543D01*
X0139785Y0117342D02*
X0146085Y0117342D01*
X0146085Y0118140D02*
X0139785Y0118140D01*
X0139563Y0118939D02*
X0146485Y0118939D01*
X0146485Y0119737D02*
X0139232Y0119737D01*
X0138664Y0120536D02*
X0146631Y0120536D01*
X0146961Y0121334D02*
X0137866Y0121334D01*
X0136106Y0122133D02*
X0147658Y0122133D01*
X0149038Y0122931D02*
X0136414Y0122931D01*
X0137993Y0123730D02*
X0154080Y0123730D01*
X0153517Y0124528D02*
X0138792Y0124528D01*
X0139285Y0125327D02*
X0153517Y0125327D01*
X0153517Y0126125D02*
X0139616Y0126125D01*
X0139785Y0126924D02*
X0153517Y0126924D01*
X0153517Y0127722D02*
X0139785Y0127722D01*
X0139736Y0128521D02*
X0153517Y0128521D01*
X0153517Y0129319D02*
X0139406Y0129319D01*
X0139075Y0130118D02*
X0153685Y0130118D01*
X0153587Y0130916D02*
X0138284Y0130916D01*
X0137114Y0131715D02*
X0153517Y0131715D01*
X0153517Y0132513D02*
X0147959Y0132513D01*
X0148757Y0133312D02*
X0153517Y0133312D01*
X0153517Y0134110D02*
X0149556Y0134110D01*
X0150354Y0134909D02*
X0153517Y0134909D01*
X0153517Y0135707D02*
X0151153Y0135707D01*
X0151951Y0136506D02*
X0153517Y0136506D01*
X0154178Y0137304D02*
X0152750Y0137304D01*
X0153548Y0138103D02*
X0157891Y0138103D01*
X0158690Y0138901D02*
X0154347Y0138901D01*
X0155145Y0139700D02*
X0159488Y0139700D01*
X0160287Y0140498D02*
X0155944Y0140498D01*
X0156742Y0141297D02*
X0161085Y0141297D01*
X0161884Y0142096D02*
X0157541Y0142096D01*
X0158339Y0142894D02*
X0162682Y0142894D01*
X0163481Y0143693D02*
X0159138Y0143693D01*
X0159936Y0144491D02*
X0163485Y0144491D01*
X0163529Y0145290D02*
X0160735Y0145290D01*
X0161533Y0146088D02*
X0163859Y0146088D01*
X0164412Y0146887D02*
X0162332Y0146887D01*
X0163130Y0147685D02*
X0165444Y0147685D01*
X0163929Y0148484D02*
X0168272Y0148484D01*
X0169416Y0146799D02*
X0175085Y0146799D01*
X0174216Y0143427D02*
X0173085Y0142297D01*
X0173085Y0141703D01*
X0171732Y0141703D01*
X0171732Y0138919D01*
X0170957Y0138919D01*
X0170957Y0141703D01*
X0169586Y0141703D01*
X0169347Y0141639D01*
X0170137Y0142429D01*
X0170685Y0143752D01*
X0170685Y0144799D01*
X0171910Y0144799D01*
X0171910Y0144365D01*
X0172847Y0143427D01*
X0174216Y0143427D01*
X0173682Y0142894D02*
X0170330Y0142894D01*
X0170660Y0143693D02*
X0172582Y0143693D01*
X0171910Y0144491D02*
X0170685Y0144491D01*
X0169085Y0146468D02*
X0169416Y0146799D01*
X0169085Y0146468D01*
X0167085Y0144468D01*
X0157085Y0134468D01*
X0157085Y0133815D01*
X0157739Y0134468D01*
X0160654Y0130987D02*
X0160135Y0130468D01*
X0160654Y0129950D01*
X0160654Y0124294D01*
X0159716Y0123356D01*
X0159085Y0123356D01*
X0159085Y0121640D01*
X0157913Y0120468D01*
X0154913Y0117468D01*
X0154913Y0117468D01*
X0157976Y0114405D01*
X0158996Y0114405D01*
X0159186Y0114596D01*
X0165085Y0114596D01*
X0165085Y0121900D01*
X0163910Y0121900D01*
X0162973Y0122837D01*
X0162973Y0128099D01*
X0163910Y0129037D01*
X0169567Y0129037D01*
X0170085Y0128518D01*
X0170603Y0129037D01*
X0171431Y0129037D01*
X0171431Y0133643D01*
X0173085Y0135297D01*
X0173085Y0135360D01*
X0171732Y0135360D01*
X0171732Y0138144D01*
X0170957Y0138144D01*
X0168370Y0138144D01*
X0168370Y0136575D01*
X0168465Y0136219D01*
X0168650Y0135900D01*
X0168910Y0135639D01*
X0169230Y0135455D01*
X0169586Y0135360D01*
X0170957Y0135360D01*
X0170957Y0138144D01*
X0170957Y0138919D01*
X0168370Y0138919D01*
X0168370Y0140487D01*
X0168465Y0140843D01*
X0168650Y0141162D01*
X0168748Y0141260D01*
X0167801Y0140868D01*
X0166369Y0140868D01*
X0166330Y0140884D01*
X0160654Y0135208D01*
X0160654Y0130987D01*
X0160583Y0130916D02*
X0171431Y0130916D01*
X0171431Y0130118D02*
X0160486Y0130118D01*
X0160654Y0129319D02*
X0171431Y0129319D01*
X0170088Y0128521D02*
X0170083Y0128521D01*
X0171431Y0131715D02*
X0160654Y0131715D01*
X0160654Y0132513D02*
X0171431Y0132513D01*
X0171431Y0133312D02*
X0160654Y0133312D01*
X0160654Y0134110D02*
X0171899Y0134110D01*
X0172697Y0134909D02*
X0160654Y0134909D01*
X0161153Y0135707D02*
X0168842Y0135707D01*
X0168389Y0136506D02*
X0161951Y0136506D01*
X0162750Y0137304D02*
X0168370Y0137304D01*
X0168370Y0138103D02*
X0163548Y0138103D01*
X0164347Y0138901D02*
X0170957Y0138901D01*
X0170957Y0138103D02*
X0171732Y0138103D01*
X0171732Y0137304D02*
X0170957Y0137304D01*
X0170957Y0136506D02*
X0171732Y0136506D01*
X0171732Y0135707D02*
X0170957Y0135707D01*
X0173431Y0132815D02*
X0175085Y0134468D01*
X0183085Y0126468D01*
X0183085Y0114468D01*
X0181022Y0112405D01*
X0177861Y0112405D01*
X0177798Y0112468D01*
X0171085Y0112468D01*
X0169085Y0110468D01*
X0169085Y0101468D01*
X0173085Y0098468D02*
X0170085Y0095468D01*
X0152085Y0095468D01*
X0148085Y0099468D01*
X0148085Y0104122D01*
X0144517Y0103767D02*
X0138031Y0103767D01*
X0138829Y0104565D02*
X0144517Y0104565D01*
X0144517Y0105364D02*
X0139301Y0105364D01*
X0139631Y0106162D02*
X0144517Y0106162D01*
X0144528Y0106961D02*
X0139785Y0106961D01*
X0139785Y0107760D02*
X0144744Y0107760D01*
X0144517Y0108558D02*
X0139721Y0108558D01*
X0139390Y0109357D02*
X0144517Y0109357D01*
X0144517Y0110155D02*
X0139045Y0110155D01*
X0138246Y0110954D02*
X0144517Y0110954D01*
X0144517Y0111752D02*
X0137025Y0111752D01*
X0133146Y0111752D02*
X0106085Y0111752D01*
X0106428Y0110954D02*
X0110827Y0110954D01*
X0110029Y0110155D02*
X0107227Y0110155D01*
X0106085Y0114148D02*
X0110663Y0114148D01*
X0109973Y0114946D02*
X0106085Y0114946D01*
X0104085Y0102170D02*
X0144517Y0102170D01*
X0144517Y0102968D02*
X0136503Y0102968D01*
X0137829Y0101371D02*
X0144517Y0101371D01*
X0145237Y0100573D02*
X0138627Y0100573D01*
X0139217Y0099774D02*
X0146085Y0099774D01*
X0146085Y0098976D02*
X0139548Y0098976D01*
X0139785Y0098177D02*
X0146547Y0098177D01*
X0147346Y0097379D02*
X0139785Y0097379D01*
X0139785Y0096580D02*
X0148144Y0096580D01*
X0148943Y0095782D02*
X0139474Y0095782D01*
X0139143Y0094983D02*
X0149741Y0094983D01*
X0150540Y0094185D02*
X0138448Y0094185D01*
X0137512Y0093386D02*
X0148979Y0093386D01*
X0148392Y0092588D02*
X0102794Y0092588D01*
X0102085Y0093386D02*
X0132658Y0093386D01*
X0131722Y0094185D02*
X0123545Y0094185D01*
X0124197Y0094983D02*
X0131027Y0094983D01*
X0133235Y0091789D02*
X0103592Y0091789D01*
X0101130Y0088595D02*
X0048885Y0088595D01*
X0048885Y0087797D02*
X0101928Y0087797D01*
X0102727Y0086998D02*
X0048885Y0086998D01*
X0048885Y0086200D02*
X0103525Y0086200D01*
X0100331Y0089394D02*
X0048885Y0089394D01*
X0048885Y0083804D02*
X0065179Y0083804D01*
X0064834Y0083759D02*
X0064023Y0083542D01*
X0063248Y0083220D01*
X0062522Y0082801D01*
X0061856Y0082290D01*
X0061263Y0081697D01*
X0060752Y0081031D01*
X0060333Y0080305D01*
X0060012Y0079530D01*
X0059795Y0078719D01*
X0059685Y0077888D01*
X0059685Y0077868D01*
X0065685Y0077868D01*
X0065685Y0077068D01*
X0066485Y0077068D01*
X0066485Y0071068D01*
X0066505Y0071068D01*
X0067336Y0071178D01*
X0068147Y0071395D01*
X0068922Y0071716D01*
X0069648Y0072135D01*
X0070314Y0072646D01*
X0070907Y0073239D01*
X0071418Y0073905D01*
X0071837Y0074631D01*
X0072158Y0075407D01*
X0072376Y0076217D01*
X0072485Y0077049D01*
X0072485Y0077068D01*
X0066485Y0077068D01*
X0066485Y0077868D01*
X0072485Y0077868D01*
X0072485Y0077888D01*
X0072376Y0078719D01*
X0072158Y0079530D01*
X0071837Y0080305D01*
X0071418Y0081031D01*
X0070907Y0081697D01*
X0070314Y0082290D01*
X0069648Y0082801D01*
X0068922Y0083220D01*
X0068147Y0083542D01*
X0067336Y0083759D01*
X0066505Y0083868D01*
X0066485Y0083868D01*
X0066485Y0077868D01*
X0065685Y0077868D01*
X0065685Y0083868D01*
X0065666Y0083868D01*
X0064834Y0083759D01*
X0065685Y0083804D02*
X0066485Y0083804D01*
X0066991Y0083804D02*
X0085179Y0083804D01*
X0084834Y0083759D02*
X0085666Y0083868D01*
X0085685Y0083868D01*
X0085685Y0077868D01*
X0085685Y0077068D01*
X0086485Y0077068D01*
X0086485Y0071068D01*
X0086505Y0071068D01*
X0087336Y0071178D01*
X0088147Y0071395D01*
X0088922Y0071716D01*
X0089648Y0072135D01*
X0090314Y0072646D01*
X0090907Y0073239D01*
X0091418Y0073905D01*
X0091837Y0074631D01*
X0092158Y0075407D01*
X0092376Y0076217D01*
X0092485Y0077049D01*
X0092485Y0077068D01*
X0086485Y0077068D01*
X0086485Y0077868D01*
X0092485Y0077868D01*
X0092485Y0077888D01*
X0092376Y0078719D01*
X0092158Y0079530D01*
X0091837Y0080305D01*
X0091418Y0081031D01*
X0090907Y0081697D01*
X0090314Y0082290D01*
X0089648Y0082801D01*
X0088922Y0083220D01*
X0088147Y0083542D01*
X0087336Y0083759D01*
X0086505Y0083868D01*
X0086485Y0083868D01*
X0086485Y0077868D01*
X0085685Y0077868D01*
X0079685Y0077868D01*
X0079685Y0077888D01*
X0079795Y0078719D01*
X0080012Y0079530D01*
X0080333Y0080305D01*
X0080752Y0081031D01*
X0081263Y0081697D01*
X0081856Y0082290D01*
X0082522Y0082801D01*
X0083248Y0083220D01*
X0084023Y0083542D01*
X0084834Y0083759D01*
X0085685Y0083804D02*
X0086485Y0083804D01*
X0086991Y0083804D02*
X0132102Y0083804D01*
X0131304Y0084603D02*
X0123963Y0084603D01*
X0124197Y0085401D02*
X0130854Y0085401D01*
X0133577Y0083006D02*
X0089294Y0083006D01*
X0090397Y0082207D02*
X0156538Y0082207D01*
X0156538Y0081409D02*
X0137791Y0081409D01*
X0137747Y0081453D02*
X0136020Y0082168D01*
X0134150Y0082168D01*
X0132423Y0081453D01*
X0131101Y0080131D01*
X0130385Y0078403D01*
X0130385Y0076533D01*
X0131101Y0074806D01*
X0132423Y0073484D01*
X0134150Y0072768D01*
X0136020Y0072768D01*
X0137747Y0073484D01*
X0139070Y0074806D01*
X0139785Y0076533D01*
X0139785Y0078403D01*
X0139070Y0080131D01*
X0137747Y0081453D01*
X0138590Y0080610D02*
X0156538Y0080610D01*
X0156538Y0079812D02*
X0139202Y0079812D01*
X0139532Y0079013D02*
X0156538Y0079013D01*
X0156538Y0078215D02*
X0139785Y0078215D01*
X0139785Y0077416D02*
X0156538Y0077416D01*
X0157107Y0076618D02*
X0139785Y0076618D01*
X0139489Y0075819D02*
X0157906Y0075819D01*
X0158704Y0075021D02*
X0139158Y0075021D01*
X0138486Y0074222D02*
X0159503Y0074222D01*
X0160301Y0073424D02*
X0137602Y0073424D01*
X0136234Y0071827D02*
X0161485Y0071827D01*
X0161485Y0071028D02*
X0137841Y0071028D01*
X0138641Y0070229D02*
X0161702Y0070229D01*
X0162032Y0069431D02*
X0139135Y0069431D01*
X0139438Y0068632D02*
X0162830Y0068632D01*
X0165085Y0071468D02*
X0158538Y0078015D01*
X0158538Y0090468D01*
X0162106Y0090192D02*
X0172232Y0090192D01*
X0172232Y0089394D02*
X0173032Y0089394D01*
X0173032Y0088595D02*
X0172232Y0088595D01*
X0172232Y0087797D02*
X0173032Y0087797D01*
X0175532Y0087797D02*
X0176355Y0087797D01*
X0175969Y0088595D02*
X0175938Y0088595D01*
X0177154Y0086998D02*
X0160922Y0086998D01*
X0160538Y0086200D02*
X0190523Y0086200D01*
X0190385Y0086533D02*
X0191101Y0084806D01*
X0192423Y0083484D01*
X0194150Y0082768D01*
X0196020Y0082768D01*
X0197747Y0083484D01*
X0199070Y0084806D01*
X0199785Y0086533D01*
X0199785Y0088403D01*
X0199070Y0090131D01*
X0197747Y0091453D01*
X0196020Y0092168D01*
X0194150Y0092168D01*
X0192423Y0091453D01*
X0191101Y0090131D01*
X0190385Y0088403D01*
X0190385Y0086533D01*
X0190385Y0086998D02*
X0181922Y0086998D01*
X0182720Y0087797D02*
X0190385Y0087797D01*
X0190465Y0088595D02*
X0183106Y0088595D01*
X0183106Y0089394D02*
X0190795Y0089394D01*
X0191162Y0090192D02*
X0183106Y0090192D01*
X0183106Y0090991D02*
X0191961Y0090991D01*
X0193235Y0091789D02*
X0183106Y0091789D01*
X0183106Y0092588D02*
X0214367Y0092588D01*
X0214367Y0093386D02*
X0197512Y0093386D01*
X0198448Y0094185D02*
X0214367Y0094185D01*
X0214367Y0094983D02*
X0199143Y0094983D01*
X0199474Y0095782D02*
X0214367Y0095782D01*
X0214367Y0096580D02*
X0199785Y0096580D01*
X0199785Y0097379D02*
X0214367Y0097379D01*
X0214367Y0098177D02*
X0199785Y0098177D01*
X0199548Y0098976D02*
X0214367Y0098976D01*
X0214367Y0099774D02*
X0199217Y0099774D01*
X0198627Y0100573D02*
X0214367Y0100573D01*
X0214367Y0101371D02*
X0197829Y0101371D01*
X0196503Y0102968D02*
X0214367Y0102968D01*
X0214367Y0102170D02*
X0193212Y0102170D01*
X0193667Y0102968D02*
X0192413Y0102968D01*
X0192139Y0103767D02*
X0191615Y0103767D01*
X0191341Y0104565D02*
X0191085Y0104565D01*
X0189085Y0103468D02*
X0189085Y0119468D01*
X0192085Y0122468D01*
X0197085Y0122468D01*
X0200085Y0125468D01*
X0200085Y0149468D01*
X0197085Y0152468D01*
X0191085Y0152468D01*
X0188085Y0155468D01*
X0188085Y0164468D01*
X0186085Y0166468D01*
X0180447Y0166468D01*
X0180400Y0166421D01*
X0180416Y0164468D02*
X0180400Y0164452D01*
X0180416Y0164468D02*
X0184085Y0164468D01*
X0186085Y0162468D01*
X0186085Y0158468D01*
X0184085Y0156468D01*
X0169085Y0156468D01*
X0147085Y0134468D01*
X0138085Y0134468D01*
X0135085Y0137468D01*
X0131796Y0134110D02*
X0093271Y0134110D01*
X0094070Y0133312D02*
X0132838Y0133312D01*
X0133056Y0131715D02*
X0095667Y0131715D01*
X0096465Y0130916D02*
X0110790Y0130916D01*
X0109992Y0130118D02*
X0097264Y0130118D01*
X0094868Y0132513D02*
X0137211Y0132513D01*
X0139774Y0136506D02*
X0141001Y0136506D01*
X0140670Y0137304D02*
X0139785Y0137304D01*
X0139785Y0138103D02*
X0140485Y0138103D01*
X0140485Y0138901D02*
X0139579Y0138901D01*
X0139248Y0139700D02*
X0140699Y0139700D01*
X0141029Y0140498D02*
X0138702Y0140498D01*
X0137903Y0141297D02*
X0141823Y0141297D01*
X0144085Y0138468D02*
X0148085Y0138468D01*
X0150739Y0141122D01*
X0150739Y0153468D01*
X0150739Y0162468D01*
X0150739Y0171468D01*
X0150085Y0172122D01*
X0150085Y0193468D01*
X0163431Y0206815D01*
X0163431Y0237468D01*
X0163085Y0237815D01*
X0163085Y0251868D01*
X0160351Y0257880D02*
X0145296Y0257880D01*
X0145147Y0257942D02*
X0144336Y0258159D01*
X0143505Y0258268D01*
X0143485Y0258268D01*
X0143485Y0252268D01*
X0149485Y0252268D01*
X0149485Y0252288D01*
X0149376Y0253119D01*
X0149158Y0253930D01*
X0148837Y0254705D01*
X0148418Y0255431D01*
X0147907Y0256097D01*
X0147314Y0256690D01*
X0146648Y0257201D01*
X0145922Y0257620D01*
X0145147Y0257942D01*
X0143485Y0257880D02*
X0142685Y0257880D01*
X0142685Y0258268D02*
X0142666Y0258268D01*
X0141834Y0258159D01*
X0141023Y0257942D01*
X0140248Y0257620D01*
X0139522Y0257201D01*
X0138856Y0256690D01*
X0138263Y0256097D01*
X0137752Y0255431D01*
X0137333Y0254705D01*
X0137012Y0253930D01*
X0136795Y0253119D01*
X0136685Y0252288D01*
X0136685Y0252268D01*
X0142685Y0252268D01*
X0142685Y0251468D01*
X0143485Y0251468D01*
X0143485Y0245468D01*
X0143505Y0245468D01*
X0144336Y0245578D01*
X0145147Y0245795D01*
X0145922Y0246116D01*
X0146648Y0246535D01*
X0147314Y0247046D01*
X0147907Y0247639D01*
X0148418Y0248305D01*
X0148837Y0249031D01*
X0149158Y0249807D01*
X0149376Y0250617D01*
X0149485Y0251449D01*
X0149485Y0251468D01*
X0143485Y0251468D01*
X0143485Y0252268D01*
X0142685Y0252268D01*
X0142685Y0258268D01*
X0142685Y0257081D02*
X0143485Y0257081D01*
X0143485Y0256283D02*
X0142685Y0256283D01*
X0142685Y0255484D02*
X0143485Y0255484D01*
X0143485Y0254686D02*
X0142685Y0254686D01*
X0142685Y0253887D02*
X0143485Y0253887D01*
X0143485Y0253089D02*
X0142685Y0253089D01*
X0142685Y0252290D02*
X0143485Y0252290D01*
X0143485Y0251492D02*
X0156485Y0251492D01*
X0156485Y0252290D02*
X0149485Y0252290D01*
X0149380Y0253089D02*
X0156485Y0253089D01*
X0156778Y0253887D02*
X0149170Y0253887D01*
X0148845Y0254686D02*
X0157108Y0254686D01*
X0157439Y0255484D02*
X0148377Y0255484D01*
X0147722Y0256283D02*
X0158166Y0256283D01*
X0158964Y0257081D02*
X0146805Y0257081D01*
X0149386Y0250693D02*
X0156485Y0250693D01*
X0156759Y0249895D02*
X0149182Y0249895D01*
X0148864Y0249096D02*
X0157090Y0249096D01*
X0157420Y0248298D02*
X0148412Y0248298D01*
X0147767Y0247499D02*
X0158120Y0247499D01*
X0158919Y0246700D02*
X0146863Y0246700D01*
X0145405Y0245902D02*
X0160242Y0245902D01*
X0161085Y0245103D02*
X0124495Y0245103D01*
X0124785Y0244305D02*
X0161085Y0244305D01*
X0161085Y0243506D02*
X0124785Y0243506D01*
X0124785Y0242708D02*
X0161085Y0242708D01*
X0161085Y0241909D02*
X0124527Y0241909D01*
X0124196Y0241111D02*
X0161085Y0241111D01*
X0165085Y0241111D02*
X0181085Y0241111D01*
X0181085Y0241909D02*
X0165085Y0241909D01*
X0165085Y0242708D02*
X0181085Y0242708D01*
X0181085Y0243506D02*
X0165085Y0243506D01*
X0165085Y0244305D02*
X0181085Y0244305D01*
X0181085Y0245103D02*
X0165085Y0245103D01*
X0165928Y0245902D02*
X0180242Y0245902D01*
X0178919Y0246700D02*
X0167251Y0246700D01*
X0168050Y0247499D02*
X0178120Y0247499D01*
X0177420Y0248298D02*
X0168750Y0248298D01*
X0169081Y0249096D02*
X0177090Y0249096D01*
X0176759Y0249895D02*
X0169411Y0249895D01*
X0169685Y0250693D02*
X0176485Y0250693D01*
X0176485Y0251492D02*
X0169685Y0251492D01*
X0169685Y0252290D02*
X0176485Y0252290D01*
X0176485Y0253089D02*
X0169685Y0253089D01*
X0169393Y0253887D02*
X0176778Y0253887D01*
X0177108Y0254686D02*
X0169062Y0254686D01*
X0168731Y0255484D02*
X0177439Y0255484D01*
X0178166Y0256283D02*
X0168004Y0256283D01*
X0167206Y0257081D02*
X0178964Y0257081D01*
X0180351Y0257880D02*
X0165819Y0257880D01*
X0166984Y0240312D02*
X0173186Y0240312D01*
X0172973Y0239514D02*
X0167197Y0239514D01*
X0167197Y0238715D02*
X0172973Y0238715D01*
X0172973Y0237917D02*
X0167197Y0237917D01*
X0167197Y0237118D02*
X0172973Y0237118D01*
X0172973Y0236320D02*
X0167197Y0236320D01*
X0167197Y0235521D02*
X0172973Y0235521D01*
X0173087Y0234723D02*
X0167083Y0234723D01*
X0166284Y0233924D02*
X0173886Y0233924D01*
X0174739Y0233126D02*
X0165431Y0233126D01*
X0165431Y0232327D02*
X0174739Y0232327D01*
X0174739Y0231529D02*
X0165431Y0231529D01*
X0165431Y0230730D02*
X0174739Y0230730D01*
X0174739Y0229932D02*
X0165431Y0229932D01*
X0165431Y0229133D02*
X0174739Y0229133D01*
X0174739Y0228335D02*
X0165431Y0228335D01*
X0165431Y0227536D02*
X0174739Y0227536D01*
X0174739Y0226738D02*
X0165431Y0226738D01*
X0165431Y0225939D02*
X0174739Y0225939D01*
X0174739Y0225141D02*
X0165431Y0225141D01*
X0165431Y0224342D02*
X0174739Y0224342D01*
X0174739Y0223544D02*
X0165431Y0223544D01*
X0165431Y0222745D02*
X0174739Y0222745D01*
X0174739Y0221947D02*
X0165431Y0221947D01*
X0165431Y0221148D02*
X0174739Y0221148D01*
X0174739Y0220350D02*
X0165431Y0220350D01*
X0165431Y0219551D02*
X0174739Y0219551D01*
X0174739Y0218753D02*
X0165431Y0218753D01*
X0165431Y0217954D02*
X0174739Y0217954D01*
X0174739Y0217156D02*
X0165431Y0217156D01*
X0165431Y0216357D02*
X0174739Y0216357D01*
X0174739Y0215559D02*
X0165431Y0215559D01*
X0165431Y0214760D02*
X0174739Y0214760D01*
X0174739Y0213962D02*
X0165431Y0213962D01*
X0165431Y0213163D02*
X0174739Y0213163D01*
X0172890Y0212365D02*
X0165431Y0212365D01*
X0165431Y0211566D02*
X0172092Y0211566D01*
X0171727Y0210767D02*
X0165431Y0210767D01*
X0165431Y0209969D02*
X0171485Y0209969D01*
X0171485Y0209170D02*
X0165431Y0209170D01*
X0165431Y0208372D02*
X0171642Y0208372D01*
X0171973Y0207573D02*
X0165431Y0207573D01*
X0165431Y0206775D02*
X0172687Y0206775D01*
X0173085Y0205976D02*
X0165422Y0205976D01*
X0164623Y0205178D02*
X0173085Y0205178D01*
X0173085Y0204379D02*
X0163825Y0204379D01*
X0163026Y0203581D02*
X0173085Y0203581D01*
X0173085Y0202782D02*
X0162228Y0202782D01*
X0161429Y0201984D02*
X0173085Y0201984D01*
X0173085Y0201185D02*
X0160631Y0201185D01*
X0159832Y0200387D02*
X0173085Y0200387D01*
X0173085Y0199588D02*
X0159034Y0199588D01*
X0158235Y0198790D02*
X0173085Y0198790D01*
X0173085Y0197991D02*
X0157437Y0197991D01*
X0156638Y0197193D02*
X0173085Y0197193D01*
X0173085Y0196394D02*
X0155840Y0196394D01*
X0155041Y0195596D02*
X0173085Y0195596D01*
X0173085Y0194797D02*
X0154243Y0194797D01*
X0153444Y0193999D02*
X0173085Y0193999D01*
X0173085Y0193200D02*
X0152645Y0193200D01*
X0152085Y0192402D02*
X0173085Y0192402D01*
X0172786Y0191603D02*
X0166882Y0191603D01*
X0166812Y0191638D02*
X0166139Y0191857D01*
X0165485Y0191961D01*
X0165485Y0187868D01*
X0169578Y0187868D01*
X0169474Y0188522D01*
X0169255Y0189196D01*
X0168934Y0189827D01*
X0168517Y0190400D01*
X0168017Y0190901D01*
X0167444Y0191317D01*
X0166812Y0191638D01*
X0165485Y0191603D02*
X0164685Y0191603D01*
X0164685Y0191961D02*
X0164031Y0191857D01*
X0163358Y0191638D01*
X0162727Y0191317D01*
X0162153Y0190901D01*
X0161653Y0190400D01*
X0161236Y0189827D01*
X0160915Y0189196D01*
X0160696Y0188522D01*
X0160592Y0187868D01*
X0164685Y0187868D01*
X0164685Y0187068D01*
X0165485Y0187068D01*
X0165485Y0182975D01*
X0166139Y0183079D01*
X0166812Y0183298D01*
X0167444Y0183619D01*
X0168017Y0184036D01*
X0168517Y0184537D01*
X0168934Y0185110D01*
X0169255Y0185741D01*
X0169474Y0186414D01*
X0169578Y0187068D01*
X0165485Y0187068D01*
X0165485Y0187868D01*
X0164685Y0187868D01*
X0164685Y0191961D01*
X0164685Y0190805D02*
X0165485Y0190805D01*
X0165485Y0190006D02*
X0164685Y0190006D01*
X0164685Y0189208D02*
X0165485Y0189208D01*
X0165485Y0188409D02*
X0164685Y0188409D01*
X0164685Y0187611D02*
X0159785Y0187611D01*
X0159783Y0188409D02*
X0160678Y0188409D01*
X0160921Y0189208D02*
X0159452Y0189208D01*
X0159121Y0190006D02*
X0161367Y0190006D01*
X0162058Y0190805D02*
X0158395Y0190805D01*
X0157384Y0191603D02*
X0163288Y0191603D01*
X0165485Y0187611D02*
X0170385Y0187611D01*
X0170388Y0188409D02*
X0169492Y0188409D01*
X0169249Y0189208D02*
X0170718Y0189208D01*
X0171049Y0190006D02*
X0168803Y0190006D01*
X0168112Y0190805D02*
X0171775Y0190805D01*
X0170385Y0186812D02*
X0169537Y0186812D01*
X0169344Y0186014D02*
X0170600Y0186014D01*
X0170931Y0185215D02*
X0168987Y0185215D01*
X0168397Y0184417D02*
X0171490Y0184417D01*
X0172288Y0183618D02*
X0167441Y0183618D01*
X0165485Y0183618D02*
X0164685Y0183618D01*
X0164685Y0182975D02*
X0164685Y0187068D01*
X0160592Y0187068D01*
X0160696Y0186414D01*
X0160915Y0185741D01*
X0161236Y0185110D01*
X0161653Y0184537D01*
X0162153Y0184036D01*
X0162727Y0183619D01*
X0163358Y0183298D01*
X0164031Y0183079D01*
X0164685Y0182975D01*
X0164685Y0184417D02*
X0165485Y0184417D01*
X0165485Y0185215D02*
X0164685Y0185215D01*
X0164685Y0186014D02*
X0165485Y0186014D01*
X0165485Y0186812D02*
X0164685Y0186812D01*
X0162729Y0183618D02*
X0157882Y0183618D01*
X0158680Y0184417D02*
X0161773Y0184417D01*
X0161183Y0185215D02*
X0159239Y0185215D01*
X0159570Y0186014D02*
X0160826Y0186014D01*
X0160633Y0186812D02*
X0159785Y0186812D01*
X0156144Y0182820D02*
X0173085Y0182820D01*
X0173085Y0182021D02*
X0152085Y0182021D01*
X0152085Y0181223D02*
X0173085Y0181223D01*
X0173085Y0180424D02*
X0152085Y0180424D01*
X0152085Y0179626D02*
X0173085Y0179626D01*
X0173085Y0178827D02*
X0152085Y0178827D01*
X0152085Y0178029D02*
X0173085Y0178029D01*
X0173085Y0177230D02*
X0152085Y0177230D01*
X0152085Y0176431D02*
X0173085Y0176431D01*
X0173085Y0175633D02*
X0152085Y0175633D01*
X0153769Y0174834D02*
X0154401Y0174834D01*
X0157431Y0171468D02*
X0164447Y0164452D01*
X0169770Y0164452D01*
X0169770Y0162484D02*
X0167754Y0162468D01*
X0157431Y0162468D01*
X0162483Y0169245D02*
X0173085Y0169245D01*
X0173085Y0170043D02*
X0161685Y0170043D01*
X0161197Y0170842D02*
X0173085Y0170842D01*
X0173085Y0171640D02*
X0161197Y0171640D01*
X0161197Y0172439D02*
X0173085Y0172439D01*
X0173085Y0173237D02*
X0161197Y0173237D01*
X0161197Y0174036D02*
X0173085Y0174036D01*
X0173085Y0174834D02*
X0160462Y0174834D01*
X0163282Y0168446D02*
X0173085Y0168446D01*
X0173085Y0167648D02*
X0172397Y0167648D01*
X0172548Y0166849D02*
X0173085Y0166849D01*
X0172548Y0166421D02*
X0172033Y0166421D01*
X0172033Y0166421D01*
X0172548Y0166421D01*
X0172548Y0166051D02*
X0173085Y0166051D01*
X0173085Y0165252D02*
X0172748Y0165252D01*
X0172748Y0164454D02*
X0173085Y0164454D01*
X0173085Y0163655D02*
X0172748Y0163655D01*
X0172748Y0162857D02*
X0173085Y0162857D01*
X0173085Y0162058D02*
X0172748Y0162058D01*
X0172748Y0161260D02*
X0173465Y0161260D01*
X0172748Y0160461D02*
X0174264Y0160461D01*
X0175062Y0159663D02*
X0172748Y0159663D01*
X0172350Y0158864D02*
X0175861Y0158864D01*
X0177038Y0160515D02*
X0175085Y0162468D01*
X0175085Y0187468D01*
X0175085Y0209468D01*
X0176739Y0211122D01*
X0176739Y0237468D01*
X0183085Y0237815D02*
X0183085Y0251868D01*
X0185819Y0257880D02*
X0214367Y0257880D01*
X0214367Y0258678D02*
X0022685Y0258678D01*
X0022685Y0257880D02*
X0036470Y0257880D01*
X0036445Y0257873D02*
X0036125Y0257688D01*
X0035865Y0257428D01*
X0035680Y0257109D01*
X0035585Y0256753D01*
X0035585Y0253868D01*
X0039685Y0253868D01*
X0039685Y0253068D01*
X0040485Y0253068D01*
X0040485Y0248968D01*
X0043369Y0248968D01*
X0043725Y0249064D01*
X0044045Y0249248D01*
X0044305Y0249509D01*
X0044490Y0249828D01*
X0044585Y0250184D01*
X0044585Y0253068D01*
X0040485Y0253068D01*
X0040485Y0253868D01*
X0044585Y0253868D01*
X0044585Y0256753D01*
X0044490Y0257109D01*
X0044305Y0257428D01*
X0044045Y0257688D01*
X0043725Y0257873D01*
X0043369Y0257968D01*
X0040485Y0257968D01*
X0040485Y0253868D01*
X0039685Y0253868D01*
X0039685Y0257968D01*
X0036801Y0257968D01*
X0036445Y0257873D01*
X0035673Y0257081D02*
X0022685Y0257081D01*
X0022685Y0256283D02*
X0035585Y0256283D01*
X0035585Y0255484D02*
X0022685Y0255484D01*
X0022685Y0254686D02*
X0035585Y0254686D01*
X0035585Y0253887D02*
X0022685Y0253887D01*
X0022685Y0253089D02*
X0039685Y0253089D01*
X0039685Y0253068D02*
X0035585Y0253068D01*
X0035585Y0250184D01*
X0035680Y0249828D01*
X0035865Y0249509D01*
X0036125Y0249248D01*
X0036445Y0249064D01*
X0036801Y0248968D01*
X0039685Y0248968D01*
X0039685Y0253068D01*
X0039685Y0252290D02*
X0040485Y0252290D01*
X0040485Y0251492D02*
X0039685Y0251492D01*
X0039685Y0250693D02*
X0040485Y0250693D01*
X0040485Y0249895D02*
X0039685Y0249895D01*
X0039685Y0249096D02*
X0040485Y0249096D01*
X0040485Y0247961D02*
X0041139Y0247857D01*
X0041812Y0247638D01*
X0042444Y0247317D01*
X0043017Y0246901D01*
X0043517Y0246400D01*
X0043934Y0245827D01*
X0044255Y0245196D01*
X0044474Y0244522D01*
X0044578Y0243868D01*
X0040485Y0243868D01*
X0040485Y0243068D01*
X0040485Y0238975D01*
X0041139Y0239079D01*
X0041812Y0239298D01*
X0042444Y0239619D01*
X0043017Y0240036D01*
X0043517Y0240537D01*
X0043934Y0241110D01*
X0044255Y0241741D01*
X0044474Y0242414D01*
X0044578Y0243068D01*
X0040485Y0243068D01*
X0039685Y0243068D01*
X0039685Y0238975D01*
X0039031Y0239079D01*
X0038358Y0239298D01*
X0037727Y0239619D01*
X0037153Y0240036D01*
X0036653Y0240537D01*
X0036236Y0241110D01*
X0035915Y0241741D01*
X0035696Y0242414D01*
X0035592Y0243068D01*
X0039685Y0243068D01*
X0039685Y0243868D01*
X0035592Y0243868D01*
X0035696Y0244522D01*
X0035915Y0245196D01*
X0036236Y0245827D01*
X0036653Y0246400D01*
X0037153Y0246901D01*
X0037727Y0247317D01*
X0038358Y0247638D01*
X0039031Y0247857D01*
X0039685Y0247961D01*
X0039685Y0243868D01*
X0040485Y0243868D01*
X0040485Y0247961D01*
X0040485Y0247499D02*
X0039685Y0247499D01*
X0039685Y0246700D02*
X0040485Y0246700D01*
X0040485Y0245902D02*
X0039685Y0245902D01*
X0039685Y0245103D02*
X0040485Y0245103D01*
X0040485Y0244305D02*
X0039685Y0244305D01*
X0039685Y0243506D02*
X0022685Y0243506D01*
X0022685Y0242708D02*
X0035649Y0242708D01*
X0035860Y0241909D02*
X0022685Y0241909D01*
X0022685Y0241111D02*
X0036236Y0241111D01*
X0036877Y0240312D02*
X0022685Y0240312D01*
X0022685Y0239514D02*
X0037934Y0239514D01*
X0038543Y0237917D02*
X0022685Y0237917D01*
X0022685Y0238715D02*
X0097485Y0238715D01*
X0097485Y0237917D02*
X0041627Y0237917D01*
X0042236Y0239514D02*
X0097622Y0239514D01*
X0097952Y0240312D02*
X0043293Y0240312D01*
X0043934Y0241111D02*
X0098637Y0241111D01*
X0099986Y0241909D02*
X0044310Y0241909D01*
X0044521Y0242708D02*
X0115385Y0242708D01*
X0115385Y0243506D02*
X0040485Y0243506D01*
X0040485Y0242708D02*
X0039685Y0242708D01*
X0039685Y0241909D02*
X0040485Y0241909D01*
X0040485Y0241111D02*
X0039685Y0241111D01*
X0039685Y0240312D02*
X0040485Y0240312D01*
X0040485Y0239514D02*
X0039685Y0239514D01*
X0037088Y0237118D02*
X0022685Y0237118D01*
X0022685Y0236320D02*
X0036290Y0236320D01*
X0035848Y0235521D02*
X0022685Y0235521D01*
X0022685Y0234723D02*
X0035517Y0234723D01*
X0035385Y0233924D02*
X0022685Y0233924D01*
X0022685Y0233126D02*
X0035385Y0233126D01*
X0035470Y0232327D02*
X0022685Y0232327D01*
X0022685Y0231529D02*
X0035801Y0231529D01*
X0036176Y0230730D02*
X0022685Y0230730D01*
X0022685Y0229932D02*
X0036975Y0229932D01*
X0038633Y0217954D02*
X0022685Y0217954D01*
X0022685Y0217156D02*
X0037126Y0217156D01*
X0036327Y0216357D02*
X0022685Y0216357D01*
X0022685Y0215559D02*
X0035864Y0215559D01*
X0035533Y0214760D02*
X0022685Y0214760D01*
X0022685Y0213962D02*
X0035385Y0213962D01*
X0035385Y0213163D02*
X0022685Y0213163D01*
X0022685Y0212365D02*
X0035455Y0212365D01*
X0035786Y0211566D02*
X0022685Y0211566D01*
X0022685Y0210767D02*
X0036139Y0210767D01*
X0036937Y0209969D02*
X0022685Y0209969D01*
X0022685Y0209170D02*
X0038179Y0209170D01*
X0037714Y0207573D02*
X0022685Y0207573D01*
X0022685Y0206775D02*
X0036745Y0206775D01*
X0036037Y0205976D02*
X0022685Y0205976D01*
X0022685Y0205178D02*
X0035706Y0205178D01*
X0035385Y0204379D02*
X0022685Y0204379D01*
X0022685Y0203581D02*
X0035385Y0203581D01*
X0035385Y0202782D02*
X0022685Y0202782D01*
X0022685Y0201984D02*
X0035613Y0201984D01*
X0035943Y0201185D02*
X0022685Y0201185D01*
X0022685Y0200387D02*
X0036520Y0200387D01*
X0037318Y0199588D02*
X0022685Y0199588D01*
X0022685Y0198790D02*
X0039098Y0198790D01*
X0041072Y0198790D02*
X0049501Y0198790D01*
X0049399Y0198614D02*
X0049264Y0198108D01*
X0049264Y0196868D01*
X0052232Y0196868D01*
X0052232Y0199837D01*
X0050992Y0199837D01*
X0050486Y0199701D01*
X0050032Y0199439D01*
X0049661Y0199068D01*
X0049399Y0198614D01*
X0049264Y0197991D02*
X0022685Y0197991D01*
X0022685Y0197193D02*
X0049264Y0197193D01*
X0049264Y0195596D02*
X0022685Y0195596D01*
X0022685Y0196394D02*
X0052232Y0196394D01*
X0052232Y0195596D02*
X0053032Y0195596D01*
X0053032Y0194797D02*
X0052232Y0194797D01*
X0052232Y0193999D02*
X0053032Y0193999D01*
X0053032Y0193200D02*
X0052232Y0193200D01*
X0050617Y0193200D02*
X0022685Y0193200D01*
X0022685Y0193999D02*
X0049586Y0193999D01*
X0049272Y0194797D02*
X0022685Y0194797D01*
X0022685Y0208372D02*
X0049334Y0208372D01*
X0049399Y0208614D02*
X0049264Y0208108D01*
X0049264Y0206868D01*
X0052232Y0206868D01*
X0052232Y0209837D01*
X0050992Y0209837D01*
X0050486Y0209701D01*
X0050032Y0209439D01*
X0049661Y0209068D01*
X0049399Y0208614D01*
X0049764Y0209170D02*
X0041991Y0209170D01*
X0043233Y0209969D02*
X0057185Y0209969D01*
X0056386Y0209170D02*
X0055501Y0209170D01*
X0055930Y0208372D02*
X0055969Y0208372D01*
X0055881Y0204379D02*
X0055969Y0204379D01*
X0056571Y0203581D02*
X0055316Y0203581D01*
X0053032Y0203581D02*
X0052232Y0203581D01*
X0052232Y0204379D02*
X0053032Y0204379D01*
X0053032Y0205178D02*
X0052232Y0205178D01*
X0052232Y0205976D02*
X0053032Y0205976D01*
X0052232Y0206775D02*
X0043425Y0206775D01*
X0044133Y0205976D02*
X0049264Y0205976D01*
X0049264Y0205178D02*
X0044464Y0205178D01*
X0044785Y0204379D02*
X0049384Y0204379D01*
X0049949Y0203581D02*
X0044785Y0203581D01*
X0042852Y0199588D02*
X0050291Y0199588D01*
X0052232Y0199588D02*
X0053032Y0199588D01*
X0053032Y0198790D02*
X0052232Y0198790D01*
X0052232Y0197991D02*
X0053032Y0197991D01*
X0053032Y0197193D02*
X0052232Y0197193D01*
X0054974Y0199588D02*
X0056804Y0199588D01*
X0056006Y0198790D02*
X0055764Y0198790D01*
X0055679Y0193999D02*
X0056153Y0193999D01*
X0056952Y0193200D02*
X0054648Y0193200D01*
X0053032Y0189208D02*
X0052232Y0189208D01*
X0052232Y0188409D02*
X0053032Y0188409D01*
X0053032Y0187611D02*
X0052232Y0187611D01*
X0055890Y0184417D02*
X0055969Y0184417D01*
X0056534Y0183618D02*
X0055353Y0183618D01*
X0054909Y0179626D02*
X0056841Y0179626D01*
X0056043Y0178827D02*
X0055742Y0178827D01*
X0053032Y0178827D02*
X0052232Y0178827D01*
X0052232Y0178029D02*
X0053032Y0178029D01*
X0053032Y0177230D02*
X0052232Y0177230D01*
X0052232Y0179626D02*
X0053032Y0179626D01*
X0055700Y0174036D02*
X0056116Y0174036D01*
X0056915Y0173237D02*
X0054782Y0173237D01*
X0062161Y0173237D02*
X0065487Y0173237D01*
X0064689Y0174036D02*
X0062959Y0174036D01*
X0062615Y0169245D02*
X0066085Y0169245D01*
X0066085Y0168446D02*
X0064935Y0168446D01*
X0065734Y0167648D02*
X0066085Y0167648D01*
X0066085Y0167297D02*
X0066085Y0167297D01*
X0063271Y0164454D02*
X0063106Y0164454D01*
X0062579Y0163655D02*
X0064069Y0163655D01*
X0056079Y0154073D02*
X0055722Y0154073D01*
X0050418Y0153275D02*
X0022685Y0153275D01*
X0022685Y0154073D02*
X0049543Y0154073D01*
X0049264Y0154872D02*
X0022685Y0154872D01*
X0022685Y0155670D02*
X0049264Y0155670D01*
X0063100Y0149282D02*
X0064085Y0149282D01*
X0064085Y0148484D02*
X0063898Y0148484D01*
X0068085Y0141297D02*
X0068428Y0141297D01*
X0068085Y0140498D02*
X0069226Y0140498D01*
X0070025Y0139700D02*
X0068085Y0139700D01*
X0068085Y0138901D02*
X0070823Y0138901D01*
X0071622Y0138103D02*
X0068085Y0138103D01*
X0068085Y0137304D02*
X0072420Y0137304D01*
X0077976Y0126924D02*
X0082801Y0126924D01*
X0083600Y0126125D02*
X0077833Y0126125D01*
X0077544Y0125327D02*
X0084398Y0125327D01*
X0085197Y0124528D02*
X0077078Y0124528D01*
X0076376Y0123730D02*
X0085995Y0123730D01*
X0092473Y0134909D02*
X0131058Y0134909D01*
X0130727Y0135707D02*
X0091674Y0135707D01*
X0091679Y0136506D02*
X0090876Y0136506D01*
X0093891Y0136506D02*
X0130396Y0136506D01*
X0130385Y0137304D02*
X0095734Y0137304D01*
X0096532Y0138103D02*
X0130385Y0138103D01*
X0130591Y0138901D02*
X0097201Y0138901D01*
X0097531Y0139700D02*
X0130922Y0139700D01*
X0131469Y0140498D02*
X0097862Y0140498D01*
X0097885Y0141297D02*
X0132267Y0141297D01*
X0133975Y0142096D02*
X0097885Y0142096D01*
X0097756Y0142894D02*
X0133846Y0142894D01*
X0134150Y0142768D02*
X0136020Y0142768D01*
X0137747Y0143484D01*
X0139070Y0144806D01*
X0139785Y0146533D01*
X0139785Y0148403D01*
X0139070Y0150131D01*
X0137747Y0151453D01*
X0136020Y0152168D01*
X0134150Y0152168D01*
X0132423Y0151453D01*
X0131101Y0150131D01*
X0130826Y0149468D01*
X0123913Y0149468D01*
X0120913Y0152468D01*
X0106153Y0152468D01*
X0106137Y0152507D01*
X0105124Y0153520D01*
X0104043Y0153968D01*
X0105124Y0154416D01*
X0106137Y0155429D01*
X0106153Y0155468D01*
X0130826Y0155468D01*
X0131101Y0154806D01*
X0132423Y0153484D01*
X0134150Y0152768D01*
X0136020Y0152768D01*
X0137747Y0153484D01*
X0139070Y0154806D01*
X0139785Y0156533D01*
X0139785Y0158403D01*
X0139070Y0160131D01*
X0137747Y0161453D01*
X0136020Y0162168D01*
X0134150Y0162168D01*
X0132423Y0161453D01*
X0131101Y0160131D01*
X0130826Y0159468D01*
X0106153Y0159468D01*
X0106137Y0159507D01*
X0105124Y0160520D01*
X0103801Y0161068D01*
X0102369Y0161068D01*
X0101046Y0160520D01*
X0100033Y0159507D01*
X0099485Y0158184D01*
X0099485Y0156752D01*
X0100033Y0155429D01*
X0101046Y0154416D01*
X0102128Y0153968D01*
X0101046Y0153520D01*
X0100033Y0152507D01*
X0099485Y0151184D01*
X0099485Y0149752D01*
X0100033Y0148429D01*
X0101046Y0147416D01*
X0102369Y0146868D01*
X0103801Y0146868D01*
X0105124Y0147416D01*
X0106137Y0148429D01*
X0106153Y0148468D01*
X0119257Y0148468D01*
X0121085Y0146640D01*
X0122257Y0145468D01*
X0130826Y0145468D01*
X0131101Y0144806D01*
X0132423Y0143484D01*
X0134150Y0142768D01*
X0132214Y0143693D02*
X0097425Y0143693D01*
X0097075Y0144491D02*
X0131415Y0144491D01*
X0130900Y0145290D02*
X0096276Y0145290D01*
X0095200Y0146088D02*
X0121637Y0146088D01*
X0120838Y0146887D02*
X0103845Y0146887D01*
X0102325Y0146887D02*
X0080495Y0146887D01*
X0079697Y0147685D02*
X0100777Y0147685D01*
X0100010Y0148484D02*
X0078898Y0148484D01*
X0078100Y0149282D02*
X0099680Y0149282D01*
X0099485Y0150081D02*
X0077301Y0150081D01*
X0076502Y0150879D02*
X0099485Y0150879D01*
X0099689Y0151678D02*
X0076085Y0151678D01*
X0076085Y0152476D02*
X0100020Y0152476D01*
X0100800Y0153275D02*
X0076085Y0153275D01*
X0076085Y0154073D02*
X0101874Y0154073D01*
X0100590Y0154872D02*
X0076085Y0154872D01*
X0076085Y0155670D02*
X0099933Y0155670D01*
X0099602Y0156469D02*
X0076085Y0156469D01*
X0076085Y0157267D02*
X0099485Y0157267D01*
X0099485Y0158066D02*
X0076085Y0158066D01*
X0076085Y0158864D02*
X0099767Y0158864D01*
X0100188Y0159663D02*
X0076085Y0159663D01*
X0076085Y0160461D02*
X0100987Y0160461D01*
X0103085Y0157468D02*
X0111085Y0157468D01*
X0135085Y0157468D01*
X0131833Y0154073D02*
X0104296Y0154073D01*
X0105370Y0153275D02*
X0132927Y0153275D01*
X0132966Y0151678D02*
X0121704Y0151678D01*
X0122503Y0150879D02*
X0131849Y0150879D01*
X0131080Y0150081D02*
X0123301Y0150081D01*
X0123085Y0147468D02*
X0135085Y0147468D01*
X0138321Y0150879D02*
X0146973Y0150879D01*
X0146973Y0151678D02*
X0137204Y0151678D01*
X0137243Y0153275D02*
X0146973Y0153275D01*
X0146973Y0154073D02*
X0138337Y0154073D01*
X0139097Y0154872D02*
X0146973Y0154872D01*
X0146973Y0155670D02*
X0139428Y0155670D01*
X0139758Y0156469D02*
X0147343Y0156469D01*
X0148739Y0157267D02*
X0139785Y0157267D01*
X0139785Y0158066D02*
X0148739Y0158066D01*
X0148739Y0158864D02*
X0139594Y0158864D01*
X0139263Y0159663D02*
X0147147Y0159663D01*
X0146973Y0160461D02*
X0138739Y0160461D01*
X0137940Y0161260D02*
X0146973Y0161260D01*
X0146973Y0162058D02*
X0136285Y0162058D01*
X0136020Y0162768D02*
X0137747Y0163484D01*
X0139070Y0164806D01*
X0139785Y0166533D01*
X0139785Y0168403D01*
X0139070Y0170131D01*
X0137747Y0171453D01*
X0136020Y0172168D01*
X0134150Y0172168D01*
X0132423Y0171453D01*
X0131101Y0170131D01*
X0130385Y0168403D01*
X0130385Y0166533D01*
X0131101Y0164806D01*
X0132423Y0163484D01*
X0134150Y0162768D01*
X0136020Y0162768D01*
X0136234Y0162857D02*
X0146973Y0162857D01*
X0146973Y0163655D02*
X0137919Y0163655D01*
X0138717Y0164454D02*
X0146973Y0164454D01*
X0147126Y0165252D02*
X0139254Y0165252D01*
X0139585Y0166051D02*
X0148739Y0166051D01*
X0148739Y0166849D02*
X0139785Y0166849D01*
X0139785Y0167648D02*
X0148739Y0167648D01*
X0147364Y0168446D02*
X0139767Y0168446D01*
X0139436Y0169245D02*
X0146973Y0169245D01*
X0146973Y0170043D02*
X0139106Y0170043D01*
X0138358Y0170842D02*
X0146973Y0170842D01*
X0146973Y0171640D02*
X0137294Y0171640D01*
X0137153Y0173237D02*
X0146973Y0173237D01*
X0146973Y0172439D02*
X0076085Y0172439D01*
X0076085Y0173237D02*
X0133017Y0173237D01*
X0132423Y0173484D02*
X0134150Y0172768D01*
X0136020Y0172768D01*
X0137747Y0173484D01*
X0139070Y0174806D01*
X0139785Y0176533D01*
X0139785Y0178403D01*
X0139070Y0180131D01*
X0137747Y0181453D01*
X0136020Y0182168D01*
X0134150Y0182168D01*
X0132423Y0181453D01*
X0131101Y0180131D01*
X0130385Y0178403D01*
X0130385Y0176533D01*
X0131101Y0174806D01*
X0132423Y0173484D01*
X0131870Y0174036D02*
X0076085Y0174036D01*
X0076085Y0174834D02*
X0131089Y0174834D01*
X0130758Y0175633D02*
X0076085Y0175633D01*
X0076085Y0176431D02*
X0130427Y0176431D01*
X0130385Y0177230D02*
X0076085Y0177230D01*
X0076085Y0178029D02*
X0130385Y0178029D01*
X0130561Y0178827D02*
X0076085Y0178827D01*
X0076085Y0179626D02*
X0130891Y0179626D01*
X0131394Y0180424D02*
X0076085Y0180424D01*
X0076085Y0181223D02*
X0132193Y0181223D01*
X0133795Y0182021D02*
X0076085Y0182021D01*
X0076085Y0171640D02*
X0132876Y0171640D01*
X0131812Y0170842D02*
X0076085Y0170842D01*
X0076085Y0170043D02*
X0131064Y0170043D01*
X0130734Y0169245D02*
X0076085Y0169245D01*
X0076085Y0168446D02*
X0130403Y0168446D01*
X0130385Y0167648D02*
X0076085Y0167648D01*
X0076085Y0166849D02*
X0130385Y0166849D01*
X0130585Y0166051D02*
X0076085Y0166051D01*
X0076085Y0165252D02*
X0130916Y0165252D01*
X0131453Y0164454D02*
X0076085Y0164454D01*
X0076085Y0163655D02*
X0132251Y0163655D01*
X0133936Y0162857D02*
X0076085Y0162857D01*
X0076085Y0162058D02*
X0133885Y0162058D01*
X0132230Y0161260D02*
X0076085Y0161260D01*
X0081294Y0146088D02*
X0090370Y0146088D01*
X0089294Y0145290D02*
X0082092Y0145290D01*
X0082891Y0144491D02*
X0088495Y0144491D01*
X0088145Y0143693D02*
X0083689Y0143693D01*
X0084488Y0142894D02*
X0087814Y0142894D01*
X0087685Y0142096D02*
X0085286Y0142096D01*
X0086085Y0141297D02*
X0087685Y0141297D01*
X0087708Y0140498D02*
X0086883Y0140498D01*
X0087682Y0139700D02*
X0088039Y0139700D01*
X0103085Y0150468D02*
X0111085Y0150468D01*
X0112085Y0150468D01*
X0120085Y0150468D01*
X0123085Y0147468D01*
X0120040Y0147685D02*
X0105393Y0147685D01*
X0106150Y0152476D02*
X0146973Y0152476D01*
X0147730Y0150081D02*
X0139090Y0150081D01*
X0139421Y0149282D02*
X0148739Y0149282D01*
X0148739Y0148484D02*
X0139752Y0148484D01*
X0139785Y0147685D02*
X0148739Y0147685D01*
X0148739Y0146887D02*
X0139785Y0146887D01*
X0139601Y0146088D02*
X0148739Y0146088D01*
X0148739Y0145290D02*
X0139270Y0145290D01*
X0138755Y0144491D02*
X0148739Y0144491D01*
X0148739Y0143693D02*
X0137956Y0143693D01*
X0136324Y0142894D02*
X0148739Y0142894D01*
X0148739Y0142096D02*
X0136195Y0142096D01*
X0131886Y0130916D02*
X0123380Y0130916D01*
X0124178Y0130118D02*
X0131095Y0130118D01*
X0130885Y0125327D02*
X0124197Y0125327D01*
X0123888Y0124528D02*
X0131378Y0124528D01*
X0135085Y0127468D02*
X0120431Y0127468D01*
X0117483Y0130916D02*
X0116687Y0130916D01*
X0117068Y0120536D02*
X0117102Y0120536D01*
X0123343Y0110954D02*
X0131924Y0110954D01*
X0131125Y0110155D02*
X0124141Y0110155D01*
X0117140Y0100573D02*
X0117030Y0100573D01*
X0120431Y0097468D02*
X0135085Y0097468D01*
X0136935Y0091789D02*
X0148264Y0091789D01*
X0148264Y0090991D02*
X0138209Y0090991D01*
X0139008Y0090192D02*
X0151232Y0090192D01*
X0151232Y0089394D02*
X0152032Y0089394D01*
X0152032Y0088595D02*
X0151232Y0088595D01*
X0151232Y0087797D02*
X0152032Y0087797D01*
X0154532Y0087797D02*
X0155355Y0087797D01*
X0154969Y0088595D02*
X0154938Y0088595D01*
X0156154Y0086998D02*
X0139785Y0086998D01*
X0139785Y0087797D02*
X0148733Y0087797D01*
X0148326Y0088595D02*
X0139705Y0088595D01*
X0139375Y0089394D02*
X0148264Y0089394D01*
X0156538Y0086200D02*
X0139647Y0086200D01*
X0139316Y0085401D02*
X0156538Y0085401D01*
X0156538Y0084603D02*
X0138866Y0084603D01*
X0138068Y0083804D02*
X0156538Y0083804D01*
X0156538Y0083006D02*
X0136593Y0083006D01*
X0135085Y0087468D02*
X0120431Y0087468D01*
X0117558Y0090991D02*
X0116613Y0090991D01*
X0116852Y0094185D02*
X0117318Y0094185D01*
X0123305Y0090991D02*
X0131961Y0090991D01*
X0131162Y0090192D02*
X0124104Y0090192D01*
X0132379Y0081409D02*
X0091128Y0081409D01*
X0091661Y0080610D02*
X0131580Y0080610D01*
X0130968Y0079812D02*
X0092042Y0079812D01*
X0092297Y0079013D02*
X0130638Y0079013D01*
X0130385Y0078215D02*
X0092442Y0078215D01*
X0092428Y0076618D02*
X0130385Y0076618D01*
X0130385Y0077416D02*
X0086485Y0077416D01*
X0086485Y0076618D02*
X0085685Y0076618D01*
X0085685Y0077068D02*
X0085685Y0071068D01*
X0085666Y0071068D01*
X0084834Y0071178D01*
X0084023Y0071395D01*
X0083248Y0071716D01*
X0082522Y0072135D01*
X0081856Y0072646D01*
X0081263Y0073239D01*
X0080752Y0073905D01*
X0080333Y0074631D01*
X0080012Y0075407D01*
X0079795Y0076217D01*
X0079685Y0077049D01*
X0079685Y0077068D01*
X0085685Y0077068D01*
X0085685Y0077416D02*
X0066485Y0077416D01*
X0066485Y0076618D02*
X0065685Y0076618D01*
X0065685Y0077068D02*
X0065685Y0071068D01*
X0065666Y0071068D01*
X0064834Y0071178D01*
X0064023Y0071395D01*
X0063248Y0071716D01*
X0062522Y0072135D01*
X0061856Y0072646D01*
X0061263Y0073239D01*
X0060752Y0073905D01*
X0060333Y0074631D01*
X0060012Y0075407D01*
X0059795Y0076217D01*
X0059685Y0077049D01*
X0059685Y0077068D01*
X0065685Y0077068D01*
X0065685Y0077416D02*
X0052685Y0077416D01*
X0052685Y0076618D02*
X0059742Y0076618D01*
X0059901Y0075819D02*
X0052546Y0075819D01*
X0052215Y0075021D02*
X0060172Y0075021D01*
X0060569Y0074222D02*
X0051884Y0074222D01*
X0051374Y0073424D02*
X0061122Y0073424D01*
X0061884Y0072625D02*
X0050576Y0072625D01*
X0049711Y0071827D02*
X0063057Y0071827D01*
X0065685Y0071827D02*
X0066485Y0071827D01*
X0066485Y0072625D02*
X0065685Y0072625D01*
X0065685Y0073424D02*
X0066485Y0073424D01*
X0066485Y0074222D02*
X0065685Y0074222D01*
X0065685Y0075021D02*
X0066485Y0075021D01*
X0066485Y0075819D02*
X0065685Y0075819D01*
X0065685Y0078215D02*
X0066485Y0078215D01*
X0066485Y0079013D02*
X0065685Y0079013D01*
X0065685Y0079812D02*
X0066485Y0079812D01*
X0066485Y0080610D02*
X0065685Y0080610D01*
X0065685Y0081409D02*
X0066485Y0081409D01*
X0066485Y0082207D02*
X0065685Y0082207D01*
X0065685Y0083006D02*
X0066485Y0083006D01*
X0069294Y0083006D02*
X0082876Y0083006D01*
X0081773Y0082207D02*
X0070397Y0082207D01*
X0071128Y0081409D02*
X0081042Y0081409D01*
X0080509Y0080610D02*
X0071661Y0080610D01*
X0072042Y0079812D02*
X0080128Y0079812D01*
X0079873Y0079013D02*
X0072297Y0079013D01*
X0072442Y0078215D02*
X0079728Y0078215D01*
X0079742Y0076618D02*
X0072428Y0076618D01*
X0072269Y0075819D02*
X0079901Y0075819D01*
X0080172Y0075021D02*
X0071998Y0075021D01*
X0071601Y0074222D02*
X0080569Y0074222D01*
X0081122Y0073424D02*
X0071048Y0073424D01*
X0070286Y0072625D02*
X0081884Y0072625D01*
X0083057Y0071827D02*
X0069113Y0071827D01*
X0061042Y0081409D02*
X0051478Y0081409D01*
X0051927Y0080610D02*
X0060509Y0080610D01*
X0060128Y0079812D02*
X0052258Y0079812D01*
X0052589Y0079013D02*
X0059873Y0079013D01*
X0059728Y0078215D02*
X0052685Y0078215D01*
X0050680Y0082207D02*
X0061773Y0082207D01*
X0062876Y0083006D02*
X0049881Y0083006D01*
X0055685Y0090991D02*
X0056485Y0090991D01*
X0056485Y0091789D02*
X0055685Y0091789D01*
X0055685Y0092588D02*
X0056485Y0092588D01*
X0056485Y0093386D02*
X0055685Y0093386D01*
X0055685Y0094185D02*
X0056485Y0094185D01*
X0056485Y0094983D02*
X0055685Y0094983D01*
X0055685Y0096580D02*
X0056485Y0096580D01*
X0056485Y0097379D02*
X0055685Y0097379D01*
X0055685Y0098177D02*
X0056485Y0098177D01*
X0056485Y0098976D02*
X0055685Y0098976D01*
X0055685Y0099774D02*
X0056485Y0099774D01*
X0047784Y0071028D02*
X0132329Y0071028D01*
X0133936Y0071827D02*
X0089113Y0071827D01*
X0090286Y0072625D02*
X0161100Y0072625D01*
X0160538Y0083006D02*
X0193577Y0083006D01*
X0192102Y0083804D02*
X0160538Y0083804D01*
X0160538Y0084603D02*
X0191304Y0084603D01*
X0190854Y0085401D02*
X0160538Y0085401D01*
X0161720Y0087797D02*
X0169733Y0087797D01*
X0169326Y0088595D02*
X0162106Y0088595D01*
X0162106Y0089394D02*
X0169264Y0089394D01*
X0169264Y0090991D02*
X0162106Y0090991D01*
X0162106Y0091789D02*
X0169264Y0091789D01*
X0169392Y0092588D02*
X0162106Y0092588D01*
X0161473Y0093386D02*
X0169979Y0093386D01*
X0171630Y0094185D02*
X0178085Y0094185D01*
X0178085Y0094983D02*
X0172429Y0094983D01*
X0173227Y0095782D02*
X0177680Y0095782D01*
X0176970Y0096580D02*
X0174026Y0096580D01*
X0174824Y0097379D02*
X0176640Y0097379D01*
X0176485Y0098177D02*
X0175085Y0098177D01*
X0175085Y0098976D02*
X0176485Y0098976D01*
X0176729Y0099774D02*
X0175085Y0099774D01*
X0175085Y0100573D02*
X0177099Y0100573D01*
X0177897Y0101371D02*
X0175085Y0101371D01*
X0175085Y0102170D02*
X0187555Y0102170D01*
X0187085Y0102968D02*
X0181329Y0102968D01*
X0181721Y0103767D02*
X0187085Y0103767D01*
X0187085Y0104565D02*
X0181721Y0104565D01*
X0181706Y0105364D02*
X0187085Y0105364D01*
X0187085Y0106162D02*
X0181721Y0106162D01*
X0180588Y0104531D02*
X0180588Y0104531D01*
X0177861Y0104531D02*
X0177861Y0106278D01*
X0177861Y0106278D01*
X0177861Y0104531D01*
X0177861Y0102541D01*
X0177861Y0104531D01*
X0177861Y0104531D01*
X0177861Y0104531D01*
X0177861Y0104565D02*
X0177861Y0104565D01*
X0177861Y0103767D02*
X0177861Y0103767D01*
X0177861Y0102968D02*
X0177861Y0102968D01*
X0177861Y0105364D02*
X0177861Y0105364D01*
X0177861Y0106162D02*
X0177861Y0106162D01*
X0177861Y0108468D02*
X0184085Y0108468D01*
X0187085Y0111468D01*
X0187085Y0124468D01*
X0190085Y0127468D01*
X0195085Y0127468D01*
X0201779Y0121334D02*
X0214367Y0121334D01*
X0214367Y0120536D02*
X0200981Y0120536D01*
X0200182Y0119737D02*
X0214367Y0119737D01*
X0214367Y0118939D02*
X0199563Y0118939D01*
X0199785Y0118140D02*
X0214367Y0118140D01*
X0214367Y0117342D02*
X0199785Y0117342D01*
X0199785Y0116543D02*
X0214367Y0116543D01*
X0214367Y0115745D02*
X0199458Y0115745D01*
X0199128Y0114946D02*
X0214367Y0114946D01*
X0214367Y0114148D02*
X0198411Y0114148D01*
X0197422Y0113349D02*
X0214367Y0113349D01*
X0214367Y0112551D02*
X0191085Y0112551D01*
X0191085Y0113349D02*
X0192748Y0113349D01*
X0191759Y0114148D02*
X0191085Y0114148D01*
X0191085Y0111752D02*
X0193146Y0111752D01*
X0191924Y0110954D02*
X0191085Y0110954D01*
X0191085Y0110155D02*
X0191125Y0110155D01*
X0187085Y0108558D02*
X0187003Y0108558D01*
X0187085Y0107760D02*
X0186205Y0107760D01*
X0185406Y0106961D02*
X0187085Y0106961D01*
X0189085Y0103468D02*
X0195085Y0097468D01*
X0192658Y0093386D02*
X0182473Y0093386D01*
X0182085Y0094185D02*
X0191722Y0094185D01*
X0191027Y0094983D02*
X0182085Y0094983D01*
X0182490Y0095782D02*
X0190696Y0095782D01*
X0190385Y0096580D02*
X0183200Y0096580D01*
X0183530Y0097379D02*
X0190385Y0097379D01*
X0190385Y0098177D02*
X0183685Y0098177D01*
X0183685Y0098976D02*
X0190622Y0098976D01*
X0189950Y0099774D02*
X0183441Y0099774D01*
X0183071Y0100573D02*
X0189152Y0100573D01*
X0188353Y0101371D02*
X0182273Y0101371D01*
X0180085Y0098468D02*
X0180085Y0089015D01*
X0179538Y0090468D01*
X0176602Y0093386D02*
X0175285Y0093386D01*
X0175872Y0092588D02*
X0175969Y0092588D01*
X0173032Y0092588D02*
X0172232Y0092588D01*
X0172232Y0093386D02*
X0173032Y0093386D01*
X0173032Y0091789D02*
X0172232Y0091789D01*
X0172232Y0090991D02*
X0173032Y0090991D01*
X0173085Y0098468D02*
X0173085Y0109468D01*
X0174085Y0110468D01*
X0177829Y0110468D01*
X0177861Y0110437D01*
X0177892Y0110468D01*
X0183085Y0110468D01*
X0185085Y0112468D01*
X0185085Y0128468D01*
X0178825Y0134728D01*
X0178825Y0138531D01*
X0175085Y0141468D02*
X0176085Y0142468D01*
X0190085Y0142468D01*
X0195085Y0147468D01*
X0190749Y0149282D02*
X0178211Y0149282D01*
X0178260Y0148484D02*
X0190418Y0148484D01*
X0190385Y0147685D02*
X0178260Y0147685D01*
X0178260Y0146887D02*
X0190385Y0146887D01*
X0190569Y0146088D02*
X0178260Y0146088D01*
X0178260Y0145290D02*
X0190078Y0145290D01*
X0189279Y0144491D02*
X0178260Y0144491D01*
X0175085Y0141468D02*
X0175085Y0134468D01*
X0173431Y0132815D02*
X0173431Y0125468D01*
X0167085Y0125122D02*
X0166739Y0125468D01*
X0167085Y0125122D02*
X0167085Y0107468D01*
X0166117Y0106500D01*
X0162309Y0106500D01*
X0162309Y0104531D02*
X0160148Y0104531D01*
X0156085Y0100468D01*
X0162085Y0104307D02*
X0162309Y0104531D01*
X0162309Y0110437D02*
X0162309Y0112405D01*
X0157148Y0112405D01*
X0150085Y0119468D01*
X0154085Y0119468D01*
X0157085Y0122468D01*
X0157085Y0127122D01*
X0157085Y0126468D01*
X0159085Y0122931D02*
X0162973Y0122931D01*
X0162973Y0123730D02*
X0160090Y0123730D01*
X0160654Y0124528D02*
X0162973Y0124528D01*
X0162973Y0125327D02*
X0160654Y0125327D01*
X0160654Y0126125D02*
X0162973Y0126125D01*
X0162973Y0126924D02*
X0160654Y0126924D01*
X0160654Y0127722D02*
X0162973Y0127722D01*
X0163395Y0128521D02*
X0160654Y0128521D01*
X0159085Y0122133D02*
X0163677Y0122133D01*
X0165085Y0121334D02*
X0158779Y0121334D01*
X0157981Y0120536D02*
X0165085Y0120536D01*
X0165085Y0119737D02*
X0157182Y0119737D01*
X0156384Y0118939D02*
X0165085Y0118939D01*
X0165085Y0118140D02*
X0155585Y0118140D01*
X0155040Y0117342D02*
X0165085Y0117342D01*
X0165085Y0116543D02*
X0155838Y0116543D01*
X0156637Y0115745D02*
X0165085Y0115745D01*
X0165085Y0114946D02*
X0157436Y0114946D01*
X0153921Y0122133D02*
X0152512Y0122133D01*
X0151132Y0122931D02*
X0154720Y0122931D01*
X0150085Y0119468D02*
X0148085Y0117468D01*
X0148085Y0110815D01*
X0147287Y0140498D02*
X0147141Y0140498D01*
X0146347Y0141297D02*
X0148085Y0141297D01*
X0157431Y0153468D02*
X0164479Y0160515D01*
X0169770Y0160515D01*
X0167723Y0160468D01*
X0166992Y0166849D02*
X0164879Y0166849D01*
X0164080Y0167648D02*
X0167143Y0167648D01*
X0169770Y0167648D02*
X0169770Y0167648D01*
X0169770Y0168411D02*
X0169770Y0166643D01*
X0169770Y0168411D01*
X0169770Y0166849D02*
X0169770Y0166849D01*
X0169770Y0166643D02*
X0169770Y0166643D01*
X0170085Y0166468D02*
X0172085Y0166468D01*
X0177085Y0163468D02*
X0177085Y0171968D01*
X0180085Y0174968D01*
X0180085Y0218468D01*
X0183431Y0221815D01*
X0183431Y0237468D01*
X0183085Y0237815D01*
X0185085Y0241111D02*
X0214367Y0241111D01*
X0214367Y0241909D02*
X0185085Y0241909D01*
X0185085Y0242708D02*
X0214367Y0242708D01*
X0214367Y0243506D02*
X0185085Y0243506D01*
X0185085Y0244305D02*
X0214367Y0244305D01*
X0214367Y0245103D02*
X0185085Y0245103D01*
X0185928Y0245902D02*
X0214367Y0245902D01*
X0214367Y0246700D02*
X0187251Y0246700D01*
X0188050Y0247499D02*
X0214367Y0247499D01*
X0214367Y0248298D02*
X0188750Y0248298D01*
X0189081Y0249096D02*
X0214367Y0249096D01*
X0214367Y0249895D02*
X0189411Y0249895D01*
X0189685Y0250693D02*
X0214367Y0250693D01*
X0214367Y0251492D02*
X0189685Y0251492D01*
X0189685Y0252290D02*
X0214367Y0252290D01*
X0214367Y0253089D02*
X0189685Y0253089D01*
X0189393Y0253887D02*
X0214367Y0253887D01*
X0214367Y0254686D02*
X0189062Y0254686D01*
X0188731Y0255484D02*
X0214367Y0255484D01*
X0214367Y0256283D02*
X0188004Y0256283D01*
X0187206Y0257081D02*
X0214367Y0257081D01*
X0214367Y0259477D02*
X0022685Y0259477D01*
X0022685Y0260275D02*
X0214367Y0260275D01*
X0214367Y0261074D02*
X0022685Y0261074D01*
X0022685Y0261872D02*
X0214367Y0261872D01*
X0214367Y0262671D02*
X0022685Y0262671D01*
X0022685Y0263469D02*
X0214367Y0263469D01*
X0214367Y0264268D02*
X0022685Y0264268D01*
X0022685Y0265066D02*
X0214367Y0265066D01*
X0214367Y0265865D02*
X0022685Y0265865D01*
X0022685Y0266663D02*
X0214367Y0266663D01*
X0214367Y0267462D02*
X0022685Y0267462D01*
X0022685Y0268260D02*
X0214367Y0268260D01*
X0214367Y0269059D02*
X0022685Y0269059D01*
X0022685Y0269857D02*
X0214367Y0269857D01*
X0214367Y0270656D02*
X0022685Y0270656D01*
X0022685Y0271454D02*
X0214367Y0271454D01*
X0214367Y0272253D02*
X0022685Y0272253D01*
X0022685Y0273051D02*
X0214367Y0273051D01*
X0214367Y0273850D02*
X0022685Y0273850D01*
X0022685Y0274648D02*
X0214367Y0274648D01*
X0214367Y0275447D02*
X0022685Y0275447D01*
X0022685Y0276245D02*
X0214367Y0276245D01*
X0214367Y0277044D02*
X0022685Y0277044D01*
X0022685Y0277842D02*
X0214367Y0277842D01*
X0214367Y0240312D02*
X0186984Y0240312D01*
X0187197Y0239514D02*
X0214367Y0239514D01*
X0214367Y0238715D02*
X0187197Y0238715D01*
X0187197Y0237917D02*
X0214367Y0237917D01*
X0214367Y0237118D02*
X0187197Y0237118D01*
X0187197Y0236320D02*
X0214367Y0236320D01*
X0214367Y0235521D02*
X0187197Y0235521D01*
X0187083Y0234723D02*
X0214367Y0234723D01*
X0214367Y0233924D02*
X0186284Y0233924D01*
X0185431Y0233126D02*
X0214367Y0233126D01*
X0214367Y0232327D02*
X0185431Y0232327D01*
X0185431Y0231529D02*
X0214367Y0231529D01*
X0214367Y0230730D02*
X0185431Y0230730D01*
X0185431Y0229932D02*
X0214367Y0229932D01*
X0214367Y0229133D02*
X0185431Y0229133D01*
X0185431Y0228335D02*
X0214367Y0228335D01*
X0214367Y0227536D02*
X0185431Y0227536D01*
X0185431Y0226738D02*
X0214367Y0226738D01*
X0214367Y0225939D02*
X0185431Y0225939D01*
X0185431Y0225141D02*
X0214367Y0225141D01*
X0214367Y0224342D02*
X0185431Y0224342D01*
X0185431Y0223544D02*
X0214367Y0223544D01*
X0214367Y0222745D02*
X0185431Y0222745D01*
X0185431Y0221947D02*
X0214367Y0221947D01*
X0214367Y0221148D02*
X0185431Y0221148D01*
X0184795Y0220350D02*
X0214367Y0220350D01*
X0214367Y0219551D02*
X0183996Y0219551D01*
X0183198Y0218753D02*
X0214367Y0218753D01*
X0214367Y0217954D02*
X0182399Y0217954D01*
X0182085Y0217156D02*
X0214367Y0217156D01*
X0214367Y0216357D02*
X0182085Y0216357D01*
X0182085Y0215559D02*
X0214367Y0215559D01*
X0214367Y0214760D02*
X0182085Y0214760D01*
X0182085Y0213962D02*
X0214367Y0213962D01*
X0214367Y0213163D02*
X0182085Y0213163D01*
X0182085Y0212365D02*
X0183890Y0212365D01*
X0183092Y0211566D02*
X0182085Y0211566D01*
X0182085Y0210767D02*
X0182727Y0210767D01*
X0182485Y0209969D02*
X0182085Y0209969D01*
X0182085Y0209170D02*
X0182485Y0209170D01*
X0182642Y0208372D02*
X0182085Y0208372D01*
X0182085Y0207573D02*
X0182973Y0207573D01*
X0183687Y0206775D02*
X0182085Y0206775D01*
X0182085Y0205976D02*
X0185108Y0205976D01*
X0187547Y0205178D02*
X0182085Y0205178D01*
X0182085Y0204379D02*
X0188085Y0204379D01*
X0188085Y0203581D02*
X0182085Y0203581D01*
X0182085Y0202782D02*
X0188085Y0202782D01*
X0188085Y0201984D02*
X0182085Y0201984D01*
X0182085Y0201185D02*
X0188085Y0201185D01*
X0188085Y0200387D02*
X0182085Y0200387D01*
X0182085Y0199588D02*
X0188085Y0199588D01*
X0188085Y0198790D02*
X0182085Y0198790D01*
X0182085Y0197991D02*
X0188085Y0197991D01*
X0188085Y0197193D02*
X0182085Y0197193D01*
X0182085Y0196394D02*
X0188085Y0196394D01*
X0188085Y0195596D02*
X0182085Y0195596D01*
X0182085Y0194797D02*
X0188085Y0194797D01*
X0188085Y0193999D02*
X0182085Y0193999D01*
X0182085Y0193200D02*
X0188085Y0193200D01*
X0188085Y0192402D02*
X0182085Y0192402D01*
X0182085Y0191603D02*
X0182786Y0191603D01*
X0187384Y0191603D02*
X0188085Y0191603D01*
X0192085Y0191603D02*
X0192786Y0191603D01*
X0193085Y0192402D02*
X0192085Y0192402D01*
X0192085Y0193200D02*
X0193085Y0193200D01*
X0193085Y0193999D02*
X0192085Y0193999D01*
X0192085Y0194797D02*
X0193085Y0194797D01*
X0193085Y0195596D02*
X0192085Y0195596D01*
X0192085Y0196394D02*
X0193085Y0196394D01*
X0193085Y0197193D02*
X0192085Y0197193D01*
X0192085Y0197991D02*
X0193085Y0197991D01*
X0193085Y0198790D02*
X0192085Y0198790D01*
X0192085Y0199588D02*
X0193085Y0199588D01*
X0193085Y0200387D02*
X0192085Y0200387D01*
X0192085Y0201185D02*
X0193085Y0201185D01*
X0193085Y0201984D02*
X0192085Y0201984D01*
X0192085Y0202782D02*
X0193085Y0202782D01*
X0193085Y0203581D02*
X0192085Y0203581D01*
X0192085Y0204379D02*
X0193085Y0204379D01*
X0193085Y0205178D02*
X0192085Y0205178D01*
X0192085Y0205976D02*
X0193085Y0205976D01*
X0192687Y0206775D02*
X0191607Y0206775D01*
X0191973Y0207573D02*
X0190808Y0207573D01*
X0190010Y0208372D02*
X0191642Y0208372D01*
X0191485Y0209170D02*
X0189685Y0209170D01*
X0189685Y0209969D02*
X0191485Y0209969D01*
X0191727Y0210767D02*
X0189443Y0210767D01*
X0189078Y0211566D02*
X0192092Y0211566D01*
X0192890Y0212365D02*
X0188280Y0212365D01*
X0186085Y0209468D02*
X0190085Y0205468D01*
X0190085Y0165468D01*
X0193085Y0162468D01*
X0199085Y0162468D01*
X0202085Y0159468D01*
X0202085Y0124468D01*
X0195085Y0117468D01*
X0197025Y0111752D02*
X0214367Y0111752D01*
X0214367Y0110954D02*
X0198246Y0110954D01*
X0199045Y0110155D02*
X0214367Y0110155D01*
X0214367Y0109357D02*
X0199390Y0109357D01*
X0199721Y0108558D02*
X0214367Y0108558D01*
X0214367Y0107760D02*
X0199785Y0107760D01*
X0199785Y0106961D02*
X0214367Y0106961D01*
X0214367Y0106162D02*
X0199631Y0106162D01*
X0199301Y0105364D02*
X0214367Y0105364D01*
X0214367Y0104565D02*
X0198829Y0104565D01*
X0198031Y0103767D02*
X0214367Y0103767D01*
X0214367Y0091789D02*
X0196935Y0091789D01*
X0198209Y0090991D02*
X0214367Y0090991D01*
X0214367Y0090192D02*
X0199008Y0090192D01*
X0199375Y0089394D02*
X0214367Y0089394D01*
X0214367Y0088595D02*
X0199705Y0088595D01*
X0199785Y0087797D02*
X0214367Y0087797D01*
X0214367Y0086998D02*
X0199785Y0086998D01*
X0199647Y0086200D02*
X0214367Y0086200D01*
X0214367Y0085401D02*
X0199316Y0085401D01*
X0198866Y0084603D02*
X0214367Y0084603D01*
X0214367Y0083804D02*
X0198068Y0083804D01*
X0196593Y0083006D02*
X0214367Y0083006D01*
X0214367Y0061446D02*
X0197191Y0061446D01*
X0197444Y0061317D02*
X0196812Y0061638D01*
X0196139Y0061857D01*
X0195485Y0061961D01*
X0195485Y0057868D01*
X0199578Y0057868D01*
X0199474Y0058522D01*
X0199255Y0059196D01*
X0198934Y0059827D01*
X0198517Y0060400D01*
X0198017Y0060901D01*
X0197444Y0061317D01*
X0198270Y0060647D02*
X0214367Y0060647D01*
X0214367Y0059849D02*
X0198918Y0059849D01*
X0199303Y0059050D02*
X0214367Y0059050D01*
X0214367Y0058252D02*
X0199517Y0058252D01*
X0199578Y0057068D02*
X0195485Y0057068D01*
X0195485Y0052975D01*
X0196139Y0053079D01*
X0196812Y0053298D01*
X0197444Y0053619D01*
X0198017Y0054036D01*
X0198517Y0054537D01*
X0198934Y0055110D01*
X0199255Y0055741D01*
X0199474Y0056414D01*
X0199578Y0057068D01*
X0199512Y0056655D02*
X0214367Y0056655D01*
X0214367Y0057453D02*
X0195485Y0057453D01*
X0195485Y0057068D02*
X0195485Y0057868D01*
X0194685Y0057868D01*
X0194685Y0057068D01*
X0195485Y0057068D01*
X0195485Y0056655D02*
X0194685Y0056655D01*
X0194685Y0057068D02*
X0194685Y0052975D01*
X0194031Y0053079D01*
X0193358Y0053298D01*
X0192727Y0053619D01*
X0192153Y0054036D01*
X0191653Y0054537D01*
X0191236Y0055110D01*
X0190915Y0055741D01*
X0190696Y0056414D01*
X0190592Y0057068D01*
X0194685Y0057068D01*
X0194685Y0057453D02*
X0139785Y0057453D01*
X0139785Y0056655D02*
X0190658Y0056655D01*
X0190877Y0055856D02*
X0139505Y0055856D01*
X0139174Y0055058D02*
X0191274Y0055058D01*
X0191930Y0054259D02*
X0138523Y0054259D01*
X0137692Y0053461D02*
X0193038Y0053461D01*
X0194685Y0053461D02*
X0195485Y0053461D01*
X0195485Y0054259D02*
X0194685Y0054259D01*
X0194685Y0055058D02*
X0195485Y0055058D01*
X0195485Y0055856D02*
X0194685Y0055856D01*
X0194685Y0057868D02*
X0190592Y0057868D01*
X0190696Y0058522D01*
X0190915Y0059196D01*
X0191236Y0059827D01*
X0191653Y0060400D01*
X0192153Y0060901D01*
X0192727Y0061317D01*
X0193358Y0061638D01*
X0194031Y0061857D01*
X0194685Y0061961D01*
X0194685Y0057868D01*
X0194685Y0058252D02*
X0195485Y0058252D01*
X0195485Y0059050D02*
X0194685Y0059050D01*
X0194685Y0059849D02*
X0195485Y0059849D01*
X0195485Y0060647D02*
X0194685Y0060647D01*
X0194685Y0061446D02*
X0195485Y0061446D01*
X0192980Y0061446D02*
X0137754Y0061446D01*
X0138553Y0060647D02*
X0191900Y0060647D01*
X0191252Y0059849D02*
X0139186Y0059849D01*
X0139517Y0059050D02*
X0190868Y0059050D01*
X0190653Y0058252D02*
X0139785Y0058252D01*
X0137749Y0063841D02*
X0192065Y0063841D01*
X0191267Y0064640D02*
X0138592Y0064640D01*
X0139101Y0065438D02*
X0190839Y0065438D01*
X0190508Y0066237D02*
X0139417Y0066237D01*
X0139573Y0067035D02*
X0190385Y0067035D01*
X0193487Y0063043D02*
X0135911Y0063043D01*
X0135485Y0063043D02*
X0134685Y0063043D01*
X0134685Y0063841D02*
X0135485Y0063841D01*
X0135485Y0064640D02*
X0134685Y0064640D01*
X0134685Y0065438D02*
X0135485Y0065438D01*
X0135485Y0066237D02*
X0134685Y0066237D01*
X0134685Y0067035D02*
X0135485Y0067035D01*
X0135485Y0069431D02*
X0134685Y0069431D01*
X0134685Y0070229D02*
X0135485Y0070229D01*
X0135485Y0071028D02*
X0134685Y0071028D01*
X0134685Y0071827D02*
X0135485Y0071827D01*
X0132568Y0073424D02*
X0091048Y0073424D01*
X0091601Y0074222D02*
X0131684Y0074222D01*
X0131012Y0075021D02*
X0091998Y0075021D01*
X0092269Y0075819D02*
X0130681Y0075819D01*
X0109973Y0099774D02*
X0105607Y0099774D01*
X0103144Y0096580D02*
X0102085Y0096580D01*
X0102085Y0095782D02*
X0103943Y0095782D01*
X0102346Y0097379D02*
X0102085Y0097379D01*
X0086485Y0083006D02*
X0085685Y0083006D01*
X0085685Y0082207D02*
X0086485Y0082207D01*
X0086485Y0081409D02*
X0085685Y0081409D01*
X0085685Y0080610D02*
X0086485Y0080610D01*
X0086485Y0079812D02*
X0085685Y0079812D01*
X0085685Y0079013D02*
X0086485Y0079013D01*
X0086485Y0078215D02*
X0085685Y0078215D01*
X0085685Y0075819D02*
X0086485Y0075819D01*
X0086485Y0075021D02*
X0085685Y0075021D01*
X0085685Y0074222D02*
X0086485Y0074222D01*
X0086485Y0073424D02*
X0085685Y0073424D01*
X0085685Y0072625D02*
X0086485Y0072625D01*
X0086485Y0071827D02*
X0085685Y0071827D01*
X0105580Y0154872D02*
X0131073Y0154872D01*
X0130907Y0159663D02*
X0105982Y0159663D01*
X0105183Y0160461D02*
X0131431Y0160461D01*
X0138300Y0174036D02*
X0146973Y0174036D01*
X0147708Y0174834D02*
X0139081Y0174834D01*
X0139412Y0175633D02*
X0148085Y0175633D01*
X0148085Y0176431D02*
X0139743Y0176431D01*
X0139785Y0177230D02*
X0148085Y0177230D01*
X0148085Y0178029D02*
X0139785Y0178029D01*
X0139609Y0178827D02*
X0148085Y0178827D01*
X0148085Y0179626D02*
X0139279Y0179626D01*
X0138776Y0180424D02*
X0148085Y0180424D01*
X0148085Y0181223D02*
X0137977Y0181223D01*
X0136375Y0182021D02*
X0148085Y0182021D01*
X0148085Y0182820D02*
X0146144Y0182820D01*
X0147882Y0183618D02*
X0148085Y0183618D01*
X0144026Y0182820D02*
X0136144Y0182820D01*
X0137882Y0183618D02*
X0142288Y0183618D01*
X0141490Y0184417D02*
X0138680Y0184417D01*
X0139239Y0185215D02*
X0140931Y0185215D01*
X0140600Y0186014D02*
X0139570Y0186014D01*
X0139785Y0186812D02*
X0140385Y0186812D01*
X0140385Y0187611D02*
X0139785Y0187611D01*
X0139783Y0188409D02*
X0140388Y0188409D01*
X0140718Y0189208D02*
X0139452Y0189208D01*
X0139121Y0190006D02*
X0141049Y0190006D01*
X0141775Y0190805D02*
X0138395Y0190805D01*
X0137384Y0191603D02*
X0142786Y0191603D01*
X0147384Y0191603D02*
X0148085Y0191603D01*
X0148085Y0192402D02*
X0137085Y0192402D01*
X0137085Y0193200D02*
X0148085Y0193200D01*
X0148085Y0193999D02*
X0137085Y0193999D01*
X0137085Y0194797D02*
X0148586Y0194797D01*
X0149384Y0195596D02*
X0137085Y0195596D01*
X0137085Y0196394D02*
X0150183Y0196394D01*
X0150981Y0197193D02*
X0137085Y0197193D01*
X0137085Y0197991D02*
X0151780Y0197991D01*
X0152578Y0198790D02*
X0137085Y0198790D01*
X0137085Y0199588D02*
X0153377Y0199588D01*
X0154175Y0200387D02*
X0137085Y0200387D01*
X0137085Y0201185D02*
X0154974Y0201185D01*
X0155772Y0201984D02*
X0137085Y0201984D01*
X0137085Y0202782D02*
X0156571Y0202782D01*
X0157369Y0203581D02*
X0137085Y0203581D01*
X0137085Y0204379D02*
X0158168Y0204379D01*
X0158966Y0205178D02*
X0137085Y0205178D01*
X0137085Y0205976D02*
X0159765Y0205976D01*
X0160563Y0206775D02*
X0137085Y0206775D01*
X0137085Y0207573D02*
X0161362Y0207573D01*
X0161431Y0208372D02*
X0137085Y0208372D01*
X0137085Y0209170D02*
X0161431Y0209170D01*
X0161431Y0209969D02*
X0137085Y0209969D01*
X0137085Y0210767D02*
X0161431Y0210767D01*
X0161431Y0211566D02*
X0137085Y0211566D01*
X0137810Y0212365D02*
X0161431Y0212365D01*
X0161431Y0213163D02*
X0140513Y0213163D01*
X0141670Y0213962D02*
X0161431Y0213962D01*
X0161431Y0214760D02*
X0142274Y0214760D01*
X0142605Y0215559D02*
X0161431Y0215559D01*
X0161431Y0216357D02*
X0142685Y0216357D01*
X0142685Y0217156D02*
X0161431Y0217156D01*
X0161431Y0217954D02*
X0142366Y0217954D01*
X0141892Y0218753D02*
X0161431Y0218753D01*
X0161431Y0219551D02*
X0141049Y0219551D01*
X0139085Y0216468D02*
X0135085Y0212468D01*
X0129085Y0218468D01*
X0131085Y0219551D02*
X0137121Y0219551D01*
X0136278Y0218753D02*
X0131629Y0218753D01*
X0132428Y0217954D02*
X0135804Y0217954D01*
X0135485Y0217156D02*
X0133226Y0217156D01*
X0134025Y0216357D02*
X0135485Y0216357D01*
X0135347Y0215559D02*
X0134823Y0215559D01*
X0135085Y0212468D02*
X0135085Y0187468D01*
X0152085Y0183618D02*
X0152288Y0183618D01*
X0152085Y0182820D02*
X0154026Y0182820D01*
X0152786Y0191603D02*
X0152085Y0191603D01*
X0161431Y0220350D02*
X0131085Y0220350D01*
X0131085Y0221148D02*
X0161431Y0221148D01*
X0161431Y0221947D02*
X0131085Y0221947D01*
X0131085Y0222745D02*
X0161431Y0222745D01*
X0161431Y0223544D02*
X0131085Y0223544D01*
X0131085Y0224342D02*
X0161431Y0224342D01*
X0161431Y0225141D02*
X0131085Y0225141D01*
X0131085Y0225939D02*
X0161431Y0225939D01*
X0161431Y0226738D02*
X0131085Y0226738D01*
X0131085Y0227536D02*
X0161431Y0227536D01*
X0161431Y0228335D02*
X0131085Y0228335D01*
X0131085Y0229133D02*
X0161431Y0229133D01*
X0161431Y0229932D02*
X0131085Y0229932D01*
X0131085Y0230730D02*
X0161431Y0230730D01*
X0161431Y0231529D02*
X0131085Y0231529D01*
X0131085Y0232327D02*
X0161431Y0232327D01*
X0161431Y0233126D02*
X0131085Y0233126D01*
X0131085Y0233924D02*
X0160579Y0233924D01*
X0157139Y0234723D02*
X0156339Y0234723D01*
X0156339Y0234100D02*
X0156339Y0237068D01*
X0153173Y0237068D01*
X0153173Y0235315D01*
X0153269Y0234959D01*
X0153453Y0234640D01*
X0153714Y0234379D01*
X0154033Y0234195D01*
X0154389Y0234100D01*
X0156339Y0234100D01*
X0156339Y0235521D02*
X0157139Y0235521D01*
X0157139Y0236320D02*
X0156339Y0236320D01*
X0156339Y0237118D02*
X0130263Y0237118D01*
X0131062Y0236320D02*
X0153173Y0236320D01*
X0153173Y0235521D02*
X0131085Y0235521D01*
X0131085Y0234723D02*
X0153405Y0234723D01*
X0153173Y0237917D02*
X0129465Y0237917D01*
X0128666Y0238715D02*
X0153173Y0238715D01*
X0153173Y0239514D02*
X0127868Y0239514D01*
X0127069Y0240312D02*
X0153469Y0240312D01*
X0156339Y0240312D02*
X0157139Y0240312D01*
X0157139Y0239514D02*
X0156339Y0239514D01*
X0156339Y0238715D02*
X0157139Y0238715D01*
X0157139Y0237917D02*
X0156339Y0237917D01*
X0143485Y0245902D02*
X0142685Y0245902D01*
X0142685Y0245468D02*
X0142685Y0251468D01*
X0136685Y0251468D01*
X0136685Y0251449D01*
X0136795Y0250617D01*
X0137012Y0249807D01*
X0137333Y0249031D01*
X0137752Y0248305D01*
X0138263Y0247639D01*
X0138856Y0247046D01*
X0139522Y0246535D01*
X0140248Y0246116D01*
X0141023Y0245795D01*
X0141834Y0245578D01*
X0142666Y0245468D01*
X0142685Y0245468D01*
X0142685Y0246700D02*
X0143485Y0246700D01*
X0143485Y0247499D02*
X0142685Y0247499D01*
X0142685Y0248298D02*
X0143485Y0248298D01*
X0143485Y0249096D02*
X0142685Y0249096D01*
X0142685Y0249895D02*
X0143485Y0249895D01*
X0143485Y0250693D02*
X0142685Y0250693D01*
X0142685Y0251492D02*
X0124128Y0251492D01*
X0124255Y0251741D02*
X0124474Y0252414D01*
X0124578Y0253068D01*
X0120485Y0253068D01*
X0120485Y0248975D01*
X0121139Y0249079D01*
X0121812Y0249298D01*
X0122444Y0249619D01*
X0123017Y0250036D01*
X0123517Y0250537D01*
X0123934Y0251110D01*
X0124255Y0251741D01*
X0124434Y0252290D02*
X0136685Y0252290D01*
X0136790Y0253089D02*
X0120485Y0253089D01*
X0120485Y0253068D02*
X0120485Y0253868D01*
X0124578Y0253868D01*
X0124474Y0254522D01*
X0124255Y0255196D01*
X0123934Y0255827D01*
X0123517Y0256400D01*
X0123017Y0256901D01*
X0122444Y0257317D01*
X0121812Y0257638D01*
X0121139Y0257857D01*
X0120485Y0257961D01*
X0120485Y0253868D01*
X0119685Y0253868D01*
X0119685Y0253068D01*
X0120485Y0253068D01*
X0120485Y0252290D02*
X0119685Y0252290D01*
X0119685Y0253068D02*
X0119685Y0248975D01*
X0119031Y0249079D01*
X0118358Y0249298D01*
X0117727Y0249619D01*
X0117153Y0250036D01*
X0116653Y0250537D01*
X0116236Y0251110D01*
X0115915Y0251741D01*
X0115696Y0252414D01*
X0115592Y0253068D01*
X0119685Y0253068D01*
X0119685Y0253089D02*
X0040485Y0253089D01*
X0040485Y0253887D02*
X0039685Y0253887D01*
X0039685Y0254686D02*
X0040485Y0254686D01*
X0040485Y0255484D02*
X0039685Y0255484D01*
X0039685Y0256283D02*
X0040485Y0256283D01*
X0040485Y0257081D02*
X0039685Y0257081D01*
X0039685Y0257880D02*
X0040485Y0257880D01*
X0043700Y0257880D02*
X0119172Y0257880D01*
X0119031Y0257857D02*
X0118358Y0257638D01*
X0117727Y0257317D01*
X0117153Y0256901D01*
X0116653Y0256400D01*
X0116236Y0255827D01*
X0115915Y0255196D01*
X0115696Y0254522D01*
X0115592Y0253868D01*
X0119685Y0253868D01*
X0119685Y0257961D01*
X0119031Y0257857D01*
X0119685Y0257880D02*
X0120485Y0257880D01*
X0120998Y0257880D02*
X0140874Y0257880D01*
X0139366Y0257081D02*
X0122768Y0257081D01*
X0123603Y0256283D02*
X0138449Y0256283D01*
X0137793Y0255484D02*
X0124108Y0255484D01*
X0124421Y0254686D02*
X0137325Y0254686D01*
X0137000Y0253887D02*
X0124575Y0253887D01*
X0123631Y0250693D02*
X0136785Y0250693D01*
X0136988Y0249895D02*
X0122822Y0249895D01*
X0121191Y0249096D02*
X0137306Y0249096D01*
X0137758Y0248298D02*
X0022685Y0248298D01*
X0022685Y0249096D02*
X0036388Y0249096D01*
X0035663Y0249895D02*
X0022685Y0249895D01*
X0022685Y0250693D02*
X0035585Y0250693D01*
X0035585Y0251492D02*
X0022685Y0251492D01*
X0022685Y0252290D02*
X0035585Y0252290D01*
X0038084Y0247499D02*
X0022685Y0247499D01*
X0022685Y0246700D02*
X0036953Y0246700D01*
X0036291Y0245902D02*
X0022685Y0245902D01*
X0022685Y0245103D02*
X0035885Y0245103D01*
X0035661Y0244305D02*
X0022685Y0244305D01*
X0042086Y0247499D02*
X0117535Y0247499D01*
X0116671Y0246700D02*
X0043217Y0246700D01*
X0043879Y0245902D02*
X0116006Y0245902D01*
X0115675Y0245103D02*
X0044285Y0245103D01*
X0044509Y0244305D02*
X0115385Y0244305D01*
X0115643Y0241909D02*
X0102184Y0241909D01*
X0103533Y0241111D02*
X0115974Y0241111D01*
X0116290Y0236320D02*
X0104028Y0236320D01*
X0103229Y0235521D02*
X0115848Y0235521D01*
X0115801Y0231529D02*
X0103103Y0231529D01*
X0103914Y0230730D02*
X0116176Y0230730D01*
X0124164Y0245902D02*
X0140765Y0245902D01*
X0139307Y0246700D02*
X0123500Y0246700D01*
X0122635Y0247499D02*
X0138403Y0247499D01*
X0120485Y0249096D02*
X0119685Y0249096D01*
X0118979Y0249096D02*
X0043782Y0249096D01*
X0044507Y0249895D02*
X0117348Y0249895D01*
X0116539Y0250693D02*
X0044585Y0250693D01*
X0044585Y0251492D02*
X0116042Y0251492D01*
X0115736Y0252290D02*
X0044585Y0252290D01*
X0044585Y0253887D02*
X0115595Y0253887D01*
X0115749Y0254686D02*
X0044585Y0254686D01*
X0044585Y0255484D02*
X0116062Y0255484D01*
X0116568Y0256283D02*
X0044585Y0256283D01*
X0044497Y0257081D02*
X0117402Y0257081D01*
X0119685Y0257081D02*
X0120485Y0257081D01*
X0120485Y0256283D02*
X0119685Y0256283D01*
X0119685Y0255484D02*
X0120485Y0255484D01*
X0120485Y0254686D02*
X0119685Y0254686D01*
X0119685Y0253887D02*
X0120485Y0253887D01*
X0120485Y0251492D02*
X0119685Y0251492D01*
X0119685Y0250693D02*
X0120485Y0250693D01*
X0120485Y0249895D02*
X0119685Y0249895D01*
X0068085Y0178827D02*
X0063033Y0178827D01*
X0066353Y0178029D02*
X0068085Y0178029D01*
X0068085Y0177230D02*
X0067152Y0177230D01*
X0067950Y0176431D02*
X0068085Y0176431D01*
X0053032Y0207573D02*
X0052232Y0207573D01*
X0052232Y0208372D02*
X0053032Y0208372D01*
X0053032Y0209170D02*
X0052232Y0209170D01*
X0049264Y0207573D02*
X0042456Y0207573D01*
X0111085Y0157468D02*
X0113085Y0157468D01*
X0164727Y0149282D02*
X0171959Y0149282D01*
X0172758Y0150081D02*
X0165526Y0150081D01*
X0166324Y0150879D02*
X0189846Y0150879D01*
X0189047Y0151678D02*
X0167123Y0151678D01*
X0167921Y0152476D02*
X0188249Y0152476D01*
X0187450Y0153275D02*
X0168720Y0153275D01*
X0169518Y0154073D02*
X0186652Y0154073D01*
X0187257Y0153468D02*
X0187257Y0153468D01*
X0186085Y0154872D02*
X0185317Y0154872D01*
X0186085Y0155640D02*
X0186085Y0155640D01*
X0191080Y0150081D02*
X0177412Y0150081D01*
X0173085Y0142096D02*
X0169804Y0142096D01*
X0170957Y0141297D02*
X0171732Y0141297D01*
X0171732Y0140498D02*
X0170957Y0140498D01*
X0170957Y0139700D02*
X0171732Y0139700D01*
X0168370Y0139700D02*
X0165145Y0139700D01*
X0165944Y0140498D02*
X0168373Y0140498D01*
X0177038Y0160515D02*
X0180400Y0160515D01*
X0180400Y0162484D02*
X0178069Y0162484D01*
X0177085Y0163468D01*
X0192085Y0171640D02*
X0192876Y0171640D01*
X0192085Y0172439D02*
X0214367Y0172439D01*
X0214367Y0173237D02*
X0197153Y0173237D01*
X0198300Y0174036D02*
X0214367Y0174036D01*
X0214367Y0174834D02*
X0199081Y0174834D01*
X0197294Y0171640D02*
X0214367Y0171640D01*
X0214367Y0170842D02*
X0198358Y0170842D01*
X0199106Y0170043D02*
X0214367Y0170043D01*
X0214367Y0169245D02*
X0199436Y0169245D01*
X0199767Y0168446D02*
X0214367Y0168446D01*
X0214367Y0167648D02*
X0199785Y0167648D01*
X0199785Y0166849D02*
X0214367Y0166849D01*
X0214367Y0166051D02*
X0199585Y0166051D01*
X0199254Y0165252D02*
X0214367Y0165252D01*
X0214367Y0164454D02*
X0199928Y0164454D01*
X0200726Y0163655D02*
X0214367Y0163655D01*
X0214367Y0162857D02*
X0201525Y0162857D01*
X0202323Y0162058D02*
X0214367Y0162058D01*
X0214367Y0161260D02*
X0203122Y0161260D01*
X0203920Y0160461D02*
X0214367Y0160461D01*
X0214367Y0159663D02*
X0204085Y0159663D01*
X0204085Y0158864D02*
X0214367Y0158864D01*
X0214367Y0158066D02*
X0204085Y0158066D01*
X0204085Y0157267D02*
X0214367Y0157267D01*
X0214367Y0156469D02*
X0204085Y0156469D01*
X0204085Y0155670D02*
X0214367Y0155670D01*
X0214367Y0154872D02*
X0204085Y0154872D01*
X0204085Y0154073D02*
X0214367Y0154073D01*
X0214367Y0153275D02*
X0204085Y0153275D01*
X0204085Y0152476D02*
X0214367Y0152476D01*
X0214367Y0151678D02*
X0204085Y0151678D01*
X0204085Y0150879D02*
X0214367Y0150879D01*
X0214367Y0150081D02*
X0204085Y0150081D01*
X0204085Y0149282D02*
X0214367Y0149282D01*
X0214367Y0148484D02*
X0204085Y0148484D01*
X0204085Y0147685D02*
X0214367Y0147685D01*
X0214367Y0146887D02*
X0204085Y0146887D01*
X0204085Y0146088D02*
X0214367Y0146088D01*
X0214367Y0145290D02*
X0204085Y0145290D01*
X0204085Y0144491D02*
X0214367Y0144491D01*
X0214367Y0143693D02*
X0204085Y0143693D01*
X0204085Y0142894D02*
X0214367Y0142894D01*
X0214367Y0142096D02*
X0204085Y0142096D01*
X0204085Y0141297D02*
X0214367Y0141297D01*
X0214367Y0140498D02*
X0204085Y0140498D01*
X0204085Y0139700D02*
X0214367Y0139700D01*
X0214367Y0138901D02*
X0204085Y0138901D01*
X0204085Y0138103D02*
X0214367Y0138103D01*
X0214367Y0137304D02*
X0204085Y0137304D01*
X0204085Y0136506D02*
X0214367Y0136506D01*
X0214367Y0135707D02*
X0204085Y0135707D01*
X0204085Y0134909D02*
X0214367Y0134909D01*
X0214367Y0134110D02*
X0204085Y0134110D01*
X0204085Y0133312D02*
X0214367Y0133312D01*
X0214367Y0132513D02*
X0204085Y0132513D01*
X0204085Y0131715D02*
X0214367Y0131715D01*
X0214367Y0130916D02*
X0204085Y0130916D01*
X0204085Y0130118D02*
X0214367Y0130118D01*
X0214367Y0129319D02*
X0204085Y0129319D01*
X0204085Y0128521D02*
X0214367Y0128521D01*
X0214367Y0127722D02*
X0204085Y0127722D01*
X0204085Y0126924D02*
X0214367Y0126924D01*
X0214367Y0126125D02*
X0204085Y0126125D01*
X0204085Y0125327D02*
X0214367Y0125327D01*
X0214367Y0124528D02*
X0204085Y0124528D01*
X0204085Y0123730D02*
X0214367Y0123730D01*
X0214367Y0122931D02*
X0203377Y0122931D01*
X0202578Y0122133D02*
X0214367Y0122133D01*
X0193017Y0173237D02*
X0192085Y0173237D01*
X0195085Y0177468D02*
X0205085Y0177468D01*
X0208085Y0180468D01*
X0204485Y0180424D02*
X0198776Y0180424D01*
X0199279Y0179626D02*
X0204414Y0179626D01*
X0204501Y0181223D02*
X0197977Y0181223D01*
X0196375Y0182021D02*
X0204832Y0182021D01*
X0205345Y0182820D02*
X0196144Y0182820D01*
X0197882Y0183618D02*
X0206282Y0183618D01*
X0209888Y0183618D02*
X0214367Y0183618D01*
X0214367Y0182820D02*
X0210825Y0182820D01*
X0211338Y0182021D02*
X0214367Y0182021D01*
X0214367Y0181223D02*
X0211669Y0181223D01*
X0211685Y0180424D02*
X0214367Y0180424D01*
X0214367Y0179626D02*
X0211633Y0179626D01*
X0211302Y0178827D02*
X0214367Y0178827D01*
X0214367Y0178029D02*
X0210737Y0178029D01*
X0209675Y0177230D02*
X0214367Y0177230D01*
X0214367Y0176431D02*
X0206877Y0176431D01*
X0206078Y0175633D02*
X0214367Y0175633D01*
X0214367Y0184417D02*
X0198680Y0184417D01*
X0199239Y0185215D02*
X0214367Y0185215D01*
X0214367Y0186014D02*
X0199570Y0186014D01*
X0199785Y0186812D02*
X0214367Y0186812D01*
X0214367Y0187611D02*
X0199785Y0187611D01*
X0199783Y0188409D02*
X0214367Y0188409D01*
X0214367Y0189208D02*
X0199452Y0189208D01*
X0199121Y0190006D02*
X0214367Y0190006D01*
X0214367Y0190805D02*
X0198395Y0190805D01*
X0197384Y0191603D02*
X0214367Y0191603D01*
X0214367Y0192402D02*
X0197085Y0192402D01*
X0197085Y0193200D02*
X0214367Y0193200D01*
X0214367Y0193999D02*
X0197085Y0193999D01*
X0197085Y0194797D02*
X0214367Y0194797D01*
X0214367Y0195596D02*
X0197085Y0195596D01*
X0197085Y0196394D02*
X0214367Y0196394D01*
X0214367Y0197193D02*
X0197085Y0197193D01*
X0197085Y0197991D02*
X0214367Y0197991D01*
X0214367Y0198790D02*
X0197085Y0198790D01*
X0197085Y0199588D02*
X0214367Y0199588D01*
X0214367Y0200387D02*
X0197085Y0200387D01*
X0197085Y0201185D02*
X0214367Y0201185D01*
X0214367Y0201984D02*
X0197085Y0201984D01*
X0197085Y0202782D02*
X0214367Y0202782D01*
X0214367Y0203581D02*
X0197085Y0203581D01*
X0197085Y0204379D02*
X0214367Y0204379D01*
X0214367Y0205178D02*
X0197085Y0205178D01*
X0197085Y0205976D02*
X0214367Y0205976D01*
X0214367Y0206775D02*
X0197483Y0206775D01*
X0198197Y0207573D02*
X0214367Y0207573D01*
X0214367Y0208372D02*
X0198528Y0208372D01*
X0198685Y0209170D02*
X0214367Y0209170D01*
X0214367Y0209969D02*
X0198685Y0209969D01*
X0198443Y0210767D02*
X0214367Y0210767D01*
X0214367Y0211566D02*
X0198078Y0211566D01*
X0197280Y0212365D02*
X0214367Y0212365D01*
X0195085Y0209468D02*
X0195085Y0187468D01*
X0192288Y0183618D02*
X0192085Y0183618D01*
X0192085Y0182820D02*
X0194026Y0182820D01*
X0193795Y0182021D02*
X0192085Y0182021D01*
X0192085Y0181223D02*
X0192193Y0181223D01*
X0199293Y0055856D02*
X0214367Y0055856D01*
X0214367Y0055058D02*
X0198896Y0055058D01*
X0198240Y0054259D02*
X0214367Y0054259D01*
X0214367Y0053461D02*
X0197132Y0053461D01*
D23*
X0180085Y0098468D03*
X0169085Y0101468D03*
X0156085Y0100468D03*
X0150085Y0119468D03*
X0143085Y0122468D03*
X0144085Y0138468D03*
X0143585Y0158468D03*
X0167085Y0144468D03*
X0166085Y0132468D03*
X0180085Y0174968D03*
X0175085Y0209468D03*
X0186085Y0209468D03*
X0195085Y0209468D03*
X0208085Y0180468D03*
X0139085Y0216468D03*
X0127085Y0208468D03*
X0121085Y0194468D03*
X0100085Y0200468D03*
X0101085Y0228468D03*
X0101085Y0238468D03*
X0103085Y0157468D03*
X0103085Y0150468D03*
X0127085Y0083468D03*
X0121085Y0068468D03*
X0101085Y0060468D03*
X0143085Y0084468D03*
X0165085Y0071468D03*
D24*
X0046085Y0077468D02*
X0046085Y0095468D01*
M02*
