G75*
%MOIN*%
%OFA0B0*%
%FSLAX25Y25*%
%IPPOS*%
%LPD*%
%AMOC8*
5,1,8,0,0,1.08239X$1,22.5*
%
%ADD10C,0.00500*%
%ADD11C,0.00600*%
%ADD12C,0.00800*%
%ADD13C,0.01100*%
%ADD14R,0.01500X0.03000*%
%ADD15R,0.03000X0.01500*%
%ADD16C,0.04400*%
%ADD17C,0.02000*%
%ADD18R,0.02000X0.16200*%
%ADD19R,0.34000X0.02000*%
%ADD20C,0.00394*%
%ADD21C,0.00787*%
D10*
X0043246Y0102718D02*
X0043246Y0105220D01*
X0044914Y0105220D02*
X0043246Y0102718D01*
X0044914Y0102718D02*
X0044914Y0105220D01*
X0045922Y0105220D02*
X0046756Y0105220D01*
X0046339Y0105220D02*
X0046339Y0102718D01*
X0046756Y0102718D02*
X0045922Y0102718D01*
X0047850Y0103552D02*
X0047850Y0105220D01*
X0047850Y0103552D02*
X0048684Y0102718D01*
X0049518Y0103552D01*
X0049518Y0105220D01*
X0052723Y0104803D02*
X0053140Y0105220D01*
X0054391Y0105220D01*
X0054391Y0102718D01*
X0053140Y0102718D01*
X0052723Y0103135D01*
X0052723Y0104803D01*
X0055485Y0105220D02*
X0055485Y0102718D01*
X0057153Y0105220D01*
X0057153Y0102718D01*
X0058248Y0103135D02*
X0058248Y0103969D01*
X0059082Y0103969D01*
X0059916Y0103135D02*
X0059499Y0102718D01*
X0058665Y0102718D01*
X0058248Y0103135D01*
X0059916Y0103135D02*
X0059916Y0104803D01*
X0059499Y0105220D01*
X0058665Y0105220D01*
X0058248Y0104803D01*
X0064167Y0105220D02*
X0064167Y0103552D01*
X0065001Y0102718D01*
X0065835Y0103552D01*
X0065835Y0105220D01*
X0066929Y0105220D02*
X0068597Y0105220D01*
X0068597Y0103969D01*
X0067763Y0104386D01*
X0067346Y0104386D01*
X0066929Y0103969D01*
X0066929Y0103135D01*
X0067346Y0102718D01*
X0068180Y0102718D01*
X0068597Y0103135D01*
X0070335Y0111956D02*
X0072837Y0111956D01*
X0072837Y0113207D01*
X0072420Y0113624D01*
X0071586Y0113624D01*
X0071169Y0113207D01*
X0071169Y0111956D01*
X0071169Y0112790D02*
X0070335Y0113624D01*
X0070752Y0114718D02*
X0070335Y0115135D01*
X0070335Y0115969D01*
X0070752Y0116386D01*
X0071169Y0116386D01*
X0071586Y0115969D01*
X0071586Y0114718D01*
X0070752Y0114718D01*
X0071586Y0114718D02*
X0072420Y0115552D01*
X0072837Y0116386D01*
X0072622Y0155218D02*
X0072622Y0157720D01*
X0071371Y0157720D01*
X0070954Y0157303D01*
X0070954Y0156469D01*
X0071371Y0156052D01*
X0072622Y0156052D01*
X0069860Y0155218D02*
X0069026Y0156052D01*
X0068192Y0155218D01*
X0068192Y0157720D01*
X0067097Y0157720D02*
X0065846Y0157720D01*
X0065429Y0157303D01*
X0065429Y0156469D01*
X0065846Y0156052D01*
X0067097Y0156052D01*
X0066263Y0156052D02*
X0065429Y0155218D01*
X0067097Y0155218D02*
X0067097Y0157720D01*
X0069860Y0157720D02*
X0069860Y0155218D01*
X0069026Y0165218D02*
X0069026Y0167720D01*
X0069860Y0167720D02*
X0068192Y0167720D01*
X0067097Y0167720D02*
X0065429Y0167720D01*
X0066263Y0167720D02*
X0066263Y0165218D01*
X0070954Y0165218D02*
X0070954Y0166886D01*
X0071788Y0167720D01*
X0072622Y0166886D01*
X0072622Y0165218D01*
X0073716Y0165635D02*
X0074133Y0165218D01*
X0075384Y0165218D01*
X0075384Y0167720D01*
X0074133Y0167720D01*
X0073716Y0167303D01*
X0073716Y0166886D01*
X0074133Y0166469D01*
X0075384Y0166469D01*
X0074133Y0166469D02*
X0073716Y0166052D01*
X0073716Y0165635D01*
X0072622Y0166469D02*
X0070954Y0166469D01*
X0071788Y0175218D02*
X0071788Y0177720D01*
X0072622Y0177720D02*
X0070954Y0177720D01*
X0069860Y0177303D02*
X0069860Y0175635D01*
X0069443Y0175218D01*
X0068609Y0175218D01*
X0068192Y0175635D01*
X0067097Y0175218D02*
X0065846Y0175218D01*
X0065429Y0175635D01*
X0065429Y0176052D01*
X0065846Y0176469D01*
X0067097Y0176469D01*
X0065846Y0176469D02*
X0065429Y0176886D01*
X0065429Y0177303D01*
X0065846Y0177720D01*
X0067097Y0177720D01*
X0067097Y0175218D01*
X0068192Y0177303D02*
X0068609Y0177720D01*
X0069443Y0177720D01*
X0069860Y0177303D01*
X0073716Y0177303D02*
X0073716Y0176469D01*
X0074133Y0176052D01*
X0075384Y0176052D01*
X0074550Y0176052D02*
X0073716Y0175218D01*
X0075384Y0175218D02*
X0075384Y0177720D01*
X0074133Y0177720D01*
X0073716Y0177303D01*
X0072205Y0185218D02*
X0072622Y0185635D01*
X0072205Y0185218D02*
X0071371Y0185218D01*
X0070954Y0185635D01*
X0070954Y0186052D01*
X0071371Y0186469D01*
X0072205Y0186469D01*
X0072622Y0186886D01*
X0072622Y0187303D01*
X0072205Y0187720D01*
X0071371Y0187720D01*
X0070954Y0187303D01*
X0069860Y0187720D02*
X0068609Y0187720D01*
X0068192Y0187303D01*
X0068192Y0185635D01*
X0068609Y0185218D01*
X0069860Y0185218D01*
X0069860Y0187720D01*
X0067097Y0187720D02*
X0065846Y0187720D01*
X0065429Y0187303D01*
X0065429Y0186886D01*
X0065846Y0186469D01*
X0067097Y0186469D01*
X0065846Y0186469D02*
X0065429Y0186052D01*
X0065429Y0185635D01*
X0065846Y0185218D01*
X0067097Y0185218D01*
X0067097Y0187720D01*
X0067097Y0195218D02*
X0066263Y0196052D01*
X0065429Y0195218D01*
X0065429Y0197720D01*
X0067097Y0197720D02*
X0067097Y0195218D01*
X0068192Y0195635D02*
X0068192Y0197303D01*
X0068609Y0197720D01*
X0069860Y0197720D01*
X0069860Y0195218D01*
X0068609Y0195218D01*
X0068192Y0195635D01*
X0070954Y0195635D02*
X0071371Y0195218D01*
X0072205Y0195218D01*
X0072622Y0195635D01*
X0072205Y0196469D02*
X0071371Y0196469D01*
X0070954Y0196052D01*
X0070954Y0195635D01*
X0072205Y0196469D02*
X0072622Y0196886D01*
X0072622Y0197303D01*
X0072205Y0197720D01*
X0071371Y0197720D01*
X0070954Y0197303D01*
X0070954Y0205218D02*
X0072622Y0205218D01*
X0072622Y0207720D01*
X0070954Y0207720D01*
X0069860Y0207720D02*
X0069860Y0205218D01*
X0069860Y0206052D02*
X0068609Y0206052D01*
X0068192Y0206469D01*
X0068192Y0207303D01*
X0068609Y0207720D01*
X0069860Y0207720D01*
X0071788Y0206469D02*
X0072622Y0206469D01*
X0067097Y0205218D02*
X0066263Y0206052D01*
X0065429Y0205218D01*
X0065429Y0207720D01*
X0067097Y0207720D02*
X0067097Y0205218D01*
X0104405Y0128720D02*
X0106073Y0128720D01*
X0106073Y0127469D01*
X0105239Y0127886D01*
X0104822Y0127886D01*
X0104405Y0127469D01*
X0104405Y0126635D01*
X0104822Y0126218D01*
X0105656Y0126218D01*
X0106073Y0126635D01*
X0107167Y0126218D02*
X0108001Y0127052D01*
X0107584Y0127052D02*
X0108835Y0127052D01*
X0108835Y0126218D02*
X0108835Y0128720D01*
X0107584Y0128720D01*
X0107167Y0128303D01*
X0107167Y0127469D01*
X0107584Y0127052D01*
X0107584Y0118720D02*
X0107167Y0118303D01*
X0107167Y0117469D01*
X0107584Y0117052D01*
X0108835Y0117052D01*
X0108835Y0116218D02*
X0108835Y0118720D01*
X0107584Y0118720D01*
X0108001Y0117052D02*
X0107167Y0116218D01*
X0106073Y0117469D02*
X0104822Y0118720D01*
X0104822Y0116218D01*
X0104405Y0117469D02*
X0106073Y0117469D01*
X0105656Y0108720D02*
X0104822Y0108720D01*
X0104405Y0108303D01*
X0104405Y0107886D01*
X0104822Y0107469D01*
X0104405Y0107052D01*
X0104405Y0106635D01*
X0104822Y0106218D01*
X0105656Y0106218D01*
X0106073Y0106635D01*
X0107167Y0106218D02*
X0108001Y0107052D01*
X0107584Y0107052D02*
X0108835Y0107052D01*
X0108835Y0106218D02*
X0108835Y0108720D01*
X0107584Y0108720D01*
X0107167Y0108303D01*
X0107167Y0107469D01*
X0107584Y0107052D01*
X0106073Y0108303D02*
X0105656Y0108720D01*
X0105239Y0107469D02*
X0104822Y0107469D01*
X0104822Y0098720D02*
X0104405Y0098303D01*
X0104405Y0097886D01*
X0106073Y0096218D01*
X0104405Y0096218D01*
X0104822Y0098720D02*
X0105656Y0098720D01*
X0106073Y0098303D01*
X0107167Y0098303D02*
X0107167Y0097469D01*
X0107584Y0097052D01*
X0108835Y0097052D01*
X0108835Y0096218D02*
X0108835Y0098720D01*
X0107584Y0098720D01*
X0107167Y0098303D01*
X0108001Y0097052D02*
X0107167Y0096218D01*
X0107584Y0088720D02*
X0107167Y0088303D01*
X0107167Y0087469D01*
X0107584Y0087052D01*
X0108835Y0087052D01*
X0108835Y0086218D02*
X0108835Y0088720D01*
X0107584Y0088720D01*
X0108001Y0087052D02*
X0107167Y0086218D01*
X0106073Y0086218D02*
X0104405Y0086218D01*
X0105239Y0086218D02*
X0105239Y0088720D01*
X0106073Y0087886D01*
X0126335Y0088135D02*
X0126752Y0087718D01*
X0126335Y0088135D02*
X0126335Y0088969D01*
X0126752Y0089386D01*
X0127169Y0089386D01*
X0127586Y0088969D01*
X0127586Y0088552D01*
X0127586Y0088969D02*
X0128003Y0089386D01*
X0128420Y0089386D01*
X0128837Y0088969D01*
X0128837Y0088135D01*
X0128420Y0087718D01*
X0128420Y0086624D02*
X0128837Y0086207D01*
X0128837Y0085373D01*
X0128420Y0084956D01*
X0128420Y0086624D02*
X0128003Y0086624D01*
X0126335Y0084956D01*
X0126335Y0086624D01*
X0126752Y0080767D02*
X0126335Y0080350D01*
X0126335Y0079516D01*
X0126752Y0079099D01*
X0127169Y0078005D02*
X0126335Y0077171D01*
X0127169Y0076337D01*
X0128837Y0076337D01*
X0128420Y0075243D02*
X0128003Y0075243D01*
X0127586Y0074826D01*
X0127169Y0075243D01*
X0126752Y0075243D01*
X0126335Y0074826D01*
X0126335Y0073992D01*
X0126752Y0073575D01*
X0127586Y0074409D02*
X0127586Y0074826D01*
X0128420Y0075243D02*
X0128837Y0074826D01*
X0128837Y0073992D01*
X0128420Y0073575D01*
X0128837Y0078005D02*
X0127169Y0078005D01*
X0128420Y0079099D02*
X0128837Y0079516D01*
X0128837Y0080350D01*
X0128420Y0080767D01*
X0128003Y0080767D01*
X0127586Y0080350D01*
X0127169Y0080767D01*
X0126752Y0080767D01*
X0127586Y0080350D02*
X0127586Y0079933D01*
X0128420Y0094956D02*
X0128837Y0095373D01*
X0128837Y0096207D01*
X0128420Y0096624D01*
X0128003Y0096624D01*
X0126335Y0094956D01*
X0126335Y0096624D01*
X0126335Y0097718D02*
X0128003Y0099386D01*
X0128420Y0099386D01*
X0128837Y0098969D01*
X0128837Y0098135D01*
X0128420Y0097718D01*
X0126335Y0097718D02*
X0126335Y0099386D01*
X0126335Y0104956D02*
X0128003Y0106624D01*
X0128420Y0106624D01*
X0128837Y0106207D01*
X0128837Y0105373D01*
X0128420Y0104956D01*
X0126335Y0104956D02*
X0126335Y0106624D01*
X0126335Y0107718D02*
X0126335Y0109386D01*
X0126335Y0108552D02*
X0128837Y0108552D01*
X0128003Y0107718D01*
X0128420Y0114956D02*
X0128837Y0115373D01*
X0128837Y0116207D01*
X0128420Y0116624D01*
X0128003Y0116624D01*
X0126335Y0114956D01*
X0126335Y0116624D01*
X0126752Y0117718D02*
X0126335Y0118135D01*
X0126335Y0118969D01*
X0126752Y0119386D01*
X0128420Y0119386D01*
X0126752Y0117718D01*
X0128420Y0117718D01*
X0128837Y0118135D01*
X0128837Y0118969D01*
X0128420Y0119386D01*
X0128003Y0124956D02*
X0128837Y0125790D01*
X0126335Y0125790D01*
X0126335Y0124956D02*
X0126335Y0126624D01*
X0126752Y0127718D02*
X0126335Y0128135D01*
X0126335Y0128969D01*
X0126752Y0129386D01*
X0128420Y0129386D01*
X0128837Y0128969D01*
X0128837Y0128135D01*
X0128420Y0127718D01*
X0128003Y0127718D01*
X0127586Y0128135D01*
X0127586Y0129386D01*
X0128003Y0134956D02*
X0128837Y0135790D01*
X0126335Y0135790D01*
X0126335Y0134956D02*
X0126335Y0136624D01*
X0126752Y0137718D02*
X0126335Y0138135D01*
X0126335Y0138969D01*
X0126752Y0139386D01*
X0127169Y0139386D01*
X0127586Y0138969D01*
X0127586Y0138135D01*
X0128003Y0137718D01*
X0128420Y0137718D01*
X0128837Y0138135D01*
X0128837Y0138969D01*
X0128420Y0139386D01*
X0128003Y0139386D01*
X0127586Y0138969D01*
X0127586Y0138135D02*
X0127169Y0137718D01*
X0126752Y0137718D01*
X0126335Y0144956D02*
X0126335Y0146624D01*
X0126335Y0145790D02*
X0128837Y0145790D01*
X0128003Y0144956D01*
X0128837Y0147718D02*
X0128837Y0149386D01*
X0128420Y0149386D01*
X0126752Y0147718D01*
X0126335Y0147718D01*
X0126335Y0154956D02*
X0126335Y0156624D01*
X0126335Y0155790D02*
X0128837Y0155790D01*
X0128003Y0154956D01*
X0127586Y0157718D02*
X0127586Y0158969D01*
X0127169Y0159386D01*
X0126752Y0159386D01*
X0126335Y0158969D01*
X0126335Y0158135D01*
X0126752Y0157718D01*
X0127586Y0157718D01*
X0128420Y0158552D01*
X0128837Y0159386D01*
X0139786Y0162969D02*
X0141454Y0162969D01*
X0140203Y0164220D01*
X0140203Y0161718D01*
X0142548Y0161718D02*
X0144216Y0161718D01*
X0143382Y0161718D02*
X0143382Y0164220D01*
X0144216Y0163386D01*
X0145310Y0162969D02*
X0145728Y0162552D01*
X0146979Y0162552D01*
X0146979Y0161718D02*
X0146979Y0164220D01*
X0145728Y0164220D01*
X0145310Y0163803D01*
X0145310Y0162969D01*
X0146145Y0162552D02*
X0145310Y0161718D01*
X0145310Y0170718D02*
X0146145Y0171552D01*
X0145728Y0171552D02*
X0146979Y0171552D01*
X0146979Y0170718D02*
X0146979Y0173220D01*
X0145728Y0173220D01*
X0145310Y0172803D01*
X0145310Y0171969D01*
X0145728Y0171552D01*
X0144216Y0170718D02*
X0142548Y0170718D01*
X0143382Y0170718D02*
X0143382Y0173220D01*
X0144216Y0172386D01*
X0141454Y0172386D02*
X0141454Y0172803D01*
X0141037Y0173220D01*
X0140203Y0173220D01*
X0139786Y0172803D01*
X0139786Y0172386D01*
X0140203Y0171969D01*
X0141037Y0171969D01*
X0141454Y0172386D01*
X0141037Y0171969D02*
X0141454Y0171552D01*
X0141454Y0171135D01*
X0141037Y0170718D01*
X0140203Y0170718D01*
X0139786Y0171135D01*
X0139786Y0171552D01*
X0140203Y0171969D01*
X0128003Y0184956D02*
X0128837Y0185790D01*
X0126335Y0185790D01*
X0126335Y0184956D02*
X0126335Y0186624D01*
X0126752Y0187718D02*
X0126335Y0188135D01*
X0126335Y0188969D01*
X0126752Y0189386D01*
X0127169Y0189386D01*
X0127586Y0188969D01*
X0127586Y0188552D01*
X0127586Y0188969D02*
X0128003Y0189386D01*
X0128420Y0189386D01*
X0128837Y0188969D01*
X0128837Y0188135D01*
X0128420Y0187718D01*
X0140203Y0154220D02*
X0139786Y0153803D01*
X0139786Y0153386D01*
X0140203Y0152969D01*
X0139786Y0152552D01*
X0139786Y0152135D01*
X0140203Y0151718D01*
X0141037Y0151718D01*
X0141454Y0152135D01*
X0142548Y0151718D02*
X0144216Y0151718D01*
X0143382Y0151718D02*
X0143382Y0154220D01*
X0144216Y0153386D01*
X0145310Y0152969D02*
X0145728Y0152552D01*
X0146979Y0152552D01*
X0146979Y0151718D02*
X0146979Y0154220D01*
X0145728Y0154220D01*
X0145310Y0153803D01*
X0145310Y0152969D01*
X0146145Y0152552D02*
X0145310Y0151718D01*
X0141454Y0153803D02*
X0141037Y0154220D01*
X0140203Y0154220D01*
X0140203Y0152969D02*
X0140620Y0152969D01*
X0150752Y0132386D02*
X0152420Y0132386D01*
X0152837Y0131969D01*
X0152837Y0131135D01*
X0152420Y0130718D01*
X0152003Y0130718D01*
X0151586Y0131135D01*
X0151586Y0132386D01*
X0150752Y0132386D02*
X0150335Y0131969D01*
X0150335Y0131135D01*
X0150752Y0130718D01*
X0150335Y0129624D02*
X0151169Y0128790D01*
X0151169Y0129207D02*
X0151169Y0127956D01*
X0150335Y0127956D02*
X0152837Y0127956D01*
X0152837Y0129207D01*
X0152420Y0129624D01*
X0151586Y0129624D01*
X0151169Y0129207D01*
X0143420Y0110767D02*
X0141752Y0109099D01*
X0141335Y0109516D01*
X0141335Y0110350D01*
X0141752Y0110767D01*
X0143420Y0110767D01*
X0143837Y0110350D01*
X0143837Y0109516D01*
X0143420Y0109099D01*
X0141752Y0109099D01*
X0141335Y0108005D02*
X0141335Y0106337D01*
X0141335Y0107171D02*
X0143837Y0107171D01*
X0143003Y0106337D01*
X0142586Y0105243D02*
X0142169Y0104826D01*
X0142169Y0103575D01*
X0142169Y0104409D02*
X0141335Y0105243D01*
X0142586Y0105243D02*
X0143420Y0105243D01*
X0143837Y0104826D01*
X0143837Y0103575D01*
X0141335Y0103575D01*
X0153167Y0097220D02*
X0154835Y0094718D01*
X0153167Y0094718D02*
X0154835Y0097220D01*
X0155929Y0097220D02*
X0157597Y0097220D01*
X0156763Y0097220D02*
X0156763Y0094718D01*
X0174167Y0094718D02*
X0175835Y0097220D01*
X0176929Y0096803D02*
X0176929Y0095969D01*
X0177346Y0095552D01*
X0178597Y0095552D01*
X0177763Y0095552D02*
X0176929Y0094718D01*
X0175835Y0094718D02*
X0174167Y0097220D01*
X0176929Y0096803D02*
X0177346Y0097220D01*
X0178597Y0097220D01*
X0178597Y0094718D01*
X0172180Y0115718D02*
X0172597Y0116135D01*
X0172180Y0115718D02*
X0171346Y0115718D01*
X0170929Y0116135D01*
X0170929Y0116552D01*
X0171346Y0116969D01*
X0172180Y0116969D01*
X0172597Y0117386D01*
X0172597Y0117803D01*
X0172180Y0118220D01*
X0171346Y0118220D01*
X0170929Y0117803D01*
X0169835Y0117386D02*
X0169001Y0118220D01*
X0169001Y0115718D01*
X0169835Y0115718D02*
X0168167Y0115718D01*
X0177786Y0125135D02*
X0178203Y0124718D01*
X0179037Y0124718D01*
X0179454Y0125135D01*
X0179454Y0125969D02*
X0178620Y0126386D01*
X0178203Y0126386D01*
X0177786Y0125969D01*
X0177786Y0125135D01*
X0179454Y0125969D02*
X0179454Y0127220D01*
X0177786Y0127220D01*
X0181382Y0127220D02*
X0181382Y0124718D01*
X0182216Y0124718D02*
X0180548Y0124718D01*
X0182216Y0126386D02*
X0181382Y0127220D01*
X0183310Y0126803D02*
X0183310Y0125969D01*
X0183728Y0125552D01*
X0184979Y0125552D01*
X0184979Y0124718D02*
X0184979Y0127220D01*
X0183728Y0127220D01*
X0183310Y0126803D01*
X0184145Y0125552D02*
X0183310Y0124718D01*
X0182752Y0140956D02*
X0182335Y0141373D01*
X0182335Y0142207D01*
X0182752Y0142624D01*
X0184420Y0142624D01*
X0184837Y0142207D01*
X0184837Y0141373D01*
X0184420Y0140956D01*
X0182752Y0140956D01*
X0183169Y0141790D02*
X0182335Y0142624D01*
X0182335Y0143718D02*
X0182335Y0145386D01*
X0182335Y0144552D02*
X0184837Y0144552D01*
X0184003Y0143718D01*
X0201335Y0146754D02*
X0201752Y0146337D01*
X0202169Y0146337D01*
X0202586Y0146754D01*
X0202586Y0147588D01*
X0202169Y0148005D01*
X0201752Y0148005D01*
X0201335Y0147588D01*
X0201335Y0146754D01*
X0202586Y0146754D02*
X0203003Y0146337D01*
X0203420Y0146337D01*
X0203837Y0146754D01*
X0203837Y0147588D01*
X0203420Y0148005D01*
X0203003Y0148005D01*
X0202586Y0147588D01*
X0203003Y0156337D02*
X0202586Y0156754D01*
X0202586Y0158005D01*
X0201752Y0158005D02*
X0203420Y0158005D01*
X0203837Y0157588D01*
X0203837Y0156754D01*
X0203420Y0156337D01*
X0203003Y0156337D01*
X0201752Y0156337D02*
X0201335Y0156754D01*
X0201335Y0157588D01*
X0201752Y0158005D01*
X0201335Y0164956D02*
X0201335Y0166624D01*
X0201335Y0165790D02*
X0203837Y0165790D01*
X0203003Y0164956D01*
X0203420Y0167718D02*
X0203837Y0168135D01*
X0203837Y0168969D01*
X0203420Y0169386D01*
X0201752Y0167718D01*
X0201335Y0168135D01*
X0201335Y0168969D01*
X0201752Y0169386D01*
X0203420Y0169386D01*
X0203420Y0167718D02*
X0201752Y0167718D01*
X0201335Y0174956D02*
X0201335Y0176624D01*
X0201335Y0175790D02*
X0203837Y0175790D01*
X0203003Y0174956D01*
X0203003Y0177718D02*
X0203837Y0178552D01*
X0201335Y0178552D01*
X0201335Y0177718D02*
X0201335Y0179386D01*
X0201335Y0184956D02*
X0201335Y0186624D01*
X0201335Y0185790D02*
X0203837Y0185790D01*
X0203003Y0184956D01*
X0203420Y0187718D02*
X0203837Y0188135D01*
X0203837Y0188969D01*
X0203420Y0189386D01*
X0203003Y0189386D01*
X0201335Y0187718D01*
X0201335Y0189386D01*
X0188979Y0193718D02*
X0187728Y0193718D01*
X0187310Y0194135D01*
X0187310Y0194552D01*
X0187728Y0194969D01*
X0188979Y0194969D01*
X0188979Y0193718D02*
X0188979Y0196220D01*
X0187728Y0196220D01*
X0187310Y0195803D01*
X0187310Y0195386D01*
X0187728Y0194969D01*
X0186216Y0194969D02*
X0184548Y0194969D01*
X0184548Y0195386D02*
X0184548Y0193718D01*
X0186216Y0193718D02*
X0186216Y0195386D01*
X0185382Y0196220D01*
X0184548Y0195386D01*
X0183454Y0196220D02*
X0181786Y0196220D01*
X0182620Y0196220D02*
X0182620Y0193718D01*
X0178979Y0194135D02*
X0178562Y0193718D01*
X0177728Y0193718D01*
X0177310Y0194135D01*
X0177310Y0194552D01*
X0177728Y0194969D01*
X0178145Y0194969D01*
X0177728Y0194969D02*
X0177310Y0195386D01*
X0177310Y0195803D01*
X0177728Y0196220D01*
X0178562Y0196220D01*
X0178979Y0195803D01*
X0176216Y0196220D02*
X0176216Y0194552D01*
X0175382Y0193718D01*
X0174548Y0194552D01*
X0174548Y0196220D01*
X0173454Y0195803D02*
X0173037Y0196220D01*
X0172203Y0196220D01*
X0171786Y0195803D01*
X0171786Y0195386D01*
X0172203Y0194969D01*
X0171786Y0194552D01*
X0171786Y0194135D01*
X0172203Y0193718D01*
X0173037Y0193718D01*
X0173454Y0194135D01*
X0172620Y0194969D02*
X0172203Y0194969D01*
X0168979Y0194135D02*
X0168562Y0193718D01*
X0167728Y0193718D01*
X0167310Y0194135D01*
X0167310Y0194969D01*
X0168145Y0194969D01*
X0168979Y0195803D02*
X0168979Y0194135D01*
X0168979Y0195803D02*
X0168562Y0196220D01*
X0167728Y0196220D01*
X0167310Y0195803D01*
X0166216Y0196220D02*
X0164548Y0193718D01*
X0164548Y0196220D01*
X0163454Y0196220D02*
X0162203Y0196220D01*
X0161786Y0195803D01*
X0161786Y0194135D01*
X0162203Y0193718D01*
X0163454Y0193718D01*
X0163454Y0196220D01*
X0166216Y0196220D02*
X0166216Y0193718D01*
X0173584Y0172220D02*
X0174418Y0172220D01*
X0174835Y0171803D01*
X0175929Y0171803D02*
X0176346Y0172220D01*
X0177180Y0172220D01*
X0177597Y0171803D01*
X0177597Y0171386D01*
X0177180Y0170969D01*
X0176346Y0170969D01*
X0175929Y0170552D01*
X0175929Y0170135D01*
X0176346Y0169718D01*
X0177180Y0169718D01*
X0177597Y0170135D01*
X0174835Y0169718D02*
X0173167Y0171386D01*
X0173167Y0171803D01*
X0173584Y0172220D01*
X0173167Y0169718D02*
X0174835Y0169718D01*
X0201335Y0136337D02*
X0201752Y0136337D01*
X0203420Y0138005D01*
X0203837Y0138005D01*
X0203837Y0136337D01*
X0203837Y0128005D02*
X0203420Y0127171D01*
X0202586Y0126337D01*
X0202586Y0127588D01*
X0202169Y0128005D01*
X0201752Y0128005D01*
X0201335Y0127588D01*
X0201335Y0126754D01*
X0201752Y0126337D01*
X0202586Y0126337D01*
X0202586Y0118005D02*
X0201752Y0118005D01*
X0201335Y0117588D01*
X0201335Y0116754D01*
X0201752Y0116337D01*
X0202586Y0116337D02*
X0203003Y0117171D01*
X0203003Y0117588D01*
X0202586Y0118005D01*
X0203837Y0118005D02*
X0203837Y0116337D01*
X0202586Y0116337D01*
X0202586Y0108005D02*
X0202586Y0106337D01*
X0203837Y0107588D01*
X0201335Y0107588D01*
X0201752Y0098005D02*
X0201335Y0097588D01*
X0201335Y0096754D01*
X0201752Y0096337D01*
X0202586Y0097171D02*
X0202586Y0097588D01*
X0202169Y0098005D01*
X0201752Y0098005D01*
X0202586Y0097588D02*
X0203003Y0098005D01*
X0203420Y0098005D01*
X0203837Y0097588D01*
X0203837Y0096754D01*
X0203420Y0096337D01*
X0203420Y0088005D02*
X0203837Y0087588D01*
X0203837Y0086754D01*
X0203420Y0086337D01*
X0203420Y0088005D02*
X0203003Y0088005D01*
X0201335Y0086337D01*
X0201335Y0088005D01*
X0201752Y0060767D02*
X0203420Y0060767D01*
X0203837Y0060350D01*
X0203837Y0059099D01*
X0201335Y0059099D01*
X0201335Y0060350D01*
X0201752Y0060767D01*
X0201335Y0058005D02*
X0203837Y0058005D01*
X0203837Y0056337D02*
X0201335Y0058005D01*
X0201335Y0056337D02*
X0203837Y0056337D01*
X0203420Y0055243D02*
X0203837Y0054826D01*
X0203837Y0053992D01*
X0203420Y0053575D01*
X0201752Y0053575D01*
X0201335Y0053992D01*
X0201335Y0054826D01*
X0201752Y0055243D01*
X0202586Y0055243D01*
X0202586Y0054409D01*
X0128837Y0054956D02*
X0127586Y0054956D01*
X0128003Y0055790D01*
X0128003Y0056207D01*
X0127586Y0056624D01*
X0126752Y0056624D01*
X0126335Y0056207D01*
X0126335Y0055373D01*
X0126752Y0054956D01*
X0128837Y0054956D02*
X0128837Y0056624D01*
X0128837Y0057718D02*
X0127169Y0057718D01*
X0126335Y0058552D01*
X0127169Y0059386D01*
X0128837Y0059386D01*
X0144786Y0236718D02*
X0146454Y0236718D01*
X0144786Y0238386D01*
X0144786Y0238803D01*
X0145203Y0239220D01*
X0146037Y0239220D01*
X0146454Y0238803D01*
X0148382Y0239220D02*
X0148382Y0236718D01*
X0149216Y0236718D02*
X0147548Y0236718D01*
X0149216Y0238386D02*
X0148382Y0239220D01*
X0150310Y0238803D02*
X0150310Y0237969D01*
X0150728Y0237552D01*
X0151979Y0237552D01*
X0151979Y0236718D02*
X0151979Y0239220D01*
X0150728Y0239220D01*
X0150310Y0238803D01*
X0151145Y0237552D02*
X0150310Y0236718D01*
X0187786Y0236718D02*
X0189454Y0236718D01*
X0188620Y0236718D02*
X0188620Y0239220D01*
X0189454Y0238386D01*
X0190548Y0236718D02*
X0192216Y0236718D01*
X0191382Y0236718D02*
X0191382Y0239220D01*
X0192216Y0238386D01*
X0193310Y0237969D02*
X0193728Y0237552D01*
X0194979Y0237552D01*
X0194979Y0236718D02*
X0194979Y0239220D01*
X0193728Y0239220D01*
X0193310Y0238803D01*
X0193310Y0237969D01*
X0194145Y0237552D02*
X0193310Y0236718D01*
D11*
X0046873Y0090606D02*
X0046873Y0086336D01*
X0049008Y0088471D02*
X0044737Y0088471D01*
X0064737Y0087471D02*
X0069008Y0087471D01*
X0091779Y0163784D02*
X0096391Y0163784D01*
X0096985Y0163968D02*
X0099685Y0165368D01*
X0102385Y0167468D01*
X0094085Y0175368D01*
X0085885Y0167468D01*
X0088485Y0165368D01*
X0091185Y0163968D01*
X0094085Y0163068D01*
X0096985Y0163968D01*
X0097784Y0164382D02*
X0090386Y0164382D01*
X0089232Y0164981D02*
X0098938Y0164981D01*
X0099957Y0165579D02*
X0088224Y0165579D01*
X0087483Y0166178D02*
X0100726Y0166178D01*
X0101496Y0166776D02*
X0086742Y0166776D01*
X0086001Y0167375D02*
X0102265Y0167375D01*
X0101854Y0167973D02*
X0086409Y0167973D01*
X0087031Y0168572D02*
X0101225Y0168572D01*
X0100597Y0169170D02*
X0087652Y0169170D01*
X0088273Y0169769D02*
X0099968Y0169769D01*
X0099339Y0170367D02*
X0088894Y0170367D01*
X0089516Y0170966D02*
X0098710Y0170966D01*
X0098081Y0171565D02*
X0090137Y0171565D01*
X0090758Y0172163D02*
X0097453Y0172163D01*
X0096824Y0172762D02*
X0091379Y0172762D01*
X0092001Y0173360D02*
X0096195Y0173360D01*
X0095566Y0173959D02*
X0092622Y0173959D01*
X0093243Y0174557D02*
X0094937Y0174557D01*
X0094308Y0175156D02*
X0093864Y0175156D01*
X0088815Y0180542D02*
X0080385Y0180542D01*
X0080385Y0179944D02*
X0088148Y0179944D01*
X0087481Y0179345D02*
X0080385Y0179345D01*
X0080385Y0179268D02*
X0080785Y0176368D01*
X0081485Y0173968D01*
X0094085Y0185268D01*
X0080385Y0185268D01*
X0080385Y0179268D01*
X0080457Y0178747D02*
X0086813Y0178747D01*
X0086146Y0178148D02*
X0080540Y0178148D01*
X0080622Y0177550D02*
X0085478Y0177550D01*
X0084811Y0176951D02*
X0080705Y0176951D01*
X0080790Y0176353D02*
X0084144Y0176353D01*
X0083476Y0175754D02*
X0080964Y0175754D01*
X0081139Y0175156D02*
X0082809Y0175156D01*
X0082142Y0174557D02*
X0081313Y0174557D01*
X0080385Y0181141D02*
X0089483Y0181141D01*
X0090150Y0181739D02*
X0080385Y0181739D01*
X0080385Y0182338D02*
X0090817Y0182338D01*
X0091485Y0182936D02*
X0080385Y0182936D01*
X0080385Y0183535D02*
X0092152Y0183535D01*
X0092820Y0184133D02*
X0080385Y0184133D01*
X0080385Y0184732D02*
X0093487Y0184732D01*
X0094085Y0185268D02*
X0106685Y0173968D01*
X0107385Y0176368D01*
X0107785Y0179268D01*
X0107785Y0185268D01*
X0094085Y0185268D01*
X0094683Y0184732D02*
X0107785Y0184732D01*
X0107785Y0184133D02*
X0095351Y0184133D01*
X0096018Y0183535D02*
X0107785Y0183535D01*
X0107785Y0182936D02*
X0096685Y0182936D01*
X0097353Y0182338D02*
X0107785Y0182338D01*
X0107785Y0181739D02*
X0098020Y0181739D01*
X0098687Y0181141D02*
X0107785Y0181141D01*
X0107785Y0180542D02*
X0099355Y0180542D01*
X0100022Y0179944D02*
X0107785Y0179944D01*
X0107785Y0179345D02*
X0100689Y0179345D01*
X0101357Y0178747D02*
X0107713Y0178747D01*
X0107631Y0178148D02*
X0102024Y0178148D01*
X0102692Y0177550D02*
X0107548Y0177550D01*
X0107465Y0176951D02*
X0103359Y0176951D01*
X0104026Y0176353D02*
X0107380Y0176353D01*
X0107206Y0175754D02*
X0104694Y0175754D01*
X0105361Y0175156D02*
X0107031Y0175156D01*
X0106857Y0174557D02*
X0106028Y0174557D01*
X0094463Y0163185D02*
X0093708Y0163185D01*
X0160515Y0232971D02*
X0164785Y0232971D01*
X0182515Y0231971D02*
X0186785Y0231971D01*
X0184650Y0234106D02*
X0184650Y0229836D01*
D12*
X0180597Y0145224D02*
X0178235Y0145224D01*
X0180597Y0145224D02*
X0180597Y0142074D01*
X0171935Y0145224D02*
X0169573Y0145224D01*
X0169573Y0142074D01*
X0175416Y0092279D02*
X0175416Y0090468D01*
X0176636Y0089548D01*
X0175416Y0088657D02*
X0175416Y0090468D01*
X0175476Y0090568D02*
X0176636Y0091328D01*
X0155636Y0091328D02*
X0154476Y0090568D01*
X0154416Y0090468D02*
X0155636Y0089548D01*
X0154416Y0088657D02*
X0154416Y0090468D01*
X0154416Y0092279D01*
X0110685Y0204868D02*
X0110685Y0209072D01*
X0107883Y0209072D01*
X0106081Y0209072D02*
X0106081Y0204868D01*
X0106081Y0206269D02*
X0103979Y0206269D01*
X0103279Y0206970D01*
X0103279Y0208371D01*
X0103979Y0209072D01*
X0106081Y0209072D01*
X0105381Y0211868D02*
X0103979Y0211868D01*
X0105381Y0211868D02*
X0106081Y0212569D01*
X0106081Y0213970D01*
X0105381Y0214671D01*
X0103979Y0214671D01*
X0103279Y0213970D01*
X0103279Y0213269D01*
X0106081Y0213269D01*
X0107883Y0213970D02*
X0107883Y0215371D01*
X0108583Y0216072D01*
X0110685Y0216072D01*
X0110685Y0211868D01*
X0110685Y0213269D02*
X0108583Y0213269D01*
X0107883Y0213970D01*
X0108583Y0218868D02*
X0107883Y0219569D01*
X0107883Y0223072D01*
X0106081Y0221671D02*
X0106081Y0218868D01*
X0108583Y0218868D02*
X0109984Y0218868D01*
X0110685Y0219569D01*
X0110685Y0223072D01*
X0106081Y0221671D02*
X0103979Y0221671D01*
X0103279Y0220970D01*
X0103279Y0218868D01*
X0101477Y0218868D02*
X0100076Y0218868D01*
X0100777Y0218868D02*
X0100777Y0221671D01*
X0101477Y0221671D01*
X0100777Y0223072D02*
X0100777Y0223772D01*
X0098408Y0221671D02*
X0097007Y0218868D01*
X0095606Y0221671D01*
X0093804Y0219569D02*
X0093103Y0219569D01*
X0093103Y0218868D01*
X0093804Y0218868D01*
X0093804Y0219569D01*
X0094771Y0214671D02*
X0094071Y0213970D01*
X0094071Y0211868D01*
X0092269Y0211868D02*
X0090168Y0211868D01*
X0089467Y0212569D01*
X0090168Y0213269D01*
X0091569Y0213269D01*
X0092269Y0213970D01*
X0091569Y0214671D01*
X0089467Y0214671D01*
X0087665Y0214671D02*
X0087665Y0212569D01*
X0086965Y0211868D01*
X0084863Y0211868D01*
X0084863Y0211168D02*
X0085564Y0210467D01*
X0086264Y0210467D01*
X0084863Y0211168D02*
X0084863Y0214671D01*
X0083061Y0216072D02*
X0082361Y0216072D01*
X0082361Y0211868D01*
X0083061Y0211868D02*
X0081660Y0211868D01*
X0078591Y0211868D02*
X0079992Y0214671D01*
X0077190Y0214671D02*
X0078591Y0211868D01*
X0075388Y0212569D02*
X0074688Y0213269D01*
X0072586Y0213269D01*
X0072586Y0213970D02*
X0072586Y0211868D01*
X0074688Y0211868D01*
X0075388Y0212569D01*
X0074688Y0214671D02*
X0073286Y0214671D01*
X0072586Y0213970D01*
X0070784Y0214671D02*
X0070784Y0211868D01*
X0070784Y0214671D02*
X0068683Y0214671D01*
X0067982Y0213970D01*
X0067982Y0211868D01*
X0066180Y0211868D02*
X0064779Y0211868D01*
X0065480Y0211868D02*
X0065480Y0214671D01*
X0066180Y0214671D01*
X0065480Y0216072D02*
X0065480Y0216772D01*
X0062411Y0214671D02*
X0061009Y0214671D01*
X0060309Y0213970D01*
X0060309Y0211868D01*
X0062411Y0211868D01*
X0063111Y0212569D01*
X0062411Y0213269D01*
X0060309Y0213269D01*
X0056636Y0207328D02*
X0055476Y0206568D01*
X0055416Y0206468D02*
X0056636Y0205548D01*
X0055416Y0204657D02*
X0055416Y0206468D01*
X0055416Y0208279D01*
X0055416Y0198279D02*
X0055416Y0196468D01*
X0056636Y0195548D01*
X0055416Y0194657D02*
X0055416Y0196468D01*
X0055476Y0196568D02*
X0056636Y0197328D01*
X0055416Y0188279D02*
X0055416Y0186468D01*
X0056636Y0185548D01*
X0055416Y0184657D02*
X0055416Y0186468D01*
X0055476Y0186568D02*
X0056636Y0187328D01*
X0055416Y0178279D02*
X0055416Y0176468D01*
X0056636Y0175548D01*
X0055416Y0174657D02*
X0055416Y0176468D01*
X0055476Y0176568D02*
X0056636Y0177328D01*
X0055416Y0168279D02*
X0055416Y0166468D01*
X0056636Y0165548D01*
X0055416Y0164657D02*
X0055416Y0166468D01*
X0055476Y0166568D02*
X0056636Y0167328D01*
X0055416Y0158279D02*
X0055416Y0156468D01*
X0056636Y0155548D01*
X0055416Y0154657D02*
X0055416Y0156468D01*
X0055476Y0156568D02*
X0056636Y0157328D01*
X0057883Y0134072D02*
X0057883Y0129868D01*
X0056081Y0130569D02*
X0055381Y0129868D01*
X0053979Y0129868D01*
X0053279Y0130569D01*
X0053279Y0131970D01*
X0053979Y0132671D01*
X0055381Y0132671D01*
X0056081Y0131970D01*
X0056081Y0130569D01*
X0059284Y0132671D02*
X0057883Y0134072D01*
X0059284Y0132671D02*
X0060685Y0134072D01*
X0060685Y0129868D01*
X0059984Y0127072D02*
X0060685Y0126371D01*
X0060685Y0123569D01*
X0059984Y0122868D01*
X0058583Y0122868D01*
X0057883Y0123569D01*
X0057883Y0124970D01*
X0059284Y0124970D01*
X0057883Y0126371D02*
X0058583Y0127072D01*
X0059984Y0127072D01*
X0056081Y0123569D02*
X0055381Y0124269D01*
X0053279Y0124269D01*
X0053279Y0124970D02*
X0053279Y0122868D01*
X0055381Y0122868D01*
X0056081Y0123569D01*
X0055381Y0125671D02*
X0053979Y0125671D01*
X0053279Y0124970D01*
X0051477Y0125671D02*
X0050076Y0125671D01*
X0050777Y0126371D02*
X0050777Y0123569D01*
X0050076Y0122868D01*
X0048408Y0123569D02*
X0048408Y0124970D01*
X0047707Y0125671D01*
X0046306Y0125671D01*
X0045606Y0124970D01*
X0045606Y0124269D01*
X0048408Y0124269D01*
X0048408Y0123569D02*
X0047707Y0122868D01*
X0046306Y0122868D01*
X0043804Y0123569D02*
X0043804Y0125671D01*
X0043804Y0123569D02*
X0043103Y0122868D01*
X0042403Y0123569D01*
X0041702Y0122868D01*
X0041002Y0123569D01*
X0041002Y0125671D01*
X0038499Y0125671D02*
X0037098Y0125671D01*
X0036398Y0124970D01*
X0036398Y0122868D01*
X0038499Y0122868D01*
X0039200Y0123569D01*
X0038499Y0124269D01*
X0036398Y0124269D01*
X0034596Y0123569D02*
X0033896Y0122868D01*
X0031794Y0122868D01*
X0031794Y0122168D02*
X0032494Y0121467D01*
X0033195Y0121467D01*
X0033262Y0120072D02*
X0032561Y0119371D01*
X0035363Y0116569D01*
X0034663Y0115868D01*
X0033262Y0115868D01*
X0032561Y0116569D01*
X0032561Y0119371D01*
X0033262Y0120072D02*
X0034663Y0120072D01*
X0035363Y0119371D01*
X0035363Y0116569D01*
X0036965Y0116569D02*
X0036965Y0115868D01*
X0037665Y0115868D01*
X0037665Y0116569D01*
X0036965Y0116569D01*
X0039467Y0117970D02*
X0042269Y0117970D01*
X0040168Y0120072D01*
X0040168Y0115868D01*
X0034596Y0123569D02*
X0034596Y0125671D01*
X0031794Y0125671D02*
X0031794Y0122168D01*
X0035564Y0129868D02*
X0034863Y0130569D01*
X0035564Y0131269D01*
X0036965Y0131269D01*
X0037665Y0131970D01*
X0036965Y0132671D01*
X0034863Y0132671D01*
X0035564Y0129868D02*
X0037665Y0129868D01*
X0039467Y0129868D02*
X0039467Y0132671D01*
X0042269Y0132671D02*
X0042269Y0130569D01*
X0041569Y0129868D01*
X0039467Y0129868D01*
X0044071Y0130569D02*
X0044071Y0131970D01*
X0044771Y0132671D01*
X0046873Y0132671D01*
X0046873Y0134072D02*
X0046873Y0129868D01*
X0044771Y0129868D01*
X0044071Y0130569D01*
X0048675Y0129868D02*
X0050777Y0129868D01*
X0051477Y0130569D01*
X0051477Y0131970D01*
X0050777Y0132671D01*
X0048675Y0132671D01*
X0048675Y0134072D02*
X0048675Y0129868D01*
X0048675Y0118671D02*
X0050076Y0115868D01*
X0051477Y0118671D01*
X0053279Y0117970D02*
X0053279Y0117269D01*
X0056081Y0117269D01*
X0056081Y0116569D02*
X0056081Y0117970D01*
X0055381Y0118671D01*
X0053979Y0118671D01*
X0053279Y0117970D01*
X0053979Y0115868D02*
X0055381Y0115868D01*
X0056081Y0116569D01*
X0057883Y0115868D02*
X0059284Y0117269D01*
X0058583Y0117269D02*
X0060685Y0117269D01*
X0060685Y0115868D02*
X0060685Y0120072D01*
X0058583Y0120072D01*
X0057883Y0119371D01*
X0057883Y0117970D01*
X0058583Y0117269D01*
X0094771Y0204868D02*
X0096173Y0204868D01*
X0096873Y0205569D01*
X0096173Y0206970D02*
X0094771Y0206970D01*
X0094071Y0206269D01*
X0094071Y0205569D01*
X0094771Y0204868D01*
X0096173Y0206970D02*
X0096873Y0207671D01*
X0096873Y0208371D01*
X0096173Y0209072D01*
X0094771Y0209072D01*
X0094071Y0208371D01*
X0096873Y0211868D02*
X0096873Y0214671D01*
X0094771Y0214671D01*
X0098675Y0213970D02*
X0098675Y0211868D01*
X0098675Y0213970D02*
X0099375Y0214671D01*
X0101477Y0214671D01*
X0101477Y0211868D01*
X0101477Y0209072D02*
X0098675Y0209072D01*
X0100076Y0206970D02*
X0101477Y0206970D01*
X0101477Y0209072D02*
X0101477Y0204868D01*
X0098675Y0204868D01*
X0103279Y0204868D02*
X0104680Y0206269D01*
X0109284Y0206970D02*
X0110685Y0206970D01*
X0086898Y0219569D02*
X0086198Y0218868D01*
X0084796Y0218868D01*
X0084096Y0219569D01*
X0084096Y0220970D01*
X0084796Y0221671D01*
X0086198Y0221671D01*
X0086898Y0220970D01*
X0086898Y0219569D01*
X0082294Y0220970D02*
X0080893Y0220970D01*
X0081594Y0222371D02*
X0080893Y0223072D01*
X0081594Y0222371D02*
X0081594Y0218868D01*
D13*
X0164707Y0221502D02*
X0165692Y0220518D01*
X0167660Y0220518D01*
X0168644Y0221502D01*
X0168644Y0223471D02*
X0166676Y0224455D01*
X0165692Y0224455D01*
X0164707Y0223471D01*
X0164707Y0221502D01*
X0164707Y0226423D02*
X0168644Y0226423D01*
X0168644Y0223471D01*
X0171153Y0224455D02*
X0172137Y0223471D01*
X0174105Y0223471D01*
X0175090Y0224455D01*
X0175090Y0225439D01*
X0174105Y0226423D01*
X0172137Y0226423D01*
X0171153Y0225439D01*
X0171153Y0224455D01*
X0172137Y0223471D02*
X0171153Y0222487D01*
X0171153Y0221502D01*
X0172137Y0220518D01*
X0174105Y0220518D01*
X0175090Y0221502D01*
X0175090Y0222487D01*
X0174105Y0223471D01*
X0177598Y0223471D02*
X0181535Y0223471D01*
X0178583Y0226423D01*
X0178583Y0220518D01*
X0102535Y0096423D02*
X0099583Y0096423D01*
X0098598Y0095439D01*
X0098598Y0093471D01*
X0099583Y0092487D01*
X0102535Y0092487D01*
X0102535Y0090518D02*
X0102535Y0096423D01*
X0096090Y0095439D02*
X0096090Y0091502D01*
X0095105Y0090518D01*
X0093137Y0090518D01*
X0092153Y0091502D01*
X0092153Y0095439D01*
X0093137Y0096423D01*
X0095105Y0096423D01*
X0096090Y0095439D01*
X0089644Y0096423D02*
X0089644Y0090518D01*
X0087676Y0092487D01*
X0085707Y0090518D01*
X0085707Y0096423D01*
X0083199Y0096423D02*
X0083199Y0090518D01*
X0079262Y0090518D01*
X0076753Y0090518D02*
X0076753Y0096423D01*
X0073801Y0096423D01*
X0072816Y0095439D01*
X0072816Y0093471D01*
X0073801Y0092487D01*
X0076753Y0092487D01*
X0074785Y0092487D02*
X0072816Y0090518D01*
X0079262Y0096423D02*
X0083199Y0096423D01*
X0083199Y0093471D02*
X0081230Y0093471D01*
D14*
X0117085Y0097468D03*
X0117085Y0087468D03*
X0117085Y0107468D03*
X0117085Y0117468D03*
X0117085Y0127468D03*
X0154085Y0153468D03*
X0154085Y0162468D03*
X0154085Y0171468D03*
X0170085Y0125468D03*
X0160085Y0237468D03*
X0180085Y0237468D03*
D15*
X0157085Y0130468D03*
X0148085Y0107468D03*
X0066085Y0114468D03*
D16*
X0086785Y0173868D03*
X0094085Y0179568D03*
X0101385Y0173868D03*
D17*
X0094085Y0160768D02*
X0093610Y0160873D01*
X0093136Y0160988D01*
X0092666Y0161115D01*
X0092199Y0161253D01*
X0091736Y0161403D01*
X0091276Y0161564D01*
X0090821Y0161736D01*
X0090370Y0161919D01*
X0089923Y0162112D01*
X0089481Y0162317D01*
X0089044Y0162532D01*
X0088613Y0162758D01*
X0088187Y0162994D01*
X0087767Y0163240D01*
X0087353Y0163497D01*
X0086945Y0163763D01*
X0086544Y0164040D01*
X0086150Y0164326D01*
X0085763Y0164621D01*
X0085383Y0164926D01*
X0085010Y0165239D01*
X0084646Y0165562D01*
X0084289Y0165893D01*
X0083940Y0166233D01*
X0083600Y0166582D01*
X0083268Y0166938D01*
X0082945Y0167303D01*
X0082631Y0167675D01*
X0082326Y0168055D01*
X0082031Y0168441D01*
X0081745Y0168835D01*
X0081468Y0169236D01*
X0081201Y0169644D01*
X0080944Y0170057D01*
X0080698Y0170477D01*
X0080461Y0170903D01*
X0080235Y0171334D01*
X0080020Y0171771D01*
X0079815Y0172213D01*
X0079621Y0172659D01*
X0079437Y0173110D01*
X0079265Y0173566D01*
X0079104Y0174025D01*
X0078954Y0174489D01*
X0078815Y0174955D01*
X0078688Y0175425D01*
X0078572Y0175898D01*
X0078468Y0176374D01*
X0078375Y0176852D01*
X0078293Y0177332D01*
X0078224Y0177814D01*
X0078166Y0178298D01*
X0078120Y0178782D01*
X0078085Y0179268D01*
X0094085Y0160768D02*
X0094560Y0160873D01*
X0095034Y0160988D01*
X0095504Y0161115D01*
X0095971Y0161253D01*
X0096434Y0161403D01*
X0096894Y0161564D01*
X0097349Y0161736D01*
X0097800Y0161919D01*
X0098247Y0162112D01*
X0098689Y0162317D01*
X0099126Y0162532D01*
X0099557Y0162758D01*
X0099983Y0162994D01*
X0100403Y0163240D01*
X0100817Y0163497D01*
X0101225Y0163763D01*
X0101626Y0164040D01*
X0102020Y0164326D01*
X0102407Y0164621D01*
X0102787Y0164926D01*
X0103160Y0165239D01*
X0103524Y0165562D01*
X0103881Y0165893D01*
X0104230Y0166233D01*
X0104570Y0166582D01*
X0104902Y0166938D01*
X0105225Y0167303D01*
X0105539Y0167675D01*
X0105844Y0168055D01*
X0106139Y0168441D01*
X0106425Y0168835D01*
X0106702Y0169236D01*
X0106969Y0169644D01*
X0107226Y0170057D01*
X0107472Y0170477D01*
X0107709Y0170903D01*
X0107935Y0171334D01*
X0108150Y0171771D01*
X0108355Y0172213D01*
X0108549Y0172659D01*
X0108733Y0173110D01*
X0108905Y0173566D01*
X0109066Y0174025D01*
X0109216Y0174489D01*
X0109355Y0174955D01*
X0109482Y0175425D01*
X0109598Y0175898D01*
X0109702Y0176374D01*
X0109795Y0176852D01*
X0109877Y0177332D01*
X0109946Y0177814D01*
X0110004Y0178298D01*
X0110050Y0178782D01*
X0110085Y0179268D01*
D18*
X0110085Y0187368D03*
X0078085Y0187368D03*
D19*
X0094085Y0194468D03*
D20*
X0164180Y0114374D02*
X0175991Y0114374D01*
X0175991Y0102563D02*
X0164180Y0102563D01*
X0170557Y0159531D02*
X0179613Y0159531D01*
X0179613Y0167405D02*
X0170557Y0167405D01*
D21*
X0172723Y0160712D02*
X0172725Y0160751D01*
X0172731Y0160790D01*
X0172741Y0160828D01*
X0172754Y0160865D01*
X0172771Y0160900D01*
X0172791Y0160934D01*
X0172815Y0160965D01*
X0172842Y0160994D01*
X0172871Y0161020D01*
X0172903Y0161043D01*
X0172937Y0161063D01*
X0172973Y0161079D01*
X0173010Y0161091D01*
X0173049Y0161100D01*
X0173088Y0161105D01*
X0173127Y0161106D01*
X0173166Y0161103D01*
X0173205Y0161096D01*
X0173242Y0161085D01*
X0173279Y0161071D01*
X0173314Y0161053D01*
X0173347Y0161032D01*
X0173378Y0161007D01*
X0173406Y0160980D01*
X0173431Y0160950D01*
X0173453Y0160917D01*
X0173472Y0160883D01*
X0173487Y0160847D01*
X0173499Y0160809D01*
X0173507Y0160771D01*
X0173511Y0160732D01*
X0173511Y0160692D01*
X0173507Y0160653D01*
X0173499Y0160615D01*
X0173487Y0160577D01*
X0173472Y0160541D01*
X0173453Y0160507D01*
X0173431Y0160474D01*
X0173406Y0160444D01*
X0173378Y0160417D01*
X0173347Y0160392D01*
X0173314Y0160371D01*
X0173279Y0160353D01*
X0173242Y0160339D01*
X0173205Y0160328D01*
X0173166Y0160321D01*
X0173127Y0160318D01*
X0173088Y0160319D01*
X0173049Y0160324D01*
X0173010Y0160333D01*
X0172973Y0160345D01*
X0172937Y0160361D01*
X0172903Y0160381D01*
X0172871Y0160404D01*
X0172842Y0160430D01*
X0172815Y0160459D01*
X0172791Y0160490D01*
X0172771Y0160524D01*
X0172754Y0160559D01*
X0172741Y0160596D01*
X0172731Y0160634D01*
X0172725Y0160673D01*
X0172723Y0160712D01*
X0172841Y0112405D02*
X0172843Y0112444D01*
X0172849Y0112483D01*
X0172859Y0112521D01*
X0172872Y0112558D01*
X0172889Y0112593D01*
X0172909Y0112627D01*
X0172933Y0112658D01*
X0172960Y0112687D01*
X0172989Y0112713D01*
X0173021Y0112736D01*
X0173055Y0112756D01*
X0173091Y0112772D01*
X0173128Y0112784D01*
X0173167Y0112793D01*
X0173206Y0112798D01*
X0173245Y0112799D01*
X0173284Y0112796D01*
X0173323Y0112789D01*
X0173360Y0112778D01*
X0173397Y0112764D01*
X0173432Y0112746D01*
X0173465Y0112725D01*
X0173496Y0112700D01*
X0173524Y0112673D01*
X0173549Y0112643D01*
X0173571Y0112610D01*
X0173590Y0112576D01*
X0173605Y0112540D01*
X0173617Y0112502D01*
X0173625Y0112464D01*
X0173629Y0112425D01*
X0173629Y0112385D01*
X0173625Y0112346D01*
X0173617Y0112308D01*
X0173605Y0112270D01*
X0173590Y0112234D01*
X0173571Y0112200D01*
X0173549Y0112167D01*
X0173524Y0112137D01*
X0173496Y0112110D01*
X0173465Y0112085D01*
X0173432Y0112064D01*
X0173397Y0112046D01*
X0173360Y0112032D01*
X0173323Y0112021D01*
X0173284Y0112014D01*
X0173245Y0112011D01*
X0173206Y0112012D01*
X0173167Y0112017D01*
X0173128Y0112026D01*
X0173091Y0112038D01*
X0173055Y0112054D01*
X0173021Y0112074D01*
X0172989Y0112097D01*
X0172960Y0112123D01*
X0172933Y0112152D01*
X0172909Y0112183D01*
X0172889Y0112217D01*
X0172872Y0112252D01*
X0172859Y0112289D01*
X0172849Y0112327D01*
X0172843Y0112366D01*
X0172841Y0112405D01*
M02*
