G75*
%MOIN*%
%OFA0B0*%
%FSLAX25Y25*%
%IPPOS*%
%LPD*%
%AMOC8*
5,1,8,0,0,1.08239X$1,22.5*
%
%ADD10C,0.07000*%
%ADD11R,0.07000X0.07000*%
%ADD12R,0.04737X0.05131*%
%ADD13R,0.05131X0.04737*%
%ADD14R,0.08800X0.03400*%
%ADD15R,0.03950X0.04343*%
%ADD16C,0.07800*%
%ADD17C,0.10800*%
%ADD18C,0.08200*%
%ADD19R,0.02375X0.02769*%
%ADD20R,0.28000X0.06900*%
D10*
X0135085Y0057468D03*
X0135085Y0067468D03*
X0135085Y0077468D03*
X0135085Y0087468D03*
X0135085Y0097468D03*
X0135085Y0107468D03*
X0135085Y0117468D03*
X0135085Y0127468D03*
X0135085Y0137468D03*
X0135085Y0147468D03*
X0135085Y0157468D03*
X0135085Y0167468D03*
X0135085Y0177468D03*
X0135085Y0187468D03*
X0145085Y0187468D03*
X0155085Y0187468D03*
X0165085Y0187468D03*
X0175085Y0187468D03*
X0185085Y0187468D03*
X0195085Y0187468D03*
X0195085Y0177468D03*
X0195085Y0167468D03*
X0195085Y0157468D03*
X0195085Y0147468D03*
X0195085Y0137468D03*
X0195085Y0127468D03*
X0195085Y0117468D03*
X0195085Y0107468D03*
X0195085Y0097468D03*
X0195085Y0087468D03*
X0195085Y0077468D03*
X0195085Y0067468D03*
X0195085Y0057468D03*
X0120085Y0203468D03*
X0120085Y0213468D03*
X0120085Y0223468D03*
X0120085Y0233468D03*
X0120085Y0243468D03*
X0120085Y0253468D03*
X0040085Y0243468D03*
X0040085Y0233468D03*
X0040085Y0223468D03*
X0040085Y0213468D03*
X0040085Y0203468D03*
D11*
X0040085Y0253468D03*
D12*
X0158085Y0135815D03*
X0158085Y0129122D03*
X0150085Y0077815D03*
X0150085Y0071122D03*
D13*
X0150739Y0112468D03*
X0157431Y0112468D03*
X0099431Y0176468D03*
X0092739Y0176468D03*
X0090431Y0166468D03*
X0083739Y0166468D03*
X0083739Y0157468D03*
X0090431Y0157468D03*
X0147739Y0212468D03*
X0154431Y0212468D03*
D14*
X0159985Y0219968D03*
X0159985Y0224968D03*
X0159985Y0229968D03*
X0159985Y0234968D03*
X0184185Y0234968D03*
X0184185Y0229968D03*
X0184185Y0224968D03*
X0184185Y0219968D03*
X0177185Y0158968D03*
X0177185Y0153968D03*
X0177185Y0148968D03*
X0177185Y0143968D03*
X0152985Y0143968D03*
X0152985Y0148968D03*
X0152985Y0153968D03*
X0152985Y0158968D03*
D15*
X0176345Y0120405D03*
X0180085Y0112137D03*
X0183825Y0120405D03*
X0168825Y0091405D03*
X0165085Y0083137D03*
X0161345Y0091405D03*
D16*
X0092785Y0141568D03*
X0073085Y0127368D03*
X0053385Y0141568D03*
D17*
X0046085Y0077468D03*
X0066085Y0077468D03*
X0086085Y0077468D03*
X0143085Y0251868D03*
X0163085Y0251868D03*
X0183085Y0251868D03*
D18*
X0066085Y0095468D03*
X0056085Y0095468D03*
X0046085Y0095468D03*
D19*
X0064526Y0159728D03*
X0067085Y0159728D03*
X0069644Y0159728D03*
X0069644Y0167208D03*
X0067085Y0167208D03*
X0064526Y0167208D03*
D20*
X0043085Y0187018D03*
M02*
