%
M48
M72
T01C0.0200
T02C0.0380
T03C0.0400
T04C0.0600
%
T01
X10109Y6047
X12109Y6847
X12709Y8347
X14309Y8447
X15609Y10047
X16909Y10147
X18009Y9847
X16509Y7147
X15009Y11947
X14309Y12247
X14409Y13847
X14359Y15847
X16709Y14447
X16609Y13247
X18009Y17497
X17509Y20947
X18609Y20947
X19509Y20947
X20809Y18047
X13909Y21647
X12709Y20847
X12109Y19447
X10009Y20047
X10109Y22847
X10109Y23847
X10309Y15747
X10309Y15047
T02
X13509Y14747
X13509Y15747
X13509Y16747
X13509Y17747
X13509Y18747
X14509Y18747
X15509Y18747
X16509Y18747
X17509Y18747
X18509Y18747
X19509Y18747
X19509Y17747
X19509Y16747
X19509Y15747
X19509Y14747
X19509Y13747
X19509Y12747
X19509Y11747
X19509Y10747
X19509Y9747
X19509Y8747
X19509Y7747
X19509Y6747
X19509Y5747
X13509Y5747
X13509Y6747
X13509Y7747
X13509Y8747
X13509Y9747
X13509Y10747
X13509Y11747
X13509Y12747
X13509Y13747
X12009Y20347
X12009Y21347
X12009Y22347
X12009Y23347
X12009Y24347
X12009Y25347
X4009Y25347
X4009Y24347
X4009Y23347
X4009Y22347
X4009Y21347
X4009Y20347
T03
X5339Y14157
X7309Y12737
X9279Y14157
X6609Y9547
X5609Y9547
X4609Y9547
T04
X4609Y7747
X6609Y7747
X8609Y7747
X14309Y25187
X16309Y25187
X18309Y25187
M30
