G75*
%MOIN*%
%OFA0B0*%
%FSLAX25Y25*%
%IPPOS*%
%LPD*%
%AMOC8*
5,1,8,0,0,1.08239X$1,22.5*
%
%ADD10C,0.01181*%
%ADD11C,0.06200*%
%ADD12R,0.04331X0.03937*%
%ADD13R,0.03937X0.04331*%
%ADD14R,0.06200X0.06200*%
%ADD15R,0.03150X0.03543*%
%ADD16R,0.05118X0.03937*%
%ADD17C,0.07000*%
%ADD18C,0.10000*%
%ADD19R,0.03937X0.05118*%
%ADD20C,0.07400*%
%ADD21R,0.30000X0.08900*%
%ADD22C,0.00800*%
%ADD23C,0.04000*%
%ADD24C,0.03000*%
%ADD25C,0.02400*%
D10*
X0049648Y0155090D02*
X0049648Y0157846D01*
X0052404Y0157846D01*
X0052404Y0155090D01*
X0049648Y0155090D01*
X0049648Y0156270D02*
X0052404Y0156270D01*
X0052404Y0157450D02*
X0049648Y0157450D01*
X0056553Y0157846D02*
X0056553Y0155090D01*
X0056553Y0157846D02*
X0059309Y0157846D01*
X0059309Y0155090D01*
X0056553Y0155090D01*
X0056553Y0156270D02*
X0059309Y0156270D01*
X0059309Y0157450D02*
X0056553Y0157450D01*
X0056553Y0165090D02*
X0056553Y0167846D01*
X0059309Y0167846D01*
X0059309Y0165090D01*
X0056553Y0165090D01*
X0056553Y0166270D02*
X0059309Y0166270D01*
X0059309Y0167450D02*
X0056553Y0167450D01*
X0049648Y0167846D02*
X0049648Y0165090D01*
X0049648Y0167846D02*
X0052404Y0167846D01*
X0052404Y0165090D01*
X0049648Y0165090D01*
X0049648Y0166270D02*
X0052404Y0166270D01*
X0052404Y0167450D02*
X0049648Y0167450D01*
X0049648Y0175090D02*
X0049648Y0177846D01*
X0052404Y0177846D01*
X0052404Y0175090D01*
X0049648Y0175090D01*
X0049648Y0176270D02*
X0052404Y0176270D01*
X0052404Y0177450D02*
X0049648Y0177450D01*
X0056553Y0177846D02*
X0056553Y0175090D01*
X0056553Y0177846D02*
X0059309Y0177846D01*
X0059309Y0175090D01*
X0056553Y0175090D01*
X0056553Y0176270D02*
X0059309Y0176270D01*
X0059309Y0177450D02*
X0056553Y0177450D01*
X0056553Y0185090D02*
X0056553Y0187846D01*
X0059309Y0187846D01*
X0059309Y0185090D01*
X0056553Y0185090D01*
X0056553Y0186270D02*
X0059309Y0186270D01*
X0059309Y0187450D02*
X0056553Y0187450D01*
X0049648Y0187846D02*
X0049648Y0185090D01*
X0049648Y0187846D02*
X0052404Y0187846D01*
X0052404Y0185090D01*
X0049648Y0185090D01*
X0049648Y0186270D02*
X0052404Y0186270D01*
X0052404Y0187450D02*
X0049648Y0187450D01*
X0049648Y0195090D02*
X0049648Y0197846D01*
X0052404Y0197846D01*
X0052404Y0195090D01*
X0049648Y0195090D01*
X0049648Y0196270D02*
X0052404Y0196270D01*
X0052404Y0197450D02*
X0049648Y0197450D01*
X0056553Y0197846D02*
X0056553Y0195090D01*
X0056553Y0197846D02*
X0059309Y0197846D01*
X0059309Y0195090D01*
X0056553Y0195090D01*
X0056553Y0196270D02*
X0059309Y0196270D01*
X0059309Y0197450D02*
X0056553Y0197450D01*
X0056553Y0205090D02*
X0056553Y0207846D01*
X0059309Y0207846D01*
X0059309Y0205090D01*
X0056553Y0205090D01*
X0056553Y0206270D02*
X0059309Y0206270D01*
X0059309Y0207450D02*
X0056553Y0207450D01*
X0049648Y0207846D02*
X0049648Y0205090D01*
X0049648Y0207846D02*
X0052404Y0207846D01*
X0052404Y0205090D01*
X0049648Y0205090D01*
X0049648Y0206270D02*
X0052404Y0206270D01*
X0052404Y0207450D02*
X0049648Y0207450D01*
X0147648Y0079846D02*
X0147648Y0077090D01*
X0147648Y0079846D02*
X0150404Y0079846D01*
X0150404Y0077090D01*
X0147648Y0077090D01*
X0147648Y0078270D02*
X0150404Y0078270D01*
X0150404Y0079450D02*
X0147648Y0079450D01*
X0154553Y0079846D02*
X0154553Y0077090D01*
X0154553Y0079846D02*
X0157309Y0079846D01*
X0157309Y0077090D01*
X0154553Y0077090D01*
X0154553Y0078270D02*
X0157309Y0078270D01*
X0157309Y0079450D02*
X0154553Y0079450D01*
X0169648Y0079846D02*
X0169648Y0077090D01*
X0169648Y0079846D02*
X0172404Y0079846D01*
X0172404Y0077090D01*
X0169648Y0077090D01*
X0169648Y0078270D02*
X0172404Y0078270D01*
X0172404Y0079450D02*
X0169648Y0079450D01*
X0176553Y0079846D02*
X0176553Y0077090D01*
X0176553Y0079846D02*
X0179309Y0079846D01*
X0179309Y0077090D01*
X0176553Y0077090D01*
X0176553Y0078270D02*
X0179309Y0078270D01*
X0179309Y0079450D02*
X0176553Y0079450D01*
D11*
X0193478Y0074468D03*
X0193478Y0084468D03*
X0193478Y0094468D03*
X0193478Y0104468D03*
X0193478Y0114468D03*
X0193478Y0124468D03*
X0193478Y0134468D03*
X0193478Y0144468D03*
X0193478Y0154468D03*
X0193478Y0164468D03*
X0193478Y0174468D03*
X0193478Y0184468D03*
X0193478Y0194468D03*
X0193478Y0204468D03*
X0183478Y0204468D03*
X0173478Y0204468D03*
X0163478Y0204468D03*
X0153478Y0204468D03*
X0143478Y0204468D03*
X0133478Y0204468D03*
X0133478Y0194468D03*
X0133478Y0184468D03*
X0133478Y0174468D03*
X0133478Y0164468D03*
X0133478Y0154468D03*
X0133478Y0144468D03*
X0133478Y0134468D03*
X0133478Y0124468D03*
X0133478Y0114468D03*
X0133478Y0104468D03*
X0133478Y0094468D03*
X0133478Y0084468D03*
X0133478Y0074468D03*
X0118478Y0172468D03*
X0118478Y0182468D03*
X0118478Y0192468D03*
X0118478Y0202468D03*
X0118478Y0212468D03*
X0118478Y0222468D03*
X0038478Y0212468D03*
X0038478Y0202468D03*
X0038478Y0192468D03*
X0038478Y0182468D03*
X0038478Y0172468D03*
D12*
X0112132Y0151468D03*
X0118825Y0151468D03*
X0118825Y0141468D03*
X0112132Y0141468D03*
X0112132Y0131468D03*
X0118825Y0131468D03*
X0118825Y0121468D03*
X0112132Y0121468D03*
X0112132Y0111468D03*
X0118825Y0111468D03*
X0149132Y0160468D03*
X0155825Y0160468D03*
X0155825Y0174468D03*
X0149132Y0174468D03*
X0149132Y0191468D03*
X0155825Y0191468D03*
X0172132Y0191468D03*
X0178825Y0191468D03*
D13*
X0155478Y0146815D03*
X0155478Y0140122D03*
X0146478Y0121815D03*
X0146478Y0115122D03*
X0179478Y0115815D03*
X0179478Y0109122D03*
X0064478Y0140122D03*
X0064478Y0146815D03*
D14*
X0038478Y0222468D03*
D15*
X0169738Y0138531D03*
X0177219Y0138531D03*
X0173478Y0146799D03*
D16*
X0167801Y0160578D03*
X0167801Y0174358D03*
X0183156Y0167468D03*
D17*
X0091178Y0141568D03*
X0071478Y0127368D03*
X0051778Y0141568D03*
D18*
X0044478Y0077468D03*
X0064478Y0077468D03*
X0084478Y0077468D03*
X0141478Y0220868D03*
X0161478Y0220868D03*
X0181478Y0220868D03*
D19*
X0170368Y0122901D03*
X0163478Y0122901D03*
X0156589Y0122901D03*
X0156589Y0102035D03*
X0163478Y0102035D03*
X0170368Y0102035D03*
D20*
X0064478Y0095468D03*
X0054478Y0095468D03*
X0044478Y0095468D03*
D21*
X0092478Y0196018D03*
D22*
X0021078Y0230223D02*
X0021078Y0068068D01*
X0210792Y0068068D01*
X0210792Y0230223D01*
X0021078Y0230223D01*
X0021078Y0230163D02*
X0210792Y0230163D01*
X0210792Y0229365D02*
X0021078Y0229365D01*
X0021078Y0228566D02*
X0210792Y0228566D01*
X0210792Y0227767D02*
X0021078Y0227767D01*
X0021078Y0226969D02*
X0139519Y0226969D01*
X0139417Y0226942D02*
X0138642Y0226620D01*
X0137915Y0226201D01*
X0137250Y0225690D01*
X0136656Y0225097D01*
X0136146Y0224431D01*
X0135726Y0223705D01*
X0135405Y0222930D01*
X0135188Y0222119D01*
X0135078Y0221288D01*
X0135078Y0221268D01*
X0141078Y0221268D01*
X0141078Y0220468D01*
X0135078Y0220468D01*
X0135078Y0220449D01*
X0135188Y0219617D01*
X0135405Y0218807D01*
X0135726Y0218031D01*
X0136146Y0217305D01*
X0136656Y0216639D01*
X0137250Y0216046D01*
X0137915Y0215535D01*
X0138642Y0215116D01*
X0139417Y0214795D01*
X0140227Y0214578D01*
X0141059Y0214468D01*
X0141078Y0214468D01*
X0141078Y0220468D01*
X0141878Y0220468D01*
X0141878Y0214468D01*
X0141898Y0214468D01*
X0142730Y0214578D01*
X0143540Y0214795D01*
X0144315Y0215116D01*
X0145042Y0215535D01*
X0145707Y0216046D01*
X0146301Y0216639D01*
X0146811Y0217305D01*
X0147231Y0218031D01*
X0147552Y0218807D01*
X0147769Y0219617D01*
X0147878Y0220449D01*
X0147878Y0220468D01*
X0141879Y0220468D01*
X0141879Y0221268D01*
X0147878Y0221268D01*
X0147878Y0221288D01*
X0147769Y0222119D01*
X0147552Y0222930D01*
X0147231Y0223705D01*
X0146811Y0224431D01*
X0146301Y0225097D01*
X0145707Y0225690D01*
X0145042Y0226201D01*
X0144315Y0226620D01*
X0143540Y0226942D01*
X0142730Y0227159D01*
X0141898Y0227268D01*
X0141878Y0227268D01*
X0141878Y0221268D01*
X0141078Y0221268D01*
X0141078Y0227268D01*
X0141059Y0227268D01*
X0140227Y0227159D01*
X0139417Y0226942D01*
X0141078Y0226969D02*
X0141878Y0226969D01*
X0141878Y0226170D02*
X0141078Y0226170D01*
X0141078Y0225372D02*
X0141878Y0225372D01*
X0141878Y0224573D02*
X0141078Y0224573D01*
X0141078Y0223775D02*
X0141878Y0223775D01*
X0141878Y0222976D02*
X0141078Y0222976D01*
X0141078Y0222178D02*
X0141878Y0222178D01*
X0141878Y0221379D02*
X0141078Y0221379D01*
X0141078Y0220581D02*
X0122567Y0220581D01*
X0122649Y0220741D02*
X0122868Y0221414D01*
X0122971Y0222068D01*
X0118879Y0222068D01*
X0118879Y0222868D01*
X0122971Y0222868D01*
X0122868Y0223522D01*
X0122649Y0224196D01*
X0122327Y0224827D01*
X0121911Y0225400D01*
X0121410Y0225901D01*
X0120837Y0226317D01*
X0120206Y0226638D01*
X0119532Y0226857D01*
X0118878Y0226961D01*
X0118878Y0222868D01*
X0118078Y0222868D01*
X0118078Y0222068D01*
X0113986Y0222068D01*
X0114089Y0221414D01*
X0114308Y0220741D01*
X0114630Y0220110D01*
X0115046Y0219537D01*
X0115115Y0219468D01*
X0097650Y0219468D01*
X0090234Y0212052D01*
X0090195Y0212068D01*
X0088762Y0212068D01*
X0087439Y0211520D01*
X0086427Y0210507D01*
X0085878Y0209184D01*
X0085878Y0207752D01*
X0086427Y0206429D01*
X0087439Y0205416D01*
X0088762Y0204868D01*
X0090195Y0204868D01*
X0091518Y0205416D01*
X0092530Y0206429D01*
X0093078Y0207752D01*
X0093078Y0209184D01*
X0093062Y0209224D01*
X0099307Y0215468D01*
X0114832Y0215468D01*
X0114494Y0215131D01*
X0113778Y0213403D01*
X0113778Y0211533D01*
X0114494Y0209806D01*
X0115678Y0208621D01*
X0115678Y0206315D01*
X0114494Y0205131D01*
X0113778Y0203403D01*
X0113778Y0201533D01*
X0114494Y0199806D01*
X0115816Y0198484D01*
X0117544Y0197768D01*
X0119413Y0197768D01*
X0121141Y0198484D01*
X0122463Y0199806D01*
X0123178Y0201533D01*
X0123178Y0203403D01*
X0122463Y0205131D01*
X0121278Y0206315D01*
X0121278Y0208621D01*
X0122463Y0209806D01*
X0123178Y0211533D01*
X0123178Y0213403D01*
X0122463Y0215131D01*
X0122125Y0215468D01*
X0125650Y0215468D01*
X0131478Y0209640D01*
X0131478Y0208727D01*
X0130816Y0208453D01*
X0129494Y0207131D01*
X0128778Y0205403D01*
X0128778Y0203533D01*
X0129494Y0201806D01*
X0130816Y0200484D01*
X0132544Y0199768D01*
X0134413Y0199768D01*
X0136141Y0200484D01*
X0137463Y0201806D01*
X0138178Y0203533D01*
X0138178Y0205403D01*
X0137463Y0207131D01*
X0136141Y0208453D01*
X0135478Y0208727D01*
X0135478Y0211297D01*
X0128478Y0218297D01*
X0127307Y0219468D01*
X0121842Y0219468D01*
X0121911Y0219537D01*
X0122327Y0220110D01*
X0122649Y0220741D01*
X0122856Y0221379D02*
X0135091Y0221379D01*
X0135204Y0222178D02*
X0118879Y0222178D01*
X0118878Y0222976D02*
X0118078Y0222976D01*
X0118078Y0222868D02*
X0118078Y0226961D01*
X0117425Y0226857D01*
X0116751Y0226638D01*
X0116120Y0226317D01*
X0115547Y0225901D01*
X0115046Y0225400D01*
X0114630Y0224827D01*
X0114308Y0224196D01*
X0114089Y0223522D01*
X0113986Y0222868D01*
X0118078Y0222868D01*
X0118078Y0222178D02*
X0038879Y0222178D01*
X0038879Y0222068D02*
X0038879Y0222868D01*
X0042978Y0222868D01*
X0042978Y0225753D01*
X0042883Y0226109D01*
X0042699Y0226428D01*
X0042438Y0226688D01*
X0042119Y0226873D01*
X0041763Y0226968D01*
X0038878Y0226968D01*
X0038878Y0222868D01*
X0038078Y0222868D01*
X0038078Y0222068D01*
X0033978Y0222068D01*
X0033978Y0219184D01*
X0034074Y0218828D01*
X0034258Y0218509D01*
X0034519Y0218248D01*
X0034838Y0218064D01*
X0035194Y0217968D01*
X0038078Y0217968D01*
X0038078Y0222068D01*
X0038878Y0222068D01*
X0038878Y0217968D01*
X0041763Y0217968D01*
X0042119Y0218064D01*
X0042438Y0218248D01*
X0042699Y0218509D01*
X0042883Y0218828D01*
X0042978Y0219184D01*
X0042978Y0222068D01*
X0038879Y0222068D01*
X0038878Y0221379D02*
X0038078Y0221379D01*
X0038078Y0220581D02*
X0038878Y0220581D01*
X0038878Y0219782D02*
X0038078Y0219782D01*
X0038078Y0218984D02*
X0038878Y0218984D01*
X0038878Y0218185D02*
X0038078Y0218185D01*
X0038078Y0216961D02*
X0037425Y0216857D01*
X0036751Y0216638D01*
X0036120Y0216317D01*
X0035547Y0215901D01*
X0035046Y0215400D01*
X0034630Y0214827D01*
X0034308Y0214196D01*
X0034089Y0213522D01*
X0033986Y0212868D01*
X0038078Y0212868D01*
X0038078Y0212068D01*
X0033986Y0212068D01*
X0034089Y0211414D01*
X0034308Y0210741D01*
X0034630Y0210110D01*
X0035046Y0209537D01*
X0035547Y0209036D01*
X0036120Y0208619D01*
X0036751Y0208298D01*
X0037425Y0208079D01*
X0038078Y0207975D01*
X0038078Y0212068D01*
X0038878Y0212068D01*
X0038878Y0207975D01*
X0039532Y0208079D01*
X0040206Y0208298D01*
X0040837Y0208619D01*
X0041410Y0209036D01*
X0041911Y0209537D01*
X0042327Y0210110D01*
X0042649Y0210741D01*
X0042868Y0211414D01*
X0042971Y0212068D01*
X0038879Y0212068D01*
X0038879Y0212868D01*
X0042971Y0212868D01*
X0042868Y0213522D01*
X0042649Y0214196D01*
X0042327Y0214827D01*
X0041911Y0215400D01*
X0041410Y0215901D01*
X0040837Y0216317D01*
X0040206Y0216638D01*
X0039532Y0216857D01*
X0038878Y0216961D01*
X0038878Y0212868D01*
X0038078Y0212868D01*
X0038078Y0216961D01*
X0038078Y0216588D02*
X0038878Y0216588D01*
X0038878Y0215790D02*
X0038078Y0215790D01*
X0038078Y0214991D02*
X0038878Y0214991D01*
X0038878Y0214193D02*
X0038078Y0214193D01*
X0038078Y0213394D02*
X0038878Y0213394D01*
X0038879Y0212596D02*
X0090778Y0212596D01*
X0091576Y0213394D02*
X0042888Y0213394D01*
X0042650Y0214193D02*
X0092375Y0214193D01*
X0093173Y0214991D02*
X0042208Y0214991D01*
X0041521Y0215790D02*
X0093972Y0215790D01*
X0094770Y0216588D02*
X0040304Y0216588D01*
X0042330Y0218185D02*
X0096367Y0218185D01*
X0095569Y0217387D02*
X0021078Y0217387D01*
X0021078Y0218185D02*
X0034627Y0218185D01*
X0034032Y0218984D02*
X0021078Y0218984D01*
X0021078Y0219782D02*
X0033978Y0219782D01*
X0033978Y0220581D02*
X0021078Y0220581D01*
X0021078Y0221379D02*
X0033978Y0221379D01*
X0033978Y0222868D02*
X0038078Y0222868D01*
X0038078Y0226968D01*
X0035194Y0226968D01*
X0034838Y0226873D01*
X0034519Y0226688D01*
X0034258Y0226428D01*
X0034074Y0226109D01*
X0033978Y0225753D01*
X0033978Y0222868D01*
X0033978Y0222976D02*
X0021078Y0222976D01*
X0021078Y0222178D02*
X0038078Y0222178D01*
X0038078Y0222976D02*
X0038878Y0222976D01*
X0038878Y0223775D02*
X0038078Y0223775D01*
X0038078Y0224573D02*
X0038878Y0224573D01*
X0038878Y0225372D02*
X0038078Y0225372D01*
X0038078Y0226170D02*
X0038878Y0226170D01*
X0042847Y0226170D02*
X0115918Y0226170D01*
X0115026Y0225372D02*
X0042978Y0225372D01*
X0042978Y0224573D02*
X0114501Y0224573D01*
X0114171Y0223775D02*
X0042978Y0223775D01*
X0042978Y0222976D02*
X0114003Y0222976D01*
X0114101Y0221379D02*
X0042978Y0221379D01*
X0042978Y0220581D02*
X0114390Y0220581D01*
X0114868Y0219782D02*
X0042978Y0219782D01*
X0042925Y0218984D02*
X0097166Y0218984D01*
X0098478Y0217468D02*
X0089478Y0208468D01*
X0088108Y0211797D02*
X0042928Y0211797D01*
X0042733Y0210999D02*
X0086918Y0210999D01*
X0086299Y0210200D02*
X0042373Y0210200D01*
X0041776Y0209402D02*
X0048388Y0209402D01*
X0048426Y0209439D02*
X0048055Y0209068D01*
X0047793Y0208614D01*
X0047657Y0208108D01*
X0047657Y0206868D01*
X0050626Y0206868D01*
X0050626Y0209837D01*
X0049386Y0209837D01*
X0048879Y0209701D01*
X0048426Y0209439D01*
X0047790Y0208603D02*
X0040805Y0208603D01*
X0039804Y0207006D02*
X0047657Y0207006D01*
X0047657Y0207805D02*
X0021078Y0207805D01*
X0021078Y0208603D02*
X0036152Y0208603D01*
X0035181Y0209402D02*
X0021078Y0209402D01*
X0021078Y0210200D02*
X0034584Y0210200D01*
X0034224Y0210999D02*
X0021078Y0210999D01*
X0021078Y0211797D02*
X0034029Y0211797D01*
X0034069Y0213394D02*
X0021078Y0213394D01*
X0021078Y0212596D02*
X0038078Y0212596D01*
X0038078Y0211797D02*
X0038878Y0211797D01*
X0038878Y0210999D02*
X0038078Y0210999D01*
X0038078Y0210200D02*
X0038878Y0210200D01*
X0038878Y0209402D02*
X0038078Y0209402D01*
X0038078Y0208603D02*
X0038878Y0208603D01*
X0039413Y0207168D02*
X0037544Y0207168D01*
X0035816Y0206453D01*
X0034494Y0205131D01*
X0033778Y0203403D01*
X0033778Y0201533D01*
X0034494Y0199806D01*
X0035816Y0198484D01*
X0037544Y0197768D01*
X0039413Y0197768D01*
X0041141Y0198484D01*
X0042463Y0199806D01*
X0043178Y0201533D01*
X0043178Y0203403D01*
X0042463Y0205131D01*
X0041141Y0206453D01*
X0039413Y0207168D01*
X0041386Y0206208D02*
X0050626Y0206208D01*
X0050626Y0206068D02*
X0047657Y0206068D01*
X0047657Y0204828D01*
X0047793Y0204322D01*
X0048055Y0203868D01*
X0048426Y0203497D01*
X0048879Y0203235D01*
X0049386Y0203100D01*
X0050626Y0203100D01*
X0050626Y0206068D01*
X0051426Y0206068D01*
X0051426Y0203100D01*
X0052666Y0203100D01*
X0053172Y0203235D01*
X0053626Y0203497D01*
X0053996Y0203868D01*
X0054259Y0204322D01*
X0054363Y0204711D01*
X0054363Y0204183D01*
X0055646Y0202900D01*
X0060217Y0202900D01*
X0061500Y0204183D01*
X0061500Y0204468D01*
X0063650Y0204468D01*
X0065478Y0202640D01*
X0065478Y0196297D01*
X0064478Y0197297D01*
X0063307Y0198468D01*
X0061500Y0198468D01*
X0061500Y0198753D01*
X0060217Y0200037D01*
X0055646Y0200037D01*
X0054363Y0198753D01*
X0054363Y0198226D01*
X0054259Y0198614D01*
X0053996Y0199068D01*
X0053626Y0199439D01*
X0053172Y0199701D01*
X0052666Y0199837D01*
X0051426Y0199837D01*
X0051426Y0196868D01*
X0050626Y0196868D01*
X0050626Y0199837D01*
X0049386Y0199837D01*
X0048879Y0199701D01*
X0048426Y0199439D01*
X0048055Y0199068D01*
X0047793Y0198614D01*
X0047657Y0198108D01*
X0047657Y0196868D01*
X0050626Y0196868D01*
X0050626Y0196068D01*
X0051426Y0196068D01*
X0051426Y0193100D01*
X0052666Y0193100D01*
X0053172Y0193235D01*
X0053626Y0193497D01*
X0053996Y0193868D01*
X0054259Y0194322D01*
X0054363Y0194711D01*
X0054363Y0194183D01*
X0055646Y0192900D01*
X0060217Y0192900D01*
X0061500Y0194183D01*
X0061500Y0194468D01*
X0061650Y0194468D01*
X0063478Y0192640D01*
X0063478Y0187297D01*
X0062307Y0188468D01*
X0061500Y0188468D01*
X0061500Y0188753D01*
X0060217Y0190037D01*
X0055646Y0190037D01*
X0054363Y0188753D01*
X0054363Y0188226D01*
X0054259Y0188614D01*
X0053996Y0189068D01*
X0053626Y0189439D01*
X0055048Y0189439D01*
X0054363Y0188640D02*
X0054244Y0188640D01*
X0053626Y0189439D02*
X0053172Y0189701D01*
X0052666Y0189837D01*
X0051426Y0189837D01*
X0051426Y0186868D01*
X0050626Y0186868D01*
X0050626Y0189837D01*
X0049386Y0189837D01*
X0048879Y0189701D01*
X0048426Y0189439D01*
X0048055Y0189068D01*
X0047793Y0188614D01*
X0047657Y0188108D01*
X0047657Y0186868D01*
X0050626Y0186868D01*
X0050626Y0186068D01*
X0051426Y0186068D01*
X0051426Y0183100D01*
X0052666Y0183100D01*
X0053172Y0183235D01*
X0053626Y0183497D01*
X0053996Y0183868D01*
X0054259Y0184322D01*
X0054363Y0184711D01*
X0054363Y0184183D01*
X0055646Y0182900D01*
X0060217Y0182900D01*
X0061218Y0183901D01*
X0061478Y0183640D01*
X0061478Y0178775D01*
X0060217Y0180037D01*
X0055646Y0180037D01*
X0054363Y0178753D01*
X0054363Y0178226D01*
X0054259Y0178614D01*
X0053996Y0179068D01*
X0053626Y0179439D01*
X0053172Y0179701D01*
X0052666Y0179837D01*
X0051426Y0179837D01*
X0051426Y0176868D01*
X0050626Y0176868D01*
X0050626Y0179837D01*
X0049386Y0179837D01*
X0048879Y0179701D01*
X0048426Y0179439D01*
X0048055Y0179068D01*
X0047793Y0178614D01*
X0047657Y0178108D01*
X0047657Y0176868D01*
X0050626Y0176868D01*
X0050626Y0176068D01*
X0051426Y0176068D01*
X0051426Y0173100D01*
X0052666Y0173100D01*
X0053172Y0173235D01*
X0053626Y0173497D01*
X0053996Y0173868D01*
X0054259Y0174322D01*
X0054363Y0174711D01*
X0054363Y0174183D01*
X0055646Y0172900D01*
X0060217Y0172900D01*
X0061218Y0173901D01*
X0062478Y0172640D01*
X0062478Y0167297D01*
X0061500Y0168275D01*
X0061500Y0168753D01*
X0060217Y0170037D01*
X0055646Y0170037D01*
X0054363Y0168753D01*
X0054363Y0168226D01*
X0054259Y0168614D01*
X0053996Y0169068D01*
X0053626Y0169439D01*
X0053172Y0169701D01*
X0052666Y0169837D01*
X0051426Y0169837D01*
X0051426Y0166868D01*
X0050626Y0166868D01*
X0050626Y0169837D01*
X0049386Y0169837D01*
X0048879Y0169701D01*
X0048426Y0169439D01*
X0048055Y0169068D01*
X0047793Y0168614D01*
X0047657Y0168108D01*
X0047657Y0166868D01*
X0050626Y0166868D01*
X0050626Y0166068D01*
X0051426Y0166068D01*
X0051426Y0163100D01*
X0052666Y0163100D01*
X0053172Y0163235D01*
X0053626Y0163497D01*
X0053996Y0163868D01*
X0054259Y0164322D01*
X0054363Y0164711D01*
X0054363Y0164183D01*
X0055646Y0162900D01*
X0060217Y0162900D01*
X0060478Y0163162D01*
X0060478Y0159775D01*
X0060217Y0160037D01*
X0055646Y0160037D01*
X0054363Y0158753D01*
X0054363Y0158226D01*
X0054259Y0158614D01*
X0053996Y0159068D01*
X0053626Y0159439D01*
X0053172Y0159701D01*
X0052666Y0159837D01*
X0051426Y0159837D01*
X0051426Y0156868D01*
X0050626Y0156868D01*
X0050626Y0159837D01*
X0049386Y0159837D01*
X0048879Y0159701D01*
X0048426Y0159439D01*
X0048055Y0159068D01*
X0047793Y0158614D01*
X0047657Y0158108D01*
X0047657Y0156868D01*
X0050626Y0156868D01*
X0050626Y0156068D01*
X0051426Y0156068D01*
X0051426Y0153100D01*
X0052666Y0153100D01*
X0053172Y0153235D01*
X0053626Y0153497D01*
X0053996Y0153868D01*
X0054259Y0154322D01*
X0054363Y0154711D01*
X0054363Y0154183D01*
X0055646Y0152900D01*
X0060217Y0152900D01*
X0061218Y0153901D01*
X0062478Y0152640D01*
X0062478Y0150580D01*
X0061847Y0150580D01*
X0060910Y0149643D01*
X0060910Y0143987D01*
X0061428Y0143468D01*
X0060910Y0142950D01*
X0060910Y0137294D01*
X0061847Y0136356D01*
X0062478Y0136356D01*
X0062478Y0100376D01*
X0061476Y0099961D01*
X0059985Y0098470D01*
X0059358Y0096955D01*
X0059205Y0097426D01*
X0058840Y0098141D01*
X0058369Y0098791D01*
X0057801Y0099358D01*
X0057151Y0099830D01*
X0056436Y0100195D01*
X0055673Y0100443D01*
X0054880Y0100568D01*
X0054878Y0100568D01*
X0054878Y0095868D01*
X0054078Y0095868D01*
X0054078Y0100568D01*
X0054077Y0100568D01*
X0053284Y0100443D01*
X0052521Y0100195D01*
X0051805Y0099830D01*
X0051156Y0099358D01*
X0050588Y0098791D01*
X0050117Y0098141D01*
X0049752Y0097426D01*
X0049599Y0096955D01*
X0048972Y0098470D01*
X0047481Y0099961D01*
X0045533Y0100768D01*
X0043424Y0100768D01*
X0041476Y0099961D01*
X0039985Y0098470D01*
X0039178Y0096522D01*
X0039178Y0094414D01*
X0039985Y0092466D01*
X0041378Y0091073D01*
X0041378Y0083328D01*
X0040740Y0083063D01*
X0038883Y0081207D01*
X0037878Y0078781D01*
X0037878Y0076155D01*
X0038883Y0073730D01*
X0040740Y0071873D01*
X0043166Y0070868D01*
X0045791Y0070868D01*
X0048217Y0071873D01*
X0050074Y0073730D01*
X0051078Y0076155D01*
X0051078Y0078781D01*
X0050074Y0081207D01*
X0048217Y0083063D01*
X0047578Y0083328D01*
X0047578Y0091073D01*
X0048972Y0092466D01*
X0049599Y0093981D01*
X0049752Y0093510D01*
X0050117Y0092795D01*
X0050588Y0092146D01*
X0051156Y0091578D01*
X0051805Y0091106D01*
X0052521Y0090742D01*
X0053284Y0090494D01*
X0054077Y0090368D01*
X0054078Y0090368D01*
X0054078Y0095068D01*
X0054878Y0095068D01*
X0054878Y0090368D01*
X0054880Y0090368D01*
X0055673Y0090494D01*
X0056436Y0090742D01*
X0057151Y0091106D01*
X0057801Y0091578D01*
X0058369Y0092146D01*
X0058840Y0092795D01*
X0059205Y0093510D01*
X0059358Y0093981D01*
X0059985Y0092466D01*
X0061476Y0090975D01*
X0063424Y0090168D01*
X0065533Y0090168D01*
X0067481Y0090975D01*
X0068972Y0092466D01*
X0069778Y0094414D01*
X0069778Y0096522D01*
X0068972Y0098470D01*
X0067481Y0099961D01*
X0066478Y0100376D01*
X0066478Y0136356D01*
X0067110Y0136356D01*
X0068047Y0137294D01*
X0068047Y0138071D01*
X0079478Y0126640D01*
X0080650Y0125468D01*
X0097650Y0125468D01*
X0100478Y0122640D01*
X0100478Y0113640D01*
X0103478Y0110640D01*
X0104650Y0109468D01*
X0108367Y0109468D01*
X0108367Y0108837D01*
X0109304Y0107900D01*
X0114960Y0107900D01*
X0115478Y0108418D01*
X0115997Y0107900D01*
X0121653Y0107900D01*
X0122590Y0108837D01*
X0122590Y0109468D01*
X0125650Y0109468D01*
X0129053Y0106065D01*
X0128778Y0105403D01*
X0128778Y0103533D01*
X0129494Y0101806D01*
X0130816Y0100484D01*
X0132544Y0099768D01*
X0134413Y0099768D01*
X0136141Y0100484D01*
X0137463Y0101806D01*
X0138178Y0103533D01*
X0138178Y0105403D01*
X0137463Y0107131D01*
X0136141Y0108453D01*
X0134413Y0109168D01*
X0132544Y0109168D01*
X0131881Y0108894D01*
X0128478Y0112297D01*
X0127307Y0113468D01*
X0122590Y0113468D01*
X0122590Y0114099D01*
X0121653Y0115037D01*
X0115997Y0115037D01*
X0115478Y0114518D01*
X0114960Y0115037D01*
X0109304Y0115037D01*
X0108367Y0114099D01*
X0108367Y0113468D01*
X0106307Y0113468D01*
X0104478Y0115297D01*
X0104478Y0121640D01*
X0105478Y0120640D01*
X0106650Y0119468D01*
X0108367Y0119468D01*
X0108367Y0118837D01*
X0109304Y0117900D01*
X0114960Y0117900D01*
X0115478Y0118418D01*
X0115997Y0117900D01*
X0121653Y0117900D01*
X0122590Y0118837D01*
X0122590Y0119468D01*
X0125650Y0119468D01*
X0129053Y0116065D01*
X0128778Y0115403D01*
X0128778Y0113533D01*
X0129494Y0111806D01*
X0130816Y0110484D01*
X0132544Y0109768D01*
X0134413Y0109768D01*
X0136141Y0110484D01*
X0137463Y0111806D01*
X0138178Y0113533D01*
X0138178Y0115403D01*
X0137463Y0117131D01*
X0136141Y0118453D01*
X0134413Y0119168D01*
X0132544Y0119168D01*
X0131881Y0118894D01*
X0128478Y0122297D01*
X0127307Y0123468D01*
X0122590Y0123468D01*
X0122590Y0124099D01*
X0121653Y0125037D01*
X0115997Y0125037D01*
X0115478Y0124518D01*
X0114960Y0125037D01*
X0109304Y0125037D01*
X0108367Y0124099D01*
X0108367Y0123468D01*
X0108307Y0123468D01*
X0102307Y0129468D01*
X0108367Y0129468D01*
X0108367Y0128837D01*
X0109304Y0127900D01*
X0114960Y0127900D01*
X0115478Y0128418D01*
X0115997Y0127900D01*
X0121653Y0127900D01*
X0122590Y0128837D01*
X0122590Y0129468D01*
X0125650Y0129468D01*
X0129053Y0126065D01*
X0128778Y0125403D01*
X0128778Y0123533D01*
X0129494Y0121806D01*
X0130816Y0120484D01*
X0132544Y0119768D01*
X0134413Y0119768D01*
X0136141Y0120484D01*
X0137463Y0121806D01*
X0138178Y0123533D01*
X0138178Y0125403D01*
X0137463Y0127131D01*
X0136141Y0128453D01*
X0134413Y0129168D01*
X0132544Y0129168D01*
X0131881Y0128894D01*
X0128478Y0132297D01*
X0127307Y0133468D01*
X0122590Y0133468D01*
X0122590Y0134099D01*
X0121653Y0135037D01*
X0115997Y0135037D01*
X0115478Y0134518D01*
X0114960Y0135037D01*
X0109304Y0135037D01*
X0108367Y0134099D01*
X0108367Y0133468D01*
X0084307Y0133468D01*
X0075478Y0142297D01*
X0075478Y0151640D01*
X0079650Y0147468D01*
X0098650Y0147468D01*
X0106650Y0139468D01*
X0108367Y0139468D01*
X0108367Y0138837D01*
X0109304Y0137900D01*
X0114960Y0137900D01*
X0115478Y0138418D01*
X0115997Y0137900D01*
X0121653Y0137900D01*
X0122590Y0138837D01*
X0122590Y0139468D01*
X0125650Y0139468D01*
X0129053Y0136065D01*
X0128778Y0135403D01*
X0128778Y0133533D01*
X0129494Y0131806D01*
X0130816Y0130484D01*
X0132544Y0129768D01*
X0134413Y0129768D01*
X0136141Y0130484D01*
X0137463Y0131806D01*
X0138178Y0133533D01*
X0138178Y0135403D01*
X0137463Y0137131D01*
X0136141Y0138453D01*
X0134413Y0139168D01*
X0132544Y0139168D01*
X0131881Y0138894D01*
X0128478Y0142297D01*
X0127307Y0143468D01*
X0122590Y0143468D01*
X0122590Y0144099D01*
X0121653Y0145037D01*
X0115997Y0145037D01*
X0115478Y0144518D01*
X0114960Y0145037D01*
X0109304Y0145037D01*
X0108367Y0144099D01*
X0108367Y0143468D01*
X0108307Y0143468D01*
X0102307Y0149468D01*
X0108367Y0149468D01*
X0108367Y0148837D01*
X0109304Y0147900D01*
X0114960Y0147900D01*
X0115478Y0148418D01*
X0115997Y0147900D01*
X0121653Y0147900D01*
X0122590Y0148837D01*
X0122590Y0149468D01*
X0125650Y0149468D01*
X0129053Y0146065D01*
X0128778Y0145403D01*
X0128778Y0143533D01*
X0129494Y0141806D01*
X0130816Y0140484D01*
X0132544Y0139768D01*
X0134413Y0139768D01*
X0136141Y0140484D01*
X0137463Y0141806D01*
X0138178Y0143533D01*
X0138178Y0145403D01*
X0137463Y0147131D01*
X0136141Y0148453D01*
X0134413Y0149168D01*
X0132544Y0149168D01*
X0131881Y0148894D01*
X0128478Y0152297D01*
X0127307Y0153468D01*
X0122590Y0153468D01*
X0122590Y0154099D01*
X0121653Y0155037D01*
X0115997Y0155037D01*
X0115478Y0154518D01*
X0114960Y0155037D01*
X0109304Y0155037D01*
X0108367Y0154099D01*
X0108367Y0153468D01*
X0082307Y0153468D01*
X0072478Y0163297D01*
X0072478Y0177297D01*
X0069478Y0180297D01*
X0069478Y0204297D01*
X0065307Y0208468D01*
X0061500Y0208468D01*
X0061500Y0208753D01*
X0060217Y0210037D01*
X0055646Y0210037D01*
X0054363Y0208753D01*
X0054363Y0208226D01*
X0054259Y0208614D01*
X0053996Y0209068D01*
X0053626Y0209439D01*
X0053172Y0209701D01*
X0052666Y0209837D01*
X0051426Y0209837D01*
X0051426Y0206868D01*
X0050626Y0206868D01*
X0050626Y0206068D01*
X0050626Y0205409D02*
X0051426Y0205409D01*
X0051426Y0204611D02*
X0050626Y0204611D01*
X0050626Y0203812D02*
X0051426Y0203812D01*
X0053941Y0203812D02*
X0054733Y0203812D01*
X0054363Y0204611D02*
X0054336Y0204611D01*
X0055532Y0203014D02*
X0043178Y0203014D01*
X0043178Y0202215D02*
X0065478Y0202215D01*
X0065478Y0201417D02*
X0043130Y0201417D01*
X0042799Y0200618D02*
X0065478Y0200618D01*
X0065478Y0199820D02*
X0060434Y0199820D01*
X0061232Y0199021D02*
X0065478Y0199021D01*
X0065478Y0198223D02*
X0063552Y0198223D01*
X0064351Y0197424D02*
X0065478Y0197424D01*
X0065478Y0196626D02*
X0065150Y0196626D01*
X0064478Y0197297D02*
X0064478Y0197297D01*
X0062478Y0196468D02*
X0057931Y0196468D01*
X0055114Y0193431D02*
X0053512Y0193431D01*
X0054205Y0194230D02*
X0054363Y0194230D01*
X0051426Y0194230D02*
X0050626Y0194230D01*
X0050626Y0193431D02*
X0051426Y0193431D01*
X0050626Y0193100D02*
X0050626Y0196068D01*
X0047657Y0196068D01*
X0047657Y0194828D01*
X0047793Y0194322D01*
X0048055Y0193868D01*
X0048426Y0193497D01*
X0048879Y0193235D01*
X0049386Y0193100D01*
X0050626Y0193100D01*
X0050626Y0195029D02*
X0051426Y0195029D01*
X0051426Y0195827D02*
X0050626Y0195827D01*
X0050626Y0196626D02*
X0040723Y0196626D01*
X0041141Y0196453D02*
X0039413Y0197168D01*
X0037544Y0197168D01*
X0035816Y0196453D01*
X0034494Y0195131D01*
X0033778Y0193403D01*
X0033778Y0191533D01*
X0034494Y0189806D01*
X0035816Y0188484D01*
X0037544Y0187768D01*
X0039413Y0187768D01*
X0041141Y0188484D01*
X0042463Y0189806D01*
X0043178Y0191533D01*
X0043178Y0193403D01*
X0042463Y0195131D01*
X0041141Y0196453D01*
X0041766Y0195827D02*
X0047657Y0195827D01*
X0047657Y0195029D02*
X0042505Y0195029D01*
X0042836Y0194230D02*
X0047846Y0194230D01*
X0048540Y0193431D02*
X0043167Y0193431D01*
X0043178Y0192633D02*
X0063478Y0192633D01*
X0063478Y0191834D02*
X0043178Y0191834D01*
X0042972Y0191036D02*
X0063478Y0191036D01*
X0063478Y0190237D02*
X0042642Y0190237D01*
X0042096Y0189439D02*
X0048425Y0189439D01*
X0047808Y0188640D02*
X0041297Y0188640D01*
X0039591Y0187842D02*
X0047657Y0187842D01*
X0047657Y0187043D02*
X0039715Y0187043D01*
X0039413Y0187168D02*
X0037544Y0187168D01*
X0035816Y0186453D01*
X0034494Y0185131D01*
X0033778Y0183403D01*
X0033778Y0181533D01*
X0034494Y0179806D01*
X0035816Y0178484D01*
X0037544Y0177768D01*
X0039413Y0177768D01*
X0041141Y0178484D01*
X0042463Y0179806D01*
X0043178Y0181533D01*
X0043178Y0183403D01*
X0042463Y0185131D01*
X0041141Y0186453D01*
X0039413Y0187168D01*
X0041349Y0186245D02*
X0050626Y0186245D01*
X0050626Y0186068D02*
X0047657Y0186068D01*
X0047657Y0184828D01*
X0047793Y0184322D01*
X0048055Y0183868D01*
X0048426Y0183497D01*
X0048879Y0183235D01*
X0049386Y0183100D01*
X0050626Y0183100D01*
X0050626Y0186068D01*
X0050626Y0185446D02*
X0051426Y0185446D01*
X0051426Y0184648D02*
X0050626Y0184648D01*
X0050626Y0183849D02*
X0051426Y0183849D01*
X0053978Y0183849D02*
X0054696Y0183849D01*
X0054363Y0184648D02*
X0054346Y0184648D01*
X0055495Y0183051D02*
X0043178Y0183051D01*
X0043178Y0182252D02*
X0061478Y0182252D01*
X0061478Y0181454D02*
X0043146Y0181454D01*
X0042815Y0180655D02*
X0061478Y0180655D01*
X0061478Y0179857D02*
X0060396Y0179857D01*
X0061195Y0179058D02*
X0061478Y0179058D01*
X0063478Y0177468D02*
X0063478Y0184468D01*
X0061478Y0186468D01*
X0057931Y0186468D01*
X0060368Y0183051D02*
X0061478Y0183051D01*
X0061269Y0183849D02*
X0061166Y0183849D01*
X0063478Y0187297D02*
X0063478Y0187297D01*
X0063478Y0187842D02*
X0062933Y0187842D01*
X0063478Y0188640D02*
X0061500Y0188640D01*
X0060814Y0189439D02*
X0063478Y0189439D01*
X0062687Y0193431D02*
X0060748Y0193431D01*
X0061500Y0194230D02*
X0061888Y0194230D01*
X0062478Y0196468D02*
X0065478Y0193468D01*
X0065478Y0178468D01*
X0068478Y0175468D01*
X0068478Y0161468D01*
X0080478Y0149468D01*
X0099478Y0149468D01*
X0107478Y0141468D01*
X0112132Y0141468D01*
X0115395Y0138334D02*
X0115562Y0138334D01*
X0118825Y0141468D02*
X0126478Y0141468D01*
X0133478Y0134468D01*
X0137058Y0137536D02*
X0150718Y0137536D01*
X0151516Y0138334D02*
X0136259Y0138334D01*
X0134499Y0139133D02*
X0151910Y0139133D01*
X0151910Y0138728D02*
X0149234Y0136052D01*
X0149195Y0136068D01*
X0147762Y0136068D01*
X0146439Y0135520D01*
X0145427Y0134507D01*
X0144878Y0133184D01*
X0144878Y0131752D01*
X0144895Y0131713D01*
X0144478Y0131297D01*
X0144478Y0125580D01*
X0143847Y0125580D01*
X0142910Y0124643D01*
X0142910Y0118987D01*
X0143428Y0118468D01*
X0142910Y0117950D01*
X0142910Y0112294D01*
X0143847Y0111356D01*
X0149110Y0111356D01*
X0150047Y0112294D01*
X0150047Y0112468D01*
X0160307Y0112468D01*
X0161478Y0113640D01*
X0165478Y0117640D01*
X0165478Y0118742D01*
X0166110Y0118742D01*
X0166923Y0119556D01*
X0167737Y0118742D01*
X0172999Y0118742D01*
X0173937Y0119679D01*
X0173937Y0120901D01*
X0185740Y0120901D01*
X0188778Y0123940D01*
X0188778Y0123533D01*
X0189494Y0121806D01*
X0190816Y0120484D01*
X0192544Y0119768D01*
X0194413Y0119768D01*
X0196141Y0120484D01*
X0197463Y0121806D01*
X0198178Y0123533D01*
X0198178Y0125403D01*
X0197463Y0127131D01*
X0196141Y0128453D01*
X0194413Y0129168D01*
X0192544Y0129168D01*
X0190816Y0128453D01*
X0189494Y0127131D01*
X0189478Y0127093D01*
X0189478Y0131843D01*
X0189494Y0131806D01*
X0190816Y0130484D01*
X0192544Y0129768D01*
X0194413Y0129768D01*
X0196141Y0130484D01*
X0197463Y0131806D01*
X0198178Y0133533D01*
X0198178Y0135403D01*
X0197463Y0137131D01*
X0196141Y0138453D01*
X0194413Y0139168D01*
X0192544Y0139168D01*
X0190816Y0138453D01*
X0189494Y0137131D01*
X0189478Y0137093D01*
X0189478Y0137640D01*
X0191881Y0140043D01*
X0192544Y0139768D01*
X0194413Y0139768D01*
X0196141Y0140484D01*
X0197463Y0141806D01*
X0198178Y0143533D01*
X0198178Y0145403D01*
X0197463Y0147131D01*
X0196141Y0148453D01*
X0194413Y0149168D01*
X0192544Y0149168D01*
X0190816Y0148453D01*
X0189494Y0147131D01*
X0188778Y0145403D01*
X0188778Y0143533D01*
X0189053Y0142871D01*
X0187478Y0141297D01*
X0187478Y0155640D01*
X0191881Y0160043D01*
X0192544Y0159768D01*
X0194413Y0159768D01*
X0196141Y0160484D01*
X0197463Y0161806D01*
X0198178Y0163533D01*
X0198178Y0165403D01*
X0197463Y0167131D01*
X0196141Y0168453D01*
X0194413Y0169168D01*
X0192544Y0169168D01*
X0190816Y0168453D01*
X0189494Y0167131D01*
X0188778Y0165403D01*
X0188778Y0163533D01*
X0189053Y0162871D01*
X0183478Y0157297D01*
X0183478Y0133297D01*
X0181234Y0131052D01*
X0181195Y0131068D01*
X0179762Y0131068D01*
X0178439Y0130520D01*
X0177427Y0129507D01*
X0177410Y0129468D01*
X0177307Y0129468D01*
X0179219Y0131380D01*
X0179219Y0135160D01*
X0179456Y0135160D01*
X0180393Y0136097D01*
X0180393Y0140966D01*
X0179456Y0141903D01*
X0174981Y0141903D01*
X0174044Y0140966D01*
X0174044Y0136097D01*
X0174981Y0135160D01*
X0175219Y0135160D01*
X0175219Y0133037D01*
X0173650Y0131468D01*
X0153650Y0131468D01*
X0150650Y0128468D01*
X0149478Y0127297D01*
X0149478Y0125211D01*
X0149110Y0125580D01*
X0148478Y0125580D01*
X0148478Y0128868D01*
X0149195Y0128868D01*
X0150518Y0129416D01*
X0151530Y0130429D01*
X0152078Y0131752D01*
X0152078Y0133184D01*
X0152062Y0133224D01*
X0155195Y0136356D01*
X0158110Y0136356D01*
X0159047Y0137294D01*
X0159047Y0142950D01*
X0158529Y0143468D01*
X0159047Y0143987D01*
X0159047Y0144815D01*
X0163041Y0144815D01*
X0163439Y0144416D01*
X0164762Y0143868D01*
X0166195Y0143868D01*
X0167518Y0144416D01*
X0168530Y0145429D01*
X0168547Y0145468D01*
X0170304Y0145468D01*
X0170304Y0144365D01*
X0171241Y0143427D01*
X0175716Y0143427D01*
X0176653Y0144365D01*
X0176653Y0149233D01*
X0175716Y0150171D01*
X0171241Y0150171D01*
X0170539Y0149468D01*
X0168547Y0149468D01*
X0168530Y0149507D01*
X0167518Y0150520D01*
X0166195Y0151068D01*
X0164762Y0151068D01*
X0163439Y0150520D01*
X0162427Y0149507D01*
X0162140Y0148815D01*
X0159047Y0148815D01*
X0159047Y0149643D01*
X0158110Y0150580D01*
X0152847Y0150580D01*
X0151910Y0149643D01*
X0151910Y0143987D01*
X0152428Y0143468D01*
X0151910Y0142950D01*
X0151910Y0138728D01*
X0151910Y0139931D02*
X0134807Y0139931D01*
X0136387Y0140730D02*
X0151910Y0140730D01*
X0151910Y0141528D02*
X0137185Y0141528D01*
X0137679Y0142327D02*
X0151910Y0142327D01*
X0152085Y0143125D02*
X0138009Y0143125D01*
X0138178Y0143924D02*
X0151973Y0143924D01*
X0151910Y0144722D02*
X0138178Y0144722D01*
X0138130Y0145521D02*
X0151910Y0145521D01*
X0151910Y0146319D02*
X0144284Y0146319D01*
X0144518Y0146416D02*
X0145530Y0147429D01*
X0146078Y0148752D01*
X0146078Y0150184D01*
X0145530Y0151507D01*
X0144638Y0152400D01*
X0148637Y0156900D01*
X0151960Y0156900D01*
X0152478Y0157418D01*
X0152997Y0156900D01*
X0158653Y0156900D01*
X0159590Y0157837D01*
X0159590Y0158468D01*
X0163642Y0158468D01*
X0163642Y0157947D01*
X0164579Y0157010D01*
X0171023Y0157010D01*
X0171960Y0157947D01*
X0171960Y0163210D01*
X0171023Y0164147D01*
X0164579Y0164147D01*
X0163642Y0163210D01*
X0163642Y0162468D01*
X0159590Y0162468D01*
X0159590Y0163099D01*
X0158653Y0164037D01*
X0152997Y0164037D01*
X0152478Y0163518D01*
X0151960Y0164037D01*
X0151132Y0164037D01*
X0151132Y0170900D01*
X0151960Y0170900D01*
X0152478Y0171418D01*
X0152997Y0170900D01*
X0158653Y0170900D01*
X0159590Y0171837D01*
X0159590Y0172468D01*
X0163642Y0172468D01*
X0163642Y0171727D01*
X0164579Y0170789D01*
X0171023Y0170789D01*
X0171960Y0171727D01*
X0171960Y0176989D01*
X0171023Y0177926D01*
X0164579Y0177926D01*
X0163642Y0176989D01*
X0163642Y0176468D01*
X0159590Y0176468D01*
X0159590Y0177099D01*
X0158653Y0178037D01*
X0152997Y0178037D01*
X0152478Y0177518D01*
X0151960Y0178037D01*
X0151132Y0178037D01*
X0151132Y0178293D01*
X0156653Y0183815D01*
X0157825Y0184986D01*
X0157825Y0187900D01*
X0158653Y0187900D01*
X0159590Y0188837D01*
X0159590Y0189468D01*
X0161307Y0189468D01*
X0170478Y0198640D01*
X0170478Y0200821D01*
X0170816Y0200484D01*
X0171478Y0200209D01*
X0171478Y0195037D01*
X0169304Y0195037D01*
X0168367Y0194099D01*
X0168367Y0188837D01*
X0169304Y0187900D01*
X0174960Y0187900D01*
X0175478Y0188418D01*
X0175997Y0187900D01*
X0176825Y0187900D01*
X0176825Y0183793D01*
X0176895Y0183724D01*
X0176878Y0183684D01*
X0176878Y0182252D01*
X0177427Y0180929D01*
X0178439Y0179916D01*
X0179762Y0179368D01*
X0181156Y0179368D01*
X0181156Y0171037D01*
X0179934Y0171037D01*
X0178997Y0170099D01*
X0178997Y0164837D01*
X0179934Y0163900D01*
X0186377Y0163900D01*
X0187315Y0164837D01*
X0187315Y0170099D01*
X0186377Y0171037D01*
X0185156Y0171037D01*
X0185156Y0181119D01*
X0184062Y0182213D01*
X0184078Y0182252D01*
X0184078Y0183684D01*
X0183530Y0185007D01*
X0182518Y0186020D01*
X0181195Y0186568D01*
X0180825Y0186568D01*
X0180825Y0187900D01*
X0181653Y0187900D01*
X0182590Y0188837D01*
X0182590Y0194099D01*
X0181653Y0195037D01*
X0180478Y0195037D01*
X0180478Y0200821D01*
X0180816Y0200484D01*
X0182544Y0199768D01*
X0184413Y0199768D01*
X0186141Y0200484D01*
X0187463Y0201806D01*
X0188178Y0203533D01*
X0188178Y0205403D01*
X0187463Y0207131D01*
X0186141Y0208453D01*
X0184413Y0209168D01*
X0182544Y0209168D01*
X0180816Y0208453D01*
X0180478Y0208115D01*
X0180478Y0214268D01*
X0182791Y0214268D01*
X0185217Y0215273D01*
X0187074Y0217130D01*
X0188078Y0219555D01*
X0188078Y0222181D01*
X0187074Y0224607D01*
X0185217Y0226463D01*
X0182791Y0227468D01*
X0180166Y0227468D01*
X0177740Y0226463D01*
X0175883Y0224607D01*
X0174878Y0222181D01*
X0174878Y0219555D01*
X0175883Y0217130D01*
X0176478Y0216534D01*
X0176478Y0208115D01*
X0176141Y0208453D01*
X0174413Y0209168D01*
X0172544Y0209168D01*
X0170816Y0208453D01*
X0170478Y0208115D01*
X0170478Y0214697D01*
X0167358Y0217817D01*
X0168078Y0219555D01*
X0168078Y0222181D01*
X0167074Y0224607D01*
X0165217Y0226463D01*
X0162791Y0227468D01*
X0160166Y0227468D01*
X0157740Y0226463D01*
X0155883Y0224607D01*
X0154878Y0222181D01*
X0154878Y0219555D01*
X0155883Y0217130D01*
X0157740Y0215273D01*
X0160166Y0214268D01*
X0162791Y0214268D01*
X0164530Y0214988D01*
X0166478Y0213040D01*
X0166478Y0207832D01*
X0166410Y0207901D01*
X0165837Y0208317D01*
X0165206Y0208638D01*
X0164532Y0208857D01*
X0163878Y0208961D01*
X0163878Y0204868D01*
X0163078Y0204868D01*
X0163078Y0204068D01*
X0158986Y0204068D01*
X0159089Y0203414D01*
X0159308Y0202741D01*
X0159630Y0202110D01*
X0160046Y0201537D01*
X0160547Y0201036D01*
X0161120Y0200619D01*
X0161751Y0200298D01*
X0162425Y0200079D01*
X0163078Y0199975D01*
X0163078Y0204068D01*
X0163878Y0204068D01*
X0163878Y0199975D01*
X0164532Y0200079D01*
X0165206Y0200298D01*
X0165837Y0200619D01*
X0166410Y0201036D01*
X0166478Y0201104D01*
X0166478Y0200297D01*
X0159650Y0193468D01*
X0159590Y0193468D01*
X0159590Y0194099D01*
X0158653Y0195037D01*
X0152997Y0195037D01*
X0152337Y0194377D01*
X0152157Y0194557D01*
X0151838Y0194741D01*
X0151482Y0194837D01*
X0149532Y0194837D01*
X0149532Y0191868D01*
X0148732Y0191868D01*
X0148732Y0191068D01*
X0149532Y0191068D01*
X0149532Y0188100D01*
X0151482Y0188100D01*
X0151838Y0188195D01*
X0152157Y0188379D01*
X0152337Y0188559D01*
X0152997Y0187900D01*
X0153825Y0187900D01*
X0153825Y0186643D01*
X0147132Y0179950D01*
X0147132Y0178037D01*
X0146304Y0178037D01*
X0145367Y0177099D01*
X0145367Y0171837D01*
X0146304Y0170900D01*
X0147132Y0170900D01*
X0147132Y0164037D01*
X0146304Y0164037D01*
X0145367Y0163099D01*
X0145367Y0159242D01*
X0141022Y0154352D01*
X0140478Y0153808D01*
X0140478Y0153740D01*
X0140433Y0153689D01*
X0140478Y0152921D01*
X0140478Y0152536D01*
X0140439Y0152520D01*
X0139427Y0151507D01*
X0138878Y0150184D01*
X0138878Y0148752D01*
X0139427Y0147429D01*
X0140439Y0146416D01*
X0141762Y0145868D01*
X0143195Y0145868D01*
X0144518Y0146416D01*
X0145219Y0147118D02*
X0151910Y0147118D01*
X0151910Y0147916D02*
X0145732Y0147916D01*
X0146063Y0148715D02*
X0151910Y0148715D01*
X0151910Y0149513D02*
X0146078Y0149513D01*
X0146026Y0150312D02*
X0152579Y0150312D01*
X0155478Y0146815D02*
X0164825Y0146815D01*
X0165478Y0147468D01*
X0172809Y0147468D01*
X0173478Y0146799D01*
X0170304Y0144722D02*
X0167824Y0144722D01*
X0166329Y0143924D02*
X0170744Y0143924D01*
X0170126Y0141703D02*
X0170126Y0138919D01*
X0169351Y0138919D01*
X0169351Y0141703D01*
X0167979Y0141703D01*
X0167623Y0141607D01*
X0167304Y0141423D01*
X0167043Y0141162D01*
X0166859Y0140843D01*
X0166763Y0140487D01*
X0166763Y0138919D01*
X0169351Y0138919D01*
X0169351Y0138144D01*
X0166763Y0138144D01*
X0166763Y0136575D01*
X0166859Y0136219D01*
X0167043Y0135900D01*
X0167304Y0135639D01*
X0167623Y0135455D01*
X0167979Y0135360D01*
X0169351Y0135360D01*
X0169351Y0138144D01*
X0170126Y0138144D01*
X0170126Y0138919D01*
X0172713Y0138919D01*
X0172713Y0140487D01*
X0172618Y0140843D01*
X0172433Y0141162D01*
X0172173Y0141423D01*
X0171853Y0141607D01*
X0171497Y0141703D01*
X0170126Y0141703D01*
X0170126Y0141528D02*
X0169351Y0141528D01*
X0169351Y0140730D02*
X0170126Y0140730D01*
X0170126Y0139931D02*
X0169351Y0139931D01*
X0169351Y0139133D02*
X0170126Y0139133D01*
X0170126Y0138334D02*
X0174044Y0138334D01*
X0174044Y0137536D02*
X0172713Y0137536D01*
X0172713Y0138144D02*
X0170126Y0138144D01*
X0170126Y0135360D01*
X0171497Y0135360D01*
X0171853Y0135455D01*
X0172173Y0135639D01*
X0172433Y0135900D01*
X0172618Y0136219D01*
X0172713Y0136575D01*
X0172713Y0138144D01*
X0172713Y0139133D02*
X0174044Y0139133D01*
X0174044Y0139931D02*
X0172713Y0139931D01*
X0172648Y0140730D02*
X0174044Y0140730D01*
X0174606Y0141528D02*
X0171991Y0141528D01*
X0169351Y0138334D02*
X0159047Y0138334D01*
X0159047Y0137536D02*
X0166763Y0137536D01*
X0166763Y0136737D02*
X0158491Y0136737D01*
X0159047Y0139133D02*
X0166763Y0139133D01*
X0166763Y0139931D02*
X0159047Y0139931D01*
X0159047Y0140730D02*
X0166829Y0140730D01*
X0167486Y0141528D02*
X0159047Y0141528D01*
X0159047Y0142327D02*
X0183478Y0142327D01*
X0183478Y0143125D02*
X0158871Y0143125D01*
X0158984Y0143924D02*
X0164628Y0143924D01*
X0163133Y0144722D02*
X0159047Y0144722D01*
X0159047Y0149513D02*
X0162432Y0149513D01*
X0163231Y0150312D02*
X0158378Y0150312D01*
X0159252Y0157498D02*
X0164091Y0157498D01*
X0163642Y0158297D02*
X0159590Y0158297D01*
X0159590Y0163088D02*
X0163642Y0163088D01*
X0164319Y0163887D02*
X0158803Y0163887D01*
X0155825Y0160468D02*
X0167691Y0160468D01*
X0167801Y0160578D01*
X0171283Y0163887D02*
X0188778Y0163887D01*
X0188778Y0164685D02*
X0187163Y0164685D01*
X0187315Y0165484D02*
X0188812Y0165484D01*
X0189143Y0166282D02*
X0187315Y0166282D01*
X0187315Y0167081D02*
X0189473Y0167081D01*
X0190243Y0167879D02*
X0187315Y0167879D01*
X0187315Y0168678D02*
X0191359Y0168678D01*
X0191321Y0170275D02*
X0187139Y0170275D01*
X0187315Y0169476D02*
X0210792Y0169476D01*
X0210792Y0168678D02*
X0195598Y0168678D01*
X0196714Y0167879D02*
X0210792Y0167879D01*
X0210792Y0167081D02*
X0197484Y0167081D01*
X0197814Y0166282D02*
X0210792Y0166282D01*
X0210792Y0165484D02*
X0198145Y0165484D01*
X0198178Y0164685D02*
X0210792Y0164685D01*
X0210792Y0163887D02*
X0198178Y0163887D01*
X0197994Y0163088D02*
X0210792Y0163088D01*
X0210792Y0162290D02*
X0197663Y0162290D01*
X0197148Y0161491D02*
X0210792Y0161491D01*
X0210792Y0160693D02*
X0196350Y0160693D01*
X0194717Y0159894D02*
X0210792Y0159894D01*
X0210792Y0159096D02*
X0194589Y0159096D01*
X0194413Y0159168D02*
X0192544Y0159168D01*
X0190816Y0158453D01*
X0189494Y0157131D01*
X0188778Y0155403D01*
X0188778Y0153533D01*
X0189494Y0151806D01*
X0190816Y0150484D01*
X0192544Y0149768D01*
X0194413Y0149768D01*
X0196141Y0150484D01*
X0197463Y0151806D01*
X0198178Y0153533D01*
X0198178Y0155403D01*
X0197463Y0157131D01*
X0196141Y0158453D01*
X0194413Y0159168D01*
X0192368Y0159096D02*
X0190934Y0159096D01*
X0190660Y0158297D02*
X0190136Y0158297D01*
X0189862Y0157498D02*
X0189337Y0157498D01*
X0189316Y0156700D02*
X0188539Y0156700D01*
X0188985Y0155901D02*
X0187740Y0155901D01*
X0187478Y0155103D02*
X0188778Y0155103D01*
X0188778Y0154304D02*
X0187478Y0154304D01*
X0187478Y0153506D02*
X0188790Y0153506D01*
X0189121Y0152707D02*
X0187478Y0152707D01*
X0187478Y0151909D02*
X0189451Y0151909D01*
X0190189Y0151110D02*
X0187478Y0151110D01*
X0187478Y0150312D02*
X0191231Y0150312D01*
X0191449Y0148715D02*
X0187478Y0148715D01*
X0187478Y0149513D02*
X0210792Y0149513D01*
X0210792Y0148715D02*
X0195508Y0148715D01*
X0196677Y0147916D02*
X0210792Y0147916D01*
X0210792Y0147118D02*
X0197468Y0147118D01*
X0197799Y0146319D02*
X0210792Y0146319D01*
X0210792Y0145521D02*
X0198130Y0145521D01*
X0198178Y0144722D02*
X0210792Y0144722D01*
X0210792Y0143924D02*
X0198178Y0143924D01*
X0198009Y0143125D02*
X0210792Y0143125D01*
X0210792Y0142327D02*
X0197679Y0142327D01*
X0197185Y0141528D02*
X0210792Y0141528D01*
X0210792Y0140730D02*
X0196387Y0140730D01*
X0194807Y0139931D02*
X0210792Y0139931D01*
X0210792Y0139133D02*
X0194499Y0139133D01*
X0196259Y0138334D02*
X0210792Y0138334D01*
X0210792Y0137536D02*
X0197058Y0137536D01*
X0197626Y0136737D02*
X0210792Y0136737D01*
X0210792Y0135939D02*
X0197957Y0135939D01*
X0198178Y0135140D02*
X0210792Y0135140D01*
X0210792Y0134342D02*
X0198178Y0134342D01*
X0198178Y0133543D02*
X0210792Y0133543D01*
X0210792Y0132745D02*
X0197852Y0132745D01*
X0197521Y0131946D02*
X0210792Y0131946D01*
X0210792Y0131148D02*
X0196805Y0131148D01*
X0195816Y0130349D02*
X0210792Y0130349D01*
X0210792Y0129551D02*
X0189478Y0129551D01*
X0189478Y0130349D02*
X0191141Y0130349D01*
X0190152Y0131148D02*
X0189478Y0131148D01*
X0189478Y0128752D02*
X0191539Y0128752D01*
X0190317Y0127954D02*
X0189478Y0127954D01*
X0189478Y0127155D02*
X0189519Y0127155D01*
X0187478Y0125468D02*
X0184912Y0122901D01*
X0170368Y0122901D01*
X0173937Y0120767D02*
X0190533Y0120767D01*
X0189734Y0121565D02*
X0186404Y0121565D01*
X0187203Y0122364D02*
X0189263Y0122364D01*
X0188932Y0123162D02*
X0188001Y0123162D01*
X0187478Y0125468D02*
X0187478Y0138468D01*
X0193478Y0144468D01*
X0189158Y0146319D02*
X0187478Y0146319D01*
X0187478Y0145521D02*
X0188827Y0145521D01*
X0188778Y0144722D02*
X0187478Y0144722D01*
X0187478Y0143924D02*
X0188778Y0143924D01*
X0188947Y0143125D02*
X0187478Y0143125D01*
X0187478Y0142327D02*
X0188509Y0142327D01*
X0187710Y0141528D02*
X0187478Y0141528D01*
X0190173Y0138334D02*
X0190698Y0138334D01*
X0190971Y0139133D02*
X0192458Y0139133D01*
X0192150Y0139931D02*
X0191770Y0139931D01*
X0189899Y0137536D02*
X0189478Y0137536D01*
X0185478Y0132468D02*
X0185478Y0156468D01*
X0193478Y0164468D01*
X0192544Y0169768D02*
X0194413Y0169768D01*
X0196141Y0170484D01*
X0197463Y0171806D01*
X0198178Y0173533D01*
X0198178Y0175403D01*
X0197463Y0177131D01*
X0196141Y0178453D01*
X0194413Y0179168D01*
X0192544Y0179168D01*
X0190816Y0178453D01*
X0189494Y0177131D01*
X0188778Y0175403D01*
X0188778Y0173533D01*
X0189494Y0171806D01*
X0190816Y0170484D01*
X0192544Y0169768D01*
X0190227Y0171073D02*
X0185156Y0171073D01*
X0185156Y0171872D02*
X0189467Y0171872D01*
X0189136Y0172670D02*
X0185156Y0172670D01*
X0185156Y0173469D02*
X0188805Y0173469D01*
X0188778Y0174267D02*
X0185156Y0174267D01*
X0185156Y0175066D02*
X0188778Y0175066D01*
X0188969Y0175864D02*
X0185156Y0175864D01*
X0185156Y0176663D02*
X0189300Y0176663D01*
X0189825Y0177461D02*
X0185156Y0177461D01*
X0185156Y0178260D02*
X0190623Y0178260D01*
X0192278Y0179058D02*
X0185156Y0179058D01*
X0185156Y0179857D02*
X0192330Y0179857D01*
X0192544Y0179768D02*
X0194413Y0179768D01*
X0196141Y0180484D01*
X0197463Y0181806D01*
X0198178Y0183533D01*
X0198178Y0185403D01*
X0197463Y0187131D01*
X0196141Y0188453D01*
X0194413Y0189168D01*
X0192544Y0189168D01*
X0190816Y0188453D01*
X0189494Y0187131D01*
X0188778Y0185403D01*
X0188778Y0183533D01*
X0189494Y0181806D01*
X0190816Y0180484D01*
X0192544Y0179768D01*
X0194627Y0179857D02*
X0210792Y0179857D01*
X0210792Y0180655D02*
X0196312Y0180655D01*
X0197111Y0181454D02*
X0210792Y0181454D01*
X0210792Y0182252D02*
X0197648Y0182252D01*
X0197979Y0183051D02*
X0210792Y0183051D01*
X0210792Y0183849D02*
X0198178Y0183849D01*
X0198178Y0184648D02*
X0210792Y0184648D01*
X0210792Y0185446D02*
X0198161Y0185446D01*
X0197830Y0186245D02*
X0210792Y0186245D01*
X0210792Y0187043D02*
X0197499Y0187043D01*
X0196752Y0187842D02*
X0210792Y0187842D01*
X0210792Y0188640D02*
X0195687Y0188640D01*
X0195546Y0190237D02*
X0210792Y0190237D01*
X0210792Y0189439D02*
X0182590Y0189439D01*
X0182590Y0190237D02*
X0191411Y0190237D01*
X0190816Y0190484D02*
X0192544Y0189768D01*
X0194413Y0189768D01*
X0196141Y0190484D01*
X0197463Y0191806D01*
X0197737Y0192468D01*
X0202307Y0192468D01*
X0203723Y0193884D01*
X0203762Y0193868D01*
X0205195Y0193868D01*
X0206518Y0194416D01*
X0207530Y0195429D01*
X0208078Y0196752D01*
X0208078Y0198184D01*
X0207530Y0199507D01*
X0206518Y0200520D01*
X0205195Y0201068D01*
X0203762Y0201068D01*
X0202439Y0200520D01*
X0201427Y0199507D01*
X0200878Y0198184D01*
X0200878Y0196752D01*
X0200895Y0196713D01*
X0200650Y0196468D01*
X0197737Y0196468D01*
X0197463Y0197131D01*
X0196141Y0198453D01*
X0194413Y0199168D01*
X0192544Y0199168D01*
X0190816Y0198453D01*
X0189494Y0197131D01*
X0188778Y0195403D01*
X0188778Y0193533D01*
X0189494Y0191806D01*
X0190816Y0190484D01*
X0190264Y0191036D02*
X0182590Y0191036D01*
X0182590Y0191834D02*
X0189482Y0191834D01*
X0189151Y0192633D02*
X0182590Y0192633D01*
X0182590Y0193431D02*
X0188821Y0193431D01*
X0188778Y0194230D02*
X0182460Y0194230D01*
X0181661Y0195029D02*
X0188778Y0195029D01*
X0188954Y0195827D02*
X0180478Y0195827D01*
X0180478Y0196626D02*
X0189285Y0196626D01*
X0189788Y0197424D02*
X0180478Y0197424D01*
X0180478Y0198223D02*
X0190586Y0198223D01*
X0192188Y0199021D02*
X0180478Y0199021D01*
X0180478Y0199820D02*
X0182419Y0199820D01*
X0180682Y0200618D02*
X0180478Y0200618D01*
X0184537Y0199820D02*
X0192419Y0199820D01*
X0192544Y0199768D02*
X0194413Y0199768D01*
X0196141Y0200484D01*
X0197463Y0201806D01*
X0198178Y0203533D01*
X0198178Y0205403D01*
X0197463Y0207131D01*
X0196141Y0208453D01*
X0194413Y0209168D01*
X0192544Y0209168D01*
X0190816Y0208453D01*
X0189494Y0207131D01*
X0188778Y0205403D01*
X0188778Y0203533D01*
X0189494Y0201806D01*
X0190816Y0200484D01*
X0192544Y0199768D01*
X0194537Y0199820D02*
X0201739Y0199820D01*
X0201225Y0199021D02*
X0194769Y0199021D01*
X0196371Y0198223D02*
X0200894Y0198223D01*
X0200878Y0197424D02*
X0197169Y0197424D01*
X0197672Y0196626D02*
X0200807Y0196626D01*
X0201478Y0194468D02*
X0204478Y0197468D01*
X0207130Y0195029D02*
X0210792Y0195029D01*
X0210792Y0195827D02*
X0207695Y0195827D01*
X0208026Y0196626D02*
X0210792Y0196626D01*
X0210792Y0197424D02*
X0208078Y0197424D01*
X0208063Y0198223D02*
X0210792Y0198223D01*
X0210792Y0199021D02*
X0207732Y0199021D01*
X0207218Y0199820D02*
X0210792Y0199820D01*
X0210792Y0200618D02*
X0206281Y0200618D01*
X0202676Y0200618D02*
X0196275Y0200618D01*
X0197074Y0201417D02*
X0210792Y0201417D01*
X0210792Y0202215D02*
X0197632Y0202215D01*
X0197963Y0203014D02*
X0210792Y0203014D01*
X0210792Y0203812D02*
X0198178Y0203812D01*
X0198178Y0204611D02*
X0210792Y0204611D01*
X0210792Y0205409D02*
X0198176Y0205409D01*
X0197845Y0206208D02*
X0210792Y0206208D01*
X0210792Y0207006D02*
X0197514Y0207006D01*
X0196789Y0207805D02*
X0210792Y0207805D01*
X0210792Y0208603D02*
X0195777Y0208603D01*
X0191180Y0208603D02*
X0185777Y0208603D01*
X0186789Y0207805D02*
X0190168Y0207805D01*
X0189442Y0207006D02*
X0187514Y0207006D01*
X0187845Y0206208D02*
X0189112Y0206208D01*
X0188781Y0205409D02*
X0188176Y0205409D01*
X0188178Y0204611D02*
X0188778Y0204611D01*
X0188778Y0203812D02*
X0188178Y0203812D01*
X0187963Y0203014D02*
X0188994Y0203014D01*
X0189324Y0202215D02*
X0187632Y0202215D01*
X0187074Y0201417D02*
X0189883Y0201417D01*
X0190682Y0200618D02*
X0186275Y0200618D01*
X0193478Y0194468D02*
X0201478Y0194468D01*
X0203270Y0193431D02*
X0210792Y0193431D01*
X0210792Y0192633D02*
X0202472Y0192633D01*
X0206068Y0194230D02*
X0210792Y0194230D01*
X0210792Y0191834D02*
X0197475Y0191834D01*
X0196693Y0191036D02*
X0210792Y0191036D01*
X0210792Y0179058D02*
X0194679Y0179058D01*
X0196334Y0178260D02*
X0210792Y0178260D01*
X0210792Y0177461D02*
X0197132Y0177461D01*
X0197657Y0176663D02*
X0210792Y0176663D01*
X0210792Y0175864D02*
X0197987Y0175864D01*
X0198178Y0175066D02*
X0210792Y0175066D01*
X0210792Y0174267D02*
X0198178Y0174267D01*
X0198152Y0173469D02*
X0210792Y0173469D01*
X0210792Y0172670D02*
X0197821Y0172670D01*
X0197490Y0171872D02*
X0210792Y0171872D01*
X0210792Y0171073D02*
X0196730Y0171073D01*
X0195636Y0170275D02*
X0210792Y0170275D01*
X0210792Y0158297D02*
X0196296Y0158297D01*
X0197095Y0157498D02*
X0210792Y0157498D01*
X0210792Y0156700D02*
X0197641Y0156700D01*
X0197972Y0155901D02*
X0210792Y0155901D01*
X0210792Y0155103D02*
X0198178Y0155103D01*
X0198178Y0154304D02*
X0210792Y0154304D01*
X0210792Y0153506D02*
X0198167Y0153506D01*
X0197836Y0152707D02*
X0210792Y0152707D01*
X0210792Y0151909D02*
X0197506Y0151909D01*
X0196767Y0151110D02*
X0210792Y0151110D01*
X0210792Y0150312D02*
X0195726Y0150312D01*
X0190280Y0147916D02*
X0187478Y0147916D01*
X0187478Y0147118D02*
X0189489Y0147118D01*
X0183478Y0147118D02*
X0176653Y0147118D01*
X0176653Y0147916D02*
X0183478Y0147916D01*
X0183478Y0148715D02*
X0176653Y0148715D01*
X0176373Y0149513D02*
X0183478Y0149513D01*
X0183478Y0150312D02*
X0167726Y0150312D01*
X0168524Y0149513D02*
X0170584Y0149513D01*
X0176213Y0143924D02*
X0183478Y0143924D01*
X0183478Y0144722D02*
X0176653Y0144722D01*
X0176653Y0145521D02*
X0183478Y0145521D01*
X0183478Y0146319D02*
X0176653Y0146319D01*
X0179831Y0141528D02*
X0183478Y0141528D01*
X0183478Y0140730D02*
X0180393Y0140730D01*
X0180393Y0139931D02*
X0183478Y0139931D01*
X0183478Y0139133D02*
X0180393Y0139133D01*
X0180393Y0138334D02*
X0183478Y0138334D01*
X0183478Y0137536D02*
X0180393Y0137536D01*
X0180393Y0136737D02*
X0183478Y0136737D01*
X0183478Y0135939D02*
X0180235Y0135939D01*
X0179219Y0135140D02*
X0183478Y0135140D01*
X0183478Y0134342D02*
X0179219Y0134342D01*
X0179219Y0133543D02*
X0183478Y0133543D01*
X0182926Y0132745D02*
X0179219Y0132745D01*
X0179219Y0131946D02*
X0182128Y0131946D01*
X0181329Y0131148D02*
X0178986Y0131148D01*
X0178268Y0130349D02*
X0178188Y0130349D01*
X0177470Y0129551D02*
X0177389Y0129551D01*
X0177219Y0132208D02*
X0174478Y0129468D01*
X0154478Y0129468D01*
X0151478Y0126468D01*
X0151478Y0115468D01*
X0152478Y0114468D01*
X0151478Y0114468D01*
X0151478Y0115468D01*
X0150478Y0114468D01*
X0147132Y0114468D01*
X0146478Y0115122D01*
X0142910Y0115177D02*
X0138178Y0115177D01*
X0138178Y0114379D02*
X0142910Y0114379D01*
X0142910Y0113580D02*
X0138178Y0113580D01*
X0137867Y0112782D02*
X0142910Y0112782D01*
X0143220Y0111983D02*
X0137536Y0111983D01*
X0136842Y0111185D02*
X0163613Y0111185D01*
X0163378Y0111752D02*
X0163927Y0110429D01*
X0164939Y0109416D01*
X0164978Y0109400D01*
X0164978Y0106194D01*
X0160847Y0106194D01*
X0160034Y0105381D01*
X0159220Y0106194D01*
X0153957Y0106194D01*
X0153020Y0105257D01*
X0153020Y0098813D01*
X0153957Y0097876D01*
X0159220Y0097876D01*
X0160034Y0098690D01*
X0160847Y0097876D01*
X0161058Y0097876D01*
X0159650Y0096468D01*
X0137737Y0096468D01*
X0137463Y0097131D01*
X0136141Y0098453D01*
X0134413Y0099168D01*
X0132544Y0099168D01*
X0130816Y0098453D01*
X0129494Y0097131D01*
X0128778Y0095403D01*
X0128778Y0093533D01*
X0129494Y0091806D01*
X0130816Y0090484D01*
X0132544Y0089768D01*
X0134413Y0089768D01*
X0136141Y0090484D01*
X0137463Y0091806D01*
X0137737Y0092468D01*
X0161307Y0092468D01*
X0164307Y0095468D01*
X0164978Y0096140D01*
X0164978Y0095140D01*
X0167478Y0092640D01*
X0168650Y0091468D01*
X0172410Y0091468D01*
X0172427Y0091429D01*
X0173439Y0090416D01*
X0174762Y0089868D01*
X0176195Y0089868D01*
X0177518Y0090416D01*
X0178530Y0091429D01*
X0179078Y0092752D01*
X0179078Y0094184D01*
X0178530Y0095507D01*
X0177518Y0096520D01*
X0176195Y0097068D01*
X0174762Y0097068D01*
X0173439Y0096520D01*
X0172427Y0095507D01*
X0172410Y0095468D01*
X0170307Y0095468D01*
X0168978Y0096797D01*
X0168978Y0097876D01*
X0172999Y0097876D01*
X0173937Y0098813D01*
X0173937Y0100035D01*
X0177874Y0100035D01*
X0180307Y0102468D01*
X0181478Y0103640D01*
X0181478Y0105356D01*
X0182110Y0105356D01*
X0183047Y0106294D01*
X0183047Y0111950D01*
X0182529Y0112468D01*
X0183047Y0112987D01*
X0183047Y0118643D01*
X0182110Y0119580D01*
X0176847Y0119580D01*
X0175910Y0118643D01*
X0175910Y0117815D01*
X0169496Y0117815D01*
X0168325Y0116643D01*
X0167734Y0116052D01*
X0167695Y0116068D01*
X0166262Y0116068D01*
X0164939Y0115520D01*
X0163927Y0114507D01*
X0163378Y0113184D01*
X0163378Y0111752D01*
X0163378Y0111983D02*
X0149737Y0111983D01*
X0150478Y0114468D02*
X0151478Y0114468D01*
X0152478Y0114468D02*
X0159478Y0114468D01*
X0163478Y0118468D01*
X0163478Y0122901D01*
X0166537Y0119170D02*
X0167309Y0119170D01*
X0165478Y0118371D02*
X0175910Y0118371D01*
X0176437Y0119170D02*
X0173427Y0119170D01*
X0173937Y0119968D02*
X0192060Y0119968D01*
X0192544Y0119168D02*
X0190816Y0118453D01*
X0189494Y0117131D01*
X0188778Y0115403D01*
X0188778Y0113533D01*
X0189494Y0111806D01*
X0190816Y0110484D01*
X0192544Y0109768D01*
X0194413Y0109768D01*
X0196141Y0110484D01*
X0197463Y0111806D01*
X0198178Y0113533D01*
X0198178Y0115403D01*
X0197463Y0117131D01*
X0196141Y0118453D01*
X0194413Y0119168D01*
X0192544Y0119168D01*
X0190735Y0118371D02*
X0183047Y0118371D01*
X0183047Y0117573D02*
X0189936Y0117573D01*
X0189346Y0116774D02*
X0183047Y0116774D01*
X0183047Y0115976D02*
X0189016Y0115976D01*
X0188778Y0115177D02*
X0183047Y0115177D01*
X0183047Y0114379D02*
X0188778Y0114379D01*
X0188778Y0113580D02*
X0183047Y0113580D01*
X0182842Y0112782D02*
X0189090Y0112782D01*
X0189420Y0111983D02*
X0183013Y0111983D01*
X0183047Y0111185D02*
X0190115Y0111185D01*
X0191051Y0110386D02*
X0183047Y0110386D01*
X0183047Y0109588D02*
X0210792Y0109588D01*
X0210792Y0110386D02*
X0195906Y0110386D01*
X0196842Y0111185D02*
X0210792Y0111185D01*
X0210792Y0111983D02*
X0197536Y0111983D01*
X0197867Y0112782D02*
X0210792Y0112782D01*
X0210792Y0113580D02*
X0198178Y0113580D01*
X0198178Y0114379D02*
X0210792Y0114379D01*
X0210792Y0115177D02*
X0198178Y0115177D01*
X0197941Y0115976D02*
X0210792Y0115976D01*
X0210792Y0116774D02*
X0197610Y0116774D01*
X0197021Y0117573D02*
X0210792Y0117573D01*
X0210792Y0118371D02*
X0196222Y0118371D01*
X0194897Y0119968D02*
X0210792Y0119968D01*
X0210792Y0119170D02*
X0182520Y0119170D01*
X0179478Y0115815D02*
X0170325Y0115815D01*
X0166978Y0112468D01*
X0166978Y0095968D01*
X0169478Y0093468D01*
X0175478Y0093468D01*
X0172932Y0096013D02*
X0169762Y0096013D01*
X0168978Y0096812D02*
X0174143Y0096812D01*
X0173532Y0098409D02*
X0182458Y0098409D01*
X0182439Y0098416D02*
X0182478Y0098400D01*
X0182478Y0082297D01*
X0181218Y0081036D01*
X0180217Y0082037D01*
X0175646Y0082037D01*
X0174363Y0080753D01*
X0174363Y0080226D01*
X0174259Y0080614D01*
X0173996Y0081068D01*
X0173626Y0081439D01*
X0173172Y0081701D01*
X0172666Y0081837D01*
X0171426Y0081837D01*
X0171426Y0078868D01*
X0170626Y0078868D01*
X0170626Y0081837D01*
X0169386Y0081837D01*
X0168879Y0081701D01*
X0168426Y0081439D01*
X0168055Y0081068D01*
X0167793Y0080614D01*
X0167657Y0080108D01*
X0167657Y0078868D01*
X0170626Y0078868D01*
X0170626Y0078068D01*
X0171426Y0078068D01*
X0171426Y0075100D01*
X0172666Y0075100D01*
X0173172Y0075235D01*
X0173626Y0075497D01*
X0173996Y0075868D01*
X0174259Y0076322D01*
X0174363Y0076711D01*
X0174363Y0076183D01*
X0175646Y0074900D01*
X0180217Y0074900D01*
X0181500Y0076183D01*
X0181500Y0076468D01*
X0182307Y0076468D01*
X0183478Y0077640D01*
X0186478Y0080640D01*
X0186478Y0098400D01*
X0186518Y0098416D01*
X0187530Y0099429D01*
X0188078Y0100752D01*
X0188078Y0102184D01*
X0187530Y0103507D01*
X0186518Y0104520D01*
X0185195Y0105068D01*
X0183762Y0105068D01*
X0182439Y0104520D01*
X0181427Y0103507D01*
X0180878Y0102184D01*
X0180878Y0100752D01*
X0181427Y0099429D01*
X0182439Y0098416D01*
X0182478Y0097610D02*
X0168978Y0097610D01*
X0164978Y0096013D02*
X0164852Y0096013D01*
X0164978Y0095215D02*
X0164053Y0095215D01*
X0163255Y0094416D02*
X0165702Y0094416D01*
X0166501Y0093618D02*
X0162456Y0093618D01*
X0161658Y0092819D02*
X0167299Y0092819D01*
X0168098Y0092021D02*
X0137552Y0092021D01*
X0136879Y0091222D02*
X0172633Y0091222D01*
X0173432Y0090424D02*
X0135995Y0090424D01*
X0135206Y0088638D02*
X0134532Y0088857D01*
X0133878Y0088961D01*
X0133878Y0084868D01*
X0133078Y0084868D01*
X0133078Y0084068D01*
X0128986Y0084068D01*
X0129089Y0083414D01*
X0129308Y0082741D01*
X0129630Y0082110D01*
X0130046Y0081537D01*
X0130547Y0081036D01*
X0131120Y0080619D01*
X0131751Y0080298D01*
X0132425Y0080079D01*
X0133078Y0079975D01*
X0133078Y0084068D01*
X0133878Y0084068D01*
X0133878Y0079975D01*
X0134532Y0080079D01*
X0135206Y0080298D01*
X0135837Y0080619D01*
X0136410Y0081036D01*
X0136911Y0081537D01*
X0137327Y0082110D01*
X0137649Y0082741D01*
X0137868Y0083414D01*
X0137971Y0084068D01*
X0133879Y0084068D01*
X0133879Y0084868D01*
X0137971Y0084868D01*
X0137868Y0085522D01*
X0137649Y0086196D01*
X0137327Y0086827D01*
X0136911Y0087400D01*
X0136410Y0087901D01*
X0135837Y0088317D01*
X0135206Y0088638D01*
X0134627Y0088827D02*
X0182478Y0088827D01*
X0182478Y0089625D02*
X0047578Y0089625D01*
X0047578Y0088827D02*
X0132330Y0088827D01*
X0132425Y0088857D02*
X0131751Y0088638D01*
X0131120Y0088317D01*
X0130547Y0087901D01*
X0130046Y0087400D01*
X0129630Y0086827D01*
X0129308Y0086196D01*
X0129089Y0085522D01*
X0128986Y0084868D01*
X0133078Y0084868D01*
X0133078Y0088961D01*
X0132425Y0088857D01*
X0133078Y0088827D02*
X0133878Y0088827D01*
X0133878Y0088028D02*
X0133078Y0088028D01*
X0133078Y0087229D02*
X0133878Y0087229D01*
X0133878Y0086431D02*
X0133078Y0086431D01*
X0133078Y0085632D02*
X0133878Y0085632D01*
X0133879Y0084834D02*
X0182478Y0084834D01*
X0182478Y0085632D02*
X0137832Y0085632D01*
X0137529Y0086431D02*
X0182478Y0086431D01*
X0182478Y0087229D02*
X0137035Y0087229D01*
X0136235Y0088028D02*
X0182478Y0088028D01*
X0182478Y0090424D02*
X0177525Y0090424D01*
X0178323Y0091222D02*
X0182478Y0091222D01*
X0182478Y0092021D02*
X0178775Y0092021D01*
X0179078Y0092819D02*
X0182478Y0092819D01*
X0182478Y0093618D02*
X0179078Y0093618D01*
X0178982Y0094416D02*
X0182478Y0094416D01*
X0182478Y0095215D02*
X0178652Y0095215D01*
X0178025Y0096013D02*
X0182478Y0096013D01*
X0182478Y0096812D02*
X0176814Y0096812D01*
X0173937Y0100006D02*
X0181188Y0100006D01*
X0180878Y0100804D02*
X0178643Y0100804D01*
X0179441Y0101603D02*
X0180878Y0101603D01*
X0180968Y0102401D02*
X0180240Y0102401D01*
X0181038Y0103200D02*
X0181299Y0103200D01*
X0181478Y0103998D02*
X0181917Y0103998D01*
X0181478Y0104797D02*
X0183107Y0104797D01*
X0182349Y0105595D02*
X0188858Y0105595D01*
X0188778Y0105403D02*
X0188778Y0103533D01*
X0189494Y0101806D01*
X0190816Y0100484D01*
X0192544Y0099768D01*
X0194413Y0099768D01*
X0196141Y0100484D01*
X0197463Y0101806D01*
X0198178Y0103533D01*
X0198178Y0105403D01*
X0197463Y0107131D01*
X0196141Y0108453D01*
X0194413Y0109168D01*
X0192544Y0109168D01*
X0190816Y0108453D01*
X0189494Y0107131D01*
X0188778Y0105403D01*
X0188778Y0104797D02*
X0185850Y0104797D01*
X0187040Y0103998D02*
X0188778Y0103998D01*
X0188917Y0103200D02*
X0187658Y0103200D01*
X0187989Y0102401D02*
X0189247Y0102401D01*
X0189697Y0101603D02*
X0188078Y0101603D01*
X0188078Y0100804D02*
X0190496Y0100804D01*
X0191970Y0100006D02*
X0187769Y0100006D01*
X0187309Y0099207D02*
X0210792Y0099207D01*
X0210792Y0098409D02*
X0196185Y0098409D01*
X0196141Y0098453D02*
X0197463Y0097131D01*
X0198178Y0095403D01*
X0198178Y0093533D01*
X0197463Y0091806D01*
X0196141Y0090484D01*
X0194413Y0089768D01*
X0192544Y0089768D01*
X0190816Y0090484D01*
X0189494Y0091806D01*
X0188778Y0093533D01*
X0188778Y0095403D01*
X0189494Y0097131D01*
X0190816Y0098453D01*
X0192544Y0099168D01*
X0194413Y0099168D01*
X0196141Y0098453D01*
X0196983Y0097610D02*
X0210792Y0097610D01*
X0210792Y0096812D02*
X0197595Y0096812D01*
X0197926Y0096013D02*
X0210792Y0096013D01*
X0210792Y0095215D02*
X0198178Y0095215D01*
X0198178Y0094416D02*
X0210792Y0094416D01*
X0210792Y0093618D02*
X0198178Y0093618D01*
X0197883Y0092819D02*
X0210792Y0092819D01*
X0210792Y0092021D02*
X0197552Y0092021D01*
X0196879Y0091222D02*
X0210792Y0091222D01*
X0210792Y0090424D02*
X0195995Y0090424D01*
X0195238Y0088827D02*
X0210792Y0088827D01*
X0210792Y0089625D02*
X0186478Y0089625D01*
X0186478Y0088827D02*
X0191719Y0088827D01*
X0192544Y0089168D02*
X0190816Y0088453D01*
X0189494Y0087131D01*
X0188778Y0085403D01*
X0188778Y0083533D01*
X0189494Y0081806D01*
X0190816Y0080484D01*
X0192544Y0079768D01*
X0194413Y0079768D01*
X0196141Y0080484D01*
X0197463Y0081806D01*
X0198178Y0083533D01*
X0198178Y0085403D01*
X0197463Y0087131D01*
X0196141Y0088453D01*
X0194413Y0089168D01*
X0192544Y0089168D01*
X0190961Y0090424D02*
X0186478Y0090424D01*
X0186478Y0091222D02*
X0190078Y0091222D01*
X0189405Y0092021D02*
X0186478Y0092021D01*
X0186478Y0092819D02*
X0189074Y0092819D01*
X0188778Y0093618D02*
X0186478Y0093618D01*
X0186478Y0094416D02*
X0188778Y0094416D01*
X0188778Y0095215D02*
X0186478Y0095215D01*
X0186478Y0096013D02*
X0189031Y0096013D01*
X0189362Y0096812D02*
X0186478Y0096812D01*
X0186478Y0097610D02*
X0189974Y0097610D01*
X0190772Y0098409D02*
X0186499Y0098409D01*
X0184478Y0101468D02*
X0184478Y0081468D01*
X0181478Y0078468D01*
X0177931Y0078468D01*
X0175249Y0081640D02*
X0173278Y0081640D01*
X0174128Y0080841D02*
X0174451Y0080841D01*
X0171426Y0080841D02*
X0170626Y0080841D01*
X0170626Y0080043D02*
X0171426Y0080043D01*
X0171426Y0079244D02*
X0170626Y0079244D01*
X0170626Y0078446D02*
X0164329Y0078446D01*
X0164307Y0078468D02*
X0162307Y0080468D01*
X0159500Y0080468D01*
X0159500Y0080753D01*
X0158217Y0082037D01*
X0153646Y0082037D01*
X0152363Y0080753D01*
X0152363Y0080226D01*
X0152259Y0080614D01*
X0151996Y0081068D01*
X0151626Y0081439D01*
X0151172Y0081701D01*
X0150666Y0081837D01*
X0149426Y0081837D01*
X0149426Y0078868D01*
X0148626Y0078868D01*
X0148626Y0081837D01*
X0147386Y0081837D01*
X0146879Y0081701D01*
X0146426Y0081439D01*
X0146055Y0081068D01*
X0145793Y0080614D01*
X0145657Y0080108D01*
X0145657Y0078868D01*
X0148626Y0078868D01*
X0148626Y0078068D01*
X0149426Y0078068D01*
X0149426Y0075100D01*
X0150666Y0075100D01*
X0151172Y0075235D01*
X0151626Y0075497D01*
X0151996Y0075868D01*
X0152259Y0076322D01*
X0152363Y0076711D01*
X0152363Y0076183D01*
X0153646Y0074900D01*
X0158217Y0074900D01*
X0159500Y0076183D01*
X0159500Y0076468D01*
X0160650Y0076468D01*
X0161019Y0076100D01*
X0160427Y0075507D01*
X0159878Y0074184D01*
X0159878Y0072752D01*
X0160427Y0071429D01*
X0161439Y0070416D01*
X0162762Y0069868D01*
X0164195Y0069868D01*
X0165518Y0070416D01*
X0166530Y0071429D01*
X0167078Y0072752D01*
X0167078Y0074184D01*
X0166530Y0075507D01*
X0165518Y0076520D01*
X0165478Y0076536D01*
X0165478Y0077297D01*
X0164307Y0078468D01*
X0163531Y0079244D02*
X0167657Y0079244D01*
X0167657Y0080043D02*
X0162732Y0080043D01*
X0161478Y0078468D02*
X0163478Y0076468D01*
X0163478Y0073468D01*
X0160166Y0072058D02*
X0137567Y0072058D01*
X0137463Y0071806D02*
X0138178Y0073533D01*
X0138178Y0075403D01*
X0137463Y0077131D01*
X0136141Y0078453D01*
X0134413Y0079168D01*
X0132544Y0079168D01*
X0130816Y0078453D01*
X0129494Y0077131D01*
X0128778Y0075403D01*
X0128778Y0073533D01*
X0129494Y0071806D01*
X0130816Y0070484D01*
X0132544Y0069768D01*
X0134413Y0069768D01*
X0136141Y0070484D01*
X0137463Y0071806D01*
X0136916Y0071259D02*
X0160596Y0071259D01*
X0161395Y0070461D02*
X0136085Y0070461D01*
X0137898Y0072856D02*
X0159878Y0072856D01*
X0159878Y0073655D02*
X0138178Y0073655D01*
X0138178Y0074453D02*
X0159990Y0074453D01*
X0160321Y0075252D02*
X0158569Y0075252D01*
X0159367Y0076050D02*
X0160969Y0076050D01*
X0161478Y0078468D02*
X0155931Y0078468D01*
X0153249Y0081640D02*
X0151278Y0081640D01*
X0152128Y0080841D02*
X0152451Y0080841D01*
X0149426Y0080841D02*
X0148626Y0080841D01*
X0148626Y0080043D02*
X0149426Y0080043D01*
X0149426Y0079244D02*
X0148626Y0079244D01*
X0148626Y0078446D02*
X0136148Y0078446D01*
X0136946Y0077647D02*
X0145657Y0077647D01*
X0145657Y0078068D02*
X0145657Y0076828D01*
X0145793Y0076322D01*
X0146055Y0075868D01*
X0146426Y0075497D01*
X0146879Y0075235D01*
X0147386Y0075100D01*
X0148626Y0075100D01*
X0148626Y0078068D01*
X0145657Y0078068D01*
X0145657Y0079244D02*
X0090628Y0079244D01*
X0090552Y0079530D02*
X0090231Y0080305D01*
X0089811Y0081031D01*
X0089301Y0081697D01*
X0088707Y0082290D01*
X0088042Y0082801D01*
X0087315Y0083220D01*
X0086540Y0083542D01*
X0085730Y0083759D01*
X0084898Y0083868D01*
X0084878Y0083868D01*
X0084878Y0077868D01*
X0084078Y0077868D01*
X0084078Y0077068D01*
X0078078Y0077068D01*
X0078078Y0077049D01*
X0078188Y0076217D01*
X0078405Y0075407D01*
X0078726Y0074631D01*
X0079146Y0073905D01*
X0079656Y0073239D01*
X0080250Y0072646D01*
X0080915Y0072135D01*
X0081642Y0071716D01*
X0082417Y0071395D01*
X0083227Y0071178D01*
X0084059Y0071068D01*
X0084078Y0071068D01*
X0084078Y0077068D01*
X0084878Y0077068D01*
X0084878Y0071068D01*
X0084898Y0071068D01*
X0085730Y0071178D01*
X0086540Y0071395D01*
X0087315Y0071716D01*
X0088042Y0072135D01*
X0088707Y0072646D01*
X0089301Y0073239D01*
X0089811Y0073905D01*
X0090231Y0074631D01*
X0090552Y0075407D01*
X0090769Y0076217D01*
X0090878Y0077049D01*
X0090878Y0077068D01*
X0084879Y0077068D01*
X0084879Y0077868D01*
X0090878Y0077868D01*
X0090878Y0077888D01*
X0090769Y0078719D01*
X0090552Y0079530D01*
X0090339Y0080043D02*
X0132653Y0080043D01*
X0133078Y0080043D02*
X0133878Y0080043D01*
X0134304Y0080043D02*
X0145657Y0080043D01*
X0145924Y0080841D02*
X0136142Y0080841D01*
X0136986Y0081640D02*
X0146774Y0081640D01*
X0148626Y0081640D02*
X0149426Y0081640D01*
X0149426Y0077647D02*
X0148626Y0077647D01*
X0148626Y0076849D02*
X0149426Y0076849D01*
X0149426Y0076050D02*
X0148626Y0076050D01*
X0148626Y0075252D02*
X0149426Y0075252D01*
X0151201Y0075252D02*
X0153294Y0075252D01*
X0152495Y0076050D02*
X0152102Y0076050D01*
X0146851Y0075252D02*
X0138178Y0075252D01*
X0137910Y0076050D02*
X0145950Y0076050D01*
X0145657Y0076849D02*
X0137580Y0076849D01*
X0133878Y0080841D02*
X0133078Y0080841D01*
X0133078Y0081640D02*
X0133878Y0081640D01*
X0133878Y0082438D02*
X0133078Y0082438D01*
X0133078Y0083237D02*
X0133878Y0083237D01*
X0133878Y0084035D02*
X0133078Y0084035D01*
X0133078Y0084834D02*
X0047578Y0084834D01*
X0047578Y0085632D02*
X0129125Y0085632D01*
X0129428Y0086431D02*
X0047578Y0086431D01*
X0047578Y0087229D02*
X0129922Y0087229D01*
X0130722Y0088028D02*
X0047578Y0088028D01*
X0047578Y0090424D02*
X0053728Y0090424D01*
X0054078Y0090424D02*
X0054878Y0090424D01*
X0055229Y0090424D02*
X0062808Y0090424D01*
X0061229Y0091222D02*
X0057311Y0091222D01*
X0058243Y0092021D02*
X0060431Y0092021D01*
X0059839Y0092819D02*
X0058853Y0092819D01*
X0059240Y0093618D02*
X0059508Y0093618D01*
X0059629Y0097610D02*
X0059111Y0097610D01*
X0058646Y0098409D02*
X0059960Y0098409D01*
X0060722Y0099207D02*
X0057952Y0099207D01*
X0056807Y0100006D02*
X0061583Y0100006D01*
X0062478Y0100804D02*
X0021078Y0100804D01*
X0021078Y0100006D02*
X0041583Y0100006D01*
X0040722Y0099207D02*
X0021078Y0099207D01*
X0021078Y0098409D02*
X0039960Y0098409D01*
X0039629Y0097610D02*
X0021078Y0097610D01*
X0021078Y0096812D02*
X0039298Y0096812D01*
X0039178Y0096013D02*
X0021078Y0096013D01*
X0021078Y0095215D02*
X0039178Y0095215D01*
X0039178Y0094416D02*
X0021078Y0094416D01*
X0021078Y0093618D02*
X0039508Y0093618D01*
X0039839Y0092819D02*
X0021078Y0092819D01*
X0021078Y0092021D02*
X0040431Y0092021D01*
X0041229Y0091222D02*
X0021078Y0091222D01*
X0021078Y0090424D02*
X0041378Y0090424D01*
X0041378Y0089625D02*
X0021078Y0089625D01*
X0021078Y0088827D02*
X0041378Y0088827D01*
X0041378Y0088028D02*
X0021078Y0088028D01*
X0021078Y0087229D02*
X0041378Y0087229D01*
X0041378Y0086431D02*
X0021078Y0086431D01*
X0021078Y0085632D02*
X0041378Y0085632D01*
X0041378Y0084834D02*
X0021078Y0084834D01*
X0021078Y0084035D02*
X0041378Y0084035D01*
X0041159Y0083237D02*
X0021078Y0083237D01*
X0021078Y0082438D02*
X0040115Y0082438D01*
X0039316Y0081640D02*
X0021078Y0081640D01*
X0021078Y0080841D02*
X0038732Y0080841D01*
X0038401Y0080043D02*
X0021078Y0080043D01*
X0021078Y0079244D02*
X0038070Y0079244D01*
X0037878Y0078446D02*
X0021078Y0078446D01*
X0021078Y0077647D02*
X0037878Y0077647D01*
X0037878Y0076849D02*
X0021078Y0076849D01*
X0021078Y0076050D02*
X0037922Y0076050D01*
X0038253Y0075252D02*
X0021078Y0075252D01*
X0021078Y0074453D02*
X0038583Y0074453D01*
X0038958Y0073655D02*
X0021078Y0073655D01*
X0021078Y0072856D02*
X0039757Y0072856D01*
X0040555Y0072058D02*
X0021078Y0072058D01*
X0021078Y0071259D02*
X0042221Y0071259D01*
X0046735Y0071259D02*
X0062923Y0071259D01*
X0063227Y0071178D02*
X0064059Y0071068D01*
X0064078Y0071068D01*
X0064078Y0077068D01*
X0058078Y0077068D01*
X0058078Y0077049D01*
X0058188Y0076217D01*
X0058405Y0075407D01*
X0058726Y0074631D01*
X0059146Y0073905D01*
X0059656Y0073239D01*
X0060250Y0072646D01*
X0060915Y0072135D01*
X0061642Y0071716D01*
X0062417Y0071395D01*
X0063227Y0071178D01*
X0064078Y0071259D02*
X0064878Y0071259D01*
X0064878Y0071068D02*
X0064898Y0071068D01*
X0065730Y0071178D01*
X0066540Y0071395D01*
X0067315Y0071716D01*
X0068042Y0072135D01*
X0068707Y0072646D01*
X0069301Y0073239D01*
X0069811Y0073905D01*
X0070231Y0074631D01*
X0070552Y0075407D01*
X0070769Y0076217D01*
X0070878Y0077049D01*
X0070878Y0077068D01*
X0064879Y0077068D01*
X0064879Y0077868D01*
X0070878Y0077868D01*
X0070878Y0077888D01*
X0070769Y0078719D01*
X0070552Y0079530D01*
X0070231Y0080305D01*
X0069811Y0081031D01*
X0069301Y0081697D01*
X0068707Y0082290D01*
X0068042Y0082801D01*
X0067315Y0083220D01*
X0066540Y0083542D01*
X0065730Y0083759D01*
X0064898Y0083868D01*
X0064878Y0083868D01*
X0064878Y0077868D01*
X0064078Y0077868D01*
X0064078Y0077068D01*
X0064878Y0077068D01*
X0064878Y0071068D01*
X0064878Y0072058D02*
X0064078Y0072058D01*
X0064078Y0072856D02*
X0064878Y0072856D01*
X0064878Y0073655D02*
X0064078Y0073655D01*
X0064078Y0074453D02*
X0064878Y0074453D01*
X0064878Y0075252D02*
X0064078Y0075252D01*
X0064078Y0076050D02*
X0064878Y0076050D01*
X0064878Y0076849D02*
X0064078Y0076849D01*
X0064078Y0077647D02*
X0051078Y0077647D01*
X0051078Y0076849D02*
X0058105Y0076849D01*
X0058233Y0076050D02*
X0051035Y0076050D01*
X0050704Y0075252D02*
X0058469Y0075252D01*
X0058829Y0074453D02*
X0050373Y0074453D01*
X0049999Y0073655D02*
X0059338Y0073655D01*
X0060039Y0072856D02*
X0049200Y0072856D01*
X0048402Y0072058D02*
X0061050Y0072058D01*
X0066034Y0071259D02*
X0082923Y0071259D01*
X0084078Y0071259D02*
X0084878Y0071259D01*
X0084878Y0072058D02*
X0084078Y0072058D01*
X0084078Y0072856D02*
X0084878Y0072856D01*
X0084878Y0073655D02*
X0084078Y0073655D01*
X0084078Y0074453D02*
X0084878Y0074453D01*
X0084878Y0075252D02*
X0084078Y0075252D01*
X0084078Y0076050D02*
X0084878Y0076050D01*
X0084878Y0076849D02*
X0084078Y0076849D01*
X0084078Y0077647D02*
X0064879Y0077647D01*
X0064878Y0078446D02*
X0064078Y0078446D01*
X0064078Y0077868D02*
X0064078Y0083868D01*
X0064059Y0083868D01*
X0063227Y0083759D01*
X0062417Y0083542D01*
X0061642Y0083220D01*
X0060915Y0082801D01*
X0060250Y0082290D01*
X0059656Y0081697D01*
X0059146Y0081031D01*
X0058726Y0080305D01*
X0058405Y0079530D01*
X0058188Y0078719D01*
X0058078Y0077888D01*
X0058078Y0077868D01*
X0064078Y0077868D01*
X0064078Y0079244D02*
X0064878Y0079244D01*
X0064878Y0080043D02*
X0064078Y0080043D01*
X0064078Y0080841D02*
X0064878Y0080841D01*
X0064878Y0081640D02*
X0064078Y0081640D01*
X0064078Y0082438D02*
X0064878Y0082438D01*
X0064878Y0083237D02*
X0064078Y0083237D01*
X0061681Y0083237D02*
X0047798Y0083237D01*
X0047578Y0084035D02*
X0128991Y0084035D01*
X0129147Y0083237D02*
X0087275Y0083237D01*
X0088514Y0082438D02*
X0129462Y0082438D01*
X0129971Y0081640D02*
X0089344Y0081640D01*
X0089921Y0080841D02*
X0130814Y0080841D01*
X0130809Y0078446D02*
X0090805Y0078446D01*
X0090852Y0076849D02*
X0129377Y0076849D01*
X0129047Y0076050D02*
X0090724Y0076050D01*
X0090488Y0075252D02*
X0128778Y0075252D01*
X0128778Y0074453D02*
X0090128Y0074453D01*
X0089619Y0073655D02*
X0128778Y0073655D01*
X0129059Y0072856D02*
X0088918Y0072856D01*
X0087907Y0072058D02*
X0129390Y0072058D01*
X0130041Y0071259D02*
X0086034Y0071259D01*
X0081050Y0072058D02*
X0067907Y0072058D01*
X0068918Y0072856D02*
X0080039Y0072856D01*
X0079338Y0073655D02*
X0069619Y0073655D01*
X0070128Y0074453D02*
X0078829Y0074453D01*
X0078469Y0075252D02*
X0070488Y0075252D01*
X0070724Y0076050D02*
X0078233Y0076050D01*
X0078105Y0076849D02*
X0070852Y0076849D01*
X0070805Y0078446D02*
X0078152Y0078446D01*
X0078188Y0078719D02*
X0078078Y0077888D01*
X0078078Y0077868D01*
X0084078Y0077868D01*
X0084078Y0083868D01*
X0084059Y0083868D01*
X0083227Y0083759D01*
X0082417Y0083542D01*
X0081642Y0083220D01*
X0080915Y0082801D01*
X0080250Y0082290D01*
X0079656Y0081697D01*
X0079146Y0081031D01*
X0078726Y0080305D01*
X0078405Y0079530D01*
X0078188Y0078719D01*
X0078329Y0079244D02*
X0070628Y0079244D01*
X0070339Y0080043D02*
X0078618Y0080043D01*
X0079036Y0080841D02*
X0069921Y0080841D01*
X0069344Y0081640D02*
X0079613Y0081640D01*
X0080443Y0082438D02*
X0068514Y0082438D01*
X0067275Y0083237D02*
X0081681Y0083237D01*
X0084078Y0083237D02*
X0084878Y0083237D01*
X0084878Y0082438D02*
X0084078Y0082438D01*
X0084078Y0081640D02*
X0084878Y0081640D01*
X0084878Y0080841D02*
X0084078Y0080841D01*
X0084078Y0080043D02*
X0084878Y0080043D01*
X0084878Y0079244D02*
X0084078Y0079244D01*
X0084078Y0078446D02*
X0084878Y0078446D01*
X0084879Y0077647D02*
X0130011Y0077647D01*
X0130872Y0070461D02*
X0021078Y0070461D01*
X0021078Y0069662D02*
X0210792Y0069662D01*
X0210792Y0068864D02*
X0021078Y0068864D01*
X0021078Y0101603D02*
X0062478Y0101603D01*
X0062478Y0102401D02*
X0021078Y0102401D01*
X0021078Y0103200D02*
X0062478Y0103200D01*
X0062478Y0103998D02*
X0021078Y0103998D01*
X0021078Y0104797D02*
X0062478Y0104797D01*
X0062478Y0105595D02*
X0021078Y0105595D01*
X0021078Y0106394D02*
X0062478Y0106394D01*
X0062478Y0107192D02*
X0021078Y0107192D01*
X0021078Y0107991D02*
X0062478Y0107991D01*
X0062478Y0108789D02*
X0021078Y0108789D01*
X0021078Y0109588D02*
X0062478Y0109588D01*
X0062478Y0110386D02*
X0021078Y0110386D01*
X0021078Y0111185D02*
X0062478Y0111185D01*
X0062478Y0111983D02*
X0021078Y0111983D01*
X0021078Y0112782D02*
X0062478Y0112782D01*
X0062478Y0113580D02*
X0021078Y0113580D01*
X0021078Y0114379D02*
X0062478Y0114379D01*
X0062478Y0115177D02*
X0021078Y0115177D01*
X0021078Y0115976D02*
X0062478Y0115976D01*
X0062478Y0116774D02*
X0021078Y0116774D01*
X0021078Y0117573D02*
X0062478Y0117573D01*
X0062478Y0118371D02*
X0021078Y0118371D01*
X0021078Y0119170D02*
X0062478Y0119170D01*
X0062478Y0119968D02*
X0021078Y0119968D01*
X0021078Y0120767D02*
X0062478Y0120767D01*
X0062478Y0121565D02*
X0021078Y0121565D01*
X0021078Y0122364D02*
X0062478Y0122364D01*
X0062478Y0123162D02*
X0021078Y0123162D01*
X0021078Y0123961D02*
X0062478Y0123961D01*
X0062478Y0124760D02*
X0021078Y0124760D01*
X0021078Y0125558D02*
X0062478Y0125558D01*
X0062478Y0126357D02*
X0021078Y0126357D01*
X0021078Y0127155D02*
X0062478Y0127155D01*
X0062478Y0127954D02*
X0021078Y0127954D01*
X0021078Y0128752D02*
X0062478Y0128752D01*
X0062478Y0129551D02*
X0021078Y0129551D01*
X0021078Y0130349D02*
X0062478Y0130349D01*
X0062478Y0131148D02*
X0021078Y0131148D01*
X0021078Y0131946D02*
X0062478Y0131946D01*
X0062478Y0132745D02*
X0021078Y0132745D01*
X0021078Y0133543D02*
X0062478Y0133543D01*
X0062478Y0134342D02*
X0021078Y0134342D01*
X0021078Y0135140D02*
X0062478Y0135140D01*
X0062478Y0135939D02*
X0021078Y0135939D01*
X0021078Y0136737D02*
X0050115Y0136737D01*
X0050764Y0136468D02*
X0048890Y0137245D01*
X0047455Y0138679D01*
X0046678Y0140554D01*
X0046678Y0142583D01*
X0047455Y0144457D01*
X0048890Y0145892D01*
X0050764Y0146668D01*
X0052793Y0146668D01*
X0054667Y0145892D01*
X0056102Y0144457D01*
X0056878Y0142583D01*
X0056878Y0140554D01*
X0056102Y0138679D01*
X0054667Y0137245D01*
X0052793Y0136468D01*
X0050764Y0136468D01*
X0048598Y0137536D02*
X0021078Y0137536D01*
X0021078Y0138334D02*
X0047800Y0138334D01*
X0047267Y0139133D02*
X0021078Y0139133D01*
X0021078Y0139931D02*
X0046936Y0139931D01*
X0046678Y0140730D02*
X0021078Y0140730D01*
X0021078Y0141528D02*
X0046678Y0141528D01*
X0046678Y0142327D02*
X0021078Y0142327D01*
X0021078Y0143125D02*
X0046903Y0143125D01*
X0047234Y0143924D02*
X0021078Y0143924D01*
X0021078Y0144722D02*
X0047720Y0144722D01*
X0048519Y0145521D02*
X0021078Y0145521D01*
X0021078Y0146319D02*
X0049922Y0146319D01*
X0053635Y0146319D02*
X0060910Y0146319D01*
X0060910Y0145521D02*
X0055038Y0145521D01*
X0055837Y0144722D02*
X0060910Y0144722D01*
X0060973Y0143924D02*
X0056323Y0143924D01*
X0056654Y0143125D02*
X0061085Y0143125D01*
X0060910Y0142327D02*
X0056878Y0142327D01*
X0056878Y0141528D02*
X0060910Y0141528D01*
X0060910Y0140730D02*
X0056878Y0140730D01*
X0056621Y0139931D02*
X0060910Y0139931D01*
X0060910Y0139133D02*
X0056290Y0139133D01*
X0055757Y0138334D02*
X0060910Y0138334D01*
X0060910Y0137536D02*
X0054958Y0137536D01*
X0053442Y0136737D02*
X0061466Y0136737D01*
X0064478Y0140122D02*
X0064478Y0095468D01*
X0067374Y0100006D02*
X0131970Y0100006D01*
X0130496Y0100804D02*
X0066478Y0100804D01*
X0066478Y0101603D02*
X0129697Y0101603D01*
X0129247Y0102401D02*
X0066478Y0102401D01*
X0066478Y0103200D02*
X0128917Y0103200D01*
X0128778Y0103998D02*
X0066478Y0103998D01*
X0066478Y0104797D02*
X0128778Y0104797D01*
X0128858Y0105595D02*
X0066478Y0105595D01*
X0066478Y0106394D02*
X0128724Y0106394D01*
X0127926Y0107192D02*
X0066478Y0107192D01*
X0066478Y0107991D02*
X0109213Y0107991D01*
X0108414Y0108789D02*
X0066478Y0108789D01*
X0066478Y0109588D02*
X0104530Y0109588D01*
X0103732Y0110386D02*
X0066478Y0110386D01*
X0066478Y0111185D02*
X0102933Y0111185D01*
X0102135Y0111983D02*
X0066478Y0111983D01*
X0066478Y0112782D02*
X0101336Y0112782D01*
X0100538Y0113580D02*
X0066478Y0113580D01*
X0066478Y0114379D02*
X0100478Y0114379D01*
X0100478Y0115177D02*
X0066478Y0115177D01*
X0066478Y0115976D02*
X0100478Y0115976D01*
X0100478Y0116774D02*
X0066478Y0116774D01*
X0066478Y0117573D02*
X0100478Y0117573D01*
X0100478Y0118371D02*
X0066478Y0118371D01*
X0066478Y0119170D02*
X0100478Y0119170D01*
X0100478Y0119968D02*
X0066478Y0119968D01*
X0066478Y0120767D02*
X0100478Y0120767D01*
X0100478Y0121565D02*
X0066478Y0121565D01*
X0066478Y0122364D02*
X0100478Y0122364D01*
X0099956Y0123162D02*
X0074017Y0123162D01*
X0074047Y0123177D02*
X0074671Y0123631D01*
X0075216Y0124176D01*
X0075669Y0124800D01*
X0076019Y0125487D01*
X0076258Y0126221D01*
X0076376Y0126968D01*
X0071879Y0126968D01*
X0071879Y0127768D01*
X0076376Y0127768D01*
X0076258Y0128516D01*
X0076019Y0129249D01*
X0075669Y0129936D01*
X0075216Y0130560D01*
X0074671Y0131106D01*
X0074047Y0131559D01*
X0073359Y0131909D01*
X0072626Y0132148D01*
X0071878Y0132266D01*
X0071878Y0127768D01*
X0071078Y0127768D01*
X0071078Y0126968D01*
X0066581Y0126968D01*
X0066699Y0126221D01*
X0066937Y0125487D01*
X0067288Y0124800D01*
X0067741Y0124176D01*
X0068286Y0123631D01*
X0068910Y0123177D01*
X0069598Y0122827D01*
X0070331Y0122589D01*
X0071078Y0122470D01*
X0071078Y0126968D01*
X0071878Y0126968D01*
X0071878Y0122470D01*
X0072626Y0122589D01*
X0073359Y0122827D01*
X0074047Y0123177D01*
X0075001Y0123961D02*
X0099157Y0123961D01*
X0098359Y0124760D02*
X0075640Y0124760D01*
X0076042Y0125558D02*
X0080560Y0125558D01*
X0079762Y0126357D02*
X0076279Y0126357D01*
X0076347Y0127954D02*
X0078165Y0127954D01*
X0077366Y0128752D02*
X0076181Y0128752D01*
X0075866Y0129551D02*
X0076568Y0129551D01*
X0075769Y0130349D02*
X0075369Y0130349D01*
X0074971Y0131148D02*
X0074613Y0131148D01*
X0074172Y0131946D02*
X0073246Y0131946D01*
X0073374Y0132745D02*
X0066478Y0132745D01*
X0066478Y0133543D02*
X0072575Y0133543D01*
X0071777Y0134342D02*
X0066478Y0134342D01*
X0066478Y0135140D02*
X0070978Y0135140D01*
X0070180Y0135939D02*
X0066478Y0135939D01*
X0067491Y0136737D02*
X0069381Y0136737D01*
X0068583Y0137536D02*
X0068047Y0137536D01*
X0069478Y0139468D02*
X0081478Y0127468D01*
X0098478Y0127468D01*
X0102478Y0123468D01*
X0102478Y0114468D01*
X0105478Y0111468D01*
X0112132Y0111468D01*
X0115051Y0107991D02*
X0115906Y0107991D01*
X0118825Y0111468D02*
X0126478Y0111468D01*
X0133478Y0104468D01*
X0135328Y0108789D02*
X0164978Y0108789D01*
X0164978Y0107991D02*
X0136603Y0107991D01*
X0137401Y0107192D02*
X0164978Y0107192D01*
X0164978Y0106394D02*
X0137768Y0106394D01*
X0138099Y0105595D02*
X0153359Y0105595D01*
X0153020Y0104797D02*
X0138178Y0104797D01*
X0138178Y0103998D02*
X0153020Y0103998D01*
X0153020Y0103200D02*
X0138040Y0103200D01*
X0137710Y0102401D02*
X0153020Y0102401D01*
X0153020Y0101603D02*
X0137260Y0101603D01*
X0136461Y0100804D02*
X0153020Y0100804D01*
X0153020Y0100006D02*
X0134987Y0100006D01*
X0136185Y0098409D02*
X0153425Y0098409D01*
X0153020Y0099207D02*
X0068235Y0099207D01*
X0068997Y0098409D02*
X0130772Y0098409D01*
X0129974Y0097610D02*
X0069328Y0097610D01*
X0069659Y0096812D02*
X0129362Y0096812D01*
X0129031Y0096013D02*
X0069778Y0096013D01*
X0069778Y0095215D02*
X0128778Y0095215D01*
X0128778Y0094416D02*
X0069778Y0094416D01*
X0069449Y0093618D02*
X0128778Y0093618D01*
X0129074Y0092819D02*
X0069118Y0092819D01*
X0068526Y0092021D02*
X0129405Y0092021D01*
X0130078Y0091222D02*
X0067728Y0091222D01*
X0066149Y0090424D02*
X0130961Y0090424D01*
X0133478Y0094468D02*
X0160478Y0094468D01*
X0163478Y0097468D01*
X0163478Y0102035D01*
X0160248Y0105595D02*
X0159819Y0105595D01*
X0163969Y0110386D02*
X0135906Y0110386D01*
X0133478Y0114468D02*
X0126478Y0121468D01*
X0118825Y0121468D01*
X0122590Y0119170D02*
X0125948Y0119170D01*
X0126747Y0118371D02*
X0122125Y0118371D01*
X0122311Y0114379D02*
X0128778Y0114379D01*
X0128778Y0115177D02*
X0104598Y0115177D01*
X0104478Y0115976D02*
X0129016Y0115976D01*
X0128344Y0116774D02*
X0104478Y0116774D01*
X0104478Y0117573D02*
X0127545Y0117573D01*
X0130008Y0120767D02*
X0130533Y0120767D01*
X0130807Y0119968D02*
X0132060Y0119968D01*
X0131605Y0119170D02*
X0142910Y0119170D01*
X0142910Y0119968D02*
X0134897Y0119968D01*
X0136424Y0120767D02*
X0142910Y0120767D01*
X0142910Y0121565D02*
X0137223Y0121565D01*
X0137694Y0122364D02*
X0142910Y0122364D01*
X0142910Y0123162D02*
X0138025Y0123162D01*
X0138178Y0123961D02*
X0142910Y0123961D01*
X0143027Y0124760D02*
X0138178Y0124760D01*
X0138114Y0125558D02*
X0143825Y0125558D01*
X0144478Y0126357D02*
X0137784Y0126357D01*
X0137438Y0127155D02*
X0144478Y0127155D01*
X0144478Y0127954D02*
X0136640Y0127954D01*
X0135418Y0128752D02*
X0144478Y0128752D01*
X0144478Y0129551D02*
X0131224Y0129551D01*
X0131141Y0130349D02*
X0130426Y0130349D01*
X0130152Y0131148D02*
X0129627Y0131148D01*
X0129436Y0131946D02*
X0128829Y0131946D01*
X0129105Y0132745D02*
X0128030Y0132745D01*
X0128778Y0133543D02*
X0122590Y0133543D01*
X0122348Y0134342D02*
X0128778Y0134342D01*
X0128778Y0135140D02*
X0082635Y0135140D01*
X0083433Y0134342D02*
X0108609Y0134342D01*
X0108367Y0133543D02*
X0084232Y0133543D01*
X0083478Y0131468D02*
X0073478Y0141468D01*
X0073478Y0153468D01*
X0066478Y0160468D01*
X0066478Y0174468D01*
X0063478Y0177468D01*
X0061478Y0176468D02*
X0064478Y0173468D01*
X0064478Y0159468D01*
X0071478Y0152468D01*
X0071478Y0140468D01*
X0082478Y0129468D01*
X0099478Y0129468D01*
X0107478Y0121468D01*
X0112132Y0121468D01*
X0115237Y0124760D02*
X0115720Y0124760D01*
X0115943Y0127954D02*
X0115014Y0127954D01*
X0112132Y0131468D02*
X0083478Y0131468D01*
X0081836Y0135939D02*
X0129000Y0135939D01*
X0128381Y0136737D02*
X0092842Y0136737D01*
X0092193Y0136468D02*
X0094067Y0137245D01*
X0095502Y0138679D01*
X0096278Y0140554D01*
X0096278Y0142583D01*
X0095502Y0144457D01*
X0094067Y0145892D01*
X0092193Y0146668D01*
X0090164Y0146668D01*
X0088290Y0145892D01*
X0086855Y0144457D01*
X0086078Y0142583D01*
X0086078Y0140554D01*
X0086855Y0138679D01*
X0088290Y0137245D01*
X0090164Y0136468D01*
X0092193Y0136468D01*
X0094358Y0137536D02*
X0127583Y0137536D01*
X0126784Y0138334D02*
X0122088Y0138334D01*
X0122590Y0139133D02*
X0125985Y0139133D01*
X0128448Y0142327D02*
X0129278Y0142327D01*
X0129247Y0141528D02*
X0129772Y0141528D01*
X0130045Y0140730D02*
X0130570Y0140730D01*
X0130844Y0139931D02*
X0132150Y0139931D01*
X0132458Y0139133D02*
X0131642Y0139133D01*
X0128947Y0143125D02*
X0127650Y0143125D01*
X0128778Y0143924D02*
X0122590Y0143924D01*
X0121967Y0144722D02*
X0128778Y0144722D01*
X0128827Y0145521D02*
X0106254Y0145521D01*
X0105456Y0146319D02*
X0128799Y0146319D01*
X0128000Y0147118D02*
X0104657Y0147118D01*
X0103859Y0147916D02*
X0109287Y0147916D01*
X0108489Y0148715D02*
X0103060Y0148715D01*
X0100597Y0145521D02*
X0094438Y0145521D01*
X0095237Y0144722D02*
X0101396Y0144722D01*
X0102194Y0143924D02*
X0095723Y0143924D01*
X0096054Y0143125D02*
X0102993Y0143125D01*
X0103791Y0142327D02*
X0096278Y0142327D01*
X0096278Y0141528D02*
X0104590Y0141528D01*
X0105388Y0140730D02*
X0096278Y0140730D01*
X0096021Y0139931D02*
X0106187Y0139931D01*
X0108367Y0139133D02*
X0095690Y0139133D01*
X0095157Y0138334D02*
X0108869Y0138334D01*
X0108367Y0143924D02*
X0107851Y0143924D01*
X0107053Y0144722D02*
X0108990Y0144722D01*
X0115274Y0144722D02*
X0115682Y0144722D01*
X0115980Y0147916D02*
X0114977Y0147916D01*
X0112132Y0151468D02*
X0081478Y0151468D01*
X0070478Y0162468D01*
X0070478Y0176468D01*
X0067478Y0179468D01*
X0067478Y0203468D01*
X0064478Y0206468D01*
X0057931Y0206468D01*
X0055011Y0209402D02*
X0053663Y0209402D01*
X0054262Y0208603D02*
X0054363Y0208603D01*
X0051426Y0208603D02*
X0050626Y0208603D01*
X0050626Y0207805D02*
X0051426Y0207805D01*
X0051426Y0207006D02*
X0050626Y0207006D01*
X0050626Y0209402D02*
X0051426Y0209402D01*
X0047657Y0205409D02*
X0042184Y0205409D01*
X0042678Y0204611D02*
X0047715Y0204611D01*
X0048111Y0203812D02*
X0043009Y0203812D01*
X0042469Y0199820D02*
X0049322Y0199820D01*
X0050626Y0199820D02*
X0051426Y0199820D01*
X0051426Y0199021D02*
X0050626Y0199021D01*
X0050626Y0198223D02*
X0051426Y0198223D01*
X0051426Y0197424D02*
X0050626Y0197424D01*
X0047657Y0197424D02*
X0021078Y0197424D01*
X0021078Y0196626D02*
X0036234Y0196626D01*
X0035190Y0195827D02*
X0021078Y0195827D01*
X0021078Y0195029D02*
X0034452Y0195029D01*
X0034121Y0194230D02*
X0021078Y0194230D01*
X0021078Y0193431D02*
X0033790Y0193431D01*
X0033778Y0192633D02*
X0021078Y0192633D01*
X0021078Y0191834D02*
X0033778Y0191834D01*
X0033984Y0191036D02*
X0021078Y0191036D01*
X0021078Y0190237D02*
X0034315Y0190237D01*
X0034861Y0189439D02*
X0021078Y0189439D01*
X0021078Y0188640D02*
X0035659Y0188640D01*
X0037366Y0187842D02*
X0021078Y0187842D01*
X0021078Y0187043D02*
X0037242Y0187043D01*
X0035608Y0186245D02*
X0021078Y0186245D01*
X0021078Y0185446D02*
X0034810Y0185446D01*
X0034294Y0184648D02*
X0021078Y0184648D01*
X0021078Y0183849D02*
X0033963Y0183849D01*
X0033778Y0183051D02*
X0021078Y0183051D01*
X0021078Y0182252D02*
X0033778Y0182252D01*
X0033811Y0181454D02*
X0021078Y0181454D01*
X0021078Y0180655D02*
X0034142Y0180655D01*
X0034473Y0179857D02*
X0021078Y0179857D01*
X0021078Y0179058D02*
X0035242Y0179058D01*
X0036357Y0178260D02*
X0021078Y0178260D01*
X0021078Y0177461D02*
X0047657Y0177461D01*
X0047698Y0178260D02*
X0040600Y0178260D01*
X0041715Y0179058D02*
X0048049Y0179058D01*
X0050626Y0179058D02*
X0051426Y0179058D01*
X0051426Y0178260D02*
X0050626Y0178260D01*
X0050626Y0177461D02*
X0051426Y0177461D01*
X0050626Y0176663D02*
X0040634Y0176663D01*
X0041141Y0176453D02*
X0039413Y0177168D01*
X0037544Y0177168D01*
X0035816Y0176453D01*
X0034494Y0175131D01*
X0033778Y0173403D01*
X0033778Y0171533D01*
X0034494Y0169806D01*
X0035816Y0168484D01*
X0037544Y0167768D01*
X0039413Y0167768D01*
X0041141Y0168484D01*
X0042463Y0169806D01*
X0043178Y0171533D01*
X0043178Y0173403D01*
X0042463Y0175131D01*
X0041141Y0176453D01*
X0041729Y0175864D02*
X0047657Y0175864D01*
X0047657Y0176068D02*
X0047657Y0174828D01*
X0047793Y0174322D01*
X0048055Y0173868D01*
X0048426Y0173497D01*
X0048879Y0173235D01*
X0049386Y0173100D01*
X0050626Y0173100D01*
X0050626Y0176068D01*
X0047657Y0176068D01*
X0047657Y0175066D02*
X0042490Y0175066D01*
X0042821Y0174267D02*
X0047824Y0174267D01*
X0048475Y0173469D02*
X0043151Y0173469D01*
X0043178Y0172670D02*
X0062448Y0172670D01*
X0062478Y0171872D02*
X0043178Y0171872D01*
X0042988Y0171073D02*
X0062478Y0171073D01*
X0062478Y0170275D02*
X0042657Y0170275D01*
X0042133Y0169476D02*
X0048490Y0169476D01*
X0047829Y0168678D02*
X0041335Y0168678D01*
X0039681Y0167879D02*
X0047657Y0167879D01*
X0047657Y0167081D02*
X0021078Y0167081D01*
X0021078Y0167879D02*
X0037276Y0167879D01*
X0035622Y0168678D02*
X0021078Y0168678D01*
X0021078Y0169476D02*
X0034824Y0169476D01*
X0034300Y0170275D02*
X0021078Y0170275D01*
X0021078Y0171073D02*
X0033969Y0171073D01*
X0033778Y0171872D02*
X0021078Y0171872D01*
X0021078Y0172670D02*
X0033778Y0172670D01*
X0033806Y0173469D02*
X0021078Y0173469D01*
X0021078Y0174267D02*
X0034136Y0174267D01*
X0034467Y0175066D02*
X0021078Y0175066D01*
X0021078Y0175864D02*
X0035228Y0175864D01*
X0036323Y0176663D02*
X0021078Y0176663D01*
X0021078Y0166282D02*
X0050626Y0166282D01*
X0050626Y0166068D02*
X0047657Y0166068D01*
X0047657Y0164828D01*
X0047793Y0164322D01*
X0048055Y0163868D01*
X0048426Y0163497D01*
X0048879Y0163235D01*
X0049386Y0163100D01*
X0050626Y0163100D01*
X0050626Y0166068D01*
X0050626Y0165484D02*
X0051426Y0165484D01*
X0051426Y0164685D02*
X0050626Y0164685D01*
X0050626Y0163887D02*
X0051426Y0163887D01*
X0054007Y0163887D02*
X0054659Y0163887D01*
X0054363Y0164685D02*
X0054356Y0164685D01*
X0055458Y0163088D02*
X0021078Y0163088D01*
X0021078Y0162290D02*
X0060478Y0162290D01*
X0060478Y0163088D02*
X0060405Y0163088D01*
X0060478Y0161491D02*
X0021078Y0161491D01*
X0021078Y0160693D02*
X0060478Y0160693D01*
X0060478Y0159894D02*
X0060359Y0159894D01*
X0062478Y0158468D02*
X0062478Y0164468D01*
X0060478Y0166468D01*
X0057931Y0166468D01*
X0055085Y0169476D02*
X0053561Y0169476D01*
X0054222Y0168678D02*
X0054363Y0168678D01*
X0051426Y0168678D02*
X0050626Y0168678D01*
X0050626Y0169476D02*
X0051426Y0169476D01*
X0051426Y0167879D02*
X0050626Y0167879D01*
X0050626Y0167081D02*
X0051426Y0167081D01*
X0047657Y0165484D02*
X0021078Y0165484D01*
X0021078Y0164685D02*
X0047696Y0164685D01*
X0048044Y0163887D02*
X0021078Y0163887D01*
X0021078Y0159894D02*
X0055503Y0159894D01*
X0054705Y0159096D02*
X0053969Y0159096D01*
X0054344Y0158297D02*
X0054363Y0158297D01*
X0051426Y0158297D02*
X0050626Y0158297D01*
X0050626Y0159096D02*
X0051426Y0159096D01*
X0051426Y0157498D02*
X0050626Y0157498D01*
X0050626Y0156700D02*
X0021078Y0156700D01*
X0021078Y0157498D02*
X0047657Y0157498D01*
X0047708Y0158297D02*
X0021078Y0158297D01*
X0021078Y0159096D02*
X0048082Y0159096D01*
X0047657Y0156068D02*
X0047657Y0154828D01*
X0047793Y0154322D01*
X0048055Y0153868D01*
X0048426Y0153497D01*
X0048879Y0153235D01*
X0049386Y0153100D01*
X0050626Y0153100D01*
X0050626Y0156068D01*
X0047657Y0156068D01*
X0047657Y0155901D02*
X0021078Y0155901D01*
X0021078Y0155103D02*
X0047657Y0155103D01*
X0047803Y0154304D02*
X0021078Y0154304D01*
X0021078Y0153506D02*
X0048417Y0153506D01*
X0050626Y0153506D02*
X0051426Y0153506D01*
X0051426Y0154304D02*
X0050626Y0154304D01*
X0050626Y0155103D02*
X0051426Y0155103D01*
X0051426Y0155901D02*
X0050626Y0155901D01*
X0053634Y0153506D02*
X0055040Y0153506D01*
X0054363Y0154304D02*
X0054248Y0154304D01*
X0057931Y0156468D02*
X0061478Y0156468D01*
X0064478Y0153468D01*
X0064478Y0146815D01*
X0060910Y0147118D02*
X0021078Y0147118D01*
X0021078Y0147916D02*
X0060910Y0147916D01*
X0060910Y0148715D02*
X0021078Y0148715D01*
X0021078Y0149513D02*
X0060910Y0149513D01*
X0061579Y0150312D02*
X0021078Y0150312D01*
X0021078Y0151110D02*
X0062478Y0151110D01*
X0062478Y0151909D02*
X0021078Y0151909D01*
X0021078Y0152707D02*
X0062411Y0152707D01*
X0061612Y0153506D02*
X0060823Y0153506D01*
X0062478Y0158468D02*
X0069478Y0151468D01*
X0069478Y0139468D01*
X0070331Y0132148D02*
X0069598Y0131909D01*
X0068910Y0131559D01*
X0068286Y0131106D01*
X0067741Y0130560D01*
X0067288Y0129936D01*
X0066937Y0129249D01*
X0066699Y0128516D01*
X0066581Y0127768D01*
X0071078Y0127768D01*
X0071078Y0132266D01*
X0070331Y0132148D01*
X0069711Y0131946D02*
X0066478Y0131946D01*
X0066478Y0131148D02*
X0068344Y0131148D01*
X0067587Y0130349D02*
X0066478Y0130349D01*
X0066478Y0129551D02*
X0067091Y0129551D01*
X0066776Y0128752D02*
X0066478Y0128752D01*
X0066478Y0127954D02*
X0066610Y0127954D01*
X0066478Y0127155D02*
X0071078Y0127155D01*
X0071078Y0126357D02*
X0071878Y0126357D01*
X0071879Y0127155D02*
X0078963Y0127155D01*
X0071878Y0127954D02*
X0071078Y0127954D01*
X0071078Y0128752D02*
X0071878Y0128752D01*
X0071878Y0129551D02*
X0071078Y0129551D01*
X0071078Y0130349D02*
X0071878Y0130349D01*
X0071878Y0131148D02*
X0071078Y0131148D01*
X0071078Y0131946D02*
X0071878Y0131946D01*
X0071878Y0125558D02*
X0071078Y0125558D01*
X0071078Y0124760D02*
X0071878Y0124760D01*
X0071878Y0123961D02*
X0071078Y0123961D01*
X0071078Y0123162D02*
X0071878Y0123162D01*
X0068939Y0123162D02*
X0066478Y0123162D01*
X0066478Y0123961D02*
X0067956Y0123961D01*
X0067317Y0124760D02*
X0066478Y0124760D01*
X0066478Y0125558D02*
X0066914Y0125558D01*
X0066678Y0126357D02*
X0066478Y0126357D01*
X0078642Y0139133D02*
X0086667Y0139133D01*
X0086336Y0139931D02*
X0077844Y0139931D01*
X0077045Y0140730D02*
X0086078Y0140730D01*
X0086078Y0141528D02*
X0076247Y0141528D01*
X0075478Y0142327D02*
X0086078Y0142327D01*
X0086303Y0143125D02*
X0075478Y0143125D01*
X0075478Y0143924D02*
X0086634Y0143924D01*
X0087120Y0144722D02*
X0075478Y0144722D01*
X0075478Y0145521D02*
X0087919Y0145521D01*
X0089322Y0146319D02*
X0075478Y0146319D01*
X0075478Y0147118D02*
X0099000Y0147118D01*
X0099799Y0146319D02*
X0093035Y0146319D01*
X0087200Y0138334D02*
X0079441Y0138334D01*
X0080239Y0137536D02*
X0087998Y0137536D01*
X0089515Y0136737D02*
X0081038Y0136737D01*
X0079202Y0147916D02*
X0075478Y0147916D01*
X0075478Y0148715D02*
X0078403Y0148715D01*
X0077605Y0149513D02*
X0075478Y0149513D01*
X0075478Y0150312D02*
X0076806Y0150312D01*
X0076008Y0151110D02*
X0075478Y0151110D01*
X0079874Y0155901D02*
X0128985Y0155901D01*
X0128778Y0155403D02*
X0128778Y0153533D01*
X0129494Y0151806D01*
X0130816Y0150484D01*
X0132544Y0149768D01*
X0134413Y0149768D01*
X0136141Y0150484D01*
X0137463Y0151806D01*
X0138178Y0153533D01*
X0138178Y0155403D01*
X0137463Y0157131D01*
X0136141Y0158453D01*
X0134413Y0159168D01*
X0132544Y0159168D01*
X0130816Y0158453D01*
X0129494Y0157131D01*
X0128778Y0155403D01*
X0128778Y0155103D02*
X0080672Y0155103D01*
X0081471Y0154304D02*
X0108572Y0154304D01*
X0108367Y0153506D02*
X0082269Y0153506D01*
X0079075Y0156700D02*
X0129316Y0156700D01*
X0129862Y0157498D02*
X0078277Y0157498D01*
X0077478Y0158297D02*
X0130660Y0158297D01*
X0132368Y0159096D02*
X0076680Y0159096D01*
X0075881Y0159894D02*
X0132240Y0159894D01*
X0132544Y0159768D02*
X0134413Y0159768D01*
X0136141Y0160484D01*
X0137463Y0161806D01*
X0138178Y0163533D01*
X0138178Y0165403D01*
X0137463Y0167131D01*
X0136141Y0168453D01*
X0134413Y0169168D01*
X0132544Y0169168D01*
X0130816Y0168453D01*
X0129494Y0167131D01*
X0128778Y0165403D01*
X0128778Y0163533D01*
X0129494Y0161806D01*
X0130816Y0160484D01*
X0132544Y0159768D01*
X0130607Y0160693D02*
X0075083Y0160693D01*
X0074284Y0161491D02*
X0129809Y0161491D01*
X0129294Y0162290D02*
X0073486Y0162290D01*
X0072687Y0163088D02*
X0128963Y0163088D01*
X0128778Y0163887D02*
X0072478Y0163887D01*
X0072478Y0164685D02*
X0128778Y0164685D01*
X0128812Y0165484D02*
X0072478Y0165484D01*
X0072478Y0166282D02*
X0129143Y0166282D01*
X0129473Y0167081D02*
X0072478Y0167081D01*
X0072478Y0167879D02*
X0117276Y0167879D01*
X0117544Y0167768D02*
X0119413Y0167768D01*
X0121141Y0168484D01*
X0122463Y0169806D01*
X0123178Y0171533D01*
X0123178Y0173403D01*
X0122463Y0175131D01*
X0121141Y0176453D01*
X0119413Y0177168D01*
X0117544Y0177168D01*
X0115816Y0176453D01*
X0114494Y0175131D01*
X0113778Y0173403D01*
X0113778Y0171533D01*
X0114494Y0169806D01*
X0115816Y0168484D01*
X0117544Y0167768D01*
X0115622Y0168678D02*
X0072478Y0168678D01*
X0072478Y0169476D02*
X0114824Y0169476D01*
X0114300Y0170275D02*
X0072478Y0170275D01*
X0072478Y0171073D02*
X0113969Y0171073D01*
X0113778Y0171872D02*
X0072478Y0171872D01*
X0072478Y0172670D02*
X0113778Y0172670D01*
X0113806Y0173469D02*
X0072478Y0173469D01*
X0072478Y0174267D02*
X0114136Y0174267D01*
X0114467Y0175066D02*
X0072478Y0175066D01*
X0072478Y0175864D02*
X0115228Y0175864D01*
X0116323Y0176663D02*
X0072478Y0176663D01*
X0072314Y0177461D02*
X0129825Y0177461D01*
X0129494Y0177131D02*
X0128778Y0175403D01*
X0128778Y0173533D01*
X0129494Y0171806D01*
X0130816Y0170484D01*
X0132544Y0169768D01*
X0134413Y0169768D01*
X0136141Y0170484D01*
X0137463Y0171806D01*
X0138178Y0173533D01*
X0138178Y0175403D01*
X0137463Y0177131D01*
X0136141Y0178453D01*
X0134413Y0179168D01*
X0132544Y0179168D01*
X0130816Y0178453D01*
X0129494Y0177131D01*
X0129300Y0176663D02*
X0120634Y0176663D01*
X0121729Y0175864D02*
X0128969Y0175864D01*
X0128778Y0175066D02*
X0122490Y0175066D01*
X0122821Y0174267D02*
X0128778Y0174267D01*
X0128805Y0173469D02*
X0123151Y0173469D01*
X0123178Y0172670D02*
X0129136Y0172670D01*
X0129467Y0171872D02*
X0123178Y0171872D01*
X0122988Y0171073D02*
X0130227Y0171073D01*
X0131321Y0170275D02*
X0122657Y0170275D01*
X0122133Y0169476D02*
X0147132Y0169476D01*
X0147132Y0168678D02*
X0135598Y0168678D01*
X0136714Y0167879D02*
X0147132Y0167879D01*
X0147132Y0167081D02*
X0137484Y0167081D01*
X0137814Y0166282D02*
X0147132Y0166282D01*
X0147132Y0165484D02*
X0138145Y0165484D01*
X0138178Y0164685D02*
X0147132Y0164685D01*
X0146154Y0163887D02*
X0138178Y0163887D01*
X0137994Y0163088D02*
X0145367Y0163088D01*
X0145367Y0162290D02*
X0137663Y0162290D01*
X0137148Y0161491D02*
X0145367Y0161491D01*
X0145367Y0160693D02*
X0136350Y0160693D01*
X0134717Y0159894D02*
X0145367Y0159894D01*
X0145237Y0159096D02*
X0134589Y0159096D01*
X0136296Y0158297D02*
X0144527Y0158297D01*
X0143818Y0157498D02*
X0137095Y0157498D01*
X0137641Y0156700D02*
X0143108Y0156700D01*
X0142399Y0155901D02*
X0137972Y0155901D01*
X0138178Y0155103D02*
X0141689Y0155103D01*
X0140974Y0154304D02*
X0138178Y0154304D01*
X0138167Y0153506D02*
X0140444Y0153506D01*
X0140478Y0152707D02*
X0137836Y0152707D01*
X0137506Y0151909D02*
X0139828Y0151909D01*
X0139262Y0151110D02*
X0136767Y0151110D01*
X0135726Y0150312D02*
X0138931Y0150312D01*
X0138878Y0149513D02*
X0131262Y0149513D01*
X0131231Y0150312D02*
X0130463Y0150312D01*
X0130189Y0151110D02*
X0129665Y0151110D01*
X0129451Y0151909D02*
X0128866Y0151909D01*
X0129121Y0152707D02*
X0128068Y0152707D01*
X0128790Y0153506D02*
X0122590Y0153506D01*
X0122385Y0154304D02*
X0128778Y0154304D01*
X0126478Y0151468D02*
X0118825Y0151468D01*
X0121670Y0147916D02*
X0127202Y0147916D01*
X0126403Y0148715D02*
X0122468Y0148715D01*
X0126478Y0151468D02*
X0133478Y0144468D01*
X0136677Y0147916D02*
X0139225Y0147916D01*
X0138894Y0148715D02*
X0135508Y0148715D01*
X0137468Y0147118D02*
X0139738Y0147118D01*
X0140673Y0146319D02*
X0137799Y0146319D01*
X0142478Y0149468D02*
X0142478Y0152980D01*
X0149132Y0160468D01*
X0149132Y0174468D01*
X0149132Y0179122D01*
X0155825Y0185815D01*
X0155825Y0191468D01*
X0160478Y0191468D01*
X0168478Y0199468D01*
X0168478Y0213868D01*
X0161478Y0220868D01*
X0157447Y0226170D02*
X0145082Y0226170D01*
X0146026Y0225372D02*
X0156648Y0225372D01*
X0155869Y0224573D02*
X0146702Y0224573D01*
X0147190Y0223775D02*
X0155539Y0223775D01*
X0155208Y0222976D02*
X0147533Y0222976D01*
X0147753Y0222178D02*
X0154878Y0222178D01*
X0154878Y0221379D02*
X0147866Y0221379D01*
X0147791Y0219782D02*
X0154878Y0219782D01*
X0154878Y0220581D02*
X0141879Y0220581D01*
X0141878Y0219782D02*
X0141078Y0219782D01*
X0141078Y0218984D02*
X0141878Y0218984D01*
X0141878Y0218185D02*
X0141078Y0218185D01*
X0141078Y0217387D02*
X0141878Y0217387D01*
X0141878Y0216588D02*
X0141078Y0216588D01*
X0141078Y0215790D02*
X0141878Y0215790D01*
X0141878Y0214991D02*
X0141078Y0214991D01*
X0138943Y0214991D02*
X0131784Y0214991D01*
X0132582Y0214193D02*
X0165325Y0214193D01*
X0166124Y0213394D02*
X0133381Y0213394D01*
X0134179Y0212596D02*
X0166478Y0212596D01*
X0166478Y0211797D02*
X0134978Y0211797D01*
X0135478Y0210999D02*
X0166478Y0210999D01*
X0166478Y0210200D02*
X0135478Y0210200D01*
X0135478Y0209402D02*
X0166478Y0209402D01*
X0166478Y0208603D02*
X0165275Y0208603D01*
X0163878Y0208603D02*
X0163078Y0208603D01*
X0163078Y0208961D02*
X0163078Y0204868D01*
X0158986Y0204868D01*
X0159089Y0205522D01*
X0159308Y0206196D01*
X0159630Y0206827D01*
X0160046Y0207400D01*
X0160547Y0207901D01*
X0161120Y0208317D01*
X0161751Y0208638D01*
X0162425Y0208857D01*
X0163078Y0208961D01*
X0163078Y0207805D02*
X0163878Y0207805D01*
X0163878Y0207006D02*
X0163078Y0207006D01*
X0163078Y0206208D02*
X0163878Y0206208D01*
X0163878Y0205409D02*
X0163078Y0205409D01*
X0163078Y0204611D02*
X0158178Y0204611D01*
X0158178Y0205403D02*
X0157463Y0207131D01*
X0156141Y0208453D01*
X0154413Y0209168D01*
X0152544Y0209168D01*
X0150816Y0208453D01*
X0149494Y0207131D01*
X0148778Y0205403D01*
X0148778Y0203533D01*
X0149494Y0201806D01*
X0150816Y0200484D01*
X0152544Y0199768D01*
X0154413Y0199768D01*
X0156141Y0200484D01*
X0157463Y0201806D01*
X0158178Y0203533D01*
X0158178Y0205403D01*
X0158176Y0205409D02*
X0159071Y0205409D01*
X0159314Y0206208D02*
X0157845Y0206208D01*
X0157514Y0207006D02*
X0159760Y0207006D01*
X0160451Y0207805D02*
X0156789Y0207805D01*
X0155777Y0208603D02*
X0161682Y0208603D01*
X0163078Y0203812D02*
X0163878Y0203812D01*
X0163878Y0203014D02*
X0163078Y0203014D01*
X0163078Y0202215D02*
X0163878Y0202215D01*
X0163878Y0201417D02*
X0163078Y0201417D01*
X0163078Y0200618D02*
X0163878Y0200618D01*
X0165834Y0200618D02*
X0166478Y0200618D01*
X0166001Y0199820D02*
X0154537Y0199820D01*
X0156275Y0200618D02*
X0161123Y0200618D01*
X0160166Y0201417D02*
X0157074Y0201417D01*
X0157632Y0202215D02*
X0159576Y0202215D01*
X0159219Y0203014D02*
X0157963Y0203014D01*
X0158178Y0203812D02*
X0159026Y0203812D01*
X0152419Y0199820D02*
X0144537Y0199820D01*
X0144413Y0199768D02*
X0146141Y0200484D01*
X0147463Y0201806D01*
X0148178Y0203533D01*
X0148178Y0205403D01*
X0147463Y0207131D01*
X0146141Y0208453D01*
X0144413Y0209168D01*
X0142544Y0209168D01*
X0140816Y0208453D01*
X0139494Y0207131D01*
X0138778Y0205403D01*
X0138778Y0203533D01*
X0139494Y0201806D01*
X0140816Y0200484D01*
X0142544Y0199768D01*
X0144413Y0199768D01*
X0142419Y0199820D02*
X0134537Y0199820D01*
X0134413Y0199168D02*
X0132544Y0199168D01*
X0130816Y0198453D01*
X0129494Y0197131D01*
X0128778Y0195403D01*
X0128778Y0193533D01*
X0129494Y0191806D01*
X0130816Y0190484D01*
X0132544Y0189768D01*
X0134413Y0189768D01*
X0136141Y0190484D01*
X0137463Y0191806D01*
X0138178Y0193533D01*
X0138178Y0195403D01*
X0137463Y0197131D01*
X0136141Y0198453D01*
X0134413Y0199168D01*
X0134769Y0199021D02*
X0165203Y0199021D01*
X0164404Y0198223D02*
X0136371Y0198223D01*
X0137169Y0197424D02*
X0163606Y0197424D01*
X0162807Y0196626D02*
X0137672Y0196626D01*
X0138003Y0195827D02*
X0162009Y0195827D01*
X0161210Y0195029D02*
X0158661Y0195029D01*
X0159460Y0194230D02*
X0160412Y0194230D01*
X0162875Y0191036D02*
X0168367Y0191036D01*
X0168367Y0191834D02*
X0163673Y0191834D01*
X0164472Y0192633D02*
X0168367Y0192633D01*
X0168367Y0193431D02*
X0165270Y0193431D01*
X0166069Y0194230D02*
X0168497Y0194230D01*
X0169296Y0195029D02*
X0166867Y0195029D01*
X0167666Y0195827D02*
X0171478Y0195827D01*
X0171478Y0196626D02*
X0168464Y0196626D01*
X0169263Y0197424D02*
X0171478Y0197424D01*
X0171478Y0198223D02*
X0170061Y0198223D01*
X0170478Y0199021D02*
X0171478Y0199021D01*
X0171478Y0199820D02*
X0170478Y0199820D01*
X0170478Y0200618D02*
X0170682Y0200618D01*
X0173478Y0204468D02*
X0173478Y0193980D01*
X0172132Y0191468D01*
X0168367Y0190237D02*
X0162076Y0190237D01*
X0159590Y0189439D02*
X0168367Y0189439D01*
X0168563Y0188640D02*
X0159394Y0188640D01*
X0157825Y0187842D02*
X0176825Y0187842D01*
X0176825Y0187043D02*
X0157825Y0187043D01*
X0157825Y0186245D02*
X0176825Y0186245D01*
X0176825Y0185446D02*
X0157825Y0185446D01*
X0157487Y0184648D02*
X0176825Y0184648D01*
X0176825Y0183849D02*
X0156688Y0183849D01*
X0155890Y0183051D02*
X0176878Y0183051D01*
X0176878Y0182252D02*
X0155091Y0182252D01*
X0154293Y0181454D02*
X0177209Y0181454D01*
X0177700Y0180655D02*
X0153494Y0180655D01*
X0152695Y0179857D02*
X0178583Y0179857D01*
X0181156Y0179058D02*
X0151897Y0179058D01*
X0151132Y0178260D02*
X0181156Y0178260D01*
X0181156Y0177461D02*
X0171488Y0177461D01*
X0171960Y0176663D02*
X0181156Y0176663D01*
X0181156Y0175864D02*
X0171960Y0175864D01*
X0171960Y0175066D02*
X0181156Y0175066D01*
X0181156Y0174267D02*
X0171960Y0174267D01*
X0171960Y0173469D02*
X0181156Y0173469D01*
X0181156Y0172670D02*
X0171960Y0172670D01*
X0171960Y0171872D02*
X0181156Y0171872D01*
X0181156Y0171073D02*
X0171307Y0171073D01*
X0167801Y0174358D02*
X0167691Y0174468D01*
X0155825Y0174468D01*
X0158826Y0171073D02*
X0164296Y0171073D01*
X0163642Y0171872D02*
X0159590Y0171872D01*
X0159590Y0176663D02*
X0163642Y0176663D01*
X0164114Y0177461D02*
X0159228Y0177461D01*
X0152823Y0171073D02*
X0152134Y0171073D01*
X0151132Y0170275D02*
X0179172Y0170275D01*
X0178997Y0169476D02*
X0151132Y0169476D01*
X0151132Y0168678D02*
X0178997Y0168678D01*
X0178997Y0167879D02*
X0151132Y0167879D01*
X0151132Y0167081D02*
X0178997Y0167081D01*
X0178997Y0166282D02*
X0151132Y0166282D01*
X0151132Y0165484D02*
X0178997Y0165484D01*
X0179148Y0164685D02*
X0151132Y0164685D01*
X0152110Y0163887D02*
X0152847Y0163887D01*
X0148459Y0156700D02*
X0183478Y0156700D01*
X0183478Y0155901D02*
X0147750Y0155901D01*
X0147040Y0155103D02*
X0183478Y0155103D01*
X0183478Y0154304D02*
X0146331Y0154304D01*
X0145621Y0153506D02*
X0183478Y0153506D01*
X0183478Y0152707D02*
X0144912Y0152707D01*
X0145129Y0151909D02*
X0183478Y0151909D01*
X0183478Y0151110D02*
X0145695Y0151110D01*
X0155478Y0140122D02*
X0155478Y0139468D01*
X0148478Y0132468D01*
X0146478Y0130468D01*
X0146478Y0121815D01*
X0143332Y0118371D02*
X0136222Y0118371D01*
X0137021Y0117573D02*
X0142910Y0117573D01*
X0142910Y0116774D02*
X0137610Y0116774D01*
X0137941Y0115976D02*
X0142910Y0115976D01*
X0149132Y0125558D02*
X0149478Y0125558D01*
X0149478Y0126357D02*
X0148478Y0126357D01*
X0148478Y0127155D02*
X0149478Y0127155D01*
X0150135Y0127954D02*
X0148478Y0127954D01*
X0148478Y0128752D02*
X0150934Y0128752D01*
X0150652Y0129551D02*
X0151732Y0129551D01*
X0151451Y0130349D02*
X0152531Y0130349D01*
X0151828Y0131148D02*
X0153329Y0131148D01*
X0152078Y0131946D02*
X0174128Y0131946D01*
X0174926Y0132745D02*
X0152078Y0132745D01*
X0152382Y0133543D02*
X0175219Y0133543D01*
X0175219Y0134342D02*
X0153180Y0134342D01*
X0153979Y0135140D02*
X0175219Y0135140D01*
X0174202Y0135939D02*
X0172456Y0135939D01*
X0172713Y0136737D02*
X0174044Y0136737D01*
X0177219Y0138531D02*
X0177219Y0132208D01*
X0180478Y0127468D02*
X0185478Y0132468D01*
X0180478Y0127468D02*
X0158478Y0127468D01*
X0156478Y0125468D01*
X0156478Y0123012D01*
X0156589Y0122901D01*
X0163815Y0115976D02*
X0166040Y0115976D01*
X0164613Y0116774D02*
X0168456Y0116774D01*
X0169255Y0117573D02*
X0165412Y0117573D01*
X0164596Y0115177D02*
X0163016Y0115177D01*
X0162218Y0114379D02*
X0163873Y0114379D01*
X0163543Y0113580D02*
X0161419Y0113580D01*
X0160621Y0112782D02*
X0163378Y0112782D01*
X0164768Y0109588D02*
X0131187Y0109588D01*
X0131051Y0110386D02*
X0130389Y0110386D01*
X0130115Y0111185D02*
X0129590Y0111185D01*
X0129420Y0111983D02*
X0128792Y0111983D01*
X0129090Y0112782D02*
X0127993Y0112782D01*
X0128778Y0113580D02*
X0122590Y0113580D01*
X0122543Y0108789D02*
X0126329Y0108789D01*
X0127127Y0107991D02*
X0121744Y0107991D01*
X0115525Y0118371D02*
X0115432Y0118371D01*
X0108832Y0118371D02*
X0104478Y0118371D01*
X0104478Y0119170D02*
X0108367Y0119170D01*
X0106150Y0119968D02*
X0104478Y0119968D01*
X0104478Y0120767D02*
X0105351Y0120767D01*
X0104553Y0121565D02*
X0104478Y0121565D01*
X0107016Y0124760D02*
X0109027Y0124760D01*
X0108367Y0123961D02*
X0107814Y0123961D01*
X0106217Y0125558D02*
X0128843Y0125558D01*
X0128778Y0124760D02*
X0121930Y0124760D01*
X0122590Y0123961D02*
X0128778Y0123961D01*
X0128932Y0123162D02*
X0127613Y0123162D01*
X0128411Y0122364D02*
X0129263Y0122364D01*
X0129210Y0121565D02*
X0129734Y0121565D01*
X0133478Y0124468D02*
X0126478Y0131468D01*
X0118825Y0131468D01*
X0122505Y0128752D02*
X0126366Y0128752D01*
X0127165Y0127954D02*
X0121707Y0127954D01*
X0127963Y0127155D02*
X0104620Y0127155D01*
X0105419Y0126357D02*
X0128762Y0126357D01*
X0135816Y0130349D02*
X0144478Y0130349D01*
X0144478Y0131148D02*
X0136805Y0131148D01*
X0137521Y0131946D02*
X0144878Y0131946D01*
X0144878Y0132745D02*
X0137852Y0132745D01*
X0138178Y0133543D02*
X0145027Y0133543D01*
X0145358Y0134342D02*
X0138178Y0134342D01*
X0138178Y0135140D02*
X0146059Y0135140D01*
X0147450Y0135939D02*
X0137957Y0135939D01*
X0137626Y0136737D02*
X0149919Y0136737D01*
X0154777Y0135939D02*
X0167021Y0135939D01*
X0169351Y0135939D02*
X0170126Y0135939D01*
X0170126Y0136737D02*
X0169351Y0136737D01*
X0169351Y0137536D02*
X0170126Y0137536D01*
X0171512Y0157498D02*
X0183680Y0157498D01*
X0184479Y0158297D02*
X0171960Y0158297D01*
X0171960Y0159096D02*
X0185277Y0159096D01*
X0186076Y0159894D02*
X0171960Y0159894D01*
X0171960Y0160693D02*
X0186874Y0160693D01*
X0187673Y0161491D02*
X0171960Y0161491D01*
X0171960Y0162290D02*
X0188471Y0162290D01*
X0188963Y0163088D02*
X0171960Y0163088D01*
X0183156Y0167468D02*
X0183156Y0180291D01*
X0180478Y0182968D01*
X0178825Y0184622D01*
X0178825Y0191468D01*
X0178478Y0192980D01*
X0178478Y0217868D01*
X0181478Y0220868D01*
X0185510Y0226170D02*
X0210792Y0226170D01*
X0210792Y0225372D02*
X0186309Y0225372D01*
X0187087Y0224573D02*
X0210792Y0224573D01*
X0210792Y0223775D02*
X0187418Y0223775D01*
X0187749Y0222976D02*
X0210792Y0222976D01*
X0210792Y0222178D02*
X0188078Y0222178D01*
X0188078Y0221379D02*
X0210792Y0221379D01*
X0210792Y0220581D02*
X0188078Y0220581D01*
X0188078Y0219782D02*
X0210792Y0219782D01*
X0210792Y0218984D02*
X0187842Y0218984D01*
X0187511Y0218185D02*
X0210792Y0218185D01*
X0210792Y0217387D02*
X0187180Y0217387D01*
X0186532Y0216588D02*
X0210792Y0216588D01*
X0210792Y0215790D02*
X0185734Y0215790D01*
X0184537Y0214991D02*
X0210792Y0214991D01*
X0210792Y0214193D02*
X0180478Y0214193D01*
X0180478Y0213394D02*
X0210792Y0213394D01*
X0210792Y0212596D02*
X0180478Y0212596D01*
X0180478Y0211797D02*
X0210792Y0211797D01*
X0210792Y0210999D02*
X0180478Y0210999D01*
X0180478Y0210200D02*
X0210792Y0210200D01*
X0210792Y0209402D02*
X0180478Y0209402D01*
X0180478Y0208603D02*
X0181180Y0208603D01*
X0176478Y0208603D02*
X0175777Y0208603D01*
X0176478Y0209402D02*
X0170478Y0209402D01*
X0170478Y0210200D02*
X0176478Y0210200D01*
X0176478Y0210999D02*
X0170478Y0210999D01*
X0170478Y0211797D02*
X0176478Y0211797D01*
X0176478Y0212596D02*
X0170478Y0212596D01*
X0170478Y0213394D02*
X0176478Y0213394D01*
X0176478Y0214193D02*
X0170478Y0214193D01*
X0170184Y0214991D02*
X0176478Y0214991D01*
X0176478Y0215790D02*
X0169385Y0215790D01*
X0168587Y0216588D02*
X0176425Y0216588D01*
X0175777Y0217387D02*
X0167788Y0217387D01*
X0167511Y0218185D02*
X0175446Y0218185D01*
X0175115Y0218984D02*
X0167842Y0218984D01*
X0168078Y0219782D02*
X0174878Y0219782D01*
X0174878Y0220581D02*
X0168078Y0220581D01*
X0168078Y0221379D02*
X0174878Y0221379D01*
X0174878Y0222178D02*
X0168078Y0222178D01*
X0167749Y0222976D02*
X0175208Y0222976D01*
X0175539Y0223775D02*
X0167418Y0223775D01*
X0167087Y0224573D02*
X0175869Y0224573D01*
X0176648Y0225372D02*
X0166309Y0225372D01*
X0165510Y0226170D02*
X0177447Y0226170D01*
X0178960Y0226969D02*
X0163996Y0226969D01*
X0158960Y0226969D02*
X0143438Y0226969D01*
X0137875Y0226170D02*
X0121039Y0226170D01*
X0121931Y0225372D02*
X0136931Y0225372D01*
X0136255Y0224573D02*
X0122456Y0224573D01*
X0122785Y0223775D02*
X0135767Y0223775D01*
X0135424Y0222976D02*
X0122954Y0222976D01*
X0122089Y0219782D02*
X0135166Y0219782D01*
X0135358Y0218984D02*
X0127791Y0218984D01*
X0128590Y0218185D02*
X0135662Y0218185D01*
X0136098Y0217387D02*
X0129388Y0217387D01*
X0130187Y0216588D02*
X0136707Y0216588D01*
X0137584Y0215790D02*
X0130985Y0215790D01*
X0128522Y0212596D02*
X0123178Y0212596D01*
X0123178Y0213394D02*
X0127724Y0213394D01*
X0126925Y0214193D02*
X0122851Y0214193D01*
X0122521Y0214991D02*
X0126127Y0214991D01*
X0126478Y0217468D02*
X0098478Y0217468D01*
X0098830Y0214991D02*
X0114436Y0214991D01*
X0114106Y0214193D02*
X0098031Y0214193D01*
X0097233Y0213394D02*
X0113778Y0213394D01*
X0113778Y0212596D02*
X0096434Y0212596D01*
X0095636Y0211797D02*
X0113778Y0211797D01*
X0114000Y0210999D02*
X0094837Y0210999D01*
X0094039Y0210200D02*
X0114331Y0210200D01*
X0114898Y0209402D02*
X0093240Y0209402D01*
X0093078Y0208603D02*
X0115678Y0208603D01*
X0115678Y0207805D02*
X0093078Y0207805D01*
X0092769Y0207006D02*
X0115678Y0207006D01*
X0115571Y0206208D02*
X0092309Y0206208D01*
X0091501Y0205409D02*
X0114773Y0205409D01*
X0114279Y0204611D02*
X0069164Y0204611D01*
X0069478Y0203812D02*
X0113948Y0203812D01*
X0113778Y0203014D02*
X0069478Y0203014D01*
X0069478Y0202215D02*
X0113778Y0202215D01*
X0113827Y0201417D02*
X0108793Y0201417D01*
X0109078Y0201131D02*
X0108141Y0202068D01*
X0076816Y0202068D01*
X0075878Y0201131D01*
X0075878Y0190905D01*
X0076816Y0189968D01*
X0108141Y0189968D01*
X0109078Y0190905D01*
X0109078Y0201131D01*
X0109078Y0200618D02*
X0114158Y0200618D01*
X0114488Y0199820D02*
X0109078Y0199820D01*
X0109078Y0199021D02*
X0115279Y0199021D01*
X0116447Y0198223D02*
X0109078Y0198223D01*
X0109078Y0197424D02*
X0129788Y0197424D01*
X0129285Y0196626D02*
X0120231Y0196626D01*
X0120206Y0196638D02*
X0119532Y0196857D01*
X0118878Y0196961D01*
X0118878Y0192868D01*
X0118078Y0192868D01*
X0118078Y0192068D01*
X0113986Y0192068D01*
X0114089Y0191414D01*
X0114308Y0190741D01*
X0114630Y0190110D01*
X0115046Y0189537D01*
X0115547Y0189036D01*
X0116120Y0188619D01*
X0116751Y0188298D01*
X0117425Y0188079D01*
X0118078Y0187975D01*
X0118078Y0192068D01*
X0118878Y0192068D01*
X0118878Y0187975D01*
X0119532Y0188079D01*
X0120206Y0188298D01*
X0120837Y0188619D01*
X0121410Y0189036D01*
X0121911Y0189537D01*
X0122327Y0190110D01*
X0122649Y0190741D01*
X0122868Y0191414D01*
X0122971Y0192068D01*
X0118879Y0192068D01*
X0118879Y0192868D01*
X0122971Y0192868D01*
X0122868Y0193522D01*
X0122649Y0194196D01*
X0122327Y0194827D01*
X0121911Y0195400D01*
X0121410Y0195901D01*
X0120837Y0196317D01*
X0120206Y0196638D01*
X0118878Y0196626D02*
X0118078Y0196626D01*
X0118078Y0196961D02*
X0117425Y0196857D01*
X0116751Y0196638D01*
X0116120Y0196317D01*
X0115547Y0195901D01*
X0115046Y0195400D01*
X0114630Y0194827D01*
X0114308Y0194196D01*
X0114089Y0193522D01*
X0113986Y0192868D01*
X0118078Y0192868D01*
X0118078Y0196961D01*
X0118078Y0195827D02*
X0118878Y0195827D01*
X0118878Y0195029D02*
X0118078Y0195029D01*
X0118078Y0194230D02*
X0118878Y0194230D01*
X0118878Y0193431D02*
X0118078Y0193431D01*
X0118078Y0192633D02*
X0109078Y0192633D01*
X0109078Y0193431D02*
X0114075Y0193431D01*
X0114326Y0194230D02*
X0109078Y0194230D01*
X0109078Y0195029D02*
X0114776Y0195029D01*
X0115473Y0195827D02*
X0109078Y0195827D01*
X0109078Y0196626D02*
X0116726Y0196626D01*
X0120510Y0198223D02*
X0130586Y0198223D01*
X0132188Y0199021D02*
X0121678Y0199021D01*
X0122469Y0199820D02*
X0132419Y0199820D01*
X0130682Y0200618D02*
X0122799Y0200618D01*
X0123130Y0201417D02*
X0129883Y0201417D01*
X0129324Y0202215D02*
X0123178Y0202215D01*
X0123178Y0203014D02*
X0128994Y0203014D01*
X0128778Y0203812D02*
X0123009Y0203812D01*
X0122678Y0204611D02*
X0128778Y0204611D01*
X0128781Y0205409D02*
X0122184Y0205409D01*
X0121386Y0206208D02*
X0129112Y0206208D01*
X0129442Y0207006D02*
X0121278Y0207006D01*
X0121278Y0207805D02*
X0130168Y0207805D01*
X0131180Y0208603D02*
X0121278Y0208603D01*
X0122059Y0209402D02*
X0131478Y0209402D01*
X0130918Y0210200D02*
X0122626Y0210200D01*
X0122957Y0210999D02*
X0130119Y0210999D01*
X0129321Y0211797D02*
X0123178Y0211797D01*
X0126478Y0217468D02*
X0133478Y0210468D01*
X0133478Y0204468D01*
X0136789Y0207805D02*
X0140168Y0207805D01*
X0139442Y0207006D02*
X0137514Y0207006D01*
X0137845Y0206208D02*
X0139112Y0206208D01*
X0138781Y0205409D02*
X0138176Y0205409D01*
X0138178Y0204611D02*
X0138778Y0204611D01*
X0138778Y0203812D02*
X0138178Y0203812D01*
X0137963Y0203014D02*
X0138994Y0203014D01*
X0139324Y0202215D02*
X0137632Y0202215D01*
X0137074Y0201417D02*
X0139883Y0201417D01*
X0140682Y0200618D02*
X0136275Y0200618D01*
X0138178Y0195029D02*
X0152989Y0195029D01*
X0149532Y0194230D02*
X0148732Y0194230D01*
X0148732Y0194837D02*
X0146782Y0194837D01*
X0146426Y0194741D01*
X0146107Y0194557D01*
X0145846Y0194296D01*
X0145662Y0193977D01*
X0145567Y0193621D01*
X0145567Y0191868D01*
X0148732Y0191868D01*
X0148732Y0194837D01*
X0148732Y0193431D02*
X0149532Y0193431D01*
X0149532Y0192633D02*
X0148732Y0192633D01*
X0148732Y0191834D02*
X0137475Y0191834D01*
X0137806Y0192633D02*
X0145567Y0192633D01*
X0145567Y0193431D02*
X0138136Y0193431D01*
X0138178Y0194230D02*
X0145808Y0194230D01*
X0145567Y0191068D02*
X0145567Y0189315D01*
X0145662Y0188959D01*
X0145846Y0188640D01*
X0146107Y0188379D01*
X0146426Y0188195D01*
X0146782Y0188100D01*
X0148732Y0188100D01*
X0148732Y0191068D01*
X0145567Y0191068D01*
X0145567Y0191036D02*
X0136693Y0191036D01*
X0135546Y0190237D02*
X0145567Y0190237D01*
X0145567Y0189439D02*
X0121813Y0189439D01*
X0122392Y0190237D02*
X0131411Y0190237D01*
X0130264Y0191036D02*
X0122745Y0191036D01*
X0122934Y0191834D02*
X0129482Y0191834D01*
X0129151Y0192633D02*
X0118879Y0192633D01*
X0118878Y0191834D02*
X0118078Y0191834D01*
X0118078Y0191036D02*
X0118878Y0191036D01*
X0118878Y0190237D02*
X0118078Y0190237D01*
X0118078Y0189439D02*
X0118878Y0189439D01*
X0118878Y0188640D02*
X0118078Y0188640D01*
X0117544Y0187168D02*
X0115816Y0186453D01*
X0114494Y0185131D01*
X0113778Y0183403D01*
X0113778Y0181533D01*
X0114494Y0179806D01*
X0115816Y0178484D01*
X0117544Y0177768D01*
X0119413Y0177768D01*
X0121141Y0178484D01*
X0122463Y0179806D01*
X0123178Y0181533D01*
X0123178Y0183403D01*
X0122463Y0185131D01*
X0121141Y0186453D01*
X0119413Y0187168D01*
X0117544Y0187168D01*
X0117242Y0187043D02*
X0069478Y0187043D01*
X0069478Y0186245D02*
X0115608Y0186245D01*
X0114810Y0185446D02*
X0069478Y0185446D01*
X0069478Y0184648D02*
X0114294Y0184648D01*
X0113963Y0183849D02*
X0069478Y0183849D01*
X0069478Y0183051D02*
X0113778Y0183051D01*
X0113778Y0182252D02*
X0069478Y0182252D01*
X0069478Y0181454D02*
X0113811Y0181454D01*
X0114142Y0180655D02*
X0069478Y0180655D01*
X0069918Y0179857D02*
X0114473Y0179857D01*
X0115242Y0179058D02*
X0070717Y0179058D01*
X0071515Y0178260D02*
X0116357Y0178260D01*
X0120600Y0178260D02*
X0130623Y0178260D01*
X0132278Y0179058D02*
X0121715Y0179058D01*
X0122484Y0179857D02*
X0132330Y0179857D01*
X0132544Y0179768D02*
X0134413Y0179768D01*
X0136141Y0180484D01*
X0137463Y0181806D01*
X0138178Y0183533D01*
X0138178Y0185403D01*
X0137463Y0187131D01*
X0136141Y0188453D01*
X0134413Y0189168D01*
X0132544Y0189168D01*
X0130816Y0188453D01*
X0129494Y0187131D01*
X0128778Y0185403D01*
X0128778Y0183533D01*
X0129494Y0181806D01*
X0130816Y0180484D01*
X0132544Y0179768D01*
X0134627Y0179857D02*
X0147132Y0179857D01*
X0147132Y0179058D02*
X0134679Y0179058D01*
X0136334Y0178260D02*
X0147132Y0178260D01*
X0145728Y0177461D02*
X0137132Y0177461D01*
X0137657Y0176663D02*
X0145367Y0176663D01*
X0145367Y0175864D02*
X0137987Y0175864D01*
X0138178Y0175066D02*
X0145367Y0175066D01*
X0145367Y0174267D02*
X0138178Y0174267D01*
X0138152Y0173469D02*
X0145367Y0173469D01*
X0145367Y0172670D02*
X0137821Y0172670D01*
X0137490Y0171872D02*
X0145367Y0171872D01*
X0146130Y0171073D02*
X0136730Y0171073D01*
X0135636Y0170275D02*
X0147132Y0170275D01*
X0147837Y0180655D02*
X0136312Y0180655D01*
X0137111Y0181454D02*
X0148636Y0181454D01*
X0149434Y0182252D02*
X0137648Y0182252D01*
X0137979Y0183051D02*
X0150233Y0183051D01*
X0151031Y0183849D02*
X0138178Y0183849D01*
X0138178Y0184648D02*
X0151830Y0184648D01*
X0152628Y0185446D02*
X0138161Y0185446D01*
X0137830Y0186245D02*
X0153427Y0186245D01*
X0153825Y0187043D02*
X0137499Y0187043D01*
X0136752Y0187842D02*
X0153825Y0187842D01*
X0149532Y0188640D02*
X0148732Y0188640D01*
X0148732Y0189439D02*
X0149532Y0189439D01*
X0149532Y0190237D02*
X0148732Y0190237D01*
X0148732Y0191036D02*
X0149532Y0191036D01*
X0145846Y0188640D02*
X0135687Y0188640D01*
X0131269Y0188640D02*
X0120866Y0188640D01*
X0119715Y0187043D02*
X0129458Y0187043D01*
X0129127Y0186245D02*
X0121349Y0186245D01*
X0122147Y0185446D02*
X0128796Y0185446D01*
X0128778Y0184648D02*
X0122663Y0184648D01*
X0122994Y0183849D02*
X0128778Y0183849D01*
X0128978Y0183051D02*
X0123178Y0183051D01*
X0123178Y0182252D02*
X0129309Y0182252D01*
X0129846Y0181454D02*
X0123146Y0181454D01*
X0122815Y0180655D02*
X0130645Y0180655D01*
X0130205Y0187842D02*
X0069478Y0187842D01*
X0069478Y0188640D02*
X0116091Y0188640D01*
X0115144Y0189439D02*
X0069478Y0189439D01*
X0069478Y0190237D02*
X0076546Y0190237D01*
X0075878Y0191036D02*
X0069478Y0191036D01*
X0069478Y0191834D02*
X0075878Y0191834D01*
X0075878Y0192633D02*
X0069478Y0192633D01*
X0069478Y0193431D02*
X0075878Y0193431D01*
X0075878Y0194230D02*
X0069478Y0194230D01*
X0069478Y0195029D02*
X0075878Y0195029D01*
X0075878Y0195827D02*
X0069478Y0195827D01*
X0069478Y0196626D02*
X0075878Y0196626D01*
X0075878Y0197424D02*
X0069478Y0197424D01*
X0069478Y0198223D02*
X0075878Y0198223D01*
X0075878Y0199021D02*
X0069478Y0199021D01*
X0069478Y0199820D02*
X0075878Y0199820D01*
X0075878Y0200618D02*
X0069478Y0200618D01*
X0069478Y0201417D02*
X0076164Y0201417D01*
X0068366Y0205409D02*
X0087456Y0205409D01*
X0086648Y0206208D02*
X0067567Y0206208D01*
X0066769Y0207006D02*
X0086187Y0207006D01*
X0085878Y0207805D02*
X0065970Y0207805D01*
X0064306Y0203812D02*
X0061129Y0203812D01*
X0060330Y0203014D02*
X0065105Y0203014D01*
X0061500Y0208603D02*
X0085878Y0208603D01*
X0085969Y0209402D02*
X0060851Y0209402D01*
X0055429Y0199820D02*
X0052730Y0199820D01*
X0054024Y0199021D02*
X0054630Y0199021D01*
X0048028Y0199021D02*
X0041678Y0199021D01*
X0040510Y0198223D02*
X0047688Y0198223D01*
X0050626Y0189439D02*
X0051426Y0189439D01*
X0051426Y0188640D02*
X0050626Y0188640D01*
X0050626Y0187842D02*
X0051426Y0187842D01*
X0051426Y0187043D02*
X0050626Y0187043D01*
X0047657Y0185446D02*
X0042147Y0185446D01*
X0042663Y0184648D02*
X0047705Y0184648D01*
X0048074Y0183849D02*
X0042994Y0183849D01*
X0042484Y0179857D02*
X0055466Y0179857D01*
X0054668Y0179058D02*
X0054002Y0179058D01*
X0054354Y0178260D02*
X0054363Y0178260D01*
X0051426Y0175864D02*
X0050626Y0175864D01*
X0050626Y0175066D02*
X0051426Y0175066D01*
X0051426Y0174267D02*
X0050626Y0174267D01*
X0050626Y0173469D02*
X0051426Y0173469D01*
X0053576Y0173469D02*
X0055077Y0173469D01*
X0054363Y0174267D02*
X0054227Y0174267D01*
X0057931Y0176468D02*
X0061478Y0176468D01*
X0061650Y0173469D02*
X0060786Y0173469D01*
X0060777Y0169476D02*
X0062478Y0169476D01*
X0062478Y0168678D02*
X0061500Y0168678D01*
X0061896Y0167879D02*
X0062478Y0167879D01*
X0062478Y0167297D02*
X0062478Y0167297D01*
X0036447Y0198223D02*
X0021078Y0198223D01*
X0021078Y0199021D02*
X0035279Y0199021D01*
X0034488Y0199820D02*
X0021078Y0199820D01*
X0021078Y0200618D02*
X0034158Y0200618D01*
X0033827Y0201417D02*
X0021078Y0201417D01*
X0021078Y0202215D02*
X0033778Y0202215D01*
X0033778Y0203014D02*
X0021078Y0203014D01*
X0021078Y0203812D02*
X0033948Y0203812D01*
X0034279Y0204611D02*
X0021078Y0204611D01*
X0021078Y0205409D02*
X0034773Y0205409D01*
X0035571Y0206208D02*
X0021078Y0206208D01*
X0021078Y0207006D02*
X0037152Y0207006D01*
X0034307Y0214193D02*
X0021078Y0214193D01*
X0021078Y0214991D02*
X0034749Y0214991D01*
X0035436Y0215790D02*
X0021078Y0215790D01*
X0021078Y0216588D02*
X0036653Y0216588D01*
X0033978Y0223775D02*
X0021078Y0223775D01*
X0021078Y0224573D02*
X0033978Y0224573D01*
X0033978Y0225372D02*
X0021078Y0225372D01*
X0021078Y0226170D02*
X0034110Y0226170D01*
X0108410Y0190237D02*
X0114565Y0190237D01*
X0114212Y0191036D02*
X0109078Y0191036D01*
X0109078Y0191834D02*
X0114023Y0191834D01*
X0121484Y0195827D02*
X0128954Y0195827D01*
X0128778Y0195029D02*
X0122181Y0195029D01*
X0122631Y0194230D02*
X0128778Y0194230D01*
X0128821Y0193431D02*
X0122882Y0193431D01*
X0135777Y0208603D02*
X0141180Y0208603D01*
X0145777Y0208603D02*
X0151180Y0208603D01*
X0150168Y0207805D02*
X0146789Y0207805D01*
X0147514Y0207006D02*
X0149442Y0207006D01*
X0149112Y0206208D02*
X0147845Y0206208D01*
X0148176Y0205409D02*
X0148781Y0205409D01*
X0148778Y0204611D02*
X0148178Y0204611D01*
X0148178Y0203812D02*
X0148778Y0203812D01*
X0148994Y0203014D02*
X0147963Y0203014D01*
X0147632Y0202215D02*
X0149324Y0202215D01*
X0149883Y0201417D02*
X0147074Y0201417D01*
X0146275Y0200618D02*
X0150682Y0200618D01*
X0144014Y0214991D02*
X0158420Y0214991D01*
X0157223Y0215790D02*
X0145373Y0215790D01*
X0146250Y0216588D02*
X0156425Y0216588D01*
X0155777Y0217387D02*
X0146859Y0217387D01*
X0147294Y0218185D02*
X0155446Y0218185D01*
X0155115Y0218984D02*
X0147599Y0218984D01*
X0170478Y0208603D02*
X0171180Y0208603D01*
X0182394Y0188640D02*
X0191269Y0188640D01*
X0190205Y0187842D02*
X0180825Y0187842D01*
X0180825Y0187043D02*
X0189458Y0187043D01*
X0189127Y0186245D02*
X0181975Y0186245D01*
X0183091Y0185446D02*
X0188796Y0185446D01*
X0188778Y0184648D02*
X0183679Y0184648D01*
X0184010Y0183849D02*
X0188778Y0183849D01*
X0188978Y0183051D02*
X0184078Y0183051D01*
X0184078Y0182252D02*
X0189309Y0182252D01*
X0189846Y0181454D02*
X0184821Y0181454D01*
X0185156Y0180655D02*
X0190645Y0180655D01*
X0191733Y0159894D02*
X0192240Y0159894D01*
X0195418Y0128752D02*
X0210792Y0128752D01*
X0210792Y0127954D02*
X0196640Y0127954D01*
X0197438Y0127155D02*
X0210792Y0127155D01*
X0210792Y0126357D02*
X0197784Y0126357D01*
X0198114Y0125558D02*
X0210792Y0125558D01*
X0210792Y0124760D02*
X0198178Y0124760D01*
X0198178Y0123961D02*
X0210792Y0123961D01*
X0210792Y0123162D02*
X0198025Y0123162D01*
X0197694Y0122364D02*
X0210792Y0122364D01*
X0210792Y0121565D02*
X0197223Y0121565D01*
X0196424Y0120767D02*
X0210792Y0120767D01*
X0210792Y0108789D02*
X0195328Y0108789D01*
X0196603Y0107991D02*
X0210792Y0107991D01*
X0210792Y0107192D02*
X0197401Y0107192D01*
X0197768Y0106394D02*
X0210792Y0106394D01*
X0210792Y0105595D02*
X0198099Y0105595D01*
X0198178Y0104797D02*
X0210792Y0104797D01*
X0210792Y0103998D02*
X0198178Y0103998D01*
X0198040Y0103200D02*
X0210792Y0103200D01*
X0210792Y0102401D02*
X0197710Y0102401D01*
X0197260Y0101603D02*
X0210792Y0101603D01*
X0210792Y0100804D02*
X0196461Y0100804D01*
X0194987Y0100006D02*
X0210792Y0100006D01*
X0210792Y0088028D02*
X0196565Y0088028D01*
X0197364Y0087229D02*
X0210792Y0087229D01*
X0210792Y0086431D02*
X0197753Y0086431D01*
X0198083Y0085632D02*
X0210792Y0085632D01*
X0210792Y0084834D02*
X0198178Y0084834D01*
X0198178Y0084035D02*
X0210792Y0084035D01*
X0210792Y0083237D02*
X0198056Y0083237D01*
X0197725Y0082438D02*
X0210792Y0082438D01*
X0210792Y0081640D02*
X0197297Y0081640D01*
X0196498Y0080841D02*
X0210792Y0080841D01*
X0210792Y0080043D02*
X0195077Y0080043D01*
X0194532Y0078857D02*
X0193878Y0078961D01*
X0193878Y0074868D01*
X0193078Y0074868D01*
X0193078Y0074068D01*
X0188986Y0074068D01*
X0189089Y0073414D01*
X0189308Y0072741D01*
X0189630Y0072110D01*
X0190046Y0071537D01*
X0190547Y0071036D01*
X0191120Y0070619D01*
X0191751Y0070298D01*
X0192425Y0070079D01*
X0193078Y0069975D01*
X0193078Y0074068D01*
X0193878Y0074068D01*
X0193878Y0069975D01*
X0194532Y0070079D01*
X0195206Y0070298D01*
X0195837Y0070619D01*
X0196410Y0071036D01*
X0196911Y0071537D01*
X0197327Y0072110D01*
X0197649Y0072741D01*
X0197868Y0073414D01*
X0197971Y0074068D01*
X0193879Y0074068D01*
X0193879Y0074868D01*
X0197971Y0074868D01*
X0197868Y0075522D01*
X0197649Y0076196D01*
X0197327Y0076827D01*
X0196911Y0077400D01*
X0196410Y0077901D01*
X0195837Y0078317D01*
X0195206Y0078638D01*
X0194532Y0078857D01*
X0193878Y0078446D02*
X0193078Y0078446D01*
X0193078Y0078961D02*
X0192425Y0078857D01*
X0191751Y0078638D01*
X0191120Y0078317D01*
X0190547Y0077901D01*
X0190046Y0077400D01*
X0189630Y0076827D01*
X0189308Y0076196D01*
X0189089Y0075522D01*
X0188986Y0074868D01*
X0193078Y0074868D01*
X0193078Y0078961D01*
X0193078Y0077647D02*
X0193878Y0077647D01*
X0193878Y0076849D02*
X0193078Y0076849D01*
X0193078Y0076050D02*
X0193878Y0076050D01*
X0193878Y0075252D02*
X0193078Y0075252D01*
X0193078Y0074453D02*
X0166967Y0074453D01*
X0167078Y0073655D02*
X0189051Y0073655D01*
X0189271Y0072856D02*
X0167078Y0072856D01*
X0166791Y0072058D02*
X0189667Y0072058D01*
X0190323Y0071259D02*
X0166361Y0071259D01*
X0165562Y0070461D02*
X0191431Y0070461D01*
X0193078Y0070461D02*
X0193878Y0070461D01*
X0193878Y0071259D02*
X0193078Y0071259D01*
X0193078Y0072058D02*
X0193878Y0072058D01*
X0193878Y0072856D02*
X0193078Y0072856D01*
X0193078Y0073655D02*
X0193878Y0073655D01*
X0193879Y0074453D02*
X0210792Y0074453D01*
X0210792Y0073655D02*
X0197906Y0073655D01*
X0197686Y0072856D02*
X0210792Y0072856D01*
X0210792Y0072058D02*
X0197289Y0072058D01*
X0196633Y0071259D02*
X0210792Y0071259D01*
X0210792Y0070461D02*
X0195525Y0070461D01*
X0197910Y0075252D02*
X0210792Y0075252D01*
X0210792Y0076050D02*
X0197696Y0076050D01*
X0197311Y0076849D02*
X0210792Y0076849D01*
X0210792Y0077647D02*
X0196663Y0077647D01*
X0195584Y0078446D02*
X0210792Y0078446D01*
X0210792Y0079244D02*
X0185083Y0079244D01*
X0184285Y0078446D02*
X0191373Y0078446D01*
X0190294Y0077647D02*
X0183486Y0077647D01*
X0182688Y0076849D02*
X0189646Y0076849D01*
X0189261Y0076050D02*
X0181367Y0076050D01*
X0180569Y0075252D02*
X0189046Y0075252D01*
X0191880Y0080043D02*
X0185882Y0080043D01*
X0186478Y0080841D02*
X0190458Y0080841D01*
X0189660Y0081640D02*
X0186478Y0081640D01*
X0186478Y0082438D02*
X0189232Y0082438D01*
X0188901Y0083237D02*
X0186478Y0083237D01*
X0186478Y0084035D02*
X0188778Y0084035D01*
X0188778Y0084834D02*
X0186478Y0084834D01*
X0186478Y0085632D02*
X0188873Y0085632D01*
X0189204Y0086431D02*
X0186478Y0086431D01*
X0186478Y0087229D02*
X0189593Y0087229D01*
X0190391Y0088028D02*
X0186478Y0088028D01*
X0182478Y0084035D02*
X0137966Y0084035D01*
X0137810Y0083237D02*
X0182478Y0083237D01*
X0182478Y0082438D02*
X0137495Y0082438D01*
X0137595Y0096812D02*
X0159993Y0096812D01*
X0160792Y0097610D02*
X0136983Y0097610D01*
X0158613Y0081640D02*
X0168774Y0081640D01*
X0167924Y0080841D02*
X0159412Y0080841D01*
X0165128Y0077647D02*
X0167657Y0077647D01*
X0167657Y0078068D02*
X0167657Y0076828D01*
X0167793Y0076322D01*
X0168055Y0075868D01*
X0168426Y0075497D01*
X0168879Y0075235D01*
X0169386Y0075100D01*
X0170626Y0075100D01*
X0170626Y0078068D01*
X0167657Y0078068D01*
X0167657Y0076849D02*
X0165478Y0076849D01*
X0165987Y0076050D02*
X0167950Y0076050D01*
X0168851Y0075252D02*
X0166636Y0075252D01*
X0170626Y0075252D02*
X0171426Y0075252D01*
X0171426Y0076050D02*
X0170626Y0076050D01*
X0170626Y0076849D02*
X0171426Y0076849D01*
X0171426Y0077647D02*
X0170626Y0077647D01*
X0173201Y0075252D02*
X0175294Y0075252D01*
X0174495Y0076050D02*
X0174102Y0076050D01*
X0171426Y0081640D02*
X0170626Y0081640D01*
X0180613Y0081640D02*
X0181822Y0081640D01*
X0181648Y0099207D02*
X0173937Y0099207D01*
X0177045Y0102035D02*
X0170368Y0102035D01*
X0177045Y0102035D02*
X0179478Y0104468D01*
X0179478Y0109122D01*
X0183047Y0108789D02*
X0191629Y0108789D01*
X0190354Y0107991D02*
X0183047Y0107991D01*
X0183047Y0107192D02*
X0189556Y0107192D01*
X0189189Y0106394D02*
X0183047Y0106394D01*
X0179132Y0115468D02*
X0179478Y0115815D01*
X0160315Y0098409D02*
X0159753Y0098409D01*
X0109250Y0127954D02*
X0103821Y0127954D01*
X0103023Y0128752D02*
X0108452Y0128752D01*
X0108646Y0114379D02*
X0105396Y0114379D01*
X0106195Y0113580D02*
X0108367Y0113580D01*
X0119681Y0167879D02*
X0130243Y0167879D01*
X0131359Y0168678D02*
X0121335Y0168678D01*
X0118878Y0223775D02*
X0118078Y0223775D01*
X0118078Y0224573D02*
X0118878Y0224573D01*
X0118878Y0225372D02*
X0118078Y0225372D01*
X0118078Y0226170D02*
X0118878Y0226170D01*
X0183996Y0226969D02*
X0210792Y0226969D01*
X0060443Y0082438D02*
X0048842Y0082438D01*
X0049641Y0081640D02*
X0059613Y0081640D01*
X0059036Y0080841D02*
X0050225Y0080841D01*
X0050556Y0080043D02*
X0058618Y0080043D01*
X0058329Y0079244D02*
X0050887Y0079244D01*
X0051078Y0078446D02*
X0058152Y0078446D01*
X0054878Y0091222D02*
X0054078Y0091222D01*
X0054078Y0092021D02*
X0054878Y0092021D01*
X0054878Y0092819D02*
X0054078Y0092819D01*
X0054078Y0093618D02*
X0054878Y0093618D01*
X0054878Y0094416D02*
X0054078Y0094416D01*
X0054078Y0096013D02*
X0054878Y0096013D01*
X0054878Y0096812D02*
X0054078Y0096812D01*
X0054078Y0097610D02*
X0054878Y0097610D01*
X0054878Y0098409D02*
X0054078Y0098409D01*
X0054078Y0099207D02*
X0054878Y0099207D01*
X0054878Y0100006D02*
X0054078Y0100006D01*
X0052150Y0100006D02*
X0047374Y0100006D01*
X0048235Y0099207D02*
X0051005Y0099207D01*
X0050311Y0098409D02*
X0048997Y0098409D01*
X0049328Y0097610D02*
X0049846Y0097610D01*
X0049717Y0093618D02*
X0049449Y0093618D01*
X0049118Y0092819D02*
X0050104Y0092819D01*
X0050714Y0092021D02*
X0048526Y0092021D01*
X0047728Y0091222D02*
X0051646Y0091222D01*
D23*
X0099478Y0077468D03*
X0119478Y0085468D03*
X0119478Y0103468D03*
X0141478Y0108468D03*
X0148478Y0132468D03*
X0141478Y0139468D03*
X0142478Y0149468D03*
X0141978Y0171468D03*
X0162478Y0183468D03*
X0180478Y0182968D03*
X0204478Y0197468D03*
X0165478Y0147468D03*
X0162478Y0135468D03*
X0180478Y0127468D03*
X0166978Y0112468D03*
X0175478Y0093468D03*
X0184478Y0101468D03*
X0163478Y0073468D03*
X0089478Y0208468D03*
D24*
X0044478Y0095468D02*
X0044478Y0077468D01*
D25*
X0118478Y0202468D02*
X0118478Y0212468D01*
M02*
