G75*
%MOIN*%
%OFA0B0*%
%FSLAX25Y25*%
%IPPOS*%
%LPD*%
%AMOC8*
5,1,8,0,0,1.08239X$1,22.5*
%
%ADD10C,0.01421*%
%ADD11C,0.07000*%
%ADD12R,0.05131X0.04737*%
%ADD13R,0.04737X0.05131*%
%ADD14R,0.07000X0.07000*%
%ADD15R,0.03950X0.04343*%
%ADD16R,0.05918X0.04737*%
%ADD17C,0.07800*%
%ADD18C,0.10800*%
%ADD19R,0.04737X0.05918*%
%ADD20C,0.08200*%
%ADD21R,0.28000X0.06900*%
D10*
X0049368Y0154810D02*
X0049368Y0158126D01*
X0052684Y0158126D01*
X0052684Y0154810D01*
X0049368Y0154810D01*
X0049368Y0156230D02*
X0052684Y0156230D01*
X0052684Y0157650D02*
X0049368Y0157650D01*
X0056273Y0158126D02*
X0056273Y0154810D01*
X0056273Y0158126D02*
X0059589Y0158126D01*
X0059589Y0154810D01*
X0056273Y0154810D01*
X0056273Y0156230D02*
X0059589Y0156230D01*
X0059589Y0157650D02*
X0056273Y0157650D01*
X0056273Y0164810D02*
X0056273Y0168126D01*
X0059589Y0168126D01*
X0059589Y0164810D01*
X0056273Y0164810D01*
X0056273Y0166230D02*
X0059589Y0166230D01*
X0059589Y0167650D02*
X0056273Y0167650D01*
X0049368Y0168126D02*
X0049368Y0164810D01*
X0049368Y0168126D02*
X0052684Y0168126D01*
X0052684Y0164810D01*
X0049368Y0164810D01*
X0049368Y0166230D02*
X0052684Y0166230D01*
X0052684Y0167650D02*
X0049368Y0167650D01*
X0049368Y0174810D02*
X0049368Y0178126D01*
X0052684Y0178126D01*
X0052684Y0174810D01*
X0049368Y0174810D01*
X0049368Y0176230D02*
X0052684Y0176230D01*
X0052684Y0177650D02*
X0049368Y0177650D01*
X0056273Y0178126D02*
X0056273Y0174810D01*
X0056273Y0178126D02*
X0059589Y0178126D01*
X0059589Y0174810D01*
X0056273Y0174810D01*
X0056273Y0176230D02*
X0059589Y0176230D01*
X0059589Y0177650D02*
X0056273Y0177650D01*
X0056273Y0184810D02*
X0056273Y0188126D01*
X0059589Y0188126D01*
X0059589Y0184810D01*
X0056273Y0184810D01*
X0056273Y0186230D02*
X0059589Y0186230D01*
X0059589Y0187650D02*
X0056273Y0187650D01*
X0049368Y0188126D02*
X0049368Y0184810D01*
X0049368Y0188126D02*
X0052684Y0188126D01*
X0052684Y0184810D01*
X0049368Y0184810D01*
X0049368Y0186230D02*
X0052684Y0186230D01*
X0052684Y0187650D02*
X0049368Y0187650D01*
X0049368Y0194810D02*
X0049368Y0198126D01*
X0052684Y0198126D01*
X0052684Y0194810D01*
X0049368Y0194810D01*
X0049368Y0196230D02*
X0052684Y0196230D01*
X0052684Y0197650D02*
X0049368Y0197650D01*
X0056273Y0198126D02*
X0056273Y0194810D01*
X0056273Y0198126D02*
X0059589Y0198126D01*
X0059589Y0194810D01*
X0056273Y0194810D01*
X0056273Y0196230D02*
X0059589Y0196230D01*
X0059589Y0197650D02*
X0056273Y0197650D01*
X0056273Y0204810D02*
X0056273Y0208126D01*
X0059589Y0208126D01*
X0059589Y0204810D01*
X0056273Y0204810D01*
X0056273Y0206230D02*
X0059589Y0206230D01*
X0059589Y0207650D02*
X0056273Y0207650D01*
X0049368Y0208126D02*
X0049368Y0204810D01*
X0049368Y0208126D02*
X0052684Y0208126D01*
X0052684Y0204810D01*
X0049368Y0204810D01*
X0049368Y0206230D02*
X0052684Y0206230D01*
X0052684Y0207650D02*
X0049368Y0207650D01*
X0147368Y0080126D02*
X0147368Y0076810D01*
X0147368Y0080126D02*
X0150684Y0080126D01*
X0150684Y0076810D01*
X0147368Y0076810D01*
X0147368Y0078230D02*
X0150684Y0078230D01*
X0150684Y0079650D02*
X0147368Y0079650D01*
X0154273Y0080126D02*
X0154273Y0076810D01*
X0154273Y0080126D02*
X0157589Y0080126D01*
X0157589Y0076810D01*
X0154273Y0076810D01*
X0154273Y0078230D02*
X0157589Y0078230D01*
X0157589Y0079650D02*
X0154273Y0079650D01*
X0169368Y0080126D02*
X0169368Y0076810D01*
X0169368Y0080126D02*
X0172684Y0080126D01*
X0172684Y0076810D01*
X0169368Y0076810D01*
X0169368Y0078230D02*
X0172684Y0078230D01*
X0172684Y0079650D02*
X0169368Y0079650D01*
X0176273Y0080126D02*
X0176273Y0076810D01*
X0176273Y0080126D02*
X0179589Y0080126D01*
X0179589Y0076810D01*
X0176273Y0076810D01*
X0176273Y0078230D02*
X0179589Y0078230D01*
X0179589Y0079650D02*
X0176273Y0079650D01*
D11*
X0193478Y0084468D03*
X0193478Y0094468D03*
X0193478Y0104468D03*
X0193478Y0114468D03*
X0193478Y0124468D03*
X0193478Y0134468D03*
X0193478Y0144468D03*
X0193478Y0154468D03*
X0193478Y0164468D03*
X0193478Y0174468D03*
X0193478Y0184468D03*
X0193478Y0194468D03*
X0193478Y0204468D03*
X0183478Y0204468D03*
X0173478Y0204468D03*
X0163478Y0204468D03*
X0153478Y0204468D03*
X0143478Y0204468D03*
X0133478Y0204468D03*
X0133478Y0194468D03*
X0133478Y0184468D03*
X0133478Y0174468D03*
X0133478Y0164468D03*
X0133478Y0154468D03*
X0133478Y0144468D03*
X0133478Y0134468D03*
X0133478Y0124468D03*
X0133478Y0114468D03*
X0133478Y0104468D03*
X0133478Y0094468D03*
X0133478Y0084468D03*
X0133478Y0074468D03*
X0193478Y0074468D03*
X0118478Y0172468D03*
X0118478Y0182468D03*
X0118478Y0192468D03*
X0118478Y0202468D03*
X0118478Y0212468D03*
X0118478Y0222468D03*
X0038478Y0212468D03*
X0038478Y0202468D03*
X0038478Y0192468D03*
X0038478Y0182468D03*
X0038478Y0172468D03*
D12*
X0112132Y0151468D03*
X0118825Y0151468D03*
X0118825Y0141468D03*
X0112132Y0141468D03*
X0112132Y0131468D03*
X0118825Y0131468D03*
X0118825Y0121468D03*
X0112132Y0121468D03*
X0112132Y0111468D03*
X0118825Y0111468D03*
X0149132Y0160468D03*
X0155825Y0160468D03*
X0155825Y0174468D03*
X0149132Y0174468D03*
X0149132Y0191468D03*
X0155825Y0191468D03*
X0172132Y0191468D03*
X0178825Y0191468D03*
D13*
X0155478Y0146815D03*
X0155478Y0140122D03*
X0146478Y0121815D03*
X0146478Y0115122D03*
X0179478Y0115815D03*
X0179478Y0109122D03*
X0064478Y0140122D03*
X0064478Y0146815D03*
D14*
X0038478Y0222468D03*
D15*
X0169738Y0138531D03*
X0177219Y0138531D03*
X0173478Y0146799D03*
D16*
X0167801Y0160578D03*
X0167801Y0174358D03*
X0183156Y0167468D03*
D17*
X0091178Y0141568D03*
X0071478Y0127368D03*
X0051778Y0141568D03*
D18*
X0044478Y0077468D03*
X0064478Y0077468D03*
X0084478Y0077468D03*
X0141478Y0220868D03*
X0161478Y0220868D03*
X0181478Y0220868D03*
D19*
X0170368Y0122901D03*
X0163478Y0122901D03*
X0156589Y0122901D03*
X0156589Y0102035D03*
X0163478Y0102035D03*
X0170368Y0102035D03*
D20*
X0064478Y0095468D03*
X0054478Y0095468D03*
X0044478Y0095468D03*
D21*
X0092478Y0196018D03*
M02*
