G75*
%MOIN*%
%OFA0B0*%
%FSLAX25Y25*%
%IPPOS*%
%LPD*%
%AMOC8*
5,1,8,0,0,1.08239X$1,22.5*
%
%ADD10C,0.06200*%
%ADD11C,0.07400*%
%ADD12R,0.06200X0.06200*%
%ADD13R,0.03937X0.04331*%
%ADD14R,0.04331X0.03937*%
%ADD15R,0.08000X0.02600*%
%ADD16C,0.07000*%
%ADD17C,0.10000*%
%ADD18C,0.00800*%
%ADD19C,0.04000*%
%ADD20C,0.03000*%
%ADD21C,0.02400*%
D10*
X0112409Y0171468D03*
X0112409Y0181468D03*
X0112409Y0191468D03*
X0112409Y0201468D03*
X0112409Y0211468D03*
X0192409Y0211468D03*
X0192409Y0201468D03*
X0192409Y0191468D03*
X0192409Y0181468D03*
X0192409Y0171468D03*
X0206409Y0174468D03*
X0206409Y0164468D03*
X0206409Y0154468D03*
X0206409Y0144468D03*
X0206409Y0134468D03*
X0206409Y0124468D03*
X0206409Y0114468D03*
X0206409Y0104468D03*
X0206409Y0094468D03*
X0206409Y0084468D03*
X0206409Y0074468D03*
X0266409Y0074468D03*
X0266409Y0084468D03*
X0266409Y0094468D03*
X0266409Y0104468D03*
X0266409Y0114468D03*
X0266409Y0124468D03*
X0266409Y0134468D03*
X0266409Y0144468D03*
X0266409Y0154468D03*
X0266409Y0164468D03*
X0266409Y0174468D03*
X0266409Y0184468D03*
X0266409Y0194468D03*
X0266409Y0204468D03*
X0256409Y0204468D03*
X0246409Y0204468D03*
X0236409Y0204468D03*
X0226409Y0204468D03*
X0216409Y0204468D03*
X0206409Y0204468D03*
X0206409Y0194468D03*
X0206409Y0184468D03*
X0192409Y0221468D03*
D11*
X0142409Y0094468D03*
X0132409Y0094468D03*
X0122409Y0094468D03*
X0112409Y0094468D03*
D12*
X0112409Y0221468D03*
D13*
X0229409Y0152815D03*
X0229409Y0146122D03*
X0221409Y0094815D03*
X0221409Y0088122D03*
D14*
X0222063Y0104468D03*
X0228756Y0104468D03*
D15*
X0224309Y0160968D03*
X0224309Y0165968D03*
X0224309Y0170968D03*
X0224309Y0175968D03*
X0248509Y0175968D03*
X0248509Y0170968D03*
X0248509Y0165968D03*
X0248509Y0160968D03*
D16*
X0164109Y0140568D03*
X0144409Y0126368D03*
X0124709Y0140568D03*
D17*
X0117409Y0077468D03*
X0137409Y0077468D03*
X0157409Y0077468D03*
X0214409Y0220868D03*
X0234409Y0220868D03*
X0254409Y0220868D03*
D18*
X0094009Y0230223D02*
X0094009Y0068068D01*
X0283723Y0068068D01*
X0283723Y0230223D01*
X0094009Y0230223D01*
X0094009Y0230163D02*
X0283723Y0230163D01*
X0283723Y0229365D02*
X0094009Y0229365D01*
X0094009Y0228566D02*
X0283723Y0228566D01*
X0283723Y0227767D02*
X0197938Y0227767D01*
X0198409Y0227297D02*
X0197238Y0228468D01*
X0176581Y0228468D01*
X0160581Y0212468D01*
X0126581Y0212468D01*
X0125409Y0211297D01*
X0117581Y0203468D01*
X0116668Y0203468D01*
X0116394Y0204131D01*
X0115072Y0205453D01*
X0113344Y0206168D01*
X0111474Y0206168D01*
X0109747Y0205453D01*
X0108425Y0204131D01*
X0107709Y0202403D01*
X0107709Y0200533D01*
X0108425Y0198806D01*
X0109747Y0197484D01*
X0111474Y0196768D01*
X0113344Y0196768D01*
X0115072Y0197484D01*
X0116394Y0198806D01*
X0116668Y0199468D01*
X0119238Y0199468D01*
X0128238Y0208468D01*
X0132581Y0208468D01*
X0117581Y0193468D01*
X0116668Y0193468D01*
X0116394Y0194131D01*
X0115072Y0195453D01*
X0113344Y0196168D01*
X0111474Y0196168D01*
X0109747Y0195453D01*
X0108425Y0194131D01*
X0107709Y0192403D01*
X0107709Y0190533D01*
X0108425Y0188806D01*
X0109747Y0187484D01*
X0111474Y0186768D01*
X0113344Y0186768D01*
X0115072Y0187484D01*
X0116394Y0188806D01*
X0116668Y0189468D01*
X0119238Y0189468D01*
X0136238Y0206468D01*
X0140581Y0206468D01*
X0117581Y0183468D01*
X0116668Y0183468D01*
X0116394Y0184131D01*
X0115072Y0185453D01*
X0113344Y0186168D01*
X0111474Y0186168D01*
X0109747Y0185453D01*
X0108425Y0184131D01*
X0107709Y0182403D01*
X0107709Y0180533D01*
X0108425Y0178806D01*
X0109747Y0177484D01*
X0111474Y0176768D01*
X0113344Y0176768D01*
X0115072Y0177484D01*
X0116394Y0178806D01*
X0116668Y0179468D01*
X0119238Y0179468D01*
X0144238Y0204468D01*
X0178238Y0204468D01*
X0179409Y0205640D01*
X0188238Y0214468D01*
X0188763Y0214468D01*
X0188425Y0214131D01*
X0187709Y0212403D01*
X0187709Y0210533D01*
X0188425Y0208806D01*
X0189609Y0207621D01*
X0189609Y0205315D01*
X0188563Y0204268D01*
X0186852Y0204268D01*
X0185823Y0203842D01*
X0175036Y0193054D01*
X0174609Y0192025D01*
X0174609Y0103911D01*
X0175036Y0102882D01*
X0185036Y0092882D01*
X0185823Y0092094D01*
X0186852Y0091668D01*
X0202563Y0091668D01*
X0203747Y0090484D01*
X0205474Y0089768D01*
X0207344Y0089768D01*
X0209072Y0090484D01*
X0210394Y0091806D01*
X0210668Y0092468D01*
X0217841Y0092468D01*
X0217841Y0091987D01*
X0218359Y0091468D01*
X0217841Y0090950D01*
X0217841Y0085294D01*
X0218778Y0084356D01*
X0219409Y0084356D01*
X0219409Y0084297D01*
X0219165Y0084052D01*
X0219125Y0084068D01*
X0217693Y0084068D01*
X0216370Y0083520D01*
X0215357Y0082507D01*
X0214809Y0081184D01*
X0214809Y0079752D01*
X0215357Y0078429D01*
X0216370Y0077416D01*
X0217693Y0076868D01*
X0219125Y0076868D01*
X0220449Y0077416D01*
X0221461Y0078429D01*
X0222009Y0079752D01*
X0222009Y0081184D01*
X0221993Y0081224D01*
X0223409Y0082640D01*
X0223409Y0084356D01*
X0224041Y0084356D01*
X0224978Y0085294D01*
X0224978Y0090950D01*
X0224459Y0091468D01*
X0224978Y0091987D01*
X0224978Y0097643D01*
X0224041Y0098580D01*
X0223409Y0098580D01*
X0223409Y0100900D01*
X0224891Y0100900D01*
X0225409Y0101418D01*
X0225928Y0100900D01*
X0226756Y0100900D01*
X0226756Y0083293D01*
X0230409Y0079640D01*
X0231581Y0078468D01*
X0244341Y0078468D01*
X0244357Y0078429D01*
X0245370Y0077416D01*
X0246693Y0076868D01*
X0248125Y0076868D01*
X0249449Y0077416D01*
X0250461Y0078429D01*
X0251009Y0079752D01*
X0251009Y0081184D01*
X0250461Y0082507D01*
X0249449Y0083520D01*
X0248125Y0084068D01*
X0246693Y0084068D01*
X0245370Y0083520D01*
X0244357Y0082507D01*
X0244341Y0082468D01*
X0233238Y0082468D01*
X0230756Y0084950D01*
X0230756Y0100900D01*
X0231584Y0100900D01*
X0232521Y0101837D01*
X0232521Y0107099D01*
X0231584Y0108037D01*
X0225928Y0108037D01*
X0225409Y0107518D01*
X0224891Y0108037D01*
X0223409Y0108037D01*
X0223409Y0129400D01*
X0223449Y0129416D01*
X0224461Y0130429D01*
X0225009Y0131752D01*
X0225009Y0133184D01*
X0224461Y0134507D01*
X0223449Y0135520D01*
X0223409Y0135536D01*
X0223409Y0157240D01*
X0224238Y0158068D01*
X0224381Y0158068D01*
X0226324Y0156126D01*
X0225841Y0155643D01*
X0225841Y0149987D01*
X0226501Y0149327D01*
X0226321Y0149147D01*
X0226136Y0148827D01*
X0226041Y0148471D01*
X0226041Y0146522D01*
X0229009Y0146522D01*
X0229009Y0145722D01*
X0226041Y0145722D01*
X0226041Y0143772D01*
X0226136Y0143416D01*
X0226321Y0143097D01*
X0226581Y0142836D01*
X0226900Y0142652D01*
X0227257Y0142556D01*
X0229009Y0142556D01*
X0229009Y0145722D01*
X0229809Y0145722D01*
X0229809Y0142556D01*
X0231562Y0142556D01*
X0231918Y0142652D01*
X0232237Y0142836D01*
X0232498Y0143097D01*
X0232682Y0143416D01*
X0232778Y0143772D01*
X0232778Y0145722D01*
X0229809Y0145722D01*
X0229809Y0146522D01*
X0232778Y0146522D01*
X0232778Y0148471D01*
X0232682Y0148827D01*
X0232498Y0149147D01*
X0232318Y0149327D01*
X0232978Y0149987D01*
X0232978Y0155643D01*
X0232041Y0156580D01*
X0231409Y0156580D01*
X0231409Y0156697D01*
X0230238Y0157868D01*
X0229505Y0158601D01*
X0229909Y0159005D01*
X0229909Y0162931D01*
X0229372Y0163468D01*
X0229909Y0164005D01*
X0229909Y0167931D01*
X0229372Y0168468D01*
X0229872Y0168968D01*
X0239081Y0168968D01*
X0236409Y0166297D01*
X0236409Y0150536D01*
X0236370Y0150520D01*
X0235357Y0149507D01*
X0234809Y0148184D01*
X0234809Y0146752D01*
X0235357Y0145429D01*
X0236370Y0144416D01*
X0237693Y0143868D01*
X0239125Y0143868D01*
X0240449Y0144416D01*
X0241461Y0145429D01*
X0242009Y0146752D01*
X0242009Y0148184D01*
X0241461Y0149507D01*
X0240449Y0150520D01*
X0240409Y0150536D01*
X0240409Y0164640D01*
X0242238Y0166468D01*
X0242909Y0166468D01*
X0242909Y0164005D01*
X0243447Y0163468D01*
X0242909Y0162931D01*
X0242909Y0159005D01*
X0243847Y0158068D01*
X0253172Y0158068D01*
X0254072Y0158968D01*
X0254081Y0158968D01*
X0258581Y0154468D01*
X0257409Y0153297D01*
X0257409Y0129559D01*
X0256449Y0130520D01*
X0255125Y0131068D01*
X0253693Y0131068D01*
X0252370Y0130520D01*
X0251357Y0129507D01*
X0251341Y0129468D01*
X0246581Y0129468D01*
X0245409Y0128297D01*
X0242409Y0125297D01*
X0242409Y0115536D01*
X0242370Y0115520D01*
X0241357Y0114507D01*
X0240809Y0113184D01*
X0240809Y0111752D01*
X0241357Y0110429D01*
X0242370Y0109416D01*
X0243693Y0108868D01*
X0245125Y0108868D01*
X0246449Y0109416D01*
X0247461Y0110429D01*
X0248009Y0111752D01*
X0248009Y0113184D01*
X0247461Y0114507D01*
X0246449Y0115520D01*
X0246409Y0115536D01*
X0246409Y0123640D01*
X0248238Y0125468D01*
X0251341Y0125468D01*
X0251357Y0125429D01*
X0252370Y0124416D01*
X0253693Y0123868D01*
X0255125Y0123868D01*
X0256449Y0124416D01*
X0257409Y0125377D01*
X0257409Y0103297D01*
X0256165Y0102052D01*
X0256125Y0102068D01*
X0254693Y0102068D01*
X0253370Y0101520D01*
X0252357Y0100507D01*
X0251809Y0099184D01*
X0251809Y0097752D01*
X0252357Y0096429D01*
X0253370Y0095416D01*
X0254693Y0094868D01*
X0256125Y0094868D01*
X0257449Y0095416D01*
X0258461Y0096429D01*
X0259009Y0097752D01*
X0259009Y0099184D01*
X0258993Y0099224D01*
X0261409Y0101640D01*
X0261409Y0151640D01*
X0262176Y0152407D01*
X0262425Y0151806D01*
X0263747Y0150484D01*
X0265474Y0149768D01*
X0267344Y0149768D01*
X0269072Y0150484D01*
X0270394Y0151806D01*
X0271109Y0153533D01*
X0271109Y0155403D01*
X0270394Y0157131D01*
X0269072Y0158453D01*
X0267344Y0159168D01*
X0265474Y0159168D01*
X0263747Y0158453D01*
X0262425Y0157131D01*
X0262176Y0156530D01*
X0256909Y0161797D01*
X0255738Y0162968D01*
X0254072Y0162968D01*
X0253572Y0163468D01*
X0254109Y0164005D01*
X0254109Y0167931D01*
X0253572Y0168468D01*
X0254109Y0169005D01*
X0254109Y0172931D01*
X0253572Y0173468D01*
X0254072Y0173968D01*
X0255081Y0173968D01*
X0256409Y0172640D01*
X0256409Y0166640D01*
X0257581Y0165468D01*
X0260581Y0162468D01*
X0262151Y0162468D01*
X0262425Y0161806D01*
X0263747Y0160484D01*
X0265474Y0159768D01*
X0267344Y0159768D01*
X0269072Y0160484D01*
X0270394Y0161806D01*
X0271109Y0163533D01*
X0271109Y0165403D01*
X0270394Y0167131D01*
X0269072Y0168453D01*
X0267344Y0169168D01*
X0265474Y0169168D01*
X0263747Y0168453D01*
X0262425Y0167131D01*
X0262176Y0166530D01*
X0260409Y0168297D01*
X0260409Y0174297D01*
X0259238Y0175468D01*
X0256738Y0177968D01*
X0254072Y0177968D01*
X0253172Y0178868D01*
X0243847Y0178868D01*
X0243409Y0178431D01*
X0243409Y0179140D01*
X0245238Y0180968D01*
X0250341Y0180968D01*
X0250357Y0180929D01*
X0251370Y0179916D01*
X0252693Y0179368D01*
X0254125Y0179368D01*
X0255449Y0179916D01*
X0256461Y0180929D01*
X0257009Y0182252D01*
X0257009Y0183684D01*
X0256461Y0185007D01*
X0255449Y0186020D01*
X0254125Y0186568D01*
X0252693Y0186568D01*
X0251370Y0186020D01*
X0250357Y0185007D01*
X0250341Y0184968D01*
X0243581Y0184968D01*
X0242409Y0183797D01*
X0239409Y0180797D01*
X0239409Y0174297D01*
X0238081Y0172968D01*
X0229872Y0172968D01*
X0229231Y0173610D01*
X0229430Y0173809D01*
X0229614Y0174128D01*
X0229709Y0174484D01*
X0229709Y0175718D01*
X0224559Y0175718D01*
X0224559Y0176218D01*
X0224059Y0176218D01*
X0224059Y0175718D01*
X0218909Y0175718D01*
X0218909Y0174484D01*
X0219005Y0174128D01*
X0219189Y0173809D01*
X0219388Y0173610D01*
X0218709Y0172931D01*
X0218709Y0169005D01*
X0219247Y0168468D01*
X0218747Y0167968D01*
X0217081Y0167968D01*
X0214581Y0165468D01*
X0213409Y0164297D01*
X0213409Y0152536D01*
X0213370Y0152520D01*
X0212357Y0151507D01*
X0211809Y0150184D01*
X0211809Y0148752D01*
X0212357Y0147429D01*
X0213370Y0146416D01*
X0214693Y0145868D01*
X0216125Y0145868D01*
X0217449Y0146416D01*
X0218461Y0147429D01*
X0219009Y0148752D01*
X0219009Y0150184D01*
X0218461Y0151507D01*
X0217449Y0152520D01*
X0217409Y0152536D01*
X0217409Y0162640D01*
X0218738Y0163968D01*
X0218747Y0163968D01*
X0219247Y0163468D01*
X0218709Y0162931D01*
X0218709Y0159005D01*
X0219409Y0158305D01*
X0219409Y0135536D01*
X0219370Y0135520D01*
X0218357Y0134507D01*
X0217809Y0133184D01*
X0217809Y0131752D01*
X0218357Y0130429D01*
X0219370Y0129416D01*
X0219409Y0129400D01*
X0219409Y0108037D01*
X0219235Y0108037D01*
X0218298Y0107099D01*
X0218298Y0101837D01*
X0219235Y0100900D01*
X0219409Y0100900D01*
X0219409Y0098580D01*
X0218778Y0098580D01*
X0217841Y0097643D01*
X0217841Y0096468D01*
X0210668Y0096468D01*
X0210394Y0097131D01*
X0209072Y0098453D01*
X0207344Y0099168D01*
X0205474Y0099168D01*
X0203747Y0098453D01*
X0202563Y0097268D01*
X0188569Y0097268D01*
X0180209Y0105628D01*
X0180209Y0190308D01*
X0188566Y0198665D01*
X0189747Y0197484D01*
X0191474Y0196768D01*
X0193344Y0196768D01*
X0195072Y0197484D01*
X0196394Y0198806D01*
X0196809Y0199809D01*
X0196809Y0198752D01*
X0197357Y0197429D01*
X0198370Y0196416D01*
X0199693Y0195868D01*
X0201125Y0195868D01*
X0202063Y0196256D01*
X0201709Y0195403D01*
X0201709Y0193533D01*
X0202425Y0191806D01*
X0202763Y0191468D01*
X0200581Y0191468D01*
X0197581Y0188468D01*
X0196409Y0187297D01*
X0196409Y0184093D01*
X0196394Y0184131D01*
X0195072Y0185453D01*
X0193344Y0186168D01*
X0191474Y0186168D01*
X0189747Y0185453D01*
X0188425Y0184131D01*
X0187709Y0182403D01*
X0187709Y0180533D01*
X0187984Y0179871D01*
X0184409Y0176297D01*
X0184409Y0167640D01*
X0185581Y0166468D01*
X0188581Y0163468D01*
X0197238Y0163468D01*
X0198409Y0164640D01*
X0202409Y0168640D01*
X0202409Y0171843D01*
X0202425Y0171806D01*
X0203747Y0170484D01*
X0205474Y0169768D01*
X0207344Y0169768D01*
X0209072Y0170484D01*
X0210394Y0171806D01*
X0211109Y0173533D01*
X0211109Y0175403D01*
X0210394Y0177131D01*
X0210056Y0177468D01*
X0212238Y0177468D01*
X0213409Y0178640D01*
X0216409Y0181640D01*
X0216409Y0186640D01*
X0218238Y0188468D01*
X0256581Y0188468D01*
X0258409Y0186640D01*
X0258409Y0179640D01*
X0259581Y0178468D01*
X0261984Y0176065D01*
X0261709Y0175403D01*
X0261709Y0173533D01*
X0262425Y0171806D01*
X0263747Y0170484D01*
X0265474Y0169768D01*
X0267344Y0169768D01*
X0269072Y0170484D01*
X0270394Y0171806D01*
X0271109Y0173533D01*
X0271109Y0175403D01*
X0270394Y0177131D01*
X0269072Y0178453D01*
X0267344Y0179168D01*
X0265474Y0179168D01*
X0264812Y0178894D01*
X0262409Y0181297D01*
X0262409Y0181843D01*
X0262425Y0181806D01*
X0263747Y0180484D01*
X0265474Y0179768D01*
X0267344Y0179768D01*
X0269072Y0180484D01*
X0270394Y0181806D01*
X0270668Y0182468D01*
X0272238Y0182468D01*
X0274238Y0184468D01*
X0275409Y0185640D01*
X0275409Y0194400D01*
X0276693Y0193868D01*
X0278125Y0193868D01*
X0279449Y0194416D01*
X0280461Y0195429D01*
X0281009Y0196752D01*
X0281009Y0198184D01*
X0280461Y0199507D01*
X0279449Y0200520D01*
X0279409Y0200536D01*
X0279409Y0211297D01*
X0276409Y0214297D01*
X0275238Y0215468D01*
X0258343Y0215468D01*
X0260005Y0217130D01*
X0261009Y0219555D01*
X0261009Y0222181D01*
X0260005Y0224607D01*
X0258148Y0226463D01*
X0255722Y0227468D01*
X0253097Y0227468D01*
X0250671Y0226463D01*
X0248814Y0224607D01*
X0247809Y0222181D01*
X0247809Y0219555D01*
X0248814Y0217130D01*
X0250476Y0215468D01*
X0238343Y0215468D01*
X0240005Y0217130D01*
X0241009Y0219555D01*
X0241009Y0222181D01*
X0240005Y0224607D01*
X0238148Y0226463D01*
X0235722Y0227468D01*
X0233097Y0227468D01*
X0230671Y0226463D01*
X0228814Y0224607D01*
X0227809Y0222181D01*
X0227809Y0219555D01*
X0228814Y0217130D01*
X0230476Y0215468D01*
X0217856Y0215468D01*
X0217973Y0215535D01*
X0218638Y0216046D01*
X0219231Y0216639D01*
X0219742Y0217305D01*
X0220162Y0218031D01*
X0220483Y0218807D01*
X0220700Y0219617D01*
X0220809Y0220449D01*
X0220809Y0220468D01*
X0214809Y0220468D01*
X0214809Y0221268D01*
X0214009Y0221268D01*
X0214009Y0220468D01*
X0208009Y0220468D01*
X0208009Y0220449D01*
X0208119Y0219617D01*
X0208336Y0218807D01*
X0208657Y0218031D01*
X0209077Y0217305D01*
X0209587Y0216639D01*
X0210180Y0216046D01*
X0210846Y0215535D01*
X0210962Y0215468D01*
X0204238Y0215468D01*
X0201409Y0218297D01*
X0201409Y0224297D01*
X0198409Y0227297D01*
X0198737Y0226969D02*
X0212450Y0226969D01*
X0212348Y0226942D02*
X0211573Y0226620D01*
X0210846Y0226201D01*
X0210180Y0225690D01*
X0209587Y0225097D01*
X0209077Y0224431D01*
X0208657Y0223705D01*
X0208336Y0222930D01*
X0208119Y0222119D01*
X0208009Y0221288D01*
X0208009Y0221268D01*
X0214009Y0221268D01*
X0214009Y0227268D01*
X0213990Y0227268D01*
X0213158Y0227159D01*
X0212348Y0226942D01*
X0214009Y0226969D02*
X0214809Y0226969D01*
X0214809Y0227268D02*
X0214809Y0221268D01*
X0220809Y0221268D01*
X0220809Y0221288D01*
X0220700Y0222119D01*
X0220483Y0222930D01*
X0220162Y0223705D01*
X0219742Y0224431D01*
X0219231Y0225097D01*
X0218638Y0225690D01*
X0217973Y0226201D01*
X0217246Y0226620D01*
X0216471Y0226942D01*
X0215661Y0227159D01*
X0214829Y0227268D01*
X0214809Y0227268D01*
X0214809Y0226170D02*
X0214009Y0226170D01*
X0214009Y0225372D02*
X0214809Y0225372D01*
X0214809Y0224573D02*
X0214009Y0224573D01*
X0214009Y0223775D02*
X0214809Y0223775D01*
X0214809Y0222976D02*
X0214009Y0222976D01*
X0214009Y0222178D02*
X0214809Y0222178D01*
X0214809Y0221379D02*
X0214009Y0221379D01*
X0214009Y0220581D02*
X0201409Y0220581D01*
X0201409Y0221379D02*
X0208021Y0221379D01*
X0208135Y0222178D02*
X0201409Y0222178D01*
X0201409Y0222976D02*
X0208355Y0222976D01*
X0208698Y0223775D02*
X0201409Y0223775D01*
X0201133Y0224573D02*
X0209185Y0224573D01*
X0209862Y0225372D02*
X0200334Y0225372D01*
X0199536Y0226170D02*
X0210806Y0226170D01*
X0216369Y0226969D02*
X0231891Y0226969D01*
X0230378Y0226170D02*
X0218012Y0226170D01*
X0218957Y0225372D02*
X0229579Y0225372D01*
X0228800Y0224573D02*
X0219633Y0224573D01*
X0220121Y0223775D02*
X0228470Y0223775D01*
X0228139Y0222976D02*
X0220463Y0222976D01*
X0220684Y0222178D02*
X0227809Y0222178D01*
X0227809Y0221379D02*
X0220797Y0221379D01*
X0220722Y0219782D02*
X0227809Y0219782D01*
X0227809Y0220581D02*
X0214809Y0220581D01*
X0219789Y0217387D02*
X0228708Y0217387D01*
X0228377Y0218185D02*
X0220225Y0218185D01*
X0220530Y0218984D02*
X0228046Y0218984D01*
X0229355Y0216588D02*
X0219180Y0216588D01*
X0218304Y0215790D02*
X0230154Y0215790D01*
X0227344Y0209168D02*
X0225474Y0209168D01*
X0223747Y0208453D01*
X0222425Y0207131D01*
X0221709Y0205403D01*
X0221709Y0203533D01*
X0222425Y0201806D01*
X0223747Y0200484D01*
X0225474Y0199768D01*
X0227344Y0199768D01*
X0229072Y0200484D01*
X0230394Y0201806D01*
X0231109Y0203533D01*
X0231109Y0205403D01*
X0230394Y0207131D01*
X0229072Y0208453D01*
X0227344Y0209168D01*
X0228708Y0208603D02*
X0234613Y0208603D01*
X0234682Y0208638D02*
X0234051Y0208317D01*
X0233478Y0207901D01*
X0232977Y0207400D01*
X0232561Y0206827D01*
X0232239Y0206196D01*
X0232020Y0205522D01*
X0231917Y0204868D01*
X0236009Y0204868D01*
X0236009Y0204068D01*
X0231917Y0204068D01*
X0232020Y0203414D01*
X0232239Y0202741D01*
X0232561Y0202110D01*
X0232977Y0201537D01*
X0233478Y0201036D01*
X0234051Y0200619D01*
X0234682Y0200298D01*
X0235356Y0200079D01*
X0236009Y0199975D01*
X0236009Y0204068D01*
X0236809Y0204068D01*
X0236809Y0199975D01*
X0237463Y0200079D01*
X0238137Y0200298D01*
X0238768Y0200619D01*
X0239341Y0201036D01*
X0239842Y0201537D01*
X0240258Y0202110D01*
X0240580Y0202741D01*
X0240799Y0203414D01*
X0240902Y0204068D01*
X0236809Y0204068D01*
X0236809Y0204868D01*
X0236009Y0204868D01*
X0236009Y0208961D01*
X0235356Y0208857D01*
X0234682Y0208638D01*
X0236009Y0208603D02*
X0236809Y0208603D01*
X0236809Y0208961D02*
X0236809Y0204868D01*
X0240902Y0204868D01*
X0240799Y0205522D01*
X0240580Y0206196D01*
X0240258Y0206827D01*
X0239842Y0207400D01*
X0239341Y0207901D01*
X0238768Y0208317D01*
X0238137Y0208638D01*
X0237463Y0208857D01*
X0236809Y0208961D01*
X0236809Y0207805D02*
X0236009Y0207805D01*
X0236009Y0207006D02*
X0236809Y0207006D01*
X0236809Y0206208D02*
X0236009Y0206208D01*
X0236009Y0205409D02*
X0236809Y0205409D01*
X0236809Y0204611D02*
X0241709Y0204611D01*
X0241709Y0205403D02*
X0241709Y0203533D01*
X0242425Y0201806D01*
X0243747Y0200484D01*
X0245474Y0199768D01*
X0247344Y0199768D01*
X0249072Y0200484D01*
X0250394Y0201806D01*
X0251109Y0203533D01*
X0251109Y0205403D01*
X0250394Y0207131D01*
X0249072Y0208453D01*
X0247344Y0209168D01*
X0245474Y0209168D01*
X0243747Y0208453D01*
X0242425Y0207131D01*
X0241709Y0205403D01*
X0241712Y0205409D02*
X0240816Y0205409D01*
X0240574Y0206208D02*
X0242043Y0206208D01*
X0242373Y0207006D02*
X0240128Y0207006D01*
X0239437Y0207805D02*
X0243099Y0207805D01*
X0244111Y0208603D02*
X0238206Y0208603D01*
X0236009Y0204611D02*
X0231109Y0204611D01*
X0231107Y0205409D02*
X0232002Y0205409D01*
X0232245Y0206208D02*
X0230776Y0206208D01*
X0230445Y0207006D02*
X0232691Y0207006D01*
X0233382Y0207805D02*
X0229720Y0207805D01*
X0231109Y0203812D02*
X0231957Y0203812D01*
X0232150Y0203014D02*
X0230894Y0203014D01*
X0230563Y0202215D02*
X0232507Y0202215D01*
X0233097Y0201417D02*
X0230005Y0201417D01*
X0229206Y0200618D02*
X0234054Y0200618D01*
X0236009Y0200618D02*
X0236809Y0200618D01*
X0236809Y0201417D02*
X0236009Y0201417D01*
X0236009Y0202215D02*
X0236809Y0202215D01*
X0236809Y0203014D02*
X0236009Y0203014D01*
X0236009Y0203812D02*
X0236809Y0203812D01*
X0238765Y0200618D02*
X0243613Y0200618D01*
X0242814Y0201417D02*
X0239722Y0201417D01*
X0240312Y0202215D02*
X0242255Y0202215D01*
X0241925Y0203014D02*
X0240668Y0203014D01*
X0240862Y0203812D02*
X0241709Y0203812D01*
X0245350Y0199820D02*
X0227468Y0199820D01*
X0225350Y0199820D02*
X0217468Y0199820D01*
X0217344Y0199768D02*
X0219072Y0200484D01*
X0220394Y0201806D01*
X0221109Y0203533D01*
X0221109Y0205403D01*
X0220394Y0207131D01*
X0219072Y0208453D01*
X0217344Y0209168D01*
X0215474Y0209168D01*
X0213747Y0208453D01*
X0212425Y0207131D01*
X0211709Y0205403D01*
X0211709Y0203533D01*
X0212425Y0201806D01*
X0213747Y0200484D01*
X0215474Y0199768D01*
X0217344Y0199768D01*
X0215350Y0199820D02*
X0213886Y0199820D01*
X0213409Y0200297D02*
X0212238Y0201468D01*
X0210056Y0201468D01*
X0210394Y0201806D01*
X0211109Y0203533D01*
X0211109Y0205403D01*
X0210394Y0207131D01*
X0209072Y0208453D01*
X0207344Y0209168D01*
X0205474Y0209168D01*
X0203747Y0208453D01*
X0202425Y0207131D01*
X0201709Y0205403D01*
X0201709Y0203533D01*
X0202063Y0202680D01*
X0201125Y0203068D01*
X0199693Y0203068D01*
X0198370Y0202520D01*
X0197357Y0201507D01*
X0197109Y0200908D01*
X0197109Y0202403D01*
X0196394Y0204131D01*
X0195209Y0205315D01*
X0195209Y0207621D01*
X0196394Y0208806D01*
X0197109Y0210533D01*
X0197109Y0212403D01*
X0196394Y0214131D01*
X0196056Y0214468D01*
X0196581Y0214468D01*
X0201581Y0209468D01*
X0269581Y0209468D01*
X0271409Y0207640D01*
X0271409Y0187297D01*
X0270643Y0186530D01*
X0270394Y0187131D01*
X0269072Y0188453D01*
X0267344Y0189168D01*
X0265474Y0189168D01*
X0263747Y0188453D01*
X0262425Y0187131D01*
X0262409Y0187093D01*
X0262409Y0188297D01*
X0259409Y0191297D01*
X0258238Y0192468D01*
X0257238Y0192468D01*
X0264812Y0200043D01*
X0265474Y0199768D01*
X0267344Y0199768D01*
X0269072Y0200484D01*
X0270394Y0201806D01*
X0271109Y0203533D01*
X0271109Y0205403D01*
X0270394Y0207131D01*
X0269072Y0208453D01*
X0267344Y0209168D01*
X0265474Y0209168D01*
X0263747Y0208453D01*
X0262425Y0207131D01*
X0261709Y0205403D01*
X0261709Y0203533D01*
X0261984Y0202871D01*
X0253581Y0194468D01*
X0249238Y0194468D01*
X0254812Y0200043D01*
X0255474Y0199768D01*
X0257344Y0199768D01*
X0259072Y0200484D01*
X0260394Y0201806D01*
X0261109Y0203533D01*
X0261109Y0205403D01*
X0260394Y0207131D01*
X0259072Y0208453D01*
X0257344Y0209168D01*
X0255474Y0209168D01*
X0253747Y0208453D01*
X0252425Y0207131D01*
X0251709Y0205403D01*
X0251709Y0203533D01*
X0251984Y0202871D01*
X0245581Y0196468D01*
X0217238Y0196468D01*
X0213409Y0200297D01*
X0213613Y0200618D02*
X0213088Y0200618D01*
X0212814Y0201417D02*
X0212289Y0201417D01*
X0212255Y0202215D02*
X0210563Y0202215D01*
X0210894Y0203014D02*
X0211925Y0203014D01*
X0211709Y0203812D02*
X0211109Y0203812D01*
X0211109Y0204611D02*
X0211709Y0204611D01*
X0211712Y0205409D02*
X0211107Y0205409D01*
X0210776Y0206208D02*
X0212043Y0206208D01*
X0212373Y0207006D02*
X0210445Y0207006D01*
X0209720Y0207805D02*
X0213099Y0207805D01*
X0214111Y0208603D02*
X0208708Y0208603D01*
X0204111Y0208603D02*
X0196191Y0208603D01*
X0196641Y0209402D02*
X0269647Y0209402D01*
X0270446Y0208603D02*
X0268708Y0208603D01*
X0269720Y0207805D02*
X0271244Y0207805D01*
X0271409Y0207006D02*
X0270445Y0207006D01*
X0270776Y0206208D02*
X0271409Y0206208D01*
X0271409Y0205409D02*
X0271107Y0205409D01*
X0271109Y0204611D02*
X0271409Y0204611D01*
X0271409Y0203812D02*
X0271109Y0203812D01*
X0270894Y0203014D02*
X0271409Y0203014D01*
X0271409Y0202215D02*
X0270563Y0202215D01*
X0270005Y0201417D02*
X0271409Y0201417D01*
X0271409Y0200618D02*
X0269206Y0200618D01*
X0267468Y0199820D02*
X0271409Y0199820D01*
X0271409Y0199021D02*
X0267699Y0199021D01*
X0267344Y0199168D02*
X0269072Y0198453D01*
X0270394Y0197131D01*
X0271109Y0195403D01*
X0271109Y0193533D01*
X0270394Y0191806D01*
X0269072Y0190484D01*
X0267344Y0189768D01*
X0265474Y0189768D01*
X0263747Y0190484D01*
X0262425Y0191806D01*
X0261709Y0193533D01*
X0261709Y0195403D01*
X0262425Y0197131D01*
X0263747Y0198453D01*
X0265474Y0199168D01*
X0267344Y0199168D01*
X0265350Y0199820D02*
X0264589Y0199820D01*
X0265119Y0199021D02*
X0263791Y0199021D01*
X0263517Y0198223D02*
X0262992Y0198223D01*
X0262718Y0197424D02*
X0262194Y0197424D01*
X0262216Y0196626D02*
X0261395Y0196626D01*
X0261885Y0195827D02*
X0260597Y0195827D01*
X0259798Y0195029D02*
X0261709Y0195029D01*
X0261709Y0194230D02*
X0259000Y0194230D01*
X0258201Y0193431D02*
X0261752Y0193431D01*
X0262082Y0192633D02*
X0257403Y0192633D01*
X0258872Y0191834D02*
X0262413Y0191834D01*
X0263195Y0191036D02*
X0259670Y0191036D01*
X0260469Y0190237D02*
X0264342Y0190237D01*
X0264200Y0188640D02*
X0262066Y0188640D01*
X0262409Y0187842D02*
X0263136Y0187842D01*
X0261267Y0189439D02*
X0271409Y0189439D01*
X0271409Y0190237D02*
X0268477Y0190237D01*
X0269624Y0191036D02*
X0271409Y0191036D01*
X0271409Y0191834D02*
X0270406Y0191834D01*
X0270736Y0192633D02*
X0271409Y0192633D01*
X0271409Y0193431D02*
X0271067Y0193431D01*
X0271109Y0194230D02*
X0271409Y0194230D01*
X0271409Y0195029D02*
X0271109Y0195029D01*
X0270934Y0195827D02*
X0271409Y0195827D01*
X0271409Y0196626D02*
X0270603Y0196626D01*
X0270100Y0197424D02*
X0271409Y0197424D01*
X0271409Y0198223D02*
X0269302Y0198223D01*
X0266409Y0204468D02*
X0254409Y0192468D01*
X0216409Y0192468D01*
X0213409Y0189468D01*
X0201409Y0189468D01*
X0198409Y0186468D01*
X0198409Y0177468D01*
X0192409Y0171468D01*
X0189409Y0165468D02*
X0186409Y0168468D01*
X0186409Y0175468D01*
X0192409Y0181468D01*
X0188942Y0184648D02*
X0180209Y0184648D01*
X0180209Y0185446D02*
X0189741Y0185446D01*
X0190682Y0187298D02*
X0191356Y0187079D01*
X0192009Y0186975D01*
X0192009Y0191068D01*
X0187917Y0191068D01*
X0188020Y0190414D01*
X0188239Y0189741D01*
X0188561Y0189110D01*
X0188977Y0188537D01*
X0189478Y0188036D01*
X0190051Y0187619D01*
X0190682Y0187298D01*
X0191580Y0187043D02*
X0180209Y0187043D01*
X0180209Y0186245D02*
X0196409Y0186245D01*
X0196409Y0187043D02*
X0193238Y0187043D01*
X0193463Y0187079D02*
X0194137Y0187298D01*
X0194768Y0187619D01*
X0195341Y0188036D01*
X0195842Y0188537D01*
X0196258Y0189110D01*
X0196580Y0189741D01*
X0196799Y0190414D01*
X0196902Y0191068D01*
X0192809Y0191068D01*
X0192809Y0186975D01*
X0193463Y0187079D01*
X0192809Y0187043D02*
X0192009Y0187043D01*
X0192009Y0187842D02*
X0192809Y0187842D01*
X0192809Y0188640D02*
X0192009Y0188640D01*
X0192009Y0189439D02*
X0192809Y0189439D01*
X0192809Y0190237D02*
X0192009Y0190237D01*
X0192009Y0191036D02*
X0192809Y0191036D01*
X0192809Y0191068D02*
X0192009Y0191068D01*
X0192009Y0191868D01*
X0187917Y0191868D01*
X0188020Y0192522D01*
X0188239Y0193196D01*
X0188561Y0193827D01*
X0188977Y0194400D01*
X0189478Y0194901D01*
X0190051Y0195317D01*
X0190682Y0195638D01*
X0191356Y0195857D01*
X0192009Y0195961D01*
X0192009Y0191868D01*
X0192809Y0191868D01*
X0192809Y0195961D01*
X0193463Y0195857D01*
X0194137Y0195638D01*
X0194768Y0195317D01*
X0195341Y0194901D01*
X0195842Y0194400D01*
X0196258Y0193827D01*
X0196580Y0193196D01*
X0196799Y0192522D01*
X0196902Y0191868D01*
X0192809Y0191868D01*
X0192809Y0191068D01*
X0192809Y0191834D02*
X0202413Y0191834D01*
X0202082Y0192633D02*
X0196762Y0192633D01*
X0196459Y0193431D02*
X0201752Y0193431D01*
X0201709Y0194230D02*
X0195965Y0194230D01*
X0195165Y0195029D02*
X0201709Y0195029D01*
X0201885Y0195827D02*
X0193557Y0195827D01*
X0192809Y0195827D02*
X0192009Y0195827D01*
X0191262Y0195827D02*
X0185728Y0195827D01*
X0184929Y0195029D02*
X0189654Y0195029D01*
X0188854Y0194230D02*
X0184131Y0194230D01*
X0183332Y0193431D02*
X0188359Y0193431D01*
X0188056Y0192633D02*
X0182534Y0192633D01*
X0181735Y0191834D02*
X0192009Y0191834D01*
X0192009Y0192633D02*
X0192809Y0192633D01*
X0192809Y0193431D02*
X0192009Y0193431D01*
X0192009Y0194230D02*
X0192809Y0194230D01*
X0192809Y0195029D02*
X0192009Y0195029D01*
X0189891Y0197424D02*
X0187325Y0197424D01*
X0186527Y0196626D02*
X0198161Y0196626D01*
X0197362Y0197424D02*
X0194928Y0197424D01*
X0195811Y0198223D02*
X0197029Y0198223D01*
X0196809Y0199021D02*
X0196483Y0199021D01*
X0197109Y0201417D02*
X0197320Y0201417D01*
X0197109Y0202215D02*
X0198065Y0202215D01*
X0196856Y0203014D02*
X0199562Y0203014D01*
X0201257Y0203014D02*
X0201925Y0203014D01*
X0201709Y0203812D02*
X0196526Y0203812D01*
X0195914Y0204611D02*
X0201709Y0204611D01*
X0201712Y0205409D02*
X0195209Y0205409D01*
X0195209Y0206208D02*
X0202043Y0206208D01*
X0202373Y0207006D02*
X0195209Y0207006D01*
X0195393Y0207805D02*
X0203099Y0207805D01*
X0200849Y0210200D02*
X0196971Y0210200D01*
X0197109Y0210999D02*
X0200050Y0210999D01*
X0199252Y0211797D02*
X0197109Y0211797D01*
X0197030Y0212596D02*
X0198453Y0212596D01*
X0197655Y0213394D02*
X0196699Y0213394D01*
X0196856Y0214193D02*
X0196332Y0214193D01*
X0197409Y0216468D02*
X0187409Y0216468D01*
X0177409Y0206468D01*
X0143409Y0206468D01*
X0118409Y0181468D01*
X0112409Y0181468D01*
X0107709Y0181454D02*
X0094009Y0181454D01*
X0094009Y0182252D02*
X0107709Y0182252D01*
X0107978Y0183051D02*
X0094009Y0183051D01*
X0094009Y0183849D02*
X0108308Y0183849D01*
X0108942Y0184648D02*
X0094009Y0184648D01*
X0094009Y0185446D02*
X0109741Y0185446D01*
X0110810Y0187043D02*
X0094009Y0187043D01*
X0094009Y0186245D02*
X0120358Y0186245D01*
X0121156Y0187043D02*
X0114009Y0187043D01*
X0115430Y0187842D02*
X0121955Y0187842D01*
X0122753Y0188640D02*
X0116228Y0188640D01*
X0116656Y0189439D02*
X0123552Y0189439D01*
X0124350Y0190237D02*
X0120007Y0190237D01*
X0120806Y0191036D02*
X0125149Y0191036D01*
X0125947Y0191834D02*
X0121604Y0191834D01*
X0122403Y0192633D02*
X0126746Y0192633D01*
X0127544Y0193431D02*
X0123201Y0193431D01*
X0124000Y0194230D02*
X0128343Y0194230D01*
X0129141Y0195029D02*
X0124798Y0195029D01*
X0125597Y0195827D02*
X0129940Y0195827D01*
X0130738Y0196626D02*
X0126395Y0196626D01*
X0127194Y0197424D02*
X0131537Y0197424D01*
X0132335Y0198223D02*
X0127992Y0198223D01*
X0128791Y0199021D02*
X0133134Y0199021D01*
X0133932Y0199820D02*
X0129589Y0199820D01*
X0130388Y0200618D02*
X0134731Y0200618D01*
X0135529Y0201417D02*
X0131186Y0201417D01*
X0131985Y0202215D02*
X0136328Y0202215D01*
X0137126Y0203014D02*
X0132783Y0203014D01*
X0133582Y0203812D02*
X0137925Y0203812D01*
X0138723Y0204611D02*
X0134380Y0204611D01*
X0135179Y0205409D02*
X0139522Y0205409D01*
X0140320Y0206208D02*
X0135977Y0206208D01*
X0135409Y0208468D02*
X0169409Y0208468D01*
X0174409Y0213468D01*
X0170809Y0213394D02*
X0167164Y0213394D01*
X0166365Y0212596D02*
X0170709Y0212596D01*
X0170826Y0212713D02*
X0168581Y0210468D01*
X0164238Y0210468D01*
X0178238Y0224468D01*
X0189045Y0224468D01*
X0188977Y0224400D01*
X0188561Y0223827D01*
X0188239Y0223196D01*
X0188020Y0222522D01*
X0187917Y0221868D01*
X0192009Y0221868D01*
X0192009Y0221068D01*
X0187917Y0221068D01*
X0188020Y0220414D01*
X0188239Y0219741D01*
X0188561Y0219110D01*
X0188977Y0218537D01*
X0189045Y0218468D01*
X0186581Y0218468D01*
X0176581Y0208468D01*
X0172238Y0208468D01*
X0173654Y0209884D01*
X0173693Y0209868D01*
X0175125Y0209868D01*
X0176449Y0210416D01*
X0177461Y0211429D01*
X0178009Y0212752D01*
X0178009Y0214184D01*
X0177461Y0215507D01*
X0176449Y0216520D01*
X0175125Y0217068D01*
X0173693Y0217068D01*
X0172370Y0216520D01*
X0171357Y0215507D01*
X0170809Y0214184D01*
X0170809Y0212752D01*
X0170826Y0212713D01*
X0169910Y0211797D02*
X0165567Y0211797D01*
X0164768Y0210999D02*
X0169112Y0210999D01*
X0167962Y0214193D02*
X0170813Y0214193D01*
X0171144Y0214991D02*
X0168761Y0214991D01*
X0169559Y0215790D02*
X0171640Y0215790D01*
X0172535Y0216588D02*
X0170358Y0216588D01*
X0171156Y0217387D02*
X0185500Y0217387D01*
X0186298Y0218185D02*
X0171955Y0218185D01*
X0172753Y0218984D02*
X0188652Y0218984D01*
X0188226Y0219782D02*
X0173552Y0219782D01*
X0174350Y0220581D02*
X0187994Y0220581D01*
X0187966Y0222178D02*
X0175947Y0222178D01*
X0175149Y0221379D02*
X0192009Y0221379D01*
X0192809Y0221379D02*
X0197409Y0221379D01*
X0196902Y0221068D02*
X0192809Y0221068D01*
X0192809Y0221868D01*
X0196902Y0221868D01*
X0196799Y0222522D01*
X0196580Y0223196D01*
X0196295Y0223754D01*
X0197409Y0222640D01*
X0197409Y0218468D01*
X0195773Y0218468D01*
X0195842Y0218537D01*
X0196258Y0219110D01*
X0196580Y0219741D01*
X0196799Y0220414D01*
X0196902Y0221068D01*
X0196825Y0220581D02*
X0197409Y0220581D01*
X0197409Y0219782D02*
X0196593Y0219782D01*
X0196167Y0218984D02*
X0197409Y0218984D01*
X0199409Y0217468D02*
X0199409Y0223468D01*
X0196409Y0226468D01*
X0177409Y0226468D01*
X0161409Y0210468D01*
X0127409Y0210468D01*
X0118409Y0201468D01*
X0112409Y0201468D01*
X0107709Y0201417D02*
X0094009Y0201417D01*
X0094009Y0202215D02*
X0107709Y0202215D01*
X0107962Y0203014D02*
X0094009Y0203014D01*
X0094009Y0203812D02*
X0108293Y0203812D01*
X0108905Y0204611D02*
X0094009Y0204611D01*
X0094009Y0205409D02*
X0109704Y0205409D01*
X0110682Y0207298D02*
X0110051Y0207619D01*
X0109478Y0208036D01*
X0108977Y0208537D01*
X0108561Y0209110D01*
X0108239Y0209741D01*
X0108020Y0210414D01*
X0107917Y0211068D01*
X0112009Y0211068D01*
X0112009Y0211868D01*
X0107917Y0211868D01*
X0108020Y0212522D01*
X0108239Y0213196D01*
X0108561Y0213827D01*
X0108977Y0214400D01*
X0109478Y0214901D01*
X0110051Y0215317D01*
X0110682Y0215638D01*
X0111356Y0215857D01*
X0112009Y0215961D01*
X0112009Y0211868D01*
X0112809Y0211868D01*
X0112809Y0215961D01*
X0113463Y0215857D01*
X0114137Y0215638D01*
X0114768Y0215317D01*
X0115341Y0214901D01*
X0115842Y0214400D01*
X0116258Y0213827D01*
X0116580Y0213196D01*
X0116799Y0212522D01*
X0116902Y0211868D01*
X0112809Y0211868D01*
X0112809Y0211068D01*
X0112809Y0206975D01*
X0113463Y0207079D01*
X0114137Y0207298D01*
X0114768Y0207619D01*
X0115341Y0208036D01*
X0115842Y0208537D01*
X0116258Y0209110D01*
X0116580Y0209741D01*
X0116799Y0210414D01*
X0116902Y0211068D01*
X0112809Y0211068D01*
X0112009Y0211068D01*
X0112009Y0206975D01*
X0111356Y0207079D01*
X0110682Y0207298D01*
X0109796Y0207805D02*
X0094009Y0207805D01*
X0094009Y0208603D02*
X0108929Y0208603D01*
X0108412Y0209402D02*
X0094009Y0209402D01*
X0094009Y0210200D02*
X0108090Y0210200D01*
X0107928Y0210999D02*
X0094009Y0210999D01*
X0094009Y0211797D02*
X0112009Y0211797D01*
X0112009Y0210999D02*
X0112809Y0210999D01*
X0112809Y0211797D02*
X0125910Y0211797D01*
X0125112Y0210999D02*
X0116891Y0210999D01*
X0116729Y0210200D02*
X0124313Y0210200D01*
X0123514Y0209402D02*
X0116407Y0209402D01*
X0115890Y0208603D02*
X0122716Y0208603D01*
X0121917Y0207805D02*
X0115023Y0207805D01*
X0113003Y0207006D02*
X0121119Y0207006D01*
X0120320Y0206208D02*
X0094009Y0206208D01*
X0094009Y0207006D02*
X0111815Y0207006D01*
X0112009Y0207006D02*
X0112809Y0207006D01*
X0112809Y0207805D02*
X0112009Y0207805D01*
X0112009Y0208603D02*
X0112809Y0208603D01*
X0112809Y0209402D02*
X0112009Y0209402D01*
X0112009Y0210200D02*
X0112809Y0210200D01*
X0112809Y0212596D02*
X0112009Y0212596D01*
X0112009Y0213394D02*
X0112809Y0213394D01*
X0112809Y0214193D02*
X0112009Y0214193D01*
X0112009Y0214991D02*
X0112809Y0214991D01*
X0112809Y0215790D02*
X0112009Y0215790D01*
X0111148Y0215790D02*
X0094009Y0215790D01*
X0094009Y0216588D02*
X0164701Y0216588D01*
X0163903Y0215790D02*
X0113671Y0215790D01*
X0112809Y0216968D02*
X0115694Y0216968D01*
X0116050Y0217064D01*
X0116369Y0217248D01*
X0116630Y0217509D01*
X0116814Y0217828D01*
X0116909Y0218184D01*
X0116909Y0221068D01*
X0112809Y0221068D01*
X0112809Y0216968D01*
X0112809Y0217387D02*
X0112009Y0217387D01*
X0112009Y0216968D02*
X0112009Y0221068D01*
X0107909Y0221068D01*
X0107909Y0218184D01*
X0108005Y0217828D01*
X0108189Y0217509D01*
X0108450Y0217248D01*
X0108769Y0217064D01*
X0109125Y0216968D01*
X0112009Y0216968D01*
X0112009Y0218185D02*
X0112809Y0218185D01*
X0112809Y0218984D02*
X0112009Y0218984D01*
X0112009Y0219782D02*
X0112809Y0219782D01*
X0112809Y0220581D02*
X0112009Y0220581D01*
X0112009Y0221068D02*
X0112809Y0221068D01*
X0112809Y0221868D01*
X0112009Y0221868D01*
X0112009Y0221068D01*
X0112009Y0221379D02*
X0094009Y0221379D01*
X0094009Y0220581D02*
X0107909Y0220581D01*
X0107909Y0219782D02*
X0094009Y0219782D01*
X0094009Y0218984D02*
X0107909Y0218984D01*
X0107909Y0218185D02*
X0094009Y0218185D01*
X0094009Y0217387D02*
X0108311Y0217387D01*
X0109603Y0214991D02*
X0094009Y0214991D01*
X0094009Y0214193D02*
X0108827Y0214193D01*
X0108340Y0213394D02*
X0094009Y0213394D01*
X0094009Y0212596D02*
X0108044Y0212596D01*
X0115216Y0214991D02*
X0163104Y0214991D01*
X0162306Y0214193D02*
X0115992Y0214193D01*
X0116478Y0213394D02*
X0161507Y0213394D01*
X0160709Y0212596D02*
X0116775Y0212596D01*
X0116508Y0217387D02*
X0165500Y0217387D01*
X0166298Y0218185D02*
X0116909Y0218185D01*
X0116909Y0218984D02*
X0167097Y0218984D01*
X0167895Y0219782D02*
X0116909Y0219782D01*
X0116909Y0220581D02*
X0168694Y0220581D01*
X0169492Y0221379D02*
X0112809Y0221379D01*
X0112809Y0221868D02*
X0116909Y0221868D01*
X0116909Y0224753D01*
X0116814Y0225109D01*
X0116630Y0225428D01*
X0116369Y0225688D01*
X0116050Y0225873D01*
X0115694Y0225968D01*
X0112809Y0225968D01*
X0112809Y0221868D01*
X0112809Y0222178D02*
X0112009Y0222178D01*
X0112009Y0221868D02*
X0112009Y0225968D01*
X0109125Y0225968D01*
X0108769Y0225873D01*
X0108450Y0225688D01*
X0108189Y0225428D01*
X0108005Y0225109D01*
X0107909Y0224753D01*
X0107909Y0221868D01*
X0112009Y0221868D01*
X0112009Y0222976D02*
X0112809Y0222976D01*
X0112809Y0223775D02*
X0112009Y0223775D01*
X0112009Y0224573D02*
X0112809Y0224573D01*
X0112809Y0225372D02*
X0112009Y0225372D01*
X0108157Y0225372D02*
X0094009Y0225372D01*
X0094009Y0226170D02*
X0174283Y0226170D01*
X0173485Y0225372D02*
X0116662Y0225372D01*
X0116909Y0224573D02*
X0172686Y0224573D01*
X0171888Y0223775D02*
X0116909Y0223775D01*
X0116909Y0222976D02*
X0171089Y0222976D01*
X0170291Y0222178D02*
X0116909Y0222178D01*
X0107909Y0222178D02*
X0094009Y0222178D01*
X0094009Y0222976D02*
X0107909Y0222976D01*
X0107909Y0223775D02*
X0094009Y0223775D01*
X0094009Y0224573D02*
X0107909Y0224573D01*
X0094009Y0226969D02*
X0175082Y0226969D01*
X0175880Y0227767D02*
X0094009Y0227767D01*
X0115115Y0205409D02*
X0119522Y0205409D01*
X0118723Y0204611D02*
X0115914Y0204611D01*
X0116526Y0203812D02*
X0117925Y0203812D01*
X0120388Y0200618D02*
X0124731Y0200618D01*
X0125529Y0201417D02*
X0121186Y0201417D01*
X0121985Y0202215D02*
X0126328Y0202215D01*
X0127126Y0203014D02*
X0122783Y0203014D01*
X0123582Y0203812D02*
X0127925Y0203812D01*
X0128723Y0204611D02*
X0124380Y0204611D01*
X0125179Y0205409D02*
X0129522Y0205409D01*
X0130320Y0206208D02*
X0125977Y0206208D01*
X0126776Y0207006D02*
X0131119Y0207006D01*
X0131917Y0207805D02*
X0127574Y0207805D01*
X0135409Y0208468D02*
X0118409Y0191468D01*
X0112409Y0191468D01*
X0110651Y0195827D02*
X0094009Y0195827D01*
X0094009Y0195029D02*
X0109323Y0195029D01*
X0108524Y0194230D02*
X0094009Y0194230D01*
X0094009Y0193431D02*
X0108135Y0193431D01*
X0107805Y0192633D02*
X0094009Y0192633D01*
X0094009Y0191834D02*
X0107709Y0191834D01*
X0107709Y0191036D02*
X0094009Y0191036D01*
X0094009Y0190237D02*
X0107832Y0190237D01*
X0108163Y0189439D02*
X0094009Y0189439D01*
X0094009Y0188640D02*
X0108590Y0188640D01*
X0109389Y0187842D02*
X0094009Y0187842D01*
X0094009Y0180655D02*
X0107709Y0180655D01*
X0107990Y0179857D02*
X0094009Y0179857D01*
X0094009Y0179058D02*
X0108320Y0179058D01*
X0108971Y0178260D02*
X0094009Y0178260D01*
X0094009Y0177461D02*
X0109801Y0177461D01*
X0110741Y0175864D02*
X0094009Y0175864D01*
X0094009Y0175066D02*
X0109360Y0175066D01*
X0109747Y0175453D02*
X0108425Y0174131D01*
X0107709Y0172403D01*
X0107709Y0170533D01*
X0108425Y0168806D01*
X0109747Y0167484D01*
X0111474Y0166768D01*
X0113344Y0166768D01*
X0115072Y0167484D01*
X0116394Y0168806D01*
X0117109Y0170533D01*
X0117109Y0172403D01*
X0116394Y0174131D01*
X0115072Y0175453D01*
X0113344Y0176168D01*
X0111474Y0176168D01*
X0109747Y0175453D01*
X0108562Y0174267D02*
X0094009Y0174267D01*
X0094009Y0173469D02*
X0108151Y0173469D01*
X0107820Y0172670D02*
X0094009Y0172670D01*
X0094009Y0171872D02*
X0107709Y0171872D01*
X0107709Y0171073D02*
X0094009Y0171073D01*
X0094009Y0170275D02*
X0107816Y0170275D01*
X0108147Y0169476D02*
X0094009Y0169476D01*
X0094009Y0168678D02*
X0108553Y0168678D01*
X0109352Y0167879D02*
X0094009Y0167879D01*
X0094009Y0167081D02*
X0110720Y0167081D01*
X0114099Y0167081D02*
X0162109Y0167081D01*
X0162109Y0167879D02*
X0115467Y0167879D01*
X0116266Y0168678D02*
X0162109Y0168678D01*
X0162109Y0169476D02*
X0116671Y0169476D01*
X0117002Y0170275D02*
X0162109Y0170275D01*
X0162109Y0171073D02*
X0117109Y0171073D01*
X0117109Y0171872D02*
X0162109Y0171872D01*
X0162109Y0172670D02*
X0116999Y0172670D01*
X0116668Y0173469D02*
X0162109Y0173469D01*
X0162109Y0174267D02*
X0116257Y0174267D01*
X0115459Y0175066D02*
X0162109Y0175066D01*
X0162109Y0175864D02*
X0114078Y0175864D01*
X0115017Y0177461D02*
X0162109Y0177461D01*
X0162109Y0176663D02*
X0094009Y0176663D01*
X0094009Y0166282D02*
X0162109Y0166282D01*
X0162109Y0165484D02*
X0094009Y0165484D01*
X0094009Y0164685D02*
X0162109Y0164685D01*
X0162109Y0163887D02*
X0094009Y0163887D01*
X0094009Y0163088D02*
X0162109Y0163088D01*
X0162109Y0162290D02*
X0094009Y0162290D01*
X0094009Y0161491D02*
X0162109Y0161491D01*
X0162109Y0160693D02*
X0094009Y0160693D01*
X0094009Y0159894D02*
X0162109Y0159894D01*
X0162109Y0159096D02*
X0094009Y0159096D01*
X0094009Y0158297D02*
X0162109Y0158297D01*
X0162109Y0157498D02*
X0094009Y0157498D01*
X0094009Y0156700D02*
X0162109Y0156700D01*
X0162109Y0155901D02*
X0094009Y0155901D01*
X0094009Y0155103D02*
X0162109Y0155103D01*
X0162109Y0154304D02*
X0094009Y0154304D01*
X0094009Y0153506D02*
X0162109Y0153506D01*
X0162109Y0152707D02*
X0094009Y0152707D01*
X0094009Y0151909D02*
X0162109Y0151909D01*
X0162109Y0151110D02*
X0094009Y0151110D01*
X0094009Y0150312D02*
X0162109Y0150312D01*
X0162109Y0149513D02*
X0094009Y0149513D01*
X0094009Y0148715D02*
X0162109Y0148715D01*
X0162109Y0147916D02*
X0094009Y0147916D01*
X0094009Y0147118D02*
X0162109Y0147118D01*
X0162109Y0146319D02*
X0094009Y0146319D01*
X0094009Y0145521D02*
X0123339Y0145521D01*
X0123695Y0145668D02*
X0121820Y0144892D01*
X0120386Y0143457D01*
X0119609Y0141583D01*
X0119609Y0139554D01*
X0120386Y0137679D01*
X0121820Y0136245D01*
X0123695Y0135468D01*
X0125724Y0135468D01*
X0127598Y0136245D01*
X0129033Y0137679D01*
X0129401Y0138568D01*
X0159418Y0138568D01*
X0159786Y0137679D01*
X0161220Y0136245D01*
X0163095Y0135468D01*
X0165124Y0135468D01*
X0166998Y0136245D01*
X0168433Y0137679D01*
X0169209Y0139554D01*
X0169209Y0141583D01*
X0168433Y0143457D01*
X0166998Y0144892D01*
X0166109Y0145260D01*
X0166109Y0188340D01*
X0173654Y0195884D01*
X0173693Y0195868D01*
X0175125Y0195868D01*
X0176449Y0196416D01*
X0177461Y0197429D01*
X0178009Y0198752D01*
X0178009Y0200184D01*
X0177461Y0201507D01*
X0176449Y0202520D01*
X0175125Y0203068D01*
X0173693Y0203068D01*
X0172370Y0202520D01*
X0171357Y0201507D01*
X0170809Y0200184D01*
X0170809Y0198752D01*
X0170826Y0198713D01*
X0163281Y0191168D01*
X0162109Y0189997D01*
X0162109Y0145260D01*
X0161220Y0144892D01*
X0159786Y0143457D01*
X0159418Y0142568D01*
X0129401Y0142568D01*
X0129033Y0143457D01*
X0127598Y0144892D01*
X0125724Y0145668D01*
X0123695Y0145668D01*
X0121651Y0144722D02*
X0094009Y0144722D01*
X0094009Y0143924D02*
X0120852Y0143924D01*
X0120248Y0143125D02*
X0094009Y0143125D01*
X0094009Y0142327D02*
X0119918Y0142327D01*
X0119609Y0141528D02*
X0094009Y0141528D01*
X0094009Y0140730D02*
X0119609Y0140730D01*
X0119609Y0139931D02*
X0094009Y0139931D01*
X0094009Y0139133D02*
X0119784Y0139133D01*
X0120115Y0138334D02*
X0094009Y0138334D01*
X0094009Y0137536D02*
X0120529Y0137536D01*
X0121328Y0136737D02*
X0094009Y0136737D01*
X0094009Y0135939D02*
X0122559Y0135939D01*
X0126860Y0135939D02*
X0161959Y0135939D01*
X0160728Y0136737D02*
X0128091Y0136737D01*
X0128889Y0137536D02*
X0159929Y0137536D01*
X0159515Y0138334D02*
X0129304Y0138334D01*
X0129170Y0143125D02*
X0159648Y0143125D01*
X0160252Y0143924D02*
X0128566Y0143924D01*
X0127768Y0144722D02*
X0161051Y0144722D01*
X0162109Y0145521D02*
X0126080Y0145521D01*
X0124709Y0140568D02*
X0164109Y0140568D01*
X0164109Y0189168D01*
X0174409Y0199468D01*
X0177790Y0198223D02*
X0180204Y0198223D01*
X0181002Y0199021D02*
X0178009Y0199021D01*
X0178009Y0199820D02*
X0181801Y0199820D01*
X0182599Y0200618D02*
X0177830Y0200618D01*
X0177499Y0201417D02*
X0183398Y0201417D01*
X0184197Y0202215D02*
X0176754Y0202215D01*
X0175257Y0203014D02*
X0184995Y0203014D01*
X0185794Y0203812D02*
X0143582Y0203812D01*
X0142783Y0203014D02*
X0173562Y0203014D01*
X0172065Y0202215D02*
X0141985Y0202215D01*
X0141186Y0201417D02*
X0171320Y0201417D01*
X0170989Y0200618D02*
X0140388Y0200618D01*
X0139589Y0199820D02*
X0170809Y0199820D01*
X0170809Y0199021D02*
X0138791Y0199021D01*
X0137992Y0198223D02*
X0170335Y0198223D01*
X0169537Y0197424D02*
X0137194Y0197424D01*
X0136395Y0196626D02*
X0168738Y0196626D01*
X0167940Y0195827D02*
X0135597Y0195827D01*
X0134798Y0195029D02*
X0167141Y0195029D01*
X0166343Y0194230D02*
X0134000Y0194230D01*
X0133201Y0193431D02*
X0165544Y0193431D01*
X0164746Y0192633D02*
X0132403Y0192633D01*
X0131604Y0191834D02*
X0163947Y0191834D01*
X0163149Y0191036D02*
X0130806Y0191036D01*
X0130007Y0190237D02*
X0162350Y0190237D01*
X0162109Y0189439D02*
X0129209Y0189439D01*
X0128410Y0188640D02*
X0162109Y0188640D01*
X0162109Y0187842D02*
X0127612Y0187842D01*
X0126813Y0187043D02*
X0162109Y0187043D01*
X0162109Y0186245D02*
X0126014Y0186245D01*
X0125216Y0185446D02*
X0162109Y0185446D01*
X0162109Y0184648D02*
X0124417Y0184648D01*
X0123619Y0183849D02*
X0162109Y0183849D01*
X0162109Y0183051D02*
X0122820Y0183051D01*
X0122022Y0182252D02*
X0162109Y0182252D01*
X0162109Y0181454D02*
X0121223Y0181454D01*
X0120425Y0180655D02*
X0162109Y0180655D01*
X0162109Y0179857D02*
X0119626Y0179857D01*
X0116498Y0179058D02*
X0162109Y0179058D01*
X0162109Y0178260D02*
X0115848Y0178260D01*
X0116510Y0183849D02*
X0117962Y0183849D01*
X0118761Y0184648D02*
X0115876Y0184648D01*
X0115078Y0185446D02*
X0119559Y0185446D01*
X0118343Y0194230D02*
X0116294Y0194230D01*
X0115496Y0195029D02*
X0119141Y0195029D01*
X0119940Y0195827D02*
X0114168Y0195827D01*
X0114928Y0197424D02*
X0121537Y0197424D01*
X0122335Y0198223D02*
X0115811Y0198223D01*
X0116483Y0199021D02*
X0123134Y0199021D01*
X0123932Y0199820D02*
X0119589Y0199820D01*
X0120738Y0196626D02*
X0094009Y0196626D01*
X0094009Y0197424D02*
X0109891Y0197424D01*
X0109008Y0198223D02*
X0094009Y0198223D01*
X0094009Y0199021D02*
X0108336Y0199021D01*
X0108005Y0199820D02*
X0094009Y0199820D01*
X0094009Y0200618D02*
X0107709Y0200618D01*
X0166109Y0187842D02*
X0174609Y0187842D01*
X0174609Y0188640D02*
X0166410Y0188640D01*
X0167209Y0189439D02*
X0174609Y0189439D01*
X0174609Y0190237D02*
X0168007Y0190237D01*
X0168806Y0191036D02*
X0174609Y0191036D01*
X0174609Y0191834D02*
X0169604Y0191834D01*
X0170403Y0192633D02*
X0174861Y0192633D01*
X0175413Y0193431D02*
X0171201Y0193431D01*
X0172000Y0194230D02*
X0176211Y0194230D01*
X0177010Y0195029D02*
X0172798Y0195029D01*
X0173597Y0195827D02*
X0177808Y0195827D01*
X0178607Y0196626D02*
X0176658Y0196626D01*
X0177456Y0197424D02*
X0179405Y0197424D01*
X0180937Y0191036D02*
X0187922Y0191036D01*
X0188078Y0190237D02*
X0180209Y0190237D01*
X0180209Y0189439D02*
X0188393Y0189439D01*
X0188902Y0188640D02*
X0180209Y0188640D01*
X0180209Y0187842D02*
X0189745Y0187842D01*
X0188308Y0183849D02*
X0180209Y0183849D01*
X0180209Y0183051D02*
X0187978Y0183051D01*
X0187709Y0182252D02*
X0180209Y0182252D01*
X0180209Y0181454D02*
X0187709Y0181454D01*
X0187709Y0180655D02*
X0180209Y0180655D01*
X0180209Y0179857D02*
X0187970Y0179857D01*
X0187171Y0179058D02*
X0180209Y0179058D01*
X0180209Y0178260D02*
X0186373Y0178260D01*
X0185574Y0177461D02*
X0180209Y0177461D01*
X0180209Y0176663D02*
X0184776Y0176663D01*
X0184409Y0175864D02*
X0180209Y0175864D01*
X0180209Y0175066D02*
X0184409Y0175066D01*
X0184409Y0174267D02*
X0180209Y0174267D01*
X0180209Y0173469D02*
X0184409Y0173469D01*
X0184409Y0172670D02*
X0180209Y0172670D01*
X0180209Y0171872D02*
X0184409Y0171872D01*
X0184409Y0171073D02*
X0180209Y0171073D01*
X0180209Y0170275D02*
X0184409Y0170275D01*
X0184409Y0169476D02*
X0180209Y0169476D01*
X0180209Y0168678D02*
X0184409Y0168678D01*
X0184409Y0167879D02*
X0180209Y0167879D01*
X0180209Y0167081D02*
X0184969Y0167081D01*
X0185767Y0166282D02*
X0180209Y0166282D01*
X0180209Y0165484D02*
X0186566Y0165484D01*
X0187364Y0164685D02*
X0180209Y0164685D01*
X0180209Y0163887D02*
X0188163Y0163887D01*
X0189409Y0165468D02*
X0196409Y0165468D01*
X0200409Y0169468D01*
X0200409Y0177468D01*
X0202409Y0179468D01*
X0211409Y0179468D01*
X0214409Y0182468D01*
X0214409Y0187468D01*
X0217409Y0190468D01*
X0257409Y0190468D01*
X0260409Y0187468D01*
X0260409Y0180468D01*
X0266409Y0174468D01*
X0262067Y0172670D02*
X0260409Y0172670D01*
X0260409Y0171872D02*
X0262398Y0171872D01*
X0263158Y0171073D02*
X0260409Y0171073D01*
X0260409Y0170275D02*
X0264252Y0170275D01*
X0264290Y0168678D02*
X0260409Y0168678D01*
X0260409Y0169476D02*
X0283723Y0169476D01*
X0283723Y0168678D02*
X0268529Y0168678D01*
X0269645Y0167879D02*
X0283723Y0167879D01*
X0283723Y0167081D02*
X0270415Y0167081D01*
X0270745Y0166282D02*
X0283723Y0166282D01*
X0283723Y0165484D02*
X0271076Y0165484D01*
X0271109Y0164685D02*
X0283723Y0164685D01*
X0283723Y0163887D02*
X0271109Y0163887D01*
X0270925Y0163088D02*
X0283723Y0163088D01*
X0283723Y0162290D02*
X0270594Y0162290D01*
X0270079Y0161491D02*
X0283723Y0161491D01*
X0283723Y0160693D02*
X0269281Y0160693D01*
X0267648Y0159894D02*
X0283723Y0159894D01*
X0283723Y0159096D02*
X0267520Y0159096D01*
X0269227Y0158297D02*
X0283723Y0158297D01*
X0283723Y0157498D02*
X0270026Y0157498D01*
X0270572Y0156700D02*
X0283723Y0156700D01*
X0283723Y0155901D02*
X0270903Y0155901D01*
X0271109Y0155103D02*
X0283723Y0155103D01*
X0283723Y0154304D02*
X0271109Y0154304D01*
X0271098Y0153506D02*
X0283723Y0153506D01*
X0283723Y0152707D02*
X0270767Y0152707D01*
X0270437Y0151909D02*
X0283723Y0151909D01*
X0283723Y0151110D02*
X0269698Y0151110D01*
X0268657Y0150312D02*
X0283723Y0150312D01*
X0283723Y0149513D02*
X0261409Y0149513D01*
X0261409Y0148715D02*
X0264380Y0148715D01*
X0263747Y0148453D02*
X0265474Y0149168D01*
X0267344Y0149168D01*
X0269072Y0148453D01*
X0270394Y0147131D01*
X0271109Y0145403D01*
X0271109Y0143533D01*
X0270394Y0141806D01*
X0269072Y0140484D01*
X0267344Y0139768D01*
X0265474Y0139768D01*
X0263747Y0140484D01*
X0262425Y0141806D01*
X0261709Y0143533D01*
X0261709Y0145403D01*
X0262425Y0147131D01*
X0263747Y0148453D01*
X0263211Y0147916D02*
X0261409Y0147916D01*
X0261409Y0147118D02*
X0262420Y0147118D01*
X0262089Y0146319D02*
X0261409Y0146319D01*
X0261409Y0145521D02*
X0261758Y0145521D01*
X0261709Y0144722D02*
X0261409Y0144722D01*
X0261409Y0143924D02*
X0261709Y0143924D01*
X0261878Y0143125D02*
X0261409Y0143125D01*
X0261409Y0142327D02*
X0262209Y0142327D01*
X0262702Y0141528D02*
X0261409Y0141528D01*
X0261409Y0140730D02*
X0263501Y0140730D01*
X0265081Y0139931D02*
X0261409Y0139931D01*
X0261409Y0139133D02*
X0265389Y0139133D01*
X0265474Y0139168D02*
X0263747Y0138453D01*
X0262425Y0137131D01*
X0261709Y0135403D01*
X0261709Y0133533D01*
X0262425Y0131806D01*
X0263747Y0130484D01*
X0265474Y0129768D01*
X0267344Y0129768D01*
X0269072Y0130484D01*
X0270394Y0131806D01*
X0271109Y0133533D01*
X0271109Y0135403D01*
X0270394Y0137131D01*
X0269072Y0138453D01*
X0267344Y0139168D01*
X0265474Y0139168D01*
X0267430Y0139133D02*
X0283723Y0139133D01*
X0283723Y0139931D02*
X0267738Y0139931D01*
X0269318Y0140730D02*
X0283723Y0140730D01*
X0283723Y0141528D02*
X0270116Y0141528D01*
X0270610Y0142327D02*
X0283723Y0142327D01*
X0283723Y0143125D02*
X0270940Y0143125D01*
X0271109Y0143924D02*
X0283723Y0143924D01*
X0283723Y0144722D02*
X0271109Y0144722D01*
X0271061Y0145521D02*
X0283723Y0145521D01*
X0283723Y0146319D02*
X0270730Y0146319D01*
X0270399Y0147118D02*
X0283723Y0147118D01*
X0283723Y0147916D02*
X0269608Y0147916D01*
X0268439Y0148715D02*
X0283723Y0148715D01*
X0283723Y0138334D02*
X0269190Y0138334D01*
X0269989Y0137536D02*
X0283723Y0137536D01*
X0283723Y0136737D02*
X0270557Y0136737D01*
X0270888Y0135939D02*
X0283723Y0135939D01*
X0283723Y0135140D02*
X0271109Y0135140D01*
X0271109Y0134342D02*
X0283723Y0134342D01*
X0283723Y0133543D02*
X0271109Y0133543D01*
X0270783Y0132745D02*
X0283723Y0132745D01*
X0283723Y0131946D02*
X0270452Y0131946D01*
X0269736Y0131148D02*
X0283723Y0131148D01*
X0283723Y0130349D02*
X0268747Y0130349D01*
X0268349Y0128752D02*
X0283723Y0128752D01*
X0283723Y0127954D02*
X0269571Y0127954D01*
X0269072Y0128453D02*
X0270394Y0127131D01*
X0271109Y0125403D01*
X0271109Y0123533D01*
X0270394Y0121806D01*
X0269072Y0120484D01*
X0267344Y0119768D01*
X0265474Y0119768D01*
X0263747Y0120484D01*
X0262425Y0121806D01*
X0261709Y0123533D01*
X0261709Y0125403D01*
X0262425Y0127131D01*
X0263747Y0128453D01*
X0265474Y0129168D01*
X0267344Y0129168D01*
X0269072Y0128453D01*
X0270369Y0127155D02*
X0283723Y0127155D01*
X0283723Y0126357D02*
X0270714Y0126357D01*
X0271045Y0125558D02*
X0283723Y0125558D01*
X0283723Y0124760D02*
X0271109Y0124760D01*
X0271109Y0123961D02*
X0283723Y0123961D01*
X0283723Y0123162D02*
X0270956Y0123162D01*
X0270625Y0122364D02*
X0283723Y0122364D01*
X0283723Y0121565D02*
X0270153Y0121565D01*
X0269355Y0120767D02*
X0283723Y0120767D01*
X0283723Y0119968D02*
X0267828Y0119968D01*
X0267344Y0119168D02*
X0265474Y0119168D01*
X0263747Y0118453D01*
X0262425Y0117131D01*
X0261709Y0115403D01*
X0261709Y0113533D01*
X0262425Y0111806D01*
X0263747Y0110484D01*
X0265474Y0109768D01*
X0267344Y0109768D01*
X0269072Y0110484D01*
X0270394Y0111806D01*
X0271109Y0113533D01*
X0271109Y0115403D01*
X0270394Y0117131D01*
X0269072Y0118453D01*
X0267344Y0119168D01*
X0269153Y0118371D02*
X0283723Y0118371D01*
X0283723Y0117573D02*
X0269951Y0117573D01*
X0270541Y0116774D02*
X0283723Y0116774D01*
X0283723Y0115976D02*
X0270872Y0115976D01*
X0271109Y0115177D02*
X0283723Y0115177D01*
X0283723Y0114379D02*
X0271109Y0114379D01*
X0271109Y0113580D02*
X0283723Y0113580D01*
X0283723Y0112782D02*
X0270798Y0112782D01*
X0270467Y0111983D02*
X0283723Y0111983D01*
X0283723Y0111185D02*
X0269773Y0111185D01*
X0268837Y0110386D02*
X0283723Y0110386D01*
X0283723Y0109588D02*
X0261409Y0109588D01*
X0261409Y0110386D02*
X0263982Y0110386D01*
X0263046Y0111185D02*
X0261409Y0111185D01*
X0261409Y0111983D02*
X0262351Y0111983D01*
X0262021Y0112782D02*
X0261409Y0112782D01*
X0261409Y0113580D02*
X0261709Y0113580D01*
X0261709Y0114379D02*
X0261409Y0114379D01*
X0261409Y0115177D02*
X0261709Y0115177D01*
X0261947Y0115976D02*
X0261409Y0115976D01*
X0261409Y0116774D02*
X0262277Y0116774D01*
X0262867Y0117573D02*
X0261409Y0117573D01*
X0261409Y0118371D02*
X0263666Y0118371D01*
X0264991Y0119968D02*
X0261409Y0119968D01*
X0261409Y0119170D02*
X0283723Y0119170D01*
X0283723Y0108789D02*
X0268259Y0108789D01*
X0269072Y0108453D02*
X0267344Y0109168D01*
X0265474Y0109168D01*
X0263747Y0108453D01*
X0262425Y0107131D01*
X0261709Y0105403D01*
X0261709Y0103533D01*
X0262425Y0101806D01*
X0263747Y0100484D01*
X0265474Y0099768D01*
X0267344Y0099768D01*
X0269072Y0100484D01*
X0270394Y0101806D01*
X0271109Y0103533D01*
X0271109Y0105403D01*
X0270394Y0107131D01*
X0269072Y0108453D01*
X0269534Y0107991D02*
X0283723Y0107991D01*
X0283723Y0107192D02*
X0270332Y0107192D01*
X0270699Y0106394D02*
X0283723Y0106394D01*
X0283723Y0105595D02*
X0271030Y0105595D01*
X0271109Y0104797D02*
X0283723Y0104797D01*
X0283723Y0103998D02*
X0271109Y0103998D01*
X0270971Y0103200D02*
X0283723Y0103200D01*
X0283723Y0102401D02*
X0270640Y0102401D01*
X0270191Y0101603D02*
X0283723Y0101603D01*
X0283723Y0100804D02*
X0269392Y0100804D01*
X0267918Y0100006D02*
X0283723Y0100006D01*
X0283723Y0099207D02*
X0259000Y0099207D01*
X0259009Y0098409D02*
X0263703Y0098409D01*
X0263747Y0098453D02*
X0262425Y0097131D01*
X0261709Y0095403D01*
X0261709Y0093533D01*
X0262425Y0091806D01*
X0263747Y0090484D01*
X0265474Y0089768D01*
X0267344Y0089768D01*
X0269072Y0090484D01*
X0270394Y0091806D01*
X0271109Y0093533D01*
X0271109Y0095403D01*
X0270394Y0097131D01*
X0269072Y0098453D01*
X0267344Y0099168D01*
X0265474Y0099168D01*
X0263747Y0098453D01*
X0262905Y0097610D02*
X0258951Y0097610D01*
X0258620Y0096812D02*
X0262293Y0096812D01*
X0261962Y0096013D02*
X0258045Y0096013D01*
X0256962Y0095215D02*
X0261709Y0095215D01*
X0261709Y0094416D02*
X0230756Y0094416D01*
X0230756Y0093618D02*
X0261709Y0093618D01*
X0262005Y0092819D02*
X0230756Y0092819D01*
X0230756Y0092021D02*
X0262336Y0092021D01*
X0263009Y0091222D02*
X0230756Y0091222D01*
X0230756Y0090424D02*
X0263892Y0090424D01*
X0264650Y0088827D02*
X0230756Y0088827D01*
X0230756Y0089625D02*
X0283723Y0089625D01*
X0283723Y0088827D02*
X0268169Y0088827D01*
X0267344Y0089168D02*
X0269072Y0088453D01*
X0270394Y0087131D01*
X0271109Y0085403D01*
X0271109Y0083533D01*
X0270394Y0081806D01*
X0269072Y0080484D01*
X0267344Y0079768D01*
X0265474Y0079768D01*
X0263747Y0080484D01*
X0262425Y0081806D01*
X0261709Y0083533D01*
X0261709Y0085403D01*
X0262425Y0087131D01*
X0263747Y0088453D01*
X0265474Y0089168D01*
X0267344Y0089168D01*
X0268926Y0090424D02*
X0283723Y0090424D01*
X0283723Y0091222D02*
X0269810Y0091222D01*
X0270483Y0092021D02*
X0283723Y0092021D01*
X0283723Y0092819D02*
X0270814Y0092819D01*
X0271109Y0093618D02*
X0283723Y0093618D01*
X0283723Y0094416D02*
X0271109Y0094416D01*
X0271109Y0095215D02*
X0283723Y0095215D01*
X0283723Y0096013D02*
X0270857Y0096013D01*
X0270526Y0096812D02*
X0283723Y0096812D01*
X0283723Y0097610D02*
X0269914Y0097610D01*
X0269116Y0098409D02*
X0283723Y0098409D01*
X0283723Y0088028D02*
X0269496Y0088028D01*
X0270295Y0087229D02*
X0283723Y0087229D01*
X0283723Y0086431D02*
X0270684Y0086431D01*
X0271014Y0085632D02*
X0283723Y0085632D01*
X0283723Y0084834D02*
X0271109Y0084834D01*
X0271109Y0084035D02*
X0283723Y0084035D01*
X0283723Y0083237D02*
X0270987Y0083237D01*
X0270656Y0082438D02*
X0283723Y0082438D01*
X0283723Y0081640D02*
X0270228Y0081640D01*
X0269429Y0080841D02*
X0283723Y0080841D01*
X0283723Y0080043D02*
X0268007Y0080043D01*
X0267463Y0078857D02*
X0266809Y0078961D01*
X0266809Y0074868D01*
X0266009Y0074868D01*
X0266009Y0074068D01*
X0261917Y0074068D01*
X0262020Y0073414D01*
X0262239Y0072741D01*
X0262561Y0072110D01*
X0262977Y0071537D01*
X0263478Y0071036D01*
X0264051Y0070619D01*
X0264682Y0070298D01*
X0265356Y0070079D01*
X0266009Y0069975D01*
X0266009Y0074068D01*
X0266809Y0074068D01*
X0266809Y0069975D01*
X0267463Y0070079D01*
X0268137Y0070298D01*
X0268768Y0070619D01*
X0269341Y0071036D01*
X0269842Y0071537D01*
X0270258Y0072110D01*
X0270580Y0072741D01*
X0270799Y0073414D01*
X0270902Y0074068D01*
X0266809Y0074068D01*
X0266809Y0074868D01*
X0270902Y0074868D01*
X0270799Y0075522D01*
X0270580Y0076196D01*
X0270258Y0076827D01*
X0269842Y0077400D01*
X0269341Y0077901D01*
X0268768Y0078317D01*
X0268137Y0078638D01*
X0267463Y0078857D01*
X0266809Y0078446D02*
X0266009Y0078446D01*
X0266009Y0078961D02*
X0265356Y0078857D01*
X0264682Y0078638D01*
X0264051Y0078317D01*
X0263478Y0077901D01*
X0262977Y0077400D01*
X0262561Y0076827D01*
X0262239Y0076196D01*
X0262020Y0075522D01*
X0261917Y0074868D01*
X0266009Y0074868D01*
X0266009Y0078961D01*
X0266009Y0077647D02*
X0266809Y0077647D01*
X0266809Y0076849D02*
X0266009Y0076849D01*
X0266009Y0076050D02*
X0266809Y0076050D01*
X0266809Y0075252D02*
X0266009Y0075252D01*
X0266009Y0074453D02*
X0211109Y0074453D01*
X0211109Y0073655D02*
X0261982Y0073655D01*
X0262202Y0072856D02*
X0210829Y0072856D01*
X0211109Y0073533D02*
X0210394Y0071806D01*
X0209072Y0070484D01*
X0207344Y0069768D01*
X0205474Y0069768D01*
X0203747Y0070484D01*
X0202563Y0071668D01*
X0186852Y0071668D01*
X0185823Y0072094D01*
X0185036Y0072882D01*
X0185036Y0072882D01*
X0166250Y0091668D01*
X0146986Y0091668D01*
X0146902Y0091466D01*
X0145412Y0089975D01*
X0143464Y0089168D01*
X0141355Y0089168D01*
X0139407Y0089975D01*
X0137916Y0091466D01*
X0137289Y0092981D01*
X0137136Y0092510D01*
X0136771Y0091795D01*
X0136299Y0091146D01*
X0135732Y0090578D01*
X0135082Y0090106D01*
X0134367Y0089742D01*
X0133604Y0089494D01*
X0132811Y0089368D01*
X0132809Y0089368D01*
X0132809Y0094068D01*
X0132009Y0094068D01*
X0132009Y0089368D01*
X0132008Y0089368D01*
X0131215Y0089494D01*
X0130452Y0089742D01*
X0129736Y0090106D01*
X0129087Y0090578D01*
X0128519Y0091146D01*
X0128047Y0091795D01*
X0127683Y0092510D01*
X0127530Y0092981D01*
X0126902Y0091466D01*
X0125509Y0090073D01*
X0125509Y0081852D01*
X0125037Y0080712D01*
X0123745Y0079420D01*
X0124009Y0078781D01*
X0124009Y0076155D01*
X0123005Y0073730D01*
X0121148Y0071873D01*
X0118722Y0070868D01*
X0116097Y0070868D01*
X0113671Y0071873D01*
X0111814Y0073730D01*
X0110809Y0076155D01*
X0110809Y0078781D01*
X0111814Y0081207D01*
X0113671Y0083063D01*
X0116097Y0084068D01*
X0118722Y0084068D01*
X0119309Y0083825D01*
X0119309Y0090073D01*
X0117916Y0091466D01*
X0117409Y0092690D01*
X0116902Y0091466D01*
X0115412Y0089975D01*
X0113464Y0089168D01*
X0111355Y0089168D01*
X0109407Y0089975D01*
X0107916Y0091466D01*
X0107109Y0093414D01*
X0107109Y0095522D01*
X0107916Y0097470D01*
X0109407Y0098961D01*
X0111355Y0099768D01*
X0113464Y0099768D01*
X0115412Y0098961D01*
X0116902Y0097470D01*
X0117409Y0096247D01*
X0117916Y0097470D01*
X0119407Y0098961D01*
X0121355Y0099768D01*
X0123464Y0099768D01*
X0125412Y0098961D01*
X0126902Y0097470D01*
X0127530Y0095955D01*
X0127683Y0096426D01*
X0128047Y0097141D01*
X0128519Y0097791D01*
X0129087Y0098358D01*
X0129736Y0098830D01*
X0130452Y0099195D01*
X0131215Y0099443D01*
X0132008Y0099568D01*
X0132009Y0099568D01*
X0132009Y0094868D01*
X0132809Y0094868D01*
X0132809Y0099568D01*
X0132811Y0099568D01*
X0133604Y0099443D01*
X0134367Y0099195D01*
X0135082Y0098830D01*
X0135732Y0098358D01*
X0136299Y0097791D01*
X0136771Y0097141D01*
X0137136Y0096426D01*
X0137289Y0095955D01*
X0137916Y0097470D01*
X0139407Y0098961D01*
X0141355Y0099768D01*
X0143464Y0099768D01*
X0145412Y0098961D01*
X0146902Y0097470D01*
X0146986Y0097268D01*
X0167966Y0097268D01*
X0168995Y0096842D01*
X0169783Y0096054D01*
X0169783Y0096054D01*
X0188569Y0077268D01*
X0202563Y0077268D01*
X0203747Y0078453D01*
X0205474Y0079168D01*
X0207344Y0079168D01*
X0209072Y0078453D01*
X0210394Y0077131D01*
X0211109Y0075403D01*
X0211109Y0073533D01*
X0210498Y0072058D02*
X0262598Y0072058D01*
X0263254Y0071259D02*
X0209847Y0071259D01*
X0209016Y0070461D02*
X0264362Y0070461D01*
X0266009Y0070461D02*
X0266809Y0070461D01*
X0266809Y0071259D02*
X0266009Y0071259D01*
X0266009Y0072058D02*
X0266809Y0072058D01*
X0266809Y0072856D02*
X0266009Y0072856D01*
X0266009Y0073655D02*
X0266809Y0073655D01*
X0266809Y0074453D02*
X0283723Y0074453D01*
X0283723Y0073655D02*
X0270837Y0073655D01*
X0270617Y0072856D02*
X0283723Y0072856D01*
X0283723Y0072058D02*
X0270220Y0072058D01*
X0269564Y0071259D02*
X0283723Y0071259D01*
X0283723Y0070461D02*
X0268456Y0070461D01*
X0270841Y0075252D02*
X0283723Y0075252D01*
X0283723Y0076050D02*
X0270627Y0076050D01*
X0270242Y0076849D02*
X0283723Y0076849D01*
X0283723Y0077647D02*
X0269594Y0077647D01*
X0268515Y0078446D02*
X0283723Y0078446D01*
X0283723Y0079244D02*
X0250799Y0079244D01*
X0251009Y0080043D02*
X0264811Y0080043D01*
X0263389Y0080841D02*
X0251009Y0080841D01*
X0250821Y0081640D02*
X0262591Y0081640D01*
X0262163Y0082438D02*
X0250490Y0082438D01*
X0249732Y0083237D02*
X0261832Y0083237D01*
X0261709Y0084035D02*
X0248205Y0084035D01*
X0246614Y0084035D02*
X0231671Y0084035D01*
X0232469Y0083237D02*
X0245087Y0083237D01*
X0247409Y0080468D02*
X0232409Y0080468D01*
X0228756Y0084122D01*
X0228756Y0104468D01*
X0232521Y0104797D02*
X0257409Y0104797D01*
X0257409Y0105595D02*
X0232521Y0105595D01*
X0232521Y0106394D02*
X0257409Y0106394D01*
X0257409Y0107192D02*
X0232428Y0107192D01*
X0231630Y0107991D02*
X0257409Y0107991D01*
X0257409Y0108789D02*
X0223409Y0108789D01*
X0223409Y0109588D02*
X0242199Y0109588D01*
X0241400Y0110386D02*
X0223409Y0110386D01*
X0223409Y0111185D02*
X0241044Y0111185D01*
X0240809Y0111983D02*
X0223409Y0111983D01*
X0223409Y0112782D02*
X0240809Y0112782D01*
X0240973Y0113580D02*
X0223409Y0113580D01*
X0223409Y0114379D02*
X0241304Y0114379D01*
X0242027Y0115177D02*
X0223409Y0115177D01*
X0223409Y0115976D02*
X0242409Y0115976D01*
X0242409Y0116774D02*
X0223409Y0116774D01*
X0223409Y0117573D02*
X0242409Y0117573D01*
X0242409Y0118371D02*
X0223409Y0118371D01*
X0223409Y0119170D02*
X0242409Y0119170D01*
X0242409Y0119968D02*
X0223409Y0119968D01*
X0223409Y0120767D02*
X0242409Y0120767D01*
X0242409Y0121565D02*
X0223409Y0121565D01*
X0223409Y0122364D02*
X0242409Y0122364D01*
X0242409Y0123162D02*
X0223409Y0123162D01*
X0223409Y0123961D02*
X0242409Y0123961D01*
X0242409Y0124760D02*
X0223409Y0124760D01*
X0223409Y0125558D02*
X0242671Y0125558D01*
X0243469Y0126357D02*
X0223409Y0126357D01*
X0223409Y0127155D02*
X0244268Y0127155D01*
X0245066Y0127954D02*
X0223409Y0127954D01*
X0223409Y0128752D02*
X0245865Y0128752D01*
X0247409Y0127468D02*
X0254409Y0127468D01*
X0252027Y0124760D02*
X0247529Y0124760D01*
X0246731Y0123961D02*
X0253469Y0123961D01*
X0255350Y0123961D02*
X0257409Y0123961D01*
X0257409Y0123162D02*
X0246409Y0123162D01*
X0246409Y0122364D02*
X0257409Y0122364D01*
X0257409Y0121565D02*
X0246409Y0121565D01*
X0246409Y0120767D02*
X0257409Y0120767D01*
X0257409Y0119968D02*
X0246409Y0119968D01*
X0246409Y0119170D02*
X0257409Y0119170D01*
X0257409Y0118371D02*
X0246409Y0118371D01*
X0246409Y0117573D02*
X0257409Y0117573D01*
X0257409Y0116774D02*
X0246409Y0116774D01*
X0246409Y0115976D02*
X0257409Y0115976D01*
X0257409Y0115177D02*
X0246791Y0115177D01*
X0247515Y0114379D02*
X0257409Y0114379D01*
X0257409Y0113580D02*
X0247845Y0113580D01*
X0248009Y0112782D02*
X0257409Y0112782D01*
X0257409Y0111983D02*
X0248009Y0111983D01*
X0247774Y0111185D02*
X0257409Y0111185D01*
X0257409Y0110386D02*
X0247419Y0110386D01*
X0246620Y0109588D02*
X0257409Y0109588D01*
X0261409Y0108789D02*
X0264560Y0108789D01*
X0263285Y0107991D02*
X0261409Y0107991D01*
X0261409Y0107192D02*
X0262487Y0107192D01*
X0262120Y0106394D02*
X0261409Y0106394D01*
X0261409Y0105595D02*
X0261789Y0105595D01*
X0261709Y0104797D02*
X0261409Y0104797D01*
X0261409Y0103998D02*
X0261709Y0103998D01*
X0261848Y0103200D02*
X0261409Y0103200D01*
X0261409Y0102401D02*
X0262178Y0102401D01*
X0262628Y0101603D02*
X0261372Y0101603D01*
X0260574Y0100804D02*
X0263427Y0100804D01*
X0264901Y0100006D02*
X0259775Y0100006D01*
X0259409Y0102468D02*
X0255409Y0098468D01*
X0251809Y0098409D02*
X0230756Y0098409D01*
X0230756Y0099207D02*
X0251819Y0099207D01*
X0252150Y0100006D02*
X0230756Y0100006D01*
X0230756Y0100804D02*
X0252654Y0100804D01*
X0253570Y0101603D02*
X0232287Y0101603D01*
X0232521Y0102401D02*
X0256514Y0102401D01*
X0257312Y0103200D02*
X0232521Y0103200D01*
X0232521Y0103998D02*
X0257409Y0103998D01*
X0259409Y0102468D02*
X0259409Y0152468D01*
X0261409Y0154468D01*
X0254909Y0160968D01*
X0248509Y0160968D01*
X0243618Y0158297D02*
X0240409Y0158297D01*
X0240409Y0159096D02*
X0242909Y0159096D01*
X0242909Y0159894D02*
X0240409Y0159894D01*
X0240409Y0160693D02*
X0242909Y0160693D01*
X0242909Y0161491D02*
X0240409Y0161491D01*
X0240409Y0162290D02*
X0242909Y0162290D01*
X0243067Y0163088D02*
X0240409Y0163088D01*
X0240409Y0163887D02*
X0243028Y0163887D01*
X0242909Y0164685D02*
X0240455Y0164685D01*
X0241253Y0165484D02*
X0242909Y0165484D01*
X0242909Y0166282D02*
X0242052Y0166282D01*
X0241409Y0168468D02*
X0238409Y0165468D01*
X0238409Y0147468D01*
X0235029Y0148715D02*
X0232713Y0148715D01*
X0232778Y0147916D02*
X0234809Y0147916D01*
X0234809Y0147118D02*
X0232778Y0147118D01*
X0232778Y0145521D02*
X0235319Y0145521D01*
X0234989Y0146319D02*
X0229809Y0146319D01*
X0229809Y0145521D02*
X0229009Y0145521D01*
X0229009Y0146319D02*
X0223409Y0146319D01*
X0223409Y0145521D02*
X0226041Y0145521D01*
X0226041Y0144722D02*
X0223409Y0144722D01*
X0223409Y0143924D02*
X0226041Y0143924D01*
X0226304Y0143125D02*
X0223409Y0143125D01*
X0223409Y0142327D02*
X0257409Y0142327D01*
X0257409Y0143125D02*
X0232515Y0143125D01*
X0232778Y0143924D02*
X0237559Y0143924D01*
X0236064Y0144722D02*
X0232778Y0144722D01*
X0229809Y0144722D02*
X0229009Y0144722D01*
X0229009Y0143924D02*
X0229809Y0143924D01*
X0229809Y0143125D02*
X0229009Y0143125D01*
X0223409Y0141528D02*
X0257409Y0141528D01*
X0257409Y0140730D02*
X0223409Y0140730D01*
X0223409Y0139931D02*
X0257409Y0139931D01*
X0257409Y0139133D02*
X0223409Y0139133D01*
X0223409Y0138334D02*
X0257409Y0138334D01*
X0257409Y0137536D02*
X0223409Y0137536D01*
X0223409Y0136737D02*
X0257409Y0136737D01*
X0257409Y0135939D02*
X0223409Y0135939D01*
X0223829Y0135140D02*
X0257409Y0135140D01*
X0257409Y0134342D02*
X0224530Y0134342D01*
X0224861Y0133543D02*
X0257409Y0133543D01*
X0257409Y0132745D02*
X0225009Y0132745D01*
X0225009Y0131946D02*
X0257409Y0131946D01*
X0257409Y0131148D02*
X0224759Y0131148D01*
X0224381Y0130349D02*
X0252199Y0130349D01*
X0251401Y0129551D02*
X0223583Y0129551D01*
X0221409Y0132468D02*
X0221409Y0105122D01*
X0222063Y0104468D01*
X0221409Y0103815D01*
X0221409Y0094815D01*
X0221063Y0094468D01*
X0206409Y0094468D01*
X0203009Y0091222D02*
X0174615Y0091222D01*
X0173817Y0092021D02*
X0186002Y0092021D01*
X0185099Y0092819D02*
X0173018Y0092819D01*
X0172220Y0093618D02*
X0184300Y0093618D01*
X0183502Y0094416D02*
X0171421Y0094416D01*
X0170623Y0095215D02*
X0182703Y0095215D01*
X0181905Y0096013D02*
X0169824Y0096013D01*
X0169026Y0096812D02*
X0181106Y0096812D01*
X0180308Y0097610D02*
X0146763Y0097610D01*
X0145964Y0098409D02*
X0179509Y0098409D01*
X0178711Y0099207D02*
X0144818Y0099207D01*
X0140001Y0099207D02*
X0134328Y0099207D01*
X0132809Y0099207D02*
X0132009Y0099207D01*
X0132009Y0098409D02*
X0132809Y0098409D01*
X0132809Y0097610D02*
X0132009Y0097610D01*
X0132009Y0096812D02*
X0132809Y0096812D01*
X0132809Y0096013D02*
X0132009Y0096013D01*
X0132009Y0095215D02*
X0132809Y0095215D01*
X0132809Y0093618D02*
X0132009Y0093618D01*
X0132009Y0092819D02*
X0132809Y0092819D01*
X0132809Y0092021D02*
X0132009Y0092021D01*
X0132009Y0091222D02*
X0132809Y0091222D01*
X0132809Y0090424D02*
X0132009Y0090424D01*
X0132009Y0089625D02*
X0132809Y0089625D01*
X0134008Y0089625D02*
X0140252Y0089625D01*
X0138959Y0090424D02*
X0135519Y0090424D01*
X0136355Y0091222D02*
X0138160Y0091222D01*
X0137687Y0092021D02*
X0136886Y0092021D01*
X0137236Y0092819D02*
X0137356Y0092819D01*
X0137313Y0096013D02*
X0137270Y0096013D01*
X0136939Y0096812D02*
X0137643Y0096812D01*
X0138056Y0097610D02*
X0136431Y0097610D01*
X0135662Y0098409D02*
X0138855Y0098409D01*
X0144566Y0089625D02*
X0168293Y0089625D01*
X0169091Y0088827D02*
X0125509Y0088827D01*
X0125509Y0089625D02*
X0130811Y0089625D01*
X0129300Y0090424D02*
X0125860Y0090424D01*
X0126659Y0091222D02*
X0128464Y0091222D01*
X0127933Y0092021D02*
X0127132Y0092021D01*
X0127463Y0092819D02*
X0127583Y0092819D01*
X0127506Y0096013D02*
X0127549Y0096013D01*
X0127880Y0096812D02*
X0127175Y0096812D01*
X0126763Y0097610D02*
X0128388Y0097610D01*
X0129156Y0098409D02*
X0125964Y0098409D01*
X0124818Y0099207D02*
X0130491Y0099207D01*
X0120001Y0099207D02*
X0114818Y0099207D01*
X0115964Y0098409D02*
X0118855Y0098409D01*
X0118056Y0097610D02*
X0116763Y0097610D01*
X0117175Y0096812D02*
X0117643Y0096812D01*
X0117687Y0092021D02*
X0117132Y0092021D01*
X0116659Y0091222D02*
X0118160Y0091222D01*
X0118959Y0090424D02*
X0115860Y0090424D01*
X0114566Y0089625D02*
X0119309Y0089625D01*
X0119309Y0088827D02*
X0094009Y0088827D01*
X0094009Y0089625D02*
X0110252Y0089625D01*
X0108959Y0090424D02*
X0094009Y0090424D01*
X0094009Y0091222D02*
X0108160Y0091222D01*
X0107687Y0092021D02*
X0094009Y0092021D01*
X0094009Y0092819D02*
X0107356Y0092819D01*
X0107109Y0093618D02*
X0094009Y0093618D01*
X0094009Y0094416D02*
X0107109Y0094416D01*
X0107109Y0095215D02*
X0094009Y0095215D01*
X0094009Y0096013D02*
X0107313Y0096013D01*
X0107643Y0096812D02*
X0094009Y0096812D01*
X0094009Y0097610D02*
X0108056Y0097610D01*
X0108855Y0098409D02*
X0094009Y0098409D01*
X0094009Y0099207D02*
X0110001Y0099207D01*
X0119309Y0088028D02*
X0094009Y0088028D01*
X0094009Y0087229D02*
X0119309Y0087229D01*
X0119309Y0086431D02*
X0094009Y0086431D01*
X0094009Y0085632D02*
X0119309Y0085632D01*
X0119309Y0084834D02*
X0094009Y0084834D01*
X0094009Y0084035D02*
X0116018Y0084035D01*
X0114090Y0083237D02*
X0094009Y0083237D01*
X0094009Y0082438D02*
X0113046Y0082438D01*
X0112247Y0081640D02*
X0094009Y0081640D01*
X0094009Y0080841D02*
X0111663Y0080841D01*
X0111332Y0080043D02*
X0094009Y0080043D01*
X0094009Y0079244D02*
X0111001Y0079244D01*
X0110809Y0078446D02*
X0094009Y0078446D01*
X0094009Y0077647D02*
X0110809Y0077647D01*
X0110809Y0076849D02*
X0094009Y0076849D01*
X0094009Y0076050D02*
X0110853Y0076050D01*
X0111184Y0075252D02*
X0094009Y0075252D01*
X0094009Y0074453D02*
X0111514Y0074453D01*
X0111889Y0073655D02*
X0094009Y0073655D01*
X0094009Y0072856D02*
X0112687Y0072856D01*
X0113486Y0072058D02*
X0094009Y0072058D01*
X0094009Y0071259D02*
X0115152Y0071259D01*
X0119666Y0071259D02*
X0135854Y0071259D01*
X0136158Y0071178D02*
X0136990Y0071068D01*
X0137009Y0071068D01*
X0137009Y0077068D01*
X0131009Y0077068D01*
X0131009Y0077049D01*
X0131119Y0076217D01*
X0131336Y0075407D01*
X0131657Y0074631D01*
X0132077Y0073905D01*
X0132587Y0073239D01*
X0133180Y0072646D01*
X0133846Y0072135D01*
X0134573Y0071716D01*
X0135348Y0071395D01*
X0136158Y0071178D01*
X0137009Y0071259D02*
X0137809Y0071259D01*
X0137809Y0071068D02*
X0137829Y0071068D01*
X0138661Y0071178D01*
X0139471Y0071395D01*
X0140246Y0071716D01*
X0140973Y0072135D01*
X0141638Y0072646D01*
X0142231Y0073239D01*
X0142742Y0073905D01*
X0143162Y0074631D01*
X0143483Y0075407D01*
X0143700Y0076217D01*
X0143809Y0077049D01*
X0143809Y0077068D01*
X0137809Y0077068D01*
X0137809Y0071068D01*
X0137809Y0072058D02*
X0137009Y0072058D01*
X0137009Y0072856D02*
X0137809Y0072856D01*
X0137809Y0073655D02*
X0137009Y0073655D01*
X0137009Y0074453D02*
X0137809Y0074453D01*
X0137809Y0075252D02*
X0137009Y0075252D01*
X0137009Y0076050D02*
X0137809Y0076050D01*
X0137809Y0076849D02*
X0137009Y0076849D01*
X0137009Y0077068D02*
X0137809Y0077068D01*
X0137809Y0077868D01*
X0137009Y0077868D01*
X0137009Y0077068D01*
X0137009Y0077647D02*
X0124009Y0077647D01*
X0124009Y0076849D02*
X0131036Y0076849D01*
X0131164Y0076050D02*
X0123966Y0076050D01*
X0123635Y0075252D02*
X0131400Y0075252D01*
X0131760Y0074453D02*
X0123304Y0074453D01*
X0122930Y0073655D02*
X0132268Y0073655D01*
X0132970Y0072856D02*
X0122131Y0072856D01*
X0121333Y0072058D02*
X0133980Y0072058D01*
X0138965Y0071259D02*
X0155854Y0071259D01*
X0156158Y0071178D02*
X0156990Y0071068D01*
X0157009Y0071068D01*
X0157009Y0077068D01*
X0151009Y0077068D01*
X0151009Y0077049D01*
X0151119Y0076217D01*
X0151336Y0075407D01*
X0151657Y0074631D01*
X0152077Y0073905D01*
X0152587Y0073239D01*
X0153180Y0072646D01*
X0153846Y0072135D01*
X0154573Y0071716D01*
X0155348Y0071395D01*
X0156158Y0071178D01*
X0157009Y0071259D02*
X0157809Y0071259D01*
X0157809Y0071068D02*
X0157829Y0071068D01*
X0158661Y0071178D01*
X0159471Y0071395D01*
X0160246Y0071716D01*
X0160973Y0072135D01*
X0161638Y0072646D01*
X0162231Y0073239D01*
X0162742Y0073905D01*
X0163162Y0074631D01*
X0163483Y0075407D01*
X0163700Y0076217D01*
X0163809Y0077049D01*
X0163809Y0077068D01*
X0157809Y0077068D01*
X0157809Y0071068D01*
X0157809Y0072058D02*
X0157009Y0072058D01*
X0157009Y0072856D02*
X0157809Y0072856D01*
X0157809Y0073655D02*
X0157009Y0073655D01*
X0157009Y0074453D02*
X0157809Y0074453D01*
X0157809Y0075252D02*
X0157009Y0075252D01*
X0157009Y0076050D02*
X0157809Y0076050D01*
X0157809Y0076849D02*
X0157009Y0076849D01*
X0157009Y0077068D02*
X0157809Y0077068D01*
X0157809Y0077868D01*
X0157009Y0077868D01*
X0157009Y0077068D01*
X0157009Y0077647D02*
X0137809Y0077647D01*
X0137809Y0077868D02*
X0143809Y0077868D01*
X0143809Y0077888D01*
X0143700Y0078719D01*
X0143483Y0079530D01*
X0143162Y0080305D01*
X0142742Y0081031D01*
X0142231Y0081697D01*
X0141638Y0082290D01*
X0140973Y0082801D01*
X0140246Y0083220D01*
X0139471Y0083542D01*
X0138661Y0083759D01*
X0137829Y0083868D01*
X0137809Y0083868D01*
X0137809Y0077868D01*
X0137809Y0078446D02*
X0137009Y0078446D01*
X0137009Y0077868D02*
X0137009Y0083868D01*
X0136990Y0083868D01*
X0136158Y0083759D01*
X0135348Y0083542D01*
X0134573Y0083220D01*
X0133846Y0082801D01*
X0133180Y0082290D01*
X0132587Y0081697D01*
X0132077Y0081031D01*
X0131657Y0080305D01*
X0131336Y0079530D01*
X0131119Y0078719D01*
X0131009Y0077888D01*
X0131009Y0077868D01*
X0137009Y0077868D01*
X0137009Y0079244D02*
X0137809Y0079244D01*
X0137809Y0080043D02*
X0137009Y0080043D01*
X0137009Y0080841D02*
X0137809Y0080841D01*
X0137809Y0081640D02*
X0137009Y0081640D01*
X0137009Y0082438D02*
X0137809Y0082438D01*
X0137809Y0083237D02*
X0137009Y0083237D01*
X0134612Y0083237D02*
X0125509Y0083237D01*
X0125509Y0084035D02*
X0173882Y0084035D01*
X0174681Y0083237D02*
X0160206Y0083237D01*
X0160246Y0083220D02*
X0159471Y0083542D01*
X0158661Y0083759D01*
X0157829Y0083868D01*
X0157809Y0083868D01*
X0157809Y0077868D01*
X0163809Y0077868D01*
X0163809Y0077888D01*
X0163700Y0078719D01*
X0163483Y0079530D01*
X0163162Y0080305D01*
X0162742Y0081031D01*
X0162231Y0081697D01*
X0161638Y0082290D01*
X0160973Y0082801D01*
X0160246Y0083220D01*
X0161445Y0082438D02*
X0175479Y0082438D01*
X0176278Y0081640D02*
X0162275Y0081640D01*
X0162852Y0080841D02*
X0177076Y0080841D01*
X0177875Y0080043D02*
X0163270Y0080043D01*
X0163559Y0079244D02*
X0178673Y0079244D01*
X0179472Y0078446D02*
X0163736Y0078446D01*
X0163783Y0076849D02*
X0181069Y0076849D01*
X0180270Y0077647D02*
X0157809Y0077647D01*
X0157809Y0078446D02*
X0157009Y0078446D01*
X0157009Y0077868D02*
X0157009Y0083868D01*
X0156990Y0083868D01*
X0156158Y0083759D01*
X0155348Y0083542D01*
X0154573Y0083220D01*
X0153846Y0082801D01*
X0153180Y0082290D01*
X0152587Y0081697D01*
X0152077Y0081031D01*
X0151657Y0080305D01*
X0151336Y0079530D01*
X0151119Y0078719D01*
X0151009Y0077888D01*
X0151009Y0077868D01*
X0157009Y0077868D01*
X0157009Y0079244D02*
X0157809Y0079244D01*
X0157809Y0080043D02*
X0157009Y0080043D01*
X0157009Y0080841D02*
X0157809Y0080841D01*
X0157809Y0081640D02*
X0157009Y0081640D01*
X0157009Y0082438D02*
X0157809Y0082438D01*
X0157809Y0083237D02*
X0157009Y0083237D01*
X0154612Y0083237D02*
X0140206Y0083237D01*
X0141445Y0082438D02*
X0153374Y0082438D01*
X0152543Y0081640D02*
X0142275Y0081640D01*
X0142852Y0080841D02*
X0151967Y0080841D01*
X0151549Y0080043D02*
X0143270Y0080043D01*
X0143559Y0079244D02*
X0151260Y0079244D01*
X0151083Y0078446D02*
X0143736Y0078446D01*
X0143783Y0076849D02*
X0151036Y0076849D01*
X0151164Y0076050D02*
X0143655Y0076050D01*
X0143419Y0075252D02*
X0151400Y0075252D01*
X0151760Y0074453D02*
X0143059Y0074453D01*
X0142550Y0073655D02*
X0152268Y0073655D01*
X0152970Y0072856D02*
X0141848Y0072856D01*
X0140838Y0072058D02*
X0153980Y0072058D01*
X0158965Y0071259D02*
X0202971Y0071259D01*
X0203802Y0070461D02*
X0094009Y0070461D01*
X0094009Y0069662D02*
X0283723Y0069662D01*
X0283723Y0068864D02*
X0094009Y0068864D01*
X0118801Y0084035D02*
X0119309Y0084035D01*
X0125509Y0084834D02*
X0173084Y0084834D01*
X0172285Y0085632D02*
X0125509Y0085632D01*
X0125509Y0086431D02*
X0171487Y0086431D01*
X0170688Y0087229D02*
X0125509Y0087229D01*
X0125509Y0088028D02*
X0169890Y0088028D01*
X0167494Y0090424D02*
X0145860Y0090424D01*
X0146659Y0091222D02*
X0166696Y0091222D01*
X0175414Y0090424D02*
X0203892Y0090424D01*
X0204682Y0088638D02*
X0204051Y0088317D01*
X0203478Y0087901D01*
X0202977Y0087400D01*
X0202561Y0086827D01*
X0202239Y0086196D01*
X0202020Y0085522D01*
X0201917Y0084868D01*
X0206009Y0084868D01*
X0206009Y0084068D01*
X0201917Y0084068D01*
X0202020Y0083414D01*
X0202239Y0082741D01*
X0202561Y0082110D01*
X0202977Y0081537D01*
X0203478Y0081036D01*
X0204051Y0080619D01*
X0204682Y0080298D01*
X0205356Y0080079D01*
X0206009Y0079975D01*
X0206009Y0084068D01*
X0206809Y0084068D01*
X0206809Y0079975D01*
X0207463Y0080079D01*
X0208137Y0080298D01*
X0208768Y0080619D01*
X0209341Y0081036D01*
X0209842Y0081537D01*
X0210258Y0082110D01*
X0210580Y0082741D01*
X0210799Y0083414D01*
X0210902Y0084068D01*
X0206809Y0084068D01*
X0206809Y0084868D01*
X0206009Y0084868D01*
X0206009Y0088961D01*
X0205356Y0088857D01*
X0204682Y0088638D01*
X0205261Y0088827D02*
X0177011Y0088827D01*
X0176212Y0089625D02*
X0217841Y0089625D01*
X0217841Y0088827D02*
X0207558Y0088827D01*
X0207463Y0088857D02*
X0206809Y0088961D01*
X0206809Y0084868D01*
X0210902Y0084868D01*
X0210799Y0085522D01*
X0210580Y0086196D01*
X0210258Y0086827D01*
X0209842Y0087400D01*
X0209341Y0087901D01*
X0208768Y0088317D01*
X0208137Y0088638D01*
X0207463Y0088857D01*
X0206809Y0088827D02*
X0206009Y0088827D01*
X0206009Y0088028D02*
X0206809Y0088028D01*
X0206809Y0087229D02*
X0206009Y0087229D01*
X0206009Y0086431D02*
X0206809Y0086431D01*
X0206809Y0085632D02*
X0206009Y0085632D01*
X0206009Y0084834D02*
X0181003Y0084834D01*
X0180205Y0085632D02*
X0202056Y0085632D01*
X0202359Y0086431D02*
X0179406Y0086431D01*
X0178608Y0087229D02*
X0202853Y0087229D01*
X0203653Y0088028D02*
X0177809Y0088028D01*
X0181802Y0084035D02*
X0201922Y0084035D01*
X0202078Y0083237D02*
X0182600Y0083237D01*
X0183399Y0082438D02*
X0202393Y0082438D01*
X0202902Y0081640D02*
X0184197Y0081640D01*
X0184996Y0080841D02*
X0203745Y0080841D01*
X0205584Y0080043D02*
X0185794Y0080043D01*
X0186593Y0079244D02*
X0215020Y0079244D01*
X0214809Y0080043D02*
X0207235Y0080043D01*
X0206809Y0080043D02*
X0206009Y0080043D01*
X0206009Y0080841D02*
X0206809Y0080841D01*
X0206809Y0081640D02*
X0206009Y0081640D01*
X0206009Y0082438D02*
X0206809Y0082438D01*
X0206809Y0083237D02*
X0206009Y0083237D01*
X0206009Y0084035D02*
X0206809Y0084035D01*
X0206809Y0084834D02*
X0218301Y0084834D01*
X0217841Y0085632D02*
X0210763Y0085632D01*
X0210460Y0086431D02*
X0217841Y0086431D01*
X0217841Y0087229D02*
X0209965Y0087229D01*
X0209166Y0088028D02*
X0217841Y0088028D01*
X0217841Y0090424D02*
X0208926Y0090424D01*
X0209810Y0091222D02*
X0218113Y0091222D01*
X0217841Y0092021D02*
X0210483Y0092021D01*
X0210526Y0096812D02*
X0217841Y0096812D01*
X0217841Y0097610D02*
X0209914Y0097610D01*
X0209116Y0098409D02*
X0218607Y0098409D01*
X0219409Y0099207D02*
X0186630Y0099207D01*
X0185832Y0100006D02*
X0204901Y0100006D01*
X0205474Y0099768D02*
X0207344Y0099768D01*
X0209072Y0100484D01*
X0210394Y0101806D01*
X0211109Y0103533D01*
X0211109Y0105403D01*
X0210394Y0107131D01*
X0209072Y0108453D01*
X0207344Y0109168D01*
X0205474Y0109168D01*
X0203747Y0108453D01*
X0202425Y0107131D01*
X0201709Y0105403D01*
X0201709Y0103533D01*
X0202425Y0101806D01*
X0203747Y0100484D01*
X0205474Y0099768D01*
X0203703Y0098409D02*
X0187429Y0098409D01*
X0188227Y0097610D02*
X0202905Y0097610D01*
X0203427Y0100804D02*
X0185033Y0100804D01*
X0184235Y0101603D02*
X0202628Y0101603D01*
X0202178Y0102401D02*
X0183436Y0102401D01*
X0182638Y0103200D02*
X0201848Y0103200D01*
X0201709Y0103998D02*
X0181839Y0103998D01*
X0181041Y0104797D02*
X0201709Y0104797D01*
X0201789Y0105595D02*
X0180242Y0105595D01*
X0180209Y0106394D02*
X0202120Y0106394D01*
X0202487Y0107192D02*
X0180209Y0107192D01*
X0180209Y0107991D02*
X0203285Y0107991D01*
X0204560Y0108789D02*
X0180209Y0108789D01*
X0180209Y0109588D02*
X0219409Y0109588D01*
X0219409Y0110386D02*
X0208837Y0110386D01*
X0209072Y0110484D02*
X0210394Y0111806D01*
X0211109Y0113533D01*
X0211109Y0115403D01*
X0210394Y0117131D01*
X0209072Y0118453D01*
X0207344Y0119168D01*
X0205474Y0119168D01*
X0203747Y0118453D01*
X0202425Y0117131D01*
X0201709Y0115403D01*
X0201709Y0113533D01*
X0202425Y0111806D01*
X0203747Y0110484D01*
X0205474Y0109768D01*
X0207344Y0109768D01*
X0209072Y0110484D01*
X0209773Y0111185D02*
X0219409Y0111185D01*
X0219409Y0111983D02*
X0210467Y0111983D01*
X0210798Y0112782D02*
X0219409Y0112782D01*
X0219409Y0113580D02*
X0211109Y0113580D01*
X0211109Y0114379D02*
X0219409Y0114379D01*
X0219409Y0115177D02*
X0211109Y0115177D01*
X0210872Y0115976D02*
X0219409Y0115976D01*
X0219409Y0116774D02*
X0210541Y0116774D01*
X0209951Y0117573D02*
X0219409Y0117573D01*
X0219409Y0118371D02*
X0209153Y0118371D01*
X0207828Y0119968D02*
X0219409Y0119968D01*
X0219409Y0119170D02*
X0180209Y0119170D01*
X0180209Y0119968D02*
X0204991Y0119968D01*
X0205474Y0119768D02*
X0207344Y0119768D01*
X0209072Y0120484D01*
X0210394Y0121806D01*
X0211109Y0123533D01*
X0211109Y0125403D01*
X0210394Y0127131D01*
X0209072Y0128453D01*
X0207344Y0129168D01*
X0205474Y0129168D01*
X0203747Y0128453D01*
X0202425Y0127131D01*
X0201709Y0125403D01*
X0201709Y0123533D01*
X0202425Y0121806D01*
X0203747Y0120484D01*
X0205474Y0119768D01*
X0203464Y0120767D02*
X0180209Y0120767D01*
X0180209Y0121565D02*
X0202665Y0121565D01*
X0202194Y0122364D02*
X0180209Y0122364D01*
X0180209Y0123162D02*
X0201863Y0123162D01*
X0201709Y0123961D02*
X0180209Y0123961D01*
X0180209Y0124760D02*
X0201709Y0124760D01*
X0201774Y0125558D02*
X0180209Y0125558D01*
X0180209Y0126357D02*
X0202104Y0126357D01*
X0202449Y0127155D02*
X0180209Y0127155D01*
X0180209Y0127954D02*
X0203248Y0127954D01*
X0204470Y0128752D02*
X0180209Y0128752D01*
X0180209Y0129551D02*
X0219236Y0129551D01*
X0219409Y0128752D02*
X0208349Y0128752D01*
X0207344Y0129768D02*
X0209072Y0130484D01*
X0210394Y0131806D01*
X0211109Y0133533D01*
X0211109Y0135403D01*
X0210394Y0137131D01*
X0209072Y0138453D01*
X0207344Y0139168D01*
X0205474Y0139168D01*
X0203747Y0138453D01*
X0202425Y0137131D01*
X0201709Y0135403D01*
X0201709Y0133533D01*
X0202425Y0131806D01*
X0203747Y0130484D01*
X0205474Y0129768D01*
X0207344Y0129768D01*
X0208747Y0130349D02*
X0218437Y0130349D01*
X0218060Y0131148D02*
X0209736Y0131148D01*
X0210452Y0131946D02*
X0217809Y0131946D01*
X0217809Y0132745D02*
X0210783Y0132745D01*
X0211109Y0133543D02*
X0217958Y0133543D01*
X0218289Y0134342D02*
X0211109Y0134342D01*
X0211109Y0135140D02*
X0218990Y0135140D01*
X0219409Y0135939D02*
X0210888Y0135939D01*
X0210557Y0136737D02*
X0219409Y0136737D01*
X0219409Y0137536D02*
X0209989Y0137536D01*
X0209190Y0138334D02*
X0219409Y0138334D01*
X0219409Y0139133D02*
X0207430Y0139133D01*
X0207344Y0139768D02*
X0209072Y0140484D01*
X0210394Y0141806D01*
X0211109Y0143533D01*
X0211109Y0145403D01*
X0210394Y0147131D01*
X0209072Y0148453D01*
X0207344Y0149168D01*
X0205474Y0149168D01*
X0203747Y0148453D01*
X0202425Y0147131D01*
X0201709Y0145403D01*
X0201709Y0143533D01*
X0202425Y0141806D01*
X0203747Y0140484D01*
X0205474Y0139768D01*
X0207344Y0139768D01*
X0207738Y0139931D02*
X0219409Y0139931D01*
X0219409Y0140730D02*
X0209318Y0140730D01*
X0210116Y0141528D02*
X0219409Y0141528D01*
X0219409Y0142327D02*
X0210610Y0142327D01*
X0210940Y0143125D02*
X0219409Y0143125D01*
X0219409Y0143924D02*
X0211109Y0143924D01*
X0211109Y0144722D02*
X0219409Y0144722D01*
X0219409Y0145521D02*
X0211061Y0145521D01*
X0210730Y0146319D02*
X0213604Y0146319D01*
X0212669Y0147118D02*
X0210399Y0147118D01*
X0209608Y0147916D02*
X0212156Y0147916D01*
X0211825Y0148715D02*
X0208439Y0148715D01*
X0207344Y0149768D02*
X0209072Y0150484D01*
X0210394Y0151806D01*
X0211109Y0153533D01*
X0211109Y0155403D01*
X0210394Y0157131D01*
X0209072Y0158453D01*
X0207344Y0159168D01*
X0205474Y0159168D01*
X0203747Y0158453D01*
X0202425Y0157131D01*
X0201709Y0155403D01*
X0201709Y0153533D01*
X0202425Y0151806D01*
X0203747Y0150484D01*
X0205474Y0149768D01*
X0207344Y0149768D01*
X0208657Y0150312D02*
X0211862Y0150312D01*
X0211809Y0149513D02*
X0180209Y0149513D01*
X0180209Y0148715D02*
X0204380Y0148715D01*
X0203211Y0147916D02*
X0180209Y0147916D01*
X0180209Y0147118D02*
X0202420Y0147118D01*
X0202089Y0146319D02*
X0180209Y0146319D01*
X0180209Y0145521D02*
X0201758Y0145521D01*
X0201709Y0144722D02*
X0180209Y0144722D01*
X0180209Y0143924D02*
X0201709Y0143924D01*
X0201878Y0143125D02*
X0180209Y0143125D01*
X0180209Y0142327D02*
X0202209Y0142327D01*
X0202702Y0141528D02*
X0180209Y0141528D01*
X0180209Y0140730D02*
X0203501Y0140730D01*
X0205081Y0139931D02*
X0180209Y0139931D01*
X0180209Y0139133D02*
X0205389Y0139133D01*
X0203629Y0138334D02*
X0180209Y0138334D01*
X0180209Y0137536D02*
X0202830Y0137536D01*
X0202262Y0136737D02*
X0180209Y0136737D01*
X0180209Y0135939D02*
X0201931Y0135939D01*
X0201709Y0135140D02*
X0180209Y0135140D01*
X0180209Y0134342D02*
X0201709Y0134342D01*
X0201709Y0133543D02*
X0180209Y0133543D01*
X0180209Y0132745D02*
X0202036Y0132745D01*
X0202367Y0131946D02*
X0180209Y0131946D01*
X0180209Y0131148D02*
X0203083Y0131148D01*
X0204072Y0130349D02*
X0180209Y0130349D01*
X0174609Y0130349D02*
X0147266Y0130349D01*
X0146978Y0130559D02*
X0146290Y0130909D01*
X0145557Y0131148D01*
X0144809Y0131266D01*
X0144809Y0126768D01*
X0144009Y0126768D01*
X0144009Y0125968D01*
X0139512Y0125968D01*
X0139630Y0125221D01*
X0139868Y0124487D01*
X0140219Y0123800D01*
X0140672Y0123176D01*
X0141217Y0122631D01*
X0141841Y0122177D01*
X0142528Y0121827D01*
X0143262Y0121589D01*
X0144009Y0121470D01*
X0144009Y0125968D01*
X0144809Y0125968D01*
X0144809Y0121470D01*
X0145557Y0121589D01*
X0146290Y0121827D01*
X0146978Y0122177D01*
X0147602Y0122631D01*
X0148147Y0123176D01*
X0148600Y0123800D01*
X0148950Y0124487D01*
X0149189Y0125221D01*
X0149307Y0125968D01*
X0144809Y0125968D01*
X0144809Y0126768D01*
X0149307Y0126768D01*
X0149189Y0127516D01*
X0148950Y0128249D01*
X0148600Y0128936D01*
X0148147Y0129560D01*
X0147602Y0130106D01*
X0146978Y0130559D01*
X0145556Y0131148D02*
X0174609Y0131148D01*
X0174609Y0131946D02*
X0094009Y0131946D01*
X0094009Y0131148D02*
X0143263Y0131148D01*
X0143262Y0131148D02*
X0142528Y0130909D01*
X0141841Y0130559D01*
X0141217Y0130106D01*
X0140672Y0129560D01*
X0140219Y0128936D01*
X0139868Y0128249D01*
X0139630Y0127516D01*
X0139512Y0126768D01*
X0144009Y0126768D01*
X0144009Y0131266D01*
X0143262Y0131148D01*
X0144009Y0131148D02*
X0144809Y0131148D01*
X0144809Y0130349D02*
X0144009Y0130349D01*
X0144009Y0129551D02*
X0144809Y0129551D01*
X0144809Y0128752D02*
X0144009Y0128752D01*
X0144009Y0127954D02*
X0144809Y0127954D01*
X0144809Y0127155D02*
X0144009Y0127155D01*
X0144009Y0126357D02*
X0094009Y0126357D01*
X0094009Y0127155D02*
X0139573Y0127155D01*
X0139772Y0127954D02*
X0094009Y0127954D01*
X0094009Y0128752D02*
X0140125Y0128752D01*
X0140665Y0129551D02*
X0094009Y0129551D01*
X0094009Y0130349D02*
X0141552Y0130349D01*
X0139577Y0125558D02*
X0094009Y0125558D01*
X0094009Y0124760D02*
X0139780Y0124760D01*
X0140136Y0123961D02*
X0094009Y0123961D01*
X0094009Y0123162D02*
X0140685Y0123162D01*
X0141584Y0122364D02*
X0094009Y0122364D01*
X0094009Y0121565D02*
X0143410Y0121565D01*
X0144009Y0121565D02*
X0144809Y0121565D01*
X0145409Y0121565D02*
X0174609Y0121565D01*
X0174609Y0120767D02*
X0094009Y0120767D01*
X0094009Y0119968D02*
X0174609Y0119968D01*
X0174609Y0119170D02*
X0094009Y0119170D01*
X0094009Y0118371D02*
X0174609Y0118371D01*
X0174609Y0117573D02*
X0094009Y0117573D01*
X0094009Y0116774D02*
X0174609Y0116774D01*
X0174609Y0115976D02*
X0094009Y0115976D01*
X0094009Y0115177D02*
X0174609Y0115177D01*
X0174609Y0114379D02*
X0094009Y0114379D01*
X0094009Y0113580D02*
X0174609Y0113580D01*
X0174609Y0112782D02*
X0094009Y0112782D01*
X0094009Y0111983D02*
X0174609Y0111983D01*
X0174609Y0111185D02*
X0094009Y0111185D01*
X0094009Y0110386D02*
X0174609Y0110386D01*
X0174609Y0109588D02*
X0094009Y0109588D01*
X0094009Y0108789D02*
X0174609Y0108789D01*
X0174609Y0107991D02*
X0094009Y0107991D01*
X0094009Y0107192D02*
X0174609Y0107192D01*
X0174609Y0106394D02*
X0094009Y0106394D01*
X0094009Y0105595D02*
X0174609Y0105595D01*
X0174609Y0104797D02*
X0094009Y0104797D01*
X0094009Y0103998D02*
X0174609Y0103998D01*
X0174904Y0103200D02*
X0094009Y0103200D01*
X0094009Y0102401D02*
X0175517Y0102401D01*
X0176315Y0101603D02*
X0094009Y0101603D01*
X0094009Y0100804D02*
X0177114Y0100804D01*
X0177912Y0100006D02*
X0094009Y0100006D01*
X0125509Y0082438D02*
X0133374Y0082438D01*
X0132543Y0081640D02*
X0125422Y0081640D01*
X0125091Y0080841D02*
X0131967Y0080841D01*
X0131549Y0080043D02*
X0124368Y0080043D01*
X0123817Y0079244D02*
X0131260Y0079244D01*
X0131083Y0078446D02*
X0124009Y0078446D01*
X0160838Y0072058D02*
X0185912Y0072058D01*
X0185061Y0072856D02*
X0161848Y0072856D01*
X0162550Y0073655D02*
X0184263Y0073655D01*
X0183464Y0074453D02*
X0163059Y0074453D01*
X0163419Y0075252D02*
X0182666Y0075252D01*
X0181867Y0076050D02*
X0163655Y0076050D01*
X0187391Y0078446D02*
X0203740Y0078446D01*
X0202942Y0077647D02*
X0188190Y0077647D01*
X0209078Y0078446D02*
X0215350Y0078446D01*
X0216139Y0077647D02*
X0209877Y0077647D01*
X0210511Y0076849D02*
X0262577Y0076849D01*
X0262192Y0076050D02*
X0210841Y0076050D01*
X0211109Y0075252D02*
X0261977Y0075252D01*
X0263225Y0077647D02*
X0249680Y0077647D01*
X0250468Y0078446D02*
X0264304Y0078446D01*
X0261709Y0084834D02*
X0230872Y0084834D01*
X0230756Y0085632D02*
X0261804Y0085632D01*
X0262135Y0086431D02*
X0230756Y0086431D01*
X0230756Y0087229D02*
X0262524Y0087229D01*
X0263322Y0088028D02*
X0230756Y0088028D01*
X0226756Y0088028D02*
X0224978Y0088028D01*
X0224978Y0088827D02*
X0226756Y0088827D01*
X0226756Y0089625D02*
X0224978Y0089625D01*
X0224978Y0090424D02*
X0226756Y0090424D01*
X0226756Y0091222D02*
X0224706Y0091222D01*
X0224978Y0092021D02*
X0226756Y0092021D01*
X0226756Y0092819D02*
X0224978Y0092819D01*
X0224978Y0093618D02*
X0226756Y0093618D01*
X0226756Y0094416D02*
X0224978Y0094416D01*
X0224978Y0095215D02*
X0226756Y0095215D01*
X0226756Y0096013D02*
X0224978Y0096013D01*
X0224978Y0096812D02*
X0226756Y0096812D01*
X0226756Y0097610D02*
X0224978Y0097610D01*
X0224212Y0098409D02*
X0226756Y0098409D01*
X0226756Y0099207D02*
X0223409Y0099207D01*
X0223409Y0100006D02*
X0226756Y0100006D01*
X0226756Y0100804D02*
X0223409Y0100804D01*
X0219409Y0100804D02*
X0209392Y0100804D01*
X0210191Y0101603D02*
X0218532Y0101603D01*
X0218298Y0102401D02*
X0210640Y0102401D01*
X0210971Y0103200D02*
X0218298Y0103200D01*
X0218298Y0103998D02*
X0211109Y0103998D01*
X0211109Y0104797D02*
X0218298Y0104797D01*
X0218298Y0105595D02*
X0211030Y0105595D01*
X0210699Y0106394D02*
X0218298Y0106394D01*
X0218390Y0107192D02*
X0210332Y0107192D01*
X0209534Y0107991D02*
X0219189Y0107991D01*
X0219409Y0108789D02*
X0208259Y0108789D01*
X0203982Y0110386D02*
X0180209Y0110386D01*
X0180209Y0111185D02*
X0203046Y0111185D01*
X0202351Y0111983D02*
X0180209Y0111983D01*
X0180209Y0112782D02*
X0202021Y0112782D01*
X0201709Y0113580D02*
X0180209Y0113580D01*
X0180209Y0114379D02*
X0201709Y0114379D01*
X0201709Y0115177D02*
X0180209Y0115177D01*
X0180209Y0115976D02*
X0201947Y0115976D01*
X0202277Y0116774D02*
X0180209Y0116774D01*
X0180209Y0117573D02*
X0202867Y0117573D01*
X0203666Y0118371D02*
X0180209Y0118371D01*
X0174609Y0122364D02*
X0147234Y0122364D01*
X0148133Y0123162D02*
X0174609Y0123162D01*
X0174609Y0123961D02*
X0148682Y0123961D01*
X0149039Y0124760D02*
X0174609Y0124760D01*
X0174609Y0125558D02*
X0149242Y0125558D01*
X0149246Y0127155D02*
X0174609Y0127155D01*
X0174609Y0126357D02*
X0144809Y0126357D01*
X0144809Y0125558D02*
X0144009Y0125558D01*
X0144009Y0124760D02*
X0144809Y0124760D01*
X0144809Y0123961D02*
X0144009Y0123961D01*
X0144009Y0123162D02*
X0144809Y0123162D01*
X0144809Y0122364D02*
X0144009Y0122364D01*
X0149046Y0127954D02*
X0174609Y0127954D01*
X0174609Y0128752D02*
X0148694Y0128752D01*
X0148154Y0129551D02*
X0174609Y0129551D01*
X0174609Y0132745D02*
X0094009Y0132745D01*
X0094009Y0133543D02*
X0174609Y0133543D01*
X0174609Y0134342D02*
X0094009Y0134342D01*
X0094009Y0135140D02*
X0174609Y0135140D01*
X0174609Y0135939D02*
X0166260Y0135939D01*
X0167491Y0136737D02*
X0174609Y0136737D01*
X0174609Y0137536D02*
X0168289Y0137536D01*
X0168704Y0138334D02*
X0174609Y0138334D01*
X0174609Y0139133D02*
X0169035Y0139133D01*
X0169209Y0139931D02*
X0174609Y0139931D01*
X0174609Y0140730D02*
X0169209Y0140730D01*
X0169209Y0141528D02*
X0174609Y0141528D01*
X0174609Y0142327D02*
X0168901Y0142327D01*
X0168570Y0143125D02*
X0174609Y0143125D01*
X0174609Y0143924D02*
X0167966Y0143924D01*
X0167168Y0144722D02*
X0174609Y0144722D01*
X0174609Y0145521D02*
X0166109Y0145521D01*
X0166109Y0146319D02*
X0174609Y0146319D01*
X0174609Y0147118D02*
X0166109Y0147118D01*
X0166109Y0147916D02*
X0174609Y0147916D01*
X0174609Y0148715D02*
X0166109Y0148715D01*
X0166109Y0149513D02*
X0174609Y0149513D01*
X0174609Y0150312D02*
X0166109Y0150312D01*
X0166109Y0151110D02*
X0174609Y0151110D01*
X0174609Y0151909D02*
X0166109Y0151909D01*
X0166109Y0152707D02*
X0174609Y0152707D01*
X0174609Y0153506D02*
X0166109Y0153506D01*
X0166109Y0154304D02*
X0174609Y0154304D01*
X0174609Y0155103D02*
X0166109Y0155103D01*
X0166109Y0155901D02*
X0174609Y0155901D01*
X0174609Y0156700D02*
X0166109Y0156700D01*
X0166109Y0157498D02*
X0174609Y0157498D01*
X0174609Y0158297D02*
X0166109Y0158297D01*
X0166109Y0159096D02*
X0174609Y0159096D01*
X0174609Y0159894D02*
X0166109Y0159894D01*
X0166109Y0160693D02*
X0174609Y0160693D01*
X0174609Y0161491D02*
X0166109Y0161491D01*
X0166109Y0162290D02*
X0174609Y0162290D01*
X0174609Y0163088D02*
X0166109Y0163088D01*
X0166109Y0163887D02*
X0174609Y0163887D01*
X0174609Y0164685D02*
X0166109Y0164685D01*
X0166109Y0165484D02*
X0174609Y0165484D01*
X0174609Y0166282D02*
X0166109Y0166282D01*
X0166109Y0167081D02*
X0174609Y0167081D01*
X0174609Y0167879D02*
X0166109Y0167879D01*
X0166109Y0168678D02*
X0174609Y0168678D01*
X0174609Y0169476D02*
X0166109Y0169476D01*
X0166109Y0170275D02*
X0174609Y0170275D01*
X0174609Y0171073D02*
X0166109Y0171073D01*
X0166109Y0171872D02*
X0174609Y0171872D01*
X0174609Y0172670D02*
X0166109Y0172670D01*
X0166109Y0173469D02*
X0174609Y0173469D01*
X0174609Y0174267D02*
X0166109Y0174267D01*
X0166109Y0175066D02*
X0174609Y0175066D01*
X0174609Y0175864D02*
X0166109Y0175864D01*
X0166109Y0176663D02*
X0174609Y0176663D01*
X0174609Y0177461D02*
X0166109Y0177461D01*
X0166109Y0178260D02*
X0174609Y0178260D01*
X0174609Y0179058D02*
X0166109Y0179058D01*
X0166109Y0179857D02*
X0174609Y0179857D01*
X0174609Y0180655D02*
X0166109Y0180655D01*
X0166109Y0181454D02*
X0174609Y0181454D01*
X0174609Y0182252D02*
X0166109Y0182252D01*
X0166109Y0183051D02*
X0174609Y0183051D01*
X0174609Y0183849D02*
X0166109Y0183849D01*
X0166109Y0184648D02*
X0174609Y0184648D01*
X0174609Y0185446D02*
X0166109Y0185446D01*
X0166109Y0186245D02*
X0174609Y0186245D01*
X0174609Y0187043D02*
X0166109Y0187043D01*
X0178380Y0204611D02*
X0188905Y0204611D01*
X0189609Y0205409D02*
X0179179Y0205409D01*
X0179409Y0205640D02*
X0179409Y0205640D01*
X0179977Y0206208D02*
X0189609Y0206208D01*
X0189609Y0207006D02*
X0180776Y0207006D01*
X0181574Y0207805D02*
X0189426Y0207805D01*
X0188628Y0208603D02*
X0182373Y0208603D01*
X0183171Y0209402D02*
X0188178Y0209402D01*
X0187847Y0210200D02*
X0183970Y0210200D01*
X0184768Y0210999D02*
X0187709Y0210999D01*
X0187709Y0211797D02*
X0185567Y0211797D01*
X0186365Y0212596D02*
X0187789Y0212596D01*
X0188120Y0213394D02*
X0187164Y0213394D01*
X0187962Y0214193D02*
X0188487Y0214193D01*
X0184701Y0216588D02*
X0176284Y0216588D01*
X0177179Y0215790D02*
X0183903Y0215790D01*
X0183104Y0214991D02*
X0177675Y0214991D01*
X0178006Y0214193D02*
X0182306Y0214193D01*
X0181507Y0213394D02*
X0178009Y0213394D01*
X0177945Y0212596D02*
X0180709Y0212596D01*
X0179910Y0211797D02*
X0177614Y0211797D01*
X0177031Y0210999D02*
X0179112Y0210999D01*
X0178313Y0210200D02*
X0175927Y0210200D01*
X0177514Y0209402D02*
X0173171Y0209402D01*
X0172373Y0208603D02*
X0176716Y0208603D01*
X0188124Y0198223D02*
X0189008Y0198223D01*
X0196897Y0191036D02*
X0200149Y0191036D01*
X0199350Y0190237D02*
X0196741Y0190237D01*
X0196426Y0189439D02*
X0198552Y0189439D01*
X0197753Y0188640D02*
X0195917Y0188640D01*
X0195074Y0187842D02*
X0196955Y0187842D01*
X0196409Y0185446D02*
X0195078Y0185446D01*
X0195876Y0184648D02*
X0196409Y0184648D01*
X0202409Y0171073D02*
X0203158Y0171073D01*
X0202409Y0170275D02*
X0204252Y0170275D01*
X0204290Y0168678D02*
X0202409Y0168678D01*
X0202409Y0169476D02*
X0218709Y0169476D01*
X0218709Y0170275D02*
X0208567Y0170275D01*
X0209661Y0171073D02*
X0218709Y0171073D01*
X0218709Y0171872D02*
X0210421Y0171872D01*
X0210752Y0172670D02*
X0218709Y0172670D01*
X0219247Y0173469D02*
X0211083Y0173469D01*
X0211109Y0174267D02*
X0218967Y0174267D01*
X0218909Y0175066D02*
X0211109Y0175066D01*
X0210918Y0175864D02*
X0224059Y0175864D01*
X0224059Y0176218D02*
X0218909Y0176218D01*
X0218909Y0177453D01*
X0219005Y0177809D01*
X0219189Y0178128D01*
X0219450Y0178388D01*
X0219769Y0178573D01*
X0220125Y0178668D01*
X0224059Y0178668D01*
X0224059Y0176218D01*
X0224059Y0176663D02*
X0224559Y0176663D01*
X0224559Y0176218D02*
X0224559Y0178668D01*
X0228494Y0178668D01*
X0228850Y0178573D01*
X0229169Y0178388D01*
X0229430Y0178128D01*
X0229614Y0177809D01*
X0229709Y0177453D01*
X0229709Y0176218D01*
X0224559Y0176218D01*
X0224559Y0175864D02*
X0239409Y0175864D01*
X0239409Y0175066D02*
X0229709Y0175066D01*
X0229651Y0174267D02*
X0239380Y0174267D01*
X0238581Y0173469D02*
X0229372Y0173469D01*
X0229709Y0176663D02*
X0239409Y0176663D01*
X0239409Y0177461D02*
X0229707Y0177461D01*
X0229298Y0178260D02*
X0239409Y0178260D01*
X0239409Y0179058D02*
X0213828Y0179058D01*
X0213409Y0178640D02*
X0213409Y0178640D01*
X0213029Y0178260D02*
X0219321Y0178260D01*
X0218912Y0177461D02*
X0210063Y0177461D01*
X0210588Y0176663D02*
X0218909Y0176663D01*
X0215425Y0180655D02*
X0239409Y0180655D01*
X0239409Y0179857D02*
X0214626Y0179857D01*
X0216223Y0181454D02*
X0240067Y0181454D01*
X0240865Y0182252D02*
X0216409Y0182252D01*
X0216409Y0183051D02*
X0241664Y0183051D01*
X0242462Y0183849D02*
X0216409Y0183849D01*
X0216409Y0184648D02*
X0243261Y0184648D01*
X0244409Y0182968D02*
X0253409Y0182968D01*
X0250796Y0185446D02*
X0216409Y0185446D01*
X0216409Y0186245D02*
X0251913Y0186245D01*
X0254906Y0186245D02*
X0258409Y0186245D01*
X0258409Y0185446D02*
X0256022Y0185446D01*
X0256610Y0184648D02*
X0258409Y0184648D01*
X0258409Y0183849D02*
X0256941Y0183849D01*
X0257009Y0183051D02*
X0258409Y0183051D01*
X0258409Y0182252D02*
X0257009Y0182252D01*
X0256679Y0181454D02*
X0258409Y0181454D01*
X0258409Y0180655D02*
X0256188Y0180655D01*
X0255305Y0179857D02*
X0258409Y0179857D01*
X0258991Y0179058D02*
X0243409Y0179058D01*
X0244126Y0179857D02*
X0251514Y0179857D01*
X0250631Y0180655D02*
X0244925Y0180655D01*
X0244409Y0182968D02*
X0241409Y0179968D01*
X0241409Y0173468D01*
X0238909Y0170968D01*
X0224309Y0170968D01*
X0229582Y0168678D02*
X0238790Y0168678D01*
X0237992Y0167879D02*
X0229909Y0167879D01*
X0229909Y0167081D02*
X0237193Y0167081D01*
X0236409Y0166282D02*
X0229909Y0166282D01*
X0229909Y0165484D02*
X0236409Y0165484D01*
X0236409Y0164685D02*
X0229909Y0164685D01*
X0229790Y0163887D02*
X0236409Y0163887D01*
X0236409Y0163088D02*
X0229752Y0163088D01*
X0229909Y0162290D02*
X0236409Y0162290D01*
X0236409Y0161491D02*
X0229909Y0161491D01*
X0229909Y0160693D02*
X0236409Y0160693D01*
X0236409Y0159894D02*
X0229909Y0159894D01*
X0229909Y0159096D02*
X0236409Y0159096D01*
X0236409Y0158297D02*
X0229809Y0158297D01*
X0230607Y0157498D02*
X0236409Y0157498D01*
X0236409Y0156700D02*
X0231406Y0156700D01*
X0232719Y0155901D02*
X0236409Y0155901D01*
X0236409Y0155103D02*
X0232978Y0155103D01*
X0232978Y0154304D02*
X0236409Y0154304D01*
X0236409Y0153506D02*
X0232978Y0153506D01*
X0232978Y0152707D02*
X0236409Y0152707D01*
X0236409Y0151909D02*
X0232978Y0151909D01*
X0232978Y0151110D02*
X0236409Y0151110D01*
X0236162Y0150312D02*
X0232978Y0150312D01*
X0232505Y0149513D02*
X0235363Y0149513D01*
X0240409Y0151110D02*
X0257409Y0151110D01*
X0257409Y0150312D02*
X0240657Y0150312D01*
X0241455Y0149513D02*
X0257409Y0149513D01*
X0257409Y0148715D02*
X0241790Y0148715D01*
X0242009Y0147916D02*
X0257409Y0147916D01*
X0257409Y0147118D02*
X0242009Y0147118D01*
X0241830Y0146319D02*
X0257409Y0146319D01*
X0257409Y0145521D02*
X0241499Y0145521D01*
X0240755Y0144722D02*
X0257409Y0144722D01*
X0257409Y0143924D02*
X0239260Y0143924D01*
X0240409Y0151909D02*
X0257409Y0151909D01*
X0257409Y0152707D02*
X0240409Y0152707D01*
X0240409Y0153506D02*
X0257619Y0153506D01*
X0258417Y0154304D02*
X0240409Y0154304D01*
X0240409Y0155103D02*
X0257946Y0155103D01*
X0258581Y0154468D02*
X0258581Y0154468D01*
X0257148Y0155901D02*
X0240409Y0155901D01*
X0240409Y0156700D02*
X0256349Y0156700D01*
X0255551Y0157498D02*
X0240409Y0157498D01*
X0248509Y0165968D02*
X0248509Y0166368D01*
X0246409Y0168468D01*
X0241409Y0168468D01*
X0246409Y0168468D02*
X0248509Y0170568D01*
X0248509Y0170968D01*
X0248509Y0175968D02*
X0255909Y0175968D01*
X0258409Y0173468D01*
X0258409Y0167468D01*
X0261409Y0164468D01*
X0266409Y0164468D01*
X0263174Y0167879D02*
X0260827Y0167879D01*
X0261625Y0167081D02*
X0262404Y0167081D01*
X0258364Y0164685D02*
X0254109Y0164685D01*
X0254109Y0165484D02*
X0257566Y0165484D01*
X0256767Y0166282D02*
X0254109Y0166282D01*
X0254109Y0167081D02*
X0256409Y0167081D01*
X0256409Y0167879D02*
X0254109Y0167879D01*
X0253782Y0168678D02*
X0256409Y0168678D01*
X0256409Y0169476D02*
X0254109Y0169476D01*
X0254109Y0170275D02*
X0256409Y0170275D01*
X0256409Y0171073D02*
X0254109Y0171073D01*
X0254109Y0171872D02*
X0256409Y0171872D01*
X0256379Y0172670D02*
X0254109Y0172670D01*
X0253573Y0173469D02*
X0255580Y0173469D01*
X0258043Y0176663D02*
X0261386Y0176663D01*
X0261900Y0175864D02*
X0258842Y0175864D01*
X0259640Y0175066D02*
X0261709Y0175066D01*
X0261709Y0174267D02*
X0260409Y0174267D01*
X0260409Y0173469D02*
X0261736Y0173469D01*
X0260588Y0177461D02*
X0257245Y0177461D01*
X0259789Y0178260D02*
X0253781Y0178260D01*
X0262409Y0181454D02*
X0262777Y0181454D01*
X0263051Y0180655D02*
X0263575Y0180655D01*
X0263849Y0179857D02*
X0265261Y0179857D01*
X0265209Y0179058D02*
X0264648Y0179058D01*
X0267610Y0179058D02*
X0283723Y0179058D01*
X0283723Y0178260D02*
X0269265Y0178260D01*
X0270063Y0177461D02*
X0283723Y0177461D01*
X0283723Y0176663D02*
X0270588Y0176663D01*
X0270918Y0175864D02*
X0283723Y0175864D01*
X0283723Y0175066D02*
X0271109Y0175066D01*
X0271109Y0174267D02*
X0283723Y0174267D01*
X0283723Y0173469D02*
X0271083Y0173469D01*
X0270752Y0172670D02*
X0283723Y0172670D01*
X0283723Y0171872D02*
X0270421Y0171872D01*
X0269661Y0171073D02*
X0283723Y0171073D01*
X0283723Y0170275D02*
X0268567Y0170275D01*
X0267558Y0179857D02*
X0283723Y0179857D01*
X0283723Y0180655D02*
X0269243Y0180655D01*
X0270042Y0181454D02*
X0283723Y0181454D01*
X0283723Y0182252D02*
X0270579Y0182252D01*
X0271409Y0184468D02*
X0273409Y0186468D01*
X0273409Y0208468D01*
X0270409Y0211468D01*
X0202409Y0211468D01*
X0197409Y0216468D01*
X0199409Y0217468D02*
X0203409Y0213468D01*
X0274409Y0213468D01*
X0277409Y0210468D01*
X0277409Y0197468D01*
X0281009Y0197424D02*
X0283723Y0197424D01*
X0283723Y0196626D02*
X0280957Y0196626D01*
X0280626Y0195827D02*
X0283723Y0195827D01*
X0283723Y0195029D02*
X0280061Y0195029D01*
X0278999Y0194230D02*
X0283723Y0194230D01*
X0283723Y0193431D02*
X0275409Y0193431D01*
X0275409Y0192633D02*
X0283723Y0192633D01*
X0283723Y0191834D02*
X0275409Y0191834D01*
X0275409Y0191036D02*
X0283723Y0191036D01*
X0283723Y0190237D02*
X0275409Y0190237D01*
X0275409Y0189439D02*
X0283723Y0189439D01*
X0283723Y0188640D02*
X0275409Y0188640D01*
X0275409Y0187842D02*
X0283723Y0187842D01*
X0283723Y0187043D02*
X0275409Y0187043D01*
X0275409Y0186245D02*
X0283723Y0186245D01*
X0283723Y0185446D02*
X0275216Y0185446D01*
X0274417Y0184648D02*
X0283723Y0184648D01*
X0283723Y0183849D02*
X0273619Y0183849D01*
X0272820Y0183051D02*
X0283723Y0183051D01*
X0271409Y0184468D02*
X0266409Y0184468D01*
X0269682Y0187842D02*
X0271409Y0187842D01*
X0271409Y0188640D02*
X0268618Y0188640D01*
X0270430Y0187043D02*
X0271156Y0187043D01*
X0275409Y0194230D02*
X0275820Y0194230D01*
X0280994Y0198223D02*
X0283723Y0198223D01*
X0283723Y0199021D02*
X0280663Y0199021D01*
X0280149Y0199820D02*
X0283723Y0199820D01*
X0283723Y0200618D02*
X0279409Y0200618D01*
X0279409Y0201417D02*
X0283723Y0201417D01*
X0283723Y0202215D02*
X0279409Y0202215D01*
X0279409Y0203014D02*
X0283723Y0203014D01*
X0283723Y0203812D02*
X0279409Y0203812D01*
X0279409Y0204611D02*
X0283723Y0204611D01*
X0283723Y0205409D02*
X0279409Y0205409D01*
X0279409Y0206208D02*
X0283723Y0206208D01*
X0283723Y0207006D02*
X0279409Y0207006D01*
X0279409Y0207805D02*
X0283723Y0207805D01*
X0283723Y0208603D02*
X0279409Y0208603D01*
X0279409Y0209402D02*
X0283723Y0209402D01*
X0283723Y0210200D02*
X0279409Y0210200D01*
X0279409Y0210999D02*
X0283723Y0210999D01*
X0283723Y0211797D02*
X0278909Y0211797D01*
X0278110Y0212596D02*
X0283723Y0212596D01*
X0283723Y0213394D02*
X0277312Y0213394D01*
X0276513Y0214193D02*
X0283723Y0214193D01*
X0283723Y0214991D02*
X0275715Y0214991D01*
X0283723Y0215790D02*
X0258665Y0215790D01*
X0259463Y0216588D02*
X0283723Y0216588D01*
X0283723Y0217387D02*
X0260111Y0217387D01*
X0260442Y0218185D02*
X0283723Y0218185D01*
X0283723Y0218984D02*
X0260773Y0218984D01*
X0261009Y0219782D02*
X0283723Y0219782D01*
X0283723Y0220581D02*
X0261009Y0220581D01*
X0261009Y0221379D02*
X0283723Y0221379D01*
X0283723Y0222178D02*
X0261009Y0222178D01*
X0260680Y0222976D02*
X0283723Y0222976D01*
X0283723Y0223775D02*
X0260349Y0223775D01*
X0260018Y0224573D02*
X0283723Y0224573D01*
X0283723Y0225372D02*
X0259239Y0225372D01*
X0258441Y0226170D02*
X0283723Y0226170D01*
X0283723Y0226969D02*
X0256927Y0226969D01*
X0251891Y0226969D02*
X0236927Y0226969D01*
X0238441Y0226170D02*
X0250378Y0226170D01*
X0249579Y0225372D02*
X0239239Y0225372D01*
X0240018Y0224573D02*
X0248800Y0224573D01*
X0248470Y0223775D02*
X0240349Y0223775D01*
X0240680Y0222976D02*
X0248139Y0222976D01*
X0247809Y0222178D02*
X0241009Y0222178D01*
X0241009Y0221379D02*
X0247809Y0221379D01*
X0247809Y0220581D02*
X0241009Y0220581D01*
X0241009Y0219782D02*
X0247809Y0219782D01*
X0248046Y0218984D02*
X0240773Y0218984D01*
X0240442Y0218185D02*
X0248377Y0218185D01*
X0248708Y0217387D02*
X0240111Y0217387D01*
X0239463Y0216588D02*
X0249355Y0216588D01*
X0250154Y0215790D02*
X0238665Y0215790D01*
X0248708Y0208603D02*
X0254111Y0208603D01*
X0253099Y0207805D02*
X0249720Y0207805D01*
X0250445Y0207006D02*
X0252373Y0207006D01*
X0252043Y0206208D02*
X0250776Y0206208D01*
X0251107Y0205409D02*
X0251712Y0205409D01*
X0251709Y0204611D02*
X0251109Y0204611D01*
X0251109Y0203812D02*
X0251709Y0203812D01*
X0251925Y0203014D02*
X0250894Y0203014D01*
X0250563Y0202215D02*
X0251328Y0202215D01*
X0250529Y0201417D02*
X0250005Y0201417D01*
X0249731Y0200618D02*
X0249206Y0200618D01*
X0248932Y0199820D02*
X0247468Y0199820D01*
X0248134Y0199021D02*
X0214685Y0199021D01*
X0215483Y0198223D02*
X0247335Y0198223D01*
X0246537Y0197424D02*
X0216282Y0197424D01*
X0217080Y0196626D02*
X0245738Y0196626D01*
X0246409Y0194468D02*
X0216409Y0194468D01*
X0211409Y0199468D01*
X0200409Y0199468D01*
X0216813Y0187043D02*
X0258006Y0187043D01*
X0257207Y0187842D02*
X0217612Y0187842D01*
X0224059Y0178260D02*
X0224559Y0178260D01*
X0224559Y0177461D02*
X0224059Y0177461D01*
X0219037Y0168678D02*
X0208529Y0168678D01*
X0209072Y0168453D02*
X0207344Y0169168D01*
X0205474Y0169168D01*
X0203747Y0168453D01*
X0202425Y0167131D01*
X0201709Y0165403D01*
X0201709Y0163533D01*
X0202425Y0161806D01*
X0203747Y0160484D01*
X0205474Y0159768D01*
X0207344Y0159768D01*
X0209072Y0160484D01*
X0210394Y0161806D01*
X0211109Y0163533D01*
X0211109Y0165403D01*
X0210394Y0167131D01*
X0209072Y0168453D01*
X0209645Y0167879D02*
X0216992Y0167879D01*
X0216193Y0167081D02*
X0210415Y0167081D01*
X0210745Y0166282D02*
X0215395Y0166282D01*
X0214596Y0165484D02*
X0211076Y0165484D01*
X0211109Y0164685D02*
X0213798Y0164685D01*
X0213409Y0163887D02*
X0211109Y0163887D01*
X0210925Y0163088D02*
X0213409Y0163088D01*
X0213409Y0162290D02*
X0210594Y0162290D01*
X0210079Y0161491D02*
X0213409Y0161491D01*
X0213409Y0160693D02*
X0209281Y0160693D01*
X0207648Y0159894D02*
X0213409Y0159894D01*
X0213409Y0159096D02*
X0207520Y0159096D01*
X0209227Y0158297D02*
X0213409Y0158297D01*
X0213409Y0157498D02*
X0210026Y0157498D01*
X0210572Y0156700D02*
X0213409Y0156700D01*
X0213409Y0155901D02*
X0210903Y0155901D01*
X0211109Y0155103D02*
X0213409Y0155103D01*
X0213409Y0154304D02*
X0211109Y0154304D01*
X0211098Y0153506D02*
X0213409Y0153506D01*
X0213409Y0152707D02*
X0210767Y0152707D01*
X0210437Y0151909D02*
X0212759Y0151909D01*
X0212193Y0151110D02*
X0209698Y0151110D01*
X0204162Y0150312D02*
X0180209Y0150312D01*
X0180209Y0151110D02*
X0203120Y0151110D01*
X0202382Y0151909D02*
X0180209Y0151909D01*
X0180209Y0152707D02*
X0202051Y0152707D01*
X0201721Y0153506D02*
X0180209Y0153506D01*
X0180209Y0154304D02*
X0201709Y0154304D01*
X0201709Y0155103D02*
X0180209Y0155103D01*
X0180209Y0155901D02*
X0201916Y0155901D01*
X0202247Y0156700D02*
X0180209Y0156700D01*
X0180209Y0157498D02*
X0202793Y0157498D01*
X0203591Y0158297D02*
X0180209Y0158297D01*
X0180209Y0159096D02*
X0205299Y0159096D01*
X0205171Y0159894D02*
X0180209Y0159894D01*
X0180209Y0160693D02*
X0203538Y0160693D01*
X0202740Y0161491D02*
X0180209Y0161491D01*
X0180209Y0162290D02*
X0202225Y0162290D01*
X0201894Y0163088D02*
X0180209Y0163088D01*
X0197656Y0163887D02*
X0201709Y0163887D01*
X0201709Y0164685D02*
X0198455Y0164685D01*
X0199253Y0165484D02*
X0201743Y0165484D01*
X0202073Y0166282D02*
X0200052Y0166282D01*
X0200850Y0167081D02*
X0202404Y0167081D01*
X0201649Y0167879D02*
X0203174Y0167879D01*
X0215409Y0163468D02*
X0215409Y0149468D01*
X0219009Y0149513D02*
X0219409Y0149513D01*
X0219409Y0148715D02*
X0218994Y0148715D01*
X0218663Y0147916D02*
X0219409Y0147916D01*
X0219409Y0147118D02*
X0218150Y0147118D01*
X0217215Y0146319D02*
X0219409Y0146319D01*
X0219409Y0150312D02*
X0218957Y0150312D01*
X0218626Y0151110D02*
X0219409Y0151110D01*
X0219409Y0151909D02*
X0218060Y0151909D01*
X0217409Y0152707D02*
X0219409Y0152707D01*
X0219409Y0153506D02*
X0217409Y0153506D01*
X0217409Y0154304D02*
X0219409Y0154304D01*
X0219409Y0155103D02*
X0217409Y0155103D01*
X0217409Y0155901D02*
X0219409Y0155901D01*
X0219409Y0156700D02*
X0217409Y0156700D01*
X0217409Y0157498D02*
X0219409Y0157498D01*
X0219409Y0158297D02*
X0217409Y0158297D01*
X0217409Y0159096D02*
X0218709Y0159096D01*
X0218709Y0159894D02*
X0217409Y0159894D01*
X0217409Y0160693D02*
X0218709Y0160693D01*
X0218709Y0161491D02*
X0217409Y0161491D01*
X0217409Y0162290D02*
X0218709Y0162290D01*
X0218867Y0163088D02*
X0217858Y0163088D01*
X0218656Y0163887D02*
X0218828Y0163887D01*
X0217909Y0165968D02*
X0215409Y0163468D01*
X0217909Y0165968D02*
X0224309Y0165968D01*
X0224309Y0160968D02*
X0221409Y0158068D01*
X0221409Y0132468D01*
X0219409Y0127954D02*
X0209571Y0127954D01*
X0210369Y0127155D02*
X0219409Y0127155D01*
X0219409Y0126357D02*
X0210714Y0126357D01*
X0211045Y0125558D02*
X0219409Y0125558D01*
X0219409Y0124760D02*
X0211109Y0124760D01*
X0211109Y0123961D02*
X0219409Y0123961D01*
X0219409Y0123162D02*
X0210956Y0123162D01*
X0210625Y0122364D02*
X0219409Y0122364D01*
X0219409Y0121565D02*
X0210153Y0121565D01*
X0209355Y0120767D02*
X0219409Y0120767D01*
X0224937Y0107991D02*
X0225882Y0107991D01*
X0219409Y0100006D02*
X0207918Y0100006D01*
X0221409Y0088122D02*
X0221409Y0083468D01*
X0218409Y0080468D01*
X0221799Y0079244D02*
X0230805Y0079244D01*
X0230006Y0080043D02*
X0222009Y0080043D01*
X0222009Y0080841D02*
X0229208Y0080841D01*
X0228409Y0081640D02*
X0222410Y0081640D01*
X0223208Y0082438D02*
X0227611Y0082438D01*
X0226812Y0083237D02*
X0223409Y0083237D01*
X0223409Y0084035D02*
X0226756Y0084035D01*
X0226756Y0084834D02*
X0224518Y0084834D01*
X0224978Y0085632D02*
X0226756Y0085632D01*
X0226756Y0086431D02*
X0224978Y0086431D01*
X0224978Y0087229D02*
X0226756Y0087229D01*
X0230756Y0095215D02*
X0253857Y0095215D01*
X0252773Y0096013D02*
X0230756Y0096013D01*
X0230756Y0096812D02*
X0252199Y0096812D01*
X0251868Y0097610D02*
X0230756Y0097610D01*
X0217614Y0084035D02*
X0210897Y0084035D01*
X0210741Y0083237D02*
X0216087Y0083237D01*
X0215329Y0082438D02*
X0210426Y0082438D01*
X0209917Y0081640D02*
X0214998Y0081640D01*
X0214809Y0080841D02*
X0209073Y0080841D01*
X0220680Y0077647D02*
X0245139Y0077647D01*
X0244350Y0078446D02*
X0221468Y0078446D01*
X0244409Y0112468D02*
X0244409Y0124468D01*
X0247409Y0127468D01*
X0256620Y0130349D02*
X0257409Y0130349D01*
X0261409Y0130349D02*
X0264072Y0130349D01*
X0263083Y0131148D02*
X0261409Y0131148D01*
X0261409Y0131946D02*
X0262367Y0131946D01*
X0262036Y0132745D02*
X0261409Y0132745D01*
X0261409Y0133543D02*
X0261709Y0133543D01*
X0261709Y0134342D02*
X0261409Y0134342D01*
X0261409Y0135140D02*
X0261709Y0135140D01*
X0261931Y0135939D02*
X0261409Y0135939D01*
X0261409Y0136737D02*
X0262262Y0136737D01*
X0262830Y0137536D02*
X0261409Y0137536D01*
X0261409Y0138334D02*
X0263629Y0138334D01*
X0261409Y0129551D02*
X0283723Y0129551D01*
X0264470Y0128752D02*
X0261409Y0128752D01*
X0261409Y0127954D02*
X0263248Y0127954D01*
X0262449Y0127155D02*
X0261409Y0127155D01*
X0261409Y0126357D02*
X0262104Y0126357D01*
X0261774Y0125558D02*
X0261409Y0125558D01*
X0261409Y0124760D02*
X0261709Y0124760D01*
X0261709Y0123961D02*
X0261409Y0123961D01*
X0261409Y0123162D02*
X0261863Y0123162D01*
X0262194Y0122364D02*
X0261409Y0122364D01*
X0261409Y0121565D02*
X0262665Y0121565D01*
X0263464Y0120767D02*
X0261409Y0120767D01*
X0257409Y0124760D02*
X0256792Y0124760D01*
X0261409Y0150312D02*
X0264162Y0150312D01*
X0263120Y0151110D02*
X0261409Y0151110D01*
X0261678Y0151909D02*
X0262382Y0151909D01*
X0261409Y0154468D02*
X0266409Y0154468D01*
X0262793Y0157498D02*
X0261207Y0157498D01*
X0262006Y0156700D02*
X0262247Y0156700D01*
X0263591Y0158297D02*
X0260409Y0158297D01*
X0259610Y0159096D02*
X0265299Y0159096D01*
X0265171Y0159894D02*
X0258812Y0159894D01*
X0258013Y0160693D02*
X0263538Y0160693D01*
X0262740Y0161491D02*
X0257215Y0161491D01*
X0256416Y0162290D02*
X0262225Y0162290D01*
X0259961Y0163088D02*
X0253952Y0163088D01*
X0253990Y0163887D02*
X0259163Y0163887D01*
X0254752Y0158297D02*
X0253401Y0158297D01*
X0229409Y0155868D02*
X0229409Y0152815D01*
X0229409Y0155868D02*
X0224309Y0160968D01*
X0223668Y0157498D02*
X0224951Y0157498D01*
X0225749Y0156700D02*
X0223409Y0156700D01*
X0223409Y0155901D02*
X0226100Y0155901D01*
X0225841Y0155103D02*
X0223409Y0155103D01*
X0223409Y0154304D02*
X0225841Y0154304D01*
X0225841Y0153506D02*
X0223409Y0153506D01*
X0223409Y0152707D02*
X0225841Y0152707D01*
X0225841Y0151909D02*
X0223409Y0151909D01*
X0223409Y0151110D02*
X0225841Y0151110D01*
X0225841Y0150312D02*
X0223409Y0150312D01*
X0223409Y0149513D02*
X0226314Y0149513D01*
X0226106Y0148715D02*
X0223409Y0148715D01*
X0223409Y0147916D02*
X0226041Y0147916D01*
X0226041Y0147118D02*
X0223409Y0147118D01*
X0246409Y0194468D02*
X0256409Y0204468D01*
X0259720Y0207805D02*
X0263099Y0207805D01*
X0262373Y0207006D02*
X0260445Y0207006D01*
X0260776Y0206208D02*
X0262043Y0206208D01*
X0261712Y0205409D02*
X0261107Y0205409D01*
X0261109Y0204611D02*
X0261709Y0204611D01*
X0261709Y0203812D02*
X0261109Y0203812D01*
X0260894Y0203014D02*
X0261925Y0203014D01*
X0261328Y0202215D02*
X0260563Y0202215D01*
X0260529Y0201417D02*
X0260005Y0201417D01*
X0259731Y0200618D02*
X0259206Y0200618D01*
X0258932Y0199820D02*
X0257468Y0199820D01*
X0258134Y0199021D02*
X0253791Y0199021D01*
X0254589Y0199820D02*
X0255350Y0199820D01*
X0257335Y0198223D02*
X0252992Y0198223D01*
X0252194Y0197424D02*
X0256537Y0197424D01*
X0255738Y0196626D02*
X0251395Y0196626D01*
X0250597Y0195827D02*
X0254940Y0195827D01*
X0254141Y0195029D02*
X0249798Y0195029D01*
X0258708Y0208603D02*
X0264111Y0208603D01*
X0224111Y0208603D02*
X0218708Y0208603D01*
X0219720Y0207805D02*
X0223099Y0207805D01*
X0222373Y0207006D02*
X0220445Y0207006D01*
X0220776Y0206208D02*
X0222043Y0206208D01*
X0221712Y0205409D02*
X0221107Y0205409D01*
X0221109Y0204611D02*
X0221709Y0204611D01*
X0221709Y0203812D02*
X0221109Y0203812D01*
X0220894Y0203014D02*
X0221925Y0203014D01*
X0222255Y0202215D02*
X0220563Y0202215D01*
X0220005Y0201417D02*
X0222814Y0201417D01*
X0223613Y0200618D02*
X0219206Y0200618D01*
X0210514Y0215790D02*
X0203916Y0215790D01*
X0203118Y0216588D02*
X0209638Y0216588D01*
X0209029Y0217387D02*
X0202319Y0217387D01*
X0201521Y0218185D02*
X0208593Y0218185D01*
X0208289Y0218984D02*
X0201409Y0218984D01*
X0201409Y0219782D02*
X0208097Y0219782D01*
X0197409Y0222178D02*
X0196853Y0222178D01*
X0196651Y0222976D02*
X0197073Y0222976D01*
X0188534Y0223775D02*
X0177545Y0223775D01*
X0176746Y0222976D02*
X0188168Y0222976D01*
D19*
X0182409Y0221468D03*
X0174409Y0213468D03*
X0174409Y0199468D03*
X0200409Y0199468D03*
X0214909Y0171468D03*
X0235409Y0183468D03*
X0253409Y0182968D03*
X0277409Y0197468D03*
X0238409Y0147468D03*
X0235409Y0135468D03*
X0221409Y0132468D03*
X0214409Y0139468D03*
X0215409Y0149468D03*
X0254409Y0127468D03*
X0244409Y0112468D03*
X0255409Y0098468D03*
X0247409Y0080468D03*
X0218409Y0080468D03*
X0192409Y0085468D03*
X0192409Y0103468D03*
X0214409Y0108468D03*
X0172409Y0077468D03*
D20*
X0122409Y0082468D02*
X0117409Y0077468D01*
X0122409Y0082468D02*
X0122409Y0094468D01*
D21*
X0142409Y0094468D02*
X0167409Y0094468D01*
X0187409Y0074468D01*
X0206409Y0074468D01*
X0206409Y0094468D02*
X0187409Y0094468D01*
X0177409Y0104468D01*
X0177409Y0191468D01*
X0187409Y0201468D01*
X0192409Y0201468D01*
X0192409Y0211468D01*
M02*
