G75*
%MOIN*%
%OFA0B0*%
%FSLAX25Y25*%
%IPPOS*%
%LPD*%
%AMOC8*
5,1,8,0,0,1.08239X$1,22.5*
%
%ADD10C,0.00500*%
%ADD11C,0.00600*%
%ADD12C,0.01100*%
%ADD13C,0.00800*%
%ADD14R,0.03000X0.01500*%
%ADD15R,0.01500X0.03000*%
%ADD16C,0.01500*%
%ADD17C,0.00200*%
D10*
X0106576Y0106218D02*
X0106159Y0106635D01*
X0106576Y0106218D02*
X0107410Y0106218D01*
X0107827Y0106635D01*
X0107827Y0107052D01*
X0107410Y0107469D01*
X0106576Y0107469D01*
X0106159Y0107886D01*
X0106159Y0108303D01*
X0106576Y0108720D01*
X0107410Y0108720D01*
X0107827Y0108303D01*
X0108922Y0108720D02*
X0108922Y0106218D01*
X0108922Y0107469D02*
X0110590Y0107469D01*
X0110590Y0108720D02*
X0110590Y0106218D01*
X0111684Y0106218D02*
X0112935Y0106218D01*
X0113352Y0106635D01*
X0113352Y0108303D01*
X0112935Y0108720D01*
X0111684Y0108720D01*
X0111684Y0106218D01*
X0114446Y0106218D02*
X0114446Y0108720D01*
X0116115Y0106218D01*
X0116115Y0108720D01*
X0116959Y0109718D02*
X0105909Y0109718D01*
X0098309Y0122018D02*
X0098309Y0144918D01*
X0190509Y0144918D01*
X0190509Y0122018D01*
X0098309Y0122018D01*
X0119659Y0108720D02*
X0119659Y0107052D01*
X0120493Y0106218D01*
X0121327Y0107052D01*
X0121327Y0108720D01*
X0122422Y0108720D02*
X0123256Y0108720D01*
X0122839Y0108720D02*
X0122839Y0106218D01*
X0122422Y0106218D02*
X0123256Y0106218D01*
X0124263Y0106218D02*
X0124263Y0108720D01*
X0125931Y0106218D01*
X0125931Y0108720D01*
X0129659Y0108303D02*
X0129659Y0106635D01*
X0130076Y0106218D01*
X0130910Y0106218D01*
X0131327Y0106635D01*
X0131327Y0107469D01*
X0130493Y0107469D01*
X0129659Y0108303D02*
X0130076Y0108720D01*
X0130910Y0108720D01*
X0131327Y0108303D01*
X0132422Y0108720D02*
X0134090Y0106218D01*
X0134090Y0108720D01*
X0135184Y0108720D02*
X0136435Y0108720D01*
X0136852Y0108303D01*
X0136852Y0106635D01*
X0136435Y0106218D01*
X0135184Y0106218D01*
X0135184Y0108720D01*
X0132422Y0108720D02*
X0132422Y0106218D01*
X0140659Y0106635D02*
X0141076Y0106218D01*
X0141910Y0106218D01*
X0142327Y0106635D01*
X0142327Y0107469D01*
X0141910Y0107886D01*
X0141493Y0107886D01*
X0140659Y0107469D01*
X0140659Y0108720D01*
X0142327Y0108720D01*
X0143422Y0108720D02*
X0143422Y0107052D01*
X0144256Y0106218D01*
X0145090Y0107052D01*
X0145090Y0108720D01*
X0198157Y0097494D02*
X0198574Y0097911D01*
X0198991Y0097911D01*
X0199408Y0097494D01*
X0199825Y0097911D01*
X0200242Y0097911D01*
X0200659Y0097494D01*
X0200659Y0096660D01*
X0200242Y0096243D01*
X0199825Y0095149D02*
X0198157Y0095149D01*
X0198574Y0096243D02*
X0198157Y0096660D01*
X0198157Y0097494D01*
X0199408Y0097494D02*
X0199408Y0097077D01*
X0199825Y0095149D02*
X0200659Y0094315D01*
X0199825Y0093481D01*
X0198157Y0093481D01*
X0198574Y0092386D02*
X0198157Y0091969D01*
X0198157Y0091135D01*
X0198574Y0090718D01*
X0199408Y0091552D02*
X0199408Y0091969D01*
X0199825Y0092386D01*
X0200242Y0092386D01*
X0200659Y0091969D01*
X0200659Y0091135D01*
X0200242Y0090718D01*
X0199408Y0091969D02*
X0198991Y0092386D01*
X0198574Y0092386D01*
X0198157Y0077149D02*
X0199825Y0077149D01*
X0200659Y0076315D01*
X0199825Y0075481D01*
X0198157Y0075481D01*
X0198157Y0074386D02*
X0198157Y0072718D01*
X0199408Y0072718D01*
X0198991Y0073552D01*
X0198991Y0073969D01*
X0199408Y0074386D01*
X0200242Y0074386D01*
X0200659Y0073969D01*
X0200659Y0073135D01*
X0200242Y0072718D01*
X0225657Y0089718D02*
X0225657Y0090969D01*
X0226074Y0091386D01*
X0226908Y0091386D01*
X0227325Y0090969D01*
X0227325Y0089718D01*
X0227325Y0090552D02*
X0228159Y0091386D01*
X0228159Y0092481D02*
X0227742Y0092481D01*
X0226074Y0094149D01*
X0225657Y0094149D01*
X0225657Y0092481D01*
X0225657Y0089718D02*
X0228159Y0089718D01*
X0227673Y0108718D02*
X0226839Y0108718D01*
X0226422Y0109135D01*
X0226422Y0109552D01*
X0226839Y0109969D01*
X0227673Y0109969D01*
X0228090Y0109552D01*
X0228090Y0109135D01*
X0227673Y0108718D01*
X0227673Y0109969D02*
X0228090Y0110386D01*
X0228090Y0110803D01*
X0227673Y0111220D01*
X0226839Y0111220D01*
X0226422Y0110803D01*
X0226422Y0110386D01*
X0226839Y0109969D01*
X0225327Y0109969D02*
X0225327Y0110803D01*
X0224910Y0111220D01*
X0223659Y0111220D01*
X0223659Y0108718D01*
X0223659Y0109552D02*
X0224910Y0109552D01*
X0225327Y0109969D01*
X0224493Y0109552D02*
X0225327Y0108718D01*
X0224742Y0147718D02*
X0223074Y0147718D01*
X0222657Y0148135D01*
X0222657Y0148969D01*
X0223074Y0149386D01*
X0223491Y0150481D02*
X0222657Y0151315D01*
X0225159Y0151315D01*
X0225159Y0150481D02*
X0225159Y0152149D01*
X0224742Y0149386D02*
X0225159Y0148969D01*
X0225159Y0148135D01*
X0224742Y0147718D01*
X0272657Y0145005D02*
X0273074Y0144171D01*
X0273908Y0143337D01*
X0273908Y0144588D01*
X0274325Y0145005D01*
X0274742Y0145005D01*
X0275159Y0144588D01*
X0275159Y0143754D01*
X0274742Y0143337D01*
X0273908Y0143337D01*
X0274742Y0153337D02*
X0273074Y0155005D01*
X0272657Y0155005D01*
X0272657Y0153337D01*
X0274742Y0153337D02*
X0275159Y0153337D01*
X0274742Y0163337D02*
X0274325Y0163337D01*
X0273908Y0163754D01*
X0273908Y0164588D01*
X0274325Y0165005D01*
X0274742Y0165005D01*
X0275159Y0164588D01*
X0275159Y0163754D01*
X0274742Y0163337D01*
X0273908Y0163754D02*
X0273491Y0163337D01*
X0273074Y0163337D01*
X0272657Y0163754D01*
X0272657Y0164588D01*
X0273074Y0165005D01*
X0273491Y0165005D01*
X0273908Y0164588D01*
X0273491Y0173337D02*
X0273908Y0173754D01*
X0273908Y0175005D01*
X0274742Y0175005D02*
X0273074Y0175005D01*
X0272657Y0174588D01*
X0272657Y0173754D01*
X0273074Y0173337D01*
X0273491Y0173337D01*
X0274742Y0173337D02*
X0275159Y0173754D01*
X0275159Y0174588D01*
X0274742Y0175005D01*
X0275159Y0181956D02*
X0275159Y0183624D01*
X0275159Y0182790D02*
X0272657Y0182790D01*
X0273491Y0181956D01*
X0273074Y0184718D02*
X0272657Y0185135D01*
X0272657Y0185969D01*
X0273074Y0186386D01*
X0274742Y0184718D01*
X0275159Y0185135D01*
X0275159Y0185969D01*
X0274742Y0186386D01*
X0273074Y0186386D01*
X0273074Y0184718D02*
X0274742Y0184718D01*
X0275159Y0191956D02*
X0275159Y0193624D01*
X0275159Y0192790D02*
X0272657Y0192790D01*
X0273491Y0191956D01*
X0273491Y0194718D02*
X0272657Y0195552D01*
X0275159Y0195552D01*
X0275159Y0194718D02*
X0275159Y0196386D01*
X0275159Y0201956D02*
X0275159Y0203624D01*
X0275159Y0202790D02*
X0272657Y0202790D01*
X0273491Y0201956D01*
X0273074Y0204718D02*
X0272657Y0205135D01*
X0272657Y0205969D01*
X0273074Y0206386D01*
X0273491Y0206386D01*
X0275159Y0204718D01*
X0275159Y0206386D01*
X0203294Y0210706D02*
X0202704Y0210117D01*
X0202114Y0210117D01*
X0201636Y0209048D02*
X0200456Y0207868D01*
X0201046Y0208458D02*
X0199277Y0210227D01*
X0199277Y0209048D01*
X0200935Y0211296D02*
X0200935Y0211886D01*
X0201525Y0212476D01*
X0202114Y0212476D01*
X0202409Y0212181D01*
X0202409Y0211591D01*
X0202999Y0211591D01*
X0203294Y0211296D01*
X0203294Y0210706D01*
X0202409Y0211591D02*
X0202114Y0211296D01*
X0272657Y0124588D02*
X0273908Y0123337D01*
X0273908Y0125005D01*
X0275159Y0124588D02*
X0272657Y0124588D01*
X0272574Y0077624D02*
X0272157Y0077207D01*
X0272157Y0075956D01*
X0274659Y0075956D01*
X0274659Y0077207D01*
X0274242Y0077624D01*
X0272574Y0077624D01*
X0272157Y0074862D02*
X0274659Y0074862D01*
X0272157Y0073193D01*
X0274659Y0073193D01*
X0274242Y0072099D02*
X0273408Y0072099D01*
X0273408Y0071265D01*
X0272574Y0070431D02*
X0274242Y0070431D01*
X0274659Y0070848D01*
X0274659Y0071682D01*
X0274242Y0072099D01*
X0272574Y0072099D02*
X0272157Y0071682D01*
X0272157Y0070848D01*
X0272574Y0070431D01*
D11*
X0102980Y0087971D02*
X0098709Y0087971D01*
X0100845Y0090106D02*
X0100845Y0085836D01*
X0133487Y0087471D02*
X0137757Y0087471D01*
X0228709Y0159968D02*
X0228709Y0176968D01*
X0228711Y0177044D01*
X0228717Y0177120D01*
X0228726Y0177195D01*
X0228740Y0177270D01*
X0228757Y0177344D01*
X0228778Y0177417D01*
X0228802Y0177489D01*
X0228831Y0177560D01*
X0228862Y0177629D01*
X0228897Y0177696D01*
X0228936Y0177761D01*
X0228978Y0177825D01*
X0229023Y0177886D01*
X0229071Y0177945D01*
X0229122Y0178001D01*
X0229176Y0178055D01*
X0229232Y0178106D01*
X0229291Y0178154D01*
X0229352Y0178199D01*
X0229416Y0178241D01*
X0229481Y0178280D01*
X0229548Y0178315D01*
X0229617Y0178346D01*
X0229688Y0178375D01*
X0229760Y0178399D01*
X0229833Y0178420D01*
X0229907Y0178437D01*
X0229982Y0178451D01*
X0230057Y0178460D01*
X0230133Y0178466D01*
X0230209Y0178468D01*
X0242609Y0178468D01*
X0242685Y0178466D01*
X0242761Y0178460D01*
X0242836Y0178451D01*
X0242911Y0178437D01*
X0242985Y0178420D01*
X0243058Y0178399D01*
X0243130Y0178375D01*
X0243201Y0178346D01*
X0243270Y0178315D01*
X0243337Y0178280D01*
X0243402Y0178241D01*
X0243466Y0178199D01*
X0243527Y0178154D01*
X0243586Y0178106D01*
X0243642Y0178055D01*
X0243696Y0178001D01*
X0243747Y0177945D01*
X0243795Y0177886D01*
X0243840Y0177825D01*
X0243882Y0177761D01*
X0243921Y0177696D01*
X0243956Y0177629D01*
X0243987Y0177560D01*
X0244016Y0177489D01*
X0244040Y0177417D01*
X0244061Y0177344D01*
X0244078Y0177270D01*
X0244092Y0177195D01*
X0244101Y0177120D01*
X0244107Y0177044D01*
X0244109Y0176968D01*
X0244109Y0159968D01*
X0244107Y0159892D01*
X0244101Y0159816D01*
X0244092Y0159741D01*
X0244078Y0159666D01*
X0244061Y0159592D01*
X0244040Y0159519D01*
X0244016Y0159447D01*
X0243987Y0159376D01*
X0243956Y0159307D01*
X0243921Y0159240D01*
X0243882Y0159175D01*
X0243840Y0159111D01*
X0243795Y0159050D01*
X0243747Y0158991D01*
X0243696Y0158935D01*
X0243642Y0158881D01*
X0243586Y0158830D01*
X0243527Y0158782D01*
X0243466Y0158737D01*
X0243402Y0158695D01*
X0243337Y0158656D01*
X0243270Y0158621D01*
X0243201Y0158590D01*
X0243130Y0158561D01*
X0243058Y0158537D01*
X0242985Y0158516D01*
X0242911Y0158499D01*
X0242836Y0158485D01*
X0242761Y0158476D01*
X0242685Y0158470D01*
X0242609Y0158468D01*
X0238409Y0158468D01*
X0234409Y0158468D01*
X0230209Y0158468D01*
X0230133Y0158470D01*
X0230057Y0158476D01*
X0229982Y0158485D01*
X0229907Y0158499D01*
X0229833Y0158516D01*
X0229760Y0158537D01*
X0229688Y0158561D01*
X0229617Y0158590D01*
X0229548Y0158621D01*
X0229481Y0158656D01*
X0229416Y0158695D01*
X0229352Y0158737D01*
X0229291Y0158782D01*
X0229232Y0158830D01*
X0229176Y0158881D01*
X0229122Y0158935D01*
X0229071Y0158991D01*
X0229023Y0159050D01*
X0228978Y0159111D01*
X0228936Y0159175D01*
X0228897Y0159240D01*
X0228862Y0159307D01*
X0228831Y0159376D01*
X0228802Y0159447D01*
X0228778Y0159519D01*
X0228757Y0159592D01*
X0228740Y0159666D01*
X0228726Y0159741D01*
X0228717Y0159816D01*
X0228711Y0159892D01*
X0228709Y0159968D01*
X0234409Y0158468D02*
X0234411Y0158556D01*
X0234417Y0158645D01*
X0234427Y0158733D01*
X0234440Y0158820D01*
X0234458Y0158907D01*
X0234479Y0158993D01*
X0234504Y0159078D01*
X0234533Y0159161D01*
X0234566Y0159244D01*
X0234602Y0159324D01*
X0234641Y0159403D01*
X0234684Y0159481D01*
X0234731Y0159556D01*
X0234781Y0159629D01*
X0234834Y0159700D01*
X0234890Y0159769D01*
X0234949Y0159835D01*
X0235011Y0159898D01*
X0235075Y0159958D01*
X0235142Y0160016D01*
X0235212Y0160070D01*
X0235284Y0160122D01*
X0235358Y0160170D01*
X0235435Y0160215D01*
X0235513Y0160256D01*
X0235593Y0160294D01*
X0235674Y0160328D01*
X0235757Y0160359D01*
X0235842Y0160386D01*
X0235927Y0160409D01*
X0236013Y0160428D01*
X0236101Y0160444D01*
X0236188Y0160456D01*
X0236276Y0160464D01*
X0236365Y0160468D01*
X0236453Y0160468D01*
X0236542Y0160464D01*
X0236630Y0160456D01*
X0236717Y0160444D01*
X0236805Y0160428D01*
X0236891Y0160409D01*
X0236976Y0160386D01*
X0237061Y0160359D01*
X0237144Y0160328D01*
X0237225Y0160294D01*
X0237305Y0160256D01*
X0237383Y0160215D01*
X0237460Y0160170D01*
X0237534Y0160122D01*
X0237606Y0160070D01*
X0237676Y0160016D01*
X0237743Y0159958D01*
X0237807Y0159898D01*
X0237869Y0159835D01*
X0237928Y0159769D01*
X0237984Y0159700D01*
X0238037Y0159629D01*
X0238087Y0159556D01*
X0238134Y0159481D01*
X0238177Y0159403D01*
X0238216Y0159324D01*
X0238252Y0159244D01*
X0238285Y0159161D01*
X0238314Y0159078D01*
X0238339Y0158993D01*
X0238360Y0158907D01*
X0238378Y0158820D01*
X0238391Y0158733D01*
X0238401Y0158645D01*
X0238407Y0158556D01*
X0238409Y0158468D01*
X0236980Y0211971D02*
X0232709Y0211971D01*
X0271709Y0220971D02*
X0275980Y0220971D01*
X0273845Y0223106D02*
X0273845Y0218836D01*
D12*
X0182694Y0097423D02*
X0179741Y0097423D01*
X0179741Y0091518D01*
X0179741Y0093487D02*
X0182694Y0093487D01*
X0183678Y0094471D01*
X0183678Y0096439D01*
X0182694Y0097423D01*
X0181710Y0093487D02*
X0183678Y0091518D01*
X0177233Y0091518D02*
X0173296Y0091518D01*
X0173296Y0097423D01*
X0177233Y0097423D01*
X0175264Y0094471D02*
X0173296Y0094471D01*
X0170787Y0091518D02*
X0170787Y0097423D01*
X0166850Y0097423D02*
X0166850Y0091518D01*
X0168819Y0093487D01*
X0170787Y0091518D01*
X0164342Y0092502D02*
X0164342Y0096439D01*
X0163357Y0097423D01*
X0161389Y0097423D01*
X0160405Y0096439D01*
X0160405Y0092502D01*
X0161389Y0091518D01*
X0163357Y0091518D01*
X0164342Y0092502D01*
X0157896Y0094471D02*
X0156912Y0093487D01*
X0153959Y0093487D01*
X0153959Y0091518D02*
X0153959Y0097423D01*
X0156912Y0097423D01*
X0157896Y0096439D01*
X0157896Y0094471D01*
D13*
X0147409Y0089468D02*
X0147409Y0104468D01*
X0107409Y0104468D01*
X0107409Y0089468D01*
X0147409Y0089468D01*
D14*
X0221409Y0091468D03*
D15*
X0225409Y0104468D03*
D16*
X0229299Y0149468D02*
X0229519Y0149468D01*
D17*
X0242709Y0158468D02*
X0242709Y0178468D01*
M02*
