G75*
%MOIN*%
%OFA0B0*%
%FSLAX25Y25*%
%IPPOS*%
%LPD*%
%AMOC8*
5,1,8,0,0,1.08239X$1,22.5*
%
%ADD10C,0.00500*%
%ADD11C,0.00600*%
%ADD12C,0.00800*%
%ADD13C,0.01100*%
%ADD14R,0.01500X0.03000*%
%ADD15R,0.03000X0.01500*%
%ADD16C,0.04400*%
%ADD17R,0.16200X0.02000*%
%ADD18R,0.02000X0.34000*%
%ADD19C,0.02000*%
%ADD20C,0.02000*%
D10*
X0095704Y0093218D02*
X0095704Y0095720D01*
X0094860Y0096718D02*
X0105909Y0096718D01*
X0105242Y0095720D02*
X0105659Y0095303D01*
X0105659Y0094886D01*
X0105242Y0094469D01*
X0104408Y0094469D01*
X0103991Y0094052D01*
X0103991Y0093635D01*
X0104408Y0093218D01*
X0105242Y0093218D01*
X0105659Y0093635D01*
X0105242Y0095720D02*
X0104408Y0095720D01*
X0103991Y0095303D01*
X0102897Y0095720D02*
X0102897Y0093218D01*
X0102897Y0094469D02*
X0101229Y0094469D01*
X0101229Y0095720D02*
X0101229Y0093218D01*
X0100135Y0093218D02*
X0100135Y0095720D01*
X0098884Y0095720D01*
X0098467Y0095303D01*
X0098467Y0093635D01*
X0098884Y0093218D01*
X0100135Y0093218D01*
X0097372Y0093218D02*
X0097372Y0095720D01*
X0095704Y0093218D01*
X0118887Y0088720D02*
X0118887Y0086218D01*
X0120555Y0088720D01*
X0120555Y0086218D01*
X0121563Y0086218D02*
X0122397Y0086218D01*
X0121980Y0086218D02*
X0121980Y0088720D01*
X0122397Y0088720D02*
X0121563Y0088720D01*
X0123491Y0088720D02*
X0123491Y0087052D01*
X0124325Y0086218D01*
X0125159Y0087052D01*
X0125159Y0088720D01*
X0132904Y0088303D02*
X0133321Y0088720D01*
X0134572Y0088720D01*
X0134572Y0086218D01*
X0133321Y0086218D01*
X0132904Y0086635D01*
X0132904Y0088303D01*
X0135666Y0088720D02*
X0135666Y0086218D01*
X0137334Y0088720D01*
X0137334Y0086218D01*
X0138428Y0086635D02*
X0138428Y0087469D01*
X0139262Y0087469D01*
X0138428Y0086635D02*
X0138845Y0086218D01*
X0139679Y0086218D01*
X0140096Y0086635D01*
X0140096Y0088303D01*
X0139679Y0088720D01*
X0138845Y0088720D01*
X0138428Y0088303D01*
X0148729Y0094052D02*
X0148729Y0095720D01*
X0148729Y0094052D02*
X0149563Y0093218D01*
X0150397Y0094052D01*
X0150397Y0095720D01*
X0151491Y0095720D02*
X0153159Y0095720D01*
X0153159Y0094469D01*
X0152325Y0094886D01*
X0151908Y0094886D01*
X0151491Y0094469D01*
X0151491Y0093635D01*
X0151908Y0093218D01*
X0152742Y0093218D01*
X0153159Y0093635D01*
X0175729Y0110218D02*
X0177397Y0110218D01*
X0176563Y0110218D02*
X0176563Y0112720D01*
X0177397Y0111886D01*
X0178491Y0111469D02*
X0178908Y0111052D01*
X0180159Y0111052D01*
X0179325Y0111052D02*
X0178491Y0110218D01*
X0178491Y0111469D02*
X0178491Y0112303D01*
X0178908Y0112720D01*
X0180159Y0112720D01*
X0180159Y0110218D01*
X0180159Y0120218D02*
X0180159Y0122720D01*
X0178908Y0122720D01*
X0178491Y0122303D01*
X0178491Y0121469D01*
X0178908Y0121052D01*
X0180159Y0121052D01*
X0179325Y0121052D02*
X0178491Y0120218D01*
X0177397Y0120218D02*
X0175729Y0121886D01*
X0175729Y0122303D01*
X0176146Y0122720D01*
X0176980Y0122720D01*
X0177397Y0122303D01*
X0177397Y0120218D02*
X0175729Y0120218D01*
X0176146Y0130218D02*
X0176980Y0130218D01*
X0177397Y0130635D01*
X0178491Y0130218D02*
X0179325Y0131052D01*
X0178908Y0131052D02*
X0180159Y0131052D01*
X0180159Y0130218D02*
X0180159Y0132720D01*
X0178908Y0132720D01*
X0178491Y0132303D01*
X0178491Y0131469D01*
X0178908Y0131052D01*
X0177397Y0132303D02*
X0176980Y0132720D01*
X0176146Y0132720D01*
X0175729Y0132303D01*
X0175729Y0131886D01*
X0176146Y0131469D01*
X0175729Y0131052D01*
X0175729Y0130635D01*
X0176146Y0130218D01*
X0176146Y0131469D02*
X0176563Y0131469D01*
X0176146Y0140218D02*
X0176146Y0142720D01*
X0177397Y0141469D01*
X0175729Y0141469D01*
X0178491Y0141469D02*
X0178908Y0141052D01*
X0180159Y0141052D01*
X0179325Y0141052D02*
X0178491Y0140218D01*
X0178491Y0141469D02*
X0178491Y0142303D01*
X0178908Y0142720D01*
X0180159Y0142720D01*
X0180159Y0140218D01*
X0180159Y0150218D02*
X0180159Y0152720D01*
X0178908Y0152720D01*
X0178491Y0152303D01*
X0178491Y0151469D01*
X0178908Y0151052D01*
X0180159Y0151052D01*
X0179325Y0151052D02*
X0178491Y0150218D01*
X0177397Y0150635D02*
X0176980Y0150218D01*
X0176146Y0150218D01*
X0175729Y0150635D01*
X0175729Y0151469D01*
X0176146Y0151886D01*
X0176563Y0151886D01*
X0177397Y0151469D01*
X0177397Y0152720D01*
X0175729Y0152720D01*
X0156662Y0148149D02*
X0156244Y0147315D01*
X0155410Y0146481D01*
X0155410Y0147732D01*
X0154993Y0148149D01*
X0154576Y0148149D01*
X0154159Y0147732D01*
X0154159Y0146898D01*
X0154576Y0146481D01*
X0155410Y0146481D01*
X0155410Y0145386D02*
X0154993Y0144969D01*
X0154993Y0143718D01*
X0154159Y0143718D02*
X0156662Y0143718D01*
X0156662Y0144969D01*
X0156244Y0145386D01*
X0155410Y0145386D01*
X0154993Y0144552D02*
X0154159Y0145386D01*
X0147946Y0155218D02*
X0147946Y0157720D01*
X0146695Y0157720D01*
X0146278Y0157303D01*
X0146278Y0156469D01*
X0146695Y0156052D01*
X0147946Y0156052D01*
X0145184Y0155218D02*
X0144350Y0156052D01*
X0143516Y0155218D01*
X0143516Y0157720D01*
X0142422Y0157720D02*
X0141171Y0157720D01*
X0140754Y0157303D01*
X0140754Y0156469D01*
X0141171Y0156052D01*
X0142422Y0156052D01*
X0142422Y0155218D02*
X0142422Y0157720D01*
X0141588Y0156052D02*
X0140754Y0155218D01*
X0145184Y0155218D02*
X0145184Y0157720D01*
X0144350Y0165218D02*
X0144350Y0167720D01*
X0145184Y0167720D02*
X0143516Y0167720D01*
X0142422Y0167720D02*
X0140754Y0167720D01*
X0141588Y0167720D02*
X0141588Y0165218D01*
X0146278Y0165218D02*
X0146278Y0166886D01*
X0147112Y0167720D01*
X0147946Y0166886D01*
X0147946Y0165218D01*
X0149041Y0165635D02*
X0149458Y0165218D01*
X0150709Y0165218D01*
X0150709Y0167720D01*
X0149458Y0167720D01*
X0149041Y0167303D01*
X0149041Y0166886D01*
X0149458Y0166469D01*
X0150709Y0166469D01*
X0149458Y0166469D02*
X0149041Y0166052D01*
X0149041Y0165635D01*
X0147946Y0166469D02*
X0146278Y0166469D01*
X0147112Y0175218D02*
X0147112Y0177720D01*
X0147946Y0177720D02*
X0146278Y0177720D01*
X0145184Y0177303D02*
X0145184Y0175635D01*
X0144767Y0175218D01*
X0143933Y0175218D01*
X0143516Y0175635D01*
X0142422Y0175218D02*
X0141171Y0175218D01*
X0140754Y0175635D01*
X0140754Y0176052D01*
X0141171Y0176469D01*
X0142422Y0176469D01*
X0142422Y0175218D02*
X0142422Y0177720D01*
X0141171Y0177720D01*
X0140754Y0177303D01*
X0140754Y0176886D01*
X0141171Y0176469D01*
X0143516Y0177303D02*
X0143933Y0177720D01*
X0144767Y0177720D01*
X0145184Y0177303D01*
X0149041Y0177303D02*
X0149041Y0176469D01*
X0149458Y0176052D01*
X0150709Y0176052D01*
X0150709Y0175218D02*
X0150709Y0177720D01*
X0149458Y0177720D01*
X0149041Y0177303D01*
X0149875Y0176052D02*
X0149041Y0175218D01*
X0147529Y0185218D02*
X0147946Y0185635D01*
X0147529Y0185218D02*
X0146695Y0185218D01*
X0146278Y0185635D01*
X0146278Y0186052D01*
X0146695Y0186469D01*
X0147529Y0186469D01*
X0147946Y0186886D01*
X0147946Y0187303D01*
X0147529Y0187720D01*
X0146695Y0187720D01*
X0146278Y0187303D01*
X0145184Y0187720D02*
X0143933Y0187720D01*
X0143516Y0187303D01*
X0143516Y0185635D01*
X0143933Y0185218D01*
X0145184Y0185218D01*
X0145184Y0187720D01*
X0142422Y0187720D02*
X0141171Y0187720D01*
X0140754Y0187303D01*
X0140754Y0186886D01*
X0141171Y0186469D01*
X0142422Y0186469D01*
X0142422Y0185218D02*
X0141171Y0185218D01*
X0140754Y0185635D01*
X0140754Y0186052D01*
X0141171Y0186469D01*
X0142422Y0185218D02*
X0142422Y0187720D01*
X0142422Y0195218D02*
X0141588Y0196052D01*
X0140754Y0195218D01*
X0140754Y0197720D01*
X0142422Y0197720D02*
X0142422Y0195218D01*
X0143516Y0195635D02*
X0143516Y0197303D01*
X0143933Y0197720D01*
X0145184Y0197720D01*
X0145184Y0195218D01*
X0143933Y0195218D01*
X0143516Y0195635D01*
X0146278Y0195635D02*
X0146695Y0195218D01*
X0147529Y0195218D01*
X0147946Y0195635D01*
X0147529Y0196469D02*
X0147946Y0196886D01*
X0147946Y0197303D01*
X0147529Y0197720D01*
X0146695Y0197720D01*
X0146278Y0197303D01*
X0146695Y0196469D02*
X0146278Y0196052D01*
X0146278Y0195635D01*
X0146695Y0196469D02*
X0147529Y0196469D01*
X0147946Y0205218D02*
X0146278Y0205218D01*
X0145184Y0205218D02*
X0145184Y0207720D01*
X0143933Y0207720D01*
X0143516Y0207303D01*
X0143516Y0206469D01*
X0143933Y0206052D01*
X0145184Y0206052D01*
X0147112Y0206469D02*
X0147946Y0206469D01*
X0147946Y0207720D02*
X0147946Y0205218D01*
X0147946Y0207720D02*
X0146278Y0207720D01*
X0142422Y0207720D02*
X0142422Y0205218D01*
X0141588Y0206052D01*
X0140754Y0205218D01*
X0140754Y0207720D01*
X0199402Y0209763D02*
X0199697Y0209468D01*
X0200287Y0209468D01*
X0200287Y0208878D01*
X0200581Y0208584D01*
X0201171Y0208584D01*
X0201761Y0209173D01*
X0201761Y0209763D01*
X0202830Y0210242D02*
X0204009Y0211421D01*
X0203419Y0210832D02*
X0201650Y0212601D01*
X0202830Y0212601D01*
X0200581Y0210943D02*
X0199992Y0210943D01*
X0199402Y0210353D01*
X0199402Y0209763D01*
X0200287Y0209468D02*
X0200581Y0209763D01*
X0220967Y0196803D02*
X0221384Y0197220D01*
X0222218Y0197220D01*
X0222635Y0196803D01*
X0220967Y0196803D02*
X0220967Y0196386D01*
X0222635Y0194718D01*
X0220967Y0194718D01*
X0223729Y0194718D02*
X0225397Y0194718D01*
X0224563Y0194718D02*
X0224563Y0197220D01*
X0225397Y0196386D01*
X0226491Y0195969D02*
X0226908Y0195552D01*
X0228159Y0195552D01*
X0227325Y0195552D02*
X0226491Y0194718D01*
X0226491Y0195969D02*
X0226491Y0196803D01*
X0226908Y0197220D01*
X0228159Y0197220D01*
X0228159Y0194718D01*
X0227908Y0181220D02*
X0227491Y0180803D01*
X0227491Y0179969D01*
X0227908Y0179552D01*
X0229159Y0179552D01*
X0228325Y0179552D02*
X0227491Y0178718D01*
X0226397Y0178718D02*
X0224729Y0178718D01*
X0225563Y0178718D02*
X0225563Y0181220D01*
X0226397Y0180386D01*
X0227908Y0181220D02*
X0229159Y0181220D01*
X0229159Y0178718D01*
X0223635Y0179969D02*
X0221967Y0179969D01*
X0222384Y0178718D02*
X0222384Y0181220D01*
X0223635Y0179969D01*
X0223218Y0167220D02*
X0222384Y0167220D01*
X0221967Y0166803D01*
X0221967Y0166386D01*
X0222384Y0165969D01*
X0221967Y0165552D01*
X0221967Y0165135D01*
X0222384Y0164718D01*
X0223218Y0164718D01*
X0223635Y0165135D01*
X0224729Y0164718D02*
X0226397Y0164718D01*
X0225563Y0164718D02*
X0225563Y0167220D01*
X0226397Y0166386D01*
X0227491Y0165969D02*
X0227908Y0165552D01*
X0229159Y0165552D01*
X0228325Y0165552D02*
X0227491Y0164718D01*
X0227491Y0165969D02*
X0227491Y0166803D01*
X0227908Y0167220D01*
X0229159Y0167220D01*
X0229159Y0164718D01*
X0223635Y0166803D02*
X0223218Y0167220D01*
X0222801Y0165969D02*
X0222384Y0165969D01*
X0238659Y0165610D02*
X0239076Y0165193D01*
X0238659Y0165610D02*
X0238659Y0166445D01*
X0239076Y0166862D01*
X0239493Y0166862D01*
X0239910Y0166445D01*
X0239910Y0165610D01*
X0240327Y0165193D01*
X0240744Y0165193D01*
X0241162Y0165610D01*
X0241162Y0166445D01*
X0240744Y0166862D01*
X0240744Y0167956D02*
X0241162Y0168373D01*
X0241162Y0169207D01*
X0240744Y0169624D01*
X0240327Y0169624D01*
X0238659Y0167956D01*
X0238659Y0169624D01*
X0243488Y0170618D02*
X0243488Y0164319D01*
X0243488Y0155657D02*
X0253331Y0155657D01*
X0253331Y0163728D01*
X0253331Y0171208D02*
X0253331Y0179279D01*
X0243488Y0179279D01*
X0244967Y0181135D02*
X0245384Y0180718D01*
X0246218Y0180718D01*
X0246635Y0181135D01*
X0244967Y0182803D01*
X0244967Y0181135D01*
X0246635Y0181135D02*
X0246635Y0182803D01*
X0246218Y0183220D01*
X0245384Y0183220D01*
X0244967Y0182803D01*
X0247729Y0182803D02*
X0249397Y0181135D01*
X0249397Y0180718D01*
X0250491Y0180718D02*
X0252159Y0180718D01*
X0250491Y0182386D01*
X0250491Y0182803D01*
X0250908Y0183220D01*
X0251742Y0183220D01*
X0252159Y0182803D01*
X0249397Y0183220D02*
X0247729Y0183220D01*
X0247729Y0182803D01*
X0247563Y0194718D02*
X0247563Y0197220D01*
X0248397Y0196386D01*
X0249491Y0195969D02*
X0249908Y0195552D01*
X0251159Y0195552D01*
X0250325Y0195552D02*
X0249491Y0194718D01*
X0248397Y0194718D02*
X0246729Y0194718D01*
X0245635Y0194718D02*
X0243967Y0194718D01*
X0244801Y0194718D02*
X0244801Y0197220D01*
X0245635Y0196386D01*
X0249491Y0196803D02*
X0249491Y0195969D01*
X0249491Y0196803D02*
X0249908Y0197220D01*
X0251159Y0197220D01*
X0251159Y0194718D01*
X0249742Y0210218D02*
X0250159Y0210635D01*
X0249742Y0210218D02*
X0248908Y0210218D01*
X0248491Y0210635D01*
X0248491Y0211052D01*
X0248908Y0211469D01*
X0249325Y0211469D01*
X0248908Y0211469D02*
X0248491Y0211886D01*
X0248491Y0212303D01*
X0248908Y0212720D01*
X0249742Y0212720D01*
X0250159Y0212303D01*
X0247397Y0212720D02*
X0247397Y0211052D01*
X0246563Y0210218D01*
X0245729Y0211052D01*
X0245729Y0212720D01*
X0244635Y0212303D02*
X0244218Y0212720D01*
X0243384Y0212720D01*
X0242967Y0212303D01*
X0242967Y0211886D01*
X0243384Y0211469D01*
X0242967Y0211052D01*
X0242967Y0210635D01*
X0243384Y0210218D01*
X0244218Y0210218D01*
X0244635Y0210635D01*
X0243801Y0211469D02*
X0243384Y0211469D01*
X0240159Y0212303D02*
X0240159Y0210635D01*
X0239742Y0210218D01*
X0238908Y0210218D01*
X0238491Y0210635D01*
X0238491Y0211469D01*
X0239325Y0211469D01*
X0238491Y0212303D02*
X0238908Y0212720D01*
X0239742Y0212720D01*
X0240159Y0212303D01*
X0237397Y0212720D02*
X0237397Y0210218D01*
X0235729Y0210218D02*
X0235729Y0212720D01*
X0234635Y0212720D02*
X0233384Y0212720D01*
X0232967Y0212303D01*
X0232967Y0210635D01*
X0233384Y0210218D01*
X0234635Y0210218D01*
X0234635Y0212720D01*
X0235729Y0210218D02*
X0237397Y0212720D01*
X0272659Y0206386D02*
X0272659Y0204718D01*
X0274327Y0206386D01*
X0274744Y0206386D01*
X0275162Y0205969D01*
X0275162Y0205135D01*
X0274744Y0204718D01*
X0275162Y0202790D02*
X0272659Y0202790D01*
X0272659Y0201956D02*
X0272659Y0203624D01*
X0274327Y0201956D02*
X0275162Y0202790D01*
X0272659Y0196386D02*
X0272659Y0194718D01*
X0272659Y0195552D02*
X0275162Y0195552D01*
X0274327Y0194718D01*
X0272659Y0193624D02*
X0272659Y0191956D01*
X0272659Y0192790D02*
X0275162Y0192790D01*
X0274327Y0191956D01*
X0274744Y0186386D02*
X0273076Y0186386D01*
X0272659Y0185969D01*
X0272659Y0185135D01*
X0273076Y0184718D01*
X0274744Y0186386D01*
X0275162Y0185969D01*
X0275162Y0185135D01*
X0274744Y0184718D01*
X0273076Y0184718D01*
X0272659Y0183624D02*
X0272659Y0181956D01*
X0272659Y0182790D02*
X0275162Y0182790D01*
X0274327Y0181956D01*
X0273910Y0175005D02*
X0273910Y0173754D01*
X0274327Y0173337D01*
X0274744Y0173337D01*
X0275162Y0173754D01*
X0275162Y0174588D01*
X0274744Y0175005D01*
X0273076Y0175005D01*
X0272659Y0174588D01*
X0272659Y0173754D01*
X0273076Y0173337D01*
X0273076Y0165005D02*
X0272659Y0164588D01*
X0272659Y0163754D01*
X0273076Y0163337D01*
X0273493Y0163337D01*
X0273910Y0163754D01*
X0273910Y0164588D01*
X0273493Y0165005D01*
X0273076Y0165005D01*
X0273910Y0164588D02*
X0274327Y0165005D01*
X0274744Y0165005D01*
X0275162Y0164588D01*
X0275162Y0163754D01*
X0274744Y0163337D01*
X0274327Y0163337D01*
X0273910Y0163754D01*
X0274744Y0155005D02*
X0273076Y0153337D01*
X0272659Y0153337D01*
X0275162Y0153337D02*
X0275162Y0155005D01*
X0274744Y0155005D01*
X0275162Y0145005D02*
X0274744Y0144171D01*
X0273910Y0143337D01*
X0273910Y0144588D01*
X0273493Y0145005D01*
X0273076Y0145005D01*
X0272659Y0144588D01*
X0272659Y0143754D01*
X0273076Y0143337D01*
X0273910Y0143337D01*
X0256162Y0144315D02*
X0253659Y0144315D01*
X0253659Y0143481D02*
X0253659Y0145149D01*
X0255327Y0143481D02*
X0256162Y0144315D01*
X0255744Y0142386D02*
X0254076Y0142386D01*
X0253659Y0141969D01*
X0253659Y0141135D01*
X0254076Y0140718D01*
X0255744Y0140718D01*
X0256162Y0141135D01*
X0256162Y0141969D01*
X0255744Y0142386D01*
X0254493Y0141552D02*
X0253659Y0142386D01*
X0252446Y0151718D02*
X0250778Y0151718D01*
X0251612Y0151718D02*
X0251612Y0154220D01*
X0252446Y0153386D01*
X0249684Y0153803D02*
X0249267Y0154220D01*
X0248433Y0154220D01*
X0248016Y0153803D01*
X0248016Y0153386D01*
X0249684Y0151718D01*
X0248016Y0151718D01*
X0246922Y0152135D02*
X0245254Y0153803D01*
X0245254Y0152135D01*
X0245671Y0151718D01*
X0246505Y0151718D01*
X0246922Y0152135D01*
X0246922Y0153803D01*
X0246505Y0154220D01*
X0245671Y0154220D01*
X0245254Y0153803D01*
X0235162Y0144732D02*
X0235162Y0143898D01*
X0234744Y0143481D01*
X0234327Y0143481D01*
X0233910Y0143898D01*
X0233910Y0145149D01*
X0233076Y0145149D02*
X0234744Y0145149D01*
X0235162Y0144732D01*
X0233076Y0145149D02*
X0232659Y0144732D01*
X0232659Y0143898D01*
X0233076Y0143481D01*
X0232659Y0142386D02*
X0233493Y0141552D01*
X0233493Y0141969D02*
X0233493Y0140718D01*
X0232659Y0140718D02*
X0235162Y0140718D01*
X0235162Y0141969D01*
X0234744Y0142386D01*
X0233910Y0142386D01*
X0233493Y0141969D01*
X0249659Y0127494D02*
X0249659Y0126660D01*
X0250076Y0126243D01*
X0250910Y0126243D02*
X0251327Y0127077D01*
X0251327Y0127494D01*
X0250910Y0127911D01*
X0250076Y0127911D01*
X0249659Y0127494D01*
X0250910Y0126243D02*
X0252162Y0126243D01*
X0252162Y0127911D01*
X0252162Y0124315D02*
X0249659Y0124315D01*
X0249659Y0123481D02*
X0249659Y0125149D01*
X0251327Y0123481D02*
X0252162Y0124315D01*
X0251744Y0122386D02*
X0250910Y0122386D01*
X0250493Y0121969D01*
X0250493Y0120718D01*
X0249659Y0120718D02*
X0252162Y0120718D01*
X0252162Y0121969D01*
X0251744Y0122386D01*
X0250493Y0121552D02*
X0249659Y0122386D01*
X0247039Y0120145D02*
X0247039Y0104791D01*
X0249659Y0103732D02*
X0249659Y0102898D01*
X0250076Y0102481D01*
X0250076Y0101386D02*
X0249659Y0100969D01*
X0249659Y0100135D01*
X0250076Y0099718D01*
X0250910Y0100135D02*
X0250910Y0100969D01*
X0250493Y0101386D01*
X0250076Y0101386D01*
X0250910Y0100135D02*
X0251327Y0099718D01*
X0251744Y0099718D01*
X0252162Y0100135D01*
X0252162Y0100969D01*
X0251744Y0101386D01*
X0251744Y0102481D02*
X0252162Y0102898D01*
X0252162Y0103732D01*
X0251744Y0104149D01*
X0251327Y0104149D01*
X0250910Y0103732D01*
X0250493Y0104149D01*
X0250076Y0104149D01*
X0249659Y0103732D01*
X0250910Y0103732D02*
X0250910Y0103315D01*
X0257659Y0105718D02*
X0257659Y0106969D01*
X0258076Y0107386D01*
X0259744Y0107386D01*
X0260162Y0106969D01*
X0260162Y0105718D01*
X0257659Y0105718D01*
X0258076Y0108481D02*
X0257659Y0108898D01*
X0257659Y0109732D01*
X0258076Y0110149D01*
X0258493Y0110149D01*
X0258910Y0109732D01*
X0258910Y0108481D01*
X0258076Y0108481D01*
X0258910Y0108481D02*
X0259744Y0109315D01*
X0260162Y0110149D01*
X0257242Y0111243D02*
X0257242Y0112911D01*
X0258076Y0114005D02*
X0257659Y0114422D01*
X0257659Y0115256D01*
X0258076Y0115673D01*
X0258076Y0114005D02*
X0259744Y0114005D01*
X0260162Y0114422D01*
X0260162Y0115256D01*
X0259744Y0115673D01*
X0260162Y0116768D02*
X0260162Y0118436D01*
X0260162Y0117602D02*
X0257659Y0117602D01*
X0257659Y0119530D02*
X0260162Y0119530D01*
X0260162Y0120781D01*
X0259744Y0121198D01*
X0258910Y0121198D01*
X0258493Y0120781D01*
X0258493Y0119530D01*
X0258493Y0120364D02*
X0257659Y0121198D01*
X0257659Y0122292D02*
X0257659Y0123960D01*
X0257659Y0122292D02*
X0260162Y0122292D01*
X0272659Y0124588D02*
X0275162Y0124588D01*
X0273910Y0123337D01*
X0273910Y0125005D01*
X0242744Y0088149D02*
X0242327Y0088149D01*
X0241910Y0087732D01*
X0241493Y0088149D01*
X0241076Y0088149D01*
X0240659Y0087732D01*
X0240659Y0086898D01*
X0241076Y0086481D01*
X0241076Y0085386D02*
X0240659Y0084969D01*
X0240659Y0084135D01*
X0241076Y0083718D01*
X0242744Y0083718D01*
X0243162Y0084135D01*
X0243162Y0084969D01*
X0242744Y0085386D01*
X0241076Y0085386D01*
X0240659Y0085386D02*
X0241493Y0084552D01*
X0242744Y0086481D02*
X0243162Y0086898D01*
X0243162Y0087732D01*
X0242744Y0088149D01*
X0241910Y0087732D02*
X0241910Y0087315D01*
X0233162Y0087732D02*
X0233162Y0086898D01*
X0232744Y0086481D01*
X0232744Y0085386D02*
X0231076Y0085386D01*
X0230659Y0084969D01*
X0230659Y0084135D01*
X0231076Y0083718D01*
X0232744Y0083718D01*
X0233162Y0084135D01*
X0233162Y0084969D01*
X0232744Y0085386D01*
X0231493Y0084552D02*
X0230659Y0085386D01*
X0230659Y0086481D02*
X0232327Y0088149D01*
X0232744Y0088149D01*
X0233162Y0087732D01*
X0230659Y0088149D02*
X0230659Y0086481D01*
X0230254Y0074720D02*
X0231922Y0072218D01*
X0230254Y0072218D02*
X0231922Y0074720D01*
X0233016Y0074720D02*
X0234684Y0074720D01*
X0233850Y0074720D02*
X0233850Y0072218D01*
X0238729Y0072218D02*
X0240397Y0074720D01*
X0241491Y0074303D02*
X0241908Y0074720D01*
X0243159Y0074720D01*
X0243159Y0072218D01*
X0243159Y0073052D02*
X0241908Y0073052D01*
X0241491Y0073469D01*
X0241491Y0074303D01*
X0242325Y0073052D02*
X0241491Y0072218D01*
X0240397Y0072218D02*
X0238729Y0074720D01*
X0223162Y0100718D02*
X0223162Y0102386D01*
X0223162Y0101552D02*
X0220659Y0101552D01*
X0220659Y0103481D02*
X0223162Y0105149D01*
X0223162Y0103481D02*
X0220659Y0105149D01*
X0220242Y0106243D02*
X0220242Y0107911D01*
X0221076Y0109005D02*
X0220659Y0109422D01*
X0220659Y0110256D01*
X0221076Y0110673D01*
X0221076Y0109005D02*
X0222744Y0109005D01*
X0223162Y0109422D01*
X0223162Y0110256D01*
X0222744Y0110673D01*
X0225779Y0104791D02*
X0225779Y0120145D01*
X0215162Y0120660D02*
X0215162Y0121494D01*
X0214744Y0121911D01*
X0213076Y0120243D01*
X0212659Y0120660D01*
X0212659Y0121494D01*
X0213076Y0121911D01*
X0214744Y0121911D01*
X0215162Y0120660D02*
X0214744Y0120243D01*
X0213076Y0120243D01*
X0212659Y0119149D02*
X0212659Y0117481D01*
X0212659Y0118315D02*
X0215162Y0118315D01*
X0214327Y0117481D01*
X0214744Y0116386D02*
X0213910Y0116386D01*
X0213493Y0115969D01*
X0213493Y0114718D01*
X0212659Y0114718D02*
X0215162Y0114718D01*
X0215162Y0115969D01*
X0214744Y0116386D01*
X0213493Y0115552D02*
X0212659Y0116386D01*
X0200244Y0097624D02*
X0199827Y0097624D01*
X0199410Y0097207D01*
X0198993Y0097624D01*
X0198576Y0097624D01*
X0198159Y0097207D01*
X0198159Y0096373D01*
X0198576Y0095956D01*
X0198993Y0094862D02*
X0198159Y0094028D01*
X0198993Y0093193D01*
X0200662Y0093193D01*
X0200244Y0092099D02*
X0199827Y0092099D01*
X0199410Y0091682D01*
X0198993Y0092099D01*
X0198576Y0092099D01*
X0198159Y0091682D01*
X0198159Y0090848D01*
X0198576Y0090431D01*
X0199410Y0091265D02*
X0199410Y0091682D01*
X0200244Y0092099D02*
X0200662Y0091682D01*
X0200662Y0090848D01*
X0200244Y0090431D01*
X0200662Y0094862D02*
X0198993Y0094862D01*
X0200244Y0095956D02*
X0200662Y0096373D01*
X0200662Y0097207D01*
X0200244Y0097624D01*
X0199410Y0097207D02*
X0199410Y0096790D01*
X0198993Y0076624D02*
X0198159Y0075790D01*
X0198993Y0074956D01*
X0200662Y0074956D01*
X0200662Y0073862D02*
X0200662Y0072193D01*
X0199410Y0072193D01*
X0199827Y0073028D01*
X0199827Y0073445D01*
X0199410Y0073862D01*
X0198576Y0073862D01*
X0198159Y0073445D01*
X0198159Y0072610D01*
X0198576Y0072193D01*
X0198993Y0076624D02*
X0200662Y0076624D01*
X0272159Y0076243D02*
X0272159Y0077494D01*
X0272576Y0077911D01*
X0274244Y0077911D01*
X0274662Y0077494D01*
X0274662Y0076243D01*
X0272159Y0076243D01*
X0272159Y0075149D02*
X0274662Y0075149D01*
X0274662Y0073481D02*
X0272159Y0073481D01*
X0272576Y0072386D02*
X0273410Y0072386D01*
X0273410Y0071552D01*
X0272576Y0070718D02*
X0272159Y0071135D01*
X0272159Y0071969D01*
X0272576Y0072386D01*
X0272576Y0070718D02*
X0274244Y0070718D01*
X0274662Y0071135D01*
X0274662Y0071969D01*
X0274244Y0072386D01*
X0274662Y0073481D02*
X0272159Y0075149D01*
D11*
X0131109Y0071971D02*
X0126839Y0071971D01*
X0113109Y0070971D02*
X0108839Y0070971D01*
X0110974Y0073106D02*
X0110974Y0068836D01*
X0112609Y0103768D02*
X0106609Y0103768D01*
X0106609Y0117468D01*
X0117909Y0104868D01*
X0115509Y0104168D01*
X0112609Y0103768D01*
X0115531Y0104174D02*
X0106609Y0104174D01*
X0106609Y0104773D02*
X0117583Y0104773D01*
X0117458Y0105371D02*
X0106609Y0105371D01*
X0106609Y0105970D02*
X0116921Y0105970D01*
X0116385Y0106568D02*
X0106609Y0106568D01*
X0106609Y0107167D02*
X0115848Y0107167D01*
X0115311Y0107765D02*
X0106609Y0107765D01*
X0106609Y0108364D02*
X0114774Y0108364D01*
X0114237Y0108962D02*
X0106609Y0108962D01*
X0106609Y0109561D02*
X0113701Y0109561D01*
X0113164Y0110160D02*
X0106609Y0110160D01*
X0106609Y0110758D02*
X0112627Y0110758D01*
X0112090Y0111357D02*
X0106609Y0111357D01*
X0106609Y0111955D02*
X0111554Y0111955D01*
X0111017Y0112554D02*
X0106609Y0112554D01*
X0106609Y0113152D02*
X0110480Y0113152D01*
X0109943Y0113751D02*
X0106609Y0113751D01*
X0106609Y0114349D02*
X0109407Y0114349D01*
X0108870Y0114948D02*
X0106609Y0114948D01*
X0106609Y0115546D02*
X0108333Y0115546D01*
X0107796Y0116145D02*
X0106609Y0116145D01*
X0106609Y0116743D02*
X0107260Y0116743D01*
X0106723Y0117342D02*
X0106609Y0117342D01*
X0106609Y0117468D02*
X0117909Y0130068D01*
X0115509Y0130768D01*
X0112609Y0131168D01*
X0106609Y0131168D01*
X0106609Y0117468D01*
X0106609Y0117940D02*
X0107033Y0117940D01*
X0106609Y0118539D02*
X0107569Y0118539D01*
X0108106Y0119137D02*
X0106609Y0119137D01*
X0106609Y0119736D02*
X0108643Y0119736D01*
X0109180Y0120334D02*
X0106609Y0120334D01*
X0106609Y0120933D02*
X0109716Y0120933D01*
X0110253Y0121531D02*
X0106609Y0121531D01*
X0106609Y0122130D02*
X0110790Y0122130D01*
X0111327Y0122728D02*
X0106609Y0122728D01*
X0106609Y0123327D02*
X0111863Y0123327D01*
X0112400Y0123925D02*
X0106609Y0123925D01*
X0106609Y0124524D02*
X0112937Y0124524D01*
X0113474Y0125122D02*
X0106609Y0125122D01*
X0106609Y0125721D02*
X0114011Y0125721D01*
X0114547Y0126319D02*
X0106609Y0126319D01*
X0106609Y0126918D02*
X0115084Y0126918D01*
X0115621Y0127516D02*
X0106609Y0127516D01*
X0106609Y0128115D02*
X0116158Y0128115D01*
X0116694Y0128713D02*
X0106609Y0128713D01*
X0106609Y0129312D02*
X0117231Y0129312D01*
X0117768Y0129910D02*
X0106609Y0129910D01*
X0106609Y0130509D02*
X0116398Y0130509D01*
X0113050Y0131107D02*
X0106609Y0131107D01*
X0118668Y0119736D02*
X0128106Y0119736D01*
X0127920Y0120334D02*
X0119237Y0120334D01*
X0119807Y0120933D02*
X0127617Y0120933D01*
X0127909Y0120368D02*
X0126509Y0123068D01*
X0124409Y0125768D01*
X0116509Y0117468D01*
X0124409Y0109268D01*
X0126509Y0111868D01*
X0127909Y0114568D01*
X0128809Y0117468D01*
X0127909Y0120368D01*
X0128291Y0119137D02*
X0118098Y0119137D01*
X0117528Y0118539D02*
X0128477Y0118539D01*
X0128663Y0117940D02*
X0116959Y0117940D01*
X0116631Y0117342D02*
X0128770Y0117342D01*
X0128584Y0116743D02*
X0117208Y0116743D01*
X0117785Y0116145D02*
X0128399Y0116145D01*
X0128213Y0115546D02*
X0118361Y0115546D01*
X0118938Y0114948D02*
X0128027Y0114948D01*
X0127796Y0114349D02*
X0119514Y0114349D01*
X0120091Y0113751D02*
X0127485Y0113751D01*
X0127175Y0113152D02*
X0120668Y0113152D01*
X0121244Y0112554D02*
X0126865Y0112554D01*
X0126554Y0111955D02*
X0121821Y0111955D01*
X0122397Y0111357D02*
X0126096Y0111357D01*
X0125613Y0110758D02*
X0122974Y0110758D01*
X0123551Y0110160D02*
X0125129Y0110160D01*
X0124646Y0109561D02*
X0124127Y0109561D01*
X0127306Y0121531D02*
X0120377Y0121531D01*
X0120946Y0122130D02*
X0126996Y0122130D01*
X0126686Y0122728D02*
X0121516Y0122728D01*
X0122086Y0123327D02*
X0126308Y0123327D01*
X0125843Y0123925D02*
X0122655Y0123925D01*
X0123225Y0124524D02*
X0125377Y0124524D01*
X0124912Y0125122D02*
X0123795Y0125122D01*
X0124364Y0125721D02*
X0124446Y0125721D01*
X0241839Y0216971D02*
X0246109Y0216971D01*
X0262839Y0216971D02*
X0267109Y0216971D01*
X0264974Y0219106D02*
X0264974Y0214836D01*
D12*
X0251921Y0145224D02*
X0249559Y0145224D01*
X0251921Y0145224D02*
X0251921Y0142074D01*
X0243260Y0145224D02*
X0240898Y0145224D01*
X0240898Y0142074D01*
X0248653Y0092980D02*
X0251803Y0092980D01*
X0248653Y0092980D02*
X0248653Y0090618D01*
X0248653Y0084319D02*
X0248653Y0081956D01*
X0251803Y0081956D01*
X0252079Y0075279D02*
X0252079Y0073468D01*
X0250858Y0074389D01*
X0252079Y0073468D02*
X0252079Y0071657D01*
X0250858Y0072608D02*
X0252018Y0073368D01*
X0223079Y0073468D02*
X0221858Y0074389D01*
X0223079Y0075279D02*
X0223079Y0073468D01*
X0223079Y0071657D01*
X0221858Y0072608D02*
X0223018Y0073368D01*
X0222803Y0081956D02*
X0219653Y0081956D01*
X0219653Y0084319D01*
X0219653Y0090618D02*
X0219653Y0092980D01*
X0222803Y0092980D01*
X0178013Y0165868D02*
X0174510Y0165868D01*
X0173809Y0166569D01*
X0173809Y0167970D01*
X0174510Y0168671D01*
X0178013Y0168671D01*
X0176612Y0170472D02*
X0173809Y0170472D01*
X0173809Y0173275D02*
X0175911Y0173275D01*
X0176612Y0172574D01*
X0176612Y0170472D01*
X0176612Y0175076D02*
X0176612Y0175777D01*
X0173809Y0175777D01*
X0173809Y0176477D02*
X0173809Y0175076D01*
X0176612Y0178145D02*
X0173809Y0179547D01*
X0176612Y0180948D01*
X0174510Y0182749D02*
X0174510Y0183450D01*
X0173809Y0183450D01*
X0173809Y0182749D01*
X0174510Y0182749D01*
X0169612Y0181782D02*
X0168911Y0182482D01*
X0166809Y0182482D01*
X0166809Y0184284D02*
X0166809Y0186386D01*
X0167510Y0187086D01*
X0168211Y0186386D01*
X0168211Y0184984D01*
X0168911Y0184284D01*
X0169612Y0184984D01*
X0169612Y0187086D01*
X0169612Y0188888D02*
X0167510Y0188888D01*
X0166809Y0189588D01*
X0166809Y0191690D01*
X0166109Y0191690D02*
X0169612Y0191690D01*
X0171013Y0193492D02*
X0171013Y0194192D01*
X0166809Y0194192D01*
X0166809Y0193492D02*
X0166809Y0194893D01*
X0166809Y0197962D02*
X0169612Y0196561D01*
X0169612Y0199363D02*
X0166809Y0197962D01*
X0167510Y0201165D02*
X0168211Y0201866D01*
X0168211Y0203967D01*
X0168911Y0203967D02*
X0166809Y0203967D01*
X0166809Y0201866D01*
X0167510Y0201165D01*
X0169612Y0201866D02*
X0169612Y0203267D01*
X0168911Y0203967D01*
X0169612Y0205769D02*
X0169612Y0207871D01*
X0168911Y0208571D01*
X0166809Y0208571D01*
X0166809Y0210373D02*
X0166809Y0211774D01*
X0166809Y0211073D02*
X0169612Y0211073D01*
X0169612Y0210373D01*
X0171013Y0211073D02*
X0171714Y0211073D01*
X0169612Y0214143D02*
X0169612Y0215544D01*
X0168911Y0216244D01*
X0166809Y0216244D01*
X0166809Y0214143D01*
X0167510Y0213442D01*
X0168211Y0214143D01*
X0168211Y0216244D01*
X0166809Y0205769D02*
X0169612Y0205769D01*
X0173809Y0194960D02*
X0177312Y0194960D01*
X0178013Y0195660D01*
X0175911Y0195660D02*
X0175911Y0194259D01*
X0175911Y0192458D02*
X0176612Y0191757D01*
X0176612Y0190356D01*
X0175911Y0189655D01*
X0174510Y0189655D01*
X0173809Y0190356D01*
X0173809Y0191757D01*
X0174510Y0192458D01*
X0175911Y0192458D01*
X0166109Y0191690D02*
X0165408Y0190990D01*
X0165408Y0190289D01*
X0163312Y0182482D02*
X0164013Y0181782D01*
X0164013Y0180381D01*
X0163312Y0179680D01*
X0162612Y0179680D01*
X0161911Y0180381D01*
X0161911Y0181782D01*
X0161211Y0182482D01*
X0160510Y0182482D01*
X0159809Y0181782D01*
X0159809Y0180381D01*
X0160510Y0179680D01*
X0159809Y0177878D02*
X0159809Y0175076D01*
X0164013Y0175076D01*
X0164013Y0177878D01*
X0161911Y0176477D02*
X0161911Y0175076D01*
X0161911Y0173275D02*
X0161211Y0172574D01*
X0161211Y0170472D01*
X0161211Y0171873D02*
X0159809Y0173275D01*
X0161911Y0173275D02*
X0163312Y0173275D01*
X0164013Y0172574D01*
X0164013Y0170472D01*
X0159809Y0170472D01*
X0161911Y0167269D02*
X0161911Y0165868D01*
X0159809Y0165868D02*
X0164013Y0165868D01*
X0164013Y0168671D01*
X0166809Y0171173D02*
X0167510Y0170472D01*
X0168911Y0170472D01*
X0169612Y0171173D01*
X0169612Y0172574D01*
X0168911Y0173275D01*
X0168211Y0173275D01*
X0168211Y0170472D01*
X0166809Y0171173D02*
X0166809Y0172574D01*
X0166809Y0175076D02*
X0169612Y0175076D01*
X0169612Y0177178D01*
X0168911Y0177878D01*
X0166809Y0177878D01*
X0166809Y0179680D02*
X0169612Y0179680D01*
X0169612Y0181782D01*
X0178013Y0175777D02*
X0178714Y0175777D01*
X0171013Y0167970D02*
X0170312Y0168671D01*
X0168911Y0168671D01*
X0168211Y0167970D01*
X0168211Y0165868D01*
X0166809Y0165868D02*
X0171013Y0165868D01*
X0171013Y0167970D01*
X0131961Y0167328D02*
X0130801Y0166568D01*
X0130740Y0166468D02*
X0131961Y0165548D01*
X0130740Y0164657D02*
X0130740Y0166468D01*
X0130740Y0168279D01*
X0130740Y0174657D02*
X0130740Y0176468D01*
X0131961Y0175548D01*
X0130740Y0176468D02*
X0130740Y0178279D01*
X0131961Y0177328D02*
X0130801Y0176568D01*
X0130740Y0184657D02*
X0130740Y0186468D01*
X0131961Y0185548D01*
X0130740Y0186468D02*
X0130740Y0188279D01*
X0131961Y0187328D02*
X0130801Y0186568D01*
X0130740Y0194657D02*
X0130740Y0196468D01*
X0131961Y0195548D01*
X0130740Y0196468D02*
X0130740Y0198279D01*
X0131961Y0197328D02*
X0130801Y0196568D01*
X0130740Y0204657D02*
X0130740Y0206468D01*
X0131961Y0205548D01*
X0130740Y0206468D02*
X0130740Y0208279D01*
X0131961Y0207328D02*
X0130801Y0206568D01*
X0130740Y0158279D02*
X0130740Y0156468D01*
X0131961Y0155548D01*
X0130740Y0154657D02*
X0130740Y0156468D01*
X0130801Y0156568D02*
X0131961Y0157328D01*
D13*
X0157125Y0092423D02*
X0156141Y0091439D01*
X0156141Y0089471D01*
X0157125Y0088487D01*
X0160077Y0088487D01*
X0158109Y0088487D02*
X0156141Y0086518D01*
X0160077Y0086518D02*
X0160077Y0092423D01*
X0157125Y0092423D01*
X0162586Y0092423D02*
X0166523Y0092423D01*
X0166523Y0086518D01*
X0162586Y0086518D01*
X0164555Y0089471D02*
X0166523Y0089471D01*
X0169032Y0086518D02*
X0169032Y0092423D01*
X0172968Y0092423D02*
X0172968Y0086518D01*
X0171000Y0088487D01*
X0169032Y0086518D01*
X0175477Y0087502D02*
X0175477Y0091439D01*
X0176461Y0092423D01*
X0178430Y0092423D01*
X0179414Y0091439D01*
X0179414Y0087502D01*
X0178430Y0086518D01*
X0176461Y0086518D01*
X0175477Y0087502D01*
X0181923Y0089471D02*
X0182907Y0088487D01*
X0185859Y0088487D01*
X0185859Y0086518D02*
X0185859Y0092423D01*
X0182907Y0092423D01*
X0181923Y0091439D01*
X0181923Y0089471D01*
X0265016Y0221518D02*
X0264032Y0222502D01*
X0264032Y0224471D01*
X0265016Y0225455D01*
X0266000Y0225455D01*
X0267968Y0224471D01*
X0267968Y0227423D01*
X0264032Y0227423D01*
X0265016Y0221518D02*
X0266984Y0221518D01*
X0267968Y0222502D01*
X0270477Y0222502D02*
X0271461Y0221518D01*
X0273430Y0221518D01*
X0274414Y0222502D01*
X0274414Y0223487D01*
X0273430Y0224471D01*
X0271461Y0224471D01*
X0270477Y0223487D01*
X0270477Y0222502D01*
X0271461Y0224471D02*
X0270477Y0225455D01*
X0270477Y0226439D01*
X0271461Y0227423D01*
X0273430Y0227423D01*
X0274414Y0226439D01*
X0274414Y0225455D01*
X0273430Y0224471D01*
X0276923Y0224471D02*
X0280859Y0224471D01*
X0277907Y0227423D01*
X0277907Y0221518D01*
D14*
X0248409Y0191468D03*
X0225409Y0191468D03*
X0225409Y0174468D03*
X0225409Y0160468D03*
X0188409Y0151468D03*
X0188409Y0141468D03*
X0188409Y0131468D03*
X0188409Y0121468D03*
X0188409Y0111468D03*
D15*
X0219409Y0118468D03*
X0228409Y0143468D03*
X0252409Y0112468D03*
X0149409Y0145468D03*
D16*
X0118009Y0124768D03*
X0112309Y0117468D03*
X0118009Y0110168D03*
D17*
X0104509Y0101468D03*
X0104509Y0133468D03*
D18*
X0097409Y0117468D03*
D19*
X0112609Y0101468D02*
X0131109Y0101468D01*
X0131109Y0117468D01*
X0130412Y0114935D01*
X0129389Y0112514D01*
X0128060Y0110247D01*
X0126446Y0108174D01*
X0124575Y0106328D01*
X0122479Y0104743D01*
X0120195Y0103445D01*
X0117760Y0102456D01*
X0115217Y0101793D01*
X0112609Y0101468D01*
X0117704Y0102441D02*
X0131109Y0102441D01*
X0131109Y0104440D02*
X0121946Y0104440D01*
X0124687Y0106438D02*
X0131109Y0106438D01*
X0131109Y0108437D02*
X0126651Y0108437D01*
X0128170Y0110435D02*
X0131109Y0110435D01*
X0131109Y0112434D02*
X0129343Y0112434D01*
X0130200Y0114432D02*
X0131109Y0114432D01*
X0131109Y0116431D02*
X0130824Y0116431D01*
X0131109Y0117468D02*
X0130412Y0120002D01*
X0129389Y0122423D01*
X0128060Y0124689D01*
X0126446Y0126763D01*
X0124575Y0128608D01*
X0122479Y0130193D01*
X0120195Y0131492D01*
X0117760Y0132481D01*
X0115217Y0133143D01*
X0112609Y0133468D01*
X0131109Y0133468D01*
X0131109Y0117468D01*
X0131109Y0118429D02*
X0130845Y0118429D01*
X0131109Y0120428D02*
X0130232Y0120428D01*
X0129387Y0122427D02*
X0131109Y0122427D01*
X0131109Y0124425D02*
X0128215Y0124425D01*
X0126710Y0126424D02*
X0131109Y0126424D01*
X0131109Y0128422D02*
X0124764Y0128422D01*
X0122080Y0130421D02*
X0131109Y0130421D01*
X0131109Y0132419D02*
X0117911Y0132419D01*
D20*
X0243909Y0107468D03*
M02*
