G75*
%MOIN*%
%OFA0B0*%
%FSLAX25Y25*%
%IPPOS*%
%LPD*%
%AMOC8*
5,1,8,0,0,1.08239X$1,22.5*
%
%ADD10C,0.01421*%
%ADD11C,0.07000*%
%ADD12R,0.05131X0.04737*%
%ADD13R,0.04737X0.05131*%
%ADD14C,0.08200*%
%ADD15R,0.07000X0.07000*%
%ADD16R,0.04343X0.03950*%
%ADD17R,0.03950X0.04343*%
%ADD18R,0.05918X0.04737*%
%ADD19C,0.07800*%
%ADD20R,0.05900X0.28000*%
%ADD21C,0.10800*%
%ADD22R,0.04737X0.05918*%
D10*
X0126299Y0154810D02*
X0126299Y0158126D01*
X0129615Y0158126D01*
X0129615Y0154810D01*
X0126299Y0154810D01*
X0126299Y0156230D02*
X0129615Y0156230D01*
X0129615Y0157650D02*
X0126299Y0157650D01*
X0133204Y0158126D02*
X0133204Y0154810D01*
X0133204Y0158126D02*
X0136520Y0158126D01*
X0136520Y0154810D01*
X0133204Y0154810D01*
X0133204Y0156230D02*
X0136520Y0156230D01*
X0136520Y0157650D02*
X0133204Y0157650D01*
X0133204Y0164810D02*
X0133204Y0168126D01*
X0136520Y0168126D01*
X0136520Y0164810D01*
X0133204Y0164810D01*
X0133204Y0166230D02*
X0136520Y0166230D01*
X0136520Y0167650D02*
X0133204Y0167650D01*
X0126299Y0168126D02*
X0126299Y0164810D01*
X0126299Y0168126D02*
X0129615Y0168126D01*
X0129615Y0164810D01*
X0126299Y0164810D01*
X0126299Y0166230D02*
X0129615Y0166230D01*
X0129615Y0167650D02*
X0126299Y0167650D01*
X0126299Y0174810D02*
X0126299Y0178126D01*
X0129615Y0178126D01*
X0129615Y0174810D01*
X0126299Y0174810D01*
X0126299Y0176230D02*
X0129615Y0176230D01*
X0129615Y0177650D02*
X0126299Y0177650D01*
X0133204Y0178126D02*
X0133204Y0174810D01*
X0133204Y0178126D02*
X0136520Y0178126D01*
X0136520Y0174810D01*
X0133204Y0174810D01*
X0133204Y0176230D02*
X0136520Y0176230D01*
X0136520Y0177650D02*
X0133204Y0177650D01*
X0133204Y0184810D02*
X0133204Y0188126D01*
X0136520Y0188126D01*
X0136520Y0184810D01*
X0133204Y0184810D01*
X0133204Y0186230D02*
X0136520Y0186230D01*
X0136520Y0187650D02*
X0133204Y0187650D01*
X0126299Y0188126D02*
X0126299Y0184810D01*
X0126299Y0188126D02*
X0129615Y0188126D01*
X0129615Y0184810D01*
X0126299Y0184810D01*
X0126299Y0186230D02*
X0129615Y0186230D01*
X0129615Y0187650D02*
X0126299Y0187650D01*
X0126299Y0194810D02*
X0126299Y0198126D01*
X0129615Y0198126D01*
X0129615Y0194810D01*
X0126299Y0194810D01*
X0126299Y0196230D02*
X0129615Y0196230D01*
X0129615Y0197650D02*
X0126299Y0197650D01*
X0133204Y0198126D02*
X0133204Y0194810D01*
X0133204Y0198126D02*
X0136520Y0198126D01*
X0136520Y0194810D01*
X0133204Y0194810D01*
X0133204Y0196230D02*
X0136520Y0196230D01*
X0136520Y0197650D02*
X0133204Y0197650D01*
X0133204Y0204810D02*
X0133204Y0208126D01*
X0136520Y0208126D01*
X0136520Y0204810D01*
X0133204Y0204810D01*
X0133204Y0206230D02*
X0136520Y0206230D01*
X0136520Y0207650D02*
X0133204Y0207650D01*
X0126299Y0208126D02*
X0126299Y0204810D01*
X0126299Y0208126D02*
X0129615Y0208126D01*
X0129615Y0204810D01*
X0126299Y0204810D01*
X0126299Y0206230D02*
X0129615Y0206230D01*
X0129615Y0207650D02*
X0126299Y0207650D01*
X0220615Y0075126D02*
X0220615Y0071810D01*
X0217299Y0071810D01*
X0217299Y0075126D01*
X0220615Y0075126D01*
X0220615Y0073230D02*
X0217299Y0073230D01*
X0217299Y0074650D02*
X0220615Y0074650D01*
X0227520Y0075126D02*
X0227520Y0071810D01*
X0224204Y0071810D01*
X0224204Y0075126D01*
X0227520Y0075126D01*
X0227520Y0073230D02*
X0224204Y0073230D01*
X0224204Y0074650D02*
X0227520Y0074650D01*
X0249615Y0075126D02*
X0249615Y0071810D01*
X0246299Y0071810D01*
X0246299Y0075126D01*
X0249615Y0075126D01*
X0249615Y0073230D02*
X0246299Y0073230D01*
X0246299Y0074650D02*
X0249615Y0074650D01*
X0256520Y0075126D02*
X0256520Y0071810D01*
X0253204Y0071810D01*
X0253204Y0075126D01*
X0256520Y0075126D01*
X0256520Y0073230D02*
X0253204Y0073230D01*
X0253204Y0074650D02*
X0256520Y0074650D01*
D11*
X0266409Y0074468D03*
X0266409Y0084468D03*
X0266409Y0094468D03*
X0266409Y0104468D03*
X0266409Y0114468D03*
X0266409Y0124468D03*
X0266409Y0134468D03*
X0266409Y0144468D03*
X0266409Y0154468D03*
X0266409Y0164468D03*
X0266409Y0174468D03*
X0266409Y0184468D03*
X0266409Y0194468D03*
X0266409Y0204468D03*
X0256409Y0204468D03*
X0246409Y0204468D03*
X0236409Y0204468D03*
X0226409Y0204468D03*
X0216409Y0204468D03*
X0206409Y0204468D03*
X0206409Y0194468D03*
X0206409Y0184468D03*
X0206409Y0174468D03*
X0206409Y0164468D03*
X0206409Y0154468D03*
X0206409Y0144468D03*
X0206409Y0134468D03*
X0206409Y0124468D03*
X0206409Y0114468D03*
X0206409Y0104468D03*
X0206409Y0094468D03*
X0206409Y0084468D03*
X0206409Y0074468D03*
X0192409Y0171468D03*
X0192409Y0181468D03*
X0192409Y0191468D03*
X0192409Y0201468D03*
X0192409Y0211468D03*
X0192409Y0221468D03*
X0112409Y0211468D03*
X0112409Y0201468D03*
X0112409Y0191468D03*
X0112409Y0181468D03*
X0112409Y0171468D03*
D12*
X0185063Y0151468D03*
X0191756Y0151468D03*
X0191756Y0141468D03*
X0185063Y0141468D03*
X0185063Y0131468D03*
X0191756Y0131468D03*
X0191756Y0121468D03*
X0185063Y0121468D03*
X0185063Y0111468D03*
X0191756Y0111468D03*
X0222063Y0160468D03*
X0228756Y0160468D03*
X0228756Y0174468D03*
X0222063Y0174468D03*
X0222063Y0191468D03*
X0228756Y0191468D03*
X0245063Y0191468D03*
X0251756Y0191468D03*
D13*
X0228409Y0146815D03*
X0228409Y0140122D03*
X0219409Y0121815D03*
X0219409Y0115122D03*
X0252409Y0115815D03*
X0252409Y0109122D03*
X0149409Y0142122D03*
X0149409Y0148815D03*
D14*
X0112409Y0094468D03*
X0122409Y0094468D03*
X0132409Y0094468D03*
X0142409Y0094468D03*
D15*
X0112409Y0221468D03*
D16*
X0226346Y0091208D03*
X0226346Y0083728D03*
X0218079Y0087468D03*
X0247079Y0087468D03*
X0255346Y0083728D03*
X0255346Y0091208D03*
D17*
X0250150Y0138531D03*
X0242669Y0138531D03*
X0246409Y0146799D03*
D18*
X0240732Y0160578D03*
X0240732Y0174358D03*
X0256087Y0167468D03*
D19*
X0164109Y0140568D03*
X0144409Y0126368D03*
X0124709Y0140568D03*
D20*
X0102359Y0117468D03*
D21*
X0117409Y0077468D03*
X0137409Y0077468D03*
X0157409Y0077468D03*
X0214409Y0220868D03*
X0234409Y0220868D03*
X0254409Y0220868D03*
D22*
X0243299Y0122901D03*
X0236409Y0122901D03*
X0229520Y0122901D03*
X0229520Y0102035D03*
X0236409Y0102035D03*
X0243299Y0102035D03*
M02*
